<?xml version="1.0" standalone="no"?>
<!DOCTYPE svg PUBLIC "-//W3C//DTD SVG 1.1//EN" "http://www.w3.org/Graphics/SVG/1.1/DTD/svg11.dtd" >
<svg xmlns="http://www.w3.org/2000/svg" xmlns:xlink="http://www.w3.org/1999/xlink" version="1.1">
<metadata>
Created by FontForge 20190801 at Sun Jan  8 19:54:02 2017
 By www-data
Copyright (c) 2017 by DejaVu fonts team; BPG-InfoTech. All rights reserved.
</metadata>
<defs>
<font id="BPGDejaVuSansCndFtr" horiz-adv-x="1172" >
  <font-face 
    font-family="BPGDejaVuSansCndFtr"
    font-weight="400"
    font-stretch="condensed"
    units-per-em="2048"
    panose-1="2 11 6 6 3 8 4 2 2 4"
    ascent="1556"
    descent="-492"
    x-height="1120"
    cap-height="1493"
    bbox="-94 -483 2055 1800"
    underline-thickness="90"
    underline-position="-175"
    unicode-range="U+000D-F426"
  />
<missing-glyph horiz-adv-x="1106" 
d="M92 -362v1806h921v-1806h-921zM195 -248h716v1577h-716v-1577z" />
    <glyph glyph-name=".notdef" horiz-adv-x="1106" 
d="M92 -362v1806h921v-1806h-921zM195 -248h716v1577h-716v-1577z" />
    <glyph glyph-name=".null" horiz-adv-x="0" 
 />
    <glyph glyph-name="nonmarkingreturn" unicode="&#xd;" horiz-adv-x="682" 
 />
    <glyph glyph-name="NULL" horiz-adv-x="0" 
 />
    <glyph glyph-name="NULL" horiz-adv-x="0" 
 />
    <glyph glyph-name="space" unicode=" " horiz-adv-x="585" 
 />
    <glyph glyph-name="exclam" unicode="!" horiz-adv-x="738" 
d="M297 1493h164v-1012h-164v1012zM278 254h183v-254h-183v254z" />
    <glyph glyph-name="quotedbl" unicode="&#x22;" horiz-adv-x="847" 
d="M330 1493v-555h-153v555h153zM670 1493v-555h-152v555h152z" />
    <glyph glyph-name="numbersign" unicode="#" horiz-adv-x="1544" 
d="M942 901h-262l-75 -334h263zM807 1470l-93 -415h262l95 415h144l-93 -415h281v-154h-316l-74 -334h287v-153h-322l-93 -414h-144l92 414h-263l-93 -414h-145l94 414h-284v153h317l76 334h-290v154h325l92 415h145z" />
    <glyph glyph-name="dollar" unicode="$" 
d="M623 -301h-90l-1 301q-97 2 -189.5 24.5t-189.5 67.5v180q94 -64 187 -96.5t193 -33.5v456q-99 18 -171 48t-118.5 74t-68.5 102.5t-22 133.5q0 336 380 365v235h90v-232q85 -4 162.5 -19.5t152.5 -42.5v-175q-150 84 -315 92v-427q204 -35 300.5 -125t96.5 -246
q0 -349 -397 -379v-303zM533 770v410q-106 -13 -160 -66t-54 -141q0 -86 50.5 -134t163.5 -69zM623 578v-433q230 35 230 217q0 88 -55 140t-175 76z" />
    <glyph glyph-name="percent" unicode="%" horiz-adv-x="1751" 
d="M1340 657q-78 0 -122.5 -74t-44.5 -206q0 -65 11.5 -116.5t33 -87.5t52.5 -55.5t70 -19.5t69.5 19.5t52 55.5t33 87.5t11.5 116.5q0 139 -44 209.5t-122 70.5zM1340 784q70 0 127.5 -28.5t98 -82t62.5 -128.5t22 -168t-22 -168t-62.5 -128t-98 -81.5t-127.5 -28.5
q-72 0 -129.5 28.5t-98 81t-62 127.5t-21.5 169q0 93 22 168t62.5 128.5t98 82t128.5 28.5zM411 1393q-39 0 -69.5 -19.5t-52 -55.5t-33 -88t-11.5 -116q0 -140 44 -210t122 -70q79 0 123.5 70t44.5 210q0 64 -11.5 116t-33.5 88t-53 55.5t-70 19.5zM1224 1520h144
l-841 -1549h-144zM411 1520q71 0 129 -28.5t98.5 -81.5t62.5 -128t22 -168t-22 -168.5t-62.5 -128.5t-98 -81.5t-129.5 -28.5t-129.5 28.5t-97 81.5t-61 128.5t-21.5 168.5t21.5 168t61.5 128t97.5 81.5t128.5 28.5z" />
    <glyph glyph-name="ampersand" unicode="&#x26;" horiz-adv-x="1437" 
d="M448 803q-82 -81 -120 -161.5t-38 -168.5q0 -73 25.5 -135t70.5 -107.5t106 -71.5t133 -26q170 0 300 127zM575 915l457 -520q107 179 118 406h168q-22 -266 -188 -516l251 -285h-227l-129 147q-94 -91 -196.5 -133.5t-220.5 -42.5q-108 0 -198.5 36.5t-155.5 101.5
t-101.5 155t-36.5 197q0 133 60 242.5t181 209.5q-43 63 -65.5 125.5t-22.5 122.5q0 81 26.5 147t74.5 113.5t115.5 73t148.5 25.5q148 0 300 -72v-182q-158 96 -282 96q-47 0 -85.5 -15t-67 -41t-44 -63t-15.5 -80q0 -27 5 -51t20 -51.5t41.5 -62.5t68.5 -83z" />
    <glyph glyph-name="quotesingle" unicode="'" horiz-adv-x="506" 
d="M330 1493v-555h-153v555h153z" />
    <glyph glyph-name="parenleft" unicode="(" horiz-adv-x="719" 
d="M572 1554q-121 -230 -179.5 -455t-58.5 -456q0 -232 58.5 -457.5t179.5 -455.5h-144q-137 236 -203.5 461.5t-66.5 451.5q0 223 67 449t203 462h144z" />
    <glyph glyph-name="parenright" unicode=")" horiz-adv-x="719" 
d="M148 1554h144q135 -236 202 -462t67 -449q0 -226 -66.5 -451.5t-202.5 -461.5h-144q120 230 178.5 455.5t58.5 457.5q0 231 -59 456t-178 455z" />
    <glyph glyph-name="asterisk" unicode="*" horiz-adv-x="921" 
d="M867 1247l-323 -194l323 -195l-53 -98l-302 203v-377h-102v377l-303 -203l-52 98l323 195l-323 194l52 99l303 -203v377h102v-377l302 203z" />
    <glyph glyph-name="plus" unicode="+" horiz-adv-x="1544" 
d="M848 1284v-557h501v-170h-501v-557h-151v557h-502v170h502v557h151z" />
    <glyph glyph-name="comma" unicode="," horiz-adv-x="585" 
d="M216 254h190v-172l-148 -320h-116l74 320v172z" />
    <glyph glyph-name="hyphen" unicode="-" horiz-adv-x="665" 
d="M90 643h485v-164h-485v164z" />
    <glyph glyph-name="period" unicode="." horiz-adv-x="585" 
d="M197 254h190v-254h-190v254z" />
    <glyph glyph-name="slash" unicode="/" horiz-adv-x="621" 
d="M468 1493h153l-468 -1683h-153z" />
    <glyph glyph-name="zero" unicode="0" 
d="M586 1360q-282 0 -282 -615q0 -614 282 -614t282 614q0 615 -282 615zM586 1520q113 0 199.5 -50t145.5 -148.5t89 -243t30 -333.5q0 -378 -119 -576t-345 -198t-345 198t-119 576q0 189 30 333.5t89 243t145.5 148.5t199.5 50z" />
    <glyph glyph-name="one" unicode="1" 
d="M229 170h297v1139l-324 -72v184l322 72h182v-1323h297v-170h-774v170z" />
    <glyph glyph-name="two" unicode="2" 
d="M354 170h634v-170h-853v170q28 33 73.5 85t98.5 112t108 122.5t102.5 115.5t81 91.5t43.5 51.5q44 55 74 100.5t48 84.5t26 75t8 73q0 59 -19.5 108.5t-55.5 85t-86 55.5t-110 20q-169 0 -383 -133v204q112 49 206.5 74t173.5 25q104 0 188.5 -30.5t144 -86t92 -134
t32.5 -175.5q0 -47 -7 -89t-23.5 -85.5t-44 -90.5t-69.5 -104q-23 -29 -143.5 -167.5t-339.5 -387.5z" />
    <glyph glyph-name="three" unicode="3" 
d="M748 805q65 -16 116.5 -49.5t87 -81.5t54.5 -109t19 -131q0 -110 -35 -196.5t-102 -145.5t-164.5 -90t-223.5 -31q-156 0 -360 74v195q76 -49 165 -74t189 -25q350 0 350 293q0 140 -79 210.5t-236 70.5h-156v166h163q142 0 209.5 59.5t67.5 171.5q0 115 -69.5 176.5
t-214.5 61.5q-75 0 -160 -18t-188 -56v180q193 64 364 64q102 0 185 -27t141.5 -77.5t90.5 -122t32 -160.5q0 -132 -64 -213.5t-182 -114.5z" />
    <glyph glyph-name="four" unicode="4" 
d="M697 1317l-459 -797h459v797zM649 1493h229v-973h191v-168h-191v-352h-181v352h-607v195z" />
    <glyph glyph-name="five" unicode="5" 
d="M199 1493h714v-170h-548v-366q79 30 159 30q112 0 202.5 -36t154 -102t97.5 -160t34 -210q0 -121 -34.5 -215.5t-100.5 -159.5t-162 -99t-219 -34q-178 0 -354 64v203q81 -49 167 -73t183 -24q78 0 140.5 23.5t106.5 67.5t67.5 106.5t23.5 140.5t-23.5 140.5t-67.5 106.5
t-106.5 67.5t-140.5 23.5q-73 0 -145.5 -18t-147.5 -56v750z" />
    <glyph glyph-name="six" unicode="6" 
d="M608 827q-61 0 -110 -24t-83.5 -69t-53 -109.5t-18.5 -145.5q0 -80 18.5 -144.5t52.5 -109.5t83 -69.5t111 -24.5t111.5 25t84 70.5t52.5 109.5t18 143q0 80 -18.5 144.5t-53 109.5t-84 69.5t-110.5 24.5zM969 1460v-184q-69 36 -138 55t-138 19q-180 0 -275 -135
t-108 -408q54 88 133 134t176 46q101 0 182 -36t138 -102t87.5 -160t30.5 -210q0 -114 -32 -207.5t-90.5 -160t-141.5 -103.5t-185 -37q-117 0 -206 50t-150 148t-92 242.5t-31 333.5q0 176 39.5 319t112 244.5t175.5 156.5t230 55q69 0 138.5 -15t144.5 -45z" />
    <glyph glyph-name="seven" unicode="7" 
d="M151 1493h864v-86l-488 -1407h-189l458 1323h-645v170z" />
    <glyph glyph-name="eight" unicode="8" 
d="M586 709q-65 0 -116.5 -20t-87.5 -57t-55 -91t-19 -121q0 -68 19 -121.5t55 -90.5t87.5 -57t116.5 -20q66 0 118 20.5t87.5 58.5t54.5 91t19 119q0 67 -19 120.5t-55 91t-88 57.5t-117 20zM404 795q-118 32 -182.5 120.5t-64.5 217.5q0 90 30 161.5t85.5 122t135 77
t178.5 26.5q100 0 179.5 -27t135 -77.5t85 -122t29.5 -160.5q0 -128 -64.5 -217t-181.5 -121q65 -17 116.5 -51t87.5 -82.5t55 -109.5t19 -132q0 -449 -461 -449t-461 449q0 71 19 132t55 109.5t87.5 82.5t117.5 51zM338 1114q0 -118 65 -182t183 -64t183.5 64t65.5 182
t-65.5 182t-183.5 64t-183 -64t-65 -182z" />
    <glyph glyph-name="nine" unicode="9" 
d="M202 31v184q69 -36 138.5 -55t138.5 -19q181 0 275.5 134t107.5 409q-52 -88 -132 -133t-177 -45q-101 0 -182 35t-137.5 101t-87 159.5t-30.5 210.5q0 114 32 208t90.5 160.5t141.5 103t184 36.5q117 0 206 -50t150 -148.5t92 -243t31 -333.5q0 -174 -39 -316.5
t-111 -244.5t-175 -157.5t-231 -55.5q-69 0 -139 15t-146 45zM564 664q61 0 110.5 24.5t84 69.5t53 109.5t18.5 144.5q0 79 -18.5 143.5t-53 110t-84 70t-110.5 24.5q-60 0 -109 -24t-83.5 -69t-53.5 -109.5t-19 -145.5t18.5 -145.5t53 -109.5t83.5 -69t110 -24z" />
    <glyph glyph-name="colon" unicode=":" horiz-adv-x="621" 
d="M216 254h190v-254h-190v254zM216 1059h190v-254h-190v254z" />
    <glyph glyph-name="semicolon" unicode=";" horiz-adv-x="621" 
d="M216 1059h190v-254h-190v254zM216 254h190v-172l-148 -320h-116l74 320v172z" />
    <glyph glyph-name="less" unicode="&#x3c;" horiz-adv-x="1544" 
d="M1349 1008l-929 -367l929 -365v-182l-1154 465v166l1154 465v-182z" />
    <glyph glyph-name="equal" unicode="=" horiz-adv-x="1544" 
d="M195 930h1154v-168h-1154v168zM195 522h1154v-170h-1154v170z" />
    <glyph glyph-name="greater" unicode="&#x3e;" horiz-adv-x="1544" 
d="M195 1008v182l1154 -465v-166l-1154 -465v182l927 365z" />
    <glyph glyph-name="question" unicode="?" horiz-adv-x="978" 
d="M352 254h183v-254h-183v254zM529 401h-177l5 154q0 52 5 91.5t19.5 75t40 71t67.5 79.5l81 89q51 56 74 100.5t23 95.5q0 44 -15.5 80.5t-43.5 63t-68 41t-88 14.5q-72 0 -152 -35t-168 -102v188q170 113 351 113q82 0 150 -25.5t116 -72t74.5 -111.5t26.5 -144
q0 -39 -8 -74t-25 -70.5t-45 -73t-68 -81.5l-79 -86q-21 -23 -35.5 -40.5t-24.5 -31.5t-15.5 -26.5t-9.5 -26.5q-5 -21 -8 -51t-3 -82v-123z" />
    <glyph glyph-name="at" unicode="@" horiz-adv-x="1843" 
d="M686 537q0 -71 16 -127.5t47 -96t75.5 -61t100.5 -21.5q55 0 99.5 21.5t75 61.5t47 96.5t16.5 126.5q0 69 -17 125.5t-48.5 96t-75.5 61.5t-99 22t-99 -21.5t-74.5 -61.5t-47 -96t-16.5 -126zM1176 238q-54 -78 -123 -114t-163 -36q-78 0 -142 32.5t-109.5 92t-71 142
t-25.5 182.5q0 99 25.5 181.5t71.5 142.5t110 93t141 33q94 0 163 -37.5t123 -113.5v131h129v-736q66 11 118 45.5t88 89.5t55 127.5t19 159.5q0 98 -24.5 183.5t-67.5 157.5t-102.5 128.5t-130.5 95.5t-149.5 59.5t-160.5 20.5q-95 0 -184 -25t-167 -72t-142.5 -114
t-111 -151t-72 -183t-25.5 -210q0 -105 23.5 -202t67.5 -181t106 -153t138 -117.5t165 -75.5t186 -27q118 0 229 43.5t205 124.5l81 -111q-115 -97 -242.5 -148.5t-272.5 -51.5q-174 0 -318 61.5t-259 194.5q-115 132 -175 289.5t-60 353.5q0 186 60 346.5t175 290.5
q234 262 591 262q100 0 195.5 -26.5t180.5 -76t157 -119.5t123.5 -157.5t80.5 -190t29 -215.5q0 -131 -37 -235.5t-106 -178.5t-169 -115t-226 -44v154z" />
    <glyph glyph-name="A" unicode="A" horiz-adv-x="1260" 
d="M630 1294l-247 -743h495zM527 1493h207l512 -1493h-189l-123 383h-606l-122 -383h-192z" />
    <glyph glyph-name="B" unicode="B" horiz-adv-x="1264" 
d="M363 713v-547h291q148 0 218 67t70 207q0 141 -70 207t-218 66h-291zM363 1327v-450h269q136 0 200 55t64 170q0 225 -264 225h-269zM181 1493h464q104 0 184.5 -24.5t136 -71.5t84 -116t28.5 -157q0 -144 -57.5 -221.5t-169.5 -97.5q67 -16 120 -50t89 -83.5t55 -113.5
t19 -140q0 -99 -31 -177t-91 -131.5t-148 -81.5t-201 -28h-482v1493z" />
    <glyph glyph-name="C" unicode="C" horiz-adv-x="1287" 
d="M1187 1378v-213q-183 189 -417 189q-115 0 -203.5 -39.5t-149 -117t-91.5 -191t-31 -261.5q0 -147 31 -260.5t91.5 -191t149 -117t203.5 -39.5q234 0 417 189v-211q-191 -144 -427 -144q-153 0 -275 54t-206.5 154.5t-129.5 243.5t-45 322t45.5 322.5t130 244t206 154.5
t274.5 54q243 0 427 -142z" />
    <glyph glyph-name="D" unicode="D" horiz-adv-x="1419" 
d="M363 1327v-1161h219q139 0 240.5 34.5t167.5 106t97.5 181t31.5 260.5q0 150 -31.5 259t-97.5 180t-167.5 105.5t-240.5 34.5h-219zM181 1493h373q196 0 338.5 -44.5t235.5 -136t137.5 -232t44.5 -332.5q0 -193 -45 -334t-138 -233t-235.5 -136.5t-337.5 -44.5h-373v1493
z" />
    <glyph glyph-name="E" unicode="E" horiz-adv-x="1164" 
d="M181 1493h849v-170h-667v-442h640v-170h-640v-541h684v-170h-866v1493z" />
    <glyph glyph-name="F" unicode="F" horiz-adv-x="1060" 
d="M181 1493h772v-170h-590v-440h533v-170h-533v-713h-182v1493z" />
    <glyph glyph-name="G" unicode="G" horiz-adv-x="1428" 
d="M1097 213v401h-297v166h477v-641q-212 -168 -503 -168q-158 0 -282.5 52.5t-210.5 152.5t-131.5 243.5t-45.5 325.5q0 183 46 327t132.5 243.5t210.5 152t281 52.5q139 0 253.5 -36t214.5 -106v-215q-203 191 -453 191q-246 0 -370 -153t-124 -456q0 -302 124 -455
t370 -153q97 0 172.5 18.5t135.5 57.5z" />
    <glyph glyph-name="H" unicode="H" horiz-adv-x="1386" 
d="M181 1493h182v-612h660v612h182v-1493h-182v711h-660v-711h-182v1493z" />
    <glyph glyph-name="I" unicode="I" horiz-adv-x="543" 
d="M181 1493h182v-1493h-182v1493z" />
    <glyph glyph-name="J" unicode="J" horiz-adv-x="543" 
d="M182 1493h182v-1389q0 -135 -22.5 -232t-69.5 -160t-121 -92.5t-176 -29.5h-69v170h56q60 0 102 17t68.5 57.5t38 106t11.5 163.5v1389z" />
    <glyph glyph-name="K" unicode="K" horiz-adv-x="1208" 
d="M181 1493h182v-631l603 631h234l-667 -696l714 -797h-239l-645 719v-719h-182v1493z" />
    <glyph glyph-name="L" unicode="L" horiz-adv-x="1026" 
d="M181 1493h182v-1323h654v-170h-836v1493z" />
    <glyph glyph-name="M" unicode="M" horiz-adv-x="1590" 
d="M181 1493h271l343 -1016l344 1016h271v-1493h-177v1311l-347 -1024h-182l-347 1024v-1311h-176v1493z" />
    <glyph glyph-name="N" unicode="N" horiz-adv-x="1378" 
d="M181 1493h245l596 -1249v1249h176v-1493h-245l-596 1249v-1249h-176v1493z" />
    <glyph glyph-name="O" unicode="O" horiz-adv-x="1450" 
d="M726 1356q-99 0 -178.5 -42.5t-136 -121.5t-86.5 -192.5t-30 -254.5t30 -253.5t86.5 -192t136 -122t178.5 -42.5t178.5 42.5t135.5 122t86 192.5t30 253q0 141 -30 254t-86 192.5t-135.5 122t-178.5 42.5zM726 1520q141 0 255.5 -55t196 -156.5t125.5 -244.5t44 -319
q0 -175 -43.5 -317.5t-124.5 -244t-196 -157t-257 -55.5t-257 55t-196 156t-125 244t-44 319t44 319t125.5 244.5t196.5 156.5t256 55z" />
    <glyph glyph-name="P" unicode="P" horiz-adv-x="1111" 
d="M363 1327v-561h228q266 0 266 281q0 280 -266 280h-228zM181 1493h410q230 0 343.5 -111.5t113.5 -334.5q0 -447 -457 -447h-228v-600h-182v1493z" />
    <glyph glyph-name="Q" unicode="Q" horiz-adv-x="1450" 
d="M726 1356q-99 0 -178.5 -42.5t-136 -121.5t-86.5 -192.5t-30 -254.5t30 -253.5t86.5 -192t136 -122t178.5 -42.5t178.5 42.5t135.5 122t86 192.5t30 253q0 141 -30 254t-86 192.5t-135.5 122t-178.5 42.5zM981 27l239 -291h-219l-199 239q-30 -2 -45.5 -3t-30.5 -1
q-143 0 -258 55.5t-196 157t-124.5 244t-43.5 317.5q0 176 44 319t125.5 244.5t196.5 156.5t256 55t255.5 -55t196 -156.5t125.5 -244.5t44 -319q0 -265 -92.5 -446t-273.5 -272z" />
    <glyph glyph-name="R" unicode="R" horiz-adv-x="1280" 
d="M818 700q60 -22 113.5 -93.5t111.5 -198.5l185 -408h-196l-172 383q-33 75 -63.5 123.5t-64.5 76t-75 38t-96 10.5h-198v-631h-182v1493h410q233 0 345 -106t112 -324q0 -291 -230 -363zM363 1327v-530h228q266 0 266 266q0 264 -266 264h-228z" />
    <glyph glyph-name="S" unicode="S" horiz-adv-x="1170" 
d="M986 1444v-197q-205 109 -372 109q-157 0 -233.5 -64t-76.5 -182q0 -50 11.5 -86t41 -63t79 -46.5t125.5 -35.5l109 -25q204 -43 300.5 -151.5t96.5 -290.5q0 -441 -514 -441q-97 0 -204 23.5t-222 71.5v208q112 -69 217.5 -104t208.5 -35q325 0 325 262q0 55 -14.5 97.5
t-46 74.5t-81 55t-119.5 38l-110 24q-102 22 -175 56t-119.5 83.5t-68.5 116t-22 152.5q0 99 32.5 178t93.5 134t148 84.5t197 29.5q201 0 393 -76z" />
    <glyph glyph-name="T" unicode="T" horiz-adv-x="1125" 
d="M-4 1493h1136v-170h-477v-1323h-182v1323h-477v170z" />
    <glyph glyph-name="U" unicode="U" horiz-adv-x="1349" 
d="M160 1493h183v-907q0 -120 19 -205.5t59 -140t103 -80t151 -25.5t151 25.5t103 80.5t58.5 140t18.5 205v907h183v-932q0 -292 -130 -441t-384 -149q-255 0 -385 149t-130 441v932z" />
    <glyph glyph-name="V" unicode="V" horiz-adv-x="1260" 
d="M527 0l-513 1493h190l426 -1257l427 1257h189l-512 -1493h-207z" />
    <glyph glyph-name="W" unicode="W" horiz-adv-x="1822" 
d="M61 1493h184l282 -1262l282 1262h204l283 -1262l282 1262h184l-337 -1493h-229l-283 1296l-287 -1296h-228z" />
    <glyph glyph-name="X" unicode="X" horiz-adv-x="1262" 
d="M116 1493h195l334 -555l336 555h195l-432 -717l461 -776h-195l-378 635l-381 -635h-196l480 797z" />
    <glyph glyph-name="Y" unicode="Y" horiz-adv-x="1125" 
d="M-3 1493h196l372 -614l370 614h196l-476 -782v-711h-182v711z" />
    <glyph glyph-name="Z" unicode="Z" horiz-adv-x="1262" 
d="M104 1493h1055v-154l-849 -1169h870v-170h-1097v154l849 1169h-828v170z" />
    <glyph glyph-name="bracketleft" unicode="[" horiz-adv-x="719" 
d="M158 1556h382v-143h-216v-1540h216v-143h-382v1826z" />
    <glyph glyph-name="backslash" unicode="\" horiz-adv-x="621" 
d="M153 1493l468 -1683h-153l-468 1683h153z" />
    <glyph glyph-name="bracketright" unicode="]" horiz-adv-x="719" 
d="M561 1556v-1826h-382v143h215v1540h-215v143h382z" />
    <glyph glyph-name="asciicircum" unicode="^" horiz-adv-x="1544" 
d="M860 1493l489 -557h-181l-396 395l-396 -395h-181l489 557h176z" />
    <glyph glyph-name="underscore" unicode="_" horiz-adv-x="921" 
d="M940 -340v-143h-958v143h958z" />
    <glyph glyph-name="grave" unicode="`" horiz-adv-x="921" 
d="M330 1638l254 -374h-138l-293 374h177z" />
    <glyph glyph-name="a" unicode="a" horiz-adv-x="1129" 
d="M632 563q-101 0 -169 -12t-109.5 -38.5t-59.5 -69.5t-18 -105q0 -49 15 -88.5t43 -67t68 -42.5t90 -15q70 0 126 28.5t95.5 81t61 125.5t21.5 162v41h-164zM962 639v-639h-166v170q-56 -102 -140.5 -150.5t-207.5 -48.5q-78 0 -140.5 25.5t-106 72t-67 112t-23.5 145.5
q0 381 453 381h232v18q0 266 -286 266q-174 0 -326 -92v170q181 78 343 78q220 0 327.5 -125.5t107.5 -382.5z" />
    <glyph glyph-name="b" unicode="b" horiz-adv-x="1170" 
d="M897 559q0 100 -19.5 180.5t-56 137t-88.5 86.5t-117 30q-66 0 -118.5 -30t-88.5 -86.5t-55.5 -137t-19.5 -180.5q0 -101 19 -181t55.5 -136.5t89 -86.5t118.5 -30t118 30t88 86t55.5 136.5t19.5 181.5zM334 950q52 100 131 148.5t191 48.5q92 0 168 -43t130.5 -121
t84.5 -186t30 -238t-30 -238t-84.5 -186t-130.5 -121t-168 -43q-112 0 -191 48.5t-131 148.5v-168h-167v1556h167v-606z" />
    <glyph glyph-name="c" unicode="c" horiz-adv-x="1013" 
d="M899 1077v-172q-140 86 -283 86q-81 0 -144 -29t-106.5 -84.5t-66.5 -136t-23 -182.5t22.5 -182t66 -135.5t106.5 -85t145 -29.5q143 0 283 86v-170q-69 -36 -142.5 -54t-158.5 -18q-114 0 -206 41.5t-156.5 118t-99 185.5t-34.5 243q0 137 35 246t100.5 185t159.5 116.5
t211 40.5q155 0 291 -70z" />
    <glyph glyph-name="d" unicode="d" horiz-adv-x="1170" 
d="M837 950v606h166v-1556h-166v168q-52 -100 -131.5 -148.5t-191.5 -48.5q-92 0 -167.5 42.5t-130 120t-84.5 186t-30 239.5t30 239.5t84.5 186t130 120t167.5 42.5q112 0 191.5 -48.5t131.5 -148.5zM273 559q0 -101 19 -181.5t55.5 -136.5t88.5 -86t118 -30t118.5 30.5
t89 86.5t56 136.5t19.5 180.5t-19.5 180.5t-56 136.5t-89 86.5t-118.5 30.5t-118 -30t-88 -86.5t-55.5 -137t-19.5 -180.5z" />
    <glyph glyph-name="e" unicode="e" horiz-adv-x="1134" 
d="M1036 606v-90h-762q23 -389 360 -389q97 0 186 26t177 78v-174q-91 -42 -183 -64t-189 -22q-121 0 -217.5 40.5t-164.5 115.5t-104.5 182t-36.5 240q0 137 34.5 247.5t99 188.5t156 120t204.5 42q101 0 182.5 -38t138.5 -108.5t88 -170.5t31 -224zM870 660q-1 75 -21 136
t-55.5 104.5t-85 67t-110.5 23.5q-294 0 -318 -332z" />
    <glyph glyph-name="f" unicode="f" horiz-adv-x="648" 
d="M684 1556v-153h-158q-46 0 -76.5 -9t-49 -30.5t-26 -57t-7.5 -87.5v-99h273v-143h-273v-977h-166v977h-159v143h159v78q0 93 19 161t59 111.5t101.5 64.5t146.5 21h157z" />
    <glyph glyph-name="g" unicode="g" horiz-adv-x="1170" 
d="M837 573q0 100 -19 178t-55.5 132t-89 82t-119.5 28t-119 -28.5t-88 -82.5t-55 -132t-19 -177t19 -177t55 -132t88.5 -82t118.5 -28q67 0 119.5 28.5t89 82t55.5 131.5t19 177zM1003 139q0 -286 -114.5 -425.5t-350.5 -139.5q-162 0 -315 59v179q73 -45 143.5 -65.5
t145.5 -20.5q325 0 325 380v91q-101 -197 -323 -197q-93 0 -169 41.5t-130 117t-83.5 181t-29.5 233.5q0 129 29.5 234.5t83.5 181t130 117t169 41.5q222 0 323 -197v170h166v-981z" />
    <glyph glyph-name="h" unicode="h" horiz-adv-x="1168" 
d="M1012 676v-676h-166v670q0 317 -223 317q-67 0 -120.5 -24.5t-91 -70.5t-57.5 -111.5t-20 -147.5v-633h-167v1556h167v-610q60 103 140 152t186 49q352 0 352 -471z" />
    <glyph glyph-name="i" unicode="i" horiz-adv-x="512" 
d="M174 1120h165v-1120h-165v1120zM174 1556h165v-233h-165v233z" />
    <glyph glyph-name="j" unicode="j" horiz-adv-x="512" 
d="M175 1120h165v-1140q0 -108 -18 -184.5t-55.5 -126t-96 -72.5t-139.5 -23h-63v156h44q46 0 77.5 10t50.5 37t27 76t8 127v1140zM175 1556h165v-233h-165v233z" />
    <glyph glyph-name="k" unicode="k" horiz-adv-x="1067" 
d="M167 1556h167v-919l494 483h212l-535 -524l557 -596h-216l-512 547v-547h-167v1556z" />
    <glyph glyph-name="l" unicode="l" horiz-adv-x="512" 
d="M174 1556h165v-1556h-165v1556z" />
    <glyph glyph-name="m" unicode="m" horiz-adv-x="1795" 
d="M958 905q63 126 148.5 184t203.5 58q79 0 140.5 -31.5t103.5 -91.5t63.5 -148t21.5 -200v-676h-167v670q0 163 -51 240t-157 77q-64 0 -115.5 -25t-87.5 -71t-55.5 -111.5t-19.5 -146.5v-633h-166v670q0 163 -51 240t-159 77q-63 0 -114 -24.5t-87 -70.5t-55.5 -111.5
t-19.5 -147.5v-633h-167v1120h167v-174q57 103 136 152t188 49q112 0 188 -62t112 -180z" />
    <glyph glyph-name="n" unicode="n" horiz-adv-x="1168" 
d="M1012 676v-676h-166v670q0 317 -223 317q-67 0 -120.5 -24.5t-91 -70.5t-57.5 -111.5t-20 -147.5v-633h-167v1120h167v-174q60 103 140 152t186 49q352 0 352 -471z" />
    <glyph glyph-name="o" unicode="o" horiz-adv-x="1127" 
d="M564 991q-66 0 -119.5 -30t-91 -86t-57.5 -136t-20 -180t19.5 -180t57 -136t90.5 -86t121 -30q67 0 120 30.5t90 86.5t57 136t20 179t-20 179t-57 136t-90.5 86.5t-119.5 30.5zM564 1147q108 0 194 -40.5t145.5 -116.5t91.5 -185t32 -246q0 -136 -31.5 -244.5t-91 -185
t-145.5 -117.5t-195 -41t-195 40.5t-145 117t-90.5 185t-31.5 245.5q0 138 31.5 247t91 184.5t145 116t194.5 40.5z" />
    <glyph glyph-name="p" unicode="p" horiz-adv-x="1170" 
d="M334 168v-594h-167v1546h167v-170q52 100 131 148.5t191 48.5q92 0 168 -43t130.5 -121t84.5 -186t30 -238t-30 -238t-84.5 -186t-130.5 -121t-168 -43q-112 0 -191 48.5t-131 148.5zM897 559q0 100 -19.5 180.5t-56 137t-88.5 86.5t-117 30q-66 0 -118.5 -30
t-88.5 -86.5t-55.5 -137t-19.5 -180.5q0 -101 19 -181t55.5 -136.5t89 -86.5t118.5 -30t118 30t88 86t55.5 136.5t19.5 181.5z" />
    <glyph glyph-name="q" unicode="q" horiz-adv-x="1170" 
d="M273 559q0 -101 19 -181.5t55.5 -136.5t88.5 -86t118 -30t118.5 30.5t89 86.5t56 136.5t19.5 180.5t-19.5 180.5t-56 136.5t-89 86.5t-118.5 30.5t-118 -30t-88 -86.5t-55.5 -137t-19.5 -180.5zM837 168q-52 -100 -131.5 -148.5t-191.5 -48.5q-92 0 -167.5 42.5t-130 120
t-84.5 186t-30 239.5t30 239.5t84.5 186t130 120t167.5 42.5q112 0 191.5 -48.5t131.5 -148.5v170h166v-1546h-166v594z" />
    <glyph glyph-name="r" unicode="r" horiz-adv-x="757" 
d="M758 948q-56 35 -133 35q-149 0 -220 -97.5t-71 -295.5v-590h-167v1120h167v-174q52 103 135 152t204 49q51 0 84 -10z" />
    <glyph glyph-name="s" unicode="s" horiz-adv-x="960" 
d="M816 1087v-174q-140 80 -302 80q-247 0 -247 -168q0 -32 9 -56.5t34 -44t68 -36t111 -33.5l56 -14q89 -21 151 -50t100.5 -69t56 -92.5t17.5 -120.5q0 -78 -29 -140.5t-83 -106.5t-131 -67.5t-173 -23.5q-172 0 -354 70v190q184 -106 357 -106q118 0 180.5 44.5
t62.5 125.5q0 37 -8.5 64.5t-35 49.5t-74.5 40.5t-127 37.5l-57 15q-77 18 -132 45t-90.5 65.5t-52 89t-16.5 115.5q0 166 97 248t290 82q185 0 322 -60z" />
    <glyph glyph-name="t" unicode="t" horiz-adv-x="722" 
d="M338 1438v-318h341v-143h-341v-608q0 -70 7.5 -112.5t26.5 -65t52 -30t84 -7.5h171v-154h-171q-96 0 -160.5 18t-104 60.5t-56 113.5t-16.5 177v608h-121v143h121v318h167z" />
    <glyph glyph-name="u" unicode="u" horiz-adv-x="1168" 
d="M157 442v678h165v-671q0 -318 223 -318q67 0 121 25t91.5 71t57.5 111.5t20 146.5v635h166v-1120h-166v172q-60 -103 -139.5 -152t-185.5 -49q-353 0 -353 471z" />
    <glyph glyph-name="v" unicode="v" horiz-adv-x="1090" 
d="M55 1120h175l315 -940l315 940h176l-378 -1120h-225z" />
    <glyph glyph-name="w" unicode="w" horiz-adv-x="1507" 
d="M77 1120h166l207 -874l206 874h195l207 -874l206 874h166l-264 -1120h-195l-217 918l-218 -918h-195z" />
    <glyph glyph-name="x" unicode="x" horiz-adv-x="1090" 
d="M1012 1120l-365 -545l383 -575h-195l-293 440l-294 -440h-195l392 586l-359 534h196l267 -399l267 399h196z" />
    <glyph glyph-name="y" unicode="y" horiz-adv-x="1090" 
d="M593 -104q-36 -101 -68.5 -164t-68.5 -98t-78.5 -47.5t-99.5 -12.5h-132v154h97q34 0 59 6.5t46 28t41 62.5t44 109l30 84l-408 1102h175l315 -876l315 876h176z" />
    <glyph glyph-name="z" unicode="z" horiz-adv-x="967" 
d="M102 1120h786v-168l-622 -805h622v-147h-809v168l623 805h-600v147z" />
    <glyph glyph-name="braceleft" unicode="{" 
d="M942 -190v-144h-56q-113 0 -185.5 16t-115 57t-59 113t-16.5 183v239q0 75 -11 126.5t-37.5 82.5t-69.5 44.5t-107 13.5h-55v143h55q66 0 109 13.5t69 44.5t36.5 81.5t10.5 124.5v240q0 111 16.5 182.5t59 112.5t115 57t185.5 16h56v-143h-61q-64 0 -103.5 -9t-62 -34
t-30.5 -69.5t-8 -116.5v-248q0 -80 -9.5 -135.5t-31.5 -93t-56.5 -60t-83.5 -35.5q50 -14 84.5 -37t56 -61t31 -93.5t9.5 -133.5v-248q0 -72 8 -116.5t30.5 -69.5t62 -34t103.5 -9h61z" />
    <glyph glyph-name="bar" unicode="|" horiz-adv-x="621" 
d="M387 1565v-2048h-153v2048h153z" />
    <glyph glyph-name="braceright" unicode="}" 
d="M230 -190h63q64 0 103.5 9t61.5 34t30 70t8 116v248q0 79 9.5 134.5t30.5 93t55.5 60.5t85.5 37q-51 13 -85.5 35.5t-55.5 60t-30.5 93t-9.5 135.5v248q0 71 -8 115.5t-30 70t-62 34.5t-103 9h-63v143h57q112 0 185 -16t115 -57.5t58.5 -112.5t16.5 -182v-240
q0 -75 11 -125.5t36.5 -81t68.5 -44t108 -13.5h56v-143h-56q-63 0 -106 -13t-69.5 -44t-37.5 -82.5t-11 -127.5v-239q0 -111 -16.5 -182.5t-58.5 -113t-115 -57.5t-185 -16h-57v144z" />
    <glyph glyph-name="asciitilde" unicode="~" horiz-adv-x="1544" 
d="M1349 817v-178q-49 -41 -93 -69t-86.5 -45.5t-85.5 -25t-89 -7.5q-45 0 -99 16.5t-120 42.5l-15 6q-73 36 -137 53t-106 17q-80 0 -157 -38.5t-166 -121.5v178q48 39 91 67t84.5 46t82.5 26.5t85 8.5q55 0 121 -19t144 -55q72 -30 125.5 -46t98.5 -16q77 0 153 38
t169 122z" />
    <glyph glyph-name="currency" unicode="&#xa4;" 
d="M802 993l186 209l103 -115l-186 -206q34 -60 50 -118.5t16 -121.5t-17 -120.5t-53 -114.5l188 -207l-103 -113l-186 207q-54 -40 -105.5 -59t-106.5 -19q-105 0 -215 74l-187 -207l-101 115l186 206q-33 63 -50 121.5t-17 116.5q0 64 17 121.5t52 114.5l-187 206l104 115
l186 -207q51 39 102.5 57.5t109.5 18.5q54 0 106.5 -18t107.5 -56zM830 643q0 55 -19 103.5t-51.5 84.5t-76.5 57t-95 21q-50 0 -94.5 -21t-77.5 -57t-52 -84.5t-19 -103.5q0 -57 19 -106t51.5 -85.5t77 -57.5t95.5 -21t95 21.5t76.5 58.5t51.5 86t19 104z" />
    <glyph glyph-name="brokenbar" unicode="&#xa6;" horiz-adv-x="621" 
d="M387 408v-758h-153v758h153zM387 1432v-758h-153v758h153z" />
    <glyph glyph-name="section" unicode="&#xa7;" horiz-adv-x="921" 
d="M341 936q-112 -90 -112 -182q0 -75 62 -143q31 -34 102 -83t186 -118q112 90 112 182q0 75 -65 143q-65 67 -285 201zM746 1462v-164q-150 78 -254 78q-91 0 -137.5 -40t-46.5 -113q0 -45 45.5 -94t139.5 -109l36 -23q97 -60 157.5 -107t94 -89.5t45 -84.5t11.5 -93
q0 -91 -41 -160t-126 -123q57 -52 82.5 -106.5t25.5 -118.5q0 -71 -24 -128.5t-68.5 -98t-107 -62t-140.5 -21.5q-66 0 -135 14.5t-148 43.5v164q78 -39 144.5 -58.5t118.5 -19.5q94 0 144 41.5t50 119.5q0 52 -49.5 106.5t-149.5 117.5l-22 14q-98 61 -158.5 107.5
t-93.5 88.5t-44.5 84t-11.5 95q0 91 41.5 162.5t123.5 120.5q-106 88 -106 225q0 64 23.5 117.5t67 91.5t104.5 59t135 21q143 0 274 -58z" />
    <glyph glyph-name="copyright" unicode="&#xa9;" horiz-adv-x="1843" 
d="M922 1485q273 0 471 -219q195 -216 195 -525q0 -306 -195 -522q-198 -219 -471 -219q-274 0 -472 219q-195 216 -195 522q0 309 195 525q198 219 472 219zM922 1382q-238 0 -406 -188q-171 -189 -171 -453q0 -261 171 -450q169 -189 406 -189t407 189q168 186 168 450
q0 265 -168 453q-170 188 -407 188zM1191 1137v-129q-119 65 -236 65q-67 0 -120 -22.5t-89.5 -65t-56 -104.5t-19.5 -140q0 -333 294 -333q58 0 112.5 15.5t114.5 49.5v-127q-61 -29 -122.5 -43t-124.5 -14q-97 0 -174.5 31.5t-132 90.5t-84 142.5t-29.5 187.5t29 187.5
t83.5 142t132 90t175.5 31.5q66 0 126.5 -14t120.5 -41z" />
    <glyph glyph-name="guillemotleft" unicode="&#xab;" horiz-adv-x="1127" 
d="M955 1059v-191l-271 -268l271 -268v-191l-422 418v82zM564 1059v-191l-271 -268l271 -268v-191l-422 418v82z" />
    <glyph glyph-name="registered" unicode="&#xae;" horiz-adv-x="1843" 
d="M922 1382q-238 0 -406 -188q-171 -189 -171 -453q0 -261 171 -450q169 -189 406 -189t407 189q168 186 168 450q0 265 -168 453q-170 188 -407 188zM922 1485q273 0 471 -219q195 -216 195 -525q0 -306 -195 -522q-198 -219 -471 -219q-274 0 -472 219q-195 216 -195 522
q0 309 195 525q198 219 472 219zM897 1071h-110v-276h110q49 0 83 7.5t55 23.5t30.5 42t9.5 64t-9.5 64.5t-30.5 43t-55 24t-83 7.5zM904 1174q315 0 315 -240q0 -88 -46.5 -143t-134.5 -72q20 -9 50.5 -46t72.5 -112l123 -223h-154l-117 209q-27 48 -47 77t-38.5 44.5
t-37.5 20.5t-44 5h-59v-356h-140v836h257z" />
    <glyph glyph-name="degree" unicode="&#xb0;" horiz-adv-x="921" 
d="M461 1391q-36 0 -67 -15t-54.5 -41t-36.5 -61t-13 -74t13 -73.5t36 -60t54 -40t68 -14.5q36 0 67 15t54.5 40.5t36.5 59.5t13 73t-13.5 74t-37 61t-54.5 41t-66 15zM461 1520q60 0 112 -25.5t90.5 -69t60.5 -102t22 -123.5t-22 -122.5t-60.5 -100.5t-91 -67.5
t-113.5 -24.5q-60 0 -112 24t-90 66.5t-59.5 100t-21.5 124.5q0 66 22 124.5t60 102t90.5 68.5t112.5 25z" />
    <glyph glyph-name="paragraph" unicode="&#xb6;" 
d="M570 1493h403v-1690h-127v1567h-171v-1567h-128v846q-97 8 -172.5 40.5t-127 86.5t-78.5 128.5t-27 166.5q0 94 30.5 172t87 133.5t135.5 86t175 30.5z" />
    <glyph glyph-name="periodcentered" unicode="&#xb7;" horiz-adv-x="585" 
d="M197 838h190v-254h-190v254z" />
    <glyph glyph-name="guillemotright" unicode="&#xbb;" horiz-adv-x="1127" 
d="M174 1059l422 -418v-82l-422 -418v191l271 268l-271 268v191zM564 1059l422 -418v-82l-422 -418v191l271 268l-271 268v191z" />
    <glyph glyph-name="divide" unicode="&#xf7;" horiz-adv-x="1544" 
d="M662 1135h221v-246h-221v246zM662 395h221v-245h-221v245zM195 727h1154v-170h-1154v170z" />
    <glyph glyph-name="uni10A0" unicode="&#x10a0;" horiz-adv-x="1611" 
d="M1503 784q0 -363 -204 -589t-500 -226q-301 0 -496 252t-195 596q0 450 428 710h-356v168h1219v-169h-586q-534 -231 -534 -709q0 -272 138 -480q136 -208 385 -208q75 0 143.5 23.5t127.5 66.5t106.5 103t81.5 132t52.5 154t18.5 170q0 133 -75 324l140 75
q106 -196 106 -393z" />
    <glyph glyph-name="uni10A1" unicode="&#x10a1;" horiz-adv-x="1351" 
d="M865 -1v705q-181 -74 -304 -74q-103 0 -188 46t-146 122.5t-94.5 177t-33.5 209.5q0 262 171 510h244q-244 -247 -244 -495q0 -95 26 -170.5t67 -129t91.5 -82t100.5 -28.5q144 0 310 88v817h162v-1534h271v-162h-433z" />
    <glyph glyph-name="uni10A2" unicode="&#x10a2;" horiz-adv-x="1251" 
d="M1035 -303v302h-334v1283q0 142 -49.5 208.5t-150.5 66.5q-118 0 -174.5 -60t-56.5 -175q0 -103 90 -203l-130 -123q-67 94 -98.5 173.5t-31.5 151.5q0 86 31 158.5t84.5 125t125 81.5t151.5 29q84 0 152.5 -32.5t117 -88.5t75 -131.5t26.5 -162.5v-1140h334v-463h-162z
" />
    <glyph glyph-name="uni10A3" unicode="&#x10a3;" horiz-adv-x="1538" 
d="M1269 734q0 267 -158 425q-159 159 -341 159q-191 0 -345 -159q-155 -161 -155 -424q0 -129 40 -239.5t108.5 -192t160 -127.5t194.5 -46q106 0 196.5 47.5t157 130t104.5 192t38 234.5zM1439 735q0 -329 -195 -548q-100 -112 -216.5 -164.5t-258.5 -52.5
q-267 0 -469 217q-201 216 -201 547q0 573 597 729v63h-504v169h1157v-169h-503v-60q593 -165 593 -731z" />
    <glyph glyph-name="uni10A4" unicode="&#x10a4;" horiz-adv-x="1134" 
d="M855 0v1113q0 259 -93 351q-95 92 -209 92q-67 0 -121 -22t-92.5 -63.5t-59 -100t-20.5 -130.5q0 -211 124 -344l-109 -141q-185 191 -185 476q0 175 122 330q121 154 341 154q102 0 187 -37.5t146.5 -112.5t96 -187.5t34.5 -263.5v-1114h-162z" />
    <glyph glyph-name="uni10A5" unicode="&#x10a5;" horiz-adv-x="1414" 
d="M1154 520v501h-310v-1020h-163v1315q0 69 -18.5 115.5t-49 74t-69.5 39t-80 11.5q-47 0 -87 -11t-70 -39.5t-47 -77t-17 -123.5q0 -78 79 -184l-119 -124q-131 146 -131 304q0 84 30.5 159t83.5 132t124.5 90t152.5 33q83 0 153 -31t120.5 -85.5t79 -128.5t28.5 -159
v-131h472v-660h-162z" />
    <glyph glyph-name="uni10A6" unicode="&#x10a6;" horiz-adv-x="1388" 
d="M747 1021h-232v-469q0 -127 17.5 -209t54 -129.5t94 -66t138.5 -18.5q117 0 204 107q87 106 87 374q0 249 -102 330q-51 40 -115.5 60.5t-145.5 20.5zM1281 596q-1 -143 -34.5 -259t-94 -198t-145.5 -126t-188 -44q-106 0 -192 30t-146.5 97t-93.5 175.5t-33 264.5v999
h-300v160h462v-514h231q118 0 216 -35.5t168.5 -108.5t109.5 -183t40 -258z" />
    <glyph glyph-name="uni10A7" unicode="&#x10a7;" horiz-adv-x="1684" 
d="M1002 129v1428h-116q-159 0 -273.5 -52t-189 -145.5t-110 -224.5t-35.5 -288q0 -284 147 -501t461 -217h116zM1472 491v529h-306v-1051h-269q-186 0 -332.5 63t-248 177.5t-154.5 276.5t-53 360q0 387 205 628t583 241h269v-535h465v-689h-159z" />
    <glyph glyph-name="uni10A8" unicode="&#x10a8;" horiz-adv-x="835" 
d="M557 1v1465h-503v323h161v-164h503v-1624h-161z" />
    <glyph glyph-name="uni10A9" unicode="&#x10a9;" horiz-adv-x="1142" 
d="M873 518v437q0 60 -21 122t-60 112.5t-95 82t-126 31.5q-136 0 -302 -57v-418q0 -77 20 -146.5t58.5 -122.5t95 -84.5t128.5 -31.5q52 0 127 19.5t175 55.5zM873 0v367q-169 -85 -306 -85q-111 0 -196.5 43.5t-144 121.5t-88.5 185t-30 235v828h162v-309q199 78 297 78
q111 0 197.5 -44.5t146.5 -121.5t91.5 -180.5t31.5 -220.5v-897h-161z" />
    <glyph glyph-name="uni10AA" unicode="&#x10aa;" horiz-adv-x="1553" 
d="M1274 568q0 264 -103 358t-219 94q-139 0 -264 -61v-384q0 -263 81 -353q40 -45 92 -68.5t118 -23.5q54 0 103 21t97 63q94 83 95 354zM986 -31q-106 0 -191 38t-145 113.5t-92 189.5t-32 267v959h-311v-533h-161v693h634v-576q147 60 274 60q235 0 359 -160.5
t124 -466.5q0 -305 -143 -445q-142 -139 -316 -139z" />
    <glyph glyph-name="uni10AB" unicode="&#x10ab;" horiz-adv-x="1626" 
d="M615 1020q-117 0 -226 -97t-109 -350q0 -110 23.5 -192.5t63 -138.5t92.5 -84t113 -28q81 0 138 28t93.5 83.5t53 138.5t16.5 193v447h-258zM1354 21v999h-318v-447q0 -137 -26 -248t-82.5 -190t-145 -122t-212.5 -43q-180 0 -321 150t-141 449q0 148 36.5 262t103.5 192
t160.5 118t206.5 40h258v344h-623v170h786v-514h482v-1160h-164z" />
    <glyph glyph-name="uni10AC" unicode="&#x10ac;" horiz-adv-x="1151" 
d="M873 1v631q0 226 -85 307q-86 81 -224 81q-161 0 -285 -97v-922h-162v1289q0 204 103 304.5t320 100.5h402v-170h-442q-119 0 -171 -43q-27 -22 -38.5 -73t-11.5 -136v-173q152 80 303 80q114 0 200.5 -40t144 -113t87 -175.5t29.5 -227.5v-623h-170z" />
    <glyph glyph-name="uni10AD" unicode="&#x10ad;" horiz-adv-x="1575" 
d="M1314 866q0 273 -153 482q-154 208 -378 208q-215 0 -369 -204q-153 -203 -153 -486q0 -308 158 -523q157 -213 365 -213q232 0 381 228q149 230 149 508zM1323 0h162q0 -343 -290 -343q-270 0 -292 327l-116 -14q-292 0 -495 269q-202 268 -202 627q0 360 206 605
q205 244 488 244q281 0 491 -244q210 -245 210 -606q0 -136 -34.5 -265.5t-93 -239t-135 -191.5t-160.5 -123q1 -240 135 -240q126 3 126 194z" />
    <glyph glyph-name="uni10AE" unicode="&#x10ae;" horiz-adv-x="1440" 
d="M1322 511q0 -110 -32.5 -208t-92.5 -172t-144.5 -117.5t-188.5 -43.5q-102 0 -188 43t-148.5 117t-97.5 174.5t-35 216.5v1035h-350v159h512v-1198q0 -86 24.5 -157.5t66.5 -122.5t97.5 -79.5t117.5 -28.5q63 0 117.5 28.5t94.5 79.5t63 122.5t23 157.5v1198h161v-1204z
" />
    <glyph glyph-name="uni10AF" unicode="&#x10af;" horiz-adv-x="1160" 
d="M882 1v714q-146 -86 -302 -86q-110 0 -195.5 40.5t-145 111.5t-90.5 168.5t-31 211.5q0 161 148 375h-194v160h425v-147q-208 -118 -210 -400q1 -93 22 -160.5t59 -112t92 -66t120 -21.5q119 0 302 86v820h161v-1694h-161z" />
    <glyph glyph-name="uni10B0" unicode="&#x10b0;" horiz-adv-x="1680" 
d="M1412 131v889h-395v-456q0 -152 -34 -263.5t-94.5 -185t-143.5 -109.5t-180 -36q-102 0 -188 41t-147.5 111.5t-96 164t-34.5 197.5q0 285 169 427l104 -113q-103 -115 -103 -314q0 -77 25 -142t66.5 -112t95 -73.5t109.5 -26.5q79 0 134.5 29t90 84.5t50 136t15.5 184.5
v1132h162v-517h555v-1048h-160z" />
    <glyph glyph-name="uni10B1" unicode="&#x10b1;" horiz-adv-x="1143" 
d="M1045 554q-2 -266 -139 -426q-68 -79 -145.5 -118.5t-162.5 -39.5q-244 0 -362 181q-119 182 -119 416v1129h161v-1132q1 -98 24 -178.5t65 -137.5t100.5 -88t130.5 -31q57 1 107.5 29t87.5 83t58.5 137t21.5 192q0 209 -136 351l86 144q220 -193 222 -511z" />
    <glyph glyph-name="uni10B2" unicode="&#x10b2;" horiz-adv-x="1143" 
d="M873 1163q0 96 -26.5 169t-72 123t-106.5 75.5t-131 25.5h-259v-767h259q70 1 131.5 23.5t107 68.5t71.5 116t26 166zM1044 1163q0 -107 -35 -203.5t-101 -170t-160 -117t-211 -43.5h-259v-469h636v-161h-797v1716h420q115 0 209 -43t160 -118t102 -175.5t36 -215.5z" />
    <glyph glyph-name="uni10B3" unicode="&#x10b3;" horiz-adv-x="1575" 
d="M1314 865q0 275 -151 483t-375 208q-225 0 -376 -210q-151 -209 -151 -480q0 -302 159 -519t367 -217q219 0 373 220t154 515zM1485 -30q0 -343 -363 -343v158q103 0 156 47t53 141q0 118 -114 174q-195 -177 -429 -177q-300 0 -499 273q-199 271 -199 625q0 352 202 599
q203 248 499 248q284 0 489 -247t205 -603q0 -313 -181 -608q181 -127 181 -287z" />
    <glyph glyph-name="uni10B4" unicode="&#x10b4;" horiz-adv-x="1595" 
d="M971 1559h-88v-972h88q82 0 148 39.5t113 106.5t73 156t27 188q-1 103 -26 191t-71 152.5t-112.5 101t-151.5 37.5zM727 1559h-91q-80 0 -148.5 -36.5t-119 -101t-79 -152.5t-28.5 -191q0 -102 31.5 -191.5t83.5 -156t120 -105t140 -38.5h91v972zM1506 1078
q0 -155 -40.5 -274.5t-112 -201t-169.5 -123.5t-213 -42h-88v-436h-156v436h-91q-116 0 -215.5 42t-173 123.5t-115.5 201t-42 274.5t42.5 273t116.5 197.5t173.5 119.5t213.5 40h335q116 0 214 -39.5t169.5 -118t111.5 -197t40 -275.5z" />
    <glyph glyph-name="uni10B5" unicode="&#x10b5;" horiz-adv-x="1333" 
d="M1084 614v337h-339v-950h-161v949h-503v473h170v-304h333v577h161v-575h508v-507h-169z" />
    <glyph glyph-name="uni10B6" unicode="&#x10b6;" horiz-adv-x="1161" 
d="M1044 -31h-162v1196q0 86 -23 158t-63.5 123.5t-94.5 80.5t-116 29t-117.5 -29t-97.5 -81t-67 -124t-25 -157v-1196h-160v1192q0 115 35 216t97.5 176t148 118.5t187.5 43.5q103 0 187.5 -45.5t144 -121t92.5 -174t34 -203.5v-1202z" />
    <glyph glyph-name="uni10B7" unicode="&#x10b7;" horiz-adv-x="1143" 
d="M865 1v706q-201 -77 -319 -77q-114 0 -198 36.5t-139.5 101.5t-82.5 156t-27 199v573h162v-571q0 -89 16 -152t49.5 -104t86 -60t125.5 -19q167 0 327 85v821h162v-1695h-162z" />
    <glyph glyph-name="uni10B8" unicode="&#x10b8;" horiz-adv-x="1152" 
d="M1035 462q0 -183 -110 -338q-109 -153 -360 -155q-92 1 -175 31.5t-145.5 89.5t-99.5 145.5t-37 199.5v36h170v-33q0 -72 22 -129t60.5 -97t90.5 -61t112 -21q63 0 119 20t99 61.5t68 104t25 146.5v251q-164 -83 -316 -83q-222 0 -336 156t-114 342v568h162v-568
q1 -74 19.5 -136t55.5 -107t93 -70t133 -25q149 0 303 88v818h161v-1234z" />
    <glyph glyph-name="uni10B9" unicode="&#x10b9;" horiz-adv-x="1142" 
d="M882 1v683q0 71 -15 132.5t-51.5 106.5t-99 71t-157.5 26q-123 0 -280 -48v-971h-162v1694h161v-563q157 48 297 48q194 0 331 -128t137 -423v-628h-161z" />
    <glyph glyph-name="uni10BA" unicode="&#x10ba;" horiz-adv-x="1507" 
d="M1245 -1v97q-220 -127 -368 -127q-356 0 -562 260q-53 66 -91.5 137t-64 149t-38 163.5t-12.5 181.5q0 195 57.5 352.5t160 269.5t243 172.5t307.5 60.5q118 0 231 -42.5t225 -124.5l-92 -176q-196 184 -370 184q-235 0 -413 -184q-179 -185 -179 -517q0 -303 173 -515
q88 -109 191 -159.5t233 -50.5q143 0 369 157v503h163v-791h-163z" />
    <glyph glyph-name="uni10BB" unicode="&#x10bb;" horiz-adv-x="1610" 
d="M640 1020q-178 0 -270 -134q-91 -133 -91 -292q0 -109 23.5 -195t66 -146t101 -91.5t128.5 -31.5q61 0 110 24.5t83.5 75t53.5 128.5t19 186v476h-224zM1334 19v1001h-307v-476q0 -149 -32 -257t-89 -178.5t-135.5 -104.5t-170.5 -34q-118 0 -209.5 44t-154.5 125
t-95.5 196.5t-32.5 258.5q0 135 38.5 243.5t109 184.5t168 117t216.5 41h224v516h163v-516h466v-1161h-159z" />
    <glyph glyph-name="uni10BC" unicode="&#x10bc;" horiz-adv-x="1134" 
d="M873 1298q0 64 -13 109.5t-37.5 74t-58.5 41.5t-76 13h-409v-492h409q36 1 69.5 17.5t59 48.5t41 79t15.5 109zM1044 1301q0 -83 -24 -158t-69.5 -133t-112 -92t-150.5 -34h-409v-255h485v-389h-161v231h-324v-472h-162v1696h571q84 0 150 -30.5t111.5 -84t70 -125.5
t24.5 -154z" />
    <glyph glyph-name="uni10BD" unicode="&#x10bd;" horiz-adv-x="1148" 
d="M1058 465q0 -104 -32.5 -194.5t-92 -157t-143 -105t-186.5 -38.5q-242 0 -378 178t-136 431h172q0 -89 23.5 -170t67.5 -143t106.5 -99t140.5 -37q148 0 217 84.5t69 238.5q0 199 -377 370q-374 168 -374 457q0 160 114 297q115 138 305 138q103 0 181 -39t130.5 -106.5
t79.5 -158t27 -192.5h-167q0 197 -76 267t-185 70q-59 0 -103.5 -20t-74.5 -55.5t-45 -85t-15 -107.5q0 -206 376 -381t376 -442z" />
    <glyph glyph-name="uni10BE" unicode="&#x10be;" horiz-adv-x="1152" 
d="M1044 1234q0 -155 -34.5 -268.5t-97 -188t-150.5 -111t-195 -36.5q-75 0 -146.5 6t-141.5 17v-482h644v-172h-806v1696h162v-883q63 -11 136.5 -16.5t161.5 -5.5q117 0 212 80q93 79 93 342v483h162v-461z" />
    <glyph glyph-name="uni10BF" unicode="&#x10bf;" horiz-adv-x="1335" 
d="M1031 1526h-549l248 -520zM1117 188h-194l-211 502l-365 -689h-198l485 863l-350 662h-230v169h1228l-476 -868z" />
    <glyph glyph-name="uni10C0" unicode="&#x10c0;" horiz-adv-x="1556" 
d="M1446 524q0 -120 -35.5 -221.5t-97 -175.5t-144.5 -115.5t-177 -41.5q-231 0 -353 173q-121 172 -121 381v1012h-302v-375h-162v535h626v-1186q2 -140 81 -260t233 -120q58 0 110.5 27.5t92.5 78t64 120.5t24 154v670h161v-656z" />
    <glyph glyph-name="uni10C1" unicode="&#x10c1;" horiz-adv-x="1098" 
d="M705 566v160q0 77 -8.5 132.5t-31 91.5t-60.5 53t-98 17h-228v-1019h-162v1695h162v-516h230q85 0 152.5 -24.5t114.5 -71t72 -112.5t25 -148v-98h171v-160h-339z" />
    <glyph glyph-name="uni10C2" unicode="&#x10c2;" horiz-adv-x="1269" 
d="M1170 565q0 -281 -162 -438q-160 -157 -382 -157q-218 0 -372 157t-154 452q0 227 164 421l123 -131q-116 -137 -116 -296q0 -115 28 -198.5t76 -138t113.5 -80.5t140.5 -26q97 0 166.5 30.5t114.5 87t66.5 137.5t21.5 182q0 281 -347 448q-348 166 -348 412
q0 64 24.5 117.5t65 91t92 58.5t106.5 21q64 0 120 -20.5t97.5 -59t65 -94.5t23.5 -127h-174q-1 142 -132 142q-114 0 -114 -125q0 -184 347 -342q346 -159 346 -524z" />
    <glyph glyph-name="uni10C3" unicode="&#x10c3;" horiz-adv-x="1098" 
d="M820 1v628h-214q-98 1 -170 37t-119 96.5t-69.5 140t-22.5 168.5v20h-171v159h337v-109q-3 -24 -3 -49q0 -45 8 -89t23 -89q40 -124 184 -124h217v906h161v-1695h-161z" />
    <glyph glyph-name="uni10C4" unicode="&#x10c4;" horiz-adv-x="1094" 
d="M995 1159q0 -295 -143 -408q-142 -112 -211 -113v-637h-169v637q-84 2 -227 115q-146 116 -146 406v537h162v-539q1 -101 22 -171.5t54 -114t74.5 -63t84.5 -19.5h118q41 1 80 20t70 62t49.5 113t18.5 173v539h163v-537z" />
    <glyph glyph-name="uni10C5" unicode="&#x10c5;" horiz-adv-x="1360" 
d="M601 569h-174q-29 0 -61.5 -10t-59.5 -35t-45 -67.5t-18 -106.5t16 -106t42 -67.5t57.5 -36t63.5 -10.5q36 0 68 13.5t57 39t39.5 62.5t14.5 85v239zM1117 1367q0 51 -15 87t-40.5 58.5t-59.5 33t-72 10.5q-45 0 -78.5 -19t-55 -50t-32 -72t-10.5 -84v-181h161
q48 0 85.5 16.5t63.5 45.5t39.5 68.5t13.5 86.5zM1289 1371q-1 -79 -27 -146.5t-74 -117t-117 -78t-156 -28.5h-161v-281h312v-151h-312v-239q-1 -77 -27.5 -143t-70.5 -114t-103 -75.5t-126 -28.5q-80 1 -145 27t-112 74.5t-72.5 118.5t-25.5 159q0 72 25 139t71 118.5
t111.5 83t147.5 31.5h174v281h-344v149h344v181q1 95 23 167t62.5 120t98 72.5t129.5 24.5q84 0 153 -24.5t118 -69.5t76 -108.5t28 -141.5z" />
    <glyph glyph-name="uni10D0" unicode="&#x10d0;" horiz-adv-x="936" 
d="M846 426q0 -456 -379 -456q-377 0 -377 466l34 207h159l-31 -207q0 -326 218 -326q215 0 215 316q0 210 -177 393q-175 181 -175 394h168q1 -164 173 -345t172 -442z" />
    <glyph glyph-name="uni10D1" unicode="&#x10d1;" horiz-adv-x="954" 
d="M864 545q0 -574 -381 -574q-393 0 -393 572q0 520 356 585l17 67q5 20 7.5 39t2.5 38q0 116 -100 195q-133 106 -133 248h165q0 -35 28 -82t88 -119q42 -51 64 -104t22 -116q0 -23 -3.5 -46t-8.5 -47l-17 -73q286 -123 286 -583zM702 543q0 439 -221 460
q-229 -19 -229 -460q0 -432 231 -432q219 0 219 432z" />
    <glyph glyph-name="uni10D2" unicode="&#x10d2;" horiz-adv-x="1071" 
d="M990 42q0 -105 -29 -200t-86 -167t-141 -114.5t-194 -42.5q-105 0 -190 42.5t-144.5 114.5t-92 167t-32.5 200q0 422 419 563q155 119 155 249q0 147 -161 147q-72 0 -105 -33.5t-33 -100.5l5 -49l-144 -40l-14 87q0 264 293 264q157 0 230 -69t73 -215q0 -126 -152 -257
q343 -169 343 -546zM828 42q0 72 -15.5 142t-49 127.5t-87 98.5t-129.5 56q-77 -14 -134.5 -57t-95.5 -102t-56.5 -128t-18.5 -135q0 -86 21.5 -157t60.5 -122t93.5 -79t119.5 -28q59 0 112 28t92.5 79t63 121.5t23.5 155.5z" />
    <glyph glyph-name="uni10D3" unicode="&#x10d3;" horiz-adv-x="1507" 
d="M1400 592q-1 -541 -378 -541q-390 0 -390 552q0 154 25 208q-78 164 -184 164q-221 0 -221 -339q0 -501 321 -694q499 -203 504 -414h-179q-11 158 -377 257q-135 -3 -239 -165l-110 108q98 113 237 160q-319 253 -319 736q0 492 350 492q161 0 261 -172q91 177 321 177
q378 0 378 -529zM1238 602q0 378 -216 378q-240 0 -240 -377q0 -414 240 -414q216 0 216 413z" />
    <glyph glyph-name="uni10D4" unicode="&#x10d4;" horiz-adv-x="936" 
d="M828 -63q0 -420 -356 -420q-382 0 -382 422l30 225h154l-22 -227q0 -280 220 -280q203 0 203 278v787q0 258 -203 258q-180 0 -180 -244l50 -226h-155l-44 220q0 390 329 390q356 0 356 -401v-782z" />
    <glyph glyph-name="uni10D5" unicode="&#x10d5;" horiz-adv-x="945" 
d="M846 -61q0 -422 -361 -422q-395 0 -395 416l33 229h157l-29 -229q0 -144 59 -210t177 -66q197 0 197 280v134q0 216 -153 242h-149v152h116q180 91 180 309q0 207 -212 207q-180 0 -180 -191l20 -165h-158l-21 155q0 340 339 340q374 0 374 -350q0 -210 -190 -343
q196 -103 196 -358v-130z" />
    <glyph glyph-name="uni10D6" unicode="&#x10d6;" horiz-adv-x="922" 
d="M832 525q0 -554 -378 -554q-379 0 -379 554q0 368 173 466q-211 111 -211 383q0 325 312 342q294 -17 294 -357q0 -178 -109 -293q298 -67 298 -541zM670 525q0 212 -55 316t-164 104q-215 0 -215 -419q0 -415 218 -415q214 0 216 414zM500 1336q0 250 -154 250
q-82 0 -120 -55t-38 -170q0 -279 157 -279q155 0 155 254z" />
    <glyph glyph-name="uni10D7" unicode="&#x10d7;" horiz-adv-x="1476" 
d="M90 523q0 597 378 597q219 0 314 -188q114 183 245 183q359 0 359 -532q0 -163 -52.5 -310.5t-155.5 -291.5h-202q127 142 187.5 290.5t60.5 312.5q0 392 -207 392q-91 0 -191 -186q21 -74 21 -263q-25 -556 -383 -556q-374 0 -374 552zM684 523q0 458 -218 458
q-214 0 -214 -458q0 -412 212 -412q220 0 220 412z" />
    <glyph glyph-name="uni10D8" unicode="&#x10d8;" horiz-adv-x="954" 
d="M864 580q0 -269 -129 -579h-164q131 300 131 579q0 400 -225 400t-225 -403q0 -299 130 -577h-165q-127 300 -127 583q0 537 387 537t387 -540z" />
    <glyph glyph-name="uni10D9" unicode="&#x10d9;" horiz-adv-x="940" 
d="M840 -62q0 -212 -89 -316.5t-272 -104.5q-398 0 -398 408l45 239h153l-36 -230q0 -144 60 -210.5t181 -66.5q194 0 194 281v157q0 254 -209 254h-162v148h93q267 70 267 262q0 178 -164 351h210q109 -166 109 -351q0 -206 -215 -304q233 -92 233 -360v-157z" />
    <glyph glyph-name="uni10DA" unicode="&#x10da;" horiz-adv-x="1962" 
d="M1872 682q-2 -236 -180 -504h-194q213 259 213 504q0 299 -197 299q-194 0 -196 -263l-10 -225h-136l-11 225q0 268 -182 268q-177 0 -177 -268l-9 -225h-135l-9 225q0 263 -200 263q-197 0 -197 -349q0 -450 698 -674q391 -102 451 -430h-157q-44 231 -445 315
q-302 -30 -421 -182l-98 128q117 111 324 150q-514 229 -514 698q0 483 359 483q192 0 275 -203q85 213 255 213q185 0 264 -217q85 207 270 207q359 0 359 -438z" />
    <glyph glyph-name="uni10DB" unicode="&#x10db;" horiz-adv-x="963" 
d="M846 444q0 -474 -361 -474q-395 0 -395 575q0 545 398 545q114 -11 205 -60v334q0 211 -187 211q-196 0 -196 -200v-47h-164v47q0 340 360 340q340 0 340 -352v-919zM693 896q-61 43 -196 54q-245 0 -245 -406q0 -434 237 -434q204 0 204 345v441z" />
    <glyph glyph-name="uni10DC" unicode="&#x10dc;" horiz-adv-x="963" 
d="M873 537q0 -568 -387 -568q-369 0 -369 497v891q0 348 301 348h376v-146h-418q-106 0 -106 -142v-402q125 65 256 75q347 0 347 -553zM711 537q0 413 -226 413q-111 -10 -215 -69v-405q0 -367 213 -367q228 0 228 428z" />
    <glyph glyph-name="uni10DD" unicode="&#x10dd;" horiz-adv-x="1449" 
d="M1358 598q0 -304 -246 -598h-189q273 278 273 598q0 382 -190 382q-208 0 -208 -345v-210h-148v210q0 345 -208 345q-190 0 -190 -385q0 -304 280 -596h-188q-254 293 -254 599q0 522 353 522q201 0 281 -227q87 227 285 227q349 0 349 -522z" />
    <glyph glyph-name="uni10DE" unicode="&#x10de;" horiz-adv-x="936" 
d="M846 513q0 -543 -379 -543q-377 0 -377 473l16 200h160l-14 -198q0 -335 215 -335q217 0 217 403q0 365 -179 365h-157v150h116q174 0 200 171q0 158 -152 235q-151 76 -151 271h174q0 -100 135 -200q136 -100 136 -268q0 -175 -162 -247q202 -148 202 -477z" />
    <glyph glyph-name="uni10DF" unicode="&#x10df;" horiz-adv-x="954" 
d="M845 -64q0 -419 -371 -419q-383 0 -384 418l18 148h162l-18 -148q0 -278 218 -278q222 0 222 281v1015l-371 -79q205 -135 205 -249q0 -292 -410 -294v164q139 0 202.5 37.5t63.5 113.5q0 116 -266 187v118l729 178v-1193z" />
    <glyph glyph-name="uni10E0" unicode="&#x10e0;" horiz-adv-x="1467" 
d="M1377 587q0 -293 -257 -586h-206q301 264 301 586q0 202 -52 297.5t-155 95.5q-200 0 -200 -354v-195h-150v195q0 354 -197 354q-209 0 -209 -393q0 -321 302 -587h-214q-250 298 -250 587q0 397 229 726q227 327 610 392v-167q-356 -23 -639 -454v-41l164 77
q195 0 277 -253q85 253 284 253q362 0 362 -533z" />
    <glyph glyph-name="uni10E1" unicode="&#x10e1;" horiz-adv-x="963" 
d="M873 483q0 -513 -369 -513q-387 0 -387 528v1196h153v-1196q0 -388 234 -388q106 0 156.5 92.5t50.5 285.5q0 163 -89 300q-90 136 -90 263l5 170h164l-24 -164q0 -92 98 -247t98 -327z" />
    <glyph glyph-name="uni10E2" unicode="&#x10e2;" horiz-adv-x="1206" 
d="M81 314q0 712 465 807l-20 271h160l-21 -275q460 -91 460 -810q0 -319 -142 -554q-141 -236 -376 -236q-238 0 -382 233q-144 232 -144 564zM243 314q0 -150 25.5 -271t72.5 -207t114 -132.5t151 -46.5q76 0 142.5 44.5t115 129t76.5 206.5t28 277q0 560 -303 706
l21 -639h-160l20 638q-303 -144 -303 -705z" />
    <glyph glyph-name="uni10E3" unicode="&#x10e3;" horiz-adv-x="963" 
d="M855 -64q0 -419 -362 -419q-397 0 -397 419l23 227h160l-21 -227q0 -279 235 -279q209 0 209 279v871q-2 182 -123 182q-111 0 -111 -140l-9 -347h-129l-9 347q0 120 -140 120h-74l-98 40l18 161l78 -50h72q130 0 200 -187q60 187 204 187q274 0 274 -313v-871z" />
    <glyph glyph-name="uni10E4" unicode="&#x10e4;" horiz-adv-x="1521" 
d="M90 613q0 507 375 507q233 0 317 -198q108 193 277 193q353 0 353 -430q0 -250 -226 -413q201 -107 201 -258v-92q0 -89 -34.5 -163.5t-100.5 -128t-162.5 -83.5t-220.5 -30q-129 0 -225 26t-159 69t-94 98t-31 114v29q0 8 7 22t19 27t28 22.5t34 9.5q19 0 35.5 -9.5
t29 -23t19.5 -27t7 -21.5v-29q0 -28 17 -53.5t52 -55.5q67 -58 261 -58q212 0 284 77q72 76 72 188v88q0 167 -165 167h-72v151h24q38 0 80 23.5t77.5 67t58.5 106t23 139.5q0 311 -191 311q-143 0 -230 -174q18 -120 18 -186q0 -489 -377 -489q-381 0 -381 487zM686 611
q0 369 -221 369q-213 0 -213 -367q0 -346 213 -346q221 0 221 344z" />
    <glyph glyph-name="uni10E5" unicode="&#x10e5;" horiz-adv-x="945" 
d="M828 -63q0 -420 -354 -420q-384 0 -384 420l30 225h164l-32 -225q0 -280 222 -280q201 0 201 280v958q-93 75 -248 86q-148 0 -148 -201l45 -246h-159l-38 206q0 380 286 380q150 -11 262 -90v665h153v-1758z" />
    <glyph glyph-name="uni10E6" unicode="&#x10e6;" horiz-adv-x="1449" 
d="M245 -179q72 60 233 113q-388 297 -388 702q0 483 356 483q195 0 281 -231q82 231 264 231q368 0 368 -459q0 -217 -151 -467h-181q173 260 173 467q0 321 -204 321q-197 0 -197 -279l-3 -196h-142l-4 196q0 279 -202 279q-196 0 -196 -345q0 -471 463 -696
q329 -170 329 -411h-161q0 167 -207 280q-35 9 -69 9q-136 0 -278 -139z" />
    <glyph glyph-name="uni10E7" unicode="&#x10e7;" horiz-adv-x="954" 
d="M846 -66q0 -417 -368 -417q-388 0 -388 416l16 150h166l-20 -147q0 -279 228 -279q213 0 213 281v374q-112 -63 -227 -73q-351 0 -351 429q0 219 158 434h186q-183 -224 -183 -434q0 -290 190 -290q129 11 227 73v650h153v-1167z" />
    <glyph glyph-name="uni10E8" unicode="&#x10e8;" horiz-adv-x="954" 
d="M837 425q0 -455 -343 -455q-413 0 -413 545q0 575 376 575q121 -11 231 -54v409q0 140 -147 140q-115 0 -115 -150v-86q0 -38 -18 -60.5t-47 -22.5q-30 0 -49.5 22.5t-19.5 60.5v88q0 128 -113 128l-125 -52v202h121q81 0 160 -184q73 184 221 184q281 0 281 -274v-1016z
M684 389v518q-49 17 -103 27.5t-120 15.5q-218 0 -218 -435q0 -405 229 -405q212 0 212 279z" />
    <glyph glyph-name="uni10E9" unicode="&#x10e9;" horiz-adv-x="963" 
d="M542 1317l20 152q0 116 -144 116q-148 0 -148 -207v-359q134 71 238 71q365 0 365 -460q0 -293 -156 -629h-190q183 339 183 625q0 324 -215 324q-119 0 -225 -57v-893h-153v1363q0 352 301 352q288 0 288 -245l-15 -153h-149z" />
    <glyph glyph-name="uni10EA" unicode="&#x10ea;" horiz-adv-x="1053" 
d="M945 683q0 -167 -179 -263q206 -87 206 -395q0 -254 -112 -381t-332 -127q-447 0 -447 798v163q0 284 104 611h169q-111 -308 -111 -622v-152q0 -658 286 -658q288 0 288 364q0 317 -195 317h-156v135h150q91 0 134 51.5t43 157.5q0 86 -95 154q-97 70 -106 253h168
q9 -134 97 -207t88 -199z" />
    <glyph glyph-name="uni10EB" unicode="&#x10eb;" horiz-adv-x="963" 
d="M845 503q0 -269 -92.5 -400.5t-285.5 -131.5q-377 0 -377 564q0 281 94.5 418t285.5 137q84 0 223 -70v675h152v-1192zM693 461v423q-119 66 -227 66q-214 0 -214 -415q0 -424 215 -424q226 0 226 350z" />
    <glyph glyph-name="uni10EC" unicode="&#x10ec;" horiz-adv-x="954" 
d="M118 1441q0 274 281 274q148 0 221 -184q79 184 160 184h120v-202l-124 52q-113 0 -113 -128v-88q0 -37 -19 -59.5t-49 -22.5q-29 0 -47.5 22t-18.5 60v86q0 150 -115 150q-143 0 -143 -150v-416q116 71 227 71q376 0 376 -555q0 -565 -422 -565q-334 0 -334 505v966z
M271 439q0 -329 203 -329q238 0 238 425q0 212 -56 313.5t-167 101.5q-112 0 -218 -61v-450z" />
    <glyph glyph-name="uni10ED" unicode="&#x10ed;" horiz-adv-x="958" 
d="M470 1694h151v-604h247v-130h-247v-75q0 -66 8 -128t23 -123t38 -122t53 -125q60 -130 90.5 -239.5t30.5 -213.5q0 -417 -376 -417q-379 0 -380 417l29 229h157l-24 -239q0 -267 218 -267q215 0 215 280q0 152 -116 428q-58 135 -87.5 261t-29.5 259v75h-78
q-171 0 -171 -183q0 -166 139 -166h42v-134h-42q-270 0 -270 298q0 315 307 315h73v604z" />
    <glyph glyph-name="uni10EE" unicode="&#x10ee;" horiz-adv-x="963" 
d="M873 552q0 -582 -373 -582q-383 0 -383 559v1165h153v-637q123 63 238 63q365 0 365 -568zM711 552q0 428 -215 428q-75 0 -226 -59v-436q0 -375 229 -375q212 0 212 442z" />
    <glyph glyph-name="uni10EF" unicode="&#x10ef;" horiz-adv-x="837" 
d="M819 469l-73 -128l-252 176l-129 -302q239 -120 240 -301q-1 -95 -42 -168.5t-111 -124t-163.5 -77t-198.5 -26.5v150q69 0 132.5 14t112 42.5t77.5 71t29 99.5q0 152 -174 202l-103 69l192 416l-338 186l73 140l322 -194l77 154q8 17 13 34t5 37q0 45 -28.5 71t-97.5 26
h-62v135h62q66 0 117 -10t86 -36.5t53.5 -73t18.5 -118.5q0 -85 -31 -143l-83 -156z" />
    <glyph glyph-name="uni10F0" unicode="&#x10f0;" horiz-adv-x="936" 
d="M846 385q0 -415 -374 -415q-382 0 -382 435l36 148h162l-36 -148q0 -295 215 -295q217 0 217 267q0 222 -102 222h-146v130h146q91 0 91 160q0 124 -91 124h-146v133h145q40 0 61.5 36.5t21.5 109.5q0 108 -172 183q-172 73 -172 240h151q0 -86 173 -155t173 -252
q0 -160 -147 -221q165 -69 165 -205q0 -145 -159 -217q170 -113 170 -280z" />
    <glyph glyph-name="uni10F1" unicode="&#x10f1;" horiz-adv-x="954" 
d="M864 385q0 -415 -379 -415q-377 0 -377 495v1208h153v-1208q0 -355 219 -355q222 0 222 267q0 227 -107 227h-165v120h165q52 0 76 38.5t24 116.5q0 139 -100 139h-165v123h164q92 0 92 191q0 108 -114 149q-113 41 -113 234h167q0 -138 108 -181q54 -22 82.5 -73.5
t28.5 -132.5q0 -180 -156 -241q165 -69 165 -215q0 -135 -159 -207q169 -112 169 -280z" />
    <glyph glyph-name="uni10F2" unicode="&#x10f2;" horiz-adv-x="936" 
d="M127 -84q136 0 199 115q-236 179 -236 529q0 560 380 560q374 0 374 -564q0 -348 -246 -525q73 -115 205 -115v-204q-203 73 -333 282q-142 -205 -343 -282v204zM252 563q0 -355 218 -477q212 122 212 477q0 417 -214 417q-216 0 -216 -417z" />
    <glyph glyph-name="uni10F3" unicode="&#x10f3;" horiz-adv-x="936" 
d="M846 -61q0 -422 -381 -422q-375 0 -375 420l28 226h168l-35 -221q1 -285 219 -285q215 0 215 287v164q0 148 -49.5 216t-149.5 68h-163v131h100q262 90 262 334v121h-401v-263h-157v373l719 31q0 -557 -265 -620q265 -127 265 -396v-164z" />
    <glyph glyph-name="uni10F4" unicode="&#x10f4;" horiz-adv-x="954" 
d="M845 -65q0 -418 -375 -418q-380 0 -380 424l29 222h162l-29 -226q0 -291 218 -291q212 0 212 289v209q0 253 -218 253h-141v138h60q300 16 300 454q-94 -41 -211 -41q-382 0 -382 393q0 374 382 374v-132q-230 0 -230 -242q0 -251 228 -251q175 0 375 176v-283
q0 -196 -61 -311t-194 -157q255 -119 255 -371v-209z" />
    <glyph glyph-name="uni10F5" unicode="&#x10f5;" horiz-adv-x="1021" 
d="M847 566v-238q0 -358 -381 -358q-376 0 -376 358q0 376 374 376h239v275h-239q-374 0 -374 375q0 361 380 361q377 0 377 -361v-239h103v-136h-103v-275h103v-138h-103zM698 565l-234 1q-212 -2 -212 -231q0 -226 221 -226q225 0 225 237v219zM252 1352q0 -237 212 -237
h234v239q0 221 -225 221q-221 0 -221 -223z" />
    <glyph glyph-name="uni10F6" unicode="&#x10f6;" horiz-adv-x="1525" 
d="M1434 551q0 -292 -93.5 -436.5t-285.5 -144.5q-124 0 -209 136v-199q0 -390 -376 -390v140q223 0 223 248v659q0 417 -223 417q-218 0 -218 -429q0 -411 234 -411v-138q-396 3 -396 549q0 568 380 568q208 0 291 -236q81 236 294 236q192 0 285.5 -141.5t93.5 -427.5z
M1273 551q0 430 -223 430q-204 0 -204 -315v-231q0 -326 209 -326q218 0 218 442z" />
    <glyph glyph-name="uni10F7" unicode="&#x10f7;" horiz-adv-x="1017" 
d="M936 -25q0 -458 -443 -458q-412 0 -412 458q0 312 280 501q279 187 279 330q0 175 -143 175q-172 0 -174 -170l5 -60h-141l-9 47q0 322 319 322q303 0 303 -305q0 -222 -278 -407q-279 -185 -279 -424q0 -327 254 -327q277 0 277 332q0 129 -86 281h171q77 -169 77 -295z
" />
    <glyph glyph-name="uni10F8" unicode="&#x10f8;" horiz-adv-x="936" 
d="M90 1101h153v-660q97 -63 227 -63q190 0 190 290q0 180 -201 434h195q167 -215 167 -434q0 -429 -351 -429q-129 0 -227 43v-338q0 -287 226 -287q215 0 215 283l-26 141h162l26 -144q0 -420 -375 -420q-381 0 -381 423v1161z" />
    <glyph glyph-name="uni10F9" unicode="&#x10f9;" horiz-adv-x="1053" 
d="M72 584q0 111 26.5 210t82 173t139.5 117.5t200 43.5q236 0 349 -161q112 -160 112 -383q0 -443 -457 -543q-119 -119 -119 -249q0 -147 161 -147q139 0 139 134l-6 49l144 40l14 -87q0 -264 -293 -264q-157 0 -230 69t-73 215q0 126 134 257q-323 170 -323 526zM234 584
q0 -128 66 -261t218 -133q172 0 238 132q64 127 64 260q0 91 -16 166t-51.5 128t-92 82.5t-137.5 29.5q-63 0 -116 -29t-91.5 -82t-60 -127.5t-21.5 -165.5z" />
    <glyph glyph-name="uni10FA" unicode="&#x10fa;" horiz-adv-x="936" 
d="M670 -157v1q0 3 -53 80q-53 75 -138 75q-118 0 -178 -144l-118 79q60 109 182 157q-275 194 -275 581q0 449 388 449q368 0 368 -428l-10 -203h-175l23 199q0 292 -203 292q-229 0 -229 -324q0 -342 290 -494q127 -43 238 -201z" />
    <glyph glyph-name="uni10FB" unicode="&#x10fb;" horiz-adv-x="825" 
d="M99 992h185v-189h-185v189zM547 601h179v-186h-179v186zM99 167h182v-187h-182v187z" />
    <glyph glyph-name="uni10FC" unicode="&#x10fc;" horiz-adv-x="596" 
d="M297 1458q200 0 200 -292q0 -306 -205 -306q-202 0 -202 306v355q0 194 178 194h226v-96h-248q-59 0 -59 -76v-169zM398 1166q0 183 -111 183q-100 0 -100 -189q0 -195 105 -195q106 0 106 201z" />
    <glyph glyph-name="uni1C90" unicode="&#x1c90;" horiz-adv-x="1069" 
d="M970 673v-159q0 -544 -426 -544q-445 0 -445 549v139l53 265h180l-62 -294v-115q0 -384 274 -384q264 0 264 394v184q0 248 -224 478q-223 229 -223 509h163q1 -198 223 -450q223 -253 223 -572z" />
    <glyph glyph-name="uni1C91" unicode="&#x1c91;" horiz-adv-x="1069" 
d="M808 669q0 183 -67 274t-212 96q-259 -7 -259 -390v-85q0 -434 265 -434q273 0 273 429v110zM970 634v-55q0 -609 -436 -609q-435 0 -435 609v60q0 490 363 552h18q6 23 9.5 43.5t3.5 40.5q0 100 -87 160q-120 82 -122 260h187q0 -107 98 -187q73 -60 73 -211
q0 -25 -2 -53t-6 -58h18q316 -69 318 -552z" />
    <glyph glyph-name="uni1C92" unicode="&#x1c92;" horiz-adv-x="1149" 
d="M880 638q0 420 -296 420q-314 0 -314 -414v-95q0 -419 310 -419q300 0 300 419v89zM1050 646v-87q0 -589 -474 -589q-477 0 -477 574v120q0 470 467 548h85q35 48 51 94.5t16 97.5q0 151 -170 151q-164 0 -164 -196h-147q0 356 308 356q313 0 313 -319q-11 -139 -72 -224
q264 -114 264 -526z" />
    <glyph glyph-name="uni1C93" unicode="&#x1c93;" horiz-adv-x="1638" 
d="M242 195q88 78 204 111q-347 342 -347 796v109q0 504 397 504q152 0 295 -179q91 169 323 169q426 0 426 -513v-149q0 -558 -426 -588q-414 28 -414 588v119q0 48 9 105.5t26 129.5q-75 154 -231 154q-235 0 -235 -329v-99q0 -468 382 -802l191 -24q351 -83 402 -297
h-238q-12 83 -226 146q-30 9 -61 13t-60 4q-168 0 -331 -133zM1369 1147q0 399 -255 399q-246 0 -246 -354v-154q0 -201 59 -304.5t187 -117.5q131 14 193 109.5t62 282.5v139z" />
    <glyph glyph-name="uni1C94" unicode="&#x1c94;" horiz-adv-x="1078" 
d="M970 456q0 -486 -441 -486q-217 0 -323 121.5t-106 367.5l81 303h187l-99 -303q0 -329 268 -329q280 0 280 334v883q0 209 -255 209q-219 0 -219 -257l75 -246h-171l-63 269q0 393 391 393q395 0 395 -373v-886z" />
    <glyph glyph-name="uni1C95" unicode="&#x1c95;" horiz-adv-x="1069" 
d="M934 1307q-5 -230 -189 -354q225 -116 225 -369v-125q0 -489 -436 -489q-435 0 -435 513l48 279h176l-54 -288q0 -344 266 -344q273 0 273 334v115q0 204 -171 245h-153v169h82q100 40 148 123.5t48 222.5q0 218 -226 218q-234 0 -235 -246l33 -154h-168l-22 158
q0 400 392 400q398 0 398 -408z" />
    <glyph glyph-name="uni1C96" unicode="&#x1c96;" horiz-adv-x="1203" 
d="M649 1246q0 160 -45.5 234.5t-145.5 74.5q-188 0 -188 -223q0 -181 94 -275q91 99 264 108h16zM930 626q0 392 -281 392q-299 0 -299 -394v-75q0 -419 294 -419q286 0 286 411v85zM1104 629v-75q0 -584 -461 -584q-464 0 -464 594v70q0 148 91 329q-171 148 -171 354
q0 398 350 398q361 0 361 -466q0 -19 -3 -44t-8 -57h10q295 -127 295 -519z" />
    <glyph glyph-name="uni1C97" unicode="&#x1c97;" horiz-adv-x="1625" 
d="M757 1170q0 386 -242 386q-248 0 -248 -386v-621q0 -420 248 -420q242 0 242 420v621zM1526 704q-9 -442 -192 -704h-239q238 229 259 704v466q0 377 -218 377q-194 0 -211 -275v-723q0 -579 -419 -579q-407 0 -407 579v621q0 545 418 545q199 0 333 -228
q104 218 326 218q350 0 350 -535v-466z" />
    <glyph glyph-name="uni1C98" unicode="&#x1c98;" horiz-adv-x="1023" 
d="M924 763q0 -386 -139 -763h-178q147 322 147 763v410q0 382 -220 382q-264 0 -264 -382v-410q0 -440 157 -763h-180q-148 365 -148 763v410q0 542 435 542q390 0 390 -542v-410z" />
    <glyph glyph-name="uni1C99" unicode="&#x1c99;" horiz-adv-x="1069" 
d="M970 454q0 -245 -108.5 -364.5t-326.5 -119.5q-436 0 -436 499l39 292h185l-54 -292q0 -339 266 -339q273 0 273 324v120q0 316 -189 316h-198v168h158q229 129 229 304q0 149 -180 334h252q90 -191 90 -299q0 -265 -225 -365q225 -99 225 -453v-125z" />
    <glyph glyph-name="uni1C9A" unicode="&#x1c9a;" horiz-adv-x="2153" 
d="M314 166q105 120 234 187q-405 242 -449 739v123q0 491 395 491q210 0 310 -178q90 187 276 187q187 0 284 -187q85 178 304 178q387 0 387 -481v-103q0 -186 -201 -598h-184q226 433 226 633v63q0 327 -226 327q-231 0 -231 -231v-422h-155v422q0 256 -204 256
q-197 0 -197 -256v-422h-156v422q0 231 -234 231q-223 0 -223 -329v-121q40 -447 431 -680q75 15 159 15q269 0 467.5 -109t332.5 -323h-273q-35 164 -359 257q-38 11 -73.5 15.5t-68.5 4.5q-243 0 -459 -246z" />
    <glyph glyph-name="uni1C9B" unicode="&#x1c9b;" horiz-adv-x="1085" 
d="M816 474v459q-48 31 -112 47.5t-149 16.5q-285 0 -285 -319v-184q0 -364 283 -364q263 0 263 344zM968 484q0 -514 -415 -514q-454 0 -454 514v174q0 494 435 514q140 0 283 -74v209q0 249 -258 249q-69 0 -116.5 -14.5t-77 -42t-42.5 -69t-13 -95.5h-161q0 380 398 380
q421 0 421 -413v-818z" />
    <glyph glyph-name="uni1C9C" unicode="&#x1c9c;" horiz-adv-x="1087" 
d="M826 683q0 335 -280 335q-152 0 -267 -75v-474q0 -339 278 -339q269 0 269 324v229zM988 708v-250q0 -488 -442 -488q-429 0 -429 488v852q0 386 303 386h464v-160h-459q-155 0 -155 -230v-199q151 85 278 85q440 0 440 -484z" />
    <glyph glyph-name="uni1C9D" unicode="&#x1c9d;" horiz-adv-x="1602" 
d="M1503 706q0 -411 -282 -706h-201q315 366 315 707v463q0 387 -243 387q-206 0 -206 -305v-638h-165v647q0 296 -239 296q-211 0 -211 -387v-463q0 -346 286 -707h-193q-265 295 -265 707v463q0 545 401 545q200 0 308 -240q117 240 284 240q411 0 411 -545v-464z" />
    <glyph glyph-name="uni1C9E" unicode="&#x1c9e;" horiz-adv-x="1069" 
d="M970 471v-37q0 -464 -417 -464q-454 0 -454 479l18 179h179l-26 -179q0 -319 278 -319q260 0 260 319v67q0 192 -158 237h-196v182h103q233 63 233 239q0 163 -189 220q-188 57 -188 301h198q0 -150 170 -221q171 -71 171 -292q0 -178 -211 -299q229 -109 229 -412z" />
    <glyph glyph-name="uni1C9F" unicode="&#x1c9f;" horiz-adv-x="1086" 
d="M969 465q0 -249 -109.5 -372t-329.5 -123q-431 0 -431 586h171q0 -426 260 -426q276 0 276 335v1083l-497 -50q317 -120 317 -334q0 -196 -130 -290.5t-396 -94.5v178q193 0 284 49.5t91 155.5q0 175 -375 270v167l869 130v-1264z" />
    <glyph glyph-name="uni1CA0" unicode="&#x1ca0;" horiz-adv-x="1683" 
d="M1585 798v-124q0 -415 -315 -674h-215q352 352 352 683v140q0 333 -235 333q-241 0 -241 -297v-350h-173v350q0 296 -254 296q-234 0 -234 -332v-149q0 -319 364 -674h-212q-323 260 -323 674v119q0 212 60.5 377.5t187.5 293.5q125 127 347 188.5t545 62.5v-160
q-705 0 -862 -295l113 52q239 0 363 -244q105 244 303 244q428 0 429 -514z" />
    <glyph glyph-name="uni1CA1" unicode="&#x1ca1;" horiz-adv-x="1087" 
d="M988 519v-45q0 -504 -442 -504q-429 0 -429 594v1131h162v-1171q0 -394 269 -394q278 0 278 329v75q0 176 -114 326q-113 149 -115 300l40 217h180l-66 -230q0 -125 118 -255q119 -131 119 -373z" />
    <glyph glyph-name="uni1CA2" unicode="&#x1ca2;" horiz-adv-x="1347" 
d="M470 1447q-60 -24 -98.5 -66.5t-60.5 -101.5t-31 -134t-10 -164v-323q1 -76 24 -161t71 -179q95 -188 311 -188q214 0 307 187t93 341v320q0 57 -11.5 117t-32.5 116.5t-50.5 106.5t-65.5 87.5t-77.5 59t-86.5 21.5h-17v-787h-150v785l18 231h132v-68h17
q270 -92 383 -290q112 -196 112 -374v-330q0 -211 -133 -446q-134 -237 -442 -237q-291 0 -432 235t-141 448v329q0 88 20.5 178.5t65.5 195.5q86 199 285 281v-190z" />
    <glyph glyph-name="uni1CA3" unicode="&#x1ca3;" horiz-adv-x="1074" 
d="M957 494q0 -525 -413 -525q-454 0 -458 490l51 302h183l-62 -297q0 -334 290 -334q257 0 257 309v948q-1 169 -176 169q-76 0 -112 -21t-36 -63v-408h-143v333q-18 139 -161 159h-132v159h126q139 0 207 -159q94 159 247 159q332 0 332 -378v-843z" />
    <glyph glyph-name="uni1CA4" unicode="&#x1ca4;" horiz-adv-x="1607" 
d="M754 1182q0 374 -246 374q-238 0 -238 -369v-139q0 -391 250 -391q234 0 234 391v134zM1490 472q0 -104 -37 -195.5t-107 -159.5t-170 -107.5t-226 -39.5h-90q-92 0 -179.5 30t-155.5 79t-109 111t-41 126h183q0 -29 27.5 -62t71.5 -61t100.5 -46t113.5 -18h67
q90 0 162 28.5t122 76t76.5 109.5t26.5 128q0 257 -115 257h-111v151l53 2q191 137 191 360q0 309 -239 309q-118 0 -219 -128q31 -92 31 -236v-138q0 -279 -99.5 -415.5t-297.5 -136.5q-420 0 -420 552v139q0 528 406 528q229 0 326 -199q126 193 294 193q383 0 383 -422
q0 -283 -212 -429q194 -123 194 -386z" />
    <glyph glyph-name="uni1CA5" unicode="&#x1ca5;" horiz-adv-x="1086" 
d="M969 458q0 -488 -441 -488q-429 0 -429 488l49 221h184l-62 -220q0 -329 260 -329q287 0 287 334v548q-187 436 -349 436q-176 0 -177 -169l59 -257h-161l-54 249q0 178 81.5 263t247.5 85q153 0 353 -342v418h152v-1237z" />
    <glyph glyph-name="uni1CA6" unicode="&#x1ca6;" horiz-adv-x="1649" 
d="M227 177q108 97 246 132q-374 284 -374 828v75q0 503 409 503q195 0 318 -263q108 263 315 263q410 0 410 -480v-97q0 -118 -41 -265t-119 -334h-206q193 352 193 594v84q0 340 -233 340q-244 0 -244 -398v-320h-154v320q0 397 -240 397q-121 0 -179 -83t-58 -261v-109
q0 -435 391 -774q54 -2 99 -8t82 -14q378 -112 429 -337h-238q-3 82 -230 181q-66 18 -133 18q-183 0 -373 -139z" />
    <glyph glyph-name="uni1CA7" unicode="&#x1ca7;" horiz-adv-x="1085" 
d="M968 453q0 -483 -438 -483q-431 0 -431 443l27 265h175l-31 -269q0 -279 260 -279q287 0 287 324v504q-72 -48 -144.5 -79t-136.5 -31q-410 0 -410 439v40q0 171 130 370h202q-161 -212 -161 -360v-40q0 -293 233 -295q148 11 287 126v569h151v-1244z" />
    <glyph glyph-name="uni1CA8" unicode="&#x1ca8;" horiz-adv-x="1085" 
d="M817 459v454q-103 73 -282 73q-264 0 -264 -368v-114q0 -374 272 -374q274 0 274 329zM968 479q0 -509 -416 -509q-453 0 -453 524v144q0 505 436 505q61 0 131 -16.5t151 -46.5v352q0 124 -156 124q-161 0 -161 -180v-58h-148v58q0 180 -253 180v159q256 0 304 -192
q76 192 267 192q298 0 298 -333v-903z" />
    <glyph glyph-name="uni1CA9" unicode="&#x1ca9;" horiz-adv-x="1088" 
d="M590 1294l14 146q0 117 -149 117q-176 0 -176 -282v-225q151 100 285 100q213 0 318.5 -111t105.5 -341v-94q0 -247 -173 -604h-198q209 374 209 549v174q0 142 -66 208t-202 66q-116 0 -279 -97v-900h-161v1264q0 227 75.5 339t230.5 112q344 0 346 -275l-18 -146h-162z
" />
    <glyph glyph-name="uni1CAA" unicode="&#x1caa;" horiz-adv-x="1196" 
d="M1052 1287q0 -88 -54.5 -166t-166.5 -148q266 -123 266 -389q0 -143 -33 -256.5t-95 -193t-152 -122t-205 -42.5q-113 0 -207 39t-161.5 123t-105 216t-37.5 318v413q0 154 24.5 304t76.5 313h193q-121 -362 -121 -617v-413q1 -132 25 -232.5t68 -168t106.5 -102
t139.5 -34.5q157 0 234 135q38 69 58 145t20 164q0 251 -175 251h-189v163h81q238 100 238 295q0 127 -128 201q-127 72 -127 213h165q0 -84 131 -152t131 -257z" />
    <glyph glyph-name="uni1CAB" unicode="&#x1cab;" horiz-adv-x="1085" 
d="M817 519v419q-110 80 -291 80q-256 0 -256 -400v-89q0 -399 256 -399q291 0 291 389zM968 494q0 -524 -433 -524q-436 0 -436 574v74q0 289 110 431t331 142q145 0 277 -81v585h151v-1201z" />
    <glyph glyph-name="uni1CAC" unicode="&#x1cac;" horiz-adv-x="1086" 
d="M118 1401q0 314 312 314q180 0 267 -189q33 189 290 189v-159q-253 0 -253 -160v-68h-147v68q0 160 -151 160q-157 0 -157 -155v-354q75 42 143 64t131 22q434 0 434 -495v-119q0 -549 -452 -549q-212 0 -314 133.5t-102 405.5zM280 509q0 -379 251 -379q296 0 296 369
v139q0 338 -274 338q-125 0 -273 -96v-371z" />
    <glyph glyph-name="uni1CAD" unicode="&#x1cad;" horiz-adv-x="1103" 
d="M1004 1385h-198l56 -327h142v-141h-113l78 -459q0 -488 -441 -488q-429 0 -429 488l53 221h184l-65 -220q0 -329 259 -329q278 0 278 334l-84 453h-203q-368 0 -368 301q0 310 371 310h84l-33 168h180l31 -168h218v-143zM296 1223q0 -165 218 -165h192l-62 327h-127
q-221 0 -221 -162z" />
    <glyph glyph-name="uni1CAE" unicode="&#x1cae;" horiz-adv-x="1087" 
d="M826 653q0 383 -278 383q-147 -3 -268 -88v-424q0 -394 282 -394q264 0 264 384v139zM988 624v-95q0 -559 -426 -559q-445 0 -445 549v1176h163v-580q145 78 268 78q440 0 440 -569z" />
    <glyph glyph-name="uni1CAF" unicode="&#x1caf;" horiz-adv-x="951" 
d="M906 972l-69 -138l-311 171l-130 -277q301 -110 303 -330q-1 -98 -34.5 -177t-105.5 -135t-186.5 -86t-277.5 -30v160q129 0 212.5 16.5t132 48.5t68 78.5t19.5 105.5q0 191 -236 232l-104 69l210 405l-352 190l72 140l347 -197l95 194q17 29 17 69q0 42 -33.5 70
t-90.5 28l-117 -19v155h140q59 0 106 -21t79.5 -54.5t50 -76.5t17.5 -86q0 -90 -27 -144l-101 -196z" />
    <glyph glyph-name="uni1CB0" unicode="&#x1cb0;" horiz-adv-x="1068" 
d="M969 409q0 -439 -439 -439q-431 0 -431 516h171q0 -356 260 -356q271 0 271 279q0 197 -139 197h-208v179h190q139 0 139 132q0 122 -139 122h-208v181h208q118 0 118 153q0 184 -362 184h-107v158h107q533 0 533 -342q0 -155 -136 -252h2q78 -40 115 -94t37 -123
q0 -146 -117 -215q135 -110 135 -280z" />
    <glyph glyph-name="uni1CB1" unicode="&#x1cb1;" horiz-adv-x="1076" 
d="M544 -30q-436 0 -436 486v1101h163v-1101q0 -326 273 -326q266 0 266 274q0 226 -118 226h-152v177h152q97 0 102 131q-5 125 -123 125h-149v183h149q100 0 100 181q0 129 -267 129v158q438 0 438 -302q0 -85 -36 -145.5t-108 -102.5h-2q81 -52 123 -109t42 -120
q0 -129 -156 -220q172 -85 172 -311q0 -434 -433 -434z" />
    <glyph glyph-name="uni1CB2" unicode="&#x1cb2;" horiz-adv-x="1069" 
d="M270 722q0 -408 263 -528q268 120 268 528v418q0 416 -267 416q-264 0 -264 -416v-418zM99 29q195 0 252 83h-2q-250 259 -250 610v422q0 571 434 571q435 0 435 -575v-418q0 -348 -254 -614q40 -79 256 -79v-190q-174 0 -428 230h-19q-127 -118 -230 -174t-194 -56v190z
" />
    <glyph glyph-name="uni1CB3" unicode="&#x1cb3;" horiz-adv-x="1069" 
d="M968 406q0 -436 -440 -436q-427 0 -427 468v211h170v-221q0 -298 264 -298q266 0 266 276v155q0 282 -218 282h-205v164h111q312 172 312 549l-528 -23v-236h-174v399l869 21q0 -577 -293 -735q293 -113 293 -415v-161z" />
    <glyph glyph-name="uni1CB4" unicode="&#x1cb4;" horiz-adv-x="1070" 
d="M969 456q0 -486 -439 -486q-431 0 -431 486v142h172v-142q0 -326 259 -326q271 0 271 326q0 352 -250 352h-173v173h99q164 15 242.5 132t78.5 341q-78 -57 -144.5 -84t-127.5 -27q-427 0 -427 373h171q0 -198 260 -198q199 0 312 197h139v-225q-11 -384 -279 -550
q267 -156 267 -484z" />
    <glyph glyph-name="uni1CB5" unicode="&#x1cb5;" horiz-adv-x="1176" 
d="M810 734h-282q-132 0 -195 -73.5t-63 -230.5q0 -300 265 -300q275 0 275 244v360zM270 1240q0 -326 258 -326h282v415q0 227 -275 227q-265 0 -265 -316zM969 494v-120q0 -404 -441 -404q-429 0 -429 460q0 289 241 395h-1q-240 96 -240 415q0 475 436 475
q434 0 434 -386v-151h126v-190h-126v-310h126v-184h-126z" />
    <glyph glyph-name="uni1CB6" unicode="&#x1cb6;" horiz-adv-x="1760" 
d="M1494 949v259q0 98 -13.5 165t-44.5 108t-82 58.5t-126 17.5q-259 0 -259 -295v-405q0 -301 259 -301q266 0 266 393zM1661 944q0 -547 -439 -547q-115 0 -254 135v-158q0 -404 -418 -404v160q248 0 248 244v888q0 295 -264 295q-62 0 -110.5 -17.5t-82.5 -58.5
t-52 -107.5t-18 -165.5v-253q0 -337 264 -337v-165q-436 0 -436 502v253q0 129 34 224.5t93.5 158.5t138.5 94t169 31q234 0 357 -216q106 216 337 216q138 0 222.5 -40.5t126.5 -118.5q84 -158 84 -349v-264z" />
    <glyph glyph-name="uni2010" unicode="&#x2010;" horiz-adv-x="665" 
d="M90 643h485v-164h-485v164z" />
    <glyph glyph-name="uni2011" unicode="&#x2011;" horiz-adv-x="665" 
d="M90 643h485v-164h-485v164z" />
    <glyph glyph-name="figuredash" unicode="&#x2012;" 
d="M90 633h993v-144h-993v144z" />
    <glyph glyph-name="endash" unicode="&#x2013;" horiz-adv-x="921" 
d="M90 633h742v-144h-742v144z" />
    <glyph glyph-name="emdash" unicode="&#x2014;" horiz-adv-x="1843" 
d="M90 633h1663v-144h-1663v144z" />
    <glyph glyph-name="uni2015" unicode="&#x2015;" horiz-adv-x="1843" 
d="M0 633h1843v-144h-1843v144z" />
    <glyph glyph-name="quoteleft" unicode="&#x2018;" horiz-adv-x="585" 
d="M346 1001h-189v173l147 319h116l-74 -319v-173z" />
    <glyph glyph-name="quoteright" unicode="&#x2019;" horiz-adv-x="585" 
d="M234 1493h190v-152l-148 -319h-116l74 319v152z" />
    <glyph glyph-name="quotesinglbase" unicode="&#x201a;" horiz-adv-x="585" 
d="M230 254h190v-172l-147 -320h-116l73 320v172z" />
    <glyph glyph-name="quotereversed" unicode="&#x201b;" horiz-adv-x="585" 
d="M350 1493v-152l74 -319h-116l-148 319v152h190z" />
    <glyph glyph-name="quotedblleft" unicode="&#x201c;" horiz-adv-x="954" 
d="M346 1001h-189v173l147 319h116l-74 -319v-173zM716 1001h-190v173l147 319h116l-73 -319v-173z" />
    <glyph glyph-name="quotedblright" unicode="&#x201d;" horiz-adv-x="954" 
d="M230 1493h190v-172l-147 -320h-116l73 320v172zM599 1493h190v-172l-147 -320h-116l73 320v172z" />
    <glyph glyph-name="quotedblbase" unicode="&#x201e;" horiz-adv-x="954" 
d="M599 254h190v-172l-147 -320h-116l73 320v172zM230 254h190v-172l-147 -320h-116l73 320v172z" />
    <glyph glyph-name="uni201F" unicode="&#x201f;" horiz-adv-x="954" 
d="M346 1493v-173l74 -319h-116l-147 319v173h189zM716 1493v-173l73 -319h-116l-147 319v173h190z" />
    <glyph glyph-name="dagger" unicode="&#x2020;" horiz-adv-x="921" 
d="M382 1493h158v-420h330v-153h-330v-1117h-158v1117h-331v153h331v420z" />
    <glyph glyph-name="daggerdbl" unicode="&#x2021;" horiz-adv-x="921" 
d="M870 223h-330v-420h-158v420h-331v154h331v543h-331v153h331v420h158v-420h330v-153h-330v-543h330v-154z" />
    <glyph glyph-name="bullet" unicode="&#x2022;" horiz-adv-x="1087" 
d="M276 762q0 61 21 115t57.5 94t85.5 63t105 23t104.5 -23t84.5 -63t56.5 -94t20.5 -115t-20.5 -115t-56.5 -94.5t-85 -64t-105 -23.5t-105 23t-85 63t-57 94.5t-21 116.5z" />
    <glyph glyph-name="uni2023" unicode="&#x2023;" horiz-adv-x="1087" 
d="M276 385v752l607 -376z" />
    <glyph glyph-name="onedotenleader" unicode="&#x2024;" horiz-adv-x="616" 
d="M212 254h192v-254h-192v254z" />
    <glyph glyph-name="ellipsis" unicode="&#x2026;" horiz-adv-x="1843" 
d="M826 254h191v-254h-191v254zM1439 254h192v-254h-192v254zM212 254h192v-254h-192v254z" />
    <glyph glyph-name="uni2027" unicode="&#x2027;" horiz-adv-x="585" 
d="M198 873h190v-254h-190v254z" />
    <glyph glyph-name="minute" unicode="&#x2032;" horiz-adv-x="418" 
d="M36 1120l156 373h182l-260 -373h-78z" />
    <glyph glyph-name="second" unicode="&#x2033;" horiz-adv-x="688" 
d="M36 1120l156 373h182l-260 -373h-78zM306 1120l156 373h182l-260 -373h-78z" />
    <glyph glyph-name="uni2035" unicode="&#x2035;" horiz-adv-x="418" 
d="M374 1120h-78l-260 373h183z" />
    <glyph glyph-name="uni2036" unicode="&#x2036;" horiz-adv-x="688" 
d="M374 1120h-78l-260 373h183zM644 1120h-78l-260 373h183z" />
    <glyph glyph-name="uni20BE" unicode="&#x20be;" horiz-adv-x="1612" 
d="M587 1629l150 160v-268q27 6 71 6q16 0 33 -0.5t35 -1.5v106l150 169v-300q102 -28 180.5 -86.5t135.5 -135t92.5 -164.5t50.5 -173l-198 -191q0 410 -261 568v-405l-150 -159v604q-18 2 -35 3t-33 1q-57 0 -71 -7v-448l-150 -159v556q-66 -33 -114.5 -86.5t-80.5 -121
t-48 -147.5t-16 -165q0 -143 42.5 -258t114.5 -195t168.5 -123t204.5 -43h563l-165 -166h-1127l159 166h155q-328 231 -328 619q0 126 29.5 238.5t89 204.5t148 159.5t205.5 102.5v140z" />
    <glyph glyph-name="uni2116" unicode="&#x2116;" horiz-adv-x="1917" 
d="M49 0v170q132 0 132 107v1216h245l596 -1249v972q0 64 16.5 115t53.5 87t95.5 55.5t142.5 19.5v-170q-132 0 -132 -107v-1216h-245l-596 1249v-972q0 -63 -16.5 -114t-53 -87t-95 -56t-143.5 -20zM1342 622q0 68 17.5 128t47.5 104.5t70.5 70.5t86.5 26t86.5 -26
t70.5 -70.5t47.5 -104.5t17.5 -128t-17 -127.5t-47 -104.5t-70.5 -71t-87.5 -26t-87.5 26t-70.5 71t-47 104.5t-17 127.5zM1468 622q0 -39 6.5 -72t19 -57.5t30 -38t40.5 -13.5q22 0 40 13.5t30.5 38t19 57.5t6.5 72t-6.5 72t-19 57.5t-30.5 38t-40 13.5q-23 0 -40.5 -13.5
t-30 -38t-19 -57.5t-6.5 -72zM1342 0v123h444v-123h-444z" />
    <glyph glyph-name="uni2D00" unicode="&#x2d00;" horiz-adv-x="1089" 
d="M972 685h-173l17 129q2 17 3 31.5t1 28.5q0 112 -77 112q-129 0 -397 -172l-62 -508q-2 -17 -3.5 -32t-1.5 -29q0 -113 84 -113q113 0 214 77t180 77q70 0 101.5 -48.5t31.5 -148.5q0 -21 -2 -43t-5 -46l-16 -130h-172l16 130q2 17 3 32t1 28q0 72 -34 72
q-40 0 -87.5 -17.5t-102.5 -49.5q-110 -65 -245 -65q-142 0 -142 206q0 23 1.5 47.5t5.5 51.5l104 815h172l-22 -177q340 177 472 177q169 0 169 -142q0 -8 -0.5 -17t-1.5 -18z" />
    <glyph glyph-name="uni2D01" unicode="&#x2d01;" horiz-adv-x="1096" 
d="M916 301q-3 -27 -3 -53q0 -93 36 -172q16 -37 23.5 -78.5t7.5 -86.5q0 -104 -34.5 -180.5t-117.5 -131.5q-123 -81 -310 -81q-106 0 -193.5 19t-150.5 55.5t-97.5 89t-34.5 119.5q0 18 3 38h167q-1 -5 -1.5 -9t-0.5 -9q0 -32 15 -63t52 -55.5t98.5 -40t154.5 -15.5
q49 1 101.5 10t95.5 35t71 72.5t28 123.5q0 63 -35 151q-20 49 -31 85.5t-10 78.5v11q0 11 1 12q-366 -176 -487 -176q-171 0 -171 140q0 17 3 35l137 894h169l-118 -763q-2 -16 -3 -30t-1 -27q0 -60 21.5 -88.5t64.5 -28.5q142 0 385 174l101 763h172z" />
    <glyph glyph-name="uni2D02" unicode="&#x2d02;" horiz-adv-x="1040" 
d="M842 409q-3 -17 -5 -33t-2 -33q0 -95 65 -166q86 -95 86 -267q0 -188 -145 -290q-146 -102 -333 -102q-158 0 -292 80q-133 79 -144 251v89h168v-80q4 -46 24 -84.5t55.5 -67t86.5 -44.5t117 -16t120.5 16t94.5 48.5t62 81t22 114.5q0 132 -90 248q-65 83 -65 208
q0 22 1.5 45t6.5 47l81 358q2 17 3 31.5t1 28.5q0 114 -75 114q-131 0 -357 -174l-52 -541h-171l90 848h170l-20 -176q305 176 433 176q171 0 171 -143q0 -8 -0.5 -16t-1.5 -17z" />
    <glyph glyph-name="uni2D03" unicode="&#x2d03;" horiz-adv-x="1108" 
d="M844 849q1 8 1.5 16.5t0.5 16.5q0 126 -153 126q-78 0 -140 -17.5t-106.5 -49t-71.5 -75t-36 -95.5l-62 -472q-2 -14 -3 -26.5t-1 -24.5q0 -137 122 -137q355 0 384 215zM954 338q-11 -81 -65 -145t-154 -115t-187 -75t-165 -24q-276 0 -276 296q0 24 1.5 49.5t5.5 52.5
l52 383q28 225 378 315l4 357q-81 -20 -140.5 -30.5t-101.5 -10.5q-75 0 -110.5 31.5t-35.5 94.5l9 136h177l-9 -80q-1 -1 -1 -15q0 -50 57 -50q66 0 241 52q94 27 162.5 40t113.5 13q145 0 145 -71v-120h-105v61q0 25 -49 25q-12 0 -27.5 -2t-34.5 -5l-148 -39v-364l100 9
q8 1 16.5 1.5t16.5 0.5q190 0 190 -251q0 -24 -1.5 -50t-5.5 -55z" />
    <glyph glyph-name="uni2D04" unicode="&#x2d04;" horiz-adv-x="1082" 
d="M968 -482h-188l-74 614l94 680q2 17 3 31.5t1 28.5q0 114 -76 114q-121 0 -394 -174l-63 -637h-177l106 944h172l-23 -176q344 176 473 176q169 0 169 -141q0 -8 -0.5 -17t-1.5 -18l-105 -811z" />
    <glyph glyph-name="uni2D05" unicode="&#x2d05;" horiz-adv-x="1678" 
d="M938 -483h-183l-76 615l97 680q2 17 3 31.5t1 28.5q0 114 -75 114q-133 0 -389 -174l-73 -812h-171l104 1119h173l-18 -176q341 176 465 176q164 0 164 -144q0 -8 -0.5 -16t-1.5 -16q329 176 460 176q172 0 172 -143q0 -8 -0.5 -16.5t-1.5 -16.5l-142 -943h-173l123 812
q2 16 3 30t1 28q0 116 -82 116q-131 0 -378 -174l-97 -680z" />
    <glyph glyph-name="uni2D06" unicode="&#x2d06;" horiz-adv-x="1154" 
d="M988 361q-34 -247 -311 -313q-251 -65 -360 -65q-93 0 -132 38.5t-39 116.5v10q1 0 1 4t1 6l96 726l94 324h-164q-159 0 -174 230v233h178v-253q8 -107 104 -107h78l14 54h158l-110 -423q340 177 471 177q169 0 169 -141q0 -9 -0.5 -18t-1.5 -18zM872 811q2 17 3 31.5
t1 28.5q0 114 -76 114q-130 0 -395 -174l-71 -562q-2 -13 -3 -24t-1 -21q0 -88 70 -88q94 0 167 12.5t125 41.5t83 76.5t41 117.5z" />
    <glyph glyph-name="uni2D07" unicode="&#x2d07;" horiz-adv-x="1754" 
d="M843 812q2 19 3.5 36t1.5 32q0 106 -70 106q-130 0 -422 -178l-73 -502q-2 -17 -3.5 -31.5t-1.5 -28.5q0 -60 21.5 -87t64.5 -27q126 0 408 174zM1038 943q326 176 452 176q172 0 172 -143q0 -8 -0.5 -16.5t-1.5 -16.5l-140 -943h-171l122 812q2 16 3 30.5t1 27.5
q0 116 -76 116q-131 0 -378 -174l-117 -812h-166l27 200q-350 -200 -504 -200q-93 0 -131 35t-38 109q0 5 1.5 12.5t3.5 18.5l130 944h172l-25 -180q367 180 497 180q170 0 170 -137q0 -18 -3 -39z" />
    <glyph glyph-name="uni2D08" unicode="&#x2d08;" horiz-adv-x="1097" 
d="M862 0h-172l123 812q2 17 3 31.5t1 28.5q0 114 -75 114q-134 0 -396 -174l-47 -367h-171l84 674h173l-21 -176q347 176 470 176q170 0 170 -146q0 -11 -1 -22.5t-3 -23.5z" />
    <glyph glyph-name="uni2D09" unicode="&#x2d09;" horiz-adv-x="1118" 
d="M836 812q2 20 4 36.5t2 31.5q0 106 -78 106q-131 0 -411 -174l-70 -523q-2 -16 -3 -30t-1 -27q0 -117 84 -117q156 0 407 191zM923 149l99 -631h-185l-84 657q-336 -192 -491 -192q-171 0 -171 140q0 17 3 35l129 995l-65 518h189l47 -529l-26 -199q373 176 489 176
q170 0 170 -141q0 -8 -0.5 -17t-1.5 -18z" />
    <glyph glyph-name="uni2D0A" unicode="&#x2d0a;" horiz-adv-x="1757" 
d="M1473 812q2 17 3 31t1 28q0 115 -81 115q-118 0 -416 -157l-70 -523q-2 -17 -3.5 -32t-1.5 -29q0 -113 80 -113q122 0 418 174zM1533 0h-174l25 191q-353 -191 -520 -191q-146 0 -146 136q0 18 3 39l82 637q2 17 3 32.5t1 29.5q0 112 -73 112q-55 0 -153 -43t-252 -131
l-85 -812h-172l122 1119h174l-22 -176q372 176 487 176q162 0 162 -146q0 -8 -0.5 -16t-1.5 -17q378 179 526 179q81 0 114.5 -35.5t33.5 -107.5q0 -15 -3 -33z" />
    <glyph glyph-name="uni2D0B" unicode="&#x2d0b;" horiz-adv-x="1142" 
d="M1009 986l-89 -709q-11 -85 -59 -138t-136 -86q-85 -32 -172.5 -50t-184.5 -20q-144 3 -208 61.5t-64 172.5v11q0 1 0.5 4t1.5 8l78 605q21 166 669 273l-34 257q-18 114 -85 114q-82 0 -179 -65q-95 -64 -206 -64q-116 0 -116 149v162h175v-119q0 -63 50 -63
q75 0 155 62t183 62q154 0 186 -192l44 -301h79v-134h-88zM837 987q-478 -46 -494 -176l-62 -485q-2 -17 -3 -32.5t-1 -29.5q0 -183 141 -183q49 0 105 15t104.5 44t83 71.5t40.5 98.5z" />
    <glyph glyph-name="uni2D0C" unicode="&#x2d0c;" horiz-adv-x="1097" 
d="M855 0h-173l132 812q3 17 3.5 32t0.5 28q0 114 -76 114q-130 0 -395 -174l-103 -812h-172l138 1080l-31 211q0 380 375 380q351 0 351 -161v-123h-169v97q0 65 -157 65q-229 0 -229 -163l29 -327l-15 -116q178 91 294 133.5t180 42.5q90 0 129.5 -36t39.5 -109
q0 -15 -3 -31z" />
    <glyph glyph-name="uni2D0D" unicode="&#x2d0d;" horiz-adv-x="1707" 
d="M731 175q-328 -175 -470 -175q-170 0 -170 140q0 17 3 35l149 944h171l-132 -813q-3 -17 -4 -31.5t-1 -28.5q0 -114 84 -114q141 0 378 174l121 813h173l-124 -813q-3 -17 -3.5 -31.5t-0.5 -27.5q0 -115 68 -115q141 0 395 174l94 813h173l-132 -1119h-174l23 175
q-346 -175 -470 -175q-153 0 -153 141q0 8 0.5 16.5t1.5 17.5z" />
    <glyph glyph-name="uni2D0E" unicode="&#x2d0e;" horiz-adv-x="1096" 
d="M731 175q-328 -175 -470 -175q-170 0 -170 140q0 17 3 35l138 944h173l-123 -813q-3 -17 -4 -31.5t-1 -28.5q0 -114 84 -114q141 0 387 174l103 813h173l-140 -1119h-175z" />
    <glyph glyph-name="uni2D0F" unicode="&#x2d0f;" horiz-adv-x="1485" 
d="M1384 -482h-189l-68 536l13 78q-290 -132 -420 -132q-160 0 -160 149q0 20 3 44l60 442q-247 -136 -363 -136q-73 0 -103.5 32.5t-30.5 98.5v10q1 0 1 4t1 6l83 471h185l-70 -326q-6 -30 -6 -53q0 -90 83 -90q45 0 238 115h171l-73 -541q-1 -8 -1.5 -15t-0.5 -14
q0 -65 50 -65q124 0 365 121l94 732l-109 686h183l94 -729l-114 -882z" />
    <glyph glyph-name="uni2D10" unicode="&#x2d10;" horiz-adv-x="1716" 
d="M739 306l98 768l-76 597h185l58 -607l-11 -121q335 176 460 176q172 0 172 -143q0 -8 -0.5 -16.5t-1.5 -16.5l-141 -943h-171l122 812q2 16 3 30.5t1 27.5q0 116 -76 116q-131 0 -384 -174l-103 -812h-173l21 175q-319 -175 -461 -175q-170 0 -170 140q0 17 3 35l136 944
h176l-124 -813q-3 -17 -4 -31.5t-1 -28.5q0 -114 84 -114q141 0 378 174z" />
    <glyph glyph-name="uni2D11" unicode="&#x2d11;" horiz-adv-x="1077" 
d="M213 1121l-69 550h198l50 -553l-101 -812q-2 -18 -3.5 -34t-1.5 -30q0 -110 75 -110q141 0 378 174l85 813h181l-122 -1119h-182l21 175q-319 -175 -461 -175q-170 0 -170 140q0 17 3 35z" />
    <glyph glyph-name="uni2D12" unicode="&#x2d12;" horiz-adv-x="1091" 
d="M814 811q3 17 4 33t1 30q0 111 -77 111q-129 0 -394 -174l-91 -711q458 75 478 233zM904 306q-29 -236 -659 -306q-5 -25 -6.5 -48t-1.5 -45q0 -59 13.5 -107t41.5 -82t70.5 -52.5t100.5 -18.5q127 0 313 186l89 -133q-176 -182 -434 -182q-98 0 -165.5 27t-110 80
t-61.5 132.5t-19 183.5q0 48 4.5 100.5t12.5 110.5l124 967h170l-19 -177q172 90 288.5 133.5t182.5 43.5q157 0 157 -209q0 -23 -1.5 -47.5t-5.5 -51.5z" />
    <glyph glyph-name="uni2D13" unicode="&#x2d13;" horiz-adv-x="1701" 
d="M1352 175q-346 -175 -470 -175q-162 0 -162 142q0 8 0.5 16t1.5 17q-319 -175 -461 -175q-170 0 -170 140q0 17 3 35l147 944h173l-132 -813q-3 -17 -4 -31.5t-1 -28.5q0 -114 84 -114q141 0 378 174l121 813h173l-124 -813q-3 -17 -3.5 -31.5t-0.5 -27.5q0 -115 68 -115
q141 0 395 174l94 812l-33 236h183l18 -281l-108 -919l98 -636h-187z" />
    <glyph glyph-name="uni2D14" unicode="&#x2d14;" horiz-adv-x="1755" 
d="M1539 0h-165l24 175q-268 -175 -404 -175l-104 45l-8 -59l76 -468h-185l-57 460l23 197q-232 -175 -477 -175q-86 0 -122 56.5t-36 171.5q0 19 2 37.5t5 39.5l104 814h172l-22 -177q304 177 496 177q83 0 118 -38.5t35 -115.5v-11q0 -1 -0.5 -4t-1.5 -8q303 177 496 177
q142 0 142 -203q0 -23 -1.5 -49t-5.5 -55zM832 877q1 1 1 13v11q0 45 -22.5 64.5t-68.5 19.5q-142 0 -392 -175l-64 -505q-2 -16 -3 -30t-1 -28q0 -115 82 -115q157 0 396 174zM1471 812q2 14 3 27.5t1 25.5q0 122 -94 122q-42 0 -136 -44t-248 -132l-65 -506q-3 -26 -3 -46
q0 -129 109 -129q135 0 367 175z" />
    <glyph glyph-name="uni2D15" unicode="&#x2d15;" horiz-adv-x="1525" 
d="M789 111l93 -593h-185l-73 594l48 388l-380 -123l-26 -237h-176l111 879h179l-71 -520l379 134l60 443l-77 595h175l62 -645l-46 -341l375 120l25 192h182l-110 -865h-184l72 540l-378 -126z" />
    <glyph glyph-name="uni2D16" unicode="&#x2d16;" horiz-adv-x="1098" 
d="M365 943q341 176 469 176q172 0 172 -141q0 -8 -0.5 -17t-1.5 -18l-139 -943h-181l122 812q2 17 3 32.5t1 29.5q0 112 -68 112q-130 0 -395 -174l-101 -812h-174l142 1119h172z" />
    <glyph glyph-name="uni2D17" unicode="&#x2d17;" horiz-adv-x="1096" 
d="M704 175q-304 -175 -443 -175q-170 0 -170 140q0 17 3 35l133 944h171l-116 -813q-2 -17 -3.5 -31.5t-1.5 -28.5q0 -114 84 -114q141 0 360 174l122 814h181l-140 -960l118 -642h-196z" />
    <glyph glyph-name="uni2D18" unicode="&#x2d18;" horiz-adv-x="1087" 
d="M719 165q-320 -165 -458 -165q-170 0 -170 140q0 17 3 35l136 944h175l-123 -813q-3 -17 -4 -31.5t-1 -28.5q0 -114 84 -114q141 0 387 174l94 813h173l-102 -879q-53 -425 -263 -573q-212 -149 -474 -149h-76v139h66q209 0 363 112q155 112 190 396z" />
    <glyph glyph-name="uni2D19" unicode="&#x2d19;" horiz-adv-x="1090" 
d="M342 812l-95 -742l89 -552h-196l-68 533l136 1080l-67 540h177l55 -589l-14 -139q341 176 468 176q172 0 172 -141q0 -8 -0.5 -17t-1.5 -18l-125 -943h-170l104 812q2 17 3 31.5t1 28.5q0 114 -76 114q-130 0 -392 -174z" />
    <glyph glyph-name="uni2D1A" unicode="&#x2d1a;" horiz-adv-x="1090" 
d="M543 -355q107 0 289 173l80 -122q-97 -91 -191.5 -134.5t-197.5 -43.5q-101 0 -184 33.5t-142.5 94.5t-92.5 147.5t-33 193.5q0 38 6 82l132 1051h170l-24 -177q266 176 473 176q158 0 158 -212q0 -43 -6 -95l-117 -742h-171l114 742q3 22 3 43q0 131 -128 131
q-104 0 -342 -174l-91 -743q-4 -29 -6 -55t-2 -51q0 -159 73 -238.5t230 -79.5z" />
    <glyph glyph-name="uni2D1B" unicode="&#x2d1b;" horiz-adv-x="1143" 
d="M826 1008q-236 -20 -355 -74.5t-131 -145.5l-60 -462q-2 -14 -3 -27.5t-1 -26.5q0 -160 160 -160q282 0 304 178zM1098 985h-94l-90 -676q-37 -280 -533 -327q-275 0 -275 273q0 17 1 34.5t3 36.5l56 442q36 283 670 350l-95 553h189l67 -551h101v-135z" />
    <glyph glyph-name="uni2D1C" unicode="&#x2d1c;" horiz-adv-x="1696" 
d="M680 0l104 812q2 20 3.5 36.5t1.5 31.5q0 106 -66 106q-131 0 -390 -174l-86 -779l82 -515h-196l-61 482l122 1120h173l-18 -177q336 177 465 177q164 0 164 -144q0 -8 -0.5 -16.5t-1.5 -16.5q324 177 460 177q170 0 170 -145q0 -8 -0.5 -16t-1.5 -16l-140 -943h-174
l123 812q2 17 3 31.5t1 28.5q0 114 -81 114q-130 0 -379 -174l-105 -812h-172z" />
    <glyph glyph-name="uni2D1D" unicode="&#x2d1d;" horiz-adv-x="1086" 
d="M952 547h-173l37 264q2 15 2.5 28.5t0.5 25.5q0 120 -77 120q-130 0 -392 -177l-84 -617q109 58 193.5 86t153.5 28q391 0 391 -371q0 -212 -134.5 -314t-402.5 -102q-194 0 -413 80l27 190q200 -122 405 -122q374 0 374 276q-6 223 -272 223q-160 0 -339 -110h-177
l141 1064h179l-27 -177q139 91 254.5 134t218.5 43q154 0 154 -214q0 -43 -6 -94z" />
    <glyph glyph-name="uni2D1E" unicode="&#x2d1e;" horiz-adv-x="1080" 
d="M641 -482q-149 0 -255.5 29.5t-175.5 89t-101.5 148t-32.5 206.5q0 61 10 105l134 1023h171l-125 -987q465 0 494 240l76 747h173l-85 -813q-31 -257 -672 -286q-2 -19 -3.5 -37t-1.5 -35q0 -301 394 -301v-129z" />
    <glyph glyph-name="uni2D1F" unicode="&#x2d1f;" horiz-adv-x="1071" 
d="M304 643q33 -159 140 -387q385 220 387 686q-266 -100 -496 -100q-252 0 -267 237l-5 82h194l8 -109q3 -42 39 -61.5t111 -19.5q318 0 448 148h145q-19 -654 -490 -976q193 -174 351 -234l-53 -137q-120 66 -219 139.5t-179 158.5q-156 -164 -156 -454q0 -23 1 -47.5
t3 -50.5h-174q2 472 250 662q-140 203 -179 451z" />
    <glyph glyph-name="uni2D20" unicode="&#x2d20;" horiz-adv-x="1684" 
d="M1490 0h-174l21 175q-325 -175 -469 -175q-149 0 -149 207q0 22 1.5 47t5.5 52l66 505q2 16 3 30t1 27q0 117 -80 117q-118 0 -377 -174l-91 -810h-176l128 1118h172l-20 -177q259 177 464 177q167 0 167 -141q-1 -9 -0.5 -18t-1.5 -18l-81 -636q-2 -17 -3 -32t-1 -29
q0 -113 75 -113q95 0 385 174l85 813h172z" />
    <glyph glyph-name="uni2D21" unicode="&#x2d21;" horiz-adv-x="1098" 
d="M814 812q3 17 4 33t1 30q0 111 -76 111q-110 0 -394 -170l-83 -641l462 -657h-221l-417 614l161 1216q38 323 369 323h157v-138h-211q-129 0 -155 -185l-45 -392q349 164 477 164q89 0 126 -39.5t37 -115.5v-11q0 -3 -1 -4l-86 -551h-173z" />
    <glyph glyph-name="uni2D22" unicode="&#x2d22;" horiz-adv-x="1096" 
d="M921 306q-41 -306 -576 -306q-240 0 -240 236q0 17 1.5 34t3.5 36l31 264h183l-34 -265q-3 -21 -3 -39q0 -134 157 -134q279 0 305 185l71 562q1 1 1 9v9q0 77 -93 77q-53 0 -178 -38q-98 -29 -146 -29q-143 0 -143 163v212h187v-164q0 -79 52 -79q12 0 28.5 4.5
t38.5 15.5q118 60 240 60q189 0 189 -192q0 -14 -1 -29t-3 -31z" />
    <glyph glyph-name="uni2D23" unicode="&#x2d23;" horiz-adv-x="1091" 
d="M896 132l98 -614h-198l-71 549l2 108q-331 -175 -471 -175q-151 0 -151 205q0 23 1 47.5t6 52.5l124 814h171l-126 -814q-2 -13 -2.5 -24.5t-0.5 -22.5q0 -126 105 -126q94 0 360 173l104 801l-70 565h190l53 -563z" />
    <glyph glyph-name="uni2D24" unicode="&#x2d24;" horiz-adv-x="1182" 
d="M984 70h-170l7 95l-191 -69l98 -578h-183l-66 533q-177 -51 -235 -51q-153 0 -153 137q0 17 3 38l129 944h175l-121 -844q-1 -2 -1 -6t-1 -4v-10q0 -63 25 -93t88 -30q114 0 447 153l100 834h176z" />
    <glyph glyph-name="uni2D25" unicode="&#x2d25;" horiz-adv-x="1660" 
d="M825 985q-462 -43 -486 -232l-59 -464q-3 -23 -3 -43q0 -135 135 -135q295 0 320 178zM1444 110h-170l103 701q3 22 4 41.5t1 36.5q0 115 -63 115l-325 -21l-92 -694q-38 -306 -562 -306q-235 0 -235 235q0 17 1.5 34.5t3.5 36.5l66 537q25 193 662 250v338
q0 133 86 195.5t269 62.5q310 0 310 -192v-77h-182v63q0 48 -39 69t-114 21q-88 0 -129.5 -37.5t-41.5 -112.5v-326l315 39q243 0 243 -224q0 -15 -1 -31t-3 -33z" />
    <glyph glyph-name="uniF400" unicode="&#xf400;" horiz-adv-x="1069" 
d="M970 673v-159q0 -544 -426 -544q-445 0 -445 549v139l53 265h180l-62 -294v-115q0 -384 274 -384q264 0 264 394v184q0 248 -224 478q-223 229 -223 509h163q1 -198 223 -450q223 -253 223 -572z" />
    <glyph glyph-name="uniF401" unicode="&#xf401;" horiz-adv-x="1069" 
d="M808 669q0 183 -67 274t-212 96q-259 -7 -259 -390v-85q0 -434 265 -434q273 0 273 429v110zM970 634v-55q0 -609 -436 -609q-435 0 -435 609v60q0 490 363 552h18q6 23 9.5 43.5t3.5 40.5q0 100 -87 160q-120 82 -122 260h187q0 -107 98 -187q73 -60 73 -211
q0 -25 -2 -53t-6 -58h18q316 -69 318 -552z" />
    <glyph glyph-name="uniF402" unicode="&#xf402;" horiz-adv-x="1149" 
d="M880 638q0 420 -296 420q-314 0 -314 -414v-95q0 -419 310 -419q300 0 300 419v89zM1050 646v-87q0 -589 -474 -589q-477 0 -477 574v120q0 470 467 548h85q35 48 51 94.5t16 97.5q0 151 -170 151q-164 0 -164 -196h-147q0 356 308 356q313 0 313 -319q-11 -139 -72 -224
q264 -114 264 -526z" />
    <glyph glyph-name="uniF403" unicode="&#xf403;" horiz-adv-x="1638" 
d="M242 195q88 78 204 111q-347 342 -347 796v109q0 504 397 504q152 0 295 -179q91 169 323 169q426 0 426 -513v-149q0 -558 -426 -588q-414 28 -414 588v119q0 48 9 105.5t26 129.5q-75 154 -231 154q-235 0 -235 -329v-99q0 -468 382 -802l191 -24q351 -83 402 -297
h-238q-12 83 -226 146q-30 9 -61 13t-60 4q-168 0 -331 -133zM1369 1147q0 399 -255 399q-246 0 -246 -354v-154q0 -201 59 -304.5t187 -117.5q131 14 193 109.5t62 282.5v139z" />
    <glyph glyph-name="uniF404" unicode="&#xf404;" horiz-adv-x="1078" 
d="M970 456q0 -486 -441 -486q-217 0 -323 121.5t-106 367.5l81 303h187l-99 -303q0 -329 268 -329q280 0 280 334v883q0 209 -255 209q-219 0 -219 -257l75 -246h-171l-63 269q0 393 391 393q395 0 395 -373v-886z" />
    <glyph glyph-name="uniF405" unicode="&#xf405;" horiz-adv-x="1069" 
d="M934 1307q-5 -230 -189 -354q225 -116 225 -369v-125q0 -489 -436 -489q-435 0 -435 513l48 279h176l-54 -288q0 -344 266 -344q273 0 273 334v115q0 204 -171 245h-153v169h82q100 40 148 123.5t48 222.5q0 218 -226 218q-234 0 -235 -246l33 -154h-168l-22 158
q0 400 392 400q398 0 398 -408z" />
    <glyph glyph-name="uniF406" unicode="&#xf406;" horiz-adv-x="1203" 
d="M649 1246q0 160 -45.5 234.5t-145.5 74.5q-188 0 -188 -223q0 -181 94 -275q91 99 264 108h16zM930 626q0 392 -281 392q-299 0 -299 -394v-75q0 -419 294 -419q286 0 286 411v85zM1104 629v-75q0 -584 -461 -584q-464 0 -464 594v70q0 148 91 329q-171 148 -171 354
q0 398 350 398q361 0 361 -466q0 -19 -3 -44t-8 -57h10q295 -127 295 -519z" />
    <glyph glyph-name="uniF407" unicode="&#xf407;" horiz-adv-x="1625" 
d="M757 1170q0 386 -242 386q-248 0 -248 -386v-621q0 -420 248 -420q242 0 242 420v621zM1526 704q-9 -442 -192 -704h-239q238 229 259 704v466q0 377 -218 377q-194 0 -211 -275v-723q0 -579 -419 -579q-407 0 -407 579v621q0 545 418 545q199 0 333 -228
q104 218 326 218q350 0 350 -535v-466z" />
    <glyph glyph-name="uniF408" unicode="&#xf408;" horiz-adv-x="1023" 
d="M924 763q0 -386 -139 -763h-178q147 322 147 763v410q0 382 -220 382q-264 0 -264 -382v-410q0 -440 157 -763h-180q-148 365 -148 763v410q0 542 435 542q390 0 390 -542v-410z" />
    <glyph glyph-name="uniF409" unicode="&#xf409;" horiz-adv-x="1069" 
d="M970 454q0 -245 -108.5 -364.5t-326.5 -119.5q-436 0 -436 499l39 292h185l-54 -292q0 -339 266 -339q273 0 273 324v120q0 316 -189 316h-198v168h158q229 129 229 304q0 149 -180 334h252q90 -191 90 -299q0 -265 -225 -365q225 -99 225 -453v-125z" />
    <glyph glyph-name="uniF40A" unicode="&#xf40a;" horiz-adv-x="2153" 
d="M314 166q105 120 234 187q-405 242 -449 739v123q0 491 395 491q210 0 310 -178q90 187 276 187q187 0 284 -187q85 178 304 178q387 0 387 -481v-103q0 -186 -201 -598h-184q226 433 226 633v63q0 327 -226 327q-231 0 -231 -231v-422h-155v422q0 256 -204 256
q-197 0 -197 -256v-422h-156v422q0 231 -234 231q-223 0 -223 -329v-121q40 -447 431 -680q75 15 159 15q269 0 467.5 -109t332.5 -323h-273q-35 164 -359 257q-38 11 -73.5 15.5t-68.5 4.5q-243 0 -459 -246z" />
    <glyph glyph-name="uniF40B" unicode="&#xf40b;" horiz-adv-x="1085" 
d="M816 474v459q-48 31 -112 47.5t-149 16.5q-285 0 -285 -319v-184q0 -364 283 -364q263 0 263 344zM968 484q0 -514 -415 -514q-454 0 -454 514v174q0 494 435 514q140 0 283 -74v209q0 249 -258 249q-69 0 -116.5 -14.5t-77 -42t-42.5 -69t-13 -95.5h-161q0 380 398 380
q421 0 421 -413v-818z" />
    <glyph glyph-name="uniF40C" unicode="&#xf40c;" horiz-adv-x="1087" 
d="M826 683q0 335 -280 335q-152 0 -267 -75v-474q0 -339 278 -339q269 0 269 324v229zM988 708v-250q0 -488 -442 -488q-429 0 -429 488v852q0 386 303 386h464v-160h-459q-155 0 -155 -230v-199q151 85 278 85q440 0 440 -484z" />
    <glyph glyph-name="uniF40D" unicode="&#xf40d;" horiz-adv-x="1602" 
d="M1503 706q0 -411 -282 -706h-201q315 366 315 707v463q0 387 -243 387q-206 0 -206 -305v-638h-165v647q0 296 -239 296q-211 0 -211 -387v-463q0 -346 286 -707h-193q-265 295 -265 707v463q0 545 401 545q200 0 308 -240q117 240 284 240q411 0 411 -545v-464z" />
    <glyph glyph-name="uniF40E" unicode="&#xf40e;" horiz-adv-x="1069" 
d="M970 471v-37q0 -464 -417 -464q-454 0 -454 479l18 179h179l-26 -179q0 -319 278 -319q260 0 260 319v67q0 192 -158 237h-196v182h103q233 63 233 239q0 163 -189 220q-188 57 -188 301h198q0 -150 170 -221q171 -71 171 -292q0 -178 -211 -299q229 -109 229 -412z" />
    <glyph glyph-name="uniF40F" unicode="&#xf40f;" horiz-adv-x="1086" 
d="M969 465q0 -249 -109.5 -372t-329.5 -123q-431 0 -431 586h171q0 -426 260 -426q276 0 276 335v1083l-497 -50q317 -120 317 -334q0 -196 -130 -290.5t-396 -94.5v178q193 0 284 49.5t91 155.5q0 175 -375 270v167l869 130v-1264z" />
    <glyph glyph-name="uniF410" unicode="&#xf410;" horiz-adv-x="1683" 
d="M1585 798v-124q0 -415 -315 -674h-215q352 352 352 683v140q0 333 -235 333q-241 0 -241 -297v-350h-173v350q0 296 -254 296q-234 0 -234 -332v-149q0 -319 364 -674h-212q-323 260 -323 674v119q0 212 60.5 377.5t187.5 293.5q125 127 347 188.5t545 62.5v-160
q-705 0 -862 -295l113 52q239 0 363 -244q105 244 303 244q428 0 429 -514z" />
    <glyph glyph-name="uniF411" unicode="&#xf411;" horiz-adv-x="1087" 
d="M988 519v-45q0 -504 -442 -504q-429 0 -429 594v1131h162v-1171q0 -394 269 -394q278 0 278 329v75q0 176 -114 326q-113 149 -115 300l40 217h180l-66 -230q0 -125 118 -255q119 -131 119 -373z" />
    <glyph glyph-name="uniF412" unicode="&#xf412;" horiz-adv-x="1347" 
d="M470 1447q-60 -24 -98.5 -66.5t-60.5 -101.5t-31 -134t-10 -164v-323q1 -76 24 -161t71 -179q95 -188 311 -188q214 0 307 187t93 341v320q0 57 -11.5 117t-32.5 116.5t-50.5 106.5t-65.5 87.5t-77.5 59t-86.5 21.5h-17v-787h-150v785l18 231h132v-68h17
q270 -92 383 -290q112 -196 112 -374v-330q0 -211 -133 -446q-134 -237 -442 -237q-291 0 -432 235t-141 448v329q0 88 20.5 178.5t65.5 195.5q86 199 285 281v-190z" />
    <glyph glyph-name="uniF413" unicode="&#xf413;" horiz-adv-x="1074" 
d="M957 494q0 -525 -413 -525q-454 0 -458 490l51 302h183l-62 -297q0 -334 290 -334q257 0 257 309v948q-1 169 -176 169q-76 0 -112 -21t-36 -63v-408h-143v333q-18 139 -161 159h-132v159h126q139 0 207 -159q94 159 247 159q332 0 332 -378v-843z" />
    <glyph glyph-name="uniF414" unicode="&#xf414;" horiz-adv-x="1607" 
d="M754 1182q0 374 -246 374q-238 0 -238 -369v-139q0 -391 250 -391q234 0 234 391v134zM1490 472q0 -104 -37 -195.5t-107 -159.5t-170 -107.5t-226 -39.5h-90q-92 0 -179.5 30t-155.5 79t-109 111t-41 126h183q0 -29 27.5 -62t71.5 -61t100.5 -46t113.5 -18h67
q90 0 162 28.5t122 76t76.5 109.5t26.5 128q0 257 -115 257h-111v151l53 2q191 137 191 360q0 309 -239 309q-118 0 -219 -128q31 -92 31 -236v-138q0 -279 -99.5 -415.5t-297.5 -136.5q-420 0 -420 552v139q0 528 406 528q229 0 326 -199q126 193 294 193q383 0 383 -422
q0 -283 -212 -429q194 -123 194 -386z" />
    <glyph glyph-name="uniF415" unicode="&#xf415;" horiz-adv-x="1086" 
d="M969 458q0 -488 -441 -488q-429 0 -429 488l49 221h184l-62 -220q0 -329 260 -329q287 0 287 334v548q-187 436 -349 436q-176 0 -177 -169l59 -257h-161l-54 249q0 178 81.5 263t247.5 85q153 0 353 -342v418h152v-1237z" />
    <glyph glyph-name="uniF416" unicode="&#xf416;" horiz-adv-x="1649" 
d="M227 177q108 97 246 132q-374 284 -374 828v75q0 503 409 503q195 0 318 -263q108 263 315 263q410 0 410 -480v-97q0 -118 -41 -265t-119 -334h-206q193 352 193 594v84q0 340 -233 340q-244 0 -244 -398v-320h-154v320q0 397 -240 397q-121 0 -179 -83t-58 -261v-109
q0 -435 391 -774q54 -2 99 -8t82 -14q378 -112 429 -337h-238q-3 82 -230 181q-66 18 -133 18q-183 0 -373 -139z" />
    <glyph glyph-name="uniF417" unicode="&#xf417;" horiz-adv-x="1085" 
d="M968 453q0 -483 -438 -483q-431 0 -431 443l27 265h175l-31 -269q0 -279 260 -279q287 0 287 324v504q-72 -48 -144.5 -79t-136.5 -31q-410 0 -410 439v40q0 171 130 370h202q-161 -212 -161 -360v-40q0 -293 233 -295q148 11 287 126v569h151v-1244z" />
    <glyph glyph-name="uniF418" unicode="&#xf418;" horiz-adv-x="1085" 
d="M817 459v454q-103 73 -282 73q-264 0 -264 -368v-114q0 -374 272 -374q274 0 274 329zM968 479q0 -509 -416 -509q-453 0 -453 524v144q0 505 436 505q61 0 131 -16.5t151 -46.5v352q0 124 -156 124q-161 0 -161 -180v-58h-148v58q0 180 -253 180v159q256 0 304 -192
q76 192 267 192q298 0 298 -333v-903z" />
    <glyph glyph-name="uniF419" unicode="&#xf419;" horiz-adv-x="1088" 
d="M590 1294l14 146q0 117 -149 117q-176 0 -176 -282v-225q151 100 285 100q213 0 318.5 -111t105.5 -341v-94q0 -247 -173 -604h-198q209 374 209 549v174q0 142 -66 208t-202 66q-116 0 -279 -97v-900h-161v1264q0 227 75.5 339t230.5 112q344 0 346 -275l-18 -146h-162z
" />
    <glyph glyph-name="uniF41A" unicode="&#xf41a;" horiz-adv-x="1196" 
d="M1052 1287q0 -88 -54.5 -166t-166.5 -148q266 -123 266 -389q0 -143 -33 -256.5t-95 -193t-152 -122t-205 -42.5q-113 0 -207 39t-161.5 123t-105 216t-37.5 318v413q0 154 24.5 304t76.5 313h193q-121 -362 -121 -617v-413q1 -132 25 -232.5t68 -168t106.5 -102
t139.5 -34.5q157 0 234 135q38 69 58 145t20 164q0 251 -175 251h-189v163h81q238 100 238 295q0 127 -128 201q-127 72 -127 213h165q0 -84 131 -152t131 -257z" />
    <glyph glyph-name="uniF41B" unicode="&#xf41b;" horiz-adv-x="1085" 
d="M817 519v419q-110 80 -291 80q-256 0 -256 -400v-89q0 -399 256 -399q291 0 291 389zM968 494q0 -524 -433 -524q-436 0 -436 574v74q0 289 110 431t331 142q145 0 277 -81v585h151v-1201z" />
    <glyph glyph-name="uniF41C" unicode="&#xf41c;" horiz-adv-x="1086" 
d="M118 1401q0 314 312 314q180 0 267 -189q33 189 290 189v-159q-253 0 -253 -160v-68h-147v68q0 160 -151 160q-157 0 -157 -155v-354q75 42 143 64t131 22q434 0 434 -495v-119q0 -549 -452 -549q-212 0 -314 133.5t-102 405.5zM280 509q0 -379 251 -379q296 0 296 369
v139q0 338 -274 338q-125 0 -273 -96v-371z" />
    <glyph glyph-name="uniF41D" unicode="&#xf41d;" horiz-adv-x="1103" 
d="M1004 1385h-198l56 -327h142v-141h-113l78 -459q0 -488 -441 -488q-429 0 -429 488l53 221h184l-65 -220q0 -329 259 -329q278 0 278 334l-84 453h-203q-368 0 -368 301q0 310 371 310h84l-33 168h180l31 -168h218v-143zM296 1223q0 -165 218 -165h192l-62 327h-127
q-221 0 -221 -162z" />
    <glyph glyph-name="uniF41E" unicode="&#xf41e;" horiz-adv-x="1087" 
d="M826 653q0 383 -278 383q-147 -3 -268 -88v-424q0 -394 282 -394q264 0 264 384v139zM988 624v-95q0 -559 -426 -559q-445 0 -445 549v1176h163v-580q145 78 268 78q440 0 440 -569z" />
    <glyph glyph-name="uniF41F" unicode="&#xf41f;" horiz-adv-x="951" 
d="M906 972l-69 -138l-311 171l-130 -277q301 -110 303 -330q-1 -98 -34.5 -177t-105.5 -135t-186.5 -86t-277.5 -30v160q129 0 212.5 16.5t132 48.5t68 78.5t19.5 105.5q0 191 -236 232l-104 69l210 405l-352 190l72 140l347 -197l95 194q17 29 17 69q0 42 -33.5 70
t-90.5 28l-117 -19v155h140q59 0 106 -21t79.5 -54.5t50 -76.5t17.5 -86q0 -90 -27 -144l-101 -196z" />
    <glyph glyph-name="uniF420" unicode="&#xf420;" horiz-adv-x="1068" 
d="M969 409q0 -439 -439 -439q-431 0 -431 516h171q0 -356 260 -356q271 0 271 279q0 197 -139 197h-208v179h190q139 0 139 132q0 122 -139 122h-208v181h208q118 0 118 153q0 184 -362 184h-107v158h107q533 0 533 -342q0 -155 -136 -252h2q78 -40 115 -94t37 -123
q0 -146 -117 -215q135 -110 135 -280z" />
    <glyph glyph-name="uniF421" unicode="&#xf421;" horiz-adv-x="1076" 
d="M544 -30q-436 0 -436 486v1101h163v-1101q0 -326 273 -326q266 0 266 274q0 226 -118 226h-152v177h152q97 0 102 131q-5 125 -123 125h-149v183h149q100 0 100 181q0 129 -267 129v158q438 0 438 -302q0 -85 -36 -145.5t-108 -102.5h-2q81 -52 123 -109t42 -120
q0 -129 -156 -220q172 -85 172 -311q0 -434 -433 -434z" />
    <glyph glyph-name="uniF422" unicode="&#xf422;" horiz-adv-x="1069" 
d="M270 722q0 -408 263 -528q268 120 268 528v418q0 416 -267 416q-264 0 -264 -416v-418zM99 29q195 0 252 83h-2q-250 259 -250 610v422q0 571 434 571q435 0 435 -575v-418q0 -348 -254 -614q40 -79 256 -79v-190q-174 0 -428 230h-19q-127 -118 -230 -174t-194 -56v190z
" />
    <glyph glyph-name="uniF423" unicode="&#xf423;" horiz-adv-x="1069" 
d="M968 406q0 -436 -440 -436q-427 0 -427 468v211h170v-221q0 -298 264 -298q266 0 266 276v155q0 282 -218 282h-205v164h111q312 172 312 549l-528 -23v-236h-174v399l869 21q0 -577 -293 -735q293 -113 293 -415v-161z" />
    <glyph glyph-name="uniF424" unicode="&#xf424;" horiz-adv-x="1070" 
d="M969 456q0 -486 -439 -486q-431 0 -431 486v142h172v-142q0 -326 259 -326q271 0 271 326q0 352 -250 352h-173v173h99q164 15 242.5 132t78.5 341q-78 -57 -144.5 -84t-127.5 -27q-427 0 -427 373h171q0 -198 260 -198q199 0 312 197h139v-225q-11 -384 -279 -550
q267 -156 267 -484z" />
    <glyph glyph-name="uniF425" unicode="&#xf425;" horiz-adv-x="1176" 
d="M810 734h-282q-132 0 -195 -73.5t-63 -230.5q0 -300 265 -300q275 0 275 244v360zM270 1240q0 -326 258 -326h282v415q0 227 -275 227q-265 0 -265 -316zM969 494v-120q0 -404 -441 -404q-429 0 -429 460q0 289 241 395h-1q-240 96 -240 415q0 475 436 475
q434 0 434 -386v-151h126v-190h-126v-310h126v-184h-126z" />
    <glyph glyph-name="uniF426" unicode="&#xf426;" horiz-adv-x="1760" 
d="M1494 949v259q0 98 -13.5 165t-44.5 108t-82 58.5t-126 17.5q-259 0 -259 -295v-405q0 -301 259 -301q266 0 266 393zM1661 944q0 -547 -439 -547q-115 0 -254 135v-158q0 -404 -418 -404v160q248 0 248 244v888q0 295 -264 295q-62 0 -110.5 -17.5t-82.5 -58.5
t-52 -107.5t-18 -165.5v-253q0 -337 264 -337v-165q-436 0 -436 502v253q0 129 34 224.5t93.5 158.5t138.5 94t169 31q234 0 357 -216q106 216 337 216q138 0 222.5 -40.5t126.5 -118.5q84 -158 84 -349v-264z" />
    </font>
</defs>
</svg>
