<?xml version="1.0" encoding="UTF-8"?>
<!DOCTYPE svg PUBLIC "-//W3C//DTD SVG 1.1//EN" "http://www.w3.org/Graphics/SVG/1.1/DTD/svg11.dtd">
<!-- Creator: CorelDRAW 2019 (64-Bit) -->
<svg xmlns="http://www.w3.org/2000/svg" xml:space="preserve" width="2.93696in" height="0.376787in" version="1.1" style="shape-rendering:geometricPrecision; text-rendering:geometricPrecision; image-rendering:optimizeQuality; fill-rule:evenodd; clip-rule:evenodd"
viewBox="0 0 2231.9 286.33"
 xmlns:xlink="http://www.w3.org/1999/xlink"
 xmlns:xodm="http://www.corel.com/coreldraw/odm/2003">
 <defs>
  <style type="text/css">
   <![CDATA[
    .str0 {stroke:#2957A4;stroke-width:2.28;stroke-linejoin:round;stroke-miterlimit:22.9256}
    .fil1 {fill:#848688;fill-rule:nonzero}
    .fil0 {fill:#2F578E;fill-rule:nonzero}
   ]]>
  </style>
 </defs>
 <g id="Layer_x0020_1">
  <metadata id="CorelCorpID_0Corel-Layer"/>
  <g id="_1711858588592">
   <path class="fil0 str0" d="M92.57 143.16c0,-26.14 20.45,-47.29 45.7,-47.29l0 94.61c-25.25,0 -45.7,-21.15 -45.7,-47.32zm-91.43 0c0,-78.4 61.39,-142.02 137.13,-142.02l0 47.54c-50.4,0 -91.23,42.29 -91.23,94.48 0,52.21 40.83,94.51 91.23,94.51l0 47.52c-75.74,0 -137.13,-63.6 -137.13,-142.03zm137.13 -142c75.8,0 137.43,63.72 137.43,142 0,78.31 -61.63,142 -137.43,142l0 -1.94c74.73,0 135.54,-62.85 135.54,-140.06 0,-77.18 -60.82,-140.04 -135.54,-140.04l0 -1.96zm0 47.52c50.4,0 91.23,42.29 91.23,94.48 0,52.21 -40.83,94.51 -91.23,94.51l0 -47.2c25.25,0 45.7,-21.15 45.7,-47.32 0,-26.14 -20.45,-47.29 -45.7,-47.29l0 -47.19z"/>
   <path class="fil1" d="M1933.34 285.22l-22.74 0 0 -126.37 -101.52 0 0 126.37 -22.74 0 0 -254.14 22.74 0 0 108.1 101.52 0 0 -108.1 22.74 0 0 254.14zm-801.14 -254.14l61.58 0 0 65.29 -61.58 0 0 -65.29zm61.58 254.14l-61.61 0 0 -182.24 61.61 0 0 182.24zm41.15 -254.14l22.76 0 0 65.31 -22.76 0 0 -65.31zm22.74 254.14l-22.74 0 0 -182.24 22.74 0 0 182.24zm199.14 -254.14l73.38 0c41.01,0 63.74,24.23 63.74,63.72 0,30.59 -11.71,58.02 -44.44,64.41l0 0.72c30.64,2.83 41.01,21 42.03,60.14l0.69 27.77c0.35,13.89 1.72,27.41 10.34,37.37l-25.85 0c-5.17,-8.89 -6.21,-22.1 -6.56,-35.62l-0.67 -21.32c-1.39,-44.88 -9.32,-59.07 -48.94,-59.07l-41.7 0 0 116.01 -22.04 0 0 -254.14zm22.04 118.89l37.9 0c34.82,0 55.14,-16.4 55.14,-49.82 0,-30.96 -12.75,-49.82 -52.73,-49.82l-40.31 0 0 99.65zm495.61 -118.89l22.74 0 0 65.31 -22.74 0 0 -65.31zm22.74 254.14l-22.77 0 0 -182.24 22.77 0 0 182.24zm42.08 -254.11l38.04 0 58.95 225.63 0.69 0 58.95 -225.63 35.98 0 0 254.11 -21.95 0 0 -232.74 -0.67 0 -63.42 232.74 -20.55 0 -63.4 -232.74 -0.69 0 0 232.74 -21.94 0 0 -254.11zm-1305.6 254.11l-62.31 0 -8.75 -49.46 -48.31 0 -7.36 49.46 -61.93 0 57.38 -254.14 74.21 0 57.05 254.14zm-77.01 -94.19l-17.15 -113.84 -0.7 0 -17.84 113.84 35.69 0zm258.38 20.67c0,49.01 -26.72,73.52 -80.15,73.52l-86.81 0 0 -254.14 79.8 0c55.32,0 82.96,21.92 82.96,65.76 0,25.3 -9.92,43.12 -29.75,53.5l0 0.73c13.55,7.63 22.51,15.58 26.94,23.7 4.67,8.13 7.01,20.43 7.01,36.93zm-65.81 -110.78c0,-11.08 -3.85,-18.19 -11.53,-21.35 -4.45,-1.84 -13.77,-2.73 -28.01,-2.73l0 54.23c16.55,-1.15 26.47,-2.64 29.75,-4.4 6.53,-3.63 9.79,-12.2 9.79,-25.74zm4.2 105.69c0,-13.54 -3.95,-22.17 -11.88,-25.75 -4.45,-2.04 -15.05,-3.37 -31.86,-4.07l0 62.68c18.66,-0.42 29.87,-1.66 33.6,-3.71 6.76,-3.65 10.14,-13.34 10.14,-29.15zm249.98 11.85c0,44.49 -26.95,66.75 -80.87,66.75l-82.93 0 0 -254.14 66.85 0c32.21,0 55.29,3.98 69.31,11.88 18.41,10.38 27.64,31.28 27.64,62.65l0 112.85zm-61.61 -26.42l0 -83.01c0,-14.02 -3.03,-23.06 -9.1,-27.13 -4.42,-2.93 -14.93,-4.6 -31.49,-5.07l0 162.63c18.89,1.14 30.8,-2.16 35.69,-9.82 3.29,-5.19 4.9,-17.72 4.9,-37.6zm394.34 19.98c0,29.35 -9.79,49.61 -29.4,60.66 -14.94,8.35 -38.84,12.53 -71.75,12.53l-36.03 0 0 -254.14 57.38 0c48.31,0 72.47,20.68 72.47,62.03 0,29.82 -11.91,49.13 -35.71,57.96 28.7,7.63 43.04,28 43.04,60.96zm-30.1 -118.24c0,-18.09 -6.19,-30.27 -18.54,-36.6 -8.4,-4.31 -23.23,-6.44 -44.45,-6.44l-21.35 0 0 91.5 23.45 0c22.62,0 38.38,-3.6 47.25,-10.83 9.09,-7.45 13.64,-20.01 13.64,-37.62zm7.35 117.92c0,-20.77 -6.53,-34.79 -19.61,-42.02 -9.31,-5.19 -25.42,-7.78 -48.29,-7.78l-23.8 0 0 103.68 28.36 0c23.08,0 39.43,-4.08 48.97,-12.21 9.57,-8.37 14.36,-22.26 14.36,-41.68zm361.49 73.52l-23.12 0 -20.65 -78.26 -79.8 0 -21.34 78.26 -22.05 0 70.36 -254.14 26.24 0 70.36 254.14zm-48.66 -97.91l-34.64 -128.41 -0.71 0 -34.66 128.41 70.01 0z"/>
  </g>
 </g>
</svg>
