<?xml version="1.0" encoding="UTF-8"?>
<!DOCTYPE svg PUBLIC "-//W3C//DTD SVG 1.1//EN" "http://www.w3.org/Graphics/SVG/1.1/DTD/svg11.dtd">
<!-- Creator: CorelDRAW 2019 (64-Bit) -->
<svg xmlns="http://www.w3.org/2000/svg" xml:space="preserve" width="2.31195in" height="0.60187in" version="1.1" style="shape-rendering:geometricPrecision; text-rendering:geometricPrecision; image-rendering:optimizeQuality; fill-rule:evenodd; clip-rule:evenodd"
viewBox="0 0 2210.56 575.47"
 xmlns:xlink="http://www.w3.org/1999/xlink"
 xmlns:xodm="http://www.corel.com/coreldraw/odm/2003">
 <defs>
  <style type="text/css">
   <![CDATA[
    .str1 {stroke:#373435;stroke-width:8.18;stroke-miterlimit:2.61313}
    .str2 {stroke:#373435;stroke-width:8.18;stroke-miterlimit:2.61313}
    .str3 {stroke:#373435;stroke-width:8.18;stroke-miterlimit:2.61313}
    .str4 {stroke:#373435;stroke-width:8.18;stroke-miterlimit:2.61313}
    .str0 {stroke:#373435;stroke-width:8.18;stroke-miterlimit:2.61313}
    .fil0 {fill:#373435}
    .fil1 {fill:#373435;fill-rule:nonzero}
   ]]>
  </style>
 </defs>
 <g id="Layer_x0020_1">
  <metadata id="CorelCorpID_0Corel-Layer"/>
  <g id="_1711859567600">
   <path class="fil0" d="M330.44 20.19l37.21 0 0 254.24 128.01 0 -6.79 37.21 -151.93 0 -6.51 0 0 -291.45zm1659.88 -13.59l1 1.42 -0.32 -1.81 182.34 219.99 0 -208.65 37.21 0 0 304.96 -183.03 -218.55 0 207.69 -37.2 0 0 -305.04zm-1863.84 262.95l11.36 -29.54 11.36 -29.53 -22.72 0 -22.71 0 11.36 29.53 11.36 29.54zm-0.08 -269.55l-126.4 297.3 34.24 14.56 92.25 -216.97 92.24 216.97 34.24 -14.56 -117.99 -277.53 -0.14 0.3 -8.44 -20.08zm1773.91 174.62l-6.3 33.75 -119.42 0 0 66.06 155.36 0 -6.79 37.21c-61.93,0 -123.85,0 -185.78,0l0 -280.86 0 -10.59 168.9 0 6.79 37.21 -138.48 0 0 117.22 125.72 0zm-283.33 -154.43l37.21 0 0 291.45 -37.21 0 0 -291.45zm-183.13 306.44l-126.4 -297.3 34.24 -14.56 92.24 216.97 92.25 -216.97 34.24 14.56c-42.11,99.04 -85.12,198.76 -126.57,297.3zm-265.71 -57.08l11.36 -29.54 11.36 -29.53 -22.71 0 -22.72 0 11.36 29.53 11.36 29.54zm-0.09 -269.55l-126.4 297.3 34.24 14.56 92.25 -216.97 92.24 216.97 34.24 -14.56 -117.99 -277.53 -0.14 0.3 -8.44 -20.08zm-292.93 33.87l-30.37 -21.49 -81.2 114.73 -81.2 -114.73 -30.37 21.49 88.78 125.44 -98.13 138.65 30.37 21.49 90.55 -127.94 90.55 127.94 30.37 -21.49 -98.13 -138.65 88.78 -125.44zm-327.66 -13.68l37.21 0 0 291.45 -37.21 0 0 -291.45z"/>
   <path class="fil1 str0" d="M294.43 417.42l0 64.25 27.67 0c8.82,0 16.86,-3.62 22.68,-9.45 5.82,-5.82 9.44,-13.85 9.44,-22.68 0,-8.83 -3.62,-16.86 -9.44,-22.68 -5.82,-5.83 -13.86,-9.44 -22.68,-9.44l-27.67 0zm0 79.14l0 71.54 -14.89 0 0 -71.54 -0.16 0 0 -14.89 0.16 0 0 -64.25 -0.16 0 0 -14.89 42.72 0c12.94,0 24.69,5.29 33.21,13.81 8.52,8.51 13.81,20.27 13.81,33.21 0,12.93 -5.29,24.69 -13.81,33.21 -8.52,8.52 -20.28,13.81 -33.21,13.81l-27.67 0z"/>
   <path class="fil1 str1" d="M1129.14 417.42l0 57.89 27.84 0c8.96,0 17.06,-3.34 22.91,-8.71 5.68,-5.22 9.21,-12.39 9.21,-20.23 0,-7.84 -3.53,-15.01 -9.21,-20.23 -5.84,-5.38 -13.95,-8.71 -22.91,-8.71l-27.84 0zm70.68 150.72c-2.97,-6.71 -6.09,-13.86 -9.22,-21.05 -6.62,-15.19 -13.31,-32.88 -18.72,-44.27 -5.62,-11.85 -30.83,-10.48 -42.74,-11.27l0 76.56 -14.89 0 0 -77.9 0 -14.89 0 -57.89 0 -11.94 0 -2.95 42.73 0c12.8,0 24.48,4.85 32.98,12.67 8.66,7.97 14.04,19 14.04,31.17 0,12.17 -5.38,23.2 -14.04,31.16 -4.35,4 -9.54,7.23 -15.28,9.42 4.42,2.74 8.13,6.55 10.64,11.84 5.38,11.34 12.18,26.95 18.89,42.37 4.11,9.43 8.19,18.8 11.85,26.98l-16.24 0z"/>
   <polygon class="fil1 str2" points="1536.58,405.48 1536.58,568.1 1521.69,568.1 1521.69,405.48 "/>
   <path class="fil1 str3" d="M697.77 510.85l71.95 0 -35.98 -88.6 -35.97 88.6zm77.99 14.89l-84.04 0 -17 41.86 -16.05 0 66.31 -163.32 17.52 0 66.31 163.32 -16.05 0 -17 -41.86z"/>
   <path class="fil1 str4" d="M1933.47 420.91c-4.54,-0.97 -8.34,-1.77 -9.18,-1.93 -13.92,-2.83 -28.64,-2.17 -40.2,1.81 -9.41,3.24 -16.42,8.61 -18.34,15.9 -5.57,21.25 12.26,30.21 30.74,39.5 21.92,11.01 44.57,22.39 43.7,51.7l0 0c-0.1,4.63 -0.69,8.8 -1.68,12.54 -3.31,12.4 -10.89,20.38 -20.75,25.19 -9.14,4.45 -20.15,5.99 -31.3,5.75 -11.1,-0.23 -22.33,-2.21 -31.86,-4.74l-0.03 0c-0.62,-0.17 -1.86,-0.58 -3.45,-1.13l0 -15.76c3.38,1.22 6.39,2.29 7.28,2.53l0 0.01c8.6,2.29 18.63,4.07 28.34,4.27 8.97,0.19 17.64,-0.96 24.5,-4.3 6.14,-2.99 10.86,-7.94 12.9,-15.59 0.72,-2.71 1.14,-5.74 1.22,-9.11l0 -0.06c0.59,-19.9 -17.75,-29.11 -35.5,-38.03 -23.96,-12.04 -47.08,-23.66 -38.48,-56.48 3.32,-12.67 13.94,-21.46 27.87,-26.26 13.91,-4.79 31.47,-5.62 47.93,-2.27 1.02,0.21 3.61,0.74 6.28,1.29l0 15.18z"/>
  </g>
 </g>
</svg>
