<?xml version="1.0" encoding="UTF-8"?>
<!DOCTYPE svg PUBLIC "-//W3C//DTD SVG 1.1//EN" "http://www.w3.org/Graphics/SVG/1.1/DTD/svg11.dtd">
<!-- Creator: CorelDRAW 2019 (64-Bit) -->
<svg xmlns="http://www.w3.org/2000/svg" xml:space="preserve" width="2.87237in" height="0.45052in" version="1.1" style="shape-rendering:geometricPrecision; text-rendering:geometricPrecision; image-rendering:optimizeQuality; fill-rule:evenodd; clip-rule:evenodd"
viewBox="0 0 2716.95 426.14"
 xmlns:xlink="http://www.w3.org/1999/xlink"
 xmlns:xodm="http://www.corel.com/coreldraw/odm/2003">
 <defs>
  <style type="text/css">
   <![CDATA[
    .fil1 {fill:#373435}
    .fil0 {fill:#A8CF45}
   ]]>
  </style>
 </defs>
 <g id="Layer_x0020_1">
  <metadata id="CorelCorpID_0Corel-Layer"/>
  <g id="_1711889987168">
   <path class="fil0" d="M71.44 51c12.58,-4.83 36.13,-51 36.13,-51 0,0 47.59,48.71 72.81,114.42l108.38 282.33 -25.18 9.66 -104.26 -271.6c-13.28,-34.6 -44.4,-89.03 -87.88,-83.8zm248.46 334.26l1.89 -0.73c75.9,-29.65 98.49,-152.37 73.44,-237.41l-10.98 -28.6c-10.38,-21.19 -24.59,-38.03 -42.49,-47.48 -27.87,-14.68 -51.02,-14.59 -69.73,-7.41 -42.11,16.16 -61.69,68.18 -61.69,68.18l0.1 0.04c-0.06,0.19 -0.11,0.36 -0.16,0.55l-0 0.01 98.35 256.21c1.29,-0.33 2.64,-0.68 4.02,-1.02 2.48,-0.69 4.9,-1.47 7.27,-2.33zm-310.33 -107.89l0.46 1.2c32.78,84.94 139.27,172.17 220.05,141.17 2.8,-1.07 5.58,-2.3 8.32,-3.66 1.27,-0.68 2.5,-1.31 3.68,-1.93l-98.35 -256.21c-0.16,-0.09 -0.32,-0.2 -0.48,-0.3l0.03 -0.1c0,0 -49.36,-25.55 -91.46,-9.39l-0 -0.01c-18.71,7.18 -35.99,22.6 -46.86,52.16 -8.35,22.72 -5.7,49.74 4.62,77.06z"/>
   <path class="fil1" d="M743.52 303.69l20.18 53.99c-7.73,3.43 -12.02,7.28 -12.02,11.14 0,1.71 1.29,2.57 4.29,2.57l2.58 0c17.6,0 21.47,0 44.65,0 12.02,0 17.6,0 21.9,0 9.87,1.11 17.6,1.47 19.75,1.47 2.58,0 4.29,-1.29 4.29,-3.01 0,-3.43 -2.57,-6.01 -14.6,-12.88l-104.76 -256.75c6.01,-5.15 7.73,-7.3 7.73,-10.3 0,-3.01 -1.72,-4.35 -4.72,-4.35 -0.86,0 -3.43,0 -6.01,0.44 -3.44,0.43 -41.22,1.29 -55.39,1.29 -12.02,0 -20.61,0 -27.05,-0.43 -7.3,-0.43 -13.31,-0.86 -17.17,-0.86 -3.44,0 -5.58,1.29 -5.58,3.43 0,1.28 1.29,3.43 3.87,6.44 0.86,1.29 3.01,3.43 3.44,4.29l-101.75 247.18c-3.44,7.72 -4.72,9.87 -5.58,10.3 -11.16,5.58 -12.45,6.44 -12.45,10.73 0,2.15 1.29,3 3.87,3 0.43,0 2.15,0 3.87,0 6.44,-0.86 36.92,-2.15 45.94,-2.15 14.6,0 22.33,0.43 35.2,2.15l2.58 0c2.58,0 3.44,-1.29 3.44,-3.44 0,-3.45 -3.44,-6.9 -10.74,-10.78l19.75 -53.48 130.51 0.01zm-111.2 -50.34l47.22 -117.1 44.23 117.1 -91.45 0z"/>
   <path class="fil1" d="M893.36 357.36c-9.88,2.99 -13.74,5.99 -13.74,11.12 0,2.14 0.86,2.99 3.43,2.99 1.29,-0 5.15,-0.04 8.59,-0.08 7.73,-0.86 14.17,-1.29 22.33,-1.29 17.18,0 39.93,1.28 48.52,2.17 0.86,0 1.71,0 2.15,0 2.15,0 3.43,-0.86 3.43,-2.57 0,-6.01 -5.98,-11.16 -14.94,-12.88l0 -210.27 106.85 222.72 3.86 0 107.73 -224.01 0 211.62c-8.16,2.57 -13.31,6.87 -13.31,11.16 0,2.15 1.72,3.43 3.87,3.43 1.29,0 3.01,0 4.72,-0.08 5.15,-0.86 20.61,-1.72 32.2,-1.72 9.45,0 21.47,0.86 36.5,1.8l9.02 0c1.72,0 3.01,-0.85 3.01,-2.13 0,-3.85 -3.04,-6.41 -13.87,-11.97l0 -256.05c3.9,-2.57 7.36,-4.7 8.67,-5.13 4.33,-2.57 6.07,-4.28 6.07,-7.69 0,-2.14 -1.28,-2.99 -4.72,-2.99l-7.73 -0c-4.72,0.43 -30.91,1.29 -43.36,1.29 -19.75,-0 -40.36,-0.86 -60.11,-3.33l-3.01 0c-3.43,0 -5.58,1.74 -5.58,3.89 0,2.58 2.15,5.16 7.3,8.61l-67.84 147.19 -69.98 -148.09c4.72,-2.58 6.44,-5.15 6.44,-8.16 0,-2.15 -1.72,-3.45 -4.72,-3.45 -0.86,0 -2.58,0 -4.29,0l-51.52 2.04 -48.94 -2.42 -6.44 0c-2.58,0 -3.86,1.35 -3.86,3.06 0,4.7 3.87,8.13 13.31,12.4l-0.01 258.81z"/>
   <path class="fil1" d="M1359.18 97.66c8.16,-3.01 11.59,-6.01 11.59,-9.88 0,-2.15 -1.72,-3.44 -3.86,-3.44 -2.15,0 -7.73,0.43 -14.17,1.28 -3.01,0.43 -12.45,0.43 -34.35,0.43l-25.76 -0.43c-12.88,-1.88 -12.88,-1.88 -13.31,-1.88 -3.01,0 -4.73,1.35 -4.73,3.5 0,4.73 4.29,7.75 15.46,11.2l102.18 258.86c-6.87,4.3 -9.01,6.89 -9.01,9.47 0,3.44 2.57,4.74 7.73,4.74l35.63 -0.86 12.45 0c22.33,0.43 37.78,0.86 42.07,0.86l14.6 -0.43c1.72,0 3.86,0 4.72,0 2.58,0 3.44,-0.86 3.44,-3.01 0,-3.44 -2.15,-6.03 -8.59,-10.76l104.76 -257.8c10.73,-3.88 15.45,-7.75 15.45,-12.05 0,-2.15 -2.15,-3.47 -5.15,-3.47l-13.31 1.28c-44.65,0 -63.54,-0.43 -66.98,-0.86 -2.57,-0.43 -5.15,-0.43 -6.44,-0.43 -1.71,0 -3.43,1.33 -3.43,2.63 0,4.3 4.72,9.04 12.88,12.05l-90.17 219.61 -83.73 -220.62z"/>
   <path class="fil1" d="M1652.95 356.15c-12.5,6.01 -14.65,7.73 -14.65,12.46 0,2.15 1.72,3.01 4.72,3.01l6.01 0c10.3,-1.29 22.76,-2.15 37.36,-2.15 12.02,-0 22.33,0.43 30.91,1.28 10.3,0.64 10.3,0.64 11.16,0.64 2.58,0 4.29,-1.28 4.29,-3 0,-4.72 -5.52,-8.58 -14.45,-10.73l0 -258.83c10.62,-4.29 14.44,-7.3 14.44,-11.16 0,-1.72 -2.15,-3.02 -5.58,-3.02 -0.86,0 -3.86,0 -6.01,0 -12.45,0.86 -20.61,1.29 -24.47,1.29l-41.22 -0.43c-6.01,-0.86 -10.74,-0.86 -12.45,-0.86 -2.15,0 -3.86,1.31 -3.86,3.03 0,3.43 5.6,8.16 13.79,11.16l-0 257.31z"/>
   <path class="fil1" d="M1787.5 355.54c-10.8,4.29 -13.82,6.87 -13.82,12.02 0,3.43 1.72,4.72 6.01,4.72 1.29,0 5.58,-0.59 9.44,-1.18 2.15,0 4.3,0 5.58,0l218.11 0c2.58,4.74 4.72,6.46 7.73,6.46 2.58,0 3.87,-1.22 3.87,-3.25l0 -2.04c-0.86,-4.74 -0.86,-8.2 -0.86,-12.94 0,-1.3 0,-8.63 0.43,-17.69l0 -12.94c0,-7.77 0.43,-15.1 0.86,-17.26l0 -1.73c0,-1.72 -0.87,-3.02 -2.58,-3.02 -4.29,0 -7.29,2.99 -10.29,10.23l-158.23 0 0 -218.97c10.16,-3.44 14.39,-6.87 14.39,-10.73 0,-2.15 -1.28,-3.47 -3.86,-3.47 -0.43,0 -2.58,0 -4.29,0l-33.49 1.75c-12.02,0 -33.06,-0.43 -35.63,-0.86 -6.01,-0.79 -10.73,-1.18 -12.45,-1.18 -2.58,0 -4.29,1.3 -4.29,3.87 0,4.29 3.89,7.3 13.39,10.73l-0.01 257.48z"/>
   <path class="fil1" d="M2290.64 303.69l20.18 53.99c-7.73,3.43 -12.02,7.28 -12.02,11.14 0,1.71 1.29,2.57 4.29,2.57l2.57 0c17.61,0 21.47,0 44.65,0 12.02,0 17.6,0 21.9,0 9.88,1.11 17.6,1.47 19.75,1.47 2.58,0 4.3,-1.29 4.3,-3.01 0,-3.43 -2.58,-6.01 -14.6,-12.88l-104.76 -256.75c6.01,-5.15 7.73,-7.3 7.73,-10.3 0,-3.01 -1.72,-4.35 -4.72,-4.35 -0.86,0 -3.43,0 -6.01,0.44 -3.43,0.43 -41.22,1.29 -55.38,1.29 -12.02,0 -20.61,0 -27.05,-0.43 -7.3,-0.43 -13.31,-0.86 -17.17,-0.86 -3.43,0 -5.58,1.29 -5.58,3.43 0,1.28 1.29,3.43 3.87,6.44 0.86,1.29 3.01,3.43 3.44,4.29l-101.75 247.18c-3.43,7.72 -4.72,9.87 -5.58,10.3 -11.16,5.58 -12.45,6.44 -12.45,10.73 0,2.15 1.29,3 3.87,3 0.43,0 2.15,0 3.87,0 6.44,-0.86 36.92,-2.15 45.94,-2.15 14.6,0 22.33,0.43 35.21,2.15l2.58 0c2.57,0 3.43,-1.29 3.43,-3.44 0,-3.45 -3.43,-6.9 -10.73,-10.78l19.75 -53.48 130.5 0.01zm-111.2 -50.34l47.23 -117.1 44.22 117.1 -91.45 0z"/>
   <path class="fil1" d="M2589.94 86.71l-138.48 0c-5.16,0 -9.89,-0.47 -13.33,-0.95 -4.11,-0.95 -8.23,-1.42 -9.87,-1.42 -2.88,0 -4.52,1.74 -4.52,4.31 0,3.86 3.81,6.87 14.39,11.16l0 254.54c-10.59,4.29 -15.25,8.58 -15.25,12.88 0,3.43 1.72,3.86 12.45,3.86l182 0c29.19,0 49.37,-3.43 64.39,-11.15 19.75,-9.86 35.24,-36.89 35.24,-62.19 0,-19.73 -8.59,-39.46 -23.18,-52.76 -10.73,-9.86 -19.74,-14.15 -40.77,-18.44 17.55,-7.29 28.26,-13.72 35.11,-20.59 12.42,-12.44 19.7,-30.03 19.7,-47.61 0,-42.04 -32.28,-70.35 -81.32,-71.64l-36.56 0zm-87.34 165.46l100.59 0c29.67,0 45.16,11.16 45.16,33.06 0,23.61 -15.93,34.35 -50.75,34.35l-95 0 -0 -67.41zm0 -113.64l95.39 0c28.79,0 43,10.29 43,31.28 0,20.14 -16.79,30.85 -47.73,30.85l-90.66 0 0 -62.12z"/>
  </g>
 </g>
</svg>
