<?xml version="1.0" encoding="UTF-8"?>
<!DOCTYPE svg PUBLIC "-//W3C//DTD SVG 1.1//EN" "http://www.w3.org/Graphics/SVG/1.1/DTD/svg11.dtd">
<!-- Creator: CorelDRAW 2019 (64-Bit) -->
<svg xmlns="http://www.w3.org/2000/svg" xml:space="preserve" width="3.21857in" height="0.883846in" version="1.1" style="shape-rendering:geometricPrecision; text-rendering:geometricPrecision; image-rendering:optimizeQuality; fill-rule:evenodd; clip-rule:evenodd"
viewBox="0 0 2401.77 659.55"
 xmlns:xlink="http://www.w3.org/1999/xlink"
 xmlns:xodm="http://www.corel.com/coreldraw/odm/2003">
 <defs>
  <style type="text/css">
   <![CDATA[
    .fil2 {fill:#D8334A;fill-rule:nonzero}
    .fil1 {fill:#A6A8AB;fill-rule:nonzero}
    .fil0 {fill:#949499;fill-rule:nonzero}
    .fil4 {fill:#AB3B58;fill-rule:nonzero}
    .fil3 {fill:#D91F47;fill-rule:nonzero}
   ]]>
  </style>
 </defs>
 <g id="Layer_x0020_1">
  <metadata id="CorelCorpID_0Corel-Layer"/>
  <g id="_1711880644112">
   <path class="fil0" d="M1121.53 447.99c0,-21.24 16.49,-40.36 43.57,-40.36 33.44,0 40.87,13.82 47.22,28.68l7.99 19.12 5.83 0 3.2 -55.78c-10.61,-2.62 -42.47,-6.37 -55.23,-6.37 -65.85,0 -92.92,40.9 -92.92,70.11 0,75.4 118.41,64.26 118.41,130.64 0,30.77 -25.5,44.09 -52.03,44.09 -14.88,0 -27.11,-4.8 -33.99,-10.65 -4.26,-3.16 -14.36,-22.82 -18.6,-41.95l-5.83 0 -3.19 62.15c13.8,1.59 28.66,4.79 48.31,4.79 84.45,0 105.68,-41.44 105.68,-73.33 0,-84.95 -118.43,-67.94 -118.43,-131.14zm296.83 160.91c-9.03,9.01 -23.88,20.7 -39.29,20.7 -10.09,0 -26.54,-9.03 -26.54,-33.44l0 -179.5 61.06 0 0 -14.36 -61.06 0 0 -62.12 -7.43 0c-10.61,32.38 -46.2,60.02 -75.4,66.93l0 9.56 42.45 0 0 89.21c0,29.73 -1.57,74.35 -1.57,98.25 0,42.98 27.62,49.4 41.44,49.4 23.88,0 40.9,-7.98 74.33,-34.55l-7.99 -10.08zm232.59 -117.35c11.71,-0.53 15.41,-3.71 15.41,-16.47 0,-46.19 -29.75,-81.79 -92.4,-81.79 -81.77,0 -122.15,67.97 -122.15,132.23 0,74.88 45.16,126.96 112.58,126.96 36.65,0 69.58,-10.64 93.99,-38.27l-7.43 -9.55c-15.41,15.91 -36.64,23.89 -59.99,23.89 -62.64,0 -91.35,-60 -91.35,-118.96 0,-5.83 0.56,-12.22 1.07,-18.04l150.28 0zm-86.02 -87.11c37.71,0 53.63,25.51 53.63,61.06l0 9.58c-7.97,0.53 -15.37,0.53 -32.37,1.07l-84.44 2.11c7.43,-44.07 30.79,-73.82 63.19,-73.82zm200.71 186.43l0 -210.31c0,-36.11 2.13,-72.22 3.19,-108.34 -28.67,3.18 -57.89,4.26 -87.09,4.26l0 7.4 31.33 10.1c3.73,1.09 7.43,3.19 8.49,5.86 1.59,3.71 3.73,22.84 3.73,45.13l0 245.9c0,26 -2.14,35.04 -18.57,40.35l-24.98 8.47 0 7.44c19.66,-2.13 40.89,-4.22 62.14,-4.22 21.75,0 44.07,2.09 65.31,4.22l0 -7.44 -26.03 -8.47c-16.46,-5.3 -17.52,-14.35 -17.52,-40.35zm165.16 40.35c-16.46,-5.3 -17.53,-14.36 -17.53,-40.35l0 -210.31c0,-36.11 2.13,-72.22 3.2,-108.32 -28.68,3.17 -57.89,4.24 -87.09,4.24l0 7.41 31.36 10.1c3.68,1.09 7.39,3.18 8.48,5.86 1.59,3.71 3.7,22.84 3.7,45.13l0 245.9c0,25.99 -2.11,35.04 -18.59,40.35l-24.95 8.47 0 7.43c19.65,-2.13 40.9,-4.21 62.13,-4.21 21.77,0 44.09,2.08 65.32,4.21l0 -7.43 -26.02 -8.47zm-165.16 -40.35l0 -210.31c0,-36.11 2.13,-72.22 3.19,-108.34 -28.67,3.18 -57.89,4.26 -87.09,4.26l0 7.4 31.33 10.1c3.73,1.09 7.43,3.19 8.49,5.86 1.59,3.71 3.73,22.84 3.73,45.13l0 245.9c0,26 -2.14,35.04 -18.57,40.35l-24.98 8.47 0 7.44c19.66,-2.13 40.89,-4.22 62.14,-4.22 21.75,0 44.07,2.09 65.31,4.22l0 -7.44 -26.03 -8.47c-16.46,-5.3 -17.52,-14.35 -17.52,-40.35zm165.16 40.35c-16.46,-5.3 -17.53,-14.36 -17.53,-40.35l0 -210.31c0,-36.11 2.13,-72.22 3.2,-108.32 -28.68,3.17 -57.89,4.24 -87.09,4.24l0 7.41 31.36 10.1c3.68,1.09 7.39,3.18 8.48,5.86 1.59,3.71 3.7,22.84 3.7,45.13l0 245.9c0,25.99 -2.11,35.04 -18.59,40.35l-24.95 8.47 0 7.43c19.65,-2.13 40.9,-4.21 62.13,-4.21 21.77,0 44.09,2.08 65.32,4.21l0 -7.43 -26.02 -8.47zm242.13 -26.01l0 -148.15c0,-49.41 -37.15,-63.75 -79.63,-63.75 -41.43,0 -72.25,21.26 -97.19,61.08l13.27 7.41c15.94,-23.87 41.43,-40.85 70.64,-40.85 30.27,0 53.61,11.14 53.61,50.41l0 28.16 -3.72 0c-87.6,0 -149.2,27.11 -149.2,87.62 0,45.68 31.31,65.35 70.1,65.35 38.76,0 61.57,-22.85 82.29,-50.45l1.08 0 -1.59 45.11c12.73,-2.13 26.02,-4.22 38.74,-4.22 13.29,0 27.07,2.09 40.89,4.22l0 -7.43c-33.44,-6.38 -39.29,-9.01 -39.29,-34.5zm-40.34 -47.29c0,42.51 -28.16,66.9 -62.13,66.9 -30.28,0 -45.15,-18.02 -45.15,-46.15 0,-57.39 64.25,-64.83 107.27,-64.83l0 44.09zm-1120.77 47.29l0 -148.15c0,-49.41 -37.18,-63.75 -79.68,-63.75 -41.4,0 -72.19,21.26 -97.16,61.08l13.27 7.41c15.93,-23.87 41.44,-40.85 70.62,-40.85 30.28,0 53.63,11.14 53.63,50.41l0 28.16 -3.7 0c-87.62,0 -149.23,27.11 -149.23,87.62 0,45.68 31.35,65.35 70.13,65.35 38.74,0 61.57,-22.85 82.27,-50.45l1.09 0 -1.59 45.11c12.74,-2.13 26.01,-4.22 38.74,-4.22 13.29,0 27.09,2.09 40.92,4.22l0 -7.43c-33.48,-6.38 -39.3,-9.01 -39.3,-34.5zm-40.35 -47.29c0,42.51 -28.16,66.9 -62.15,66.9 -30.26,0 -45.13,-18.02 -45.13,-46.15 0,-57.39 64.25,-64.83 107.28,-64.83l0 44.09zm1311.94 -109.92c0,-21.24 16.45,-40.36 43.54,-40.36 33.45,0 40.87,13.82 47.24,28.68l7.98 19.12 5.84 0 3.19 -55.78c-10.63,-2.62 -42.47,-6.37 -55.23,-6.37 -65.85,0 -92.92,40.9 -92.92,70.11 0,75.4 118.39,64.26 118.39,130.64 0,30.77 -25.47,44.09 -52.02,44.09 -14.86,0 -27.09,-4.8 -33.99,-10.65 -4.24,-3.16 -14.36,-22.82 -18.6,-41.95l-5.83 0 -3.18 62.15c13.78,1.59 28.67,4.79 48.32,4.79 84.42,0 105.64,-41.44 105.64,-73.33 0,-84.95 -118.38,-67.94 -118.38,-131.14z"/>
   <path class="fil1" d="M716.25 264.4c-56.8,49.69 -137.72,95.72 -217.8,142.67 -20.23,96.59 -43.97,188.95 -84.7,252.48 89.29,-43.68 176.64,-159.92 222.3,-259.62 44.46,10.08 88.82,37.16 115.71,61.86 7,-76.98 -11.3,-140.29 -35.51,-197.38zm-81.59 -264.4c-35.68,31.95 -60.09,85.77 -79.31,150.28 43.57,11.56 84.19,21.4 120.25,27.43 -27.98,-58.64 -50.59,-114.42 -40.94,-177.72z"/>
   <path class="fil2" d="M-0 66.79c167.33,22.47 313.47,111.52 416.01,235.05 -63.58,68.77 -149.31,185.82 -169.26,300.36 47.26,-73.01 148.78,-134.81 251.71,-195.13 18.46,-88.29 34.01,-180.1 56.88,-256.8 -172.16,-45.65 -390.45,-117.44 -555.34,-83.48z"/>
   <path class="fil3" d="M675.6 177.72c13.29,27.87 27.8,56.42 40.65,86.69 30.97,-27.11 54.81,-55.31 67.35,-85.32 -27.39,7.71 -64.35,5.96 -108.01,-1.37z"/>
   <path class="fil4" d="M675.6 177.72c-36.06,-6.04 -76.68,-15.87 -120.25,-27.44 -22.89,76.69 -38.43,168.51 -56.9,256.79 80.09,-46.95 161,-92.99 217.8,-142.67 -12.85,-30.27 -27.36,-58.81 -40.65,-86.69z"/>
  </g>
 </g>
</svg>
