<?xml version="1.0" encoding="UTF-8"?>
<!DOCTYPE svg PUBLIC "-//W3C//DTD SVG 1.1//EN" "http://www.w3.org/Graphics/SVG/1.1/DTD/svg11.dtd">
<!-- Creator: CorelDRAW 2019 (64-Bit) -->
<svg xmlns="http://www.w3.org/2000/svg" xml:space="preserve" width="3.13602in" height="1.24883in" version="1.1" style="shape-rendering:geometricPrecision; text-rendering:geometricPrecision; image-rendering:optimizeQuality; fill-rule:evenodd; clip-rule:evenodd"
viewBox="0 0 2945.56 1172.99"
 xmlns:xlink="http://www.w3.org/1999/xlink"
 xmlns:xodm="http://www.corel.com/coreldraw/odm/2003">
 <defs>
  <style type="text/css">
   <![CDATA[
    .fil3 {fill:#FEFEFE}
    .fil2 {fill:#373435}
    .fil1 {fill:#ED3237}
    .fil0 {fill:#ED3237;fill-rule:nonzero}
   ]]>
  </style>
 </defs>
 <g id="Layer_x0020_1">
  <metadata id="CorelCorpID_0Corel-Layer"/>
  <g id="_1713024837536">
   <path class="fil0" d="M998.98 516c0,-142.48 57.76,-271.49 151.14,-364.86 93.37,-93.37 222.38,-151.13 364.86,-151.13 142.48,0 271.49,57.76 364.86,151.13 93.38,93.38 151.14,222.38 151.14,364.86l-14.91 0c0,-138.36 -56.09,-263.63 -146.77,-354.32 -90.68,-90.68 -215.95,-146.77 -354.31,-146.77 -138.36,0 -263.64,56.09 -354.31,146.77 -90.68,90.68 -146.77,215.95 -146.77,354.32l-14.91 0z"/>
   <path class="fil1" d="M1514.98 516l-478.71 0c0,-264.39 214.33,-478.71 478.71,-478.71 264.39,0 478.71,214.33 478.71,478.71l-478.71 0z"/>
   <path class="fil1" d="M2430.44 538.38c-17.2,31.3 -50.51,52.64 -88.56,52.64l-1738.2 0c-38.05,0 -71.36,-21.34 -88.56,-52.64 17.2,15.96 50.5,26.85 88.56,26.85l1738.2 0c38.06,0 71.37,-10.89 88.56,-26.85z"/>
   <path class="fil1" d="M2176.36 1163.25c-17.2,-31.3 -50.5,-52.65 -88.56,-52.65l-1230.05 0c-38.06,0 -71.37,21.34 -88.56,52.65 17.2,-15.97 50.5,-26.85 88.56,-26.85l1230.05 0c38.06,0 71.36,10.88 88.56,26.85z"/>
   <path class="fil1" d="M2371.42 528.01c-7.22,13.15 -21.21,22.11 -37.19,22.11l-1722.91 0c-15.98,0 -29.97,-8.96 -37.19,-22.11 7.22,6.7 21.21,11.27 37.19,11.27l1722.91 0c15.98,0 29.97,-4.57 37.19,-11.27z"/>
   <path class="fil1" d="M2130.81 1172.99c-7.22,-13.15 -21.21,-22.11 -37.19,-22.11l-1241.67 0c-15.98,0 -29.97,8.96 -37.19,22.11 7.22,-6.7 21.21,-11.27 37.19,-11.27l1241.67 0c15.98,0 29.97,4.57 37.19,11.27z"/>
   <path class="fil2" d="M655.27 926.05l-35.9 0 0 -15.31 87.99 0 0 15.31 -35.61 0 0 98.62 -16.49 0 0 -98.62zm142.53 38.67c4.1,1.76 7.82,4.37 10.12,8.31 2.88,4.96 3.36,12.44 3.36,18.05 0,8.17 -1.17,17.88 -6.47,24.46 -5.75,7.14 -14.85,9.13 -23.61,9.13l-58.06 0 0 -113.93 54.99 0c7.75,0 16.7,1.28 22.6,6.79 5.98,5.59 7.33,14.63 7.33,22.41 0,4.99 -0.29,11.8 -2.39,16.4 -1.69,3.72 -4.5,6.42 -7.87,8.38zm-58.32 -38.96l0 32.9 32.79 0c4.44,0 11.95,-0.4 15.45,-3.57 3.39,-3.07 3.85,-9.9 3.85,-14.13 0,-3.51 -0.34,-9.47 -2.94,-12.18 -2.58,-2.68 -8.53,-3.02 -11.97,-3.02l-37.19 0zm0 47.77l0 35.98 31.76 0c4.47,0 14.78,-0.17 18.62,-2.73 4.36,-2.9 4.93,-10.43 4.93,-15.11 0,-3.72 -0.25,-12.34 -3.27,-15.09 -3.08,-2.79 -11.27,-3.05 -15.16,-3.05l-36.89 0zm108.61 -62.64l0 113.64 -16.63 0 0 -113.64 16.63 0zm40.62 98.47l55.39 0 0 15.31 -71.88 0 0 -113.93 16.49 0 0 98.62zm88.24 -98.47l0 113.64 -16.63 0 0 -113.64 16.63 0zm17.98 75.76l16.33 0 0 2.09c0,4.4 0.26,15.49 4.07,18.6 4.06,3.32 18.3,3.48 23.3,3.48 5.84,0 17.95,-0.34 22.68,-4.34 3.52,-2.97 3.95,-10.17 3.95,-14.38 0,-4.09 -0.48,-10.72 -4.13,-13.41 -4.67,-3.44 -16.67,-3.7 -22.21,-3.7 -9.57,0 -23.23,-0.79 -31.48,-6.21 -9.03,-5.93 -11.64,-16.25 -11.64,-26.51 0,-9.56 2.31,-19.32 10.37,-25.27 8.57,-6.33 22.17,-7.44 32.45,-7.44 8.97,0 21.97,0.7 29.72,5.76 8.85,5.78 11.2,16.26 11.2,26.22l0 3.7 -16.05 0 0 -2.09c0,-4.6 -0.55,-11.76 -4.44,-14.94 -4.26,-3.48 -15.22,-3.78 -20.44,-3.78 -5.57,0 -17.15,0.28 -21.85,3.7 -4.03,2.93 -4.78,8.8 -4.78,13.4 0,5.15 1.03,11.01 5.8,13.89 5.92,3.56 20.25,3.81 26.99,3.81 8.64,0 20.11,0.96 27.21,6.44 7.77,6 9.75,16.09 9.75,25.39 0,9.49 -1.57,21.28 -9.69,27.45 -8.33,6.33 -23.39,7.17 -33.43,7.17 -8.75,0 -23.66,-0.35 -31.49,-4.65 -9.84,-5.41 -12.21,-16.8 -12.21,-27.18l0 -7.22zm120.99 -75.76l0 113.64 -16.63 0 0 -113.64 16.63 0zm152.91 91.22l-52.5 0 -8.79 22.56 -17.6 0 41.53 -113.93 20.64 0 42.44 113.93 -17.51 0 -8.21 -22.56zm-5.47 -14.87l-21.34 -59.15 -21.22 59.15 42.56 0zm63.55 -76.49l0 79.02c0,4.66 0.39,14.18 4.64,17.29 4.68,3.43 18.62,3.63 24.19,3.63 5.58,0 19.67,-0.21 24.34,-3.63 4.24,-3.11 4.64,-12.61 4.64,-17.29l0 -79.02 16.34 0 0 79.31c0,10.8 -1.86,24.61 -11.99,30.8 -7.84,4.8 -24.51,5.14 -33.48,5.14 -8.99,0 -24.81,-0.39 -32.72,-5.13 -10.32,-6.19 -12.3,-19.83 -12.3,-30.81l0 -79.31 16.34 0zm125.24 15.31l-35.9 0 0 -15.31 88 0 0 15.31 -35.61 0 0 98.62 -16.49 0 0 -98.62zm63.77 41.73c0,-12.85 0.73,-36.51 9.51,-46.85 8.49,-10.02 26.74,-11.36 38.89,-11.36 12.11,0 30.12,1.38 38.53,11.45 8.69,10.4 9.43,33.91 9.43,46.76 0,12.85 -0.74,36.37 -9.51,46.7 -8.49,10.01 -26.61,11.36 -38.74,11.36 -12.15,0 -30.13,-1.39 -38.6,-11.44 -8.75,-10.38 -9.5,-33.75 -9.5,-46.63zm16.49 0c0,8.35 0.27,29.14 5.38,36.14 4.74,6.48 19.23,7.06 26.38,7.06 7.13,0 21.61,-0.57 26.29,-7.11 5.06,-7.06 5.32,-27.69 5.32,-36.08 0,-8.34 -0.26,-29.29 -5.32,-36.29 -4.69,-6.49 -19.2,-7.05 -26.3,-7.05 -6.98,0 -22,0.51 -26.58,6.96 -4.94,6.97 -5.18,28.12 -5.18,36.38zm161.04 33.65l37.57 -90.84 23.56 0 0 114.08 -16.34 0 0 -92.47 -37.98 92.47 -13.34 0 -38.29 -91.61 0 91.61 -16.34 0 0 -114.08 23.86 0 37.29 90.84zm103.07 -90.69l0 79.02c0,4.66 0.39,14.18 4.64,17.29 4.68,3.43 18.62,3.63 24.19,3.63 5.58,0 19.66,-0.21 24.34,-3.63 4.24,-3.11 4.64,-12.61 4.64,-17.29l0 -79.02 16.34 0 0 79.31c0,10.8 -1.87,24.61 -11.99,30.8 -7.85,4.8 -24.51,5.14 -33.48,5.14 -8.99,0 -24.81,-0.39 -32.73,-5.13 -10.32,-6.19 -12.3,-19.83 -12.3,-30.81l0 -79.31 16.34 0zm92.71 75.91l16.34 0 0 2.09c0,4.38 0.27,15.5 4.07,18.6 4.05,3.31 18.3,3.48 23.3,3.48 5.84,0 17.96,-0.35 22.68,-4.34 3.51,-2.96 3.95,-10.17 3.95,-14.38 0,-4.09 -0.49,-10.73 -4.13,-13.41 -4.66,-3.42 -16.67,-3.7 -22.21,-3.7 -9.57,0 -23.24,-0.8 -31.48,-6.21 -9.02,-5.92 -11.64,-16.25 -11.64,-26.51 0,-9.56 2.32,-19.33 10.37,-25.27 8.56,-6.32 22.17,-7.44 32.45,-7.44 8.97,0 21.99,0.71 29.72,5.76 8.85,5.77 11.2,16.28 11.2,26.22l0 3.7 -16.05 0 0 -2.09c0,-4.6 -0.56,-11.77 -4.43,-14.94 -4.26,-3.47 -15.23,-3.78 -20.44,-3.78 -5.57,0 -17.16,0.29 -21.85,3.7 -4.02,2.92 -4.78,8.8 -4.78,13.4 0,5.15 1.04,11.02 5.8,13.89 5.91,3.55 20.25,3.81 26.99,3.81 8.65,0 20.12,0.97 27.21,6.44 7.76,5.99 9.75,16.09 9.75,25.39 0,9.49 -1.58,21.29 -9.68,27.45 -8.32,6.32 -23.4,7.17 -33.43,7.17 -8.75,0 -23.67,-0.37 -31.48,-4.65 -9.84,-5.4 -12.22,-16.8 -12.22,-27.18l0 -7.22zm120.55 -27.69l55.83 0 0 14.87 -55.83 0 0 35.68 58.18 0 0 15.17 -74.51 0 0 -113.93 74.8 0 0 15.02 -58.47 0 0 33.19zm95.12 -48.21l0 79.02c0,4.66 0.39,14.18 4.64,17.29 4.68,3.43 18.62,3.63 24.19,3.63 5.58,0 19.66,-0.21 24.34,-3.63 4.24,-3.11 4.64,-12.61 4.64,-17.29l0 -79.02 16.34 0 0 79.31c0,10.8 -1.86,24.61 -11.98,30.8 -7.85,4.8 -24.51,5.14 -33.48,5.14 -8.99,0 -24.81,-0.39 -32.72,-5.13 -10.32,-6.19 -12.3,-19.83 -12.3,-30.81l0 -79.31 16.33 0zm160.16 90.69l37.58 -90.84 23.56 0 0 114.08 -16.34 0 0 -92.47 -37.98 92.47 -13.34 0 -38.28 -91.61 0 91.61 -16.34 0 0 -114.08 23.86 0 37.29 90.84z"/>
   <path class="fil2" d="M80.83 685.82c8.96,-9.59 22.76,-11.6 35.41,-11.6 29.25,0 45.41,13.36 45.41,43.45l0 111.98 -21.06 0 0 -106.97c0,-18.28 -2.27,-30.04 -23.15,-30.04 -20.57,0 -26.07,7.3 -26.08,27.28 0,0.92 0.03,1.84 0.03,2.76l0 58.49c0,32.94 -12.09,48.48 -45.97,48.48 -29.25,0 -45.41,-13.37 -45.41,-43.46l0 -68.52c0,-30.1 16.16,-43.45 45.41,-43.45 12.64,0 26.46,2 35.41,11.6zm-10.51 80.69l-0.06 0 0 -43.81c0,-0.92 0.03,-1.84 0.03,-2.76 0.02,-19.99 -5.52,-27.28 -26.08,-27.28 -20.88,0 -23.15,11.75 -23.15,30.04l0 58.49c0,18.29 2.27,30.03 23.15,30.03 22.36,0 26.11,-9.14 26.11,-30.03l0 -14.67zm170.4 -26.85c0.68,-4.32 1.09,-8.5 0.85,-12.94 -0.18,-3.37 -0.79,-7.91 -2.84,-10.71 -3.18,-4.33 -11.83,-7.3 -17.8,-8.97l0 15.84 -18.3 0 0 -48.66 18.3 0 0 13.79c11.36,2.88 26.44,7.96 33.79,17.15 6.16,7.7 7.36,18.87 7.14,28.39 -0.05,2.18 -0.17,4.36 -0.36,6.53 5.5,0.31 11.34,0.81 16.62,1.97 5.96,1.31 11.96,3.56 16.66,7.56 8.53,7.25 11.87,19.08 12.49,29.88 0.29,5.17 0.1,10.41 -0.44,15.55 -0.9,8.59 -3.18,20.75 -10.53,26.34 -7.99,6.07 -23.16,8.17 -33.02,8.17 -4.63,0 -9.27,-0.11 -13.89,0.09l-0.13 0.01 -8.79 -0.01c-4.62,-0.21 -9.26,-0.09 -13.89,-0.09 -9.86,0 -25.03,-2.1 -33.02,-8.17 -7.63,-5.79 -9.83,-18.72 -10.66,-27.61 -0.46,-4.91 -0.6,-9.98 -0.27,-14.91 0.71,-10.59 4.08,-22.13 12.44,-29.24 6.65,-5.65 16.03,-7.87 24.51,-8.83 6.93,-0.79 14.13,-1.05 21.13,-1.13zm-36.83 55.03c0.67,3.89 2.13,9.16 5.64,11.49 4.01,2.66 13.2,3.58 17.89,3.95 11.55,0.92 23.47,0.92 35.02,0 4.69,-0.37 13.88,-1.29 17.89,-3.95 3.56,-2.36 5.01,-7.74 5.67,-11.69 0.78,-4.65 1.16,-8.9 0.94,-13.62 -0.22,-4.6 -1.03,-14.84 -5.09,-17.95 -3.02,-2.31 -10.62,-3.2 -14.3,-3.55 -3.93,-0.37 -8.63,-0.23 -12.61,-0.29l-10 -0.14 -10.03 0.14c-3.99,0.06 -8.69,-0.08 -12.62,0.29 -3.68,0.34 -11.27,1.23 -14.3,3.55 -3.88,2.97 -4.76,12.41 -5.03,16.82 -0.31,5.27 0.02,9.76 0.92,14.95zm226.02 34.97l0 -106.96c0,-6.51 -0.45,-20.76 -6.38,-25.13 -6.43,-4.73 -27.72,-4.91 -35.42,-4.91 -7.34,0 -26.68,0.22 -32.71,4.98 -5.69,4.49 -6.13,18.58 -6.13,25.06l0 106.96 -21.06 0 0 -111.98c0,-12.35 2.35,-26.88 13.25,-34.47 11.63,-8.1 34.19,-8.99 47.85,-8.99 13.46,0 38.27,0.71 49.4,9.39 10.74,8.37 12.27,26.59 12.27,39.09l0 106.96 -21.06 0zm426.83 -57.23l21 0 0 7.94c0,11.67 -0.85,33.2 -11.25,41.01 -10.67,8.02 -40.87,8.28 -53.68,8.28 -14.88,0 -39.74,-1.41 -49.53,-14.68 -10.13,-13.72 -10.59,-49.94 -10.59,-66.31 0,-34.38 -0.43,-48.98 0.44,-72.43l0.07 -2.01 21.4 0 -0.07 2.16c-0.19,5.6 -0.1,43.53 -0.1,49.29 0,13.16 -0.27,63.79 5.19,75.15 4.56,9.49 26.2,10 34.85,10 7.8,0 29.41,-0.15 36.08,-4.52 6.11,-4 6.63,-16.19 6.47,-22.59l-0.27 -11.27zm-363.89 -79.79c0,30.37 0,60.73 0,91.1 0,4.01 -0.07,7.04 0.87,10.99 0.81,3.38 2.18,8.21 5.04,10.47 7.37,5.82 33.33,6.02 42.34,6.02 3.55,0 7.1,-0.09 10.65,-0.3l2.21 -0.13 0 18.3 -1.97 0.11c-5.53,0.32 -11.09,0.45 -16.63,0.45 -14.49,0 -41.36,-0.9 -52.37,-11.95 -6.94,-6.96 -10.12,-14.18 -10.91,-24.05 -0.2,-2.48 -0.3,-4.96 -0.3,-7.45l0 -111.99 70.65 0c11.59,0 27.61,1.43 36.08,10.42 8.55,9.06 9.78,26.14 9.78,37.91 0,8.33 -0.7,17.62 -3.54,25.52l-0.5 1.38 -27.16 0 4.86 -3.74c5.45,-4.2 6.02,-15.62 6.02,-21.81 0,-5.99 -0.23,-21.26 -4.27,-26.13 -3.74,-4.5 -15.8,-4.91 -21.09,-5.01l-6.45 -0.12 -43.32 0zm217.97 137.01l0 -106.96c0,-6.51 -0.45,-20.76 -6.38,-25.13 -6.43,-4.73 -27.72,-4.91 -35.43,-4.91 -7.34,0 -26.67,0.22 -32.71,4.98 -5.69,4.49 -6.13,18.58 -6.13,25.06l0 106.96 -21.06 0 0 -111.98c0,-12.35 2.35,-26.88 13.25,-34.47 11.63,-8.11 34.19,-8.99 47.85,-8.99 13.46,0 38.27,0.71 49.4,9.39 10.74,8.37 12.27,26.59 12.27,39.09l0 106.96 -21.06 0zm435.37 -57.23l21 0 0 7.94c0,11.67 -0.85,33.2 -11.25,41.01 -10.67,8.02 -40.87,8.28 -53.68,8.28 -14.88,0 -39.74,-1.41 -49.53,-14.68 -10.13,-13.72 -10.59,-49.94 -10.59,-66.31 0,-34.38 -0.43,-48.98 0.44,-72.43l0.08 -2.01 21.39 0 -0.07 2.16c-0.19,5.6 -0.1,43.5 -0.1,49.29 0,13.16 -0.27,63.79 5.19,75.15 4.56,9.49 26.2,10 34.85,10 7.8,0 29.41,-0.15 36.08,-4.52 6.11,-4 6.63,-16.19 6.47,-22.59l-0.27 -11.27zm-145.93 57.23l0 -106.96c0,-6.51 -0.45,-20.76 -6.38,-25.13 -6.43,-4.73 -27.72,-4.91 -35.43,-4.91 -7.34,0 -26.67,0.22 -32.71,4.98 -5.69,4.49 -6.13,18.58 -6.13,25.06l0 106.96 -21.06 0 0 -111.98c0,-12.35 2.35,-26.88 13.25,-34.47 11.63,-8.1 34.19,-8.99 47.85,-8.99 13.46,0 38.26,0.71 49.4,9.39 10.74,8.37 12.27,26.59 12.27,39.09l0 106.96 -21.06 0zm280.99 -153.43c0.17,4.37 0.88,14.1 5.02,16.84 5.6,3.72 28.09,4.8 34.82,5.1 11.62,0.53 36.18,1.97 45.68,9.41 16.2,12.68 11.48,66.58 9.88,85.6 -0.8,9.51 -3.21,21.75 -11.35,27.85 -10.81,8.11 -36.54,8.63 -49.48,8.63 -12.42,0 -34.05,-0.74 -44.34,-8.69 -9.8,-7.57 -11.3,-23.52 -11.49,-34.92l-0.14 -8.89 20.98 0 0 5.87c0,5.77 0.35,19.53 5.37,23.58 5.3,4.27 23.68,4.45 30.18,4.45 7.13,0 28.57,-0.14 34.48,-4.5 4.26,-3.15 5.31,-12.57 5.63,-17.36 0.88,-12.74 5.2,-56.02 -3.73,-65.04 -3.69,-3.72 -12.74,-4.62 -17.65,-4.87l-17.53 -0.87 -16.66 -0.91c-25.75,-1.4 -39.78,-15.25 -40.06,-41.19l-0.02 -2.11 20.33 0 0.08 2.01zm224.35 74.18c12.94,6.48 17.26,19.58 17.26,34.22 0,11.39 -1.54,26.04 -9.86,34.68 -8.28,8.58 -22.42,10.24 -33.71,10.24 -12.42,0 -24.76,0.4 -37.17,-0.44 -8.79,-0.6 -24.41,-2.07 -31.68,-7.54 -10.27,-7.72 -11.12,-28.97 -11.12,-40.5l0 -7.87 20.79 0 -0.27 11.16c-0.16,6.3 0.34,18.33 6.37,22.28 3.96,2.6 13.04,3.49 17.66,3.86 9.98,0.78 20.06,0.64 30.07,0.6 6,-0.02 18.76,-0.36 23.62,-4.46 4.66,-3.92 5.17,-13.84 5.17,-19.39 0,-5.35 -0.3,-19.13 -5.12,-22.78 -5.25,-3.98 -24.77,-4.12 -31.14,-4.12l-10.67 0 0 -2.09c0,-4.66 0,-9.31 0,-13.97l0 -2.09 7.68 0c6.36,0 25.89,-0.14 31.14,-4.12 4.83,-3.66 5.12,-17.44 5.12,-22.79 0,-5.54 -0.51,-15.48 -5.17,-19.39 -4.86,-4.09 -17.62,-4.43 -23.63,-4.45 -8.78,-0.04 -17.27,-0.09 -26.05,0.6 -4.63,0.36 -13.69,1.26 -17.65,3.86 -6.03,3.95 -6.53,15.98 -6.38,22.28l0.27 11.16 -20.79 0 0 -7.87c0,-11.54 0.85,-32.79 11.11,-40.51 7.27,-5.47 22.89,-6.94 31.68,-7.54 11.18,-0.76 21.99,-0.44 33.15,-0.44 11.29,0 25.43,1.66 33.71,10.24 8.32,8.63 9.86,23.29 9.86,34.68 0,13.04 -3.41,25.45 -14.27,32.5zm121.28 -38.45l0 32.46 -21.06 0 0 -70.2 21.06 0 0 19.46c13.94,0.3 37.35,1.6 48.23,9.43 6.56,4.72 12.16,10.9 13.96,18.99 2.03,9.12 2.03,22.48 2.22,31.87 0.22,11.36 -0.25,21.4 -1.63,32.67 -1.08,8.8 -3.29,21.57 -8.83,28.79 -8.65,11.27 -28.74,13.46 -41.79,13.98 -2.57,0.1 -5.15,0.15 -7.72,0.15 -11.29,0 -22.6,0.27 -33.89,-0.1 -13.34,-0.44 -34.28,-2.48 -43.14,-14.03 -10.12,-13.2 -10.61,-47.98 -10.61,-63.87 0,-13.23 -0.58,-36.19 2.37,-48.95 1.87,-8.08 7.38,-14.24 13.96,-18.97 4.64,-3.34 11.03,-5.2 16.55,-6.37l2.52 -0.54 0 18.54 -1.48 0.45c-1.64,0.5 -3.62,1.22 -5,2.25 -6.82,5.09 -7.18,23.96 -7.18,31.46 0,12.58 -0.23,61.44 5.17,72.24 3.78,7.57 19.39,8.99 26.6,9.38 13.29,0.73 27.39,0.72 40.68,0 7.22,-0.39 22.88,-1.8 26.67,-9.38 1.94,-3.88 2.8,-11.84 3.24,-16.14 1.34,-13.06 1.93,-23.18 1.93,-36.63 0,-7.5 -0.36,-26.37 -7.17,-31.46 -6.11,-4.56 -26.28,-5.32 -35.65,-5.49zm363.2 21.84l0 -3.02c0,-7.38 0.31,-14.18 -1.39,-21.46 -0.77,-3.29 -2.14,-7.65 -4.66,-10.05 -6.39,-6.12 -26.95,-6.45 -35.18,-6.45 -8.53,0 -29.92,0.05 -37.62,3.81l-3.01 1.47 0 -20.99 1.7 -0.33c11.5,-2.21 24.28,-2.56 35.97,-2.56 14.99,0 40.11,1.11 52.01,11.61 7.4,6.53 10.51,17.31 11.94,26.73 1.14,7.5 1.29,14.87 1.29,22.44l0 94.66 -70.66 0c-11.63,0 -27.62,-1.46 -36.08,-10.54 -8.55,-9.17 -9.77,-26.46 -9.77,-38.32 0,-11.67 1.35,-28.17 10.21,-36.87 8.76,-8.6 25.92,-9.81 37.49,-10.02l6.62 -0.12 41.14 0zm0 18.59l-37.94 0c-7.38,0 -24.77,0.28 -30.97,4.83 -5.65,4.14 -6.22,15.97 -6.22,22.23 0,6.06 0.22,21.5 4.28,26.45 3.74,4.56 15.76,4.97 21.08,5.06l6.45 0.11 43.33 0 0 -58.67zm114.65 -36.35l0.02 0 -0.14 2.22c-0.08,1.31 -0.17,2.61 -0.16,3.91 0,0.92 0.04,1.84 0.04,2.76l0 22.52 -21.19 0 0 -22.52c0,-0.92 0.04,-1.83 0.04,-2.76 0.01,-6.94 -0.67,-16.06 -5.72,-21.39 -5.73,-6.08 -16.87,-5.71 -24.57,-7.48 -8.84,-2.04 -16.02,-7.04 -20.79,-14.74l-1.97 -3.19 28.32 0 0.33 0.12c0.5,0.17 1.01,0.33 1.52,0.46 10.73,2.89 17.38,0.58 27.83,7.4l0.95 0.62 0 0.06c1.66,1.19 3.19,2.54 4.61,4.02 0,0 0,0.01 0.01,0.01 4.53,-4.86 10.32,-7.82 16.83,-9.53 12.49,-3.29 30.26,-2.55 41.03,5.2 6.58,4.73 12.09,10.9 13.96,18.98 2.95,12.77 2.37,35.71 2.37,48.95 0,15.9 -0.49,50.68 -10.62,63.87 -9.84,12.84 -34.87,14.13 -49.51,14.13 -12.71,0 -42.96,-0.23 -53.65,-7.96 -10.36,-7.49 -11.27,-28.08 -11.27,-39.53l0 -7.73 21.01 0 -0.28 10.93c-0.16,6.25 0.37,17.83 6.43,21.64 6.71,4.22 28.33,4.35 36.12,4.35 8.42,0 30.3,-0.45 34.86,-9.59 4.97,-9.95 5.1,-46.84 5.1,-58.09l0 -19.25c-0.04,-6.13 -0.54,-13.66 -2.78,-19.43 -1.25,-3.22 -3.4,-5.6 -6.4,-7.28 -1.36,-0.76 -2.82,-1.31 -4.32,-1.71 -7,-1.88 -15.82,-1.12 -21.51,3.72 -4.59,3.89 -5.98,10.45 -6.51,16.33zm197.42 20.85l11.84 0.09c11.56,0.09 28.62,1.28 37.49,9.75 6.08,5.82 8.49,15.02 9.5,23.1 0.89,7.19 1.1,13.99 0.65,21.22 -0.6,9.62 -2.54,24.36 -10.99,30.55 -10.68,7.81 -40.92,8.06 -53.66,8.06 -14.71,0 -39.69,-1.32 -49.52,-14.3 -8.07,-10.65 -9.7,-34.45 -10.25,-47.31 -0.18,-4.3 -0.16,-8.73 -0.18,-13.08l-0.45 -0.01c-11.47,-0.19 -28.67,-1.36 -37.47,-9.76 -13.13,-12.55 -14.44,-53.08 0.84,-64.26 10.68,-7.82 40.92,-8.06 53.66,-8.06 17.39,0 27.34,0.29 37.95,14.29 10.19,13.44 10.51,33.32 10.59,49.72zm-43.03 18.18c0.01,3.78 -0.01,7.63 0.14,11.36 0.33,7.65 1.15,28.24 4.5,35.04 4.57,9.25 26.37,9.72 34.86,9.72 7.78,0 29.42,-0.13 36.1,-4.4 4.86,-3.1 5.98,-11.79 6.29,-16.97 0.35,-5.71 0.57,-13.12 -0.38,-18.73 -0.65,-3.89 -2.07,-8.89 -5.45,-11.3 -6.21,-4.43 -23.65,-4.7 -30.99,-4.7l-45.08 -0.01zm21.02 -18.21c-0.19,-10.71 -0.35,-26.59 -4.89,-35.79 -0.86,-1.75 -1.76,-3.88 -2.99,-5.39 -3.75,-4.59 -15.09,-4.33 -20.31,-4.33 -7.78,0 -29.41,0.14 -36.1,4.4 -8.36,5.34 -8.7,30.53 -0.46,36.41 6.21,4.44 23.64,4.7 30.99,4.7l33.76 0zm123.55 37.57l-0.28 10.93c-0.16,6.25 0.37,17.82 6.43,21.64 6.7,4.22 28.33,4.35 36.11,4.35 8.42,0 30.3,-0.45 34.87,-9.59 5.4,-10.8 5.17,-59.66 5.17,-72.23 0,-7.5 -0.36,-26.37 -7.17,-31.46 -7.23,-5.4 -34.19,-5.55 -42.94,-5.55 -6.16,0 -20.21,0.3 -25.14,4.6 -4.54,3.95 -4.99,16 -5.13,21.49l-0.16 6.6 -20.96 0 0.17 -6.19c0.31,-11.19 1.62,-27.52 10.62,-35.5 9.37,-8.3 28.07,-9.3 39.92,-9.3 14.7,0 43.77,0.57 56.19,9.51 6.58,4.73 12.09,10.9 13.96,18.98 2.95,12.76 2.37,35.72 2.37,48.95 0,15.9 -0.49,50.68 -10.61,63.87 -9.84,12.84 -34.87,14.13 -49.51,14.13 -12.71,0 -42.96,-0.23 -53.65,-7.96 -10.37,-7.49 -11.27,-28.08 -11.27,-39.53l0 -7.73 21 0zm186.77 -86.38c4.53,-4.86 10.33,-7.82 16.84,-9.53 12.49,-3.29 30.26,-2.55 41.02,5.2 6.58,4.73 12.09,10.9 13.96,18.98 2.96,12.77 2.37,35.71 2.37,48.95 0,15.9 -0.49,50.68 -10.61,63.87 -9.85,12.84 -34.87,14.13 -49.51,14.13 -12.71,0 -42.97,-0.23 -53.65,-7.96 -10.37,-7.49 -11.28,-28.08 -11.28,-39.53l0 -7.73 21.01 0 -0.28 10.93c-0.16,6.25 0.37,17.82 6.43,21.64 6.7,4.22 28.33,4.35 36.11,4.35 8.42,0 30.3,-0.45 34.86,-9.59 4.97,-9.95 5.1,-46.84 5.1,-58.09l-0 -19.25c-0.04,-6.13 -0.54,-13.66 -2.78,-19.43 -1.25,-3.22 -3.4,-5.59 -6.41,-7.28 -1.35,-0.76 -2.81,-1.31 -4.31,-1.71 -7,-1.88 -15.82,-1.12 -21.51,3.72 -4.59,3.89 -5.98,10.45 -6.51,16.33l0.01 0 -0.13 2.21c-0.07,1.31 -0.16,2.61 -0.16,3.92 0,0.92 0.03,1.84 0.03,2.76l0 22.52 -21.18 0 0 -22.52c0,-0.92 0.03,-1.84 0.04,-2.76 0.02,-6.96 -0.67,-16.05 -5.72,-21.39 -5.74,-6.08 -16.88,-5.71 -24.57,-7.48 -8.84,-2.04 -16.02,-7.04 -20.79,-14.74l-1.97 -3.19 28.32 0 0.33 0.12c0.5,0.17 1.01,0.33 1.52,0.46 10.73,2.89 17.38,0.58 27.83,7.4l0.95 0.62 0 0.06c1.66,1.19 3.19,2.54 4.61,4.02 0,0 0,0.01 0.01,0.01zm190.46 45.74l0 -3.02c0,-7.38 0.31,-14.18 -1.39,-21.46 -0.77,-3.28 -2.14,-7.65 -4.65,-10.05 -6.39,-6.12 -26.96,-6.45 -35.18,-6.45 -8.54,0 -29.93,0.05 -37.62,3.81l-3 1.47 0 -20.99 1.69 -0.33c11.5,-2.21 24.28,-2.56 35.97,-2.56 14.99,0 40.11,1.11 52.01,11.61 7.4,6.53 10.51,17.31 11.94,26.73 1.14,7.5 1.29,14.87 1.29,22.44l0 94.66 -70.66 0c-11.63,0 -27.62,-1.46 -36.08,-10.54 -8.55,-9.17 -9.77,-26.46 -9.77,-38.32 0,-11.67 1.34,-28.17 10.21,-36.87 8.76,-8.6 25.92,-9.81 37.49,-10.02l6.62 -0.12 41.14 0zm0 18.59l-37.95 0c-7.38,0 -24.76,0.28 -30.97,4.83 -5.65,4.14 -6.22,15.97 -6.22,22.23 0,6.06 0.22,21.51 4.27,26.45 3.75,4.56 15.76,4.97 21.08,5.06l6.45 0.11 43.33 0 0 -58.67zm143.58 77.27l0 -106.96c0,-6.51 -0.45,-20.76 -6.38,-25.13 -6.42,-4.73 -27.72,-4.91 -35.42,-4.91 -7.34,0 -26.67,0.22 -32.71,4.98 -5.69,4.49 -6.13,18.58 -6.13,25.06l0 106.96 -21.06 0 0 -111.98c0,-12.35 2.35,-26.88 13.25,-34.47 11.63,-8.1 34.19,-8.99 47.85,-8.99 13.46,0 38.27,0.71 49.4,9.39 10.74,8.37 12.27,26.59 12.27,39.09l0 106.96 -21.06 0zm-1131.5 -143.84c8.95,-9.59 22.76,-11.6 35.4,-11.6 29.25,0 45.41,13.36 45.41,43.45l0 111.98 -21.06 0 0 -106.97c0,-18.28 -2.28,-30.04 -23.15,-30.04 -19.81,0 -26.05,6.63 -26.05,26.21l0 60.65 -21.12 0 0 -56.83c0,-0.92 0.03,-1.84 0.04,-2.76 0.05,-18.89 -4.75,-27.26 -24.62,-27.26 -20.83,0.01 -24.36,9.53 -24.61,28.75l-0.01 1.27 0 106.97 -21.06 0 0 -111.98c0,-11.42 2.36,-23.15 10.42,-31.72 6.8,-7.23 16.1,-10.17 25.73,-11.24 3.07,-0.34 6.16,-0.49 9.26,-0.49l0.56 0c3.1,0 6.16,0.31 9.24,0.5l0.19 0.01 0.64 0.08c9.27,1.14 18.18,4.09 24.77,11 0,0 0.01,0.01 0.01,0.01z"/>
   <path class="fil3" d="M1177.22 301.85c-18.9,4.97 -19.83,29.92 -18.27,57.63 0.44,7.74 1.79,6.17 -4.65,10.11 -8.84,5.41 -16.86,10.82 -14.98,16.23 24.65,13.71 125.51,33.13 190.69,50.9 5.32,2.97 5.25,9.37 -0.55,8.92 -24.6,-3.48 -52.16,-9.19 -80.78,-15.81 -38.66,48.84 -103.57,10.62 -96.59,-23.59 -8.83,-2.16 -17.57,-4.27 -26.15,-6.29 -10.61,-5.35 -20.75,-11.16 -13.84,-25.26 2.66,-6.82 8.15,-9.95 13.29,-8.09 10.4,-2.92 14.23,-5.58 18.39,-9.75 0.37,-12.38 1.09,-24.77 5.2,-37.16 4.42,-11.45 11.42,-19.03 20.8,-23.03 6.8,-0.67 11.79,4.33 7.43,5.2zm94.58 12.6c-3.46,24.2 -8.11,55.87 -11.94,81.48 -3.41,7.77 -6.53,10.06 -6.74,0.06 3.83,-23.5 8.53,-61.97 11.6,-85.24l7.08 3.7zm19.51 1.18c20.59,-0.35 21.33,-20.58 11.46,-32.03 -10.76,-12.5 -35.35,-15.38 -46.09,9.3 -2.39,5.5 -3.77,12.31 -4.05,20.09 -3.69,29.29 -4.92,51.2 -8.61,80.48 -4.89,7.77 -10.04,10.06 -11.76,0.05 4.84,-32.52 5.17,-64.21 10.02,-96.73 6.25,-23.3 26.51,-34.2 45.35,-31.86 15.88,1.97 31.17,17.16 28.66,33.71 -3.96,13.3 -8.86,22.65 -18.29,25.01 -12.19,0.47 -12.11,-8.88 -14.45,-12.79 3,-0.46 4.77,5.23 7.77,4.77zm490.01 51.71c15.75,-5.77 28.67,-0.72 26,23.4 -9.97,25.61 -26.12,18.94 -44.38,1.29 -4.05,22.12 22.37,33.28 41.58,23.48 16.83,-8.58 27.8,-26.91 19.61,-42.88 -4.07,-7.92 -13.32,-12.47 -22.82,-15.96 -10.8,-0.96 -21.16,3.15 -19.99,10.67zm-589.36 -74.73c7.95,-11.59 19.37,-13.79 29.65,5.48 6,23.76 -8.47,26.24 -29.9,21.49 8.32,18.41 32.11,14.54 40.41,-1.66 7.27,-14.2 5.62,-32.98 -8.03,-41.13 -6.78,-4.05 -15.44,-3.17 -23.73,-1.39 -7.91,4.27 -12.98,12.14 -8.4,17.22zm122.74 18.32c14.5,-5.77 26.38,-0.71 23.93,23.4 -9.18,25.61 -24.05,18.94 -40.85,1.3 -3.73,22.12 20.59,33.28 38.28,23.48 15.49,-8.59 25.59,-26.92 18.05,-42.88 -3.74,-7.93 -12.27,-12.48 -21.01,-15.96 -9.94,-0.96 -19.48,3.15 -18.4,10.66zm87.24 -98.79c-4.88,4.63 -10.37,6.58 -11.33,1.41 13.85,-15.16 26.81,-30.32 45.48,-45.48 4.96,-6.25 13.65,-8.52 24.75,-8.63 51.81,0.96 103.62,1.92 155.43,2.88 -1.57,3.35 -5.96,6.23 -13.24,8.63 -43.37,0 -86.73,0 -130.1,0 -11.15,0.46 -21.97,-0.41 -36.27,12.67 -13.24,12.28 -21.48,16.25 -34.72,28.53zm342.7 5.43c-8.29,-6.26 8.14,-10.65 20.14,-2.33 5.76,3.99 9.39,9.59 8.65,18.45 0.38,10.75 -6.91,16.89 -21.88,18.42 -55.26,0.96 -110.52,1.92 -165.79,2.88 -11.15,2.06 -11.69,-18.16 -7.48,-29.93 5.95,-14.58 5.56,-10.75 11.51,-25.33 14.39,-21.87 29.74,-34.73 56.41,-35.12 36.88,-3.27 78.42,-6.27 112.24,10.83 52.51,26.55 85.24,73.57 104.78,134.23 25.92,40.6 5.85,113.5 -34.54,75.41 0.77,-3.26 -1.34,-4.8 -0.58,-8.06 7.83,7.05 17.11,10.81 31.08,4.03 10.89,-26.43 -3.27,-57.55 -17.27,-88.65 -31.38,-57.23 -68.77,-96.09 -118.58,-113.4 -30.89,-2.5 -64.09,-2.11 -94.98,-0.58 -18.35,7.33 -35.37,34.89 -41.45,57.57 -1.48,8.58 0.18,9.41 8.06,8.63 48.74,-0.58 97.48,-1.15 146.22,-1.73 5.5,-0.61 10.39,-1.45 13.76,-2.85 6.43,-2.67 13.21,-20.96 0.05,-23.05 -2.69,-1.15 -7.67,1.73 -10.36,0.57zm-426.56 36.27c38,-3.07 65.62,-6.72 103.62,-9.79 43.91,-1.97 97.09,5 139.31,9.78 2.68,-3.45 7.1,-4.6 9.78,-8.06 -39.53,-5.56 -81.93,-14.58 -121.46,-20.15 -48.41,-3.12 -80.9,11.15 -127.8,22.45 0,1.92 -3.45,3.84 -3.45,5.76zm35.52 116.2c36.92,-53.3 64.02,-98.38 145.34,-83.65 31.64,5.73 42.51,19.58 60.89,30.09 55.65,43.89 111.42,84.58 169.46,63.95 17.91,-12.5 17.87,-30.68 24.84,-48.49 3.82,-9.76 8.54,-18.91 21.7,-25.58 18.82,-8.73 35.3,-7.48 51.89,13.61 4.68,5.95 18.67,27.41 7.89,40.48 0.94,-33.16 -43.64,-65.11 -63.15,-32.77 -24.74,38.66 -6.22,50.3 -46.92,64.74 -24.91,8.84 -52.32,7.47 -85.94,-7.84 -47.76,-21.74 -92.85,-65.71 -138.74,-83.55 -19.77,-4.91 -39.87,-3.93 -56.32,0.9 -30.78,9.05 -55.48,40.4 -77.69,61.71 -6.93,9.24 -10.31,8.27 -13.24,6.4zm-108.84 58.87c-27.48,-6.42 -55.86,-13.61 -83.5,-20.43 0.19,0.35 0.38,0.75 0.57,1.2 9,16.28 11.76,26.53 43.7,33.21 20.59,0.58 27.77,-6.99 33.8,-11.65l5.44 -2.33zm177.4 24.84c17.46,21.08 53,16.02 71.62,0.5 28.13,-23.44 32.66,-48.86 22.19,-71.92 -1.62,-3.56 -2.05,-8.99 -0.53,-13.62 -13.96,-11.08 -32.47,-14 -61.16,0.89 -39.08,21.03 -61.43,109.89 -106.15,65.64 -3.22,-6.45 -1.9,-8.61 6.05,-5.12 9.07,12.49 26.03,3.15 46.35,-21.19 14.12,-16.91 27.21,-45.64 51.42,-60.28 88.33,-48.02 97.22,56.32 130.82,74.02 51.4,4.61 105.95,1.15 168.53,-22.81 4.98,-3.02 2.12,-7.36 -0.47,-11.64 2.64,0.47 5.28,0.93 7.91,1.39 5.72,6.82 3.93,10.42 0.93,13.5 -49.34,29.81 -108.77,29.39 -165.27,37.71 -10.24,0.16 -9.31,-0.16 -19.55,0 -20.48,-0.62 -31.66,-34.29 -41.9,-51.68 -3.22,-4.93 -6.6,-9.56 -10.3,-13.62 0.05,1.38 0.26,2.2 0.76,1.99 12.99,31.92 17.07,55.75 -14.07,83.18 -19.62,16.54 -35.27,19.4 -56.84,16.46 -28.33,-5.25 -36.96,-19.5 -36.58,-21.59 -0.68,-3.94 0.82,-4.71 6.22,-1.83z"/>
  </g>
 </g>
</svg>
