<?xml version="1.0" encoding="UTF-8"?>
<!DOCTYPE svg PUBLIC "-//W3C//DTD SVG 1.1//EN" "http://www.w3.org/Graphics/SVG/1.1/DTD/svg11.dtd">
<!-- Creator: CorelDRAW 2019 (64-Bit) -->
<svg xmlns="http://www.w3.org/2000/svg" xml:space="preserve" width="2.14469in" height="1.29863in" version="1.1" style="shape-rendering:geometricPrecision; text-rendering:geometricPrecision; image-rendering:optimizeQuality; fill-rule:evenodd; clip-rule:evenodd"
viewBox="0 0 2678.37 1621.77"
 xmlns:xlink="http://www.w3.org/1999/xlink"
 xmlns:xodm="http://www.corel.com/coreldraw/odm/2003">
 <defs>
  <style type="text/css">
   <![CDATA[
    .fil0 {fill:#96989A}
    .fil2 {fill:#A53692}
    .fil1 {fill:#A53692;fill-rule:nonzero}
   ]]>
  </style>
 </defs>
 <g id="Layer_x0020_1">
  <metadata id="CorelCorpID_0Corel-Layer"/>
  <g id="_1711889987008">
   <path class="fil0" d="M1338.14 194.31c243.95,0 441.7,197.75 441.7,441.7 0,243.94 -197.75,441.7 -441.7,441.7 -112.43,0 -215.04,-42.04 -293.01,-111.22l35.36 0c68.92,60.09 159.04,96.49 257.65,96.49 216.65,0 392.27,-175.63 392.27,-392.27 0,-216.64 -175.62,-392.27 -392.27,-392.27 -216.64,0 -392.27,175.62 -392.27,392.27 0,78.4 23.01,151.42 62.63,212.7l-36.32 0c-47.81,-70.58 -75.74,-155.73 -75.74,-247.4 0,-243.94 197.75,-441.7 441.7,-441.7zm0 -21.84l-26.28 0.42 -52.99 -39.42 -16.65 -62.14 95.91 0 95.92 0 -16.65 62.14 -52.99 39.42 -26.28 -0.42zm0 -172.47l0 0c6.08,0 11.04,4.97 11.04,11.04l0 31.03c0,6.08 -4.97,11.04 -11.04,11.04l0 0c-6.07,0 -11.04,-4.97 -11.04,-11.04l0 -31.03c0,-6.07 4.97,-11.04 11.04,-11.04zm-139.35 0l0 0c6.07,0 15.71,4.97 21.43,11.04l29.2 31.03c5.71,6.08 5.42,11.04 -0.66,11.04l0 0c-6.07,0 -15.71,-4.97 -21.43,-11.04l-29.19 -31.03c-5.71,-6.07 -5.42,-11.04 0.65,-11.04zm276.61 0l0 0c-6.08,0 -15.72,4.97 -21.43,11.04l-29.19 31.03c-5.71,6.08 -5.42,11.04 0.65,11.04l0 0c6.07,0 15.71,-4.97 21.43,-11.04l29.19 -31.03c5.71,-6.07 5.42,-11.04 -0.65,-11.04z"/>
   <path class="fil1" d="M2634.77 1554.82c-12.4,-13.57 -39.97,-53.01 -39.97,-53.01 -6.2,-8.76 -16.09,-19.34 -22.93,-22.55 30.78,0 54.4,-29.98 54.4,-61.08 0,-37.46 -23.78,-60.38 -62.58,-60.38l-60.86 0 0 0 -25.55 0 0 3.21 4.06 0c11.22,0 20.36,8.98 20.58,20.2l0 0 0 177.85c-0.32,11.11 -9.35,19.98 -20.52,19.98l-4.06 0 -0.05 3.21 70 0 -0.05 -3.21 -4.06 0c-11.22,0 -20.31,-8.98 -20.52,-20.14l0 0 0 -191.1c4.17,0.16 23.57,-0.64 39.86,0.27 23.84,1.28 38.95,19.88 39.7,48.95 0.22,7.05 -0.59,14.75 -2.03,19.23 -9.08,28.96 -33.34,32.92 -49.96,33.34 -9.62,0.27 -16.88,0.11 -16.88,0.11l0 2.89c11.65,0 21,11.06 29.39,21.59 2.46,3.1 38.53,55.63 42.16,60.01 10.04,12.02 26.08,28.05 55.9,28.05l17.58 0 0 -3.21c-18.81,-0.16 -30.67,-10.15 -43.6,-24.2zm-190.93 -24.37c-9.94,24.58 -22.93,42.16 -57.02,42.16l-45.9 0 0 -96.19 54.46 0c8.44,0.32 15.17,7.27 15.17,15.82l0 4.7 3.1 0.05 0 -50.82 -3.1 0.05 0 4.75c0,8.66 -6.95,15.66 -15.49,15.82l0 0 -54.14 0 0 -99.4 65.3 0c10.04,0.59 18.06,8.92 18.06,19.13l0 5.72 3.21 0.05 0 -25.81 -0.05 0 0 -5.24 0 0 0 -9.3c-5.88,2.51 -24.48,5.72 -38.26,5.83l-68.03 0 0 0 -25.6 0 0.05 3.15 4.06 0.05c10.63,0 19.34,8.01 20.41,18.38l0 179.5 0 0c-0.21,11.17 -9.3,20.14 -20.52,20.14l-4.06 0 -0.05 3.21 132.9 0 18.7 -51.78 -3.2 0zm-229.09 -172.66l0 3.21 2.83 0c8.28,0 16.89,7.16 12.18,19.99l0 0 -69.73 167.95 -67.07 -167.95c-4.65,-12.83 3.85,-19.99 12.13,-19.99l2.78 0 0 -3.21 -72.14 0.05 0 3.15 2.56 0c9.94,0 21.81,5.83 28.27,20.09l0 0 89.99 205.63 2.89 0c0,-7.06 11.86,-33.03 11.86,-33.03l77.11 -172.82c6.47,-14.11 18.28,-19.88 28.06,-19.88l2.83 0 0 -3.15 -64.56 -0.05zm-154.76 172.66c-9.88,24.58 -22.93,42.16 -56.91,42.16l-45.96 0 0 -191.47c0.21,-11.17 9.3,-20.14 20.52,-20.14l4.07 0 0.05 -3.21 -24.63 0 0 0 -20.84 0 0 0 -24.64 0 0.05 3.21 4.06 0c11.22,0 20.31,8.98 20.52,20.14l0 0 0 177.74c-0.21,11.17 -9.3,20.14 -20.52,20.14l-4.06 0 -0.05 3.21 132.9 0 18.65 -51.78 -3.21 0zm-186.66 48.57l-4.07 0c-11.22,0 -20.31,-8.98 -20.52,-20.14l0 -177.95c0.32,-11.06 9.35,-19.93 20.52,-19.93l4.07 0 0.05 -3.21 -25.6 0 0 0.05 -18.92 0 0 -0.05 -25.6 0 0.05 3.21 4.06 0c11.17,0 20.25,8.92 20.52,20.04l0 177.84 0 0c-0.21,11.17 -9.3,20.14 -20.52,20.14l-4.06 0 -0.05 3.21 70.11 0 -0.05 -3.21zm-557.24 -84.32l40.35 -102.92 38.64 102.92 -78.99 0zm157.64 84.32c-9.83,0 -21.7,-5.93 -28.21,-20.2l-85.72 -205.52 -2.89 0c0,7.05 -11.86,33.03 -11.86,33.03l-72.67 172.5c-6.52,14.27 -18.38,20.2 -28.11,20.2l-2.89 0 0 3.21 64.55 0 0 -3.21 -2.83 0c-8.23,0 -16.78,-7.21 -12.24,-19.93l21.49 -54.77 86.35 0 20.47 54.56 0 0c4.7,12.88 -3.9,20.14 -12.18,20.14l-2.78 0 0 3.21 72.2 0 0 -3.21 -2.67 0zm-239.08 0.16c-11.49,0 -21.75,-7.43 -23.35,-20.09l-24.9 -205.79 -2.94 0 -87.48 193.6 -89.51 -193.6 -2.94 0 -24.1 205.79 0 0c-1.66,12.67 -11.92,20.09 -23.4,20.09l-5.08 0 0 3.05 62.09 0 0 -2.89 -5.02 0c-6.89,0 -12.51,-6.79 -12.51,-13.68 0,-0.27 0.05,-0.59 0.05,-0.86l0.05 -0.43 0 -0.1 0 0 14 -155.4 81.98 177.85 0 0 3.04 0c2.03,-13.31 11.01,-32.76 11.01,-32.76l67.38 -149.79 14.43 160.1 0 0c0.05,0.43 0.11,0.91 0.11,1.39 0,6.89 -5.61,13.68 -12.5,13.68l-5.02 0 0 2.89 69.68 0 0 -3.05 -5.08 0zm-419.55 -2.08c-59.1,0 -98.59,-42.8 -98.59,-107.09 0,-64.29 39.49,-107.09 98.59,-107.09 59.1,0 98.6,42.8 98.6,107.09 0,64.29 -39.5,107.09 -98.6,107.09zm0 -223.8c-72.94,0 -123.28,46.7 -123.28,116.71 0,70 50.34,116.71 123.28,116.71 72.94,0 123.29,-46.71 123.29,-116.71 0,-70 -50.34,-116.71 -123.29,-116.71zm-153.31 212.63l-87.75 -103.08 75.56 -87.16c8.28,-9.24 20.79,-14.97 34.52,-14.97l1.45 0 0 -2.94 -67.76 0 0 2.89 3.1 0c8.82,0 13.2,7.96 7.75,15.12l-75.61 94.8 77.16 93.46c14.7,17.15 39.28,18.06 48.31,18.12l13.52 0.05 0 -3.21c-12.98,-0.32 -21.49,-4.33 -30.25,-13.09zm-98.54 13.09c-11.22,0 -20.31,-8.98 -20.52,-20.14l0 -177.95c0.32,-11.06 9.35,-19.93 20.52,-19.93l4.06 0 0.05 -3.21 -25.6 0 0 0 -18.92 0 0 0 -25.6 0 0.05 3.21 4.06 0c11.17,0 20.25,8.92 20.52,20.04l0 177.84 0 0c-0.22,11.17 -9.3,20.14 -20.52,20.14l-4.06 0 -0.05 3.21 70.11 0 -0.05 -3.21 -4.06 0zm-242.08 -84.32l40.35 -102.92 38.64 102.92 -78.98 0zm157.64 84.32c-9.83,0 -21.7,-5.93 -28.22,-20.2l-85.71 -205.52 -2.89 0c0,7.05 -11.86,33.03 -11.86,33.03l-72.67 172.5c-6.52,14.27 -18.38,20.2 -28.11,20.2l-2.89 0 0 3.21 64.55 0 0 -3.21 -2.83 0c-8.23,0 -16.78,-7.21 -12.24,-19.93l21.48 -54.77 86.36 0 20.47 54.56 0 0c4.71,12.88 -3.9,20.14 -12.18,20.14l-2.78 0 0 3.21 72.2 0 0 -3.21 -2.67 0zm1244.03 -136.03l-78.24 -61.35c-13.74,-11.01 -18.36,-24.89 -18.36,-37.93 0,-27.76 20.61,-49.22 50.97,-49.22 25.59,0 48.31,15.14 48.8,43.26l4.07 0 -0.84 -46.62 0 0 -0.07 -5.05 -16.62 0c-11.71,-2.45 -26.08,-4.2 -36.59,-4.2 -47.61,0 -73.27,35.76 -73.27,70.25 0,15.14 5.05,37.44 24.61,52.93l76.14 59.73c66.32,52.65 35.82,141.84 -43.05,141.84 -72.85,0 -103.34,-75.72 -57.28,-136.08l-3.79 -2.95c-57.42,61.63 -24.26,154.17 68.43,154.17 102.43,0 139.03,-112.32 55.11,-178.78zm-1607.57 129.98c-11.01,0 -21.53,-0.56 -31.34,-2.1l0 -269.72 5.4 0.07c38.91,-0.07 61.07,16.33 61.07,55.52 0,42.98 -27.2,57.78 -52.37,57.63l0.07 3.79c40.6,-0.07 103.21,11.71 103.21,76.63 0,44.66 -29.87,78.38 -86.03,78.17zm33.16 -162.37c20.05,-7.43 33.51,-28.12 33.51,-54.61 0,-42.98 -35.27,-68.15 -86.94,-68.15l-37.16 0 0 -0.07 -33.58 0 0.07 4.13c1.05,0.07 4.42,0.07 5.26,0.07 13.82,0 26.36,10.37 26.99,26.22l0 245.04c-26.92,-11.57 -45.78,-35.47 -51.88,-81.26l-4.63 0.84c-2.17,71.02 45.5,105.31 113.86,105.31 70.95,0 118.91,-36.39 118.91,-91.22 0,-43.39 -27.76,-77.96 -84.41,-86.3z"/>
   <path class="fil2" d="M1403.06 609.89l0.87 -0.12c40.08,-5.43 73.55,-28.05 73.55,-85.87l0 -0c0,-47.41 -38.82,-86.2 -86.2,-86.2l-46.28 0 -133.68 0 0 169.94 0 279.52 19.44 0c0,0 144.06,9.66 174.32,-57.39 31.48,-69.73 -13.65,-122.03 -78.99,-165.52 -65.33,-43.49 -104.02,-101.4 -66.61,-158.66 37.42,-57.26 122.54,-32.05 122.54,-32.05l22.12 0 0 65.22 -5.13 0c0,0 -0.41,-6.25 -1.17,-11.02 -0.76,-4.76 -5.8,-26.94 -33.08,-38.53 -27.27,-11.59 -82.01,-6.65 -90.74,45.77 -8.73,52.42 40.49,73.48 71.63,97.89 31.14,24.41 78.2,47.57 100.55,107 22.34,59.42 -2.76,117.27 -49.1,139.44 -46.34,22.17 -160.71,18.46 -160.71,18.46l-79.25 0 -50.46 0 -14.67 0 0.13 -8.13c2.07,-0.14 8.68,-0.14 10.33,-0.14 27.14,0 53.04,-20.37 53.04,-51.53l0 -17.75 0 -203.77 0 -8.83 0 -140.66c-2.44,-28.51 -27.08,-46.86 -52.84,-46.86 -1.65,0 -8.26,0 -10.33,-0.14l-0.13 -8.13 63.31 0 1.82 0 281.29 0c56.27,0 102.31,46.03 102.31,102.31l0 0c0,43.52 -27.55,80.92 -66.07,95.63 77.44,12.69 137.02,80.32 137.02,161.21l0 0c0,89.85 -61.15,155.85 -194.04,155.85l-544.75 0 0 -7.37 392.96 0 99.38 0c31.9,0 59.99,-6.97 82.9,-15.34 70.56,-25.77 99.58,-79.11 100.7,-133.2 0.02,-1.22 0.03,-2.47 0.03,-3.7l0 0c0,-100.44 -78.6,-149.99 -144.61,-153.76l-1.39 -0.17 0 -3.42z"/>
  </g>
 </g>
</svg>
