<?xml version="1.0" encoding="UTF-8"?>
<!DOCTYPE svg PUBLIC "-//W3C//DTD SVG 1.1//EN" "http://www.w3.org/Graphics/SVG/1.1/DTD/svg11.dtd">
<!-- Creator: CorelDRAW 2019 (64-Bit) -->
<svg xmlns="http://www.w3.org/2000/svg" xml:space="preserve" width="4.7007in" height="1.09588in" version="1.1" style="shape-rendering:geometricPrecision; text-rendering:geometricPrecision; image-rendering:optimizeQuality; fill-rule:evenodd; clip-rule:evenodd"
viewBox="0 0 5660.93 1319.74"
 xmlns:xlink="http://www.w3.org/1999/xlink"
 xmlns:xodm="http://www.corel.com/coreldraw/odm/2003">
 <defs>
  <style type="text/css">
   <![CDATA[
    .fil2 {fill:#FEFEFE}
    .fil33 {fill:#F1F1F2}
    .fil6 {fill:#C7C9CB}
    .fil5 {fill:#96989A}
    .fil0 {fill:#7B7D7F}
    .fil4 {fill:#696B6D}
    .fil56 {fill:#626365}
    .fil3 {fill:#373435}
    .fil1 {fill:#373435}
    .fil34 {fill:#EAEEE8}
    .fil32 {fill:#E4EBF0}
    .fil35 {fill:#E3EBE0}
    .fil31 {fill:#DAE6EE}
    .fil36 {fill:#DDE8D8}
    .fil37 {fill:#D7E5D1}
    .fil30 {fill:#CFE1ED}
    .fil38 {fill:#D2E3CA}
    .fil29 {fill:#C6DCEB}
    .fil39 {fill:#CDE1C2}
    .fil40 {fill:#C7DEBA}
    .fil28 {fill:#BBD8EA}
    .fil41 {fill:#C1DBB3}
    .fil27 {fill:#B0D3E8}
    .fil42 {fill:#BCD8AB}
    .fil43 {fill:#B6D6A5}
    .fil26 {fill:#A7CFE7}
    .fil44 {fill:#B0D49D}
    .fil25 {fill:#9BCAE5}
    .fil45 {fill:#ABD297}
    .fil46 {fill:#A4CF90}
    .fil24 {fill:#90C5E3}
    .fil47 {fill:#9FCD89}
    .fil23 {fill:#87C2E2}
    .fil48 {fill:#9ACB83}
    .fil49 {fill:#94C97C}
    .fil22 {fill:#7BBEE0}
    .fil50 {fill:#8DC775}
    .fil21 {fill:#70BADF}
    .fil51 {fill:#88C46D}
    .fil52 {fill:#82C366}
    .fil20 {fill:#65B6DE}
    .fil53 {fill:#7CC15F}
    .fil19 {fill:#58B3DD}
    .fil54 {fill:#76C059}
    .fil55 {fill:#6FBE54}
    .fil18 {fill:#4BB0DB}
    .fil9 {fill:#67BD50}
    .fil17 {fill:#38ADDB}
    .fil16 {fill:#1FA9D9}
    .fil15 {fill:#08A7D8}
    .fil14 {fill:#00A4D7}
    .fil13 {fill:#00A1D6}
    .fil12 {fill:#009ED5}
    .fil11 {fill:#009CD4}
    .fil10 {fill:#0099D2}
    .fil8 {fill:#0096D2}
    .fil7 {fill:white}
   ]]>
  </style>
 </defs>
 <g id="Layer_x0020_1">
  <metadata id="CorelCorpID_0Corel-Layer"/>
  <g id="_1713029336240">
   <g>
    <path class="fil0" d="M858.44 520.74l53.25 0c9.58,-0.11 16.26,-6.86 16.26,-16.46 0,-9.61 -6.68,-16.38 -16.26,-16.48l-53.25 0 0 32.94 0 0 0 0zm65.31 25.89c20.11,-3.18 34.53,-21.33 34.53,-42.32 0,-23.2 -19.83,-43.09 -43.01,-43.16l-87.04 0.03 0 142.28 30.15 0 0 -56.09 29.93 0.01 42.05 56.08 35.83 -0.05 -42.43 -56.77 0 0z"/>
   </g>
   <g>
    <path class="fil0" d="M558.65 848.69l-62.07 0 0 32.96 62.07 0c9.62,-0.08 16.32,-6.87 16.32,-16.46 0,-9.65 -6.71,-16.42 -16.32,-16.49l0 0 0 0zm-18.12 59.57l-43.95 0 0 56.07 -30.14 0 0 -142.3 95.83 0c23.13,0.12 42.91,20.03 42.91,43.2 0,19.36 -12.36,36.19 -30.17,41.09l43.66 58 -36.1 0.03 -42.04 -56.09 0 0z"/>
   </g>
   <g>
    <path class="fil0" d="M139.48 576.9l65.56 -0.03c9.68,0 16.4,-6.78 16.4,-16.48 0,-9.65 -6.72,-16.44 -16.4,-16.44l-65.56 0 0 32.94 0 0 0 0zm0 -59.6l63.74 0c8.7,0 14.71,-5.96 14.71,-14.68 0,-8.71 -6.01,-14.72 -14.71,-14.72l-63.74 0 0 29.4 0 0 0 0zm-30.15 86.22l0 -142.25 98.37 0c21.76,0.05 40.42,18.73 40.42,40.46 0,10.87 -4.06,20.63 -11.16,27.77 9.11,7.54 14.59,19.03 14.59,31.81 0,22.71 -19.46,42.17 -42.16,42.21l-100.05 0 0 0z"/>
   </g>
   <g>
    <path class="fil0" d="M406.79 578.92l-85.34 0 -11.82 24.53 -32.1 0 71.1 -142.29 31.06 0 71.12 142.29 -32.11 0 -11.91 -24.53 0 0 0 0zm-12.87 -26.66l-29.78 -61.32 -29.78 61.32 59.56 0 0 0z"/>
   </g>
   <g>
    <path class="fil0" d="M573.2 400.24l-85.33 0 -11.82 24.52 -32.12 0 71.12 -142.29 31.06 0 71.12 142.29 -32.11 0 -11.92 -24.52 0 0 0 0zm-12.87 -26.67l-29.77 -61.32 -29.78 61.32 59.55 0 0 0z"/>
   </g>
   <g>
    <path class="fil0" d="M496.61 222.8l65.56 -0.03c9.68,0 16.4,-6.78 16.4,-16.47 0,-9.64 -6.72,-16.43 -16.4,-16.43l-65.56 0 0 32.93 0 0 0 0zm0 -59.6l63.75 0c8.7,0 14.7,-5.97 14.7,-14.67 0,-8.72 -6.01,-14.72 -14.7,-14.72l-63.75 0 0 29.39 0 0 0 0zm-30.15 86.23l0 -142.25 98.37 0c21.75,0.05 40.42,18.72 40.42,40.45 0,10.88 -4.06,20.63 -11.18,27.77 9.12,7.56 14.61,19.04 14.61,31.83 0,22.69 -19.47,42.16 -42.17,42.2l-100.05 0 0 0z"/>
   </g>
   <polygon class="fil0" points="581.72,461.12 530.57,529.68 479.4,461.17 443.43,461.17 515.49,553.7 515.49,603.44 545.65,603.46 545.65,553.69 617.71,461.17 581.72,461.12 "/>
   <polygon class="fil0" points="774.31,487.8 774.31,461.18 646.05,461.18 646.05,603.46 774.31,603.46 774.31,576.8 676.2,576.8 676.2,543.89 770.82,543.89 770.82,517.24 676.2,517.24 676.2,487.8 774.31,487.8 "/>
   <polygon class="fil0" points="594.74,666.47 594.74,639.85 466.49,639.85 466.49,782.13 594.74,782.13 594.74,755.47 496.64,755.47 496.64,722.57 591.25,722.57 591.25,695.91 496.64,695.91 496.64,666.47 594.74,666.47 "/>
   <polygon class="fil1" points="640.07,455.23 780.22,455.23 775.66,459.79 644.64,459.79 640.07,455.23 "/>
   <polygon class="fil1" points="682.11,511.27 776.71,511.27 772.14,515.85 677.54,515.86 682.11,511.27 "/>
   <polygon class="fil1" points="682.11,570.84 780.22,570.84 775.66,575.41 677.54,575.41 682.11,570.84 "/>
   <polygon class="fil1" points="677.54,489.21 775.66,489.21 780.22,493.75 682.11,493.75 677.54,489.21 "/>
   <polygon class="fil1" points="677.54,545.24 772.14,545.24 776.71,549.83 682.11,549.83 677.54,545.24 "/>
   <polygon class="fil1" points="644.64,604.81 775.66,604.81 780.22,609.39 640.07,609.37 644.64,604.81 "/>
   <polygon class="fil1" points="780.22,455.23 780.22,493.75 775.66,489.21 775.66,459.79 780.22,455.23 "/>
   <polygon class="fil1" points="776.71,511.27 776.71,549.83 772.14,545.24 772.14,515.85 776.71,511.27 "/>
   <polygon class="fil1" points="682.11,511.27 682.11,493.75 677.54,489.21 677.54,515.86 682.11,511.27 "/>
   <polygon class="fil1" points="682.11,570.84 682.11,549.83 677.54,545.24 677.54,575.41 682.11,570.84 "/>
   <polygon class="fil1" points="640.07,455.23 640.07,609.37 644.64,604.81 644.64,459.79 640.07,455.23 "/>
   <polygon class="fil1" points="780.22,570.84 780.22,609.39 775.66,604.81 775.66,575.41 780.22,570.84 "/>
   <polygon class="fil1" points="578.86,455.23 629.87,455.23 620.46,459.84 581.06,459.8 578.86,455.23 "/>
   <polygon class="fil1" points="431.26,455.23 482.3,455.23 480.06,459.84 440.69,459.85 431.26,455.23 "/>
   <polygon class="fil1" points="482.3,455.23 530.57,519.64 530.57,527.45 480.06,459.83 482.3,455.23 "/>
   <polygon class="fil1" points="530.57,519.64 578.86,455.23 581.06,459.8 530.57,527.45 530.57,519.64 "/>
   <polygon class="fil1" points="629.87,455.23 551.59,555.74 546.97,554.14 620.44,459.84 629.87,455.23 "/>
   <polygon class="fil1" points="551.59,555.74 551.59,609.37 546.98,604.79 546.97,554.14 551.59,555.74 "/>
   <polygon class="fil1" points="551.59,609.37 509.55,609.37 514.15,604.78 546.98,604.79 551.59,609.37 "/>
   <polygon class="fil1" points="509.55,609.37 509.55,555.74 514.15,554.16 514.15,604.78 509.55,609.37 "/>
   <polygon class="fil1" points="431.26,455.23 440.71,459.84 514.15,554.16 509.55,555.74 431.26,455.23 "/>
   <polygon class="fil1" points="364.14,493.97 364.14,504.71 344,546.3 336.51,550.93 364.14,493.97 "/>
   <polygon class="fil1" points="344.92,455.23 383.35,455.23 380.51,459.84 347.77,459.84 344.92,455.23 "/>
   <polygon class="fil1" points="383.35,455.23 460.45,609.39 452.98,604.78 380.51,459.84 383.35,455.23 "/>
   <polygon class="fil1" points="391.74,550.93 364.14,493.97 364.14,504.71 384.3,546.3 391.74,550.93 "/>
   <polygon class="fil1" points="336.51,550.93 344,546.3 384.3,546.3 391.74,550.93 336.51,550.93 "/>
   <polygon class="fil1" points="344.92,455.23 347.76,459.85 275.29,604.79 267.84,609.39 344.92,455.23 "/>
   <polygon class="fil1" points="322.29,580.26 405.99,580.26 403.1,584.87 325.17,584.87 322.29,580.26 "/>
   <polygon class="fil1" points="275.28,604.79 310.45,604.79 313.28,609.39 267.84,609.39 275.28,604.79 "/>
   <polygon class="fil1" points="313.28,609.39 325.17,584.87 322.29,580.26 310.45,604.79 313.28,609.39 "/>
   <polygon class="fil1" points="405.99,580.26 417.83,604.79 415,609.39 403.1,584.87 405.99,580.26 "/>
   <polygon class="fil1" points="417.83,604.79 453,604.79 460.45,609.39 415,609.39 417.83,604.79 "/>
   <polygon class="fil1" points="103.37,455.32 103.37,609.48 107.94,604.94 107.94,459.87 207.69,459.87 207.69,455.32 103.37,455.32 "/>
   <polygon class="fil1" points="107.94,604.94 209.37,604.94 209.37,609.48 103.37,609.48 107.94,604.94 "/>
   <path class="fil1" d="M249.46 501.73c0,-23.67 -18.1,-41.81 -41.77,-41.86l0 -4.55c25.59,0.05 46.34,20.81 46.34,46.41 0,10.22 -3.3,19.68 -8.89,27.36l-5.9 0.31c6.26,-7.46 10.23,-17.16 10.23,-27.67l0 0z"/>
   <path class="fil1" d="M252.93 561.32c0,-12.55 -5.35,-23.81 -13.69,-31.92l5.89 -0.31c7.68,8.54 12.35,19.84 12.35,32.23 0,26.57 -21.52,48.12 -48.1,48.16l0 -4.53c24.63,-0.04 43.55,-18.99 43.55,-43.63l0 0z"/>
   <polygon class="fil1" points="460.5,816.12 460.5,970.26 465.06,965.69 465.06,820.67 562.29,820.67 562.29,816.12 460.5,816.12 "/>
   <polygon class="fil1" points="497.98,909.64 497.99,965.69 465.06,965.69 460.5,970.26 502.54,970.26 502.54,914.18 537.58,914.18 539.87,909.57 497.98,909.64 "/>
   <polygon class="fil1" points="581.92,965.64 539.87,909.57 537.58,914.18 579.62,970.26 581.92,965.64 "/>
   <polygon class="fil1" points="579.62,970.26 581.92,965.64 621.21,965.64 577.46,906.97 584.47,908.91 630.44,970.26 579.62,970.26 "/>
   <path class="fil1" d="M606.5 865.21c0,-25.1 -19.18,-44.39 -44.22,-44.56l0 -4.54c27.02,0.13 48.87,22.09 48.87,49.11 0,19.03 -10.84,35.55 -26.69,43.7l-6.98 -1.94c16.63,-6.81 29.02,-22.67 29.02,-41.76l0 0z"/>
   <polygon class="fil1" points="822.25,455.23 822.25,609.37 826.82,604.81 826.82,459.79 915.26,459.79 915.26,455.23 822.25,455.23 "/>
   <polygon class="fil1" points="859.74,548.77 859.74,604.81 826.82,604.81 822.25,609.37 864.3,609.37 864.3,553.32 885.32,553.32 887.65,548.7 859.74,548.77 "/>
   <polygon class="fil1" points="978.18,609.37 927.01,609.37 929.67,604.78 968.96,604.79 978.18,609.37 "/>
   <polygon class="fil1" points="929.67,604.78 887.65,548.7 885.32,553.32 927.01,609.37 929.67,604.78 "/>
   <polygon class="fil1" points="926.14,547.42 933.45,549.85 978.18,609.37 968.99,604.8 926.14,547.42 "/>
   <path class="fil1" d="M964.19 504.31c0,20.63 -12.73,38.29 -30.74,45.54l-7.3 -2.43c18.98,-5.51 33.54,-22.39 33.54,-43.14 0,-25.12 -19.33,-44.43 -44.43,-44.5l0 -4.53c27.02,0.07 48.93,22 48.93,49.06l0 0z"/>
   <path class="fil1" d="M203.22 511.38c4.84,0 8.74,-3.94 8.74,-8.76 0,-4.83 -3.9,-8.75 -8.74,-8.75l0 -4.58c6.77,0 13.33,6.56 13.33,13.32 0,6.78 -6.56,13.32 -13.33,13.32l0 -4.56 0 0z"/>
   <polygon class="fil1" points="140.85,489.3 140.86,515.94 145.43,511.38 145.43,493.87 203.22,493.87 203.22,489.3 140.85,489.3 "/>
   <polygon class="fil1" points="203.22,511.38 145.43,511.38 140.86,515.94 203.22,515.94 203.22,511.38 "/>
   <polygon class="fil1" points="140.86,545.36 140.86,575.51 145.43,570.94 145.43,549.92 205.03,549.92 205.03,545.36 140.86,545.36 "/>
   <path class="fil1" d="M215.38 560.43c0,-5.76 -4.62,-10.44 -10.34,-10.52l0 -4.56c7.73,0 15.03,7.32 15.03,15.06 0,7.75 -7.3,15.09 -15.04,15.09l0 -4.57c5.73,-0.08 10.35,-4.77 10.35,-10.51l0 0z"/>
   <polygon class="fil1" points="205.03,570.94 145.43,570.94 140.86,575.51 205.03,575.51 205.03,570.94 "/>
   <polygon class="fil1" points="497.98,850.07 497.98,880.22 502.54,875.68 502.54,854.62 558.66,854.62 558.66,850.07 497.98,850.07 "/>
   <path class="fil1" d="M573.6 865.19c0,7.65 -7.27,14.94 -14.94,15.03l0 -4.54c5.77,-0.06 10.42,-4.76 10.42,-10.5 0,-5.81 -4.66,-10.51 -10.42,-10.57l0 -4.55c7.67,0.08 14.94,7.4 14.94,15.12l0 0z"/>
   <polygon class="fil1" points="502.54,875.68 558.66,875.68 558.66,880.22 497.98,880.22 502.54,875.68 "/>
   <polygon class="fil1" points="859.74,489.21 859.74,519.36 864.3,514.78 864.3,493.75 911.69,493.75 911.69,489.21 859.74,489.21 "/>
   <path class="fil1" d="M926.67 504.28c0,7.69 -7.29,15.03 -14.98,15.07l0 -4.57c5.72,-0.09 10.34,-4.76 10.34,-10.5 0,-5.75 -4.61,-10.42 -10.34,-10.51l0 -4.57c7.69,0.05 14.98,7.37 14.98,15.08l0 0z"/>
   <polygon class="fil1" points="864.3,514.78 911.69,514.78 911.69,519.36 859.74,519.36 864.3,514.78 "/>
   <polygon class="fil1" points="460.5,633.9 600.65,633.9 596.09,638.46 465.08,638.46 460.5,633.9 "/>
   <polygon class="fil1" points="502.54,689.95 597.15,689.95 592.57,694.53 497.98,694.53 502.54,689.95 "/>
   <polygon class="fil1" points="502.54,749.52 600.65,749.52 596.09,754.08 497.98,754.08 502.54,749.52 "/>
   <polygon class="fil1" points="497.98,667.87 596.09,667.87 600.65,672.43 502.54,672.43 497.98,667.87 "/>
   <polygon class="fil1" points="497.98,723.92 592.57,723.92 597.15,728.5 502.54,728.5 497.98,723.92 "/>
   <polygon class="fil1" points="465.08,783.48 596.09,783.48 600.65,788.06 460.5,788.06 465.08,783.48 "/>
   <polygon class="fil1" points="600.65,633.9 600.65,672.43 596.09,667.87 596.09,638.46 600.65,633.9 "/>
   <polygon class="fil1" points="597.15,689.95 597.15,728.5 592.57,723.92 592.57,694.53 597.15,689.95 "/>
   <polygon class="fil1" points="502.54,689.95 502.54,672.43 497.98,667.87 497.98,694.53 502.54,689.95 "/>
   <polygon class="fil1" points="502.54,749.52 502.54,728.5 497.98,723.92 497.98,754.08 502.54,749.52 "/>
   <polygon class="fil1" points="460.5,633.9 460.5,788.06 465.08,783.48 465.08,638.46 460.5,633.9 "/>
   <polygon class="fil1" points="600.65,749.52 600.65,788.06 596.09,783.48 596.09,754.08 600.65,749.52 "/>
   <polygon class="fil1" points="530.56,315.28 530.56,326.02 510.42,367.61 502.92,372.23 530.56,315.28 "/>
   <polygon class="fil1" points="511.33,276.55 549.78,276.55 546.93,281.15 514.19,281.15 511.33,276.55 "/>
   <polygon class="fil1" points="549.78,276.55 626.87,430.7 619.4,426.09 546.93,281.15 549.78,276.55 "/>
   <polygon class="fil1" points="558.17,372.23 530.56,315.28 530.56,326.02 550.71,367.61 558.17,372.23 "/>
   <polygon class="fil1" points="502.92,372.23 510.42,367.61 550.71,367.61 558.17,372.23 502.92,372.23 "/>
   <polygon class="fil1" points="511.33,276.55 514.18,281.15 441.71,426.1 434.26,430.7 511.33,276.55 "/>
   <polygon class="fil1" points="488.71,401.57 572.4,401.57 569.53,406.19 491.59,406.19 488.71,401.57 "/>
   <polygon class="fil1" points="441.7,426.1 476.86,426.1 479.69,430.7 434.26,430.7 441.7,426.1 "/>
   <polygon class="fil1" points="479.69,430.7 491.59,406.19 488.7,401.57 476.86,426.1 479.69,430.7 "/>
   <polygon class="fil1" points="572.4,401.57 584.24,426.1 581.41,430.7 569.53,406.19 572.4,401.57 "/>
   <polygon class="fil1" points="584.24,426.1 619.41,426.1 626.87,430.7 581.41,430.7 584.24,426.1 "/>
   <polygon class="fil1" points="460.5,101.23 460.5,255.39 465.08,250.85 465.08,105.77 564.82,105.77 564.82,101.23 460.5,101.23 "/>
   <polygon class="fil1" points="465.08,250.85 566.51,250.85 566.51,255.39 460.5,255.39 465.08,250.85 "/>
   <path class="fil1" d="M606.59 147.63c0,-23.66 -18.1,-41.82 -41.77,-41.86l0 -4.54c25.6,0.05 46.34,20.81 46.34,46.4 0,10.23 -3.3,19.68 -8.9,27.35l-5.89 0.31c6.26,-7.46 10.22,-17.16 10.22,-27.67l0 0z"/>
   <path class="fil1" d="M610.06 207.23c0,-12.56 -5.36,-23.82 -13.69,-31.94l5.88 -0.31c7.69,8.54 12.37,19.84 12.37,32.25 0,26.55 -21.52,48.11 -48.1,48.16l0 -4.54c24.64,-0.04 43.55,-19 43.55,-43.62l0 0z"/>
   <path class="fil1" d="M560.35 157.29c4.84,0 8.72,-3.94 8.72,-8.76 0,-4.83 -3.89,-8.76 -8.72,-8.76l0 -4.58c6.77,0 13.33,6.57 13.33,13.33 0,6.77 -6.56,13.32 -13.33,13.32l0 -4.56 0 0z"/>
   <polygon class="fil1" points="497.98,135.2 497.99,161.85 502.54,157.29 502.54,139.77 560.35,139.77 560.35,135.2 497.98,135.2 "/>
   <polygon class="fil1" points="560.35,157.29 502.54,157.29 497.99,161.85 560.35,161.85 560.35,157.29 "/>
   <polygon class="fil1" points="497.99,191.26 497.99,221.42 502.54,216.85 502.54,195.82 562.16,195.82 562.16,191.26 497.99,191.26 "/>
   <path class="fil1" d="M572.5 206.34c0,-5.77 -4.61,-10.44 -10.34,-10.53l0 -4.56c7.73,0 15.03,7.33 15.03,15.06 0,7.76 -7.3,15.1 -15.04,15.1l0 -4.57c5.73,-0.07 10.35,-4.77 10.35,-10.5l0 0z"/>
   <polygon class="fil1" points="562.15,216.85 502.54,216.85 497.99,221.42 562.15,221.42 562.15,216.85 "/>
   <polygon class="fil2" points="364.14,488.52 395.67,553.33 389.98,549.83 364.14,496.37 364.14,488.52 "/>
   <polygon class="fil3" points="138.43,486.84 138.43,518.37 141.92,514.89 141.92,490.36 203.22,490.36 203.22,486.84 138.43,486.84 "/>
   <path class="fil3" d="M209.69 492.21l2.53 -2.53c-2.55,-1.78 -5.66,-2.84 -9,-2.84l0 3.51c2.37,0 4.59,0.69 6.47,1.85z"/>
   <path class="fil3" d="M204.95 490.49l2.93 -2.93c-1.47,-0.46 -3.05,-0.72 -4.67,-0.72l0 3.51c0.59,0 1.17,0.05 1.74,0.13z"/>
   <path class="fil4" d="M210.43 492.7l2.5 -2.5c-1.88,-1.47 -4.11,-2.53 -6.55,-3.03l-3.17 3.17 0 0.02c2.68,0 5.18,0.88 7.21,2.35z"/>
   <path class="fil5" d="M214.02 496.79l2.56 -2.55c-1.22,-1.93 -2.84,-3.58 -4.76,-4.83l-2.56 2.56c2.01,1.14 3.66,2.81 4.76,4.83z"/>
   <path class="fil6" d="M203.22 515.29l0.38 -0.38c-0.12,0 -0.26,0 -0.38,0l0 0 0 0.38zm12.28 -12.28l3.24 -3.24c-0.45,-2.46 -1.47,-4.72 -2.93,-6.65l-2.51 2.51c1.39,1.99 2.2,4.4 2.2,7 0,0.12 0.01,0.25 0,0.38z"/>
   <path class="fil2" d="M208.82 517.37l9.16 -9.16c0.65,-1.73 1.01,-3.62 1.01,-5.58 0,-1.54 -0.21,-3 -0.62,-4.4l-2.95 2.95c0.06,0.48 0.08,0.96 0.08,1.45 0,6.77 -5.5,12.28 -12.28,12.28l0 0 0 3.47c1.96,0 3.86,-0.35 5.6,-1.01z"/>
   <path class="fil7" d="M205.42 518.23l13.43 -13.44c0.1,-0.7 0.14,-1.44 0.14,-2.17 0,-2.23 -0.46,-4.34 -1.29,-6.26l-2.72 2.72c0.34,1.12 0.52,2.3 0.52,3.54 0,6.77 -5.5,12.28 -12.28,12.28l0 0 0 3.47c0.74,0 1.49,-0.05 2.2,-0.15z"/>
   <path class="fil7" d="M218.28 507.35l-10.32 10.31c4.91,-1.53 8.79,-5.41 10.32,-10.31z"/>
   <polygon class="fil2" points="203.22,514.89 141.92,514.89 138.43,518.37 203.22,518.37 203.22,514.89 "/>
   <polygon class="fil3" points="138.43,542.9 138.43,577.98 141.92,574.46 141.92,546.41 205.03,546.41 205.03,542.9 138.43,542.9 "/>
   <path class="fil3" d="M211.96 548.27l0.87 -0.87 -4.08 -4.08c-1.19,-0.26 -2.44,-0.41 -3.72,-0.41l0 3.5c2.52,0 4.89,0.69 6.93,1.86z"/>
   <path class="fil3" d="M207.63 546.66l2.87 -2.87c-1.27,-0.41 -2.6,-0.68 -3.98,-0.81l-1.48 1.48 0 1.94c0.88,0 1.75,0.1 2.59,0.25z"/>
   <path class="fil4" d="M213.33 549.15l2.5 -2.5c-0.91,-0.71 -1.88,-1.33 -2.93,-1.86l-2.65 2.65c1.1,0.45 2.13,1.02 3.07,1.72z"/>
   <path class="fil5" d="M217.19 553.49l2.55 -2.56c-0.62,-0.96 -1.33,-1.85 -2.12,-2.67l-2.48 2.48c0.78,0.82 1.48,1.75 2.05,2.75z"/>
   <path class="fil6" d="M218.99 559.87l3.13 -3.13c-0.27,-1.26 -0.67,-2.46 -1.19,-3.6l-2.69 2.69c0.44,1.28 0.69,2.63 0.74,4.04z"/>
   <path class="fil2" d="M209.75 577.31l12.11 -12.12c0.42,-1.51 0.63,-3.13 0.63,-4.78 0,-0.21 0,-0.43 -0,-0.64l-3.83 3.83c-1.19,5.23 -5.29,9.34 -10.52,10.53l-3.11 3.11 0 0.7c1.63,0 3.22,-0.21 4.72,-0.62z"/>
   <path class="fil7" d="M207.28 577.81l6.05 -6.06c-2.31,1.71 -5.2,2.71 -8.3,2.71l0 0 0 3.48c0.76,0 1.51,-0.03 2.24,-0.13zm9 -9.01l6.08 -6.07c0.09,-0.76 0.14,-1.53 0.14,-2.31 0,-3.49 -1,-6.72 -2.75,-9.45l-2.55 2.55c1.16,2.04 1.81,4.4 1.81,6.93 0,3.13 -1.01,6.03 -2.73,8.36z"/>
   <path class="fil7" d="M222.5 560.34l-4.03 4.03c-1.32,4.62 -4.95,8.24 -9.55,9.56l-3.87 3.87 0 0.12c9.68,0 17.46,-7.83 17.46,-17.52 0,-0.02 0,-0.05 0,-0.07z"/>
   <polygon class="fil2" points="205.03,574.46 141.92,574.46 138.43,577.98 205.03,577.93 205.03,574.46 "/>
   <polygon class="fil3" points="495.53,847.64 495.53,882.7 499.03,879.17 499.03,851.15 558.66,851.15 558.66,847.64 495.53,847.64 "/>
   <polygon class="fil2" points="499.03,879.17 558.66,879.17 558.66,882.7 495.53,882.7 499.03,879.17 "/>
   <path class="fil3" d="M565.61 853.04l0.9 -0.9 -4.08 -4.07c-1.21,-0.28 -2.47,-0.42 -3.76,-0.43l0 3.51c2.52,0.02 4.9,0.7 6.94,1.89z"/>
   <path class="fil3" d="M561.31 851.41l2.86 -2.86c-1.26,-0.43 -2.59,-0.71 -3.96,-0.83l-1.55 1.54 0 1.9c0.9,0.01 1.78,0.1 2.64,0.27z"/>
   <path class="fil4" d="M566.96 853.94l2.5 -2.49c-0.9,-0.72 -1.87,-1.36 -2.91,-1.89l-2.64 2.64c1.09,0.45 2.11,1.04 3.05,1.74z"/>
   <path class="fil5" d="M570.78 858.32l2.56 -2.55c-0.61,-0.97 -1.34,-1.86 -2.12,-2.68l-2.47 2.47c0.78,0.83 1.47,1.75 2.03,2.76z"/>
   <path class="fil6" d="M572.55 864.74l3.13 -3.13c-0.26,-1.27 -0.65,-2.49 -1.17,-3.63l-2.69 2.7c0.43,1.28 0.68,2.65 0.73,4.07z"/>
   <path class="fil2" d="M563.51 881.97l11.82 -11.82c0.47,-1.58 0.72,-3.24 0.72,-4.96 0,-0.18 0,-0.36 -0.01,-0.54l-3.88 3.88c-1.24,5 -5.18,8.95 -10.2,10.2l-3.29 3.29 0 0.62 0.06 0.06c1.66,-0.01 3.27,-0.28 4.79,-0.73z"/>
   <path class="fil7" d="M560.97 882.52l7.05 -7.04c-2.47,2.25 -5.75,3.66 -9.35,3.69l0 3.47 0.06 0.06c0.76,-0.01 1.52,-0.08 2.25,-0.18zm7.99 -7.99l6.91 -6.91c0.11,-0.8 0.17,-1.6 0.17,-2.43 0,-3.45 -0.98,-6.69 -2.7,-9.4l-2.55 2.56c1.12,2.02 1.76,4.36 1.76,6.85l0 0c0,3.59 -1.35,6.86 -3.59,9.34z"/>
   <path class="fil7" d="M576.04 865.22l-4.12 4.12c-1.36,4.36 -4.8,7.81 -9.17,9.18l-4.09 4.09 0 0.04 0.06 0.06c9.57,-0.1 17.3,-7.92 17.32,-17.48z"/>
   <polygon class="fil2" points="110.39,602.47 110.39,462.35 106.88,458.81 106.88,606.01 110.39,602.47 "/>
   <polygon class="fil2" points="106.88,458.81 207.69,458.81 207.69,462.35 110.39,462.35 106.88,458.81 "/>
   <path class="fil7" d="M209.94 462.42l3.24 -3.24c-1.79,-0.23 -3.63,-0.37 -5.49,-0.37l0 3.53c0.75,0 1.51,0.03 2.24,0.08z"/>
   <path class="fil7" d="M220.65 464.56l2.74 -2.74c-3.64,-1.44 -7.53,-2.39 -11.58,-2.79l-3.33 3.34c4.26,0.09 8.35,0.85 12.18,2.2z"/>
   <path class="fil2" d="M224.31 466.05l2.64 -2.63c-4.53,-2.29 -9.53,-3.81 -14.81,-4.36l-3.31 3.32c5.53,0.17 10.77,1.47 15.49,3.67z"/>
   <path class="fil6" d="M235.62 474l0.96 -0.96 -9.59 -9.59 -2.63 2.63c4.21,1.97 8.02,4.66 11.26,7.92z"/>
   <path class="fil5" d="M243.51 485.37l2.61 -2.61c-0.07,-0.13 -0.13,-0.25 -0.19,-0.38l-9.3 -9.29 -0.96 0.96c3.23,3.27 5.9,7.1 7.84,11.33z"/>
   <path class="fil4" d="M247.04 501.1l3.3 -3.3c-0.48,-5.33 -1.93,-10.38 -4.19,-14.97l-2.62 2.61c2.18,4.78 3.42,10.08 3.51,15.66z"/>
   <path class="fil3" d="M237.95 529.45l7.61 -7.61c3.18,-5.99 4.95,-12.84 4.95,-20.09 0,-1.3 -0.05,-2.59 -0.16,-3.86l-3.31 3.31c0.01,0.18 0.01,0.36 0.01,0.55l0 0c0,10.85 -4.38,20.69 -11.48,27.81l0.02 0.01 2.36 -0.12z"/>
   <path class="fil3" d="M250.52 502.24l-3.68 3.68c-0.97,9.19 -5.08,17.43 -11.25,23.63l0.02 0.02 4.9 -0.24c6.16,-7.35 9.89,-16.78 10.01,-27.09z"/>
   <path class="fil3" d="M250.48 561.32c0,-12.78 -5.81,-24.2 -14.94,-31.76l4.95 -0.24c8.33,8.11 13.51,19.44 13.51,32 0,24.63 -19.98,44.64 -44.62,44.68l-0.01 -3.54c22.71,-0.04 41.11,-18.44 41.11,-41.14l0 0z"/>
   <polygon class="fil2" points="347.09,458.73 381.2,458.73 379.03,462.25 349.24,462.25 347.09,458.73 "/>
   <polygon class="fil3" points="381.2,458.73 454.78,605.88 449.1,602.4 379.03,462.25 381.2,458.73 "/>
   <polygon class="fil2" points="349.24,462.25 347.09,458.73 273.51,605.88 279.17,602.4 349.24,462.25 "/>
   <polygon class="fil3" points="273.51,605.88 279.17,602.4 308.95,602.4 311.12,605.88 273.51,605.88 "/>
   <polygon class="fil3" points="308.95,602.4 320.78,577.87 322.97,581.35 311.12,605.88 308.95,602.4 "/>
   <polygon class="fil2" points="407.5,577.87 419.32,602.4 417.16,605.88 405.32,581.35 407.5,577.87 "/>
   <polygon class="fil3" points="419.32,602.4 449.1,602.4 454.78,605.88 417.16,605.88 419.32,602.4 "/>
   <polygon class="fil2" points="332.61,553.33 338.29,549.83 389.98,549.83 395.67,553.33 332.61,553.33 "/>
   <polygon class="fil3" points="332.61,553.33 364.14,488.52 364.14,496.37 338.29,549.83 332.61,553.33 "/>
   <polygon class="fil3" points="480.58,458.73 530.57,525.74 530.57,531.43 478.89,462.25 480.58,458.73 "/>
   <polygon class="fil2" points="438.44,458.73 480.58,458.73 478.89,462.25 445.61,462.25 438.44,458.73 "/>
   <polygon class="fil2" points="513.04,605.88 513.04,554.54 516.55,553.33 516.55,602.4 513.04,605.88 "/>
   <polygon class="fil3" points="548.09,605.88 544.58,602.4 516.55,602.4 513.04,605.88 548.09,605.88 "/>
   <polygon class="fil3" points="544.58,553.33 544.58,602.4 548.09,605.88 548.09,554.54 544.58,553.33 "/>
   <polygon class="fil3" points="622.72,458.73 548.09,554.54 544.58,553.33 615.54,462.25 622.72,458.73 "/>
   <polygon class="fil2" points="530.57,525.74 580.55,458.73 582.25,462.25 530.57,531.43 530.57,525.74 "/>
   <polygon class="fil2" points="438.44,458.73 445.61,462.25 516.55,553.33 513.04,554.54 438.44,458.73 "/>
   <polygon class="fil2" points="580.55,458.73 622.72,458.73 615.54,462.25 582.25,462.25 580.55,458.73 "/>
   <polygon class="fil3" points="320.78,577.87 407.5,577.87 405.32,581.35 322.97,581.35 320.78,577.87 "/>
   <polygon class="fil2" points="647.07,602.4 647.07,462.25 643.58,458.73 643.58,605.88 647.07,602.4 "/>
   <polygon class="fil3" points="647.07,602.4 773.21,602.4 776.71,605.88 643.58,605.88 647.07,602.4 "/>
   <polygon class="fil3" points="773.21,602.4 773.21,577.87 776.71,574.35 776.71,605.88 773.21,602.4 "/>
   <polygon class="fil2" points="678.6,574.35 776.71,574.35 773.21,577.87 675.1,577.87 678.6,574.35 "/>
   <polygon class="fil3" points="675.1,542.82 675.1,577.87 678.6,574.35 678.6,546.31 675.1,542.82 "/>
   <polygon class="fil3" points="675.1,542.82 769.7,542.82 773.21,546.31 678.6,546.31 675.1,542.82 "/>
   <polygon class="fil3" points="769.7,542.82 769.7,518.3 773.21,514.79 773.21,546.31 769.7,542.82 "/>
   <polygon class="fil3" points="675.1,486.74 675.1,518.3 678.6,514.8 678.6,490.27 675.1,486.74 "/>
   <polygon class="fil2" points="678.6,514.8 773.21,514.79 769.7,518.3 675.1,518.3 678.6,514.8 "/>
   <polygon class="fil3" points="675.1,486.74 773.21,486.74 776.71,490.27 678.6,490.27 675.1,486.74 "/>
   <polygon class="fil3" points="773.21,486.74 773.21,462.25 776.71,458.73 776.71,490.27 773.21,486.74 "/>
   <polygon class="fil2" points="643.58,458.73 776.71,458.73 773.21,462.25 647.07,462.25 643.58,458.73 "/>
   <polygon class="fil3" points="110.39,602.47 209.37,602.47 209.37,606.01 106.88,606.01 110.39,602.47 "/>
   <path class="fil7" d="M917.88 462.31l3.18 -3.18c-1.9,-0.25 -3.84,-0.38 -5.8,-0.39l0 3.47c0.88,0 1.75,0.05 2.62,0.1z"/>
   <path class="fil7" d="M928.92 464.53l2.7 -2.7c-3.65,-1.42 -7.52,-2.38 -11.55,-2.82l-3.24 3.24c4.21,0.17 8.29,0.96 12.09,2.28z"/>
   <path class="fil2" d="M932.56 465.99l2.57 -2.57 -0.12 -0.12c-4.52,-2.2 -9.46,-3.67 -14.66,-4.27l-3.22 3.22c5.49,0.26 10.7,1.57 15.44,3.73z"/>
   <path class="fil6" d="M944.04 473.72l0.69 -0.69 -9.59 -9.58 -2.56 2.56c4.24,1.94 8.1,4.55 11.45,7.72z"/>
   <path class="fil5" d="M952.33 484.64l2 -2 -9.6 -9.6 -0.69 0.69c3.32,3.15 6.13,6.83 8.29,10.9z"/>
   <path class="fil4" d="M956.91 499.24l3.04 -3.04c-0.74,-4.14 -2.05,-8.1 -3.84,-11.78l-1.78 -1.77 -2 2c2.36,4.46 3.94,9.37 4.57,14.59z"/>
   <path class="fil3" d="M927.48 547.89l5.34 -5.34c-3.46,1.6 -7.18,2.74 -11.07,3.36l0.03 0.03 5.7 1.95zm25.85 -25.85l5.79 -5.78c1.01,-3.79 1.55,-7.81 1.55,-11.93 0,-2.76 -0.23,-5.46 -0.71,-8.08l-3.04 3.04c0.2,1.66 0.29,3.34 0.29,5.04l0 0c0,6.32 -1.38,12.33 -3.88,17.71z"/>
   <path class="fil3" d="M960.6 501.81l-3.4 3.4c-0.42,20.59 -15.64,37.55 -35.45,40.69l0.02 0.02 6.21 2.13c18.97,-5.51 32.69,-23 32.69,-43.74 0,-0.84 -0.02,-1.67 -0.07,-2.51z"/>
   <polygon class="fil3" points="964.16,602.4 921.72,545.91 927.98,548.06 971.16,605.88 964.16,602.4 "/>
   <polygon class="fil3" points="971.16,605.88 964.16,602.4 930.87,602.4 929.12,605.88 971.16,605.88 "/>
   <polygon class="fil2" points="930.87,602.4 888.84,546.31 887.08,549.83 929.12,605.88 930.87,602.4 "/>
   <polygon class="fil3" points="857.3,546.31 857.3,602.4 829.27,602.4 825.77,605.88 860.8,605.88 860.8,549.83 887.08,549.83 888.84,546.31 857.3,546.31 "/>
   <path class="fil3" d="M918.53 492.12l0.98 -0.98 -3.91 -3.9c-1.25,-0.3 -2.57,-0.48 -3.91,-0.49l0 3.53c2.48,0.01 4.82,0.7 6.84,1.84z"/>
   <path class="fil3" d="M914.19 490.53l2.88 -2.88c-1.26,-0.42 -2.59,-0.7 -3.96,-0.83l-1.41 1.41 0 2.04c0.85,0 1.69,0.11 2.49,0.26z"/>
   <path class="fil4" d="M919.9 493l2.47 -2.47c-0.91,-0.72 -1.88,-1.35 -2.92,-1.88l-2.64 2.64c1.1,0.45 2.14,1.02 3.09,1.71z"/>
   <path class="fil5" d="M923.76 497.34l2.5 -2.5c-0.62,-0.96 -1.32,-1.86 -2.11,-2.68l-2.44 2.44c0.79,0.82 1.48,1.74 2.05,2.74z"/>
   <path class="fil6" d="M925.59 503.7l3.05 -3.05c-0.27,-1.26 -0.66,-2.47 -1.19,-3.61l-2.63 2.63c0.45,1.27 0.71,2.63 0.76,4.03z"/>
   <path class="fil2" d="M916.33 521.15l12.02 -12.02c0.44,-1.54 0.66,-3.17 0.66,-4.84 0,-0.21 0,-0.41 -0,-0.62l-3.75 3.76c-1.19,5.22 -5.31,9.34 -10.54,10.54l-3.04 3.04 0 0.64 0.15 0.16c1.55,-0.03 3.06,-0.25 4.49,-0.65z"/>
   <path class="fil7" d="M913.85 521.66l6.1 -6.1c-2.3,1.71 -5.18,2.72 -8.26,2.74l0 3.36 0.15 0.15c0.68,-0.01 1.35,-0.06 2.01,-0.14zm9.02 -9.02l6 -6c0.1,-0.77 0.15,-1.56 0.15,-2.35 0,-3.48 -1,-6.71 -2.75,-9.44l-2.49 2.49c1.18,2.06 1.83,4.41 1.83,6.94l0 0c0,3.12 -1.01,6.02 -2.74,8.35z"/>
   <path class="fil7" d="M929.02 504.25l-3.95 3.95c-1.33,4.6 -4.95,8.22 -9.56,9.56l-3.81 3.82 0 0.08 0.15 0.15c9.52,-0.18 17.18,-7.95 17.18,-17.51 0,-0.01 0,-0.03 0,-0.04z"/>
   <polygon class="fil2" points="860.8,518.3 911.69,518.3 911.69,521.81 857.38,521.81 860.8,518.3 "/>
   <polygon class="fil3" points="857.38,486.74 857.38,486.74 857.38,521.81 860.8,518.3 860.8,490.27 911.69,490.27 911.69,486.74 857.38,486.74 "/>
   <polygon class="fil2" points="825.77,458.73 825.77,605.88 829.27,602.4 829.27,462.25 915.26,462.2 915.26,458.73 825.77,458.73 "/>
   <path class="fil7" d="M564.96 823.2l3.21 -3.21c-1.92,-0.26 -3.9,-0.38 -5.88,-0.4l0 3.51c0.9,0.01 1.8,0.04 2.67,0.1z"/>
   <path class="fil7" d="M576.09 825.48l2.7 -2.7c-3.63,-1.44 -7.48,-2.43 -11.5,-2.89l-3.25 3.26c4.21,0.18 8.25,0.99 12.05,2.33z"/>
   <path class="fil2" d="M579.67 826.94l2.6 -2.6c-4.54,-2.27 -9.51,-3.79 -14.76,-4.42l-3.24 3.24c5.48,0.27 10.67,1.6 15.4,3.78z"/>
   <path class="fil6" d="M591.06 834.69l2.44 -2.44c-3.32,-3.18 -7.1,-5.86 -11.26,-7.92l-2.6 2.6c4.23,1.95 8.08,4.58 11.42,7.76z"/>
   <path class="fil5" d="M599.32 845.59l2.54 -2.54c-2.24,-4.02 -5.07,-7.67 -8.36,-10.82l-2.44 2.44c3.32,3.15 6.11,6.83 8.26,10.91z"/>
   <path class="fil4" d="M603.86 860.19l3.02 -3.02c-0.9,-5.05 -2.62,-9.81 -5.03,-14.15l-2.54 2.54c2.35,4.46 3.93,9.4 4.55,14.63z"/>
   <path class="fil3" d="M576.49 906.7l3.3 -3.3c-2.07,0.97 -4.25,1.77 -6.49,2.39l0.04 0.03 3.15 0.87zm23.76 -23.77l5.74 -5.74c1.03,-3.82 1.57,-7.82 1.57,-11.97l0 0c0,-2.75 -0.23,-5.47 -0.7,-8.08l-3.01 3.02c0.19,1.66 0.28,3.35 0.28,5.06 0,6.33 -1.38,12.32 -3.89,17.7z"/>
   <path class="fil3" d="M607.49 862.49l-3.35 3.35c-0.27,19.07 -13.25,35.07 -30.83,39.95l0.04 0.04 5.89 1.64c16.62,-6.83 28.33,-23.17 28.33,-42.24l0 0c0,-0.92 -0.02,-1.83 -0.08,-2.74z"/>
   <polygon class="fil3" points="495.53,907.2 495.53,963.27 467.51,963.27 464,966.75 499.03,966.75 499.02,966.75 499.03,966.75 499.03,910.71 539.31,910.71 541.07,907.2 495.53,907.2 "/>
   <polygon class="fil3" points="616.41,963.27 573.25,905.81 579.23,907.47 623.43,966.75 581.37,966.75 583.12,963.27 616.41,963.27 "/>
   <polygon class="fil2" points="464,819.59 467.51,823.1 562.29,823.1 562.29,819.59 464,819.59 "/>
   <polygon class="fil2" points="467.51,963.27 467.51,823.1 464,819.59 464,966.75 467.51,963.27 "/>
   <polygon class="fil2" points="583.11,963.27 541.07,907.2 539.31,910.72 581.37,966.75 583.11,963.27 "/>
   <polygon class="fil2" points="467.51,781.07 467.51,640.92 464.01,637.41 464.01,784.55 467.51,781.07 "/>
   <polygon class="fil3" points="467.51,781.07 593.64,781.07 597.15,784.55 464.01,784.55 467.51,781.07 "/>
   <polygon class="fil3" points="593.64,781.07 593.64,756.55 597.15,753.03 597.15,784.55 593.64,781.07 "/>
   <polygon class="fil2" points="499.03,753.03 597.15,753.03 593.64,756.55 495.54,756.55 499.03,753.03 "/>
   <polygon class="fil3" points="495.54,721.52 495.54,756.55 499.03,753.03 499.03,724.99 495.54,721.52 "/>
   <polygon class="fil3" points="495.54,721.52 590.13,721.52 593.64,724.99 499.03,724.99 495.54,721.52 "/>
   <polygon class="fil3" points="590.13,721.52 590.13,696.98 593.64,693.47 593.64,724.99 590.13,721.52 "/>
   <polygon class="fil3" points="495.54,665.41 495.54,696.98 499.03,693.47 499.03,668.96 495.54,665.41 "/>
   <polygon class="fil2" points="499.03,693.47 593.64,693.47 590.13,696.98 495.54,696.98 499.03,693.47 "/>
   <polygon class="fil3" points="495.54,665.41 593.64,665.41 597.15,668.96 499.03,668.96 495.54,665.41 "/>
   <polygon class="fil3" points="593.64,665.41 593.64,640.92 597.15,637.41 597.15,668.96 593.64,665.41 "/>
   <polygon class="fil2" points="464.01,637.41 597.15,637.41 593.64,640.92 467.51,640.92 464.01,637.41 "/>
   <polygon class="fil2" points="530.56,309.82 562.08,374.63 556.39,371.14 530.56,317.69 530.56,309.82 "/>
   <polygon class="fil2" points="513.5,280.04 547.6,280.04 545.44,283.55 515.66,283.55 513.5,280.04 "/>
   <polygon class="fil3" points="547.6,280.04 621.2,427.18 615.52,423.7 545.44,283.55 547.6,280.04 "/>
   <polygon class="fil2" points="515.66,283.55 513.5,280.04 439.93,427.18 445.58,423.7 515.66,283.55 "/>
   <polygon class="fil3" points="439.93,427.18 445.58,423.7 475.37,423.7 477.54,427.18 439.93,427.18 "/>
   <polygon class="fil3" points="475.37,423.7 487.2,399.18 489.4,402.66 477.54,427.18 475.37,423.7 "/>
   <polygon class="fil2" points="573.92,399.18 585.74,423.7 583.58,427.18 571.73,402.66 573.92,399.18 "/>
   <polygon class="fil3" points="585.74,423.7 615.52,423.7 621.2,427.18 583.58,427.18 585.74,423.7 "/>
   <polygon class="fil2" points="499.03,374.63 504.71,371.14 556.39,371.14 562.08,374.63 499.03,374.63 "/>
   <polygon class="fil3" points="499.03,374.63 530.56,309.82 530.56,317.69 504.71,371.14 499.03,374.63 "/>
   <polygon class="fil3" points="487.2,399.18 573.92,399.18 571.73,402.66 489.4,402.66 487.2,399.18 "/>
   <polygon class="fil3" points="495.55,132.75 495.55,164.27 499.06,160.78 499.06,136.26 560.35,136.26 560.35,132.75 495.55,132.75 "/>
   <path class="fil3" d="M566.79 138.1l2.53 -2.54c-2.55,-1.77 -5.64,-2.82 -8.97,-2.82l0 3.51c2.36,0 4.57,0.69 6.44,1.84z"/>
   <path class="fil3" d="M562.06 136.39l2.93 -2.93c-1.47,-0.46 -3.03,-0.71 -4.64,-0.71l0 3.51c0.58,0 1.16,0.05 1.71,0.13z"/>
   <path class="fil4" d="M567.54 138.61l2.51 -2.51c-1.89,-1.48 -4.12,-2.54 -6.57,-3.03l-3.12 3.13 0 0.07c2.68,0 5.17,0.88 7.18,2.34z"/>
   <path class="fil5" d="M571.13 142.67l2.57 -2.56c-1.22,-1.93 -2.85,-3.57 -4.76,-4.82l-2.56 2.56c2.01,1.13 3.65,2.8 4.76,4.82z"/>
   <path class="fil6" d="M560.35 161.14l0.34 -0.34c-0.11,0.01 -0.23,0 -0.34,0l0 0 0 0.34zm12.27 -12.26l3.24 -3.24c-0.46,-2.46 -1.48,-4.73 -2.94,-6.65l-2.51 2.51c1.4,2 2.22,4.4 2.22,7.02 0,0.11 0.01,0.24 0,0.35z"/>
   <path class="fil2" d="M565.89 163.3l9.25 -9.25c0.64,-1.72 0.99,-3.58 0.99,-5.52 0,-1.55 -0.21,-3.02 -0.62,-4.43l-2.96 2.96c0.07,0.49 0.09,0.97 0.09,1.47 0,6.77 -5.5,12.27 -12.27,12.27l0 0 0 3.39 0.09 0.09c1.92,-0.01 3.75,-0.35 5.44,-0.98z"/>
   <path class="fil7" d="M562.5 164.14l13.48 -13.49c0.09,-0.69 0.13,-1.41 0.13,-2.12 0,-2.24 -0.47,-4.36 -1.31,-6.29l-2.72 2.72c0.35,1.14 0.53,2.32 0.53,3.57 0,6.77 -5.5,12.27 -12.27,12.27l0 0 0 3.38 0.09 0.09c0.69,-0 1.38,-0.05 2.05,-0.13z"/>
   <path class="fil7" d="M575.42 153.21l-10.37 10.37c4.94,-1.54 8.84,-5.43 10.37,-10.37z"/>
   <polygon class="fil2" points="560.35,160.78 499.06,160.78 495.55,164.27 560.35,164.27 560.35,160.78 "/>
   <polygon class="fil3" points="495.55,188.81 495.55,223.86 499.06,220.35 499.06,192.31 562.16,192.31 562.16,188.81 495.55,188.81 "/>
   <path class="fil3" d="M569.2 194.22l0.9 -0.9 -4.08 -4.08c-1.23,-0.27 -2.54,-0.44 -3.85,-0.44l0 3.5c2.56,0 4.97,0.71 7.03,1.91z"/>
   <path class="fil3" d="M564.91 192.58l2.85 -2.85c-1.26,-0.43 -2.59,-0.71 -3.96,-0.84l-1.64 1.64 0 1.77c0.94,0 1.86,0.09 2.75,0.27z"/>
   <path class="fil4" d="M570.57 195.12l2.48 -2.48c-0.9,-0.72 -1.87,-1.35 -2.92,-1.89l-2.63 2.64c1.1,0.45 2.13,1.03 3.06,1.74z"/>
   <path class="fil5" d="M574.39 199.49l2.54 -2.54c-0.61,-0.96 -1.31,-1.87 -2.1,-2.69l-2.47 2.47c0.78,0.83 1.47,1.76 2.03,2.76z"/>
   <path class="fil6" d="M576.14 205.93l3.13 -3.14c-0.26,-1.27 -0.64,-2.48 -1.16,-3.63l-2.69 2.69c0.43,1.29 0.68,2.66 0.72,4.08z"/>
   <path class="fil2" d="M567.1 223.14l11.81 -11.8c0.47,-1.59 0.72,-3.28 0.72,-5.03 0,-0.17 0.01,-0.32 0,-0.48l-3.89 3.89c-1.24,5.04 -5.2,9 -10.23,10.23l-3.34 3.35 0 0.43 0.09 0.09c1.68,-0.01 3.32,-0.24 4.85,-0.69z"/>
   <path class="fil7" d="M564.61 223.68l6.75 -6.76c-2.45,2.14 -5.68,3.43 -9.19,3.43l0 0 0 3.39 0.09 0.09c0.8,-0 1.58,-0.06 2.35,-0.16zm8.07 -8.07l6.78 -6.78c0.11,-0.82 0.17,-1.66 0.17,-2.51 0,-3.45 -0.98,-6.65 -2.69,-9.36l-2.54 2.55c1.13,2.02 1.75,4.34 1.75,6.82 0,3.56 -1.3,6.81 -3.47,9.29z"/>
   <path class="fil7" d="M579.63 206.41l-4.11 4.11c-1.37,4.41 -4.83,7.88 -9.23,9.23l-4.06 4.05 0.03 0.03c9.6,-0.05 17.32,-7.82 17.37,-17.42z"/>
   <polygon class="fil2" points="562.16,220.35 499.06,220.35 495.55,223.86 562.16,223.83 562.16,220.35 "/>
   <polygon class="fil2" points="467.52,248.37 467.52,108.25 464.01,104.71 464.01,251.91 467.52,248.37 "/>
   <polygon class="fil2" points="464.01,104.71 564.82,104.71 564.82,108.25 467.52,108.25 464.01,104.71 "/>
   <path class="fil7" d="M566.91 108.31l3.25 -3.26c-1.74,-0.22 -3.54,-0.34 -5.34,-0.34l0 3.54c0.7,0 1.4,0.03 2.09,0.07z"/>
   <path class="fil7" d="M577.75 110.45l2.75 -2.75c-3.64,-1.44 -7.53,-2.4 -11.58,-2.79l-3.35 3.35c4.26,0.09 8.36,0.86 12.18,2.19z"/>
   <path class="fil2" d="M581.42 111.94l2.6 -2.6 -0.12 -0.12c-4.49,-2.24 -9.44,-3.72 -14.65,-4.27l-3.33 3.32c5.53,0.16 10.76,1.46 15.5,3.66z"/>
   <path class="fil6" d="M592.73 119.87l0.92 -0.91 -9.59 -9.58 -2.58 2.58c4.21,1.98 8.02,4.66 11.26,7.91z"/>
   <path class="fil5" d="M600.62 131.25l2.61 -2.61c-0.02,-0.05 -0.05,-0.1 -0.07,-0.15l-9.47 -9.47 -0.91 0.91c3.23,3.27 5.9,7.09 7.85,11.32z"/>
   <path class="fil4" d="M604.18 146.96l3.3 -3.3c-0.49,-5.33 -1.95,-10.37 -4.21,-14.95l-2.61 2.61c2.19,4.78 3.42,10.07 3.52,15.65z"/>
   <path class="fil3" d="M595.03 175.35l7.7 -7.7c3.15,-5.97 4.92,-12.79 4.92,-20.01 0,-1.32 -0.06,-2.61 -0.17,-3.9l-3.3 3.3c0,0.2 0,0.4 0,0.6l0 0c0,10.87 -4.4,20.7 -11.5,27.83l2.35 -0.11z"/>
   <path class="fil3" d="M607.66 148.1l-3.68 3.68c-0.96,9.22 -5.1,17.48 -11.29,23.69l4.94 -0.24c6.17,-7.36 9.92,-16.81 10.03,-27.13z"/>
   <path class="fil3" d="M607.61 207.23c0,-12.79 -5.82,-24.2 -14.95,-31.76l4.95 -0.24c8.33,8.1 13.51,19.44 13.51,32 0,24.62 -19.98,44.64 -44.62,44.68l-0 -3.54c22.71,-0.04 41.11,-18.44 41.11,-41.14l0 0z"/>
   <polygon class="fil3" points="467.52,248.37 566.51,248.37 566.51,251.91 464.01,251.91 467.52,248.37 "/>
   <path class="fil8" d="M888.07 918.33l30.31 -30.3c62.54,-67.81 107.48,-152.06 127.66,-245.54l-74.56 74.56c-48.4,114.38 -140.03,206 -254.41,254.4l-74.55 74.56c93.48,-20.18 177.75,-65.14 245.55,-127.68z"/>
   <path class="fil9" d="M3.73 530.81l51.61 -51.61c23.92,-222.91 200.98,-399.95 423.88,-423.87l51.63 -51.62c-0,0 -0,0 -0.01,0 -291.13,0 -527.1,236 -527.1,527.08 0,0.01 0,0.01 0,0.02z"/>
   <path class="fil8" d="M1039.62 669.07l-86.6 86.6c-10.5,19.66 -22.34,38.52 -35.38,56.42l112.78 -112.78c3.35,-9.95 6.43,-20.04 9.2,-30.24zm-283.9 283.9l-86.59 86.59c10.2,-2.77 20.28,-5.83 30.23,-9.18l112.78 -112.78c-17.91,13.05 -36.75,24.87 -56.42,35.37z"/>
   <path class="fil10" d="M1048.16 632.41l-71.27 71.28c-7.13,18.36 -15.35,36.17 -24.6,53.36l87.09 -87.1c3.37,-12.34 6.31,-24.84 8.78,-37.54zm-344.4 344.4l-71.27 71.27c12.67,-2.48 25.19,-5.41 37.52,-8.78l87.08 -87.08c-17.17,9.24 -34.98,17.46 -53.34,24.58z"/>
   <path class="fil11" d="M1053.59 598.88l-62.57 62.57c-4.18,14.75 -9.04,29.19 -14.57,43.33l71.54 -71.54c2.23,-11.32 4.1,-22.79 5.59,-34.36zm-392.09 392.1l-62.55 62.55c11.57,-1.49 23.03,-3.37 34.35,-5.6l71.54 -71.54c-14.13,5.52 -28.59,10.4 -43.33,14.58z"/>
   <path class="fil12" d="M1056.67 567.7l-56.73 56.73c-2.55,12.84 -5.61,25.48 -9.17,37.93l62.72 -62.72c1.37,-10.55 2.44,-21.21 3.18,-31.94zm-432.19 432.19l-56.74 56.74c10.74,-0.74 21.4,-1.82 31.95,-3.19l62.71 -62.71c-12.44,3.56 -25.09,6.62 -37.92,9.16z"/>
   <path class="fil13" d="M1057.88 538.38l-52.52 52.52c-1.46,11.57 -3.32,23.03 -5.58,34.33l56.84 -56.85c0.7,-9.93 1.12,-19.93 1.27,-30.01zm-466.95 466.94l-52.53 52.53c10.08,-0.14 20.08,-0.56 30.02,-1.27l56.86 -56.85c-11.31,2.27 -22.76,4.13 -34.35,5.59z"/>
   <path class="fil14" d="M1057.51 510.65l-49.28 49.27c-0.64,10.67 -1.63,21.25 -2.96,31.71l52.6 -52.61c0.04,-2.73 0.05,-5.49 0.05,-8.23l0 0c0,-6.75 -0.16,-13.45 -0.42,-20.15zm-497.55 497.54l-49.29 49.29c6.69,0.25 13.4,0.43 20.15,0.43 2.75,0 5.5,-0.03 8.25,-0.07l52.61 -52.61c-10.47,1.33 -21.05,2.33 -31.71,2.97z"/>
   <path class="fil15" d="M1055.85 484.18l-46.76 46.76c0,9.96 -0.3,19.86 -0.9,29.67l49.34 -49.35c-0.35,-9.08 -0.89,-18.12 -1.68,-27.08zm-524.89 524.89l-46.75 46.75c8.96,0.79 18,1.33 27.08,1.67l49.36 -49.35c-9.81,0.6 -19.72,0.92 -29.68,0.92z"/>
   <path class="fil16" d="M1053.04 458.89l-44.73 44.72c0.5,9.01 0.78,18.06 0.78,27.2 0,0.26 0,0.53 0,0.79l46.82 -46.82c-0.76,-8.69 -1.71,-17.32 -2.87,-25.89zm-549.4 549.39l-44.71 44.71c8.57,1.17 17.2,2.12 25.89,2.88l46.81 -46.81c-0.27,0 -0.53,0 -0.8,0 -9.13,0 -18.18,-0.29 -27.18,-0.79z"/>
   <path class="fil17" d="M1049.16 434.67l-43.01 43.01c0.97,8.78 1.7,17.64 2.2,26.55l44.77 -44.76c-1.12,-8.33 -2.45,-16.59 -3.95,-24.79zm-571.45 571.45l-43.01 43c8.2,1.51 16.48,2.82 24.81,3.95l44.75 -44.76c-8.91,-0.5 -17.77,-1.23 -26.55,-2.2z"/>
   <path class="fil18" d="M1044.33 411.37l-41.58 41.58c1.37,8.37 2.53,16.8 3.46,25.3l43.05 -43.05c-1.47,-8.01 -3.1,-15.96 -4.93,-23.84zm-591.34 591.35l-41.58 41.58c7.88,1.83 15.82,3.45 23.82,4.92l43.05 -43.05c-8.5,-0.94 -16.93,-2.09 -25.29,-3.46z"/>
   <path class="fil19" d="M1038.62 388.99l-40.35 40.34c1.73,7.99 3.26,16.05 4.58,24.19l41.62 -41.62c-1.78,-7.71 -3.74,-15.34 -5.85,-22.91zm-609.24 609.25l-40.33 40.33c7.57,2.11 15.19,4.08 22.9,5.86l41.61 -41.61c-8.13,-1.33 -16.19,-2.85 -24.18,-4.58z"/>
   <path class="fil20" d="M1032.08 367.43l-39.28 39.28c2.05,7.65 3.91,15.37 5.59,23.17l40.37 -40.37c-2.06,-7.42 -4.3,-14.79 -6.67,-22.08zm-625.35 625.35l-39.28 39.28c7.3,2.38 14.66,4.6 22.09,6.67l40.36 -40.36c-7.79,-1.67 -15.52,-3.54 -23.17,-5.59z"/>
   <path class="fil21" d="M1024.81 346.58l-38.39 38.39c2.34,7.33 4.52,14.75 6.51,22.24l39.3 -39.3c-2.33,-7.18 -4.8,-14.29 -7.42,-21.33zm-639.82 639.81l-38.39 38.39c7.04,2.63 14.14,5.09 21.32,7.42l39.3 -39.3c-7.49,-2 -14.9,-4.17 -22.24,-6.51z"/>
   <path class="fil22" d="M1016.83 326.45l-37.63 37.63c2.62,7.05 5.08,14.19 7.37,21.39l38.41 -38.41c-2.58,-6.94 -5.3,-13.81 -8.16,-20.6zm-652.72 652.73l-37.64 37.64c6.79,2.86 13.68,5.56 20.61,8.14l38.4 -38.4c-7.2,-2.29 -14.33,-4.76 -21.37,-7.38z"/>
   <path class="fil23" d="M1008.16 307.01l-36.95 36.95c2.88,6.78 5.6,13.65 8.17,20.58l37.65 -37.64c-2.82,-6.71 -5.78,-13.33 -8.87,-19.9zm-664.18 664.18l-36.94 36.94c6.56,3.08 13.19,6.05 19.89,8.87l37.64 -37.65c-6.94,-2.57 -13.81,-5.28 -20.59,-8.16z"/>
   <path class="fil24" d="M998.87 288.2l-36.41 36.41c3.12,6.52 6.12,13.13 8.95,19.81l36.96 -36.96c-3.04,-6.49 -6.2,-12.92 -9.49,-19.26zm-674.24 674.24l-36.41 36.4c6.35,3.3 12.77,6.46 19.26,9.5l36.95 -36.95c-6.69,-2.83 -13.28,-5.83 -19.8,-8.95z"/>
   <path class="fil25" d="M988.97 270l-35.95 35.95c3.35,6.28 6.58,12.64 9.65,19.09l36.43 -36.42c-3.25,-6.28 -6.63,-12.49 -10.13,-18.62zm-682.98 682.98l-35.95 35.95c6.13,3.5 12.34,6.87 18.62,10.13l36.42 -36.42c-6.45,-3.07 -12.81,-6.3 -19.09,-9.65z"/>
   <path class="fil26" d="M978.44 252.4l-35.55 35.55c3.57,6.05 7.03,12.2 10.34,18.42l35.96 -35.96c-3.46,-6.08 -7.06,-12.08 -10.75,-18.01zm-690.45 690.46l-35.55 35.55c5.93,3.69 11.92,7.29 18,10.75l35.96 -35.96c-6.22,-3.31 -12.35,-6.76 -18.41,-10.34z"/>
   <path class="fil27" d="M967.39 235.36l-35.24 35.24c3.79,5.84 7.45,11.76 10.99,17.77l35.56 -35.56c-3.66,-5.89 -7.42,-11.72 -11.31,-17.45zm-696.76 696.77l-35.25 35.24c5.73,3.89 11.58,7.63 17.46,11.29l35.56 -35.55c-6.01,-3.54 -11.94,-7.19 -17.77,-10.98z"/>
   <path class="fil28" d="M955.74 218.9l-34.95 34.95c4,5.61 7.85,11.34 11.61,17.13l35.25 -35.25c-3.85,-5.7 -7.84,-11.3 -11.91,-16.84zm-701.86 701.86l-34.95 34.94c5.54,4.07 11.14,8.06 16.84,11.92l35.25 -35.25c-5.8,-3.75 -11.52,-7.62 -17.14,-11.61z"/>
   <path class="fil29" d="M943.56 202.97l-34.78 34.78c4.2,5.41 8.31,10.89 12.28,16.48l34.95 -34.96c-4.04,-5.52 -8.19,-10.95 -12.45,-16.31zm-705.78 705.78l-34.78 34.78c5.35,4.25 10.79,8.39 16.31,12.44l34.95 -34.95c-5.59,-3.97 -11.07,-8.07 -16.47,-12.27z"/>
   <path class="fil30" d="M930.84 187.58l-34.65 34.65c4.4,5.2 8.7,10.5 12.87,15.89l34.79 -34.79c-4.23,-5.33 -8.58,-10.59 -13.01,-15.75zm-708.58 708.59l-34.65 34.64c5.16,4.43 10.42,8.77 15.75,13l34.79 -34.78c-5.39,-4.18 -10.68,-8.46 -15.89,-12.86z"/>
   <path class="fil31" d="M917.58 172.74l-34.54 34.55c4.59,5 9.08,10.11 13.46,15.3l34.65 -34.65c-4.42,-5.15 -8.95,-10.22 -13.56,-15.2zm-710.27 710.28l-34.54 34.54c4.98,4.61 10.03,9.14 15.19,13.56l34.65 -34.65c-5.19,-4.38 -10.3,-8.85 -15.3,-13.45z"/>
   <path class="fil32" d="M903.82 158.39l-34.53 34.53c4.78,4.79 9.47,9.71 14.05,14.7l34.55 -34.55c-4.59,-4.97 -9.28,-9.89 -14.07,-14.68zm-710.9 710.89l-34.53 34.52c4.8,4.79 9.72,9.45 14.7,14.06l34.54 -34.54c-5,-4.59 -9.91,-9.25 -14.72,-14.04z"/>
   <path class="fil33" d="M889.49 144.62l-34.54 34.55c4.98,4.59 9.88,9.27 14.66,14.08l34.53 -34.53c-4.79,-4.8 -9.68,-9.48 -14.65,-14.1zm-710.31 710.31l-34.54 34.54c4.61,4.96 9.29,9.87 14.09,14.66l34.52 -34.52c-4.79,-4.78 -9.47,-9.69 -14.07,-14.67z"/>
   <path class="fil33" d="M882.25 138l-34.59 34.59c5.08,4.5 10.07,9.09 14.96,13.79l34.53 -34.53c-4.87,-4.72 -9.84,-9.34 -14.89,-13.86zm-709.64 709.64l-34.58 34.58c4.53,5.06 9.15,10.03 13.86,14.91l34.52 -34.52c-4.71,-4.89 -9.3,-9.89 -13.8,-14.97z"/>
   <path class="fil34" d="M867.22 125.03l-34.71 34.71c5.28,4.29 10.45,8.7 15.54,13.2l34.59 -34.59c-5.05,-4.53 -10.19,-8.98 -15.42,-13.32zm-707.48 707.46l-34.7 34.7c4.34,5.23 8.79,10.36 13.33,15.42l34.58 -34.58c-4.51,-5.09 -8.92,-10.27 -13.21,-15.55z"/>
   <path class="fil35" d="M851.63 112.6l-34.83 34.83c5.48,4.09 10.84,8.32 16.13,12.63l34.7 -34.7c-5.24,-4.36 -10.59,-8.61 -16,-12.76zm-704.17 704.18l-34.82 34.82c4.15,5.41 8.4,10.75 12.76,16l34.69 -34.69c-4.31,-5.29 -8.54,-10.66 -12.63,-16.13z"/>
   <path class="fil36" d="M835.54 100.68l-35.09 35.09c5.68,3.88 11.28,7.87 16.77,11.99l34.83 -34.83c-5.43,-4.18 -10.92,-8.27 -16.51,-12.24zm-699.76 699.75l-35.08 35.08c3.97,5.59 8.07,11.09 12.25,16.5l34.82 -34.82c-4.12,-5.5 -8.1,-11.09 -11.99,-16.76z"/>
   <path class="fil37" d="M818.86 89.36l-35.36 35.36c5.88,3.67 11.68,7.45 17.39,11.36l35.09 -35.09c-5.62,-4 -11.34,-7.86 -17.12,-11.63zm-694.13 694.13l-35.36 35.35c3.78,5.78 7.64,11.5 11.63,17.12l35.08 -35.08c-3.91,-5.71 -7.7,-11.51 -11.36,-17.39z"/>
   <path class="fil38" d="M801.65 78.55l-35.72 35.72c6.1,3.45 12.1,7.03 18.03,10.73l35.36 -35.36c-5.81,-3.81 -11.7,-7.51 -17.67,-11.1zm-687.37 687.37l-35.7 35.7c3.58,5.97 7.28,11.86 11.09,17.67l35.35 -35.35c-3.7,-5.92 -7.29,-11.93 -10.73,-18.03z"/>
   <path class="fil39" d="M783.86 68.34l-36.13 36.13c6.32,3.22 12.55,6.59 18.69,10.08l35.71 -35.71c-6.01,-3.62 -12.1,-7.12 -18.27,-10.5zm-679.37 679.37l-36.13 36.13c3.38,6.16 6.88,12.25 10.5,18.25l35.7 -35.7c-3.48,-6.14 -6.85,-12.37 -10.07,-18.69z"/>
   <path class="fil40" d="M765.47 58.73l-36.64 36.64c6.55,2.98 13.03,6.09 19.41,9.35l36.12 -36.11c-6.22,-3.41 -12.52,-6.71 -18.88,-9.88zm-670.09 670.09l-36.62 36.62c3.17,6.36 6.46,12.66 9.88,18.87l36.1 -36.1c-3.27,-6.38 -6.38,-12.85 -9.36,-19.39z"/>
   <path class="fil41" d="M746.47 49.72l-37.25 37.25c6.78,2.73 13.49,5.61 20.11,8.63l36.63 -36.62c-6.43,-3.21 -12.92,-6.31 -19.49,-9.26zm-659.49 659.49l-37.24 37.24c2.95,6.58 6.06,13.06 9.27,19.49l36.61 -36.61c-3.03,-6.63 -5.91,-13.34 -8.64,-20.12z"/>
   <path class="fil42" d="M726.8 41.38l-37.94 37.94c7.04,2.46 14.01,5.08 20.89,7.86l37.24 -37.24c-6.65,-2.99 -13.39,-5.84 -20.18,-8.56zm-647.47 647.47l-37.93 37.93c2.72,6.8 5.57,13.53 8.56,20.19l37.23 -37.23c-2.78,-6.88 -5.41,-13.85 -7.87,-20.89z"/>
   <path class="fil43" d="M706.45 33.73l-38.75 38.74c7.31,2.18 14.55,4.53 21.7,7.05l37.92 -37.92c-6.88,-2.77 -13.85,-5.38 -20.88,-7.87zm-633.97 633.97l-38.74 38.74c2.48,7.03 5.11,13.98 7.88,20.87l37.91 -37.91c-2.51,-7.15 -4.86,-14.39 -7.05,-21.7z"/>
   <path class="fil44" d="M685.39 26.77l-39.71 39.71c7.6,1.87 15.14,3.92 22.6,6.16l38.72 -38.72c-7.14,-2.53 -14.33,-4.92 -21.61,-7.15zm-618.91 618.92l-39.69 39.69c2.22,7.27 4.61,14.47 7.15,21.6l38.71 -38.72c-2.23,-7.45 -4.29,-14.98 -6.16,-22.58z"/>
   <path class="fil45" d="M663.56 20.59l-40.83 40.83c7.93,1.54 15.78,3.29 23.55,5.22l39.68 -39.68c-7.41,-2.28 -14.86,-4.4 -22.41,-6.36zm-602.15 602.16l-40.81 40.81c1.95,7.53 4.08,15 6.35,22.39l39.67 -39.67c-1.93,-7.78 -3.67,-15.62 -5.22,-23.54z"/>
   <path class="fil46" d="M640.88 15.26l-42.13 42.12c8.27,1.18 16.48,2.56 24.61,4.15l40.79 -40.79c-7.69,-2.01 -15.46,-3.83 -23.28,-5.49zm-583.49 583.49l-42.11 42.1c1.66,7.83 3.48,15.58 5.49,23.28l40.77 -40.77c-1.6,-8.14 -2.97,-16.34 -4.15,-24.61z"/>
   <path class="fil47" d="M617.31 10.83l-43.66 43.66c8.66,0.77 17.25,1.76 25.77,2.99l42.08 -42.08c-8,-1.71 -16.07,-3.23 -24.2,-4.57zm-562.83 562.81l-43.65 43.65c1.34,8.13 2.86,16.2 4.58,24.2l42.06 -42.06c-1.23,-8.52 -2.22,-17.13 -2.99,-25.79z"/>
   <path class="fil48" d="M592.77 7.36l-45.5 45.5c9.09,0.31 18.12,0.87 27.08,1.68l43.61 -43.61c-8.34,-1.39 -16.74,-2.58 -25.19,-3.57zm-539.9 539.89l-45.49 45.49c0.99,8.46 2.19,16.86 3.57,25.19l43.6 -43.59c-0.81,-8.96 -1.37,-18 -1.68,-27.1z"/>
   <path class="fil49" d="M567.15 4.99l-47.72 47.72c3.79,-0.09 7.58,-0.16 11.39,-0.16 5.75,0 11.46,0.15 17.16,0.35l45.46 -45.45c-8.7,-1.02 -17.47,-1.85 -26.29,-2.45zm-514.44 514.44l-47.71 47.7c0.6,8.83 1.43,17.59 2.46,26.3l45.44 -45.44c-0.19,-5.69 -0.34,-11.42 -0.34,-17.17l0 0 0 0c0,-3.81 0.06,-7.6 0.15,-11.39z"/>
   <path class="fil50" d="M540.27 3.84l-50.49 50.49c10.05,-0.85 20.18,-1.4 30.4,-1.64l47.65 -47.66c-9.12,-0.63 -18.32,-1.03 -27.56,-1.19zm-485.95 485.95l-50.48 50.48c0.17,9.24 0.56,18.43 1.19,27.55l47.64 -47.65c0.23,-10.21 0.78,-20.34 1.64,-30.38z"/>
   <path class="fil51" d="M512.05 4.05l-54.02 54.02c10.75,-1.65 21.62,-2.9 32.58,-3.81l50.41 -50.41c-3.39,-0.06 -6.79,-0.14 -10.2,-0.14 -6.29,0 -12.54,0.12 -18.78,0.34zm-453.98 453.99l-54.01 54c-0.22,6.23 -0.34,12.46 -0.34,18.75 0,3.41 0.07,6.8 0.13,10.2l50.39 -50.39c0.92,-10.96 2.17,-21.82 3.82,-32.56z"/>
   <path class="fil52" d="M482.15 5.95l-58.74 58.74c11.68,-2.67 23.52,-4.93 35.5,-6.74l53.93 -53.92c-10.3,0.35 -20.54,0.99 -30.69,1.92zm-417.47 417.47l-58.73 58.73c-0.93,10.15 -1.57,20.37 -1.92,30.67l53.91 -53.91c1.81,-11.98 4.07,-23.82 6.74,-35.49z"/>
   <path class="fil53" d="M450.23 9.87l-65.43 65.43c12.96,-4.15 26.16,-7.77 39.58,-10.82l58.61 -58.61c-11.02,1 -21.94,2.33 -32.76,4zm-374.93 374.93l-65.42 65.42c-1.66,10.82 -3,21.73 -4,32.76l58.59 -58.6c3.05,-13.42 6.67,-26.62 10.82,-39.58z"/>
   <path class="fil54" d="M415.73 16.36l-75.91 75.91c14.98,-6.54 30.36,-12.32 46.08,-17.32l65.21 -65.22c-11.92,1.82 -23.73,4.03 -35.38,6.63zm-323.46 323.46l-75.89 75.89c-2.6,11.66 -4.81,23.45 -6.63,35.39l65.2 -65.2c5,-15.73 10.79,-31.11 17.32,-46.08z"/>
   <path class="fil55" d="M377.73 26.35l-96.4 96.39c19.1,-11.7 39.09,-22.08 59.82,-31.06l75.54 -75.54c-13.18,2.92 -26.18,6.32 -38.96,10.2zm-255 255l-96.37 96.37c-3.88,12.79 -7.28,25.79 -10.2,38.96l75.52 -75.52c8.98,-20.74 19.36,-40.72 31.06,-59.81z"/>
   <path class="fil9" d="M26.03 378.8l95.5 -95.5c40.05,-66.09 95.67,-121.7 161.76,-161.77l95.52 -95.52c-11.04,3.32 -21.94,6.98 -32.66,10.99l-309.12 309.13c-4.02,10.72 -7.68,21.62 -10.99,32.66z"/>
   <g>
    <path class="fil1" d="M1005.37 530.81c0,-262.09 -212.46,-474.55 -474.54,-474.55 -262.1,0 -474.55,212.46 -474.55,474.55 0,262.08 212.45,474.56 474.55,474.56 262.08,0 474.54,-212.48 474.54,-474.56l0 0 0 0zm-954.41 0c0,-265.02 214.84,-479.86 479.87,-479.86 265.03,0 479.86,214.83 479.86,479.86 0,265.02 -214.83,479.86 -479.86,479.86 -265.02,0 -479.87,-214.84 -479.87,-479.86l0 0z"/>
   </g>
   <g>
    <path class="fil1" d="M5.31 530.81c0,-290.23 235.27,-525.51 525.51,-525.51 290.23,0 525.5,235.27 525.5,525.51 0,290.24 -235.27,525.51 -525.5,525.51 -290.24,0 -525.51,-235.27 -525.51,-525.51l0 0 0 0zm1056.32 -0.02c0,293.16 -237.66,530.84 -530.81,530.84 -293.17,0 -530.82,-237.67 -530.82,-530.84 0,-293.15 237.65,-530.8 530.82,-530.8 293.15,0 530.81,237.65 530.81,530.8l0 0z"/>
   </g>
   <g>
    <g>
     <path class="fil56" d="M1445.38 717.36c87.06,0 143.18,-31.51 143.18,-111.11 0,-67.57 -48.1,-97.35 -103.66,-104.79l0 -1.18c53.84,-10.86 85.33,-44.07 85.33,-88.17 0,-31.52 -12.59,-54.99 -35.52,-70.45 -22.32,-14.89 -56.68,-21.18 -101.35,-20.6l-165.53 0 0 16.58c50.4,3.45 51.56,4.59 51.56,36.66l0 289.78c0,32.08 -1.16,33.23 -51.56,36.66l0 16.61 177.55 0 0 0 0 0zm408.58 -50.12c0,20.62 3.41,23.45 18.32,25.73l21.76 2.86 0 14.33 -87.04 14.32 -5.17 -34.35c-18.33,12.05 -49.9,33.29 -85.44,34.44 -53.9,0 -82.58,-38.4 -82.58,-81.4 0,-26.94 12.07,-55.59 53.33,-68.21 45.29,-14.38 100.91,-28.69 115.25,-43.61l0 -24.07c0,-45.89 -26.37,-57.32 -48.74,-57.32 -22.93,0 -46.44,13.74 -59.06,56.2 -2.87,9.73 -6.29,16.06 -18.34,16.06 -10.9,0 -32.11,-8.63 -32.11,-26.98 0,-31.54 51.03,-65.38 115.82,-65.38 86.56,0 94.03,43.05 94.03,76.3l-0.04 161.07 0 0 0 0zm563.08 -100.2l-164.95 0c-1.14,59.56 13.16,128.28 84.2,128.28 37.29,0 58.63,-18.67 73.95,-43.83l19.02 10.01c-17.61,36.35 -49.45,62.56 -104.43,63.03 -93.37,1.17 -132.29,-54.42 -132.29,-144.89 0,-85.9 42.37,-149.49 131.72,-149.49 104.81,0 115.69,81.36 115.69,115.13 0,18.9 -10.88,21.75 -22.91,21.75l0 0 0 0zm-1040.95 -52.99l41.23 0c71.03,0 109.97,35.52 109.97,96.23 0,68.72 -46.96,87.03 -96.22,87.03 -45.82,0 -54.98,-8.6 -54.98,-44.11l0 -139.15 0 0 0 0zm0 -144.35c0,-24.63 1.72,-28.03 46.38,-28.61 41.25,-0.58 87.64,15.47 87.64,74.44 0,56.14 -36.09,78.47 -95.65,78.47l-38.37 0 0 -124.31 0 0zm426.3 266.03c0,46.44 -35.55,58.47 -57.91,58.47 -35.55,0 -52.76,-25.22 -52.76,-59.04 0,-26.96 12.63,-40.74 44.73,-52.75 22.94,-8.61 53.32,-19.51 65.94,-27.53l0 80.85 0 0zm450.29 -90.44c0,-23.48 8.59,-95.06 68.16,-95.06 53.26,0 59.54,54.42 59.54,76.72 0,10.9 -3.43,18.33 -19.46,18.33l-108.23 0 0 0zm310.1 -115.13l6.86 45.82c37.8,-33.21 54.99,-45.82 75.61,-45.82 22.33,0 30.34,15.49 30.34,28.11 0,17.71 -12.59,32.06 -26.32,32.06 -2.89,0 -7.46,-0.57 -11.49,-2.88 -16.6,-9.15 -26.34,-12.62 -35.5,-12.62 -13.17,0 -32.65,14.92 -32.65,59l-0.21 183.53 -53.64 0 0 -229.91c0,-20.62 -3.42,-23.5 -18.31,-25.8l-21.77 -2.81 0 -14.35 87.07 -14.33 0 0zm-673.98 6.83l0 16.53c27.38,1.15 33.09,4.58 43.36,29.68 28.52,68.46 75.89,190.01 89.58,229.38 3.43,9.7 4.58,18.25 4.58,27.97 0,13.12 -5.16,30.24 -13.71,48.5 -8.56,18.83 -18.84,23.97 -25.11,23.97 -5.68,0 -10.83,-1.7 -21.1,-12 -5.72,-5.11 -10.3,-8 -17.13,-8 -10.84,0 -25.11,15.43 -25.11,31.97 0,13.71 15.98,29.68 39.96,29.68 22.81,0 51.93,-6.87 81.02,-91.31 35.37,-101.58 87.88,-240.77 105.56,-280.72 10.28,-22.86 13.71,-27.42 42.24,-29.13l0 -16.53 -109.56 0 0 16.53 29.65 2.85c9.71,1.15 10.85,8 8,19.42 -8.56,34.24 -38.24,120.38 -63.33,188.88l-1.16 0c-26.25,-69.08 -49.07,-131.25 -70.18,-191.18 -3.42,-10.27 -4.55,-16.54 8.57,-17.67l24.51 -2.29 0 -16.53 -130.65 0 0 0z"/>
    </g>
    <g>
     <path class="fil56" d="M1629.03 1193.04c0,69.58 40.08,124.4 115.64,124.4 75.57,0 115.65,-54.82 115.65,-124.4 0,-70.04 -40.08,-124.87 -115.65,-124.87 -75.56,0 -115.64,54.84 -115.64,124.87l0 0 0 0zm2826.51 43.31c-6.92,30.87 -29.51,46.53 -61.75,46.53 -52.07,0 -75.57,-36.85 -74.19,-78.32l178.31 0c2.3,-57.61 -23.48,-136.4 -107.81,-136.4 -64.98,0 -111.96,52.54 -111.96,123.95 2.3,72.8 38.24,125.32 114.26,125.32 53.43,0 91.23,-28.57 101.82,-81.09l-38.69 0 0 0 0 0zm-408.7 -7.37c0,21.66 -21.2,53.9 -72.81,53.9 -23.97,0 -46.08,-9.2 -46.08,-35 0,-29.02 22.12,-38.24 47.92,-42.85 26.27,-4.62 55.75,-5.06 70.97,-16.12l0 40.08 0 0 0 0zm-847.45 7.37c-6.9,30.87 -29.49,46.53 -61.75,46.53 -52.06,0 -75.55,-36.85 -74.16,-78.32l178.3 0c2.3,-57.61 -23.5,-136.4 -107.83,-136.4 -64.95,0 -111.96,52.54 -111.96,123.95 2.3,72.8 38.25,125.32 114.26,125.32 53.45,0 91.23,-28.57 101.84,-81.09l-38.72 0 0 0 0 0zm-1608.43 -154.37c-10.14,-70.02 -66.81,-106.88 -135.46,-106.88 -101.37,0 -155.74,77.87 -155.74,173.25 0,95.83 49.76,171.38 152.04,171.38 82.93,0 134.08,-49.75 142.38,-131.77l-43.77 0c-4.15,54.37 -37.33,94.91 -94.91,94.91 -78.79,0 -111.96,-62.66 -111.96,-137.76 0,-68.65 33.17,-133.16 111.51,-133.16 45.61,0 82.92,23.49 92.15,70.02l43.77 0 0 0zm2728.65 88.02c2.76,-36.4 27.19,-67.26 68.2,-67.26 38.69,0 66.81,29.93 68.64,67.26l-136.84 0 0 0zm-169.92 141.91l39.14 0 0 -105.98c0,-60.36 23.05,-96.3 86.18,-96.3l0 -41.48c-42.4,-1.37 -68.65,17.51 -87.55,55.76l-0.92 0 0 -50.22 -36.86 0 0 238.22 0 0zm-39.28 -31.34c-5.07,1.85 -8.76,2.29 -11.98,2.29 -12.46,0 -12.46,-8.28 -12.46,-26.71l0 -122.56c0,-55.75 -46.52,-65.44 -89.38,-65.44 -52.97,0 -98.58,20.75 -100.9,79.72l39.18 0c1.83,-35.02 26.25,-45.14 59.42,-45.14 24.89,0 52.99,5.52 52.99,39.61 0,29.49 -36.86,26.74 -80.17,35.02 -40.54,7.84 -80.62,19.35 -80.62,73.27 0,47.45 35.47,66.8 78.79,66.8 33.17,0 62.2,-11.51 83.86,-36.86 0,25.82 12.92,36.86 33.17,36.86 12.44,0 21.2,-2.3 28.11,-6.44l0 -30.42 0 0zm-261.99 -198.6c-10.14,-70.02 -70.3,-106.88 -138.95,-106.88 -101.38,0 -152.26,77.87 -152.26,173.25 0,95.83 49.77,171.38 152.06,171.38 82.92,0 134.08,-49.75 142.37,-131.77l-43.79 0c-4.13,54.37 -37.31,94.91 -94.91,94.91 -78.77,0 -111.96,-62.66 -111.96,-137.76 0,-68.65 33.19,-133.16 111.51,-133.16 45.62,0 82.92,23.49 92.15,70.02l43.79 0 0 0zm-564.12 229.94l39.19 0 0 -105.98c0,-60.36 23.03,-96.3 86.14,-96.3l0 -41.48c-42.38,-1.37 -68.65,17.51 -87.53,55.76l-0.92 0 0 -50.22 -36.88 0 0 238.22 0 0zm-220.81 -141.91c2.75,-36.4 27.16,-67.26 68.17,-67.26 38.71,0 66.82,29.93 68.64,67.26l-136.82 0 0 0zm-413.11 141.91l39.18 0 0 -148.37c0,-17.96 17.05,-60.81 63.58,-60.81 35.02,0 44.69,22.09 44.69,52.97l0 156.21 39.16 0 0 -148.37c0,-36.86 24.43,-60.81 62.2,-60.81 38.24,0 46.08,23.48 46.08,52.97l0 156.21 39.16 0 0 -174.62c0,-49.3 -31.79,-69.14 -79.24,-69.14 -30.43,0 -58.53,15.21 -74.66,40.57 -9.67,-29.04 -36.39,-40.57 -65.42,-40.57 -32.71,0 -59.43,13.82 -76.95,40.57l-0.92 0 0 -35.03 -36.87 0 0 238.22 0 0zm-60.46 -238.22l-39.17 0 0 134.55c0,42.85 -23.04,74.63 -70.5,74.63 -29.95,0 -48.37,-18.87 -48.37,-47.91l0 -161.26 -39.17 0 0 156.66c0,51.15 19.36,87.08 82.02,87.08 34.09,0 60.81,-13.83 77.41,-43.32l0.92 0 0 37.8 36.87 0 0 -238.22 0 0zm-442.78 163.11c2.3,58.98 47.46,80.62 100.91,80.62 48.37,0 101.36,-18.43 101.36,-75.1 0,-46.06 -38.69,-58.98 -77.86,-67.73 -36.4,-8.76 -77.86,-13.36 -77.86,-41.46 0,-23.97 27.18,-30.41 50.68,-30.41 25.8,0 52.51,9.67 55.28,40.08l39.17 0c-3.23,-58.06 -45.16,-74.66 -97.69,-74.66 -41.46,0 -88.92,19.83 -88.92,67.75 0,45.62 39.16,58.51 77.86,67.26 39.17,8.76 77.87,13.83 77.87,44.23 0,29.95 -33.17,35.47 -57.59,35.47 -32.26,0 -62.67,-11.05 -64.04,-46.06l-39.17 0 0 0zm-240.8 75.11l39.16 0 0 -134.55c0,-42.84 23.05,-74.63 70.5,-74.63 29.95,0 48.38,18.87 48.38,47.91l0 161.26 39.16 0 0 -156.66c0,-51.15 -19.36,-87.1 -82.02,-87.1 -34.09,0 -60.8,13.82 -77.4,43.31l-0.92 0 0 -37.77 -36.87 0 0 238.22 0 0zm-235.83 -118.88c0,-58.06 33.17,-90.3 74.17,-90.3 41.02,0 74.19,32.24 74.19,90.3 0,57.6 -33.17,89.84 -74.19,89.84 -41,0 -74.17,-32.24 -74.17,-89.84l0 0z"/>
    </g>
    <g>
     <path class="fil8" d="M3478.83 567.04l-164.94 0c-1.16,59.56 13.19,128.28 84.21,128.28 37.24,0 58.62,-18.67 73.93,-43.83l19.03 10.01c-17.61,36.35 -49.47,62.56 -104.43,63.03 -93.36,1.17 -132.32,-54.42 -132.32,-144.89 0,-85.9 42.39,-149.49 131.75,-149.49 104.81,0 115.67,81.36 115.67,115.13 0,18.9 -10.86,21.75 -22.9,21.75l0 0 0 0zm1655.53 100.2c0,20.62 3.41,23.45 18.3,25.73l21.78 2.86 0 14.33 -87.05 14.32 -5.17 -34.35c-18.32,12.05 -49.88,33.29 -85.41,34.44 -53.91,0 -82.58,-38.4 -82.58,-81.4 0,-26.94 12.04,-55.59 53.31,-68.21 45.32,-14.38 100.94,-28.69 115.25,-43.61l0 -24.07c0,-45.89 -26.38,-57.32 -48.74,-57.32 -22.91,0 -46.45,13.74 -59.03,56.2 -2.88,9.73 -6.32,16.06 -18.37,16.06 -10.88,0 -32.1,-8.63 -32.1,-26.98 0,-31.54 51.03,-65.38 115.82,-65.38 86.57,0 94.04,43.05 94.04,76.3l-0.04 161.07 0 0 0 0zm-1367.5 0c0,20.62 3.41,23.45 18.33,25.73l21.75 2.86 0 14.33 -87.02 14.32 -5.17 -34.35c-18.38,12.05 -49.93,33.29 -85.47,34.44 -53.88,0 -82.55,-38.4 -82.55,-81.4 0,-26.94 12.05,-55.59 53.28,-68.21 45.34,-14.38 100.94,-28.69 115.29,-43.61l0 -24.07c0,-45.89 -26.38,-57.32 -48.75,-57.32 -22.93,0 -46.43,13.74 -59.05,56.2 -2.87,9.73 -6.32,16.06 -18.36,16.06 -10.9,0 -32.09,-8.63 -32.09,-26.98 0,-31.54 51.02,-65.38 115.8,-65.38 86.56,0 94.05,43.05 94.05,76.3l-0.06 161.07 0 0 0 0zm1871.16 -100.2l-164.95 0c-1.15,59.56 13.19,128.28 84.21,128.28 37.29,0 58.63,-18.67 73.97,-43.83l19.01 10.01c-17.63,36.35 -49.47,62.56 -104.45,63.03 -93.34,1.17 -132.3,-54.42 -132.3,-144.89 0,-85.9 42.4,-149.49 131.74,-149.49 104.8,0 115.68,81.36 115.68,115.13 0,18.9 -10.88,21.75 -22.91,21.75l0 0 0 0zm-1551.6 -107.16l0 177.55c0,43.55 18.35,57.3 37.81,57.3 14.33,0 26.92,-1.74 40.65,-7.47l4.6 12.06c-16.6,10.29 -44.09,25.19 -73.33,25.19 -20.03,0 -63.55,-6.87 -63.55,-65.32l0 -199.32 -41.25 0 0 -22.9 43.51 0 34.95 -72.17 16.61 0 0 72.17 73.9 0 0 22.9 -73.9 0 0 0zm996.36 175.84c0,46.44 -35.54,58.47 -57.92,58.47 -35.55,0 -52.73,-25.22 -52.73,-59.04 0,-26.96 12.63,-40.74 44.74,-52.75 22.91,-8.61 53.29,-19.51 65.91,-27.53l0 80.85 0 0zm-1367.47 0c0,46.44 -35.55,58.47 -57.91,58.47 -35.55,0 -52.76,-25.22 -52.76,-59.04 0,-26.96 12.62,-40.74 44.71,-52.75 22.94,-8.61 53.3,-19.51 65.96,-27.53l0 80.85 0 0zm1758.33 -90.44c0,-23.48 8.61,-95.06 68.18,-95.06 53.28,0 59.54,54.42 59.54,76.72 0,10.9 -3.44,18.33 -19.45,18.33l-108.27 0 0 0zm-2159.19 0c0,-23.48 8.6,-95.06 68.18,-95.06 53.24,0 59.54,54.42 59.54,76.72 0,10.9 -3.45,18.33 -19.47,18.33l-108.25 0 0 0zm-122.72 -223.98l-108.28 0 0 16.59c50.46,3.44 51.57,4.58 51.57,36.67l0 125.99 -200.5 0 0 -179.25 -108.25 0 0 16.59c50.4,3.44 51.56,4.58 51.56,36.67l0 342.68 56.69 0 0 -194.91 200.5 0 0 194.91 56.71 0 0 -395.94 0 0zm679.91 28.64l0 367.3 53.85 0 0 -421.14 -4.02 -3.45 -89.9 14.31 0 14.34 21.76 2.28c14.9,1.73 18.31,4.58 18.31,26.36l0 0zm349.93 0l0 367.3 53.85 0 0 -183.46c0,-14.31 0.58,-22.33 5.13,-30.93 12.05,-22.91 38.4,-41.82 68.79,-41.82 38.9,0 60.12,21.77 60.12,71.6l0 184.61 53.85 0 0 -196.06c0,-57.85 -31.5,-91.08 -84.8,-91.08 -41.77,0 -67.57,19.5 -103.65,43.54l0 -177.53 -4.02 -3.45 -89.34 14.31 0 14.34 21.77 2.86c14.9,2.29 18.32,5.15 18.32,25.77l0 0zm1019.03 137.47l0 229.84 53.83 0 0 -183.46c0,-44.1 19.44,-59 32.62,-59 9.21,0 18.92,3.44 35.52,12.62 4.02,2.28 8.61,2.85 11.44,2.85 13.75,0 26.37,-14.31 26.37,-32.06 0,-12.61 -8.02,-28.09 -30.34,-28.09 -20.65,0 -37.79,12.61 -75.61,45.85l-6.87 -45.85 -87.07 14.34 0 14.31 21.76 2.85c14.91,2.3 18.35,5.16 18.35,25.8l0 0zm-383.45 -63.02l-17.14 0c-10.88,-67.56 -51.55,-91.64 -110,-91.64 -106.52,-0.58 -143.75,93.95 -143.75,187.87 0,69.27 24.64,185.56 142.6,185.56 75.06,0 104.24,-43.55 120.31,-103.1l17.18 0 -8.03 95.65c-27.48,14.92 -80.17,27.5 -126,27.5 -64.17,0 -120.27,-13.17 -155.79,-48.68 -34.36,-34.38 -54.43,-88.21 -54.43,-155.22 0,-64.71 19.49,-113.99 52.13,-150.64 34.36,-38.37 91.06,-59 161.54,-59 52.11,0 95.62,10.32 121.38,22.33l0 89.36 0 0z"/>
    </g>
   </g>
  </g>
 </g>
</svg>
