<?xml version="1.0" encoding="utf-8"?>
<!-- Generator: Adobe Illustrator 22.1.0, SVG Export Plug-In . SVG Version: 6.00 Build 0)  -->
<svg version="1.1" id="Layer_1" xmlns:xodm="http://www.corel.com/coreldraw/odm/2003"
	 xmlns="http://www.w3.org/2000/svg" xmlns:xlink="http://www.w3.org/1999/xlink" x="0px" y="0px" viewBox="0 0 143 89.8"
	 style="enable-background:new 0 0 143 89.8;" xml:space="preserve">
<style type="text/css">
	.st0{fill:#96356E;}
	.st1{fill:#D2AE6D;}
	.st2{enable-background:new    ;}
</style>
<path class="st0" d="M72.6,4C72.4,5.1,70.9,7,69.6,6c-1.4-1-0.9-4,0-5.1C70.2,0.2,71.1,0,71.7,0c0.9,0,2.1,0.3,2.7,1.5
	c1.1,2-0.3,3.4-1.4,4.9c-1.8,2.1-3.9,2.8-2.8,6c0.2,0.7,0.8,1.2,1,1.8c0.3,0.9,0,1.1-0.5,0.4c-0.3-0.4-0.5-0.8-0.7-1.1
	c-2-2.5-2.9-4.3,0.4-6.2c0.8-0.5,1.9-0.9,2.7-1.8c1.7-2.1,0.5-3.5-0.7-4c-3.3-1.3-3.2,4.7-1.3,4c0.4-0.2,0.8-0.8,1.1-1.3
	C72.1,4.1,72.7,2.9,72.6,4L72.6,4z"/>
<path class="st0" d="M71.5,17.6c0,1.8-0.4,6-0.6,8.3c0,0.3-0.3,2-0.5,0.7c-0.1-0.5,0-1.3,0-1.7c0-2.1,0.2-5.1,0.4-6.7
	C71,16.9,71.5,16.3,71.5,17.6L71.5,17.6z"/>
<path class="st0" d="M69.1,15.5c-1.2,3-0.5,5.1,0.5,8.6c0.2,0.7,0.4,1.7-0.2,0.5c-0.6-1.1-1.1-2.4-1.5-3.6c-0.7-2-0.8-4,0.7-5.7
	C69.4,14.2,69.5,14.4,69.1,15.5L69.1,15.5z"/>
<path class="st0" d="M75.2,19.7c-0.4,2-2.9,6.3-4.3,10.8c-0.7,0.1,0.3-0.1-0.3,0.1c0.9-2.8,2.7-7.2,3.2-10.4
	c0.3-1.5,0.3-3.4-0.6-4.7c-0.9-1.3-2.5-3.2-1.3-5.3c0.3-0.6,0.8-0.8,0.7,0.1c-0.2,1.3-0.4,1.8-0.1,2.5c0.2,0.5,1.1,1.5,1.7,2.5
	C75.3,16.7,75.6,17.9,75.2,19.7z"/>
<path class="st0" d="M75.4,12.1c-0.4,3.1,0.3-2.5,4.5-3.2c0.5-0.1,0.8,0.1,0.8,0.2c0,0.2-0.2,0.4-0.9,0.5c-0.7,0.1-1.7,0.5-2.5,1.6
	c-0.5,0.7-1.2,1.8-1.7,2.6c-0.8,1.4-0.9,0.9-0.9-0.4c0-2,0.5-4,0-6c0-0.1-0.1-0.4-0.3-0.6c-0.9-1,0.1-0.9,0.6-0.2
	C75.7,7.8,75.6,10.8,75.4,12.1L75.4,12.1z"/>
<path class="st1" d="M86.3,66.1c-0.7-5.6,0.8-7.3,3.6-10.4c2.8-3.1,10.4-10.1,11.4-12.7c0.4-1.1,0.7-4.6,0.7-6
	c0-2.7,0.1-5.5,0.1-8.2c0-1.5,0.1-2.8,0.1-4.3c-1.9-0.1-5.5,1.1-5.5,6.2c-0.5-1.5-2.3-9.8-2.3-11.2c0-0.1-1,0-1.9,0.5
	c-2,0.9-2,3.6-1.9,5.5c0.1,3.4,1,8,0.6,11.8c-0.3,2.7-5,9.2-6.9,11.3c0-0.6,0.3-1.5,0.6-2.2c1.5-2.9,2.7-3.8,5.1-7.6
	c-3.5-2.8-6.3-0.1-8.6,2.9c-1.7,2.2-4,4.9-5.4,7c-1,1.5-1.5,2.9-1.7,3.9c-0.7,3,0.1,10.3,0.3,13.5c0.5,0,1.1,0,1.6,0
	C75.9,63,74.9,55.7,75.5,53c0.2-0.9,0.7-2.3,1.6-3.7c1.4-2,3.4-4.8,5-6.9c2.2-2.8,4.1-4.4,6.2-3.2c-0.6,0.8-1.3,2-2.4,3.4
	c-1.3,1.6-3.2,3.5-2.9,8c2.7-0.6,8.8-10.7,9.1-13.2c0.4-3.4-0.7-11.8-0.3-13.2c0.5-1.9,1.9-2.8,1.9-2.8c0.1,1.3,2.8,13.9,3.3,15.3
	c1.3-4.5-1.2-9.5,4-10.6c-0.4,19.1,0.5,16.4-5.9,23.1C90.7,53.8,80,59.5,85,66.1C85.5,66.1,85.9,66.1,86.3,66.1L86.3,66.1z"/>
<path class="st1" d="M56.5,66.1c0.7-5.6-0.8-7.3-3.6-10.4C50.2,52.6,42.5,45.6,41.6,43c-0.4-1.1-0.7-4.6-0.7-6
	c0-2.7-0.1-5.5-0.1-8.2c0-1.5-0.1-2.8-0.1-4.3c1.9-0.1,5.5,1.1,5.5,6.2c0.5-1.5,2.3-9.8,2.3-11.2c0-0.1,1,0,1.9,0.5
	c2,0.9,2,3.6,1.9,5.5c-0.1,3.4-1,8-0.6,11.8c0.3,2.7,5,9.2,6.9,11.3c0-0.6-0.3-1.5-0.6-2.2c-1.5-2.9-2.7-3.8-5.1-7.6
	c3.5-2.8,6.3-0.1,8.6,2.9c1.7,2.2,4,4.9,5.4,7c1,1.5,1.5,2.9,1.7,3.9c0.7,3-0.1,10.3-0.3,13.5c-0.5,0-1.1,0-1.6,0
	C67,63,68,55.7,67.3,53c-0.2-0.9-0.7-2.3-1.6-3.7c-1.4-2-3.4-4.8-5-6.9c-2.2-2.8-4.1-4.4-6.2-3.2c0.6,0.8,1.3,2,2.4,3.4
	c1.3,1.6,3.2,3.5,2.9,8c-2.7-0.6-8.8-10.7-9.1-13.2c-0.4-3.4,0.7-11.8,0.3-13.2c-0.5-1.9-1.9-2.8-1.9-2.8
	c-0.1,1.3-2.8,13.9-3.3,15.3c-1.3-4.5,1.2-9.5-4-10.6c0.4,19.1-0.5,16.4,5.9,23.1c4.4,4.5,15.1,10.3,10.1,16.9
	C57.4,66.1,57,66.1,56.5,66.1L56.5,66.1z"/>
<path class="st1" d="M76.1,23.3c1.1-0.4,2.5-0.1,3.9,0c1.3,0.1,2.6,0,3.7,0.4c2.5,1,3.3,3.5,0.3,6.5c-0.9,0.9-2.2,1.7-3.6,2.3
	c-3.8,1.5-7.6,1-11.1,2.7c-1.8,0.9-2.5,2.2-2,3.1c0.9,1.8,5.2,3,7.3,4.9c1,0.9,1.3,2.1,1,3.1c-0.5,1.4-1.9,2.5-3,2.8
	c-0.8,0.2-2.2,0-0.9-1.1c0.6-0.5,1.6-1,1.9-1.6c0.2-0.6,0-1.3-0.5-1.6c-2.7-1.5-8.3-3.2-8.8-6.7c-0.3-2.5,2.5-4.9,7-6.3
	c1.3-0.4,2.7-0.6,4.1-0.9c1.4-0.3,3.4-0.8,5-1.5c1.7-0.8,3-1.9,2.9-2.6c-0.2-1.1-1.9-0.9-3.1-0.6c-1.6,0.4-2.8,1-3.7,1
	C73.7,27,73.8,24.1,76.1,23.3L76.1,23.3z"/>
<polygon class="st1" points="72.3,35.6 72.2,40.2 70.5,39.3 70.4,36.1 "/>
<g>
	<path class="st1" d="M66.4,23.3c-1.1-0.4-2.5-0.1-3.9,0c-1.3,0.1-2.6,0-3.7,0.4c-2.5,1-3.3,3.5-0.3,6.5c1.5,1.5,3.9,2.6,6.7,3.2
		c1-0.7,2.1-1.5,3.6-2.1c-0.8-0.3-4.1-0.8-6.5-1.9c-1.7-0.8-3-1.9-2.9-2.6c0.2-1.1,1.9-0.9,3.1-0.6c1.6,0.4,2.8,1,3.7,1
		C68.8,27,68.7,24.1,66.4,23.3z"/>
	<path class="st1" d="M73.7,35.4c1.2-0.2,2.3-0.4,3.5-0.6c2.6,3.1,0.9,5.5-1.9,7.4c-0.8-0.5-1.7-1.1-2.5-1.6
		C74.8,38.9,76.8,38,73.7,35.4L73.7,35.4z"/>
	<path class="st1" d="M67.5,43.6c0.7,0.4,1.4,0.8,2.1,1.1c-1,1.2-0.9,1.8,0.7,2.8c-0.1,0.5-0.7,0.9-0.4,1.6
		C67.2,47.6,66.5,46.3,67.5,43.6L67.5,43.6z"/>
</g>
<polygon class="st1" points="72,45.7 71.9,46.3 70.7,47 70.7,45.1 "/>
<g class="st2">
	<path class="st0" d="M31.4,72.5v-1.3c0-0.4-0.1-0.5-0.4-0.5c-0.1,0-0.2,0-0.3,0.1c-0.1,0.1-0.1,0.2-0.1,0.3v0.5h-0.9v-0.4
		c0-0.3-0.1-0.5-0.4-0.5c-0.3,0-0.6,0.2-0.9,0.5v-1c0.3-0.2,0.5-0.3,0.9-0.3c0.3,0,0.6,0.1,0.8,0.4c0.3-0.2,0.6-0.4,1-0.4
		c0.2,0,0.4,0.1,0.6,0.2c0.2,0.1,0.3,0.3,0.4,0.5c0.1,0.2,0.1,0.5,0.1,0.8v2.3c0,0.2-0.1,0.4-0.2,0.7c-0.1,0.2-0.3,0.4-0.6,0.6
		c-0.3,0.2-0.6,0.3-1.1,0.3c-0.4,0-0.7-0.1-1-0.2c-0.3-0.1-0.5-0.3-0.6-0.5c-0.1-0.2-0.2-0.5-0.2-0.7c0-0.3,0.1-0.5,0.2-0.7
		c0.2-0.2,0.4-0.4,0.6-0.5s0.6-0.2,1-0.2C30.8,72.3,31.1,72.3,31.4,72.5z M30.5,73C30.5,73,30.5,73,30.5,73c-0.2,0-0.4,0-0.5,0.1
		c-0.1,0.1-0.2,0.2-0.3,0.3c-0.1,0.1-0.1,0.2-0.1,0.4s0,0.3,0.1,0.4c0.1,0.1,0.2,0.2,0.3,0.3c0.1,0.1,0.3,0.1,0.5,0.1
		c0.2,0,0.4,0,0.5-0.1c0.1-0.1,0.2-0.2,0.3-0.3c0.1-0.1,0.1-0.2,0.1-0.4s0-0.3-0.1-0.4c-0.1-0.1-0.2-0.2-0.3-0.3
		C30.8,73,30.7,73,30.5,73z"/>
	<path class="st0" d="M35.1,72.2h0.3c0.1,0,0.2,0,0.3-0.1c0.1,0,0.1-0.1,0.1-0.3c0-0.1,0-0.2-0.1-0.3c-0.1,0-0.2-0.1-0.5-0.2
		c-0.7-0.2-1.1-0.5-1.1-1.1c0-0.1,0-0.2,0-0.3h0.9v0.1c0,0.1,0,0.2,0.1,0.2c0,0.1,0.1,0.1,0.2,0.2c0.1,0,0.1,0.1,0.2,0.1
		c0.1,0,0.2,0.1,0.3,0.1c0.3,0.1,0.5,0.2,0.7,0.4c0.1,0.1,0.2,0.4,0.2,0.6c0,0.2-0.1,0.4-0.2,0.6c-0.1,0.1-0.3,0.2-0.5,0.3
		c0.2,0.1,0.4,0.2,0.5,0.4c0.1,0.2,0.2,0.4,0.2,0.6c0,0.3-0.1,0.5-0.2,0.8c-0.1,0.2-0.3,0.4-0.6,0.5c-0.3,0.1-0.6,0.2-0.9,0.2
		c-0.4,0-0.7-0.1-0.9-0.2c-0.3-0.1-0.5-0.3-0.7-0.6c-0.2-0.3-0.2-0.5-0.2-0.9c0-0.2,0-0.4,0-0.5h1c-0.1,0.2-0.1,0.3-0.1,0.5
		c0,0.3,0.1,0.5,0.2,0.7c0.2,0.2,0.4,0.3,0.6,0.3c0.2,0,0.4-0.1,0.5-0.2c0.2-0.1,0.2-0.3,0.2-0.6c0-0.2,0-0.3-0.1-0.4
		c-0.1-0.1-0.2-0.2-0.4-0.2h-0.2V72.2z"/>
	<path class="st0" d="M39.9,72.2h0.9c0,0.1,0,0.1,0,0.2c0,0.1,0.1,0.2,0.2,0.4c0.1,0.2,0.2,0.3,0.2,0.4c0,0.1,0.1,0.2,0.1,0.4
		c0,0.3-0.1,0.5-0.2,0.8c-0.1,0.2-0.3,0.4-0.6,0.6c-0.3,0.2-0.6,0.2-0.9,0.2c-0.4,0-0.7-0.1-0.9-0.2c-0.2-0.1-0.4-0.3-0.5-0.5
		c-0.1-0.2-0.2-0.4-0.2-0.6c0-0.2,0-0.4,0-0.5v-3.3h0.9v3.2c0,0.3,0,0.5,0.1,0.7c0,0.2,0.1,0.3,0.2,0.4c0.1,0.1,0.3,0.2,0.5,0.2
		c0.1,0,0.3,0,0.4-0.1c0.1-0.1,0.2-0.2,0.3-0.3c0.1-0.1,0.1-0.3,0.1-0.4c0-0.2-0.1-0.4-0.2-0.7c0-0.1-0.1-0.1-0.1-0.2
		c0-0.1-0.1-0.1-0.1-0.2c0-0.1,0-0.1,0-0.2C39.9,72.4,39.9,72.3,39.9,72.2z"/>
	<path class="st0" d="M45,70.1v0.4h1.4l0,1.7c0.2,0,0.4,0.1,0.6,0.3c0.2,0.1,0.3,0.3,0.4,0.5s0.1,0.4,0.1,0.7c0,0.2,0,0.4-0.1,0.6
		c-0.1,0.2-0.2,0.4-0.3,0.5c-0.1,0.1-0.3,0.3-0.6,0.4c-0.2,0.1-0.5,0.1-0.8,0.1c-0.6,0-1-0.1-1.4-0.4c-0.4-0.3-0.5-0.6-0.5-1.1
		c0-0.4,0.1-0.7,0.3-0.9c0.2-0.2,0.4-0.4,0.7-0.5c0.3-0.1,0.5-0.1,0.7-0.2v-1h-0.9c-0.2,0-0.3,0-0.4-0.1c-0.1-0.1-0.1-0.2-0.1-0.4
		v-0.6H45z M44.8,73.7c0,0.1,0,0.3,0.1,0.4c0.1,0.1,0.2,0.2,0.3,0.3c0.1,0.1,0.3,0.1,0.5,0.1c0.2,0,0.4,0,0.6-0.2
		c0.2-0.1,0.3-0.3,0.3-0.6c0-0.3-0.1-0.4-0.3-0.6s-0.4-0.2-0.7-0.2c-0.2,0-0.4,0-0.5,0.1c-0.1,0.1-0.3,0.2-0.3,0.3
		C44.8,73.4,44.8,73.5,44.8,73.7z"/>
	<path class="st0" d="M49.5,71.6h-0.9c0-0.1,0-0.2,0-0.3c0-0.2,0.1-0.5,0.2-0.7c0.1-0.2,0.3-0.4,0.6-0.5c0.2-0.1,0.5-0.2,0.9-0.2
		c0.6,0,1,0.2,1.2,0.5c0.2,0.3,0.4,0.8,0.4,1.4v1.8c0,0.5-0.1,0.9-0.4,1.2c-0.3,0.3-0.7,0.4-1.2,0.4c-0.3,0-0.7-0.1-0.9-0.2
		c-0.3-0.1-0.5-0.3-0.7-0.6c-0.2-0.3-0.2-0.6-0.2-0.9c0-0.2,0-0.4,0-0.5h1c-0.1,0.2-0.1,0.3-0.1,0.5c0,0.3,0.1,0.5,0.2,0.7
		c0.2,0.2,0.4,0.2,0.6,0.2c0.2,0,0.4-0.1,0.6-0.2c0.2-0.1,0.3-0.4,0.3-0.8v-2c0-0.3-0.1-0.5-0.2-0.6c-0.1-0.1-0.3-0.2-0.5-0.2
		c-0.2,0-0.4,0.1-0.6,0.2c-0.1,0.1-0.2,0.3-0.2,0.5C49.5,71.5,49.5,71.6,49.5,71.6z"/>
	<path class="st0" d="M53,73.2h0.6c-0.2-0.2-0.4-0.4-0.5-0.7c-0.1-0.3-0.2-0.6-0.2-1c0-0.4,0.1-0.6,0.2-0.9c0.1-0.2,0.3-0.4,0.5-0.5
		c0.2-0.1,0.4-0.2,0.6-0.2c0.1,0,0.3,0,0.4,0.1c0.2,0.1,0.3,0.2,0.4,0.3c0.1-0.2,0.3-0.3,0.4-0.4c0.2-0.1,0.3-0.1,0.4-0.1
		c0.4,0,0.6,0.1,0.8,0.4c0.2-0.3,0.6-0.4,1-0.4c0.2,0,0.4,0,0.6,0.1c0.2,0.1,0.3,0.2,0.4,0.4c0.1,0.2,0.2,0.4,0.2,0.7
		c0,0.3-0.1,0.6-0.2,1h-0.9c0.2-0.3,0.2-0.6,0.2-0.9c0-0.2,0-0.4-0.1-0.5c-0.1-0.1-0.2-0.2-0.3-0.2c-0.1,0-0.2,0-0.3,0.1
		C57,70.9,57,71,57,71.1V72h-0.9v-0.9c0-0.2,0-0.3-0.1-0.3c-0.1-0.1-0.2-0.1-0.3-0.1c-0.1,0-0.2,0-0.3,0.1c-0.1,0.1-0.1,0.2-0.1,0.3
		V72h-0.8l0-0.8c0-0.3-0.1-0.5-0.3-0.5c-0.2,0-0.3,0.1-0.3,0.2c0,0.2-0.1,0.3-0.1,0.6c0,0.2,0,0.4,0,0.6c0,0.2,0.1,0.3,0.2,0.5
		c0.1,0.2,0.3,0.3,0.5,0.4c0.3,0.1,0.6,0.2,1,0.3c0.4,0.1,0.7,0.1,1,0.2c0.3,0.1,0.5,0.1,0.8,0.3c0.3,0.1,0.5,0.3,0.6,0.5
		c0.2,0.2,0.3,0.5,0.3,0.9h-1.1c0-0.3-0.2-0.5-0.4-0.7c-0.2-0.2-0.5-0.3-0.9-0.3C55.6,74,55.2,74,54.7,74H53V73.2z"/>
	<path class="st0" d="M60.2,70.1h0.9c0,0,0,0.1,0,0.1c0,0.2,0,0.3,0.1,0.5c0.1,0.1,0.2,0.3,0.3,0.3c0.1,0.1,0.3,0.2,0.4,0.3
		c0.3,0.2,0.5,0.4,0.7,0.6c0.2,0.2,0.3,0.4,0.3,0.6C63,72.7,63,73,63,73.2c0,0.3,0,0.6-0.1,0.9c-0.1,0.3-0.2,0.5-0.4,0.6
		c-0.2,0.2-0.3,0.3-0.5,0.3c-0.2,0.1-0.4,0.1-0.7,0.1c-0.3,0-0.6-0.1-0.8-0.2c-0.3-0.1-0.5-0.3-0.6-0.6c-0.2-0.2-0.2-0.6-0.2-0.9
		c0-0.2,0-0.4,0.1-0.5h0.9c-0.1,0.2-0.1,0.4-0.1,0.5c0,0.3,0.1,0.6,0.2,0.7c0.1,0.2,0.3,0.3,0.5,0.3c0.3,0,0.5-0.1,0.6-0.4
		c0.1-0.2,0.1-0.5,0.1-0.8c0-0.2,0-0.4-0.1-0.6c0-0.2-0.2-0.3-0.3-0.5c-0.2-0.2-0.3-0.3-0.5-0.4c-0.2-0.1-0.3-0.2-0.4-0.3
		c-0.1-0.1-0.2-0.2-0.3-0.3c-0.1-0.1-0.2-0.3-0.2-0.4c0-0.1,0-0.3,0-0.4C60.2,70.3,60.2,70.2,60.2,70.1z"/>
	<path class="st0" d="M68.1,72.5v-1.1c0-0.2-0.1-0.4-0.2-0.6c-0.1-0.1-0.3-0.2-0.5-0.2c-0.2,0-0.3,0.1-0.5,0.2
		c-0.1,0.1-0.2,0.3-0.2,0.6c0,0.1,0,0.2,0,0.3h-0.9c0-0.1,0-0.3,0-0.5c0-0.3,0.1-0.5,0.2-0.7c0.1-0.2,0.3-0.4,0.6-0.5
		c0.2-0.1,0.5-0.2,0.8-0.2c0.2,0,0.3,0,0.5,0.1c0.2,0.1,0.3,0.1,0.5,0.3c0.2,0.1,0.3,0.3,0.4,0.5c0.1,0.2,0.1,0.4,0.1,0.7v2.2
		c0,0.5-0.2,0.9-0.5,1.1c-0.3,0.3-0.7,0.4-1.2,0.4c-0.4,0-0.6-0.1-0.9-0.2c-0.2-0.1-0.4-0.3-0.5-0.5c-0.1-0.2-0.2-0.5-0.2-0.7
		c0-0.3,0.1-0.5,0.2-0.8c0.1-0.2,0.3-0.4,0.6-0.5c0.2-0.1,0.5-0.2,0.8-0.2C67.5,72.3,67.8,72.3,68.1,72.5z M66.6,73.7
		c0,0.2,0.1,0.4,0.2,0.5c0.1,0.2,0.3,0.2,0.5,0.2c0.2,0,0.4-0.1,0.5-0.2c0.1-0.1,0.2-0.3,0.2-0.5c0-0.2-0.1-0.4-0.2-0.5
		C67.7,73,67.6,73,67.4,73h0c-0.2,0-0.4,0.1-0.5,0.2C66.7,73.3,66.6,73.5,66.6,73.7z"/>
	<path class="st0" d="M71.1,71.6h-0.9c0-0.1,0-0.2,0-0.3c0-0.2,0.1-0.5,0.2-0.7c0.1-0.2,0.3-0.4,0.6-0.5c0.2-0.1,0.5-0.2,0.9-0.2
		c0.6,0,1,0.2,1.2,0.5c0.2,0.3,0.4,0.8,0.4,1.4v1.8c0,0.5-0.1,0.9-0.4,1.2c-0.3,0.3-0.7,0.4-1.2,0.4c-0.3,0-0.7-0.1-0.9-0.2
		c-0.3-0.1-0.5-0.3-0.7-0.6c-0.2-0.3-0.2-0.6-0.2-0.9c0-0.2,0-0.4,0-0.5h1c-0.1,0.2-0.1,0.3-0.1,0.5c0,0.3,0.1,0.5,0.2,0.7
		c0.2,0.2,0.4,0.2,0.6,0.2c0.2,0,0.4-0.1,0.6-0.2c0.2-0.1,0.3-0.4,0.3-0.8v-2c0-0.3-0.1-0.5-0.2-0.6c-0.1-0.1-0.3-0.2-0.5-0.2
		c-0.2,0-0.4,0.1-0.6,0.2c-0.1,0.1-0.2,0.3-0.2,0.5C71.1,71.5,71.1,71.6,71.1,71.6z"/>
	<path class="st0" d="M74.9,71.7h0.9c-0.3,0.4-0.4,0.9-0.4,1.4c0,0.3,0.1,0.5,0.2,0.8c0.1,0.2,0.3,0.4,0.6,0.5
		c0.2,0.1,0.5,0.2,0.9,0.2c0.4,0,0.7-0.1,1-0.2c0.2-0.2,0.4-0.3,0.5-0.5c0.1-0.2,0.1-0.4,0.1-0.5c0-0.7-0.2-1.1-0.7-1.3
		c0.2,0.2,0.3,0.5,0.3,0.8c0,0.3-0.1,0.5-0.3,0.7c-0.2,0.2-0.4,0.2-0.7,0.2c-0.2,0-0.4,0-0.5-0.1c-0.2-0.1-0.3-0.2-0.4-0.3
		C76,72.9,76,72.8,76,72.6c0-0.4,0.2-0.7,0.6-0.9c-0.2-0.1-0.3-0.2-0.4-0.3C76,71.2,76,71,76,70.8c0-0.2,0-0.3,0.1-0.5
		s0.2-0.2,0.4-0.3c0.2-0.1,0.3-0.1,0.5-0.1c0.2,0,0.3,0,0.5,0.1c0.1,0,0.3,0.1,0.4,0.2c0.1,0.1,0.2,0.2,0.2,0.3
		c0.1,0.1,0.1,0.2,0.1,0.3c0,0.3-0.1,0.5-0.4,0.7c0.3,0,0.6,0.1,0.8,0.2c0.2,0.1,0.4,0.3,0.6,0.6c0.2,0.2,0.2,0.5,0.2,0.9
		c0,0.4-0.1,0.7-0.2,1c-0.2,0.3-0.4,0.6-0.8,0.7c-0.4,0.2-0.8,0.3-1.4,0.3c-0.5,0-0.9-0.1-1.2-0.2c-0.3-0.1-0.6-0.3-0.8-0.4
		c-0.2-0.2-0.4-0.4-0.5-0.6s-0.1-0.5-0.1-0.8C74.5,72.7,74.6,72.2,74.9,71.7z M76.6,72.5c0,0.1,0,0.2,0.1,0.3
		c0.1,0.1,0.2,0.1,0.3,0.1c0.1,0,0.2,0,0.3-0.1s0.1-0.2,0.1-0.3c0-0.1,0-0.2-0.1-0.3c-0.1-0.1-0.2-0.1-0.3-0.1s-0.2,0-0.3,0.1
		C76.7,72.3,76.6,72.4,76.6,72.5z M76.7,71c0,0.1,0,0.2,0.1,0.3c0.1,0.1,0.2,0.1,0.3,0.1c0.1,0,0.2,0,0.3-0.1
		c0.1-0.1,0.1-0.2,0.1-0.3c0-0.1,0-0.2-0.1-0.3c-0.1-0.1-0.2-0.1-0.3-0.1c-0.1,0-0.2,0-0.3,0.1C76.7,70.8,76.7,70.9,76.7,71z"/>
	<path class="st0" d="M83.5,70.1h0.9c0,0.3-0.1,0.6-0.3,0.8c-0.2,0.2-0.6,0.4-1,0.5c-0.5,0.2-0.8,0.3-1.1,0.5
		c-0.3,0.1-0.5,0.3-0.6,0.6c0.2-0.2,0.4-0.2,0.7-0.2c0.4,0,0.7,0.2,0.9,0.4c0.3-0.3,0.6-0.4,1.1-0.4c0.2,0,0.5,0.1,0.6,0.2
		c0.2,0.1,0.3,0.3,0.4,0.5c0.1,0.2,0.2,0.5,0.2,0.8c0,0.5-0.2,0.9-0.5,1.4h-0.9c0.3-0.5,0.5-1,0.5-1.4c0-0.2-0.1-0.4-0.2-0.5
		c-0.1-0.1-0.2-0.2-0.4-0.2s-0.2,0-0.3,0.1c-0.1,0.1-0.1,0.2-0.1,0.4V74h-0.9v-0.5c0-0.1-0.1-0.3-0.2-0.4c-0.1-0.1-0.2-0.1-0.4-0.1
		c-0.2,0-0.3,0.1-0.4,0.2c-0.1,0.1-0.2,0.3-0.2,0.5c0,0.2,0,0.4,0.1,0.7c0.1,0.3,0.2,0.5,0.3,0.8h-0.9c-0.3-0.6-0.4-1.1-0.4-1.7
		c0-0.4,0.1-0.7,0.2-0.9c0.1-0.3,0.3-0.5,0.5-0.7c0.2-0.2,0.5-0.4,0.9-0.6c0.2-0.1,0.4-0.2,0.6-0.3c0.2-0.1,0.4-0.2,0.5-0.2
		c0.1,0,0.2-0.1,0.3-0.2C83.4,70.4,83.4,70.2,83.5,70.1z"/>
	<path class="st0" d="M87.2,71.6h-0.9c0-0.1,0-0.2,0-0.3c0-0.2,0.1-0.5,0.2-0.7c0.1-0.2,0.3-0.4,0.6-0.5c0.2-0.1,0.5-0.2,0.9-0.2
		c0.6,0,1,0.2,1.2,0.5c0.2,0.3,0.4,0.8,0.4,1.4v1.8c0,0.5-0.1,0.9-0.4,1.2c-0.3,0.3-0.7,0.4-1.2,0.4c-0.3,0-0.7-0.1-0.9-0.2
		c-0.3-0.1-0.5-0.3-0.7-0.6c-0.2-0.3-0.2-0.6-0.2-0.9c0-0.2,0-0.4,0-0.5h1C87,73.2,87,73.4,87,73.6c0,0.3,0.1,0.5,0.2,0.7
		c0.2,0.2,0.4,0.2,0.6,0.2c0.2,0,0.4-0.1,0.6-0.2c0.2-0.1,0.3-0.4,0.3-0.8v-2c0-0.3-0.1-0.5-0.2-0.6c-0.1-0.1-0.3-0.2-0.5-0.2
		c-0.2,0-0.4,0.1-0.6,0.2c-0.1,0.1-0.2,0.3-0.2,0.5C87.1,71.5,87.2,71.6,87.2,71.6z"/>
	<path class="st0" d="M91.5,71.6h-0.9c0,0,0-0.1,0-0.1c0-0.3,0.1-0.5,0.2-0.7c0.1-0.2,0.3-0.4,0.5-0.6c0.3-0.1,0.6-0.2,0.9-0.2
		c0.4,0,0.7,0.1,0.9,0.2c0.3,0.1,0.5,0.3,0.6,0.5c0.1,0.2,0.2,0.4,0.2,0.6c0,0.5-0.2,0.9-0.7,1.1c0.2,0.1,0.4,0.2,0.5,0.4
		c0.1,0.2,0.2,0.5,0.2,0.8c0,0.3-0.1,0.6-0.2,0.8c-0.1,0.3-0.3,0.5-0.5,0.6c-0.3,0.2-0.6,0.3-1,0.3c-0.3,0-0.6-0.1-0.9-0.2
		c-0.3-0.1-0.5-0.3-0.7-0.6s-0.2-0.6-0.2-0.9c0-0.2,0-0.4,0-0.5h1c-0.1,0.2-0.1,0.3-0.1,0.5c0,0.3,0.1,0.5,0.2,0.7
		c0.2,0.2,0.4,0.3,0.6,0.3c0.2,0,0.4-0.1,0.6-0.3c0.1-0.2,0.2-0.4,0.2-0.8c0-0.2,0-0.4-0.1-0.5c-0.1-0.1-0.2-0.2-0.2-0.2
		c-0.1,0-0.1,0-0.2,0h-0.2V72h0.2c0.2,0,0.3-0.1,0.4-0.2c0.1-0.1,0.2-0.3,0.2-0.5c0-0.2,0-0.3-0.1-0.4c-0.1-0.1-0.2-0.2-0.3-0.3
		c-0.1-0.1-0.2-0.1-0.4-0.1c-0.3,0-0.5,0.1-0.6,0.3S91.5,71.3,91.5,71.6z"/>
	<path class="st0" d="M96.1,71.6h-0.9c0-0.1,0-0.2,0-0.3c0-0.2,0.1-0.5,0.2-0.7c0.1-0.2,0.3-0.4,0.6-0.5c0.2-0.1,0.5-0.2,0.9-0.2
		c0.6,0,1,0.2,1.2,0.5c0.2,0.3,0.4,0.8,0.4,1.4v1.8c0,0.5-0.1,0.9-0.4,1.2c-0.3,0.3-0.7,0.4-1.2,0.4c-0.3,0-0.7-0.1-0.9-0.2
		c-0.3-0.1-0.5-0.3-0.7-0.6c-0.2-0.3-0.2-0.6-0.2-0.9c0-0.2,0-0.4,0-0.5h1c-0.1,0.2-0.1,0.3-0.1,0.5c0,0.3,0.1,0.5,0.2,0.7
		c0.2,0.2,0.4,0.2,0.6,0.2c0.2,0,0.4-0.1,0.6-0.2c0.2-0.1,0.3-0.4,0.3-0.8v-2c0-0.3-0.1-0.5-0.2-0.6c-0.1-0.1-0.3-0.2-0.5-0.2
		c-0.2,0-0.4,0.1-0.6,0.2c-0.1,0.1-0.2,0.3-0.2,0.5C96.1,71.5,96.1,71.6,96.1,71.6z"/>
	<path class="st0" d="M99.6,73.2h0.6c-0.2-0.2-0.4-0.4-0.5-0.7c-0.1-0.3-0.2-0.6-0.2-1c0-0.4,0.1-0.6,0.2-0.9
		c0.1-0.2,0.3-0.4,0.5-0.5c0.2-0.1,0.4-0.2,0.6-0.2c0.1,0,0.3,0,0.4,0.1c0.2,0.1,0.3,0.2,0.4,0.3c0.1-0.2,0.3-0.3,0.4-0.4
		c0.2-0.1,0.3-0.1,0.4-0.1c0.4,0,0.6,0.1,0.8,0.4c0.2-0.3,0.6-0.4,1-0.4c0.2,0,0.4,0,0.6,0.1c0.2,0.1,0.3,0.2,0.4,0.4
		c0.1,0.2,0.2,0.4,0.2,0.7c0,0.3-0.1,0.6-0.2,1h-0.9c0.2-0.3,0.2-0.6,0.2-0.9c0-0.2,0-0.4-0.1-0.5c-0.1-0.1-0.2-0.2-0.3-0.2
		c-0.1,0-0.2,0-0.3,0.1c-0.1,0.1-0.1,0.2-0.1,0.3V72h-0.9v-0.9c0-0.2,0-0.3-0.1-0.3c-0.1-0.1-0.2-0.1-0.3-0.1c-0.1,0-0.2,0-0.3,0.1
		c-0.1,0.1-0.1,0.2-0.1,0.3V72h-0.8l0-0.8c0-0.3-0.1-0.5-0.3-0.5c-0.2,0-0.3,0.1-0.3,0.2c0,0.2-0.1,0.3-0.1,0.6c0,0.2,0,0.4,0,0.6
		c0,0.2,0.1,0.3,0.2,0.5c0.1,0.2,0.3,0.3,0.5,0.4c0.3,0.1,0.6,0.2,1,0.3c0.4,0.1,0.7,0.1,1,0.2c0.3,0.1,0.5,0.1,0.8,0.3
		c0.3,0.1,0.5,0.3,0.6,0.5c0.2,0.2,0.3,0.5,0.3,0.9h-1.1c0-0.3-0.2-0.5-0.4-0.7c-0.2-0.2-0.5-0.3-0.9-0.3c-0.4-0.1-0.8-0.1-1.3-0.1
		h-1.7V73.2z"/>
	<path class="st0" d="M107.7,75.1h-0.9c-0.2-0.4-0.3-0.8-0.4-1.1s-0.1-0.6-0.2-0.9c0-0.3,0-0.5,0-0.7c0-0.3,0-0.5,0-0.7
		c0-0.2,0.1-0.4,0.2-0.6c0.1-0.2,0.2-0.4,0.4-0.6s0.3-0.3,0.6-0.4c0.2-0.1,0.4-0.1,0.7-0.1c0.3,0,0.5,0,0.7,0.1
		c0.2,0.1,0.4,0.2,0.6,0.4s0.3,0.3,0.4,0.5c0.1,0.2,0.1,0.4,0.2,0.6c0,0.2,0,0.5,0,0.7c0,0.3,0,0.6-0.1,0.9
		c-0.1,0.3-0.1,0.6-0.2,0.9c-0.1,0.3-0.2,0.6-0.3,0.9h-0.9c0.1-0.3,0.2-0.6,0.3-0.9c0.1-0.3,0.1-0.5,0.2-0.8c0-0.3,0.1-0.6,0.1-0.9
		c0-0.4,0-0.7-0.1-0.9c0-0.3-0.1-0.5-0.3-0.6c-0.1-0.2-0.3-0.3-0.6-0.3c-0.3,0-0.4,0.1-0.6,0.3c-0.1,0.2-0.2,0.4-0.3,0.6
		c0,0.3-0.1,0.6-0.1,0.9c0,0.4,0,0.9,0.1,1.3C107.4,74.2,107.5,74.6,107.7,75.1z"/>
	<path class="st0" d="M112.9,72.2h0.9c0,0.1,0,0.1,0,0.2c0,0.1,0.1,0.2,0.2,0.4c0.1,0.2,0.2,0.3,0.2,0.4c0,0.1,0.1,0.2,0.1,0.4
		c0,0.3-0.1,0.5-0.2,0.8c-0.1,0.2-0.3,0.4-0.6,0.6c-0.3,0.2-0.6,0.2-0.9,0.2c-0.4,0-0.7-0.1-0.9-0.2c-0.2-0.1-0.4-0.3-0.5-0.5
		c-0.1-0.2-0.2-0.4-0.2-0.6c0-0.2,0-0.4,0-0.5v-3.3h0.9v3.2c0,0.3,0,0.5,0.1,0.7c0,0.2,0.1,0.3,0.2,0.4c0.1,0.1,0.3,0.2,0.5,0.2
		c0.1,0,0.3,0,0.4-0.1c0.1-0.1,0.2-0.2,0.3-0.3c0.1-0.1,0.1-0.3,0.1-0.4c0-0.2-0.1-0.4-0.2-0.7c0-0.1-0.1-0.1-0.1-0.2
		c0-0.1-0.1-0.1-0.1-0.2c0-0.1,0-0.1,0-0.2C112.9,72.4,112.9,72.3,112.9,72.2z"/>
</g>
<g class="st2">
	<path class="st0" d="M1.1,79.7H0.3c0-0.1,0-0.2,0-0.3c0-0.2,0.1-0.5,0.2-0.7c0.1-0.2,0.3-0.4,0.6-0.5C1.2,78.1,1.5,78,1.9,78
		c0.6,0,1,0.2,1.2,0.5c0.2,0.3,0.4,0.8,0.4,1.4v1.8c0,0.5-0.1,0.9-0.4,1.2c-0.3,0.3-0.7,0.4-1.2,0.4c-0.3,0-0.7-0.1-0.9-0.2
		c-0.3-0.1-0.5-0.3-0.7-0.6C0.1,82.3,0,82,0,81.6c0-0.2,0-0.4,0-0.5h1c-0.1,0.2-0.1,0.3-0.1,0.5c0,0.3,0.1,0.5,0.2,0.7
		c0.2,0.2,0.4,0.2,0.6,0.2c0.2,0,0.4-0.1,0.6-0.2c0.2-0.1,0.3-0.4,0.3-0.8v-2c0-0.3-0.1-0.5-0.2-0.6c-0.1-0.1-0.3-0.2-0.5-0.2
		c-0.2,0-0.4,0.1-0.6,0.2c-0.1,0.1-0.2,0.3-0.2,0.5C1.1,79.6,1.1,79.7,1.1,79.7z"/>
	<path class="st0" d="M6.6,80.3h0.9c0,0.1,0,0.1,0,0.2c0,0.1,0.1,0.2,0.2,0.4c0.1,0.2,0.2,0.3,0.2,0.4C8,81.4,8,81.5,8,81.7
		c0,0.3-0.1,0.5-0.2,0.8c-0.1,0.2-0.3,0.4-0.6,0.6c-0.3,0.2-0.6,0.2-0.9,0.2c-0.4,0-0.7-0.1-0.9-0.2C5.1,83,5,82.8,4.9,82.6
		c-0.1-0.2-0.2-0.4-0.2-0.6c0-0.2,0-0.4,0-0.5v-3.3h0.9v3.2c0,0.3,0,0.5,0.1,0.7c0,0.2,0.1,0.3,0.2,0.4c0.1,0.1,0.3,0.2,0.5,0.2
		c0.1,0,0.3,0,0.4-0.1c0.1-0.1,0.2-0.2,0.3-0.3c0.1-0.1,0.1-0.3,0.1-0.4c0-0.2-0.1-0.4-0.2-0.7c0-0.1-0.1-0.1-0.1-0.2
		c0-0.1-0.1-0.1-0.1-0.2c0-0.1,0-0.1,0-0.2C6.6,80.5,6.6,80.4,6.6,80.3z"/>
	<path class="st0" d="M9,81.6v-1.8c0-0.3,0.1-0.6,0.2-0.9c0.2-0.3,0.4-0.5,0.6-0.6c0.3-0.1,0.6-0.2,0.9-0.2c0.5,0,0.9,0.2,1.2,0.5
		c0.3-0.3,0.6-0.5,1-0.5c0.2,0,0.5,0.1,0.7,0.2c0.2,0.1,0.4,0.3,0.5,0.5c0.1,0.2,0.2,0.5,0.2,0.9v1.4c0,0.7-0.1,1.4-0.4,2.2l-0.9,0
		c0.1-0.4,0.2-0.7,0.3-1.1c0.1-0.4,0.1-0.7,0.1-1.1v-1.5c0-0.2,0-0.4-0.1-0.5c-0.1-0.1-0.2-0.2-0.4-0.2c-0.2,0-0.3,0.1-0.4,0.2
		c-0.1,0.1-0.1,0.3-0.1,0.4v2.3c0,0.2-0.1,0.4-0.2,0.7S12,82.8,11.7,83c-0.3,0.2-0.6,0.3-1,0.3c-0.3,0-0.6-0.1-0.9-0.2
		c-0.3-0.1-0.5-0.3-0.6-0.6C9.1,82.2,9,81.9,9,81.6z M9.9,79.8v1.7c0,0.1,0,0.3,0,0.4c0,0.2,0.1,0.3,0.2,0.4
		c0.1,0.1,0.3,0.2,0.5,0.2c0.4,0,0.6-0.1,0.7-0.4c0.1-0.2,0.2-0.5,0.2-0.7v-1.7c0-0.2-0.1-0.5-0.2-0.7c-0.1-0.2-0.3-0.4-0.7-0.4
		C10.2,78.8,9.9,79.1,9.9,79.8z"/>
	<path class="st0" d="M16.6,79.7h-0.9c0-0.1,0-0.2,0-0.3c0-0.2,0.1-0.5,0.2-0.7c0.1-0.2,0.3-0.4,0.6-0.5c0.2-0.1,0.5-0.2,0.9-0.2
		c0.6,0,1,0.2,1.2,0.5c0.2,0.3,0.4,0.8,0.4,1.4v1.8c0,0.5-0.1,0.9-0.4,1.2c-0.3,0.3-0.7,0.4-1.2,0.4c-0.3,0-0.7-0.1-0.9-0.2
		c-0.3-0.1-0.5-0.3-0.7-0.6c-0.2-0.3-0.2-0.6-0.2-0.9c0-0.2,0-0.4,0-0.5h1c-0.1,0.2-0.1,0.3-0.1,0.5c0,0.3,0.1,0.5,0.2,0.7
		c0.2,0.2,0.4,0.2,0.6,0.2c0.2,0,0.4-0.1,0.6-0.2c0.2-0.1,0.3-0.4,0.3-0.8v-2c0-0.3-0.1-0.5-0.2-0.6c-0.1-0.1-0.3-0.2-0.5-0.2
		c-0.2,0-0.4,0.1-0.6,0.2c-0.1,0.1-0.2,0.3-0.2,0.5C16.5,79.6,16.5,79.7,16.6,79.7z"/>
	<path class="st0" d="M20.4,79.8h0.9c-0.3,0.4-0.4,0.9-0.4,1.4c0,0.3,0.1,0.5,0.2,0.8c0.1,0.2,0.3,0.4,0.6,0.5
		c0.2,0.1,0.5,0.2,0.9,0.2c0.4,0,0.7-0.1,1-0.2c0.2-0.2,0.4-0.3,0.5-0.5c0.1-0.2,0.1-0.4,0.1-0.5c0-0.7-0.2-1.1-0.7-1.3
		c0.2,0.2,0.3,0.5,0.3,0.8c0,0.3-0.1,0.5-0.3,0.7c-0.2,0.2-0.5,0.2-0.7,0.2c-0.2,0-0.4,0-0.5-0.1c-0.2-0.1-0.3-0.2-0.4-0.3
		c-0.1-0.1-0.1-0.3-0.1-0.5c0-0.4,0.2-0.7,0.6-0.9c-0.2-0.1-0.3-0.2-0.4-0.3c-0.1-0.1-0.2-0.3-0.2-0.5c0-0.2,0-0.3,0.1-0.5
		s0.2-0.2,0.4-0.3c0.2-0.1,0.3-0.1,0.5-0.1c0.2,0,0.3,0,0.5,0.1c0.1,0,0.3,0.1,0.4,0.2c0.1,0.1,0.2,0.2,0.2,0.3
		c0.1,0.1,0.1,0.2,0.1,0.3c0,0.3-0.1,0.5-0.4,0.7c0.3,0,0.6,0.1,0.8,0.2c0.2,0.1,0.4,0.3,0.6,0.6c0.2,0.2,0.2,0.5,0.2,0.9
		c0,0.4-0.1,0.7-0.2,1c-0.2,0.3-0.4,0.6-0.8,0.7c-0.4,0.2-0.8,0.3-1.4,0.3c-0.5,0-0.9-0.1-1.2-0.2c-0.3-0.1-0.6-0.3-0.8-0.4
		c-0.2-0.2-0.4-0.4-0.5-0.6c-0.1-0.2-0.1-0.5-0.1-0.8C19.9,80.8,20.1,80.3,20.4,79.8z M22.1,80.6c0,0.1,0,0.2,0.1,0.3
		c0.1,0.1,0.2,0.1,0.3,0.1c0.1,0,0.2,0,0.3-0.1s0.1-0.2,0.1-0.3c0-0.1,0-0.2-0.1-0.3c-0.1-0.1-0.2-0.1-0.3-0.1s-0.2,0-0.3,0.1
		C22.1,80.4,22.1,80.5,22.1,80.6z M22.1,79.1c0,0.1,0,0.2,0.1,0.3c0.1,0.1,0.2,0.1,0.3,0.1c0.1,0,0.2,0,0.3-0.1
		c0.1-0.1,0.1-0.2,0.1-0.3c0-0.1,0-0.2-0.1-0.3c-0.1-0.1-0.2-0.1-0.3-0.1c-0.1,0-0.2,0-0.3,0.1C22.2,78.9,22.1,79,22.1,79.1z"/>
	<path class="st0" d="M27.2,83.2h-0.9c-0.2-0.4-0.3-0.8-0.4-1.1c-0.1-0.3-0.1-0.6-0.2-0.9c0-0.3,0-0.5,0-0.7c0-0.3,0-0.5,0-0.7
		c0-0.2,0.1-0.4,0.2-0.6c0.1-0.2,0.2-0.4,0.4-0.6s0.3-0.3,0.6-0.4c0.2-0.1,0.4-0.1,0.7-0.1c0.3,0,0.5,0,0.7,0.1
		c0.2,0.1,0.4,0.2,0.6,0.4c0.2,0.2,0.3,0.3,0.4,0.5c0.1,0.2,0.1,0.4,0.2,0.6c0,0.2,0,0.5,0,0.7c0,0.3,0,0.6-0.1,0.9
		s-0.1,0.6-0.2,0.9c-0.1,0.3-0.2,0.6-0.3,0.9H28c0.1-0.3,0.2-0.6,0.3-0.9c0.1-0.3,0.1-0.5,0.2-0.8c0-0.3,0.1-0.6,0.1-0.9
		c0-0.4,0-0.7-0.1-0.9c0-0.3-0.1-0.5-0.3-0.6c-0.1-0.2-0.3-0.3-0.6-0.3c-0.3,0-0.4,0.1-0.6,0.3c-0.1,0.2-0.2,0.4-0.3,0.6
		c0,0.3-0.1,0.6-0.1,0.9c0,0.4,0,0.9,0.1,1.3C26.9,82.3,27,82.7,27.2,83.2z"/>
	<path class="st0" d="M32.3,78.8V78c0.3,0,0.5,0,0.7,0.1c0.2,0.1,0.4,0.2,0.5,0.4c0.1,0.2,0.2,0.4,0.2,0.7c0,0.2,0,0.3-0.1,0.5
		c-0.1,0.1-0.1,0.2-0.2,0.3c-0.1,0.1-0.2,0.2-0.3,0.2c0.2,0.1,0.3,0.2,0.5,0.4c0.2,0.2,0.2,0.5,0.2,0.8c0,0.3-0.1,0.6-0.2,0.9
		c-0.1,0.3-0.3,0.5-0.6,0.6c-0.3,0.2-0.5,0.2-0.9,0.2c-0.3,0-0.6-0.1-0.9-0.2c-0.3-0.1-0.5-0.3-0.7-0.6c-0.2-0.3-0.3-0.6-0.3-0.9
		c0-0.2,0-0.4,0-0.5h1c-0.1,0.2-0.1,0.3-0.1,0.5c0,0.3,0.1,0.5,0.2,0.7c0.2,0.2,0.4,0.3,0.6,0.3c0.1,0,0.2,0,0.4-0.1
		c0.1-0.1,0.2-0.2,0.3-0.3s0.1-0.4,0.1-0.6c0-0.2,0-0.4-0.1-0.5c-0.1-0.1-0.2-0.2-0.4-0.2h-0.2v-0.7h0.2c0.2,0,0.3-0.1,0.4-0.2
		c0.1-0.1,0.1-0.3,0.1-0.4C32.9,79,32.7,78.8,32.3,78.8z"/>
	<path class="st0" d="M34.6,78.2h0.9c0,0.1,0,0.1,0,0.2c0,0.1,0,0.1,0.1,0.2c0,0,0.1,0.1,0.2,0.1c0.1,0,0.1,0,0.2-0.1
		c0.1,0,0.1-0.1,0.2-0.2c0.1-0.1,0.2-0.2,0.2-0.2c0.1-0.1,0.3-0.2,0.4-0.2c0.1,0,0.2,0,0.3,0.1c0.1,0.1,0.2,0.1,0.2,0.3
		c0.2-0.2,0.5-0.3,0.9-0.3c0.2,0,0.4,0,0.5,0.1c0.2,0.1,0.3,0.2,0.4,0.4c0.1,0.1,0.1,0.3,0.1,0.5v2.4c0,0.4-0.1,0.8-0.2,1.1
		c-0.2,0.3-0.4,0.5-0.7,0.7c-0.3,0.1-0.6,0.2-1,0.2c-0.4,0-0.7-0.1-1-0.3c-0.3-0.2-0.5-0.4-0.7-0.7c-0.1-0.3-0.2-0.6-0.2-0.9
		c0-0.3,0-0.5,0.1-0.6h1c-0.1,0.2-0.1,0.4-0.1,0.6c0,0.2,0,0.4,0.1,0.6c0.1,0.2,0.2,0.3,0.4,0.4c0.2,0.1,0.3,0.1,0.5,0.1
		c0.3,0,0.5-0.1,0.7-0.3c0.2-0.2,0.3-0.5,0.3-0.8v-2.2c0-0.3-0.1-0.5-0.3-0.5c-0.1,0-0.2,0-0.3,0.1c-0.1,0.1-0.1,0.2-0.1,0.3v0.9
		h-0.9v-0.8c0-0.2,0-0.3,0-0.4c0-0.1-0.1-0.1-0.2-0.1c-0.1,0-0.2,0.1-0.3,0.2c-0.1,0.2-0.2,0.3-0.3,0.4c-0.1,0.1-0.3,0.1-0.5,0.1
		c-0.1,0-0.3,0-0.4-0.1c-0.1-0.1-0.2-0.2-0.3-0.3c-0.1-0.1-0.1-0.3-0.1-0.6C34.6,78.4,34.6,78.3,34.6,78.2z"/>
	<path class="st0" d="M43.3,78.2h0.9c0,0.3-0.1,0.6-0.3,0.8c-0.2,0.2-0.6,0.4-1,0.5c-0.5,0.2-0.8,0.3-1.1,0.5
		c-0.3,0.1-0.5,0.3-0.6,0.6c0.2-0.2,0.4-0.2,0.7-0.2c0.4,0,0.7,0.2,0.9,0.4c0.3-0.3,0.6-0.4,1.1-0.4c0.2,0,0.5,0.1,0.6,0.2
		c0.2,0.1,0.3,0.3,0.4,0.5c0.1,0.2,0.2,0.5,0.2,0.8c0,0.5-0.2,0.9-0.5,1.4h-0.9c0.3-0.5,0.5-1,0.5-1.4c0-0.2-0.1-0.4-0.2-0.5
		c-0.1-0.1-0.2-0.2-0.4-0.2c-0.1,0-0.2,0-0.3,0.1c-0.1,0.1-0.1,0.2-0.1,0.4v0.5h-0.9v-0.5c0-0.1-0.1-0.3-0.2-0.4
		C42,81.1,41.8,81,41.6,81c-0.2,0-0.3,0.1-0.4,0.2c-0.1,0.1-0.2,0.3-0.2,0.5c0,0.2,0,0.4,0.1,0.7c0.1,0.3,0.2,0.5,0.3,0.8h-0.9
		c-0.3-0.6-0.4-1.1-0.4-1.7c0-0.4,0.1-0.7,0.2-0.9c0.1-0.3,0.3-0.5,0.5-0.7c0.2-0.2,0.5-0.4,0.9-0.6c0.2-0.1,0.4-0.2,0.6-0.3
		c0.2-0.1,0.4-0.2,0.5-0.2c0.1,0,0.2-0.1,0.3-0.2C43.1,78.5,43.2,78.3,43.3,78.2z"/>
	<path class="st0" d="M47.3,83.2h-0.9c-0.2-0.4-0.3-0.8-0.4-1.1c-0.1-0.3-0.1-0.6-0.2-0.9c0-0.3,0-0.5,0-0.7c0-0.3,0-0.5,0-0.7
		c0-0.2,0.1-0.4,0.2-0.6c0.1-0.2,0.2-0.4,0.4-0.6s0.3-0.3,0.6-0.4c0.2-0.1,0.4-0.1,0.7-0.1c0.3,0,0.5,0,0.7,0.1
		c0.2,0.1,0.4,0.2,0.6,0.4c0.2,0.2,0.3,0.3,0.4,0.5c0.1,0.2,0.1,0.4,0.2,0.6c0,0.2,0,0.5,0,0.7c0,0.3,0,0.6-0.1,0.9
		s-0.1,0.6-0.2,0.9c-0.1,0.3-0.2,0.6-0.3,0.9h-0.9c0.1-0.3,0.2-0.6,0.3-0.9c0.1-0.3,0.1-0.5,0.2-0.8c0-0.3,0.1-0.6,0.1-0.9
		c0-0.4,0-0.7-0.1-0.9c0-0.3-0.1-0.5-0.3-0.6c-0.1-0.2-0.3-0.3-0.6-0.3c-0.3,0-0.4,0.1-0.6,0.3c-0.1,0.2-0.2,0.4-0.3,0.6
		c0,0.3-0.1,0.6-0.1,0.9c0,0.4,0,0.9,0.1,1.3C47,82.3,47.1,82.7,47.3,83.2z"/>
	<path class="st0" d="M53.2,79.5h-0.9c0-0.1,0-0.2,0-0.3c0-0.2,0.1-0.5,0.2-0.6c0.1-0.2,0.3-0.3,0.5-0.4c0.2-0.1,0.4-0.1,0.7-0.1
		c0.4,0,0.7,0.1,0.9,0.3c0.2,0.2,0.4,0.5,0.4,0.9c0,0.1,0,0.2,0,0.3s0,0.3,0,0.3c0,0.1,0,0.2,0.1,0.3c0,0.1,0.1,0.1,0.3,0.2
		c0.1,0.1,0.3,0.2,0.3,0.3c0.1,0.1,0.2,0.2,0.2,0.3c0.1,0.2,0.1,0.4,0.1,0.6c0,0.3-0.1,0.6-0.2,0.8c-0.2,0.3-0.4,0.4-0.7,0.6
		c-0.3,0.1-0.6,0.2-1,0.2c-0.4,0-0.8-0.1-1.1-0.2c-0.3-0.1-0.5-0.3-0.7-0.5c-0.2-0.2-0.2-0.5-0.2-0.8c0-0.6,0.2-1,0.7-1.3
		c0.3-0.2,0.7-0.3,1.2-0.4c0-0.1,0-0.3,0-0.5v-0.2c0-0.4-0.1-0.6-0.4-0.6c-0.1,0-0.3,0-0.4,0.1c-0.1,0.1-0.1,0.2-0.1,0.4
		C53.2,79.4,53.2,79.5,53.2,79.5z M53,81.7c0,0.3,0.1,0.5,0.3,0.6c0.2,0.2,0.4,0.3,0.8,0.3c0.3,0,0.5-0.1,0.7-0.2
		c0.2-0.1,0.3-0.3,0.3-0.6c0-0.3-0.1-0.5-0.3-0.7c-0.2-0.2-0.4-0.3-0.7-0.3c-0.2,0-0.3,0-0.5,0.1c-0.2,0.1-0.3,0.2-0.4,0.3
		C53,81.4,53,81.5,53,81.7z"/>
	<path class="st0" d="M58.2,83.2h-0.9c-0.2-0.4-0.3-0.8-0.4-1.1c-0.1-0.3-0.1-0.6-0.2-0.9c0-0.3,0-0.5,0-0.7c0-0.3,0-0.5,0-0.7
		c0-0.2,0.1-0.4,0.2-0.6c0.1-0.2,0.2-0.4,0.4-0.6s0.3-0.3,0.6-0.4c0.2-0.1,0.4-0.1,0.7-0.1c0.3,0,0.5,0,0.7,0.1
		c0.2,0.1,0.4,0.2,0.6,0.4c0.2,0.2,0.3,0.3,0.4,0.5c0.1,0.2,0.1,0.4,0.2,0.6c0,0.2,0,0.5,0,0.7c0,0.3,0,0.6-0.1,0.9
		s-0.1,0.6-0.2,0.9c-0.1,0.3-0.2,0.6-0.3,0.9H59c0.1-0.3,0.2-0.6,0.3-0.9c0.1-0.3,0.1-0.5,0.2-0.8c0-0.3,0.1-0.6,0.1-0.9
		c0-0.4,0-0.7-0.1-0.9c0-0.3-0.1-0.5-0.3-0.6c-0.1-0.2-0.3-0.3-0.6-0.3c-0.3,0-0.4,0.1-0.6,0.3c-0.1,0.2-0.2,0.4-0.3,0.6
		c0,0.3-0.1,0.6-0.1,0.9c0,0.4,0,0.9,0.1,1.3C57.9,82.3,58.1,82.7,58.2,83.2z"/>
	<path class="st0" d="M62.4,79.5v1.1c0.3-0.2,0.6-0.3,1-0.3c0.3,0,0.5,0.1,0.7,0.2c0.2,0.1,0.4,0.3,0.5,0.6c0.1,0.2,0.2,0.5,0.2,0.7
		c0,0.2-0.1,0.5-0.2,0.7c-0.1,0.2-0.3,0.4-0.5,0.6c-0.2,0.1-0.5,0.2-0.9,0.2c-0.3,0-0.6-0.1-0.9-0.2c-0.3-0.1-0.5-0.3-0.6-0.5
		c-0.1-0.2-0.2-0.5-0.2-0.8v-2.5c0-0.4,0.1-0.7,0.3-0.9s0.5-0.3,0.8-0.3c0.1,0,0.4,0,0.8,0.1c0.2,0,0.3,0.1,0.4,0.1
		c0.3,0,0.5-0.1,0.7-0.2V79c-0.2,0.1-0.4,0.1-0.6,0.1c-0.2,0-0.3,0-0.6-0.1c-0.1,0-0.2,0-0.4-0.1S62.8,79,62.7,79
		c-0.1,0-0.2,0-0.3,0.1C62.4,79.2,62.4,79.3,62.4,79.5z M62.4,81.8c0,0.2,0.1,0.4,0.2,0.5c0.1,0.1,0.3,0.2,0.5,0.2
		c0.2,0,0.4-0.1,0.5-0.2c0.1-0.2,0.2-0.3,0.2-0.5c0-0.1,0-0.3-0.1-0.4c-0.1-0.1-0.2-0.2-0.3-0.3c-0.1-0.1-0.2-0.1-0.4-0.1h0
		c-0.2,0-0.4,0.1-0.5,0.2C62.5,81.4,62.4,81.6,62.4,81.8z"/>
	<path class="st0" d="M66.8,79.7h-0.9c0-0.1,0-0.2,0-0.3c0-0.2,0.1-0.5,0.2-0.7c0.1-0.2,0.3-0.4,0.6-0.5c0.2-0.1,0.5-0.2,0.9-0.2
		c0.6,0,1,0.2,1.2,0.5c0.2,0.3,0.4,0.8,0.4,1.4v1.8c0,0.5-0.1,0.9-0.4,1.2c-0.3,0.3-0.7,0.4-1.2,0.4c-0.3,0-0.7-0.1-0.9-0.2
		c-0.3-0.1-0.5-0.3-0.7-0.6c-0.2-0.3-0.2-0.6-0.2-0.9c0-0.2,0-0.4,0-0.5h1c-0.1,0.2-0.1,0.3-0.1,0.5c0,0.3,0.1,0.5,0.2,0.7
		c0.2,0.2,0.4,0.2,0.6,0.2c0.2,0,0.4-0.1,0.6-0.2c0.2-0.1,0.3-0.4,0.3-0.8v-2c0-0.3-0.1-0.5-0.2-0.6c-0.1-0.1-0.3-0.2-0.5-0.2
		c-0.2,0-0.4,0.1-0.6,0.2c-0.1,0.1-0.2,0.3-0.2,0.5C66.8,79.6,66.8,79.7,66.8,79.7z"/>
	<path class="st0" d="M72.1,78.8V78c0.3,0,0.5,0,0.7,0.1c0.2,0.1,0.4,0.2,0.5,0.4c0.1,0.2,0.2,0.4,0.2,0.7c0,0.2,0,0.3-0.1,0.5
		c-0.1,0.1-0.1,0.2-0.2,0.3c-0.1,0.1-0.2,0.2-0.3,0.2c0.2,0.1,0.3,0.2,0.5,0.4c0.2,0.2,0.2,0.5,0.2,0.8c0,0.3-0.1,0.6-0.2,0.9
		c-0.1,0.3-0.3,0.5-0.6,0.6c-0.3,0.2-0.5,0.2-0.9,0.2c-0.3,0-0.6-0.1-0.9-0.2c-0.3-0.1-0.5-0.3-0.7-0.6c-0.2-0.3-0.3-0.6-0.3-0.9
		c0-0.2,0-0.4,0-0.5h1c-0.1,0.2-0.1,0.3-0.1,0.5c0,0.3,0.1,0.5,0.2,0.7c0.2,0.2,0.4,0.3,0.6,0.3c0.1,0,0.2,0,0.4-0.1
		c0.1-0.1,0.2-0.2,0.3-0.3s0.1-0.4,0.1-0.6c0-0.2,0-0.4-0.1-0.5c-0.1-0.1-0.2-0.2-0.4-0.2h-0.2v-0.7h0.2c0.2,0,0.3-0.1,0.4-0.2
		c0.1-0.1,0.1-0.3,0.1-0.4C72.7,79,72.5,78.8,72.1,78.8z"/>
	<path class="st0" d="M77.6,80.7h-0.9v-1.3c0-0.2,0-0.4-0.1-0.5c-0.1-0.1-0.2-0.1-0.3-0.1c-0.2,0-0.3,0.1-0.4,0.2
		c-0.1,0.1-0.2,0.3-0.2,0.5v2.2c0,0.5,0.1,1,0.3,1.5h-0.9c-0.1-0.2-0.2-0.4-0.2-0.6c-0.1-0.2-0.1-0.4-0.1-0.6c0-0.2,0-0.3,0-0.5
		v-1.9c0-0.3,0.1-0.6,0.2-0.9c0.1-0.2,0.3-0.4,0.5-0.5c0.2-0.1,0.5-0.2,0.7-0.2c0.4,0,0.7,0.1,1,0.4c0.3-0.3,0.6-0.4,1-0.4
		c0.2,0,0.4,0,0.6,0.1c0.2,0.1,0.4,0.3,0.5,0.5c0.1,0.2,0.2,0.5,0.2,0.9v1.9c0,0.3,0,0.6-0.1,0.9c-0.1,0.3-0.2,0.5-0.3,0.8h-0.9
		c0.1-0.2,0.2-0.4,0.2-0.6c0-0.2,0.1-0.3,0.1-0.5s0-0.3,0-0.5v-2.2c0-0.2-0.1-0.4-0.2-0.5c-0.1-0.1-0.2-0.2-0.4-0.2
		c-0.1,0-0.2,0-0.3,0.1c-0.1,0.1-0.1,0.3-0.1,0.5V80.7z"/>
	<path class="st0" d="M80.7,81.3h0.6c-0.2-0.2-0.4-0.4-0.5-0.7c-0.1-0.3-0.2-0.6-0.2-1c0-0.4,0.1-0.6,0.2-0.9
		c0.1-0.2,0.3-0.4,0.5-0.5c0.2-0.1,0.4-0.2,0.6-0.2c0.1,0,0.3,0,0.4,0.1c0.2,0.1,0.3,0.2,0.4,0.3c0.1-0.2,0.3-0.3,0.4-0.4
		c0.2-0.1,0.3-0.1,0.4-0.1c0.4,0,0.6,0.1,0.8,0.4c0.2-0.3,0.6-0.4,1-0.4c0.2,0,0.4,0,0.6,0.1c0.2,0.1,0.3,0.2,0.4,0.4
		c0.1,0.2,0.2,0.4,0.2,0.7c0,0.3-0.1,0.6-0.2,1h-0.9c0.2-0.3,0.2-0.6,0.2-0.9c0-0.2,0-0.4-0.1-0.5c-0.1-0.1-0.2-0.2-0.3-0.2
		c-0.1,0-0.2,0-0.3,0.1s-0.1,0.2-0.1,0.3V80h-0.9v-0.9c0-0.2,0-0.3-0.1-0.3c-0.1-0.1-0.2-0.1-0.3-0.1c-0.1,0-0.2,0-0.3,0.1
		C83.1,78.9,83,79,83,79.2V80h-0.8l0-0.8c0-0.3-0.1-0.5-0.3-0.5c-0.2,0-0.3,0.1-0.3,0.2c0,0.2-0.1,0.3-0.1,0.6c0,0.2,0,0.4,0,0.6
		c0,0.2,0.1,0.3,0.2,0.5c0.1,0.2,0.3,0.3,0.5,0.4c0.3,0.1,0.6,0.2,1,0.3c0.4,0.1,0.7,0.1,1,0.2c0.3,0.1,0.5,0.1,0.8,0.3
		c0.3,0.1,0.5,0.3,0.7,0.5c0.2,0.2,0.3,0.5,0.3,0.9H85c0-0.3-0.2-0.5-0.4-0.7c-0.2-0.2-0.5-0.3-0.9-0.3c-0.4-0.1-0.8-0.1-1.3-0.1
		h-1.7V81.3z"/>
	<path class="st0" d="M90.3,80.7h-0.9v-1.3c0-0.2,0-0.4-0.1-0.5c-0.1-0.1-0.2-0.1-0.3-0.1c-0.2,0-0.3,0.1-0.4,0.2
		c-0.1,0.1-0.2,0.3-0.2,0.5v2.2c0,0.5,0.1,1,0.3,1.5h-0.9c-0.1-0.2-0.2-0.4-0.2-0.6c-0.1-0.2-0.1-0.4-0.1-0.6c0-0.2,0-0.3,0-0.5
		v-1.9c0-0.3,0.1-0.6,0.2-0.9c0.1-0.2,0.3-0.4,0.5-0.5c0.2-0.1,0.5-0.2,0.7-0.2c0.4,0,0.7,0.1,1,0.4c0.3-0.3,0.6-0.4,1-0.4
		c0.2,0,0.4,0,0.6,0.1c0.2,0.1,0.4,0.3,0.5,0.5c0.1,0.2,0.2,0.5,0.2,0.9v1.9c0,0.3,0,0.6-0.1,0.9c-0.1,0.3-0.2,0.5-0.3,0.8H91
		c0.1-0.2,0.2-0.4,0.2-0.6c0-0.2,0.1-0.3,0.1-0.5s0-0.3,0-0.5v-2.2c0-0.2-0.1-0.4-0.2-0.5c-0.1-0.1-0.2-0.2-0.4-0.2
		c-0.1,0-0.2,0-0.3,0.1c-0.1,0.1-0.1,0.3-0.1,0.5V80.7z"/>
	<path class="st0" d="M94.4,79.5h-0.9c0-0.1,0-0.2,0-0.3c0-0.2,0.1-0.5,0.2-0.6c0.1-0.2,0.3-0.3,0.5-0.4c0.2-0.1,0.4-0.1,0.7-0.1
		c0.4,0,0.7,0.1,0.9,0.3c0.2,0.2,0.4,0.5,0.4,0.9c0,0.1,0,0.2,0,0.3c0,0.1,0,0.3,0,0.3c0,0.1,0,0.2,0.1,0.3c0,0.1,0.1,0.1,0.3,0.2
		c0.1,0.1,0.3,0.2,0.3,0.3c0.1,0.1,0.2,0.2,0.2,0.3c0.1,0.2,0.1,0.4,0.1,0.6c0,0.3-0.1,0.6-0.2,0.8c-0.2,0.3-0.4,0.4-0.7,0.6
		c-0.3,0.1-0.6,0.2-1,0.2c-0.4,0-0.8-0.1-1.1-0.2c-0.3-0.1-0.5-0.3-0.7-0.5c-0.2-0.2-0.2-0.5-0.2-0.8c0-0.6,0.2-1,0.7-1.3
		c0.3-0.2,0.7-0.3,1.2-0.4c0-0.1,0-0.3,0-0.5v-0.2c0-0.4-0.1-0.6-0.4-0.6c-0.1,0-0.3,0-0.4,0.1c-0.1,0.1-0.2,0.2-0.2,0.4
		C94.4,79.4,94.4,79.5,94.4,79.5z M94.2,81.7c0,0.3,0.1,0.5,0.3,0.6c0.2,0.2,0.4,0.3,0.8,0.3c0.3,0,0.5-0.1,0.7-0.2
		c0.2-0.1,0.3-0.3,0.3-0.6c0-0.3-0.1-0.5-0.3-0.7c-0.2-0.2-0.4-0.3-0.7-0.3c-0.2,0-0.3,0-0.5,0.1c-0.2,0.1-0.3,0.2-0.4,0.3
		C94.2,81.4,94.2,81.5,94.2,81.7z"/>
	<path class="st0" d="M99.4,83.2h-0.9c-0.2-0.4-0.3-0.8-0.4-1.1c-0.1-0.3-0.1-0.6-0.2-0.9c0-0.3,0-0.5,0-0.7c0-0.3,0-0.5,0-0.7
		c0-0.2,0.1-0.4,0.2-0.6c0.1-0.2,0.2-0.4,0.4-0.6s0.3-0.3,0.6-0.4c0.2-0.1,0.4-0.1,0.7-0.1c0.3,0,0.5,0,0.7,0.1
		c0.2,0.1,0.4,0.2,0.6,0.4c0.2,0.2,0.3,0.3,0.4,0.5c0.1,0.2,0.1,0.4,0.2,0.6c0,0.2,0,0.5,0,0.7c0,0.3,0,0.6-0.1,0.9
		c0,0.3-0.1,0.6-0.2,0.9c-0.1,0.3-0.2,0.6-0.3,0.9h-0.9c0.1-0.3,0.2-0.6,0.3-0.9c0.1-0.3,0.1-0.5,0.2-0.8c0-0.3,0.1-0.6,0.1-0.9
		c0-0.4,0-0.7-0.1-0.9c0-0.3-0.1-0.5-0.3-0.6c-0.1-0.2-0.3-0.3-0.6-0.3c-0.3,0-0.4,0.1-0.6,0.3c-0.1,0.2-0.2,0.4-0.3,0.6
		c0,0.3-0.1,0.6-0.1,0.9c0,0.4,0,0.9,0.1,1.3C99.1,82.3,99.3,82.7,99.4,83.2z"/>
	<path class="st0" d="M104,83.2h-0.9c-0.2-0.4-0.3-0.8-0.4-1.1s-0.1-0.6-0.2-0.9c0-0.3,0-0.5,0-0.7c0-0.3,0-0.5,0-0.7
		c0-0.2,0.1-0.4,0.2-0.6c0.1-0.2,0.2-0.4,0.4-0.6s0.3-0.3,0.6-0.4c0.2-0.1,0.4-0.1,0.7-0.1c0.3,0,0.5,0,0.7,0.1
		c0.2,0.1,0.4,0.2,0.6,0.4s0.3,0.3,0.4,0.5c0.1,0.2,0.1,0.4,0.2,0.6c0,0.2,0,0.5,0,0.7c0,0.3,0,0.6-0.1,0.9
		c-0.1,0.3-0.1,0.6-0.2,0.9c-0.1,0.3-0.2,0.6-0.3,0.9h-0.9c0.1-0.3,0.2-0.6,0.3-0.9c0.1-0.3,0.1-0.5,0.2-0.8c0-0.3,0.1-0.6,0.1-0.9
		c0-0.4,0-0.7-0.1-0.9c0-0.3-0.1-0.5-0.3-0.6c-0.1-0.2-0.3-0.3-0.6-0.3c-0.3,0-0.4,0.1-0.6,0.3c-0.1,0.2-0.2,0.4-0.3,0.6
		c0,0.3-0.1,0.6-0.1,0.9c0,0.4,0,0.9,0.1,1.3C103.7,82.3,103.8,82.7,104,83.2z"/>
	<path class="st0" d="M109.2,80.3h0.9c0,0.1,0,0.1,0,0.2c0,0.1,0.1,0.2,0.2,0.4c0.1,0.2,0.2,0.3,0.2,0.4c0,0.1,0.1,0.2,0.1,0.4
		c0,0.3-0.1,0.5-0.2,0.8c-0.1,0.2-0.3,0.4-0.6,0.6c-0.3,0.2-0.6,0.2-0.9,0.2c-0.4,0-0.7-0.1-0.9-0.2c-0.2-0.1-0.4-0.3-0.5-0.5
		c-0.1-0.2-0.2-0.4-0.2-0.6c0-0.2,0-0.4,0-0.5v-3.3h0.9v3.2c0,0.3,0,0.5,0.1,0.7c0,0.2,0.1,0.3,0.2,0.4c0.1,0.1,0.3,0.2,0.5,0.2
		c0.1,0,0.3,0,0.4-0.1c0.1-0.1,0.2-0.2,0.3-0.3c0.1-0.1,0.1-0.3,0.1-0.4c0-0.2-0.1-0.4-0.2-0.7c0-0.1-0.1-0.1-0.1-0.2
		c0-0.1-0.1-0.1-0.1-0.2c0-0.1,0-0.1,0-0.2C109.2,80.5,109.2,80.4,109.2,80.3z"/>
	<path class="st0" d="M115.7,78.2h0.9c0,0.1,0,0.2,0,0.3c0,0.1,0,0.2,0,0.2c0,0.1,0.1,0.1,0.1,0.1c0.1,0,0.1,0.1,0.2,0.1
		c0.1,0,0.2,0.1,0.3,0.1c0.2,0.1,0.4,0.2,0.5,0.3c0.1,0.1,0.2,0.3,0.2,0.5c0,0.2-0.1,0.4-0.2,0.5s-0.3,0.2-0.6,0.3
		c0.2,0.1,0.4,0.2,0.6,0.4c0.2,0.2,0.2,0.4,0.2,0.7c0,0.3-0.1,0.5-0.3,0.8c-0.2,0.2-0.4,0.4-0.7,0.6c-0.3,0.1-0.7,0.2-1.1,0.2
		c-0.3,0-0.6,0-0.8-0.1c-0.3-0.1-0.5-0.2-0.8-0.4c-0.2-0.2-0.4-0.5-0.6-0.8c-0.2-0.3-0.2-0.8-0.2-1.3c0-0.4,0.1-0.9,0.2-1.3
		c0.1-0.5,0.3-0.9,0.6-1.2h0.9c-0.3,0.5-0.5,1-0.6,1.4c-0.1,0.4-0.2,0.8-0.2,1.3c0,0.7,0.2,1.2,0.5,1.4c0.3,0.2,0.7,0.4,1.1,0.4
		c0.4,0,0.7-0.1,0.9-0.3s0.3-0.4,0.3-0.6c0-0.1,0-0.2-0.1-0.3c-0.1-0.1-0.1-0.2-0.3-0.3c-0.1-0.1-0.3-0.1-0.5-0.1h-0.4v-0.7h0.5
		c0.2,0,0.4,0,0.5-0.1c0.1,0,0.2-0.2,0.2-0.3c0-0.1,0-0.2-0.1-0.3c-0.1-0.1-0.2-0.1-0.3-0.1c-0.1,0-0.3-0.1-0.3-0.1
		c-0.1,0-0.2-0.1-0.2-0.1c-0.1-0.1-0.1-0.1-0.2-0.2c-0.1-0.1-0.1-0.2-0.1-0.4C115.6,78.5,115.6,78.3,115.7,78.2z"/>
	<path class="st0" d="M119.9,79.7h-0.9c0-0.1,0-0.2,0-0.3c0-0.2,0.1-0.5,0.2-0.7c0.1-0.2,0.3-0.4,0.6-0.5c0.2-0.1,0.5-0.2,0.9-0.2
		c0.6,0,1,0.2,1.2,0.5c0.2,0.3,0.4,0.8,0.4,1.4v1.8c0,0.5-0.1,0.9-0.4,1.2c-0.3,0.3-0.7,0.4-1.2,0.4c-0.3,0-0.7-0.1-0.9-0.2
		c-0.3-0.1-0.5-0.3-0.7-0.6c-0.2-0.3-0.2-0.6-0.2-0.9c0-0.2,0-0.4,0-0.5h1c-0.1,0.2-0.1,0.3-0.1,0.5c0,0.3,0.1,0.5,0.2,0.7
		c0.2,0.2,0.4,0.2,0.6,0.2c0.2,0,0.4-0.1,0.6-0.2c0.2-0.1,0.3-0.4,0.3-0.8v-2c0-0.3-0.1-0.5-0.2-0.6c-0.1-0.1-0.3-0.2-0.5-0.2
		c-0.2,0-0.4,0.1-0.6,0.2c-0.1,0.1-0.2,0.3-0.2,0.5C119.9,79.6,119.9,79.7,119.9,79.7z"/>
	<path class="st0" d="M124.3,79.5v1.1c0.3-0.2,0.6-0.3,1-0.3c0.3,0,0.5,0.1,0.7,0.2c0.2,0.1,0.4,0.3,0.5,0.6
		c0.1,0.2,0.2,0.5,0.2,0.7c0,0.2-0.1,0.5-0.2,0.7c-0.1,0.2-0.3,0.4-0.5,0.6c-0.2,0.1-0.5,0.2-0.9,0.2c-0.3,0-0.6-0.1-0.9-0.2
		c-0.3-0.1-0.5-0.3-0.6-0.5c-0.1-0.2-0.2-0.5-0.2-0.8v-2.5c0-0.4,0.1-0.7,0.3-0.9c0.2-0.2,0.5-0.3,0.8-0.3c0.1,0,0.4,0,0.8,0.1
		c0.2,0,0.3,0.1,0.4,0.1c0.3,0,0.5-0.1,0.7-0.2V79c-0.2,0.1-0.4,0.1-0.6,0.1c-0.2,0-0.3,0-0.6-0.1c-0.1,0-0.2,0-0.4-0.1
		c-0.1,0-0.3-0.1-0.3-0.1c-0.1,0-0.2,0-0.3,0.1C124.4,79.2,124.3,79.3,124.3,79.5z M124.3,81.8c0,0.2,0.1,0.4,0.2,0.5
		c0.1,0.1,0.3,0.2,0.5,0.2c0.2,0,0.4-0.1,0.5-0.2c0.1-0.2,0.2-0.3,0.2-0.5c0-0.1,0-0.3-0.1-0.4c-0.1-0.1-0.2-0.2-0.3-0.3
		c-0.1-0.1-0.2-0.1-0.4-0.1h0c-0.2,0-0.4,0.1-0.5,0.2C124.4,81.4,124.3,81.6,124.3,81.8z"/>
	<path class="st0" d="M128,79.8h0.9c-0.3,0.4-0.4,0.9-0.4,1.4c0,0.3,0.1,0.5,0.2,0.8c0.1,0.2,0.3,0.4,0.6,0.5
		c0.2,0.1,0.5,0.2,0.9,0.2c0.4,0,0.7-0.1,1-0.2c0.2-0.2,0.4-0.3,0.5-0.5c0.1-0.2,0.1-0.4,0.1-0.5c0-0.7-0.2-1.1-0.7-1.3
		c0.2,0.2,0.3,0.5,0.3,0.8c0,0.3-0.1,0.5-0.3,0.7c-0.2,0.2-0.5,0.2-0.7,0.2c-0.2,0-0.4,0-0.5-0.1c-0.2-0.1-0.3-0.2-0.4-0.3
		c-0.1-0.1-0.1-0.3-0.1-0.5c0-0.4,0.2-0.7,0.6-0.9c-0.2-0.1-0.3-0.2-0.4-0.3c-0.1-0.1-0.2-0.3-0.2-0.5c0-0.2,0-0.3,0.1-0.5
		s0.2-0.2,0.4-0.3c0.2-0.1,0.3-0.1,0.5-0.1c0.2,0,0.3,0,0.5,0.1c0.1,0,0.3,0.1,0.4,0.2c0.1,0.1,0.2,0.2,0.2,0.3s0.1,0.2,0.1,0.3
		c0,0.3-0.1,0.5-0.4,0.7c0.3,0,0.6,0.1,0.8,0.2c0.2,0.1,0.4,0.3,0.6,0.6c0.2,0.2,0.2,0.5,0.2,0.9c0,0.4-0.1,0.7-0.2,1
		c-0.2,0.3-0.4,0.6-0.8,0.7c-0.4,0.2-0.8,0.3-1.4,0.3c-0.5,0-0.9-0.1-1.2-0.2c-0.3-0.1-0.6-0.3-0.8-0.4c-0.2-0.2-0.4-0.4-0.5-0.6
		c-0.1-0.2-0.1-0.5-0.1-0.8C127.6,80.8,127.8,80.3,128,79.8z M129.8,80.6c0,0.1,0,0.2,0.1,0.3c0.1,0.1,0.2,0.1,0.3,0.1
		c0.1,0,0.2,0,0.3-0.1s0.1-0.2,0.1-0.3c0-0.1,0-0.2-0.1-0.3c-0.1-0.1-0.2-0.1-0.3-0.1s-0.2,0-0.3,0.1
		C129.8,80.4,129.8,80.5,129.8,80.6z M129.8,79.1c0,0.1,0,0.2,0.1,0.3c0.1,0.1,0.2,0.1,0.3,0.1c0.1,0,0.2,0,0.3-0.1
		c0.1-0.1,0.1-0.2,0.1-0.3c0-0.1,0-0.2-0.1-0.3c-0.1-0.1-0.2-0.1-0.3-0.1c-0.1,0-0.2,0-0.3,0.1C129.9,78.9,129.8,79,129.8,79.1z"/>
	<path class="st0" d="M136.6,78.2h0.9c0,0.3-0.1,0.6-0.3,0.8c-0.2,0.2-0.6,0.4-1,0.5c-0.5,0.2-0.8,0.3-1.1,0.5
		c-0.3,0.1-0.5,0.3-0.6,0.6c0.2-0.2,0.4-0.2,0.7-0.2c0.4,0,0.7,0.2,0.9,0.4c0.3-0.3,0.6-0.4,1.1-0.4c0.2,0,0.5,0.1,0.6,0.2
		c0.2,0.1,0.3,0.3,0.4,0.5c0.1,0.2,0.2,0.5,0.2,0.8c0,0.5-0.2,0.9-0.5,1.4h-0.9c0.3-0.5,0.5-1,0.5-1.4c0-0.2-0.1-0.4-0.2-0.5
		c-0.1-0.1-0.2-0.2-0.4-0.2c-0.1,0-0.2,0-0.3,0.1c-0.1,0.1-0.1,0.2-0.1,0.4v0.5h-0.9v-0.5c0-0.1-0.1-0.3-0.2-0.4
		c-0.1-0.1-0.2-0.1-0.4-0.1c-0.2,0-0.3,0.1-0.4,0.2c-0.1,0.1-0.2,0.3-0.2,0.5c0,0.2,0,0.4,0.1,0.7c0.1,0.3,0.2,0.5,0.3,0.8h-0.9
		c-0.3-0.6-0.4-1.1-0.4-1.7c0-0.4,0.1-0.7,0.2-0.9c0.1-0.3,0.3-0.5,0.5-0.7c0.2-0.2,0.5-0.4,0.9-0.6c0.2-0.1,0.4-0.2,0.6-0.3
		c0.2-0.1,0.4-0.2,0.5-0.2c0.1,0,0.2-0.1,0.3-0.2C136.5,78.5,136.6,78.3,136.6,78.2z"/>
	<path class="st0" d="M140.6,83.2h-0.9c-0.2-0.4-0.3-0.8-0.4-1.1s-0.1-0.6-0.2-0.9c0-0.3,0-0.5,0-0.7c0-0.3,0-0.5,0-0.7
		c0-0.2,0.1-0.4,0.2-0.6c0.1-0.2,0.2-0.4,0.4-0.6s0.3-0.3,0.6-0.4c0.2-0.1,0.4-0.1,0.7-0.1c0.3,0,0.5,0,0.7,0.1
		c0.2,0.1,0.4,0.2,0.6,0.4s0.3,0.3,0.4,0.5c0.1,0.2,0.1,0.4,0.2,0.6c0,0.2,0,0.5,0,0.7c0,0.3,0,0.6-0.1,0.9
		c-0.1,0.3-0.1,0.6-0.2,0.9c-0.1,0.3-0.2,0.6-0.3,0.9h-0.9c0.1-0.3,0.2-0.6,0.3-0.9c0.1-0.3,0.1-0.5,0.2-0.8c0-0.3,0.1-0.6,0.1-0.9
		c0-0.4,0-0.7-0.1-0.9c0-0.3-0.1-0.5-0.3-0.6c-0.1-0.2-0.3-0.3-0.6-0.3c-0.3,0-0.4,0.1-0.6,0.3c-0.1,0.2-0.2,0.4-0.3,0.6
		c0,0.3-0.1,0.6-0.1,0.9c0,0.4,0,0.9,0.1,1.3C140.3,82.3,140.5,82.7,140.6,83.2z"/>
</g>
<g class="st2">
	<path class="st0" d="M0,86.7h1.2c0.2,0,0.4,0,0.5,0c0.1,0,0.2,0.1,0.3,0.1C2.2,87,2.2,87,2.3,87.1s0.1,0.2,0.1,0.4
		c0,0.1,0,0.3-0.1,0.4C2.2,88,2.1,88.1,2,88.2c0.2,0.1,0.3,0.1,0.4,0.3c0.1,0.1,0.1,0.3,0.1,0.5c0,0.1,0,0.3-0.1,0.4
		c-0.1,0.1-0.2,0.2-0.3,0.3c-0.1,0.1-0.2,0.1-0.4,0.1c-0.1,0-0.3,0-0.7,0H0V86.7z M0.6,87.2v0.7H1c0.2,0,0.4,0,0.4,0
		c0.1,0,0.2,0,0.2-0.1s0.1-0.1,0.1-0.2c0-0.1,0-0.2-0.1-0.2s-0.1-0.1-0.2-0.1c-0.1,0-0.2,0-0.5,0H0.6z M0.6,88.5v0.8h0.6
		c0.2,0,0.4,0,0.4,0c0.1,0,0.2-0.1,0.2-0.1c0.1-0.1,0.1-0.1,0.1-0.3c0-0.1,0-0.2-0.1-0.2c0-0.1-0.1-0.1-0.2-0.1s-0.3,0-0.5,0H0.6z"
		/>
	<path class="st0" d="M3.1,89.8v-3h2.2v0.5H3.7v0.7h1.5v0.5H3.7v0.8h1.7v0.5H3.1z"/>
	<path class="st0" d="M5.9,89.8v-3h0.6v2.5H8v0.5H5.9z"/>
	<path class="st0" d="M11.2,89.8h-0.7l-0.3-0.7H9.1l-0.3,0.7H8.2l1.2-3H10L11.2,89.8z M10.1,88.6l-0.4-1.1l-0.4,1.1H10.1z"/>
	<path class="st0" d="M13.7,89.8v-3h0.9l0.6,2.1l0.5-2.1h0.9v3h-0.6v-2.4l-0.6,2.4h-0.6l-0.6-2.4v2.4H13.7z"/>
	<path class="st0" d="M17.3,89.8v-3h2.2v0.5h-1.6v0.7h1.5v0.5h-1.5v0.8h1.7v0.5H17.3z"/>
	<path class="st0" d="M20.8,89.8v-2.5h-0.9v-0.5h2.4v0.5h-0.9v2.5H20.8z"/>
	<path class="st0" d="M22.7,89.8v-3H24c0.3,0,0.6,0,0.7,0.1c0.1,0.1,0.3,0.2,0.4,0.3c0.1,0.1,0.1,0.3,0.1,0.5c0,0.2-0.1,0.4-0.2,0.6
		s-0.3,0.2-0.6,0.3c0.1,0.1,0.2,0.2,0.3,0.3c0.1,0.1,0.2,0.3,0.3,0.5l0.4,0.6h-0.7l-0.4-0.7c-0.2-0.2-0.3-0.4-0.3-0.4
		c-0.1-0.1-0.1-0.1-0.2-0.1c-0.1,0-0.2,0-0.3,0h-0.1v1.3H22.7z M23.3,88h0.5c0.3,0,0.5,0,0.6,0s0.1-0.1,0.2-0.1
		c0-0.1,0.1-0.1,0.1-0.2c0-0.1,0-0.2-0.1-0.2c-0.1-0.1-0.1-0.1-0.2-0.1c0,0-0.2,0-0.4,0h-0.5V88z"/>
	<path class="st0" d="M25.7,89.8v-3H28v0.5h-1.6v0.7h1.5v0.5h-1.5v0.8H28v0.5H25.7z"/>
	<path class="st0" d="M29.3,89.8l-1.1-3h0.7l0.8,2.2l0.7-2.2h0.6l-1.1,3H29.3z"/>
	<path class="st0" d="M31.4,89.8v-3h2.2v0.5H32v0.7h1.5v0.5H32v0.8h1.7v0.5H31.4z"/>
	<path class="st0" d="M34.2,89.8v-3h0.6v2.5h1.5v0.5H34.2z"/>
	<path class="st0" d="M36.8,89.8v-3h0.6v3H36.8z"/>
	<path class="st0" d="M38,86.7h0.6v0.4c0,0.2,0,0.3,0,0.4c0,0.1-0.1,0.2-0.2,0.3C38.2,87.9,38.1,88,38,88l-0.1-0.2
		c0.1,0,0.2-0.1,0.3-0.2c0-0.1,0.1-0.2,0.1-0.3H38V86.7z"/>
	<path class="st0" d="M39,88.8l0.6-0.1c0,0.2,0.1,0.3,0.2,0.4c0.1,0.1,0.3,0.1,0.4,0.1c0.2,0,0.3,0,0.4-0.1c0.1-0.1,0.1-0.2,0.1-0.3
		c0-0.1,0-0.1-0.1-0.2c0,0-0.1-0.1-0.2-0.1c-0.1,0-0.2-0.1-0.5-0.1c-0.3-0.1-0.6-0.2-0.7-0.3c-0.2-0.2-0.3-0.4-0.3-0.6
		c0-0.2,0-0.3,0.1-0.4c0.1-0.1,0.2-0.2,0.4-0.3c0.2-0.1,0.4-0.1,0.6-0.1c0.4,0,0.7,0.1,0.9,0.3s0.3,0.4,0.3,0.7l-0.6,0
		c0-0.2-0.1-0.3-0.2-0.3c-0.1-0.1-0.2-0.1-0.4-0.1c-0.2,0-0.3,0-0.4,0.1c-0.1,0-0.1,0.1-0.1,0.2c0,0.1,0,0.1,0.1,0.2
		c0.1,0.1,0.3,0.1,0.6,0.2s0.5,0.1,0.7,0.2c0.1,0.1,0.3,0.2,0.3,0.3c0.1,0.1,0.1,0.3,0.1,0.5c0,0.2,0,0.3-0.1,0.5
		c-0.1,0.2-0.2,0.3-0.4,0.3c-0.2,0.1-0.4,0.1-0.7,0.1c-0.4,0-0.7-0.1-0.9-0.3C39.2,89.4,39,89.1,39,88.8z"/>
	<path class="st0" d="M46.9,89.8h-0.7L46,89.1h-1.2l-0.3,0.7h-0.6l1.2-3h0.6L46.9,89.8z M45.8,88.6l-0.4-1.1L45,88.6H45.8z"/>
	<path class="st0" d="M47.2,89.8v-3h2.2v0.5h-1.6v0.7h1.5v0.5h-1.5v0.8h1.7v0.5H47.2z"/>
	<path class="st0" d="M49.9,88.8l0.6-0.1c0,0.2,0.1,0.3,0.2,0.4c0.1,0.1,0.3,0.1,0.4,0.1c0.2,0,0.3,0,0.4-0.1
		c0.1-0.1,0.1-0.2,0.1-0.3c0-0.1,0-0.1-0.1-0.2c0,0-0.1-0.1-0.2-0.1c-0.1,0-0.2-0.1-0.5-0.1c-0.3-0.1-0.6-0.2-0.7-0.3
		C50.1,88,50,87.8,50,87.5c0-0.2,0-0.3,0.1-0.4c0.1-0.1,0.2-0.2,0.4-0.3c0.2-0.1,0.4-0.1,0.6-0.1c0.4,0,0.7,0.1,0.9,0.3
		s0.3,0.4,0.3,0.7l-0.6,0c0-0.2-0.1-0.3-0.2-0.3c-0.1-0.1-0.2-0.1-0.4-0.1c-0.2,0-0.3,0-0.4,0.1c-0.1,0-0.1,0.1-0.1,0.2
		c0,0.1,0,0.1,0.1,0.2c0.1,0.1,0.3,0.1,0.6,0.2s0.5,0.1,0.7,0.2c0.1,0.1,0.3,0.2,0.3,0.3c0.1,0.1,0.1,0.3,0.1,0.5
		c0,0.2,0,0.3-0.1,0.5c-0.1,0.2-0.2,0.3-0.4,0.3c-0.2,0.1-0.4,0.1-0.7,0.1c-0.4,0-0.7-0.1-0.9-0.3C50.1,89.4,49.9,89.1,49.9,88.8z"
		/>
	<path class="st0" d="M53.6,89.8v-2.5h-0.9v-0.5h2.4v0.5h-0.9v2.5H53.6z"/>
	<path class="st0" d="M55.5,89.8v-3h0.6v1.2h1.2v-1.2h0.6v3h-0.6v-1.3h-1.2v1.3H55.5z"/>
	<path class="st0" d="M58.5,89.8v-3h2.2v0.5h-1.6v0.7h1.5v0.5h-1.5v0.8h1.7v0.5H58.5z"/>
	<path class="st0" d="M62,89.8v-2.5h-0.9v-0.5h2.4v0.5h-0.9v2.5H62z"/>
	<path class="st0" d="M63.9,89.8v-3h0.6v3H63.9z"/>
	<path class="st0" d="M67.1,88.7l0.6,0.2c-0.1,0.3-0.2,0.6-0.5,0.7c-0.2,0.2-0.5,0.2-0.8,0.2c-0.4,0-0.7-0.1-1-0.4
		c-0.3-0.3-0.4-0.7-0.4-1.1c0-0.5,0.1-0.9,0.4-1.2c0.3-0.3,0.6-0.4,1-0.4c0.4,0,0.7,0.1,0.9,0.3c0.1,0.1,0.2,0.3,0.3,0.6L67,87.7
		c0-0.2-0.1-0.3-0.2-0.4c-0.1-0.1-0.3-0.1-0.4-0.1c-0.2,0-0.4,0.1-0.5,0.2c-0.1,0.2-0.2,0.4-0.2,0.8c0,0.4,0.1,0.7,0.2,0.8
		c0.1,0.2,0.3,0.2,0.5,0.2c0.2,0,0.3-0.1,0.4-0.2C66.9,89,67,88.9,67.1,88.7z"/>
	<path class="st0" d="M70.9,89.8h-0.7L70,89.1h-1.2l-0.3,0.7h-0.6l1.2-3h0.6L70.9,89.8z M69.8,88.6l-0.4-1.1L69,88.6H69.8z"/>
	<path class="st0" d="M71.3,89.8v-3h0.6v2.5h1.5v0.5H71.3z"/>
	<path class="st0" d="M77.5,88.7v-0.5h1.3v1.2c-0.1,0.1-0.3,0.2-0.6,0.3s-0.5,0.1-0.7,0.1c-0.3,0-0.6-0.1-0.8-0.2
		c-0.2-0.1-0.4-0.3-0.5-0.6c-0.1-0.2-0.2-0.5-0.2-0.8c0-0.3,0.1-0.6,0.2-0.8c0.1-0.2,0.3-0.4,0.6-0.6c0.2-0.1,0.4-0.2,0.7-0.2
		c0.4,0,0.7,0.1,0.9,0.2c0.2,0.2,0.3,0.4,0.4,0.7l-0.6,0.1c0-0.1-0.1-0.3-0.2-0.4c-0.1-0.1-0.3-0.1-0.4-0.1c-0.3,0-0.5,0.1-0.6,0.3
		c-0.2,0.2-0.2,0.4-0.2,0.8c0,0.4,0.1,0.6,0.2,0.8s0.4,0.3,0.6,0.3c0.1,0,0.3,0,0.4-0.1c0.1,0,0.2-0.1,0.3-0.2v-0.4H77.5z"/>
	<path class="st0" d="M80.2,89.8v-1.3l-1.1-1.8h0.7l0.7,1.2l0.7-1.2h0.7l-1.1,1.8v1.3H80.2z"/>
	<path class="st0" d="M82.2,89.8v-3h0.6l1.2,2v-2h0.6v3H84l-1.2-2v2H82.2z"/>
	<path class="st0" d="M85.3,89.8v-3h2.2v0.5h-1.6v0.7h1.5v0.5h-1.5v0.8h1.7v0.5H85.3z"/>
	<path class="st0" d="M90.1,88.7l0.6,0.2c-0.1,0.3-0.2,0.6-0.5,0.7c-0.2,0.2-0.5,0.2-0.8,0.2c-0.4,0-0.7-0.1-1-0.4
		c-0.3-0.3-0.4-0.7-0.4-1.1c0-0.5,0.1-0.9,0.4-1.2c0.3-0.3,0.6-0.4,1-0.4c0.4,0,0.7,0.1,0.9,0.3c0.1,0.1,0.2,0.3,0.3,0.6L90,87.7
		c0-0.2-0.1-0.3-0.2-0.4c-0.1-0.1-0.3-0.1-0.4-0.1c-0.2,0-0.4,0.1-0.5,0.2c-0.1,0.2-0.2,0.4-0.2,0.8c0,0.4,0.1,0.7,0.2,0.8
		c0.1,0.2,0.3,0.2,0.5,0.2c0.2,0,0.3-0.1,0.4-0.2C89.9,89,90,88.9,90.1,88.7z"/>
	<path class="st0" d="M91,88.3c0-0.3,0-0.6,0.1-0.8c0.1-0.2,0.2-0.3,0.3-0.4c0.1-0.1,0.3-0.2,0.4-0.3c0.2-0.1,0.4-0.1,0.7-0.1
		c0.4,0,0.8,0.1,1.1,0.4c0.3,0.3,0.4,0.7,0.4,1.2c0,0.5-0.1,0.9-0.4,1.2c-0.3,0.3-0.6,0.4-1.1,0.4c-0.5,0-0.8-0.1-1.1-0.4
		C91.2,89.1,91,88.8,91,88.3z M91.7,88.3c0,0.3,0.1,0.6,0.2,0.8s0.4,0.3,0.6,0.3s0.4-0.1,0.6-0.3c0.2-0.2,0.2-0.4,0.2-0.8
		c0-0.3-0.1-0.6-0.2-0.8c-0.2-0.2-0.4-0.3-0.6-0.3c-0.3,0-0.5,0.1-0.6,0.3C91.8,87.6,91.7,87.9,91.7,88.3z"/>
	<path class="st0" d="M94.5,89.8v-3h0.6v2.5h1.5v0.5H94.5z"/>
	<path class="st0" d="M96.9,88.3c0-0.3,0-0.6,0.1-0.8c0.1-0.2,0.2-0.3,0.3-0.4c0.1-0.1,0.3-0.2,0.4-0.3c0.2-0.1,0.4-0.1,0.7-0.1
		c0.4,0,0.8,0.1,1.1,0.4c0.3,0.3,0.4,0.7,0.4,1.2c0,0.5-0.1,0.9-0.4,1.2c-0.3,0.3-0.6,0.4-1.1,0.4c-0.5,0-0.8-0.1-1.1-0.4
		C97.1,89.1,96.9,88.8,96.9,88.3z M97.6,88.3c0,0.3,0.1,0.6,0.2,0.8s0.4,0.3,0.6,0.3s0.4-0.1,0.6-0.3c0.2-0.2,0.2-0.4,0.2-0.8
		c0-0.3-0.1-0.6-0.2-0.8c-0.2-0.2-0.4-0.3-0.6-0.3c-0.3,0-0.5,0.1-0.6,0.3C97.6,87.6,97.6,87.9,97.6,88.3z"/>
	<path class="st0" d="M101.8,88.7v-0.5h1.3v1.2c-0.1,0.1-0.3,0.2-0.6,0.3c-0.2,0.1-0.5,0.1-0.7,0.1c-0.3,0-0.6-0.1-0.8-0.2
		s-0.4-0.3-0.5-0.6c-0.1-0.2-0.2-0.5-0.2-0.8c0-0.3,0.1-0.6,0.2-0.8c0.1-0.2,0.3-0.4,0.6-0.6c0.2-0.1,0.4-0.2,0.7-0.2
		c0.4,0,0.7,0.1,0.9,0.2c0.2,0.2,0.3,0.4,0.4,0.7l-0.6,0.1c0-0.1-0.1-0.3-0.2-0.4c-0.1-0.1-0.3-0.1-0.4-0.1c-0.3,0-0.5,0.1-0.6,0.3
		c-0.2,0.2-0.2,0.4-0.2,0.8c0,0.4,0.1,0.6,0.2,0.8s0.4,0.3,0.6,0.3c0.1,0,0.3,0,0.4-0.1c0.1,0,0.2-0.1,0.3-0.2v-0.4H101.8z"/>
	<path class="st0" d="M103.6,89.8v-3h0.6v3H103.6z"/>
	<path class="st0" d="M106.8,88.7l0.6,0.2c-0.1,0.3-0.2,0.6-0.5,0.7c-0.2,0.2-0.5,0.2-0.8,0.2c-0.4,0-0.7-0.1-1-0.4
		c-0.3-0.3-0.4-0.7-0.4-1.1c0-0.5,0.1-0.9,0.4-1.2c0.3-0.3,0.6-0.4,1-0.4c0.4,0,0.7,0.1,0.9,0.3c0.1,0.1,0.2,0.3,0.3,0.6l-0.6,0.1
		c0-0.2-0.1-0.3-0.2-0.4c-0.1-0.1-0.3-0.1-0.4-0.1c-0.2,0-0.4,0.1-0.5,0.2c-0.1,0.2-0.2,0.4-0.2,0.8c0,0.4,0.1,0.7,0.2,0.8
		c0.1,0.2,0.3,0.2,0.5,0.2c0.2,0,0.3-0.1,0.4-0.2C106.6,89,106.7,88.9,106.8,88.7z"/>
	<path class="st0" d="M110.6,89.8h-0.7l-0.3-0.7h-1.2l-0.3,0.7h-0.6l1.2-3h0.6L110.6,89.8z M109.5,88.6l-0.4-1.1l-0.4,1.1H109.5z"/>
	<path class="st0" d="M111,89.8v-3h0.6v2.5h1.5v0.5H111z"/>
	<path class="st0" d="M117.7,88.7l0.6,0.2c-0.1,0.3-0.2,0.6-0.5,0.7c-0.2,0.2-0.5,0.2-0.8,0.2c-0.4,0-0.7-0.1-1-0.4
		c-0.3-0.3-0.4-0.7-0.4-1.1c0-0.5,0.1-0.9,0.4-1.2c0.3-0.3,0.6-0.4,1-0.4c0.4,0,0.7,0.1,0.9,0.3c0.1,0.1,0.2,0.3,0.3,0.6l-0.6,0.1
		c0-0.2-0.1-0.3-0.2-0.4c-0.1-0.1-0.3-0.1-0.4-0.1c-0.2,0-0.4,0.1-0.5,0.2c-0.1,0.2-0.2,0.4-0.2,0.8c0,0.4,0.1,0.7,0.2,0.8
		c0.1,0.2,0.3,0.2,0.5,0.2c0.2,0,0.3-0.1,0.4-0.2C117.6,89,117.7,88.9,117.7,88.7z"/>
	<path class="st0" d="M118.9,89.8v-3h2.2v0.5h-1.6v0.7h1.5v0.5h-1.5v0.8h1.7v0.5H118.9z"/>
	<path class="st0" d="M121.7,89.8v-3h0.6l1.2,2v-2h0.6v3h-0.6l-1.2-2v2H121.7z"/>
	<path class="st0" d="M125.4,89.8v-2.5h-0.9v-0.5h2.4v0.5H126v2.5H125.4z"/>
	<path class="st0" d="M127.3,89.8v-3h2.2v0.5h-1.6v0.7h1.5v0.5h-1.5v0.8h1.7v0.5H127.3z"/>
	<path class="st0" d="M130.2,89.8v-3h1.3c0.3,0,0.6,0,0.7,0.1c0.1,0.1,0.3,0.2,0.4,0.3s0.1,0.3,0.1,0.5c0,0.2-0.1,0.4-0.2,0.6
		s-0.3,0.2-0.6,0.3c0.1,0.1,0.2,0.2,0.3,0.3c0.1,0.1,0.2,0.3,0.3,0.5l0.4,0.6h-0.7l-0.4-0.7c-0.2-0.2-0.3-0.4-0.3-0.4
		c-0.1-0.1-0.1-0.1-0.2-0.1c-0.1,0-0.2,0-0.3,0h-0.1v1.3H130.2z M130.8,88h0.5c0.3,0,0.5,0,0.6,0s0.1-0.1,0.2-0.1s0.1-0.1,0.1-0.2
		c0-0.1,0-0.2-0.1-0.2c-0.1-0.1-0.1-0.1-0.2-0.1c-0.1,0-0.2,0-0.4,0h-0.5V88z"/>
	<path class="st0" d="M135.6,89.8v-3h0.6v2.5h1.5v0.5H135.6z"/>
	<path class="st0" d="M138.5,89.8v-2.5h-0.9v-0.5h2.4v0.5h-0.9v2.5H138.5z"/>
	<path class="st0" d="M140.4,86.7h1.1c0.3,0,0.4,0,0.6,0.1c0.2,0.1,0.3,0.1,0.5,0.3s0.2,0.3,0.3,0.5s0.1,0.4,0.1,0.7
		c0,0.3,0,0.5-0.1,0.6c-0.1,0.2-0.2,0.4-0.3,0.5c-0.1,0.1-0.3,0.2-0.4,0.2c-0.1,0-0.3,0.1-0.5,0.1h-1.2V86.7z M141,87.3v2h0.5
		c0.2,0,0.3,0,0.4,0c0.1,0,0.2-0.1,0.2-0.1s0.1-0.2,0.2-0.3s0.1-0.3,0.1-0.6s0-0.4-0.1-0.5c0-0.1-0.1-0.2-0.2-0.3s-0.2-0.1-0.3-0.1
		c-0.1,0-0.3,0-0.5,0H141z"/>
</g>
</svg>
