<?xml version="1.0" encoding="UTF-8"?>
<!DOCTYPE svg PUBLIC "-//W3C//DTD SVG 1.1//EN" "http://www.w3.org/Graphics/SVG/1.1/DTD/svg11.dtd">
<!-- Creator: CorelDRAW 2019 (64-Bit) -->
<svg xmlns="http://www.w3.org/2000/svg" xml:space="preserve" width="2.66505in" height="0.532634in" version="1.1" style="shape-rendering:geometricPrecision; text-rendering:geometricPrecision; image-rendering:optimizeQuality; fill-rule:evenodd; clip-rule:evenodd"
viewBox="0 0 1702.47 340.25"
 xmlns:xlink="http://www.w3.org/1999/xlink"
 xmlns:xodm="http://www.corel.com/coreldraw/odm/2003">
 <defs>
  <style type="text/css">
   <![CDATA[
    .fil0 {fill:#606062}
   ]]>
  </style>
 </defs>
 <g id="Layer_x0020_1">
  <metadata id="CorelCorpID_0Corel-Layer"/>
  <g id="_1711853038080">
   <path class="fil0" d="M1484.72 207.38l-45.36 0c1.99,-10.05 1.99,-24.06 0.45,-35.65l-13.47 -103.52 -72.4 139.17 -8.39 0 -72.28 -139.28 -14.03 105.62c-2.08,15.12 -2.65,27.26 -0.89,33.66l-22.62 0c3.54,-7.29 6.51,-14.9 8.94,-32.12l22.74 -172.61 11.82 0 81.67 157.49 80.55 -157.49 10.93 0 23.4 172.39c2.32,17.33 4.09,21.96 8.94,32.34z"/>
   <path class="fil0" d="M425.34 212.01c-65.89,0 -117.54,-46.24 -117.54,-105.95 0,-59.81 51.65,-106.06 117.54,-106.06 65.88,0 117.43,46.25 117.43,106.06 0,59.71 -51.54,105.95 -117.43,105.95zm-3.43 -196.22c-48.78,0 -78.8,38.74 -76.92,90.27 1.87,51.32 38.07,90.06 83.65,90.06 45.47,0 78.8,-38.74 76.92,-90.06 -1.88,-51.54 -38.07,-90.27 -83.66,-90.27z"/>
   <path class="fil0" d="M1702.47 207.38l-46.57 0 -28.25 -68.32 -71.39 0 -28.47 68.32 -21.09 0c6.3,-7.5 11.48,-15.56 17.22,-28.7l74.38 -176.03 8.83 0 73.06 171.28c5.74,14.24 14.25,25.72 22.29,33.44zm-110.36 -154.51l-30.02 72.18 59.82 0 -29.8 -72.18z"/>
   <path class="fil0" d="M65.78 207.38c-54.3,0 -65.78,0 -65.78,0 3.75,-5.63 5.85,-12.7 5.85,-27.59 0,-22.07 0,-127.25 0,-149.87 0,-11.92 -1.99,-20.64 -5.63,-26.6 0,0 26.38,0 60.7,0 18.21,0 36.97,2.1 48.23,6.84 17.88,7.5 27.48,20.31 27.48,40.83 0,17.99 -13.35,30.02 -28.36,37.19 17.88,7.72 43.7,23.62 43.7,58.38 0,25.16 -11.59,42.05 -30.35,51.32 -11.47,5.63 -35.53,9.49 -55.84,9.49zm-7.29 -112.68c-3.64,0 -15.45,0.11 -18.32,0.22l0 99c3.97,0.11 20.86,0.22 23.84,0.22 2.98,0 13.13,-0.88 17.1,-1.66 22.84,-4.96 34.32,-22.51 34.32,-45.25 0.33,-29.25 -14.12,-45.69 -37.74,-50.77 -5.41,-1.21 -15.45,-1.77 -19.2,-1.77zm-3.75 -78.03c-6.4,0 -11.37,0 -14.57,0.22l0 64.12c5.63,0.22 12.91,0.33 20.64,0.33 3.31,0 12.58,-0.77 15.89,-1.33 13.68,-2.21 24.72,-11.81 24.72,-28.91 0,-17.99 -11.15,-28.7 -27.04,-32.67 -4.86,-1.22 -14.02,-1.77 -19.64,-1.77z"/>
   <path class="fil0" d="M981.91 207.38l-133.54 0c3.53,-5.63 5.63,-12.7 5.63,-27.59 0,-22.07 0,-127.25 0,-149.87 0,-11.92 -1.87,-20.64 -5.41,-26.6l121.51 0 10.05 22.07c-12.47,-6.84 -22.85,-8.06 -35.21,-8.06 -4.74,0 -56.28,0 -56.28,0l-0.11 64.01 77.48 0 -4.86 13.91 -72.62 0 -0.11 98.22c0,0 58.71,0 64.67,0 13.91,0 26.6,-1.65 39.18,-8.28l-10.37 22.18z"/>
   <path class="fil0" d="M672.45 207.38c-8.28,0 -77.48,0 -77.48,0 3.53,-5.63 5.52,-12.7 5.52,-27.59 0,-22.07 0,-127.25 0,-149.87 0,-11.92 -1.77,-20.64 -5.41,-26.6 0,0 78.36,0 82.77,0 6.51,0 26.49,1.43 37.19,4.08 49.44,12.14 83.88,49 83.88,99.44 0,51.54 -33.77,90.17 -91.82,98.23 -9.71,1.32 -26.37,2.32 -34.65,2.32zm-9.05 -189.83c-7.83,0 -21.74,0.44 -28.25,0.66l0 174.93c6.51,0.55 17.22,0.55 33.99,0.55 6.4,0 18.76,-0.44 24.5,-1.32 46.79,-6.62 67.21,-39.62 67.21,-86.08 0,-41.28 -22.63,-70.97 -56.07,-82.77 -11.14,-3.97 -31.23,-5.96 -41.38,-5.96z"/>
   <path class="fil0" d="M255.71 207.38l-45.03 0c3.53,-5.63 5.52,-12.7 5.52,-27.59 0,-22.07 0,-127.25 0,-149.87 0,-11.92 -1.77,-20.64 -5.4,-26.6l45.03 0c-3.53,5.74 -5.52,12.69 -5.52,27.7 0,22.07 0,127.14 0,149.87 0,11.92 1.88,20.53 5.41,26.49z"/>
   <path class="fil0" d="M1224.15 207.38l-52.2 0c-22.63,-17.55 -53.09,-49.34 -88.07,-103.08l4.63 -2.98c5.68,1.24 10.85,1.81 15.56,1.81 29.63,0 40.4,-22.61 40.4,-42.42 0,-18.54 -7.73,-35.54 -34.32,-41.61 -7.87,-1.77 -17.56,-2.06 -24.84,-2.06 -3.64,-0 -6.68,0.07 -8.6,0.07l0 162.9c0,10.15 1.21,19.53 5.85,27.37l-46.13 0c3.64,-5.63 5.63,-12.7 5.63,-27.59 0,-22.07 0,-127.25 0,-149.87 0,-11.92 -1.87,-20.64 -5.4,-26.6 0,0 38.41,0 42.27,0 2.23,0 4.69,-0.02 7.35,-0.02 13.28,0 31.23,0.31 46.95,3.99 24.72,5.63 46.57,19.31 46.57,52.86 0,34.55 -33.11,49.44 -60.15,52.09 28.92,36.86 68.1,71.19 104.51,95.14z"/>
   <polygon class="fil0" points="33.44,327.56 0.22,327.56 0.22,272.6 10.82,272.6 10.82,320.5 33.44,320.61 "/>
   <path class="fil0" d="M103.08 327.67l-10.93 0 -5.63 -13.68 -21.74 0 -6.07 13.57 -9.38 0 24.94 -55.18 6.18 0 22.63 55.29zm-27.04 -39.95l-8.61 19.86 16.56 0 -7.95 -19.86z"/>
   <path class="fil0" d="M146.23 327.67l-21.08 0 0.11 -55.07 17.66 0c12.36,0.11 20.09,5.63 20.09,12.8 0,6.95 -5.74,10.93 -9.93,12.36 8.61,1 15.12,6.84 15.12,13.8 0,9.38 -10.71,16.11 -21.96,16.11zm-10.6 -24.83l0 18.44 8.17 0c0.11,0 0.23,0 0.34,0 8.08,0 12.91,-3.94 12.91,-9.38 0,-5.19 -4.19,-9.05 -12.8,-9.05l-8.61 0zm0 -23.84l0 17.55 5.3 0c6.84,0 11.48,-3.64 11.48,-9.38 0.11,-4.75 -3.75,-8.17 -11.59,-8.17l-5.19 0z"/>
   <path class="fil0" d="M220.84 328.78c-17.88,0 -31.01,-11.04 -31.01,-28.59 0,-16.33 13.02,-28.58 31.01,-28.58 19.2,0 31.01,11.92 31.01,28.69 -0.11,17.33 -14.02,28.48 -31.01,28.48zm0 -50.22c-12.14,0 -19.75,9.05 -19.75,21.63 0,12.47 7.61,21.63 19.75,21.74 12.03,0 19.64,-9.27 19.64,-21.63 0,-12.36 -7.5,-21.74 -19.64,-21.74z"/>
   <path class="fil0" d="M311 328.66l-17 -25.6 -6.4 0 0 24.72 -10.49 0 0 -55.07 17 0c14.79,0.11 21.96,7.28 21.96,14.23 0,7.62 -7.06,12.8 -11.81,14.13l18.65 26.71 -11.92 0.88zm-23.39 -49.44l0 17.44 5.63 0c8.5,0 12.36,-4.63 12.36,-8.83 0,-4.52 -3.64,-8.61 -12.25,-8.61l-5.74 0z"/>
   <path class="fil0" d="M390.8 327.9l-10.93 0 -5.63 -13.69 -21.74 0 -5.96 13.57 -9.38 0 24.83 -55.07 6.29 0 22.51 55.18zm-27.04 -39.95l-8.5 19.86 16.44 0 -7.94 -19.86z"/>
   <polygon class="fil0" points="429.42,327.9 418.83,327.9 418.94,279.99 399.4,279.99 399.4,272.82 448.85,272.93 448.85,279.99 429.42,279.99 "/>
   <path class="fil0" d="M493.55 329c-17.88,0 -30.9,-11.04 -30.9,-28.58 0,-16.22 12.91,-28.58 30.9,-28.58 19.2,0.11 31.01,11.92 31.01,28.69 0,17.32 -13.91,28.47 -31.01,28.47zm0 -50.21c-12.03,0 -19.65,9.05 -19.65,21.63 0,12.47 7.5,21.63 19.65,21.63 0.07,0 0.14,0 0.22,0 12.02,0.01 19.54,-9.23 19.54,-21.52 0,-12.36 -7.62,-21.74 -19.75,-21.74z"/>
   <polygon class="fil0" points="560.32,328 549.83,328 549.83,272.93 560.32,272.93 "/>
   <path class="fil0" d="M622.01 328.88l-17.11 -25.6 -6.29 0 0 24.72 -10.6 0 0.11 -54.96 16.99 0c14.79,0 21.96,7.28 21.96,14.24 0,7.5 -7.17,12.69 -11.81,13.9l18.65 26.93 -11.92 0.77zm-23.4 -49.44l0 17.44 5.63 0c8.5,0 12.25,-4.64 12.25,-8.83 0.11,-4.53 -3.53,-8.61 -12.25,-8.61l-5.63 0z"/>
   <polygon class="fil0" points="692.97,328.11 656,328.11 656.11,273.04 691.98,273.04 691.98,280.1 666.6,280.1 666.6,296.22 685.14,296.22 685.14,303.28 666.6,303.28 666.6,321.05 692.97,321.16 "/>
   <path class="fil0" d="M773.1 328.22l-18.98 0 0.11 -55.07 18.87 0c19.76,0 33.22,10.37 33.22,27.37 0,15.89 -15.67,27.7 -33.22,27.7zm-8.39 -48.01l-0.11 40.94 8.72 0c10.6,0 21.63,-8.27 21.63,-20.64 0.11,-14.13 -10.6,-20.31 -21.74,-20.31l-8.5 0z"/>
   <polygon class="fil0" points="868.56,328.22 831.59,328.22 831.59,273.26 867.46,273.26 867.46,280.22 842.19,280.22 842.07,296.44 860.73,296.44 860.62,303.39 842.07,303.39 842.07,321.27 868.56,321.27 "/>
   <path class="fil0" d="M926.17 329.11l-17.1 -25.49 -6.4 0 0 24.72 -10.49 0 0 -55.07 17.11 0c14.68,0 21.85,7.29 21.85,14.24 0,7.62 -7.06,12.69 -11.7,14.02l18.65 26.82 -11.92 0.77zm-23.4 -49.44l-0.11 17.43 5.63 0c8.5,0 12.37,-4.63 12.37,-8.83 0,-4.41 -3.64,-8.61 -12.25,-8.61l-5.63 0z"/>
   <polygon class="fil0" points="992.28,328.88 985.66,328.88 968.77,292.03 967.34,328.34 958.62,328.34 961.05,273.26 970.98,273.26 990.18,316.08 1009.83,273.37 1019.43,273.37 1020.75,328.34 1010.49,328.34 1009.72,291.25 "/>
   <path class="fil0" d="M1095.47 328.44l-10.93 0 -5.63 -13.68 -21.85 0 -5.96 13.68 -9.38 0 24.83 -55.18 6.4 0 22.51 55.18zm-27.04 -39.95l-8.5 19.87 16.45 0 -7.95 -19.87z"/>
   <polygon class="fil0" points="1133.99,328.44 1123.5,328.44 1123.5,280.55 1104.08,280.55 1104.08,273.37 1153.52,273.48 1153.52,280.55 1134.1,280.55 "/>
   <path class="fil0" d="M1198.36 329.55c-0.09,0 -0.17,0 -0.25,0 -17.77,0 -30.9,-11.04 -30.9,-28.48 0,-16.33 12.91,-28.69 31.01,-28.69 19.2,0 31.01,11.92 31.01,28.69 0,17.25 -13.88,28.48 -30.87,28.48zm-0.14 -50.21c-12.14,0 -19.76,9.05 -19.76,21.74 0,12.36 7.62,21.63 19.76,21.63 12.03,0 19.64,-9.27 19.64,-21.63 0,-12.36 -7.5,-21.74 -19.64,-21.74z"/>
   <polygon class="fil0" points="1287.72,328.55 1254.39,328.55 1254.5,273.6 1264.99,273.6 1264.99,321.6 1287.72,321.6 "/>
   <path class="fil0" d="M1334.52 329.77c-17.88,-0.11 -30.9,-11.15 -30.9,-28.59 0,-16.37 12.8,-28.58 30.78,-28.58 0.07,0 0.16,0 0.24,0 19.08,0 30.89,11.81 30.89,28.58 0,17.33 -13.89,28.59 -31.01,28.59zm0.12 -50.33c-12.14,0 -19.77,9.05 -19.77,21.74 0,12.36 7.63,21.52 19.65,21.63 12.14,0 19.76,-9.27 19.76,-21.63 0,-12.36 -7.62,-21.74 -19.63,-21.74z"/>
   <path class="fil0" d="M1420.6 329.77c-18.98,0 -32.23,-12.58 -32.23,-28.59 0,-16 13.46,-28.58 32.23,-28.58 11.82,0 17.56,2.65 20.31,3.75l-3.09 6.73c-2.1,-0.77 -7.83,-3.09 -16.78,-3.2 -11.8,0 -21.41,9.6 -21.41,21.3 0,13.03 10.28,21.3 22.08,21.3 6.3,0 8.72,-0.77 11.03,-1.44l0 -16 10.38 0 -0.11 20.64c-2.87,1.21 -10.04,4.08 -22.4,4.08z"/>
   <polygon class="fil0" points="1478.1,328.78 1467.62,328.78 1467.73,273.7 1478.1,273.7 "/>
   <path class="fil0" d="M1561.21 340.25l-35.98 -11.37c-14,-4.96 -21.74,-13.24 -21.74,-27.59 0,-16.34 12.91,-28.58 31.01,-28.58 19.09,0 30.9,11.92 30.9,28.58 0,13.02 -9.05,23.84 -20.4,26.37l19.63 4.86 -3.42 7.73zm-26.92 -60.59c-12.02,0 -19.54,9.34 -19.54,21.63 0,12.36 7.62,21.74 19.65,21.74 12.14,0 19.74,-9.27 19.74,-21.74 0,-12.36 -7.6,-21.63 -19.64,-21.63 -0.06,0 -0.14,0 -0.21,0z"/>
   <path class="fil0" d="M1613.63 329.88c-16,0 -24.61,-7.62 -24.61,-18.98l0 -37.08 10.59 0 -0.1 36.09c0,8.61 4.51,12.8 14.89,12.8 9.71,0 14.35,-6.18 14.35,-12.8l0 -36.09 9.61 0 0 36.75c0,8.83 -7.07,19.31 -24.73,19.31z"/>
   <polygon class="fil0" points="1702.47,328.88 1665.51,328.88 1665.61,273.93 1701.37,273.93 1701.37,280.88 1676.11,280.88 1676.11,297.1 1694.63,297.1 1694.63,304.06 1676.11,304.06 1676.11,321.93 1702.47,321.93 "/>
  </g>
 </g>
</svg>
