<?xml version="1.0" encoding="UTF-8"?>
<!DOCTYPE svg PUBLIC "-//W3C//DTD SVG 1.1//EN" "http://www.w3.org/Graphics/SVG/1.1/DTD/svg11.dtd">
<!-- Creator: CorelDRAW 2019 (64-Bit) -->
<svg xmlns="http://www.w3.org/2000/svg" xml:space="preserve" width="2.80546in" height="0.868354in" version="1.1" style="shape-rendering:geometricPrecision; text-rendering:geometricPrecision; image-rendering:optimizeQuality; fill-rule:evenodd; clip-rule:evenodd"
viewBox="0 0 2458.52 760.97"
 xmlns:xlink="http://www.w3.org/1999/xlink"
 xmlns:xodm="http://www.corel.com/coreldraw/odm/2003">
 <defs>
  <style type="text/css">
   <![CDATA[
    .str0 {stroke:#FEFEFE;stroke-width:6.9;stroke-miterlimit:22.9256}
    .fil1 {fill:none}
    .fil0 {fill:#373435;fill-rule:nonzero}
   ]]>
  </style>
 </defs>
 <g id="Layer_x0020_1">
  <metadata id="CorelCorpID_0Corel-Layer"/>
  <g id="_1713023768112">
   <path class="fil0" d="M1898.51 643.41l12.69 0c14.18,0 17.75,-5.21 17.75,-9.32 0,-4.05 -3.57,-9.32 -17.75,-9.32l-12.69 0 0 18.63zm0 28.88l-12.7 0 0 -54.73 25.39 0c20.58,0 30.53,6.66 30.53,16.53 0,9.75 -9.95,16.58 -30.53,16.58l-12.69 0 0 21.61z"/>
   <path class="fil0" d="M2026.98 648.78l-11.09 -20.95 -0.12 0 -11.24 20.95 22.45 0zm14.03 23.52l-9.71 -16.14 -31.32 0 -9.48 16.14 -13.62 0 33.07 -54.92 11.35 0 33.33 54.92 -13.62 0z"/>
   <path class="fil0" d="M2107.75 645.83l8.68 0c5.11,0 23.95,-0.22 23.95,-10.79 0,-4.65 -4.81,-10.26 -19.3,-10.26l-13.33 0 0 21.04zm28.86 26.42l-28.64 -25.32 -0.22 0 0 25.32 -12.72 0 0 -54.69 26.96 0c12.29,0 18.52,1.73 23.28,4.49 5.53,3.33 7.95,8.35 7.95,13 0,14.45 -19.35,16.83 -24.87,16.83l24.18 20.37 -15.94 0z"/>
   <polygon class="fil0" points="2197.54,617.49 2210.34,617.49 2210.34,672.29 2197.54,672.29 "/>
   <path class="fil0" d="M2265.34 655.99c0,1.83 1.33,10.04 14.02,10.04 8.11,0 14.04,-3.51 14.04,-9.26 0,-6.11 -7.94,-7.44 -14.04,-9.02 -11.65,-2.79 -14.43,-3.65 -18.51,-6.04 -3.93,-2.62 -5.73,-6.46 -5.73,-10.32 0,-6.4 7.84,-14.97 24.24,-14.97 14.35,0 24.98,5.99 24.98,15.27l-12.64 0c0,-6.15 -7.07,-7.91 -12.34,-7.91 -7.65,0 -11.65,4.36 -11.65,7.61 0,5.13 7.84,6.61 11.65,7.37 10.84,2.6 26.74,4.8 26.74,18.01 0,9.48 -10.69,16.53 -26.74,16.53 -12.02,0 -26.92,-5.02 -26.92,-17.31l12.9 0z"/>
   <path class="fil0" d="M1006.22 182.16l-10.77 0 4.54 11.41c0,0 4.08,10.88 4.08,33.1l0 201.45c0,63.03 -45.35,106.58 -99.78,106.58 -53.51,0 -95.81,-42.54 -95.81,-106.58l0 -191.73c0,-17.25 0,-32.25 3.98,-43.24l3.71 -10.99 -65.83 0 3.75 10.99c3.79,10.99 3.67,25.99 3.67,43.24l0 188.99c0,88.49 62.24,152.47 138.89,152.47 76.16,0 138.1,-63.98 138.1,-152.47l0 -198.7c0,-22.53 3.64,-33.31 3.64,-33.31l3.76 -11.2 -10.27 0 -25.64 0z"/>
   <path class="fil0" d="M2303.82 526.63c-16.71,6.38 -28.93,9.29 -42.88,9.29l-106.94 0 0 -173.32 120.43 0 11.08 -31.69 -131.51 0 0 -115.67 85.79 0c14.04,0 26.37,0 45.15,7.64l16.51 6.64 -9.12 -47.37 -5.01 0 -194.97 0 4.33 11.01c4.49,12.42 4.49,29.55 4.49,49.48l0 265.64c0,30.76 0,37.18 -4.64,50.37l-3.94 10.84 213.51 0 12.31 -48.55 -14.59 5.69z"/>
   <path class="fil0" d="M1881.58 535.92l-84.55 0 0 -294.67c0,-24.64 0.98,-37.11 3.39,-46.39 0.94,-3.36 4.18,-12.7 4.18,-12.7l-69.09 0 4.13 11.01c4.45,12.43 4.45,29.56 4.45,49.58l0 265.44c0,30.86 0,37.41 -4.45,50.47l-3.91 10.83 190.89 0 12.39 -48.44 -14.45 5.59c-16.72,6.48 -29.15,9.29 -42.99,9.29z"/>
   <path class="fil0" d="M1217.46 536.07l-72.4 0 0 -321.19 53.71 0c82.22,0 141.92,73.89 141.92,175.93 0,72.19 -38.17,145.26 -123.23,145.26zm4.13 -353.92l-123.84 0 -10.99 0 4.23 11.41c4.12,10.01 3.91,23.69 3.77,39.51l-0.2 9.66 0 265.44c0,30.8 0,37.42 -4.08,50.47l-3.57 10.83 132.34 0c109.67,0 175.25,-101.19 175.25,-199.23 0,-103.75 -77.48,-188.09 -172.91,-188.09z"/>
   <path class="fil0" d="M526 396.39c23.47,-60.47 44.95,-115.75 49.48,-126.53 4.29,10.78 25.33,66.06 48.29,126.53l-97.77 0zm194.14 109.43l-129.07 -330.52 -11.21 0 -133.11 329.79c-11.89,28.2 -17.13,35.14 -26.92,48.06l-12.17 16.34 51.12 0c0,0 27.36,-70.38 55.62,-143.3l120.81 0c27.52,72.92 54.45,143.3 54.45,143.3l72.39 0 -15.98 -19.3c-8.68,-10.01 -14.81,-17.24 -25.91,-44.37z"/>
   <path class="fil0" d="M1485.96 396.39c23.43,-60.47 45.15,-115.75 49.28,-126.53 4.4,10.78 25.44,66.06 48.34,126.53l-97.61 0zm194 109.43l-128.98 -330.52 -11.31 0 -133.21 329.79c-11.7,28.2 -16.96,35.14 -26.71,48.06l-12.24 16.34 51.23 0c0,0 27.39,-70.38 55.46,-143.3l120.72 0c27.75,72.92 54.33,143.3 54.33,143.3l72.84 0 -16.36 -19.3c-8.45,-10.01 -14.64,-17.24 -25.78,-44.37z"/>
   <path class="fil0" d="M2027.8 193.16l3.97 -10.99 -10.98 0 -58.53 0 4.71 11.07c4.54,11.22 4.44,26.31 4.44,43.79l0 277c0,17.65 0.1,32.59 -4.44,44.32l-4.5 11.14 69.2 0 -3.88 -10.84c-4.5,-13.06 -4.5,-30.34 -4.5,-50.46l0 -265.45c0,-20.01 0,-37.15 4.5,-49.58z"/>
   <path class="fil0" d="M288.31 541.29c-59.39,0 -134.09,-59.47 -134.09,-183.95 0,-68.65 37.66,-148.93 134.09,-148.93 37.09,0 81.66,27.46 107.32,71.48l9.08 16.28 -5.01 -86.08 -3.34 -2.26c-30.82,-21.33 -69.1,-33.07 -108.06,-33.07 -106.22,0 -193.77,95.84 -193.77,208.13 0,109.48 86.61,192.01 193.77,192.01 38.49,0 76.41,-13.77 108.4,-39.1l11.74 -66.35c-22.48,22.21 -39.93,71.84 -120.14,71.84z"/>
   <path class="fil0" d="M2022.02 125.45c-21.36,12.59 -44.78,12.34 -52.26,-0.46 -7.59,-12.74 3.66,-33.37 24.97,-45.87 21.43,-12.59 44.79,-12.37 52.38,0.43 7.47,12.77 -3.72,33.38 -25.08,45.89z"/>
   <rect class="fil1 str0" x="3.45" y="3.45" width="2451.62" height="754.07"/>
  </g>
 </g>
</svg>
