<?xml version="1.0" encoding="UTF-8"?>
<!DOCTYPE svg PUBLIC "-//W3C//DTD SVG 1.1//EN" "http://www.w3.org/Graphics/SVG/1.1/DTD/svg11.dtd">
<!-- Creator: CorelDRAW 2019 (64-Bit) -->
<svg xmlns="http://www.w3.org/2000/svg" xml:space="preserve" width="0.883035in" height="1.00405in" version="1.1" style="shape-rendering:geometricPrecision; text-rendering:geometricPrecision; image-rendering:optimizeQuality; fill-rule:evenodd; clip-rule:evenodd"
viewBox="0 0 1192.54 1355.97"
 xmlns:xlink="http://www.w3.org/1999/xlink"
 xmlns:xodm="http://www.corel.com/coreldraw/odm/2003">
 <defs>
  <style type="text/css">
   <![CDATA[
    .fil1 {fill:#BC3538;fill-rule:nonzero}
    .fil0 {fill:#0AAAAD;fill-rule:nonzero}
   ]]>
  </style>
 </defs>
 <g id="Layer_x0020_1">
  <metadata id="CorelCorpID_0Corel-Layer"/>
  <g id="_1711883328464">
   <path class="fil0" d="M231.66 1256.7c0,8.56 3.68,18.13 22.38,18.13l1.57 0 0 -36.33 -1.57 0c-4.17,0 -22.38,-0.41 -22.38,18.21z"/>
   <polygon class="fil0" points="475.94,1269.43 497.78,1269.43 486.95,1237.41 "/>
   <path class="fil0" d="M710.09 1231.72l-15.34 0 0 22.55 15.34 0c9.38,0 14.22,-3.35 14.22,-11.69 0,-11.35 -9.68,-10.87 -14.22,-10.87z"/>
   <path class="fil0" d="M273.33 1238.49l-1.6 0 0 36.33 1.6 0c13.9,0 22.29,-5.1 22.29,-18.13 0,-18.61 -18.23,-18.2 -22.29,-18.2z"/>
   <path class="fil0" d="M981.35 1299.5l-19.73 0 0 -60 -0.37 0 -20.99 60 -13.4 0 -21 -60 -0.3 0 0 60 -19.8 0 0 -84.04 27.77 0 20.02 57.77 20.02 -57.77 27.76 0 0 84.04zm211.19 56.47l0 -198.61 -1192.54 0 0 198.61 0 -198.62 0 198.62 1192.54 0zm-478.92 -85.5l-18.87 0 0 29.03 -19.87 0 0 -84.04 39.08 0c17.05,0 31.67,6.48 31.67,27.02 0,26.35 -21.92,27.99 -32.01,27.99zm-206.16 29.03l-5.38 -15.71 -30.43 0 -5.29 15.71 -20.9 0 31.38 -84.04 20.12 0 31.52 84.04 -21.02 0zm-230.75 -8.75l-3.09 0 0 11.84 -19.81 0 0 -11.84 -3.25 0c-32.31,0 -39.48,-20.77 -39.48,-34.05 0,-13.07 7.17,-34.07 39.48,-34.07l3.25 0 0 -11.9 19.81 0 0 11.9 3.09 0c32.43,0 39.5,21 39.5,34.07 0,13.28 -7.07,34.05 -39.5,34.05z"/>
   <polygon class="fil0" points="609.88,888.09 573.07,888.09 573.07,1076.02 609.88,1076.02 "/>
   <polygon class="fil0" points="837.98,1076.02 874.83,1076.02 874.83,888.1 837.98,888.1 "/>
   <polygon class="fil1" points="531.74,999.79 916.14,999.79 916.14,963.02 531.74,963.02 "/>
   <path class="fil0" d="M499.71 984.54c0,33.09 -26.8,59.92 -59.7,59.92l-87.23 0c-32.84,0 -59.79,-26.83 -59.79,-59.92l0 -6.36c0,-32.98 26.95,-59.93 59.79,-59.93l87.23 0c32.91,0 59.7,26.95 59.7,59.93l0 6.36zm-59.7 -103.03l-87.23 0c-53.22,0 -96.59,43.33 -96.59,96.67l0 6.36c0,22.74 7.87,43.4 20.92,59.92l-180.55 0c-32.98,0 -59.76,-26.83 -59.76,-59.92l0 -6.36c0,-32.98 26.78,-59.93 59.76,-59.93l116.67 0 0 -36.74 -116.67 0c-53.3,0 -96.57,43.33 -96.57,96.67l0 6.36c0,53.3 43.27,96.7 96.57,96.7l256.21 0 87.23 0c53.17,0 96.53,-43.4 96.53,-96.7l0 -6.36c0,-53.34 -43.36,-96.67 -96.53,-96.67z"/>
   <path class="fil0" d="M1155.21 986.84c0,33.05 -26.91,59.77 -59.82,59.77l-87.09 0c-32.98,0 -59.93,-26.72 -59.93,-59.77l0 -6.41c0,-32.9 26.95,-59.77 59.93,-59.77l87.09 0c32.91,0 59.82,26.88 59.82,59.77l0 6.41zm0.19 -97.34l0 24.27c-3.06,-10.64 -16.75,-20.29 -26.36,-23.86 -10.42,-3.98 -21.81,-6.06 -33.66,-6.06l-87.09 0c-53.34,0 -96.66,43.25 -96.66,96.58l0 6.41c0,53.3 43.32,96.62 96.66,96.62l87.09 0c11.73,0 22.86,-2.08 33.28,-5.84 9.76,-3.68 21.96,-11.95 26.73,-23.3l0 25.28 36.77 0 0 -190.09 -36.77 0z"/>
   <path class="fil0" d="M-0 0l0 721.75 553.53 0 0 -167.53 -196.65 0 -33.65 0c-106.4,0 -192.99,-86.61 -192.99,-192.92l0 -12.95c0,-106.45 86.59,-193.1 192.99,-193.1l145.02 0 0 73.58 -145.02 0c-65.87,0 -119.48,53.56 -119.48,119.52l0 12.95c0,65.84 53.61,119.3 119.48,119.3l33.65 0 151.23 0 45.42 0 0 -325.35 82.11 0 0.15 0 232.93 0c106.41,0 192.96,86.65 192.96,193.1l0 12.95c0,106.31 -86.54,192.92 -192.96,192.92l-33.61 0 -199.32 0 0 167.53 553.81 0 0 -721.75 -1189.6 0z"/>
   <path class="fil0" d="M835.11 480.6l33.61 0c65.88,0 119.41,-53.45 119.41,-119.3l0 -12.95c0,-65.96 -53.53,-119.52 -119.41,-119.52l-232.93 0 0 251.77 48.09 0 151.22 0z"/>
  </g>
 </g>
</svg>
