<?xml version="1.0" encoding="UTF-8"?>
<!DOCTYPE svg PUBLIC "-//W3C//DTD SVG 1.1//EN" "http://www.w3.org/Graphics/SVG/1.1/DTD/svg11.dtd">
<!-- Creator: CorelDRAW 2019 (64-Bit) -->
<svg xmlns="http://www.w3.org/2000/svg" xml:space="preserve" width="1.86209in" height="1.09633in" version="1.1" style="shape-rendering:geometricPrecision; text-rendering:geometricPrecision; image-rendering:optimizeQuality; fill-rule:evenodd; clip-rule:evenodd"
viewBox="0 0 1253.21 737.85"
 xmlns:xlink="http://www.w3.org/1999/xlink"
 xmlns:xodm="http://www.corel.com/coreldraw/odm/2003">
 <defs>
  <style type="text/css">
   <![CDATA[
    .fil2 {fill:#FFCC29}
    .fil1 {fill:#A8CF45}
    .fil0 {fill:#2957A4}
   ]]>
  </style>
 </defs>
 <g id="Layer_x0020_1">
  <metadata id="CorelCorpID_0Corel-Layer"/>
  <g id="_1711561161472">
   <g>
    <path class="fil0" d="M291.01 643.59c6.56,0.22 13.14,1.47 19.04,4.42 6.26,3.14 11.2,8 14.98,13.85 3.87,6.01 6.04,12.65 6.04,19.83l0 23.33c0,5.53 -0,11.06 -0,16.59l0 7.49 -0.03 0.06c-0.14,2.26 -1.1,4.38 -2.71,5.99 -1.72,1.7 -4.04,2.65 -6.46,2.68l-0.09 0c-2.45,-0.01 -4.79,-0.99 -6.51,-2.72 -1.64,-1.63 -2.59,-3.81 -2.69,-6.11l-0.02 -0.05 0 -6.85c0,-6.18 -0.04,-12.36 -0.04,-18.54l0 -21.19c0,-5.76 -1.98,-10.51 -6.22,-14.44 -4.93,-4.59 -11.69,-5.92 -18.23,-5.92 -5.63,0 -11.07,1.24 -15.75,4.46 -2.4,1.65 -4.56,3.75 -6.64,5.77 -3.26,3.17 -6.39,6.48 -9.46,9.84l0 6.76c0,8.37 0.01,16.75 0.01,25.12l0 15.1 -0.03 0.05c-0.13,2.28 -1.09,4.42 -2.71,6.04 -1.72,1.7 -4.04,2.65 -6.46,2.68l-0.09 0c-2.45,-0.01 -4.8,-0.99 -6.52,-2.72 -0.85,-0.85 -1.54,-1.87 -1.99,-2.98 -0.54,-1.31 -0.7,-2.59 -0.7,-3.97l-0.14 -5.19c0,-11.27 0.24,-22.56 0.07,-33.86 0.05,-31.78 0.05,-63.55 0.05,-95.32l0 -10.1 20.22 0.05c4.73,0.01 9.46,-0.06 14.19,0.19 24.1,1.28 41.14,10.55 31.63,37.43 -3.19,7.96 -7.57,15.37 -12.7,22.23zm-34.81 -41.79l0 53.81c11.42,-10.96 36,-36.43 30.8,-47.81 -2.33,-5.09 -11.7,-6.02 -16.55,-6.22 -4.75,-0.19 -9.51,0.07 -14.26,0.23z"/>
    <path class="fil0" d="M18.76 596.19c9.72,-8.93 21.48,-13.54 35.13,-13.54 14.63,0 27.12,5.57 37.32,15.98 10.42,10.63 15.64,23.58 15.64,38.45 0,14.9 -5.22,27.85 -15.64,38.52 -10.19,10.44 -22.68,16.03 -37.33,16.03 -13.46,0 -25.04,-4.49 -34.64,-13.14l0 15.91c0,3.27 0.41,6.92 1.95,9.85 2.29,4.3 5.34,8.13 9.49,10.77 3.8,2.45 8,3.56 12.5,3.56l27.35 -0.11c2.91,0 5.93,0.57 8.12,2.59 2.1,1.85 3.09,4.38 3.09,7.15 0,2.75 -0.99,5.28 -3.1,7.08 -2.22,2.02 -5.2,2.55 -8.11,2.55l-26.99 0c-5.27,0 -11.01,-0.56 -15.88,-2.69 -4.66,-2.02 -8.91,-5.07 -12.77,-8.33 -3.95,-3.31 -7.76,-7.19 -10.25,-11.74 -3.25,-5.98 -4.66,-12.54 -4.66,-19.32l0 -94.29c0,-2.95 0.63,-5.98 2.65,-8.26 1.88,-2.04 4.44,-3.09 7.2,-3.09 2.78,0 5.33,1.05 7.17,3.15 0.78,0.88 1.34,1.87 1.74,2.93zm10.58 65.89c6.69,6.73 14.56,10.18 24.09,10.18 9.46,0 17.37,-3.44 24,-10.17 6.85,-6.96 10.07,-15.28 10.07,-25.01 0,-9.72 -3.26,-17.95 -10.07,-24.9 -6.63,-6.73 -14.53,-10.16 -24,-10.16 -9.51,0 -17.39,3.44 -24.09,10.15 -6.88,6.92 -10.08,15.2 -10.08,24.92 0,9.74 3.21,18.06 10.09,25z"/>
    <path class="fil0" d="M519.98 634.25l-8.8 0c-2.78,0 -5.68,-0.54 -7.83,-2.44 -1.99,-1.76 -3.02,-4.14 -3.02,-6.79 0,-2.61 1.03,-4.92 2.94,-6.68 2.13,-1.98 5.09,-2.55 7.9,-2.55l8.73 0 0 -22.14c0.08,-12.44 18.77,-12.38 18.53,0.04 0,7.37 0,14.73 0,22.1l29.02 0c2.82,0 5.8,0.56 7.94,2.54 1.92,1.77 2.91,4.08 2.91,6.69 0,2.65 -0.99,5.02 -2.98,6.79 -2.16,1.91 -5.08,2.43 -7.87,2.43l-29.04 0 0 14.79 17.56 0c6.04,0 12.3,0.55 18.07,2.44 6.93,2.27 13.38,5.81 19.23,10.15 4.72,3.5 8.36,8.12 11.17,13.25 3.22,5.88 4.65,12.36 4.65,19.05 0,12.32 -5.17,22.61 -14.1,30.92 -9.95,9.25 -22.36,13.01 -35.76,13.01l-48.06 0c-2.78,0 -5.68,-0.54 -7.83,-2.44 -1.99,-1.76 -3.02,-4.14 -3.02,-6.79 0,-2.66 1.01,-5.06 3.02,-6.83 2.14,-1.88 5.07,-2.39 7.83,-2.39 16.34,0 32.68,0 49.01,0 8.32,0 15.78,-2.32 21.96,-8.03 5.08,-4.7 8.51,-10.36 8.51,-17.44 0,-4.28 -1.43,-8.27 -3.69,-11.87 -2.85,-4.54 -7.41,-7.81 -12.12,-10.2 -5.72,-2.91 -11.86,-4.36 -18.27,-4.36 -10.75,0 -21.5,-0.07 -32.26,-0.07l-4.35 0 0 -33.17z"/>
    <path class="fil0" d="M649.88 594.71l0.1 -0.06 0.11 -0.06c0.73,-0.41 1.47,-0.8 2.23,-1.17 0.8,-0.38 1.62,-0.73 2.45,-1.06 4.3,-1.69 8.87,-2.47 13.48,-2.49l0.07 -0.02 0.58 0.01c2.89,0.05 5.77,0.46 8.57,1.17 1.88,0.5 3.73,1.11 5.52,1.85 5.87,2.43 11.45,6.37 15.48,11.35 0.46,-0.52 0.94,-1.04 1.43,-1.54 7.44,-7.72 17.07,-12.83 27.96,-12.83l0.07 0c3.23,0.02 6.47,0.4 9.59,1.22 0.51,0.13 1.02,0.28 1.53,0.43 2.55,0.79 5.02,1.87 7.33,3.21 2.89,1.67 5.52,3.77 7.84,6.17 2.38,2.47 4.44,5.24 6.2,8.18l0.21 0.36 0.01 0.03c0.51,0.87 0.99,1.76 1.44,2.66 0.46,0.93 0.89,1.88 1.29,2.84 2.02,4.98 3.02,10.26 3.02,15.63l0 97.87 -0.02 0.05c-0.08,2.45 -1.1,4.77 -2.84,6.51 -1.8,1.79 -4.23,2.8 -6.78,2.82l-0.09 0c-2.57,-0.01 -5.02,-1.03 -6.83,-2.85 -1.75,-1.75 -2.75,-4.1 -2.82,-6.57l-0.02 -0.04 -0.04 -97.01 -0.01 -0.05 -0.01 -0.45c-0.01,-1.99 -0.25,-3.99 -0.74,-5.92 -0.08,-0.33 -0.16,-0.65 -0.26,-0.98 -0.47,-1.57 -1.1,-3.11 -1.93,-4.5l-0.07 -0.11c-0.28,-0.47 -0.58,-0.93 -0.88,-1.38 -0.3,-0.44 -0.61,-0.87 -0.93,-1.28 -1.5,-1.92 -3.31,-3.58 -5.42,-4.81 -1.36,-0.79 -2.81,-1.45 -4.33,-1.88 -1.41,-0.4 -2.88,-0.6 -4.35,-0.6l-0.06 0c-1.57,-0.01 -3.12,0.29 -4.57,0.81l-0.84 0.33c-1.47,0.63 -2.84,1.45 -4.11,2.39 -0.94,0.72 -1.83,1.49 -2.65,2.35 -0.83,0.86 -1.59,1.79 -2.27,2.77 -3.66,5.22 -5.51,11.99 -5.51,18.34l0 24.79c0,2.76 -0.05,5.51 -0.21,8.23l-0.01 0.54c-0.01,2.57 -1.03,5 -2.85,6.81 -1.8,1.8 -4.23,2.8 -6.78,2.82l-0.09 0c-2.57,-0.01 -5.02,-1.03 -6.83,-2.85 -1.8,-1.8 -2.8,-4.22 -2.82,-6.76 -0.02,-2.88 -0.22,-5.76 -0.22,-8.64l0 -24.98c0.02,-4.5 -0.93,-9.08 -2.7,-13.21 -0.29,-0.67 -0.6,-1.32 -0.94,-1.97 -1.62,-3.13 -3.82,-6 -6.63,-8.12l-0.19 -0.14 -0.03 -0.03c-0.45,-0.32 -0.91,-0.64 -1.38,-0.93 -0.44,-0.28 -0.9,-0.54 -1.37,-0.78 -2.1,-1.12 -4.37,-1.76 -6.76,-1.76 -1.47,0 -2.94,0.2 -4.35,0.6 -1.44,0.41 -2.81,1.01 -4.1,1.75l-0.34 0.19 -0.03 0.01c-0.34,0.2 -0.68,0.41 -1,0.64 -0.39,0.27 -0.76,0.56 -1.13,0.86 -1.97,1.61 -3.6,3.63 -4.93,5.83l-0.01 0.02 -0.16 0.28c-0.24,0.43 -0.47,0.87 -0.68,1.31 -0.24,0.5 -0.47,1.02 -0.67,1.54 -1.05,2.78 -1.52,5.81 -1.52,8.78l-0.05 60.87 0 36.4 -0.02 0.04c-0.1,2.44 -1.11,4.75 -2.84,6.48 -1.8,1.79 -4.23,2.8 -6.78,2.82l-0.09 0c-2.57,-0.01 -5.02,-1.03 -6.83,-2.85 -1.75,-1.75 -2.76,-4.1 -2.82,-6.58l-0.02 -0.04 0 -97.84c0.02,-3.7 0.5,-7.42 1.47,-10.96 0.14,-0.58 0.34,-1.18 0.53,-1.79 0.96,-2.95 2.25,-5.8 3.83,-8.47 1.79,-3.02 3.89,-5.87 6.34,-8.4 2.32,-2.4 4.95,-4.5 7.85,-6.18z"/>
    <path class="fil0" d="M809.7 639.67c3.53,-3.05 7.4,-5.79 11.58,-7.79 6.59,-3.16 13.69,-4.55 20.97,-4.55 7.3,0 14.71,1.18 21.28,4.46 6.26,3.15 11.19,7.99 14.97,13.85 3.88,6.01 6.04,12.65 6.04,19.83 0,20.51 0,41.01 0,61.52 0,2.8 -0.52,5.71 -2.43,7.87 -1.75,1.99 -4.16,2.98 -6.79,2.98 -2.63,0 -5.05,-1 -6.85,-2.96 -1.91,-2.16 -2.49,-5.08 -2.49,-7.89l0 -60.85c0,-5.77 -1.98,-10.5 -6.22,-14.44 -4.94,-4.59 -11.68,-5.92 -18.23,-5.92 -5.62,0 -11.09,1.22 -15.77,4.47 -2.4,1.63 -4.56,3.74 -6.63,5.76 -3.26,3.18 -6.38,6.49 -9.46,9.85 0.01,20.38 0.12,40.76 0.12,61.14 0,2.8 -0.52,5.71 -2.43,7.87 -1.75,1.99 -4.16,2.98 -6.79,2.98 -2.63,0 -5.05,-1 -6.85,-2.96 -1.91,-2.16 -2.49,-5.08 -2.49,-7.89l0 -131.57c0,-2.82 0.59,-5.74 2.52,-7.92 1.78,-1.94 4.21,-2.93 6.82,-2.93 2.63,0 5.04,0.99 6.79,2.98 1.92,2.16 2.44,5.07 2.44,7.87 0,14.75 -0.08,29.5 -0.11,44.25z"/>
    <path class="fil0" d="M1134.01 640.27l0 86.72c0,2.8 -0.52,5.71 -2.43,7.87 -1.75,1.99 -4.16,2.98 -6.79,2.98 -2.63,0 -5.05,-1 -6.85,-2.96 -1.91,-2.16 -2.49,-5.08 -2.49,-7.89 0,-28.91 0.12,-57.82 0.12,-86.72 0,-6.75 -1.64,-13.05 -5.3,-18.76 -3.15,-4.99 -7.2,-9.49 -12.37,-12.42 -4.79,-2.7 -9.97,-3.97 -15.45,-3.97 -9.17,0 -16.68,3.6 -22.96,10.2 -6.71,6.97 -9.84,15.31 -9.84,24.95 0,28.91 0.12,57.82 0.12,86.72 0,2.8 -0.52,5.71 -2.43,7.87 -1.75,1.99 -4.16,2.98 -6.79,2.98 -2.63,0 -5.05,-1 -6.85,-2.96 -1.91,-2.16 -2.5,-5.08 -2.5,-7.89l0 -86.72c0,-10.08 2.52,-19.62 7.71,-28.27 4.68,-7.8 10.81,-14.56 18.74,-19.13 7.74,-4.49 16.37,-6.41 25.28,-6.41 14.24,0 26.34,5.37 36.21,15.58 10.21,10.61 14.88,23.6 14.88,38.23z"/>
    <path class="fil0" d="M147.52 591.85c-0.09,2.06 -0.08,5.08 0.39,7.06 0.66,2.75 1.94,5.24 3.78,7.38 2.12,2.47 4.65,4.57 7.38,6.35 4.77,3.11 10.03,5.54 15.19,7.93 15.25,7.05 32.66,14.72 38.07,32.19 0.92,2.93 1.42,5.97 1.53,9.06 0.03,10.57 0.11,21.15 0.11,31.72 0,12.62 -5.21,22.98 -14.68,31.19 -18.13,15.73 -44.37,17.91 -63.78,3.17 -9.04,-6.87 -19.42,-19.57 -19.42,-31.45 0,-2.81 0.52,-5.76 2.46,-7.92 1.75,-1.96 4.15,-2.92 6.76,-2.92 2.48,0 4.78,0.89 6.52,2.67 1.92,1.96 2.56,4.62 2.7,7.28 0.35,6.67 4.8,11.89 9.81,15.87 13.24,10.5 29.23,10.71 42.23,-0.3 5.31,-4.5 8.67,-9.94 8.93,-16.98l-0 -29.37 0.01 -0.1c0.14,-2.36 -0.38,-4.72 -1.12,-6.95 -3.64,-10.97 -19.39,-15.29 -28.84,-19.7 -11.76,-5.49 -22.79,-13.2 -30.57,-23.72 -4.7,-6.35 -6.67,-13.82 -5.92,-21.67 0.05,-0.5 0.11,-0.99 0.17,-1.44 1.05,-10.22 18.26,-8.99 18.28,0.64z"/>
    <path class="fil0" d="M384.8 591.85c-0.09,2.06 -0.08,5.08 0.39,7.06 0.66,2.75 1.94,5.24 3.78,7.38 2.12,2.47 4.65,4.57 7.37,6.35 4.77,3.11 10.03,5.54 15.19,7.93 15.25,7.05 32.66,14.72 38.07,32.19 0.92,2.93 1.42,5.97 1.53,9.06 0.03,10.57 0.11,21.15 0.11,31.72 0,12.62 -5.21,22.98 -14.68,31.19 -18.13,15.73 -44.37,17.91 -63.78,3.17 -9.04,-6.87 -19.41,-19.57 -19.41,-31.45 0,-2.81 0.52,-5.76 2.46,-7.92 1.76,-1.96 4.15,-2.92 6.76,-2.92 2.48,0 4.78,0.89 6.52,2.67 1.92,1.96 2.56,4.62 2.7,7.28 0.35,6.67 4.79,11.89 9.8,15.87 13.24,10.5 29.23,10.71 42.23,-0.3 5.31,-4.5 8.67,-9.94 8.93,-16.98l-0 -29.37 0.01 -0.1c0.14,-2.36 -0.38,-4.72 -1.11,-6.95 -3.64,-10.97 -19.39,-15.29 -28.84,-19.7 -11.76,-5.49 -22.79,-13.2 -30.57,-23.72 -4.7,-6.35 -6.67,-13.82 -5.92,-21.67 0.05,-0.5 0.11,-0.99 0.17,-1.44 1.06,-10.22 18.26,-8.99 18.28,0.64z"/>
    <path class="fil0" d="M925.44 634.25l-8.8 0c-2.78,0 -5.68,-0.54 -7.83,-2.44 -1.99,-1.76 -3.02,-4.14 -3.02,-6.79 0,-2.61 1.03,-4.92 2.94,-6.68 2.13,-1.98 5.09,-2.55 7.9,-2.55l8.74 0 0 -22.14c0.08,-12.44 18.76,-12.38 18.53,0.04 0,7.37 0,14.73 0,22.1l29.02 0c2.82,0 5.8,0.56 7.94,2.54 1.92,1.77 2.91,4.08 2.91,6.69 0,2.65 -0.99,5.02 -2.98,6.79 -2.16,1.91 -5.08,2.43 -7.87,2.43l-29.04 0 0 14.79 17.56 0c6.04,0 12.3,0.55 18.07,2.44 6.93,2.27 13.37,5.81 19.22,10.15 4.72,3.5 8.36,8.12 11.17,13.25 3.22,5.88 4.65,12.36 4.65,19.05 0,12.32 -5.17,22.61 -14.1,30.92 -9.95,9.25 -22.36,13.01 -35.76,13.01l-48.06 0c-2.78,0 -5.68,-0.54 -7.83,-2.44 -1.99,-1.76 -3.02,-4.14 -3.02,-6.79 0,-2.66 1.02,-5.06 3.02,-6.83 2.14,-1.88 5.07,-2.39 7.83,-2.39 16.34,0 32.68,0 49.01,0 8.32,0 15.78,-2.32 21.96,-8.03 5.08,-4.7 8.51,-10.36 8.51,-17.44 0,-4.28 -1.43,-8.27 -3.69,-11.87 -2.85,-4.54 -7.41,-7.81 -12.12,-10.2 -5.71,-2.91 -11.86,-4.36 -18.27,-4.36 -10.75,0 -21.5,-0.07 -32.26,-0.07l-4.35 0 0 -33.17z"/>
    <path class="fil0" d="M1186.77 591.85c-0.09,2.06 -0.08,5.08 0.39,7.06 0.66,2.75 1.94,5.24 3.78,7.38 2.12,2.47 4.65,4.57 7.37,6.35 4.77,3.11 10.03,5.54 15.19,7.93 15.25,7.05 32.66,14.72 38.07,32.19 0.92,2.93 1.42,5.97 1.53,9.06 0.03,10.57 0.11,21.15 0.11,31.72 0,12.62 -5.21,22.98 -14.68,31.19 -18.13,15.73 -44.37,17.91 -63.78,3.17 -9.04,-6.87 -19.41,-19.57 -19.41,-31.45 0,-2.81 0.52,-5.76 2.46,-7.92 1.76,-1.96 4.15,-2.92 6.76,-2.92 2.48,0 4.78,0.89 6.52,2.67 1.92,1.96 2.56,4.62 2.7,7.28 0.36,6.67 4.8,11.89 9.81,15.87 13.24,10.5 29.23,10.71 42.23,-0.3 5.31,-4.5 8.67,-9.94 8.93,-16.98l-0 -29.37 0.01 -0.1c0.14,-2.36 -0.38,-4.72 -1.11,-6.95 -3.64,-10.97 -19.39,-15.29 -28.84,-19.7 -11.76,-5.49 -22.79,-13.2 -30.57,-23.72 -4.7,-6.35 -6.67,-13.82 -5.92,-21.67 0.05,-0.5 0.11,-0.99 0.17,-1.44 1.06,-10.22 18.26,-8.99 18.28,0.64z"/>
   </g>
   <g>
    <path class="fil1" d="M953.72 353.59l0 68.23c0,34.69 -66.08,44.05 -91.43,44.05 -145.49,-0.01 -231.6,-97.44 -231.6,-240.94 0.01,-117.47 81.42,-203.57 198.22,-203.57 71.42,-0.01 116.8,25.37 130.15,66.07l12.02 2 0 -80.1 -20.02 8.68c-48.07,-14.02 -76.76,-18.02 -126.83,-18.02 -142.81,-0.01 -256.95,91.44 -256.95,241.61 0,165.51 130.81,245.61 280.31,245.61 56.07,-0.01 107.45,-22.03 159.51,-24.69 0,-32.57 0,-61.76 0,-94.34 0,-11.94 0.15,-19.99 0.15,-31.98 -24.02,-4.52 -48.66,-7.18 -73.9,-7.99 8.74,7.02 21.26,12.64 20.36,25.38z"/>
    <path class="fil0" d="M313.41 449.85l0 -232.29c0,-48.03 2.67,-96.09 4.68,-145.47 2.01,-53.4 10.01,-57.4 70.08,-57.4 85.65,0 154.81,39.6 192.1,106.42 7.88,-15.92 17.49,-30.57 28.58,-43.88 -46.8,-49.43 -115.07,-77.23 -191.97,-77.23 -31.37,-0.01 -62.74,2.67 -94.1,2.67 -31.37,-0.01 -62.75,-2.67 -95.45,-2.67l0.01 12.01c24.01,0 32.69,20.03 32.69,40.71 0,136.41 0,271.36 0,407.77 16.43,-0.07 35.14,-3.79 53.4,-10.63z"/>
    <path class="fil2" d="M188.24 474.06c358.64,76.47 497.91,-243.01 876.73,-136.17 -182.81,-89.64 -319.54,-61 -452.59,-2.56 -124.99,54.89 -245.91,143.47 -424.14,138.73z"/>
   </g>
  </g>
 </g>
</svg>
