<?xml version="1.0" encoding="UTF-8"?>
<!DOCTYPE svg PUBLIC "-//W3C//DTD SVG 1.1//EN" "http://www.w3.org/Graphics/SVG/1.1/DTD/svg11.dtd">
<!-- Creator: CorelDRAW 2019 (64-Bit) -->
<svg xmlns="http://www.w3.org/2000/svg" xml:space="preserve" width="1.65722in" height="0.868669in" version="1.1" style="shape-rendering:geometricPrecision; text-rendering:geometricPrecision; image-rendering:optimizeQuality; fill-rule:evenodd; clip-rule:evenodd"
viewBox="0 0 1485.5 778.66"
 xmlns:xlink="http://www.w3.org/1999/xlink"
 xmlns:xodm="http://www.corel.com/coreldraw/odm/2003">
 <defs>
  <style type="text/css">
   <![CDATA[
    .fil0 {fill:#284B8C;fill-rule:nonzero}
   ]]>
  </style>
 </defs>
 <g id="Layer_x0020_1">
  <metadata id="CorelCorpID_0Corel-Layer"/>
  <g id="_1711808678176">
   <polygon class="fil0" points="411.06,0 725.71,0 911.76,213.84 585.02,213.84 547.45,173.79 227.67,173.79 "/>
   <polygon class="fil0" points="334.32,778.66 183.81,602.78 507.8,602.78 551.35,562.14 876.4,562.14 649,778.66 "/>
   <polygon class="fil0" points="-0,389.37 187.37,212.75 507.25,212.75 313.41,389.31 469.02,563.04 149.61,563.04 "/>
   <path class="fil0" d="M1345.79 407.49l-126.27 -0.04c-13.14,-0.65 -23.67,-11.44 -23.81,-24.7 0,-2.47 0.34,-6.19 1.15,-8.44l10.7 -31.28c15.48,-44.02 59.86,-70.37 108.31,-70.76l169.63 0 -13.42 38.98 -120.57 0c-31.54,0.19 -58.85,11.44 -67.04,35.94l-0.36 1.22 -1.63 4.2c-1.9,5.76 -5.28,17.89 -5.28,17.89l21.2 0.08 130.12 0.08c13.1,0.62 23.67,11.44 23.78,24.7 0.04,2.47 -0.34,6.15 -1.13,8.43l-12.66 37.07c-16.83,38.2 -57.94,65.17 -106.39,65.57l-176.92 -0.15 14.22 -41.09 131.19 -0.04c31.51,-0.17 52.81,-11.66 60.24,-32.32l2.66 -7.49 1.14 -3.36c1.93,-5.73 2.97,-14.56 2.97,-14.56l-21.81 0.07z"/>
   <path class="fil0" d="M802.65 343.6c15.47,-44.02 59.85,-70.42 108.3,-70.76l170.63 0.05 -13.36 38.96 -121.66 0c-31.51,0.18 -58.84,11.41 -66.97,35.91l-32.25 97.44c-0.52,1.46 -0.54,2.96 -0.54,4.58 0.09,8.56 6.81,15.57 15.28,15.97l28.11 -0.02c31.52,-0.19 52.84,-11.71 60.27,-32.34l8.99 -25.3 -47.53 0 12.58 -36.93 127.65 -0.05 -24.06 70.31c-16.81,38.19 -57.94,65.18 -106.38,65.52l-120.06 0 -2.92 0c-20.27,0 -36.91,-16.42 -37.11,-36.72 -0.06,-4.47 0.62,-9.22 2.32,-13.18l38.7 -113.45z"/>
   <path class="fil0" d="M506.1 506.94l-3.62 0c-14.71,-0.64 -26.56,-11.84 -26.68,-25.51 -0.03,-2.57 0.36,-6.39 1.27,-8.71l2.46 -7.26 66.28 -192.57 254.38 0 -13.41 38.96 -161.71 0c-10.2,0 -16.49,7.08 -18.1,11.96 -1.08,3.33 -15.14,47.35 -15.14,47.35l133.59 0 -12.58 36.93 -133.62 0c0,0 -13.72,40.3 -14.65,43.1 -1.93,5.77 -1.36,14.56 12.19,14.56l165.85 0 -13.87 41.18 -222.63 0z"/>
   <path class="fil0" d="M1079.38 506.94l-1.48 0 -3.64 0c-14.72,-0.64 -26.55,-11.84 -26.68,-25.51 -0.04,-2.57 0.36,-6.39 1.27,-8.71l2.46 -7.26 2.25 -6.45 64.01 -186.12 82.9 0 -80.63 234.05 -40.46 0z"/>
  </g>
 </g>
</svg>
