<?xml version="1.0" encoding="UTF-8"?>
<!DOCTYPE svg PUBLIC "-//W3C//DTD SVG 1.1//EN" "http://www.w3.org/Graphics/SVG/1.1/DTD/svg11.dtd">
<!-- Creator: CorelDRAW 2019 (64-Bit) -->
<svg xmlns="http://www.w3.org/2000/svg" xml:space="preserve" width="2.2118in" height="0.803031in" version="1.1" style="shape-rendering:geometricPrecision; text-rendering:geometricPrecision; image-rendering:optimizeQuality; fill-rule:evenodd; clip-rule:evenodd"
viewBox="0 0 1930.79 701"
 xmlns:xlink="http://www.w3.org/1999/xlink"
 xmlns:xodm="http://www.corel.com/coreldraw/odm/2003">
 <defs>
  <style type="text/css">
   <![CDATA[
    .fil0 {fill:#373435;fill-rule:nonzero}
   ]]>
  </style>
 </defs>
 <g id="Layer_x0020_1">
  <metadata id="CorelCorpID_0Corel-Layer"/>
  <g id="_1711822156512">
   <g>
    <polygon class="fil0" points="-0,499.17 -0,361.57 129.18,361.57 129.18,377.77 23.74,377.77 23.74,419.84 122.39,419.84 122.39,436.11 23.74,436.11 23.74,482.96 133.35,482.96 133.35,499.17 "/>
    <path class="fil0" d="M208.36 454.9l22.47 -1.58c1.02,6.9 3.48,12.57 7.28,16.99 3.82,4.42 9.83,8 17.92,10.76 8.18,2.7 17.27,4.07 27.41,4.07 9.02,0 16.89,-1.02 23.83,-3.11 6.87,-2.05 12.01,-4.89 15.34,-8.49 3.36,-3.64 4.98,-7.53 4.98,-11.79 0,-4.29 -1.56,-8.06 -4.79,-11.23 -3.21,-3.27 -8.55,-5.91 -16.02,-8.12 -4.79,-1.43 -15.4,-3.64 -31.71,-6.65 -16.42,-3.08 -27.84,-5.94 -34.5,-8.59 -8.52,-3.49 -14.9,-7.75 -19.1,-12.85 -4.2,-5.1 -6.29,-10.83 -6.29,-17.14 0,-6.97 2.55,-13.47 7.65,-19.5 5.1,-6.07 12.6,-10.64 22.37,-13.75 9.86,-3.18 20.84,-4.73 32.79,-4.73 13.28,0 24.89,1.65 35.03,4.95 10.11,3.27 17.89,8.09 23.3,14.47 5.41,6.35 8.37,13.57 8.81,21.66l-22.68 1.4c-1.21,-8.65 -5.32,-15.18 -12.38,-19.6 -6.97,-4.45 -17.33,-6.62 -31.02,-6.62 -14.22,0 -24.61,1.99 -31.21,6.03 -6.5,4.01 -9.77,8.87 -9.77,14.56 0,4.95 2.24,9.02 6.94,12.2 4.54,3.21 16.42,6.44 35.59,9.77 19.16,3.36 32.3,6.25 39.45,8.77 10.49,3.67 18.04,8.37 23.02,14.03 4.98,5.63 7.5,12.13 7.5,19.51 0,7.28 -2.71,14.15 -8.15,20.62 -5.51,6.47 -13.32,11.48 -23.49,15.09 -10.15,3.57 -21.56,5.41 -34.41,5.41 -16.12,0 -29.75,-1.86 -40.63,-5.5 -10.92,-3.58 -19.48,-9.06 -25.77,-16.31 -6.16,-7.28 -9.42,-15.52 -9.77,-24.7z"/>
    <polygon class="fil0" points="478.53,499.17 478.53,377.77 419.63,377.77 419.63,361.57 561.04,361.57 561.04,377.77 502.18,377.77 502.18,499.17 "/>
    <polygon class="fil0" points="636.45,499.17 636.45,361.57 660.03,361.57 660.03,418.03 753.06,418.03 753.06,361.57 776.67,361.57 776.67,499.17 753.06,499.17 753.06,434.24 660.03,434.24 660.03,499.17 "/>
    <polygon class="fil0" points="866.65,499.17 866.65,361.57 995.79,361.57 995.79,377.77 890.29,377.77 890.29,419.84 988.98,419.84 988.98,436.11 890.29,436.11 890.29,482.96 999.93,482.96 999.93,499.17 "/>
    <path class="fil0" d="M1082.81 499.17l0 -137.6 61.64 0c13.87,0 24.51,0.68 31.86,1.96 10.23,1.8 19.01,5.1 26.23,9.83 9.43,6.16 16.52,14 21.15,23.52 4.67,9.58 7.04,20.47 7.04,32.76 0,10.42 -1.59,19.66 -4.76,27.78 -3.2,8.06 -7.28,14.71 -12.16,20.04 -5.04,5.29 -10.45,9.39 -16.33,12.48 -5.91,3.02 -13,5.35 -21.38,6.9 -8.3,1.53 -17.95,2.33 -28.75,2.33l-64.53 0zm23.74 -16.21l0 0 38.18 0c11.7,0 20.97,-0.84 27.62,-2.55 6.76,-1.68 12.11,-4.08 16.12,-7.13 5.57,-4.32 9.93,-10.14 13.06,-17.42 3.08,-7.32 4.7,-16.15 4.7,-26.54 0,-14.4 -3.11,-25.45 -9.21,-33.16 -6.13,-7.75 -13.6,-12.94 -22.39,-15.56 -6.25,-1.87 -16.52,-2.83 -30.62,-2.83l-37.46 0 0 105.19z"/>
    <polygon class="fil0" points="1313.85,499.17 1313.85,361.57 1442.96,361.57 1442.96,377.77 1337.52,377.77 1337.52,419.84 1436.17,419.84 1436.17,436.11 1337.52,436.11 1337.52,482.96 1447.1,482.96 1447.1,499.17 "/>
    <path class="fil0" d="M1530.32 499.17l0 -137.6 79.4 0c15.9,0 28.06,1.24 36.4,3.7 8.34,2.52 14.84,6.85 19.91,13.1 4.91,6.25 7.47,13.13 7.47,20.72 0,9.74 -4.11,17.95 -12.42,24.61 -8.18,6.69 -20.88,10.95 -38.08,12.78 6.32,2.3 11.01,4.57 14.28,6.88 6.97,4.89 13.47,10.98 19.6,18.29l31.02 37.52 -29.59 0 -23.7 -28.68c-6.91,-8.24 -12.63,-14.59 -17.08,-18.95 -4.48,-4.42 -8.53,-7.44 -12.01,-9.18 -3.58,-1.74 -7.16,-2.95 -10.86,-3.67 -2.68,-0.4 -7.06,-0.59 -13.19,-0.59l-27.54 0 0 61.07 -23.61 0zm23.61 -76.94l0 0 50.99 0c10.82,0 19.29,-0.81 25.42,-2.58 6.1,-1.68 10.7,-4.45 13.94,-8.22 3.18,-3.79 4.73,-7.87 4.73,-12.35 0,-6.47 -3.08,-11.82 -9.24,-15.99 -6.17,-4.2 -15.84,-6.31 -29.09,-6.31l-56.75 0 0 45.46z"/>
    <path class="fil0" d="M1759.7 499.17l0 -137.6 35.72 0 42.31 97.44c3.89,9.08 6.78,15.9 8.59,20.38 1.99,-5.01 5.22,-12.35 9.49,-22.03l43.06 -95.79 31.92 0 0 137.6 -22.96 0 0 -115.17 -52.15 115.17 -21.4 0 -51.64 -117.17 0 117.17 -22.93 0z"/>
   </g>
   <g>
    <g>
     <path class="fil0" d="M659.29 700.91l0 -71.43 30.99 0c5.48,0 9.61,0.23 12.51,0.64 4.07,0.64 7.41,1.72 10.08,3.4 2.8,1.6 4.98,3.95 6.72,6.91 1.65,2.91 2.43,6.17 2.43,9.74 0,6.05 -2.18,11.17 -6.66,15.39 -4.45,4.21 -12.48,6.3 -24.17,6.3l-21.06 0 0 29.06 -10.83 0zm10.83 -37.52l0 0 21.28 0c7.03,0 11.92,-1.09 14.87,-3.41 2.96,-2.19 4.45,-5.41 4.45,-9.52 0,-2.99 -0.9,-5.55 -2.52,-7.73 -1.81,-2.07 -4.01,-3.5 -6.97,-4.17 -1.68,-0.41 -5.16,-0.6 -10.05,-0.6l-21.06 0 0 25.44z"/>
    </g>
    <g>
     <path class="fil0" d="M795.37 701l31.49 -71.4 11.76 0 33.54 71.4 -12.38 0 -9.52 -21.56 -34.47 0 -8.84 21.56 -11.58 0zm23.65 -29.26l0 0 27.87 0 -8.53 -19.82c-2.58,-6.02 -4.63,-10.98 -5.91,-14.85 -1.09,4.62 -2.68,9.18 -4.51,13.65l-8.93 21.02z"/>
    </g>
    <g>
     <path class="fil0" d="M958.61 700.91l0 -71.46 36.43 0c7.25,0 12.88,0.64 16.65,1.94 3.76,1.31 6.87,3.55 9.14,6.83 2.21,3.2 3.33,6.8 3.33,10.75 0,5.04 -1.9,9.33 -5.61,12.81 -3.7,3.48 -9.55,5.67 -17.48,6.61 2.93,1.2 5.13,2.4 6.6,3.59 3.17,2.5 6.09,5.66 8.99,9.47l14.15 19.46 -13.53 0 -10.86 -14.93c-3.17,-4.23 -5.85,-7.47 -7.84,-9.78 -2.09,-2.29 -3.92,-3.89 -5.47,-4.75 -1.68,-0.92 -3.33,-1.57 -5.04,-1.9 -1.18,-0.26 -3.26,-0.36 -6.04,-0.36l-12.6 0 0 31.72 -10.83 0zm10.83 -39.92l0 0 23.3 0c5.07,0 8.9,-0.48 11.63,-1.38 2.8,-0.89 4.92,-2.35 6.41,-4.25 1.5,-1.99 2.18,-4.16 2.18,-6.39 0,-3.39 -1.43,-6.19 -4.23,-8.34 -2.83,-2.22 -7.19,-3.3 -13.31,-3.3l-25.98 0 0 23.66z"/>
    </g>
    <g>
     <polygon class="fil0" points="1118.62,700.48 1118.62,629.08 1129.94,629.08 1129.94,700.48 "/>
    </g>
    <g>
     <path class="fil0" d="M1219.17 676.79l10.64 -0.83c0.47,3.63 1.75,6.54 3.55,8.83 1.87,2.27 4.67,4.19 8.52,5.55 3.83,1.43 8.31,2.13 13.07,2.13 4.39,0 8.12,-0.52 11.39,-1.6 3.36,-1.04 5.85,-2.54 7.44,-4.4 1.58,-1.91 2.36,-3.92 2.36,-6.13 0,-2.24 -0.78,-4.18 -2.24,-5.85 -1.58,-1.69 -4.13,-3.03 -7.68,-4.19 -2.36,-0.71 -7.34,-1.94 -15.24,-3.48 -7.81,-1.6 -13.38,-3.1 -16.49,-4.49 -4.11,-1.81 -7.15,-3.98 -9.09,-6.59 -2.05,-2.69 -3.01,-5.68 -3.01,-9.01 0,-3.54 1.21,-6.94 3.64,-10.11 2.43,-3.1 6.07,-5.49 10.73,-7.09 4.7,-1.65 9.99,-2.47 15.65,-2.47 6.38,0 11.88,0.87 16.8,2.58 4.88,1.69 8.58,4.21 11.23,7.54 2.49,3.31 3.98,7.09 4.17,11.2l-10.82 0.75c-0.62,-4.52 -2.58,-7.89 -6.01,-10.19 -3.3,-2.28 -8.28,-3.4 -14.87,-3.4 -6.78,0 -11.79,1.01 -14.93,3.06 -3.11,2.21 -4.73,4.68 -4.73,7.62 0,2.54 1.15,4.7 3.39,6.36 2.18,1.59 7.84,3.3 16.99,5.09 9.27,1.65 15.59,3.18 18.98,4.53 4.88,1.87 8.58,4.29 10.98,7.2 2.3,2.99 3.54,6.38 3.54,10.19 0,3.78 -1.27,7.33 -3.92,10.69 -2.58,3.39 -6.41,5.97 -11.29,7.84 -4.76,1.87 -10.27,2.8 -16.4,2.8 -7.75,0 -14.25,-0.93 -19.44,-2.86 -5.2,-1.8 -9.31,-4.68 -12.23,-8.41 -2.99,-3.81 -4.54,-8.08 -4.67,-12.85z"/>
    </g>
   </g>
   <path class="fil0" d="M436.53 276.68c0,0 166.83,-74.65 528.49,-74.65 361.71,0 529.27,74.65 529.27,74.65 0,0 -185.83,-60.06 -529.27,-60.06 -343.53,0 -528.49,60.06 -528.49,60.06z"/>
   <g>
    <polygon class="fil0" points="418.67,206.52 378.85,81.59 395.37,76.32 435.19,201.26 "/>
    <polygon class="fil0" points="507.84,180.25 481.11,51.88 498.54,48.24 586.95,135.01 565.99,34.22 582.26,30.83 608.98,159.21 591.56,162.84 503.14,75.97 524.11,176.85 "/>
    <path class="fil0" d="M673.04 106.87l16.15 -3.14c1.46,6.46 3.79,11.6 7.06,15.49 3.26,3.89 8,6.8 14.19,8.76 6.22,1.96 13,2.54 20.44,1.76 6.56,-0.7 12.29,-2.28 17.11,-4.77 4.82,-2.5 8.31,-5.57 10.39,-9.25 2.11,-3.65 2.96,-7.51 2.52,-11.54 -0.44,-4.09 -1.99,-7.54 -4.67,-10.34 -2.7,-2.8 -6.9,-4.96 -12.56,-6.46 -3.65,-0.99 -11.61,-2.3 -23.9,-3.92 -12.29,-1.6 -20.94,-3.44 -26.01,-5.48 -6.6,-2.61 -11.67,-6.16 -15.21,-10.67 -3.58,-4.51 -5.66,-9.77 -6.28,-15.76 -0.72,-6.58 0.53,-12.93 3.64,-19.06 3.14,-6.11 8.15,-11.03 14.99,-14.75 6.87,-3.72 14.69,-6.05 23.46,-6.97 9.67,-1.03 18.35,-0.37 26.07,1.96 7.72,2.35 13.87,6.33 18.48,11.94 4.61,5.64 7.46,12.26 8.59,19.88l-16.43 2.99c-1.74,-8.15 -5.41,-14.05 -10.98,-17.72 -5.6,-3.67 -13.38,-4.97 -23.39,-3.92 -10.45,1.09 -17.86,3.81 -22.22,8.13 -4.39,4.33 -6.29,9.2 -5.73,14.59 0.5,4.68 2.62,8.35 6.32,11.03 3.64,2.68 12.63,4.85 26.98,6.55 14.37,1.69 24.29,3.45 29.74,5.28 7.97,2.7 14.03,6.55 18.23,11.53 4.17,4.99 6.63,10.98 7.38,17.97 0.74,6.94 -0.57,13.69 -3.89,20.25 -3.33,6.55 -8.52,11.93 -15.62,16.12 -7.09,4.2 -15.28,6.8 -24.58,7.78 -11.82,1.24 -21.87,0.56 -30.21,-2.04 -8.34,-2.6 -15.15,-7.11 -20.41,-13.55 -5.26,-6.42 -8.5,-13.98 -9.65,-22.68z"/>
    <polygon class="fil0" points="884.72,132.77 881.49,17.16 838.31,18.35 837.87,2.89 941.78,0 942.22,15.46 898.85,16.68 902.05,132.29 "/>
    <polygon class="fil0" points="1013.37,132.22 1016.82,1.14 1034.15,1.6 1030.73,132.67 "/>
    <polygon class="fil0" points="1141.68,138.82 1151.6,23.58 1108.54,19.88 1109.88,4.46 1213.42,13.38 1212.11,28.79 1168.9,25.08 1158.97,140.3 "/>
    <path class="fil0" d="M1373.05 38.33l17.08 3.08 -13.41 74.56c-2.34,12.96 -5.66,23.01 -9.99,30.1 -4.29,7.09 -10.7,12.35 -19.23,15.75 -8.52,3.41 -19.01,3.98 -31.45,1.74 -12.07,-2.18 -21.59,-6.05 -28.53,-11.59 -6.94,-5.55 -11.36,-12.59 -13.22,-21.06 -1.87,-8.48 -1.56,-19.57 0.9,-33.24l13.44 -74.56 17.08 3.08 -13.41 74.47c-2.02,11.21 -2.49,19.66 -1.34,25.35 1.12,5.68 3.95,10.42 8.53,14.2 4.54,3.8 10.49,6.35 17.83,7.67 12.56,2.27 22.03,1.02 28.41,-3.7 6.34,-4.73 10.98,-15.2 13.9,-31.39l13.41 -74.47z"/>
    <polygon class="fil0" points="1470.92,197.88 1505.06,87.39 1463.77,74.64 1468.35,59.86 1567.65,90.54 1563.08,105.31 1521.64,92.51 1487.51,203.02 "/>
   </g>
  </g>
 </g>
</svg>
