<?xml version="1.0" encoding="utf-8"?>
<!-- Generator: Adobe Illustrator 22.0.1, SVG Export Plug-In . SVG Version: 6.00 Build 0)  -->
<svg version="1.1" id="Layer_1" xmlns:xodm="http://www.corel.com/coreldraw/odm/2003"
	 xmlns="http://www.w3.org/2000/svg" xmlns:xlink="http://www.w3.org/1999/xlink" x="0px" y="0px" viewBox="0 0 284.1 32.7"
	 style="enable-background:new 0 0 284.1 32.7;" xml:space="preserve">
<style type="text/css">
	.st0{fill:#ED3237;}
	.st1{fill:#373435;}
</style>
<g>
	<path class="st0" d="M0,17c7.7,0,15,4.6,15.7,15.6C4.6,31.9,0,24.6,0,17z M17.1,32.7c0-7.6,4.6-14.9,15.7-15.6
		C32.1,28.1,24.7,32.6,17.1,32.7z M32.8,15.4c-7.7,0.1-15.1-4.3-16-15.3C28,0.6,32.7,7.8,32.8,15.4z M15.8,0
		c0,7.6-4.6,14.9-15.7,15.6C0.8,4.6,8.1,0,15.8,0z"/>
	<path class="st1" d="M71,3.8v8.5h-0.7c-0.8-2.3-2-4.1-3.6-5.3c-1.6-1.2-3.3-1.8-5.2-1.8c-1.8,0-3.3,0.5-4.5,1.5
		c-1.2,1-2,2.4-2.5,4.2c-0.5,1.8-0.7,3.7-0.7,5.6c0,2.3,0.3,4.3,0.8,6c0.5,1.7,1.4,3,2.6,3.8c1.2,0.8,2.6,1.2,4.3,1.2
		c0.6,0,1.2-0.1,1.8-0.2c0.6-0.1,1.2-0.3,1.9-0.5v-5c0-0.9-0.1-1.6-0.2-1.8c-0.1-0.3-0.4-0.5-0.8-0.8c-0.4-0.2-0.9-0.3-1.5-0.3h-0.6
		v-0.7h11.6v0.7c-0.9,0.1-1.5,0.2-1.8,0.4c-0.3,0.2-0.6,0.5-0.8,0.9C71,20.4,71,20.9,71,21.8v5c-1.5,0.7-3.1,1.2-4.8,1.5
		c-1.7,0.4-3.4,0.5-5.2,0.5c-2.3,0-4.2-0.3-5.7-0.9c-1.5-0.6-2.8-1.4-4-2.4c-1.1-1-2-2.1-2.7-3.4c-0.8-1.6-1.2-3.5-1.2-5.5
		c0-3.6,1.3-6.7,3.8-9.1C53.8,5,57,3.8,60.8,3.8C62,3.8,63.1,3.9,64,4c0.5,0.1,1.4,0.4,2.5,0.8c1.2,0.4,1.8,0.7,2.1,0.7
		c0.3,0,0.6-0.1,0.9-0.4c0.3-0.2,0.5-0.7,0.8-1.4L71,3.8L71,3.8z"/>
	<path class="st1" d="M91.4,20.1l6.5-15.8h9.8V5h-0.8c-0.7,0-1.3,0.1-1.7,0.4c-0.3,0.2-0.5,0.4-0.7,0.8c-0.1,0.3-0.2,1-0.2,2.2v15.8
		c0,1.2,0.1,2,0.2,2.3c0.1,0.3,0.4,0.6,0.8,0.8c0.4,0.2,0.9,0.4,1.6,0.4h0.8v0.7H95.1v-0.7h0.8c0.7,0,1.3-0.1,1.7-0.4
		c0.3-0.2,0.5-0.4,0.7-0.9c0.1-0.3,0.2-1,0.2-2.2V6.4l-9.2,21.9h-0.4L79.6,6.6v16.9c0,1.2,0,1.9,0.1,2.2c0.2,0.6,0.5,1.1,1,1.4
		c0.5,0.4,1.3,0.6,2.4,0.6v0.7h-8.2v-0.7h0.2c0.5,0,1-0.1,1.5-0.3c0.5-0.2,0.8-0.4,1-0.7c0.2-0.3,0.4-0.7,0.5-1.3c0-0.1,0-0.7,0-1.8
		V8.4c0-1.2-0.1-2-0.2-2.3c-0.1-0.3-0.4-0.6-0.8-0.8C76.8,5.1,76.3,5,75.6,5h-0.8V4.3h9.8L91.4,20.1L91.4,20.1z"/>
	<g>
		<path class="st1" d="M127.4,17.7v6.8c0,1.3,0.1,2.2,0.2,2.5c0.2,0.3,0.5,0.6,0.9,0.8c0.4,0.2,1.2,0.3,2.3,0.3v0.7h-12.5v-0.7
			c1.1,0,1.9-0.1,2.3-0.3c0.4-0.2,0.7-0.5,0.9-0.8c0.2-0.3,0.2-1.2,0.2-2.5v-16c0-1.3-0.1-2.2-0.2-2.5c-0.2-0.3-0.5-0.6-0.9-0.8
			c-0.4-0.2-1.2-0.3-2.3-0.3V4.2H129c3.5,0,6.1,0.6,7.6,1.9c1.5,1.3,2.3,2.8,2.3,4.7c0,1.6-0.5,3-1.5,4.1c-1,1.1-2.4,1.9-4.1,2.3
			C132.2,17.5,130.2,17.7,127.4,17.7z M127.4,5.6v10.6c0.4,0,0.7,0,0.9,0c1.5,0,2.6-0.4,3.4-1.3c0.8-0.9,1.2-2.2,1.2-4.1
			c0-1.8-0.4-3.2-1.2-4c-0.8-0.8-2-1.3-3.6-1.3H127.4z"/>
		<path class="st1" d="M150.2,17v7.6c0,1.3,0.1,2,0.2,2.4c0.1,0.3,0.4,0.6,0.8,0.8c0.4,0.2,1,0.4,1.6,0.4h0.8v0.7h-12.9v-0.7h0.8
			c0.7,0,1.3-0.1,1.7-0.4c0.3-0.2,0.6-0.5,0.7-0.9c0.1-0.3,0.2-1.1,0.2-2.3V8.4c0-1.3-0.1-2-0.2-2.4c-0.1-0.3-0.4-0.6-0.8-0.8
			c-0.4-0.2-1-0.4-1.6-0.4h-0.8V4.2h12.9v0.7h-0.8c-0.7,0-1.3,0.1-1.7,0.4c-0.3,0.2-0.6,0.5-0.7,0.9c-0.1,0.3-0.2,1.1-0.2,2.3v7h8.7
			v-7c0-1.3-0.1-2-0.2-2.4c-0.1-0.3-0.4-0.6-0.8-0.8c-0.4-0.2-1-0.4-1.7-0.4h-0.8V4.2h12.8v0.7h-0.8c-0.7,0-1.3,0.1-1.7,0.4
			c-0.3,0.2-0.6,0.5-0.7,0.9c-0.1,0.3-0.2,1.1-0.2,2.3v16.2c0,1.3,0.1,2,0.2,2.4c0.1,0.3,0.4,0.6,0.8,0.8c0.4,0.2,1,0.4,1.7,0.4h0.8
			v0.7h-12.8v-0.7h0.8c0.7,0,1.3-0.1,1.7-0.4c0.3-0.2,0.6-0.5,0.7-0.9c0.1-0.3,0.2-1.1,0.2-2.3V17H150.2z"/>
		<path class="st1" d="M184.4,21.8h-8.7l-1,2.4c-0.3,0.8-0.5,1.5-0.5,2c0,0.7,0.3,1.2,0.8,1.5c0.3,0.2,1.1,0.3,2.4,0.4v0.7h-8.2
			v-0.7c0.9-0.1,1.6-0.5,2.2-1.1c0.6-0.6,1.3-1.8,2.1-3.7l8.8-19.6h0.3l8.9,20.2c0.8,1.9,1.5,3.1,2.1,3.6c0.4,0.4,1,0.6,1.7,0.7v0.7
			h-11.9v-0.7h0.5c1,0,1.6-0.1,2-0.4c0.3-0.2,0.4-0.5,0.4-0.8c0-0.2,0-0.4-0.1-0.7c0-0.1-0.2-0.6-0.5-1.4L184.4,21.8z M183.8,20.5
			l-3.7-8.5l-3.8,8.5H183.8z"/>
		<path class="st1" d="M205.7,17.6v6.9c0,1.3,0.1,2.2,0.2,2.5c0.2,0.3,0.5,0.6,0.9,0.8c0.4,0.2,1.2,0.3,2.3,0.3v0.7h-12.6v-0.7
			c1.1,0,1.9-0.1,2.3-0.3c0.4-0.2,0.7-0.5,0.9-0.8c0.2-0.3,0.2-1.2,0.2-2.5v-16c0-1.3-0.1-2.2-0.2-2.5c-0.2-0.3-0.5-0.6-0.9-0.8
			c-0.4-0.2-1.2-0.3-2.3-0.3V4.2h11.4c3,0,5.2,0.2,6.5,0.6c1.4,0.4,2.5,1.2,3.4,2.3s1.3,2.4,1.3,3.9c0,1.8-0.7,3.3-2,4.5
			c-0.8,0.8-2,1.3-3.5,1.7l5.9,8.3c0.8,1.1,1.3,1.7,1.7,2c0.5,0.4,1.1,0.6,1.7,0.6v0.7h-7.7l-7.9-11.2H205.7z M205.7,5.5v10.8h1
			c1.7,0,2.9-0.2,3.8-0.5c0.8-0.3,1.5-0.9,2-1.7s0.7-1.9,0.7-3.1c0-1.9-0.4-3.3-1.3-4.2s-2.3-1.3-4.2-1.3H205.7z"/>
		<path class="st1" d="M240.3,20.4L247,4.2h10v0.7h-0.8c-0.7,0-1.3,0.1-1.7,0.4c-0.3,0.2-0.5,0.5-0.7,0.9c-0.1,0.3-0.2,1-0.2,2.3
			v16.2c0,1.3,0.1,2,0.2,2.4c0.1,0.3,0.4,0.6,0.8,0.8s1,0.4,1.7,0.4h0.8v0.7h-12.8v-0.7h0.8c0.7,0,1.3-0.1,1.7-0.4
			c0.3-0.2,0.5-0.5,0.7-0.9c0.1-0.3,0.2-1.1,0.2-2.3V6.4l-9.4,22.4h-0.4l-9.6-22.3v17.3c0,1.2,0,2,0.1,2.2c0.2,0.6,0.5,1.1,1,1.5
			c0.5,0.4,1.4,0.6,2.5,0.6v0.7h-8.4v-0.7h0.3c0.5,0,1.1-0.1,1.5-0.3c0.5-0.2,0.8-0.4,1.1-0.8c0.2-0.3,0.4-0.8,0.6-1.3
			c0-0.1,0-0.7,0-1.9V8.4c0-1.2-0.1-2-0.2-2.3c-0.1-0.3-0.4-0.6-0.8-0.8s-1-0.4-1.7-0.4h-0.8V4.2h10.1L240.3,20.4z"/>
		<path class="st1" d="M273.2,21.8h-8.7l-1,2.4c-0.3,0.8-0.5,1.5-0.5,2c0,0.7,0.3,1.2,0.8,1.5c0.3,0.2,1.1,0.3,2.4,0.4v0.7H258v-0.7
			c0.9-0.1,1.6-0.5,2.2-1.1c0.6-0.6,1.3-1.8,2.1-3.7l8.8-19.6h0.3l8.9,20.2c0.8,1.9,1.5,3.1,2.1,3.6c0.4,0.4,1,0.6,1.7,0.7v0.7
			h-11.9v-0.7h0.5c1,0,1.6-0.1,2-0.4c0.3-0.2,0.4-0.5,0.4-0.8c0-0.2,0-0.4-0.1-0.7c0-0.1-0.2-0.6-0.5-1.4L273.2,21.8z M272.5,20.5
			l-3.7-8.5l-3.8,8.5H272.5z"/>
	</g>
</g>
</svg>
