<?xml version="1.0" encoding="UTF-8"?>
<!DOCTYPE svg PUBLIC "-//W3C//DTD SVG 1.1//EN" "http://www.w3.org/Graphics/SVG/1.1/DTD/svg11.dtd">
<!-- Creator: CorelDRAW 2019 (64-Bit) -->
<svg xmlns="http://www.w3.org/2000/svg" xml:space="preserve" width="3.44153in" height="0.824382in" version="1.1" style="shape-rendering:geometricPrecision; text-rendering:geometricPrecision; image-rendering:optimizeQuality; fill-rule:evenodd; clip-rule:evenodd"
viewBox="0 0 4298.77 1029.73"
 xmlns:xlink="http://www.w3.org/1999/xlink"
 xmlns:xodm="http://www.corel.com/coreldraw/odm/2003">
 <defs>
  <style type="text/css">
   <![CDATA[
    .str0 {stroke:#373435;stroke-width:8.67;stroke-miterlimit:2.61313}
    .fil3 {fill:#373435}
    .fil0 {fill:#ED3237}
    .fil2 {fill:#373435;fill-rule:nonzero}
    .fil1 {fill:#ED3237;fill-rule:nonzero}
   ]]>
  </style>
 </defs>
 <g id="Layer_x0020_1">
  <metadata id="CorelCorpID_0Corel-Layer"/>
  <g id="_1711889986464">
   <path class="fil0" d="M76.37 513.37c0.38,18.15 5.35,32.08 15.02,41.93 5.39,5.49 11.66,9.47 18.84,11.91 13.13,4.46 51.12,4.35 64.07,-0.42 6.68,-2.47 12.56,-6.31 17.65,-11.49 9.67,-9.85 14.63,-23.78 15.01,-41.93 0,-24.67 -4.58,-41.68 -13.87,-51.01 -5.01,-5.03 -11.28,-8.72 -18.83,-11.05 -12.34,-3.82 -43.43,-4.15 -56.85,-1.95 -11.39,1.87 -20.43,6.23 -27.17,13 -9.28,9.32 -13.87,26.33 -13.87,51.01zm107.21 -107.62l0 -59.39c0,-28.25 -8.26,-55.09 -28.3,-71.08 -25.97,-20.71 -82.14,-20.01 -107.85,5.22 -9.01,8.86 -14.89,21.21 -14.89,37.1l0 24.99c0,4.05 0.45,8 1.28,11.8l35.1 0 0 -13.55c0,-14.77 4.06,-32.16 21.58,-32.21 10.41,-0.03 15.11,3.21 19.89,12.76 3.45,6.88 5.05,15.37 5.05,24.96l0 15.34 0 43.03c-19.73,0.77 -37.16,3.22 -52.31,7.39 -18.59,5.11 -33.74,15.59 -45.57,31.32 -11.71,15.85 -17.57,38.35 -17.57,67.75 0.76,38.87 11.58,65.84 32.46,80.93 20.22,14.61 48.2,22.14 83.95,22.6l0 0.02 3.49 0 43.53 0 3.49 0 0 -0.02c35.75,-0.46 63.74,-7.99 83.95,-22.6 20.88,-15.09 31.7,-42.06 32.46,-80.93 0,-29.4 -5.85,-51.9 -17.56,-67.75 -11.84,-15.73 -26.98,-26.21 -45.57,-31.32 -11,-3.02 -23.21,-5.15 -36.63,-6.38z"/>
   <path class="fil1" d="M336.23 352.01c0,-58.67 46.84,-89.27 140.39,-90.75 26.98,-0.43 49.13,2.04 66.57,6.11 17.31,4.2 25.97,7.51 25.97,9.93l0 54.35c0,0 0,0 0,0 0,-0.38 -3.3,-2.68 -9.93,-7 -7,-4.58 -16.55,-8.66 -28.38,-12.22 -11.84,-3.69 -26.09,-5.47 -42.64,-5.47 -27.36,0 -45.98,5.45 -56,16.29 -9.93,10.75 -14.87,26.48 -15.02,47.13l0 0.99 0 33.99 73.19 0c25.45,0 47.48,2.55 66.05,7.64 18.59,5.09 33.74,15.53 45.57,31.19 10.24,13.81 16.01,32.69 17.29,56.8 0.09,1.73 -0.4,3.47 -0.35,5.25 0.05,2.26 -0.04,4.51 0,6.77 0.67,33.86 0,67.89 0,101.75l-75.95 0 0 -108.02 0.07 0c-0.82,-20.77 -5.38,-35.34 -13.74,-43.71 -9.29,-9.28 -22.93,-14 -41.12,-14l-70.2 0c0,55.26 0,110.51 0,165.73l-81.77 0 0 -260.13 0 -2.6z"/>
   <path class="fil1" d="M1549.33 524.1c0,58.57 46.76,89.13 140.16,90.61 3.05,0.04 89.9,0.04 92.84,0.02l0 -45.67c-1.62,-0.02 -87.07,-0.07 -88.63,-0.13 -23.33,-0.91 -39.48,-6.29 -48.56,-16.12 -9.9,-10.73 -14.85,-26.43 -15,-47.05l0 -0.99c0,-53.23 0,-87.71 0,-148.99l0 -49.64 73.2 0c15.51,0 27.96,4.96 37.62,14.74 4.82,4.89 8.49,10.82 10.97,17.74 8.37,23.34 3.61,79.81 -14.22,101.13l81.51 0c11.75,-33.73 16.81,-74.48 9.32,-107.79 -4.83,-21.47 -14.42,-37.37 -28.75,-47.68 -20.84,-14.99 -49.94,-22.49 -87.3,-22.49l-163.16 0 0 93.99 0 165.72 0 2.59z"/>
   <g>
    <path class="fil2" d="M2104.36 608.59c-17.31,-4.18 -25.97,-7.48 -25.97,-9.89l0 -54.14c0,0 0,0 0,0 0,0.38 3.31,2.66 9.93,6.97 7,4.57 16.55,8.62 28.38,12.17 11.84,3.68 26.09,5.45 42.64,5.45 30.45,0 62.37,-15.68 66.51,-41.05 1.88,-11.53 1.79,-26.96 -13.4,-40.51 -10.99,-9.81 -25.36,-14.83 -42.01,-14.83l-42.98 0 0 -44.12 51.81 0c54.76,0 65.96,-74.03 2.92,-83.54 -27.3,-5.93 -47.71,-14.38 -61.54,-25.46 -13.63,-11.01 -20.42,-30.36 -20.51,-58.06l47.98 0c-10.63,46.8 76.75,40.68 98.53,46.31 81.98,21.21 59.8,124.33 -7.48,143.54 43.96,9.07 72.84,39.85 74.85,76.26 1.2,21.84 -4.98,48.77 -29.76,65.72 -20.65,14.12 -57.26,21.3 -91.23,21.3 -29.78,0 -59.35,0.69 -88.67,-6.13z"/>
    <path class="fil2" d="M2514.22 302.78c15.62,0 27.43,4.47 35.4,13.2 6.48,7.09 10.33,19 11.53,35.62 0.1,1.41 0.19,46.83 0.25,100.05l0 4.89 -0.13 17.55 0.29 0 65.48 0 0.29 0 -0.13 -17.55 0 -4.89c0.06,-53.22 0.15,-98.65 0.25,-100.05 1.19,-16.62 5.05,-28.53 11.53,-35.62 7.98,-8.74 19.78,-13.2 35.4,-13.2 36.68,0 41.51,28.92 40.63,60.33 -0.26,3.36 -0.38,5.35 -0.38,5.97l0 245.66 16.5 0 65.76 0 0.21 0 0 -231.45c0,-4.58 -0.13,-9.04 -0.38,-13.42 -0.01,-10.97 -0.04,-17.65 -0.06,-18.1 -1.05,-22.73 -6.06,-40.55 -14.89,-53.57 -10.19,-14.76 -23.26,-24.64 -39.24,-29.41 -30.03,-8.96 -82.36,-9.6 -113.9,-3.24 -14.05,2.84 -22.73,7.9 -34.34,16.46 -11.62,-8.56 -20.29,-13.62 -34.34,-16.46 -31.54,-6.37 -83.86,-5.72 -113.9,3.24 -15.98,4.77 -29.05,14.64 -39.24,29.41 -8.82,13.02 -13.83,30.84 -14.89,53.57l-0.04 8.89c-0.76,7.24 -1.13,14.78 -1.13,22.63l0 231.45 0.94 0 65.77 0 15.77 0 0 -245.66c0,-0.63 -0.12,-2.62 -0.38,-5.97 -0.9,-32.22 4.32,-60.33 41.36,-60.33z"/>
    <path class="fil2" d="M3010.87 261.8c40.29,0 70.51,6.22 91.03,18.53 20.39,12.31 33.45,27.11 39.17,44.4 5.85,17.29 8.71,36.81 8.71,58.7l0 231.31 -80.59 0 0 -230.56c0,-0.62 0.12,-2.61 0.37,-5.97 0.25,-3.48 0.37,-6.34 0.37,-8.95 0,-40.79 -22.64,-61.19 -68.03,-61.19 -41.78,0 -62.68,19.89 -62.68,59.69 0,3.24 0.13,6.84 0.37,11.2 0.25,4.22 0.38,6.71 0.38,7.46l0 228.33 -66.29 0 0 -228.33 0 -16.42c0,-72.13 45.76,-108.19 137.17,-108.19z"/>
    <path class="fil2" d="M3226.37 352.01c0,-58.67 46.83,-89.27 140.39,-90.75 26.98,-0.43 49.13,2.04 66.57,6.11 17.31,4.2 25.97,7.51 25.97,9.93l0 54.35c0,0 0,0 0,0 0,-0.38 -3.31,-2.68 -9.93,-7 -7,-4.58 -16.55,-8.66 -28.38,-12.22 -11.84,-3.69 -26.09,-5.47 -42.64,-5.47 -27.37,0 -45.98,5.45 -56,16.29 -9.93,10.75 -14.88,26.48 -15.02,47.13l0 0.99 0 33.99 73.19 0c25.45,0 47.48,2.55 66.05,7.64 18.59,5.09 33.74,15.53 45.57,31.19 11.71,15.79 17.57,38.19 17.57,67.46 -0.76,38.7 -11.58,65.55 -32.46,80.58 -20.87,15.01 -50.02,22.53 -87.45,22.53l-163.43 0 0 -94.14 0 -165.99 0 -2.6zm80.95 97l0 71.59 0 49.72 73.32 0c15.53,0 28.01,-4.96 37.68,-14.77 9.67,-9.8 14.63,-23.67 15.02,-41.75 0,-24.56 -4.59,-41.5 -13.87,-50.79 -9.29,-9.29 -22.92,-14 -41.12,-14l-71.03 0z"/>
    <path class="fil2" d="M3703.83 264.06c-22.06,3.39 -40.57,9.5 -55.47,18.32 -22.63,13.52 -38.68,33.69 -48.03,60.61 -9.35,27.05 -14.03,62.49 -14.03,106.57 1.01,35.44 6.45,65.24 16.31,89.29 9.86,24.17 25.53,42.7 47.02,55.73 21.36,12.89 49.55,19.66 84.56,20.16 21.35,0 42.67,0 64.01,0 35.02,-0.43 63.21,-6.38 84.56,-17.72 21.49,-11.43 37.16,-27.72 47.02,-48.95 9.86,-21.12 15.29,-47.3 16.31,-78.44 0,-38.72 -4.68,-69.85 -14.03,-93.61 -9.35,-23.66 -25.4,-41.37 -48.03,-53.25 -20.98,-10.91 -49.12,-17.09 -84.23,-18.55l0 -42.41 -53.17 0 0 130.33 53.17 0 0 -49.26c16.9,1.58 29.64,8.59 38.22,20.93 8.85,12.65 14.41,27.6 16.69,44.88 2.4,17.38 3.54,37.62 3.54,60.83 0,59.45 -18.45,100.01 -85.38,100.01 -9.61,0 -17.19,-0.25 -22.75,-0.75 -50.69,-3.13 -75.97,-42.96 -75.97,-119.34 0,-33.85 -7.42,-125.36 29.68,-140.77l0 -44.61z"/>
    <path class="fil2" d="M4159.87 261.8c40.3,0 70.51,6.22 91.03,18.53 20.4,12.31 33.45,27.11 39.17,44.4 5.85,17.29 8.7,36.81 8.7,58.7l0 231.31 -80.59 0 0 -230.56c0,-0.62 0.12,-2.61 0.37,-5.97 0.25,-3.48 0.38,-6.34 0.38,-8.95 0,-40.79 -22.64,-61.19 -68.03,-61.19 -41.79,0 -62.68,19.89 -62.68,59.69 0,3.24 0.13,6.84 0.37,11.2 0.25,4.22 0.38,6.71 0.38,7.46l0 228.33 -66.29 0 0 -228.33 0 -16.42c0,-72.13 45.76,-108.19 137.17,-108.19z"/>
   </g>
   <path class="fil3" d="M1166.02 274c24.29,2.55 29.65,-10.43 36.8,-27.74 -7.98,2.89 -33.03,19.98 -36.8,27.74zm-40.78 202.43c8.8,-2.56 38.63,-25.87 48.02,-32.6 -3.53,-3.61 -2.21,-2.6 -7.9,-5.36 -14.48,-7.02 -17.42,-5.86 -26.34,1.18 -9.96,7.86 -10.77,16.98 -13.77,36.79zm-224.43 -114.46c5.08,0.47 68.84,26.32 69.43,27.02 0.62,0.9 4.36,-2.67 1.6,7.83 -1.7,6.46 -8.22,5.71 -12.64,2.86l-36.13 -10.15 -6.58 -2.6 -6.26 -2.44 -13.5 -3.93c-15.64,-8.65 -5.7,-19.48 4.07,-18.58zm236.19 257.57l193.18 -140.61c-25.18,65.37 -120.81,139.35 -193.18,140.61zm-398.36 -51.77c5.23,-6.03 11.92,-10.71 18.72,-14.88 7.17,-4.38 12.16,-8.78 19.25,-13.03 5.23,6.32 9.79,16.07 14.66,24.11 19.08,31.51 41.65,51.86 50.2,65.28 -11.4,8.76 -26.38,19.85 -38.7,27.4 -4.08,-3.18 -60.76,-81.71 -64.13,-88.89zm-14.19 -0.22c10.4,14.52 49.45,61.36 45.62,71.41l-7.75 -9c-11.18,-14.74 -40.29,-60.33 -50.17,-64.35 -12.32,-0.1 -9.68,0.82 -19.08,5.08 -0.45,-22.53 16.2,-24.33 31.37,-3.14zm356.58 -493.35c166.48,-16.17 308.38,121.86 316.95,273.51 7.64,135.26 -66.68,244.04 -174.5,291.96l0 77.37c70.46,-24.51 131.39,-69.97 175.01,-129.13 77.86,-105.59 92.05,-245.48 41.58,-364.25l38.47 -30.75c14.24,-10.03 9.32,1.33 26.19,0.76 10.44,-0.36 18.01,-8.7 20.89,-14.46 9.1,-18.19 -9.58,-35.1 -17.77,-45.85l-57.92 -79.21c-8.13,-11.43 -17.57,-32.52 -38.65,-29.12 -8.86,1.43 -16.37,8.27 -18.72,17 -4.62,17.12 7.03,12.75 -7.18,23.02 -11.18,8.07 -28.01,22.1 -39.74,27.96 -25.94,-15.53 -31.9,-32.73 -96.47,-60.31 -248.85,-106.24 -524.71,76.44 -512.75,358.77 2.99,70.35 23.13,97.32 29.51,126.39 -6.42,3.01 -12.41,7.64 -18.21,12.31 -28.53,23 -23.81,16.39 -34.79,13.66 -17.67,-4.38 -45.49,12.08 -22.28,44.46l72.73 99.32c7.38,10.78 16.24,27.14 34.72,23.62 15.49,-2.95 21.52,-16.88 18.23,-34.63 6.75,-3.55 14.34,-10.47 21.17,-15.29 6.46,-4.56 15.18,-12.13 21.96,-15.23 15.04,9.71 28.61,22.18 45.46,33.15 22.3,14.52 47.38,26.84 74.02,36.34l0 -76.53c-96.4,-45.37 -163.64,-142.32 -171.36,-247.74 -11.98,-163.65 107.72,-301.02 273.44,-317.11zm283.33 37.08c4.69,-5.52 35.14,-27.89 42.32,-31.25 6.02,4.31 25.95,35.14 32.46,43.73 7.11,9.38 10.45,14.29 16.48,22.72 5.83,8.15 12.93,14.19 15.72,24.38 -15.83,8.16 -27.29,20.28 -43.25,28.86 -10.07,-21.32 -50.57,-81.05 -63.73,-88.44zm101.02 20.63c-10.58,-0.56 -10.24,-1.53 -14.61,-8.87 -9.47,-15.93 -44.51,-58.69 -48.28,-67.4 -5.81,-13.47 7.44,-21.54 18.92,-16.88 -7.51,6.17 -13.98,12.92 -4.24,26.3l48.2 66.85zm-587.21 121.26c0.19,-0.3 0.6,-0.9 0.8,-1.24l1.58 -2.68c9.33,-15.56 17.41,-28.21 29.71,-42.35 38.93,-44.75 95.9,-83.05 156.48,-87.34l-184.37 135.57c-0.3,0.24 -0.93,0.79 -1.17,0.98 -0.22,0.19 -0.98,1.35 -1.14,0.99 -0.16,-0.35 -0.8,1.36 -1.14,1l-2.39 -2.57 1.63 -2.36zm-15.69 109.85c2.16,-10.58 6.07,-13.29 6.92,-22.21l-7.92 4.47c-4.29,3.12 -5.87,3.89 -10.51,6.77 -1.41,-10.81 4.21,-34.03 7.12,-45.14 3.01,-11.45 6.18,-11.17 14.96,-17.36 6.46,-4.55 12.17,-7.96 18.4,-14.31 8,-8.14 7.77,-11.71 18.76,-16.14 27.31,-10.98 54.09,-36.7 78.7,-54.26l115.81 -84.51c11.91,-7.89 43.3,0.29 57.81,3.69l-16.87 13.15c-2.35,1.72 -4.53,3.17 -6.39,4.47 -8.76,6.14 -15.76,11.06 -24.19,17.22 -25.62,18.71 -139.58,99.81 -144.74,108.36 26.01,16.47 29.06,4.76 52.1,-11.49 31.26,-22.05 62.18,-45.39 93.17,-67.94 18.75,-14.49 25.09,-63.98 48.21,-41.42l4.33 4.07c3.08,-4.09 7.89,-6.84 12.83,-10.7 13.43,-10.53 22.27,-3.73 39.66,6.28l7.49 6.25c-23.21,13.96 -50.31,34.94 -71.92,52.05 -7.98,6.31 -10.9,19.84 -9.24,33.91 25.04,-14.38 81.22,-64.32 102.74,-73.62 9.95,4.92 19.46,15.89 28.43,21.62 -10.23,23.69 -24.71,2.37 -31.45,52.77 15.19,-4.62 33.67,-25.98 48.8,-32.32 6.51,8.77 16.35,18.87 20.89,29.5 -15.29,9.86 -151.89,108.94 -156.7,115.47 -3.2,4.34 -8.27,24.66 -8.91,31.55 11.61,-3.31 108.3,-77.75 132.91,-95.09 8.62,-6.07 36.89,-28.67 44.52,-31.11 4.5,5.59 12.84,26.33 14.21,34.17 -12.77,13.42 -84.97,63.57 -104.59,77.44l-36.43 25.98c5.47,4.94 17.29,5.31 25.08,5.23 16.9,-0.19 99.36,-72.13 122.8,-83.84 3.8,10.02 7.32,31.99 4.42,41.97 -2.79,5.09 -61.56,43.65 -71.41,52.38 4.91,5.65 14.98,9.47 21.93,11.46 13.6,-8.85 38.3,-30.73 50.65,-35.12 -0.97,10.53 -2.02,20.66 -3.83,30.01 -4.86,25.07 -10.1,26.35 -29.71,39.65 -12.68,8.59 -6.29,9.56 -15.69,19.13 -8.49,8.64 -19.51,6.2 -44.88,24.94 -14.49,10.71 -26.61,19.75 -40.14,29.6 -14.28,10.39 -26.37,19.23 -40.19,29.57l-80.65 58.71c-13.84,9.6 -43.22,0.26 -58.28,-3.67 6.6,-3.67 15.64,-11.97 25.13,-20.93l-19.6 -10.78c-8.95,3.49 -27.53,21.39 -33.3,22.26 -5.84,0.88 -30.02,-13.17 -37.46,-16.87 14.69,-14.37 36.67,-29.27 54.38,-41.12 7.74,-5.18 5.38,-1.32 8.88,-11.01 3.62,-10.08 8.79,-20.81 10.27,-29.43 -11.37,5.01 -36.28,24.76 -47.77,33.59 -11.84,9.1 -34.71,27.24 -46.63,33.32 -9.15,-4.22 -25.28,-17.82 -28.54,-26 18.22,-7.4 68.33,-48.71 87.39,-62.68l65.46 -47.81c9.97,-6.87 11.79,-9.52 14.82,-24.03 -11.33,-6.36 -13.72,-3.63 -24.63,3.23 -23.47,14.75 -44.29,34.09 -68.02,49.75l-45.74 32.72c-10.11,7.24 -37.17,30.03 -48.24,33.12 -4.47,-6.74 -14.93,-20.13 -18.69,-29.52 8.01,-7.97 17.93,-13.4 27.56,-21.14l55.47 -40.41c9.47,-6.24 21.06,-12.61 27.67,-21.75 -9.07,2.15 -13.78,4.72 -22.05,7.61 -13.47,4.72 -14.29,0.12 -27.85,1 -7.89,8.81 -24.98,20.08 -35.35,27.41 -12.09,8.55 -25.85,20.25 -37.72,26.36 -5.87,-10.03 -9.77,-21.93 -14.3,-33.53 7.13,-7.25 11.98,-10.7 21.03,-17.19l16.48 -11.83c5.3,-3.94 2.25,-0.19 6.15,-5.83 -7.47,-7.89 -19.63,-11.78 -28.75,-6.14 -4.27,2.65 -18.74,13.37 -21.09,15.7l-6.45 -42.47c9.58,-5.62 11.28,-3.25 12.5,-17.2zm220.79 -273.51c-47.29,5.19 -71.99,11.95 -109.42,30.54 -58.54,29.08 -109.18,85.52 -132.41,146.55 -28.76,75.58 -25.78,159.49 11.57,231.35 32.81,63.09 83.3,108 147.74,133.4 231.82,91.39 469.6,-147.37 351.84,-390.64 -44.93,-92.83 -158.65,-163.35 -269.31,-151.19zm-140.5 258.13c30.4,9.72 40.42,8.46 37.63,25.13 -13.3,3.85 -31.21,-6.22 -45.94,-10.63 -13.94,-4.18 -33.02,-6.96 -36.5,-18.71 8.04,-12.21 12.75,-6.05 44.81,4.2zm46.97 -4.48c-10.54,7.14 -26.61,-1.73 -40.78,-6.29 -12.19,-3.93 -33.12,-8.58 -41.16,-15.12 -1.05,-13.38 3.44,-14.42 14.91,-11.07 12.42,3.61 62.07,19.64 67.29,23.69l-0.27 8.8zm6.83 -26.25c-6.23,6.22 -37.09,-7.08 -46.07,-9.96 -18.54,-5.98 -43.4,-9.15 -31.86,-21.68 6.08,-6.6 15.21,-1.34 23.65,1.64 20.96,7.4 68.29,16 54.27,30zm247.77 -133.91c-4.58,4.03 0.08,-0.99 -4.19,4.43l-13.13 26.63c-4.61,11.58 -7.67,22.75 -12.41,33.29 -8.06,17.89 -22.74,43.23 -49.2,38.74 -56.23,-9.52 -15.48,-92.31 -12.29,-134.03 -14.01,7.75 -27.48,59.27 -32.77,79.11 -13.12,49.26 -2.29,57.24 23.5,77.49l-26.77 76.66c-17.48,-0.41 -60.57,-16.88 -80.16,-21.37 4.27,-19.79 1.98,-14.48 -5.55,-28.74 -11.34,-21.48 -16.97,-40.09 -31.19,-45.3 -100.96,-37.02 -92.03,-30.54 -111.5,32.53 -22.24,72.01 -26.73,59.73 40.71,84.11 45.75,16.54 41.75,12.97 84.66,-6.68 12.99,-5.95 13.09,-5.92 17,-19.93 13.26,1.4 66.14,20.55 77,26.16 -16.61,74.12 -89.02,152.05 -51.85,172.03 44.71,24.03 44.77,-31.36 50.93,-63.14 3.24,-16.61 6.5,-33.85 9.81,-51.3 3.43,-18.19 9.09,-33.25 12.22,-49.69 25.68,5.5 100.69,42.09 130.13,57.01 17.27,8.75 35.43,11.02 43.41,-7.4 26.13,-60.23 -91.94,-38.17 -166.09,-71.57 4.09,-24.66 15.2,-53.12 22.23,-78.75 19.75,0.18 31.84,-0.44 43.03,-11.13 7.7,-7.35 15.2,-21.23 19.66,-32.75 8.96,-23.16 21.77,-58.7 22.83,-86.41zm-219.22 116.16c1.95,7.17 5.31,14.25 10.94,19.37 12.45,-6.49 22.14,-16.06 34.08,-23.76 11.48,-7.41 24.05,-19.08 35.48,-25.47l-0.34 -25.94c-10.31,2.15 -64.96,47 -80.16,55.8zm27.1 57.34c25.25,11.11 31.89,3.25 47.49,-8.2 15.74,-11.55 28.55,-14.85 31.48,-38.68 -11.63,-5.59 -7.95,-6.86 -19.92,2.1 -16.64,12.44 -52.1,34.92 -59.05,44.78zm60.35 195.5l-1.47 9.84c0.4,-0.27 0.98,-1.2 1.17,-0.84 0.28,0.55 0.97,-0.74 2.58,-1.68 3.88,-2.3 0.55,-0.47 4.69,-2.55l112.54 -82.66c-4.74,-6.21 -19.68,-11.47 -21.59,-11.1l-54.7 39.24c-37.07,26.4 -39.74,23.16 -43.21,49.76z"/>
   <path class="fil0 str0" d="M1104.26 4.34c202,0 365.75,163.75 365.75,365.75 0,160.61 -103.53,297.03 -247.48,346.19l0 -73.27c105.39,-45.74 179.12,-150.71 179.12,-272.92 0,-164.25 -133.15,-297.39 -297.39,-297.39 -164.25,0 -297.39,133.15 -297.39,297.39 0,119.55 70.55,222.6 172.29,269.85l0 73.94c-140.39,-51.1 -240.65,-185.73 -240.65,-343.78 0,-202 163.75,-365.75 365.75,-365.75z"/>
   <path class="fil3" d="M1776.36 880.16l-128.11 0 0 111.17 128.11 0 0 -36.39 -66.99 0c-1.15,0 -2.09,-0.94 -2.09,-2.09l0 -31.04c0,-1.15 0.93,-2.09 2.09,-2.09l110.35 0c1.15,0 2.09,0.94 2.09,2.09l0 62.78c0,11.33 -1.34,26.9 -9.84,35.4 -0.02,0.01 -0.04,0.03 -0.06,0.05 -9.05,8.39 -25.7,9.67 -37.4,9.67l-125.52 0c-11.73,0 -28.34,-1.28 -37.45,-9.66 -0.03,-0.03 -0.06,-0.05 -0.08,-0.08 -8.34,-8.58 -9.7,-24.06 -9.7,-35.38l0 -95.94c0,-11.26 1.36,-26.76 9.71,-35.26 0.02,-0.02 0.03,-0.04 0.05,-0.06 9.03,-8.54 25.73,-9.8 37.47,-9.8l125.52 0c11.39,0 28.32,1.12 37.04,9.43 8.76,8.04 10.26,22.83 10.26,33.99l0 4.23c0,1.02 -0.71,1.87 -1.72,2.06l-41.27 7.41c-0.63,0.11 -1.21,-0.04 -1.71,-0.45 -0.49,-0.41 -0.75,-0.96 -0.75,-1.6l0 -18.43zm289.15 80.78l79.44 65.09c0.7,0.57 0.94,1.47 0.64,2.32 -0.3,0.85 -1.07,1.39 -1.97,1.39l-60.73 0c-0.55,0 -1.03,-0.19 -1.43,-0.57l-72.77 -68.22 -37.3 0 0 66.7c0,1.15 -0.93,2.09 -2.09,2.09l-41.62 0c-1.15,0 -2.09,-0.94 -2.09,-2.09l0 -182.02c0,-1.15 0.94,-2.09 2.09,-2.09l155.56 0c11,0 24.19,1.54 33.1,8.63 0.03,0.02 0.06,0.05 0.09,0.07 8.06,7.16 10.16,18.37 10.16,28.67l0 42.74c0,10.24 -2.16,21.21 -10.16,28.31 -0.01,0.01 -0.02,0.02 -0.03,0.03 -8.71,7.41 -22.16,8.96 -33.15,8.96l-17.74 0zm157.48 66.7l0 -182.02c0,-1.15 0.94,-2.09 2.09,-2.09l42.27 0c1.15,0 2.09,0.93 2.09,2.09l0.41 182.02c0,0.58 -0.2,1.07 -0.61,1.48 -0.4,0.41 -0.9,0.61 -1.48,0.61l-42.68 0c-1.15,0 -2.09,-0.94 -2.09,-2.09zm196.45 -36.31l134.43 0c1.15,0 2.09,0.94 2.09,2.09l0 34.22c0,1.15 -0.94,2.09 -2.09,2.09l-178.84 0c-1.15,0 -2.09,-0.94 -2.09,-2.09l0 -182.02c0,-1.15 0.94,-2.09 2.09,-2.09l42.33 0c1.15,0 2.09,0.94 2.09,2.09l0 145.71zm255.48 0l134.42 0c1.15,0 2.09,0.94 2.09,2.09l0 34.22c0,1.15 -0.93,2.09 -2.09,2.09l-178.84 0c-1.15,0 -2.09,-0.94 -2.09,-2.09l0 -182.02c0,-1.15 0.94,-2.09 2.09,-2.09l42.33 0c1.15,0 2.09,0.94 2.09,2.09l0 145.71zm401.69 -32.51l0 68.82c0,1.15 -0.94,2.09 -2.09,2.09l-41.63 0c-1.15,0 -2.09,-0.94 -2.09,-2.09l0 -182.02c0,-1.15 0.94,-2.09 2.09,-2.09l155.56 0c11,0 24.19,1.54 33.11,8.63 0.03,0.02 0.06,0.05 0.09,0.07 8.07,7.17 10.16,18.34 10.16,28.67l0 40.57c0,10.26 -2.15,21.19 -10.16,28.31 -0.01,0.01 -0.02,0.01 -0.03,0.02 -8.74,7.44 -22.11,9.02 -33.16,9.02l-111.85 0zm441.34 -105.46c8.82,8.29 10.21,23.95 10.21,35.29l0 95.94c0,11.41 -1.4,27.09 -10.19,35.4 -8.57,8.57 -25.68,9.72 -37.04,9.72l-134.04 0c-11.74,0 -28.34,-1.28 -37.45,-9.66 -0.03,-0.03 -0.05,-0.05 -0.08,-0.08 -8.34,-8.58 -9.7,-24.06 -9.7,-35.38l0 -95.94c0,-11.26 1.36,-26.76 9.71,-35.26 0.02,-0.02 0.04,-0.04 0.06,-0.06 9.02,-8.54 25.72,-9.8 37.47,-9.8l134.04 0c11.36,0 28.54,1.14 37.03,9.83zm113.66 174.28l0 -182.02c0,-1.15 0.93,-2.09 2.09,-2.09l42.27 0c1.15,0 2.08,0.93 2.09,2.09l0.41 182.02c0,0.58 -0.21,1.07 -0.61,1.48 -0.41,0.41 -0.9,0.61 -1.48,0.61l-42.68 0c-1.15,0 -2.09,-0.94 -2.09,-2.09zm309.54 -76.36c4.05,3.05 8.33,6.38 11.89,9.99 1.76,1.78 3.47,3.61 5.16,5.46 -0.13,-2.11 -0.25,-4.23 -0.38,-6.34 -0.18,-3.04 -0.34,-6.09 -0.59,-9.13 -0.26,-3.34 -0.36,-6.7 -0.36,-10.04l0 -95.59c0,-1.15 0.94,-2.09 2.09,-2.09l38.09 0c1.15,0 2.09,0.94 2.09,2.09l0 182.02c0,1.15 -0.94,2.09 -2.09,2.09l-28.98 0c-0.52,0 -0.95,-0.16 -1.35,-0.49l-133.63 -112.59c-0,-0 -0.01,-0.01 -0.01,-0.01 -2.93,-2.52 -5.84,-5.1 -8.62,-7.78 -0.01,-0.01 -0.02,-0.02 -0.04,-0.03 -0.84,-0.86 -1.71,-1.74 -2.56,-2.62 0.06,0.71 0.13,1.43 0.19,2.14 0.25,2.58 0.54,5.17 0.71,7.76 0.3,4.36 0.35,8.77 0.35,13.14l0 98.42c0,1.15 -0.93,2.09 -2.09,2.09l-38.1 0c-1.15,0 -2.09,-0.94 -2.09,-2.09l0 -182.02c0,-1.15 0.94,-2.09 2.09,-2.09l28.98 0c0.51,0 0.95,0.16 1.34,0.49l127.88 107.25zm273.67 -71.12l0 147.48c0,1.15 -0.93,2.09 -2.09,2.09l-42.33 0c-1.15,0 -2.09,-0.94 -2.09,-2.09l0 -147.48 -81.52 0c-1.15,0 -2.09,-0.93 -2.09,-2.09l0 -32.45c0,-1.15 0.94,-2.09 2.09,-2.09l209.89 0c1.15,0 2.09,0.94 2.09,2.09l0 32.45c0,1.15 -0.93,2.09 -2.09,2.09l-81.87 0zm-2243.43 -1.06l0 46.62 93.16 0c3.77,0 10.69,-0.28 13.84,-2.7 2.61,-2.29 3.12,-6.42 3.12,-9.67l0 -21.87c0,-3.18 -0.46,-7.5 -3.08,-9.65 -3.14,-2.45 -10.1,-2.73 -13.88,-2.73l-93.16 0zm1105.22 0l0 44.15 93.16 0c3.79,0 10.75,-0.28 13.84,-2.7 2.66,-2.17 3.12,-6.5 3.12,-9.67l0 -19.4c0,-3.18 -0.46,-7.5 -3.08,-9.65 -3.14,-2.45 -10.1,-2.73 -13.88,-2.73l-93.16 0zm269.53 112.23l135.52 0 0 -111.17 -135.52 0 0 111.17z"/>
  </g>
 </g>
</svg>
