<?xml version="1.0" encoding="UTF-8"?>
<!DOCTYPE svg PUBLIC "-//W3C//DTD SVG 1.1//EN" "http://www.w3.org/Graphics/SVG/1.1/DTD/svg11.dtd">
<!-- Creator: CorelDRAW 2019 (64-Bit) -->
<svg xmlns="http://www.w3.org/2000/svg" xml:space="preserve" width="2.86457in" height="0.819744in" version="1.1" style="shape-rendering:geometricPrecision; text-rendering:geometricPrecision; image-rendering:optimizeQuality; fill-rule:evenodd; clip-rule:evenodd"
viewBox="0 0 3331.09 953.25"
 xmlns:xlink="http://www.w3.org/1999/xlink"
 xmlns:xodm="http://www.corel.com/coreldraw/odm/2003">
 <defs>
  <style type="text/css">
   <![CDATA[
    .fil3 {fill:#FEFEFE;fill-rule:nonzero}
    .fil1 {fill:#00AFEF;fill-rule:nonzero}
    .fil2 {fill:#0F62AC;fill-rule:nonzero}
    .fil0 {fill:#155A9E;fill-rule:nonzero}
   ]]>
  </style>
 </defs>
 <g id="Layer_x0020_1">
  <metadata id="CorelCorpID_0Corel-Layer"/>
  <g id="_1713023770832">
   <path class="fil0" d="M-0 0l227.1 0c0.19,8.23 0.89,17.83 2.92,24.85 4.5,15.4 14.07,22.39 12.79,35.85 -1.27,13.45 -3.84,19.73 -10.23,22.28 -6.39,0 -28.75,-3.73 -33.86,-1.21 -5.1,2.54 -7.05,11.5 -6.38,14.67 0.61,3.28 -1.94,17.33 0,21.7 1.89,4.49 2.32,8.18 -0.23,14.56 -2.56,6.44 -2.99,12.32 -2.99,17.43 0,5.07 17.28,39.02 20.46,49.9 3.21,10.8 4.45,21.07 6.4,26.76 1.93,5.82 11.5,29.43 11.5,47.3 0,17.89 -18.52,54.34 -21.72,78.59 -3.23,24.34 -7.68,63.24 -7.68,74.13 0,10.91 -0.61,130.98 -0.61,143.1 0,5.64 2.88,21.64 4.12,37.15 1.23,15.48 0.8,30.4 -0.43,33.9 -2.55,7.05 -3.54,13.46 -3.54,19.8 0,6.39 0.47,79.12 4.92,90.06 4.5,10.87 6.91,27.3 6.91,27.3l-1.61 12.02 -1.24 61.13 2.27 9.55 1.38 54.22 1.9 6.34 -2.56 23.72 0 7.01 -209.58 0 0 -952.1z"/>
   <path class="fil1" d="M319.96 0l235.3 0 0 952.1 -182.22 0 -0.54 -19.24 2.57 -9.61 1.27 -29.29 2.55 -5.83 1.95 -39.63 1.89 -7 0 -42.76 -2.55 -7.05 -0.61 -49.9c-5.44,-27.95 1.71,-47.26 -2.56,-72.81 -0.66,-3.85 -3.83,-10.91 -3.83,-10.91l-6.4 -86.24 -4.49 -61.94 -5.74 -14.06 -1.26 -43.47 -7.06 -22.99c0,0 -8.28,-78.66 -10.23,-86.89 -1.89,-8.34 -13.39,-41.57 -16.56,-46.03 -3.21,-4.5 -8.33,-38.31 -9,-42.18 -0.6,-3.84 0,-7.62 0,-7.62 0,0 35.19,-99.71 37.74,-104.82 2.56,-5.16 9.57,-17.27 4.45,-26.23 -5.11,-9 -17.23,-9.61 -23.02,-12.72 -5.73,-3.17 -21.68,-16.01 -26.84,-20.52 -5.11,-4.44 -3.16,-8.94 -3.16,-19.74 0,-10.88 5.11,-7.72 8.94,-16 2.56,-5.64 6.86,-30.73 9.42,-46.62z"/>
   <path class="fil2" d="M683.79 299.78c0.99,-43.14 35.51,-48.98 53.27,-52.58l0 419.84 -53.27 0 0 -367.26z"/>
   <path class="fil2" d="M1763.24 616.62c-78.89,0 -141.43,-70.54 -141.43,-157.83 0,-84 62.54,-154.53 141.43,-154.53 76.18,0 138.71,70.53 138.71,154.53 0,87.3 -62.54,157.83 -138.71,157.83zm0 -369.42c-106.06,0 -190.33,93.97 -190.33,211.59 0,117.5 84.28,214.95 190.33,214.95 103.3,0 190.37,-97.45 190.37,-214.95 0,-117.61 -87.08,-211.59 -190.37,-211.59z"/>
   <path class="fil2" d="M1129.45 394.92l0 272.13 -53.23 0 0 -268.83 0 -3.31c0,-13.44 0,-43.65 -22.44,-67.18 -16.85,-20.13 -72.82,-23.47 -89.62,-23.47l-100.99 0 0 362.79 -50.42 0 0 -419.9 50.42 0 89.83 0 2.78 0 2.79 0c25.23,0 92.42,0 131.67,40.24 36.39,36.99 39.2,80.64 39.2,107.53z"/>
   <polygon class="fil2" points="2087.18,247.16 2140.51,247.16 2258.2,247.16 2258.2,304.27 2140.51,304.27 2140.51,667.04 2087.18,667.04 2087.18,304.27 1969.49,304.27 1969.49,247.16 "/>
   <path class="fil2" d="M2821.36 613.29l0 0 133.41 0 0 53.75 -133.41 0c-104.03,0 -186.73,-94.09 -186.73,-208.23 0,-117.65 82.7,-211.64 186.73,-211.64l125.41 0 0 57.11 -125.41 0c-69.84,0 -133.32,62.25 -133.19,155.71 0.19,93.48 57.19,153.3 133.19,153.3z"/>
   <polygon class="fil2" points="3017.07,247.09 3070.28,247.19 3070.28,416.1 3277.79,416.1 3277.79,247.19 3331.09,247.19 3331.09,667.04 3277.79,667.04 3277.79,471.79 3070.28,471.79 3070.28,667.04 3017.07,667.04 "/>
   <path class="fil2" d="M1514.19 394.92l0 272.13 -53.25 0 0 -268.83 0 -3.31c0,-13.44 0,-43.65 -22.46,-67.18 -16.8,-20.13 -72.76,-23.47 -89.62,-23.47l-100.94 0 0 362.79 -50.46 0 0 -419.9 50.46 0 89.77 0 2.8 0 2.74 0c25.27,0 92.42,0 131.71,40.24 36.46,36.99 39.25,80.64 39.25,107.53z"/>
   <path class="fil2" d="M2455.08 613.29l0 0 133.41 0 0 53.75 -133.41 0c-104.12,0 -186.84,-94.09 -186.84,-208.23 0,-117.65 82.71,-211.64 186.84,-211.64l125.41 0 0 57.11 -125.41 0c-61.08,0 -117.19,47.53 -130.25,121.83l255.66 0 0 57.07 -257.27 0c8.8,80.12 62.3,130.12 131.86,130.12z"/>
   <polygon class="fil2" points="3231.4,950.17 3231.4,771.76 3250.62,771.76 3250.62,929.19 3322.57,929.19 3322.57,950.17 "/>
   <path class="fil2" d="M2994.31 950.17l56.15 -178.42 20.79 0 59.75 178.42 -22.15 0 -16.95 -54.02 -61.02 0 -16.01 54.02 -20.55 0zm42.18 -73.26l49.43 0 -15.19 -49.37c-4.64,-15.2 -8.15,-27.52 -10.38,-36.96 -1.84,11.4 -4.44,22.71 -7.9,34.07l-15.96 52.26z"/>
   <polygon class="fil2" points="2774.54,950.17 2774.54,771.76 2794.37,771.76 2871.16,911.87 2871.16,771.76 2889.59,771.76 2889.59,950.17 2869.84,950.17 2793.15,809.98 2793.15,950.17 "/>
   <path class="fil2" d="M2516.03 863.27c0,-30.39 6.67,-53.73 20.02,-70.17 13.44,-16.32 30.05,-24.51 49.99,-24.51 12.83,0 24.57,3.69 35.23,10.98 10.51,7.29 18.97,17.88 25.19,31.75 6.15,14.03 9.33,30.6 9.33,49.77 0,26.42 -5.97,48 -18,64.63 -13.3,18.36 -30.5,27.51 -51.84,27.51 -21.6,0 -38.93,-9.44 -51.98,-28.22 -11.99,-17.03 -17.94,-37.69 -17.94,-61.75zm19.92 0.34c0,21.96 4.83,39.1 14.48,51.23 9.67,12.12 21.54,18.18 35.33,18.18 14.16,0 26.09,-6.17 35.64,-18.37 9.63,-12.23 14.44,-30.3 14.44,-54.02 0,-15.36 -2.45,-29.08 -7.48,-41.11 -3.78,-9.31 -9.47,-16.66 -17.13,-22.2 -7.63,-5.65 -16.06,-8.38 -25.1,-8.38 -14.57,0 -26.65,6.06 -36.03,18.27 -9.41,12.12 -14.16,30.91 -14.16,56.39z"/>
   <polygon class="fil2" points="2375.23,950.17 2375.23,771.78 2394.54,771.78 2394.54,950.17 "/>
   <polygon class="fil2" points="2201.73,950.17 2201.73,792.84 2153.58,792.84 2153.58,771.76 2269.38,771.76 2269.38,792.84 2220.95,792.84 2220.95,950.17 "/>
   <path class="fil2" d="M1926.01 950.17l56.09 -178.42 20.83 0 59.75 178.42 -22.07 0 -17.04 -54.02 -60.93 0 -16.1 54.02 -20.54 0zm42.17 -73.26l49.44 0 -15.19 -49.37c-4.65,-15.2 -8.11,-27.52 -10.28,-36.96 -1.86,11.4 -4.5,22.71 -7.91,34.07l-16.06 52.26z"/>
   <polygon class="fil2" points="1708.96,950.17 1708.96,771.76 1728.69,771.76 1805.49,911.87 1805.49,771.76 1823.99,771.76 1823.99,950.17 1804.15,950.17 1727.46,809.98 1727.46,950.17 "/>
   <path class="fil2" d="M1482.12 950.17l0 -178.42 51.94 0c13.54,0 23.53,1.68 29.96,5.03 6.4,3.31 11.75,8.85 15.87,16.56 4.12,7.82 6.16,16.81 6.16,27 0,13.46 -3.51,24.42 -10.51,32.77 -6.96,8.33 -16.95,13.76 -30.59,15.89 -5.64,0.87 -12.08,0.63 -17.04,0.63l71.19 80.54 -25.36 0 -72.29 -81.25 0 81.25 -19.32 0zm19.32 -99.64l28.74 0c9.04,0 15.95,-1.12 20.64,-3.31 4.64,-2.22 8.43,-5.63 11.18,-10.37 2.74,-4.68 4.16,-10.12 4.16,-16.37 0,-9.06 -2.69,-16.16 -7.96,-21.27 -5.21,-5.16 -13.05,-7.71 -23.37,-7.71l-33.38 0 0 59.02z"/>
   <polygon class="fil2" points="1267.4,950.17 1267.4,771.76 1372.99,771.76 1372.99,792.84 1286.67,792.84 1286.67,847.47 1367.49,847.47 1367.49,868.39 1286.67,868.39 1286.67,929.19 1376.34,929.19 1376.34,950.17 "/>
   <polygon class="fil2" points="1093.61,950.17 1093.61,792.84 1045.51,792.84 1045.51,771.76 1161.31,771.76 1161.31,792.84 1112.92,792.84 1112.92,950.17 "/>
   <polygon class="fil2" points="822.18,950.17 822.18,771.76 842.01,771.76 918.76,911.87 918.76,771.76 937.27,771.76 937.27,950.17 917.38,950.17 840.74,809.98 840.74,950.17 "/>
   <polygon class="fil2" points="683.55,950.17 683.55,771.78 702.87,771.78 702.87,950.17 "/>
   <path class="fil3" d="M227.09 0l92.9 0c-2.56,15.89 -6.87,40.98 -9.42,46.62 -3.84,8.28 -8.95,5.12 -8.95,16 0,10.8 -1.94,15.3 3.18,19.74 5.1,4.5 21.06,17.35 26.85,20.52 5.72,3.12 17.9,3.73 23,12.72 5.11,8.96 -1.89,21.07 -4.49,26.23 -2.51,5.11 -37.68,104.82 -37.68,104.82 0,0 -0.67,3.78 0,7.62 0.61,3.88 5.77,37.68 8.95,42.18 3.17,4.46 14.67,37.69 16.62,46.03 1.93,8.23 10.23,86.89 10.23,86.89l7 22.99 1.28 43.47 5.78 14.06 4.44 61.94 6.39 86.24c0,0 3.22,7.06 3.84,10.91 4.27,25.55 -2.88,44.86 2.56,72.81l0.66 49.9 2.56 7.05 0 42.76 -1.95 7 -1.89 39.63 -2.56 5.83 -1.27 29.29 -2.6 9.61 0.56 19.24 -163.47 0 0 -7.01 2.54 -23.72 -1.89 -6.34 -1.37 -54.22 -2.27 -9.55 1.23 -61.13 1.61 -12.02c0,0 -2.41,-16.43 -6.91,-27.3 -4.44,-10.95 -4.92,-83.68 -4.92,-90.06 0,-6.34 1,-12.74 3.55,-19.8 1.24,-3.5 1.66,-18.42 0.43,-33.9 -1.24,-15.52 -4.12,-31.51 -4.12,-37.15 0,-12.11 0.61,-132.19 0.61,-143.1 0,-10.88 4.44,-49.79 7.66,-74.13 3.22,-24.26 21.73,-60.71 21.73,-78.59 0,-17.87 -9.56,-41.48 -11.5,-47.3 -1.93,-5.69 -3.17,-15.95 -6.38,-26.76 -3.18,-10.88 -20.46,-44.82 -20.46,-49.9 0,-5.11 0.43,-10.99 2.98,-17.43 2.56,-6.38 2.13,-10.07 0.24,-14.56 -1.95,-4.36 0.61,-18.42 0,-21.7 -0.67,-3.16 1.28,-12.13 6.38,-14.67 5.11,-2.51 27.46,1.21 33.85,1.21 6.4,-2.55 8.95,-8.83 10.23,-22.28 1.29,-13.46 -8.28,-20.46 -12.78,-35.85 -2.04,-7.01 -2.75,-16.62 -2.93,-24.85z"/>
   <polygon class="fil2" points="674.96,15.97 689.46,15.97 689.46,151.24 761.75,151.24 761.75,166.02 674.96,166.02 "/>
   <path class="fil2" d="M964.75 25.9l-25.84 79.07 51.23 0 -25.38 -79.07zm-11.69 -9.95l23.39 0 48.1 150.05 -14.63 0 -15.15 -46.54 -60.51 0 -15.1 46.54 -14.77 0 48.68 -150.05z"/>
   <path class="fil2" d="M1196.03 95.48l0 57.29 39.43 0c12.42,0 22.68,-3.27 30.73,-9.95 5.73,-4.55 8.52,-10.8 8.52,-18.71 0,-5.43 -1.67,-10.35 -4.98,-14.85 -3.31,-4.36 -8.42,-7.83 -15.19,-10.19 -6.86,-2.45 -14.63,-3.59 -23.39,-3.59l-35.13 0zm0 -66.24l0 53.31 27.27 0c17.95,0 30.34,-2.6 37.26,-7.9 6.87,-5.16 10.32,-11.61 10.32,-19.22 0,-7.11 -3.07,-13.35 -9.13,-18.47 -6.21,-5.16 -15.43,-7.72 -27.74,-7.72l-37.97 0zm-14.4 -13.24l51.57 0c17.65,0 31.11,3.77 40.15,11.4 9.12,7.71 13.68,16.51 13.68,26.46 0,6.92 -2.23,13.4 -6.76,19.56 -4.4,6.15 -11.34,11.18 -20.55,15.08 10.55,4 18.41,9.43 23.52,16.11 5.21,6.67 7.76,13.68 7.76,20.99 0,10.27 -4.81,19.58 -14.48,27.91 -9.61,8.38 -23.15,12.51 -40.58,12.51l-54.31 0 0 -150.03z"/>
   <path class="fil2" d="M1507.2 155.46c12.98,0 24.01,-5.43 33.24,-16.23 9.23,-10.8 13.83,-26.55 13.83,-47.24 0,-21.87 -5.11,-39.11 -15.15,-51.52 -7.96,-9.56 -18.28,-14.39 -31.01,-14.39 -12.41,0 -23.11,5.45 -32.2,16.34 -8.98,10.96 -13.54,27.21 -13.54,48.95 0,21.39 4.45,37.41 13.45,48 8.86,10.75 19.36,16.1 31.39,16.1zm1.52 13.55c-17.38,0 -31.67,-6.33 -42.95,-19.07 -13.26,-14.83 -19.83,-34.09 -19.83,-57.73 0,-14.8 2.65,-28.74 8,-41.46 5.31,-12.75 12.83,-22.12 22.64,-28.37 9.75,-6.26 20.59,-9.28 32.23,-9.28 10.18,0 19.18,2.28 27.03,6.72 7.87,4.59 14.26,10.46 19.37,17.66 5.01,7.19 8.8,15.4 11.4,24.63 2.56,9.12 3.89,18.88 3.89,29.25 0,11.4 -1.42,21.26 -4.17,29.79 -2.79,8.41 -6.11,15.52 -10.08,21.24 -3.88,5.69 -7.91,10.27 -11.94,13.5 -5.26,4.41 -11.26,7.76 -17.85,9.85 -6.63,2.17 -12.55,3.26 -17.75,3.26z"/>
   <path class="fil2" d="M1749.17 28.87l0 56.15 32.07 0c7.72,0 15.47,-1.3 23.1,-3.87 5.54,-1.84 9.85,-4.94 12.83,-9.33 2.99,-4.41 4.5,-9.46 4.5,-15.29 0,-8.04 -2.93,-14.62 -8.72,-19.83 -5.86,-5.16 -14.67,-7.84 -26.47,-7.84l-37.31 0zm-14.48 -12.92l45.93 0c13.11,0 23.61,1.52 31.61,4.71 8.02,3.06 14.35,7.9 18.9,14.47 4.56,6.58 6.88,13.78 6.88,21.69 0,8.61 -2.76,16.33 -8.2,22.99 -5.44,6.68 -13.68,11.81 -24.76,15.11l36.45 71.07 -15.63 0 -35.4 -68.09 -41.3 0 0 68.09 -14.48 0 0 -150.05z"/>
   <path class="fil2" d="M2045.98 25.9l-25.84 79.07 51.23 0 -25.38 -79.07zm-11.68 -9.95l23.48 0 48.01 150.05 -14.63 0 -15.15 -46.54 -60.41 0 -15.2 46.54 -14.76 0 48.67 -150.05z"/>
   <polygon class="fil2" points="2230.81,15.97 2340.8,15.97 2340.8,30.28 2293.26,30.28 2293.26,166.02 2278.67,166.02 2278.67,30.28 2230.81,30.28 "/>
   <path class="fil2" d="M2541.33 155.46c13.01,0 24.04,-5.43 33.19,-16.23 9.23,-10.8 13.92,-26.55 13.92,-47.24 0,-21.87 -5.11,-39.11 -15.19,-51.52 -7.92,-9.56 -18.24,-14.39 -30.98,-14.39 -12.44,0 -23.15,5.45 -32.19,16.34 -8.99,10.96 -13.52,27.21 -13.52,48.95 0,21.39 4.44,37.41 13.33,48 8.95,10.75 19.43,16.1 31.45,16.1zm1.51 13.55c-17.32,0 -31.63,-6.33 -42.88,-19.07 -13.26,-14.83 -19.86,-34.09 -19.86,-57.73 0,-14.8 2.66,-28.74 8.02,-41.46 5.25,-12.75 12.83,-22.12 22.63,-28.37 9.76,-6.26 20.49,-9.28 32.23,-9.28 10.13,0 19.17,2.28 26.99,6.72 7.81,4.59 14.29,10.46 19.4,17.66 5.03,7.19 8.76,15.4 11.43,24.63 2.54,9.12 3.78,18.88 3.78,29.25 0,11.4 -1.33,21.26 -4.12,29.79 -2.74,8.41 -6.06,15.52 -10.04,21.24 -3.93,5.69 -7.9,10.27 -11.93,13.5 -5.24,4.41 -11.27,7.76 -17.85,9.85 -6.67,2.17 -12.55,3.26 -17.8,3.26z"/>
   <polygon class="fil2" points="2787.18,15.95 2787.18,166 2772.7,166 2772.7,15.95 "/>
   <path class="fil2" d="M2979.81 28.87l0 56.15 32.07 0c7.72,0 15.47,-1.3 23.1,-3.87 5.54,-1.84 9.85,-4.94 12.83,-9.33 2.99,-4.41 4.49,-9.46 4.49,-15.29 0,-8.04 -2.93,-14.62 -8.71,-19.83 -5.86,-5.16 -14.67,-7.84 -26.41,-7.84l-37.37 0zm-14.48 -12.92l45.93 0c13.11,0 23.61,1.52 31.71,4.71 7.92,3.06 14.25,7.9 18.8,14.47 4.59,6.58 6.86,13.78 6.86,21.69 0,8.61 -2.74,16.33 -8.1,22.99 -5.54,6.68 -13.77,11.81 -24.85,15.11l36.45 71.07 -15.63 0 -35.4 -68.09 -41.3 0 0 68.09 -14.48 0 0 -150.05z"/>
   <polygon class="fil2" points="3233.85,15.97 3322.2,15.97 3322.2,30.23 3248.35,30.23 3248.35,79.25 3303.36,79.25 3303.36,93.62 3248.35,93.62 3248.35,151.51 3329.36,151.51 3329.36,166.02 3233.85,166.02 "/>
  </g>
 </g>
</svg>
