<?xml version="1.0" encoding="UTF-8"?>
<!DOCTYPE svg PUBLIC "-//W3C//DTD SVG 1.1//EN" "http://www.w3.org/Graphics/SVG/1.1/DTD/svg11.dtd">
<!-- Creator: CorelDRAW 2019 (64-Bit) -->
<svg xmlns="http://www.w3.org/2000/svg" xml:space="preserve" width="2.6659in" height="1.03001in" version="1.1" style="shape-rendering:geometricPrecision; text-rendering:geometricPrecision; image-rendering:optimizeQuality; fill-rule:evenodd; clip-rule:evenodd"
viewBox="0 0 2801.11 1082.25"
 xmlns:xlink="http://www.w3.org/1999/xlink"
 xmlns:xodm="http://www.corel.com/coreldraw/odm/2003">
 <defs>
  <style type="text/css">
   <![CDATA[
    .fil0 {fill:#61357E}
    .fil1 {fill:#61357E;fill-rule:nonzero}
   ]]>
  </style>
 </defs>
 <g id="Layer_x0020_1">
  <metadata id="CorelCorpID_0Corel-Layer"/>
  <g id="_1713024884320">
   <g>
    <path class="fil0" d="M2460.13 694.89l-2.96 -2.76c-39.23,-36.63 -72.69,-67.88 -103.57,-113.84 -22.51,-33.5 -33.54,-71.92 -33.54,-105.82 0,-17.51 2.95,-33.92 8.78,-47.93 5.97,-14.34 14.97,-26.2 26.95,-34.25 10.77,-7.24 23.81,-11.33 39.08,-11.33 32.36,0 49.06,3.39 59.26,5.45 3.93,0.79 6.77,1.37 8.95,1.37 3.34,0 6.54,-0.74 10.72,-1.7 9.1,-2.09 22.32,-5.13 50.67,-5.13 7.64,0 14.76,0.82 21.35,2.37 21.18,4.98 36.68,17.39 46.88,34.12 9.97,16.38 14.77,36.84 14.77,58.43 0,11.95 -1.47,24.29 -4.34,36.49 -3.39,14.4 -8.31,27.71 -14.19,40.14 -5.84,12.35 -12.62,23.81 -19.77,34.58 -14.64,22.07 -30.19,40.79 -46.91,58.43 -16.64,17.54 -34.38,33.91 -53.55,51.42l-4.3 3.92 -4.26 -3.97z"/>
    <path class="fil0" d="M2457.17 769.07l7.22 -6.74 4.3 3.93c19.17,17.51 36.9,33.89 53.55,51.42 16.72,17.63 32.27,36.36 46.91,58.43 7.15,10.77 13.93,22.23 19.77,34.57 5.88,12.43 10.8,25.75 14.19,40.14 2.87,12.21 4.34,24.55 4.34,36.49 0,21.59 -4.8,42.06 -14.77,58.44 -10.2,16.74 -25.7,29.14 -46.88,34.12 -6.59,1.55 -13.71,2.37 -21.35,2.37 -28.35,0 -41.57,-3.04 -50.67,-5.13 -4.18,-0.96 -7.38,-1.7 -10.72,-1.7 -2.18,0 -5.03,0.58 -8.95,1.37 -10.2,2.06 -26.9,5.45 -59.26,5.45 -15.26,0 -28.31,-4.1 -39.08,-11.33 -11.98,-8.05 -20.99,-19.91 -26.95,-34.25 -5.84,-14.01 -8.78,-30.42 -8.78,-47.93 0,-33.9 11.03,-72.32 33.54,-105.82 30.88,-45.96 64.35,-77.21 103.58,-113.85z"/>
    <path class="fil0" d="M2485.17 726.36l2.8 -3c36.61,-39.21 67.86,-72.67 113.8,-103.53 33.5,-22.51 71.92,-33.55 105.82,-33.55 17.52,0 33.92,2.95 47.94,8.78 14.34,5.97 26.2,14.97 34.25,26.96 7.24,10.77 11.33,23.81 11.33,39.08 0,32.36 -3.39,49.06 -5.45,59.25 -0.8,3.93 -1.37,6.77 -1.37,8.96 0,3.34 0.74,6.54 1.7,10.72 2.09,9.09 5.13,22.33 5.13,50.67 0,7.63 -0.82,14.76 -2.37,21.34 -4.99,21.18 -17.39,36.69 -34.12,46.88 -16.34,9.96 -36.82,14.75 -58.44,14.75 -11.95,0.02 -24.29,-1.44 -36.49,-4.31 -14.4,-3.38 -27.71,-8.31 -40.14,-14.18 -12.36,-5.84 -23.81,-12.62 -34.58,-19.77 -22.06,-14.64 -40.8,-30.19 -58.42,-46.92 -17.54,-16.64 -33.92,-34.38 -51.42,-53.55l-3.93 -4.3 3.98 -4.26z"/>
    <path class="fil0" d="M481.48 759.23l0.12 0.32c0.47,1.26 2.56,6.47 7.82,14.05 23.91,33.21 115.07,110.83 436.81,81.4 133.56,-12.21 243.73,-30.88 362.87,-51.06 245.5,-41.58 529.07,-89.61 1136.12,-101.34l6.44 -0.12 0 50.48 -6.34 0c-598.96,0 -879.08,45.69 -1119.94,84.96 -121.61,19.84 -233.26,38.05 -370.62,47.95 -337.42,24.33 -433.64,-71.76 -457.83,-108.55 -5.68,-8.4 -7.35,-13.83 -7.38,-13.91l11.93 -4.18z"/>
   </g>
   <path class="fil1" d="M288.7 329.41l-35.67 8.74 -35.77 8.58 -36.58 8.58 -37.82 8.68c-12.66,2.95 -25.08,5.56 -37.22,7.79 -12.01,2.22 -23.75,4.07 -35.15,5.56 -11.41,1.48 -22.47,2.6 -33.11,3.34 -10.78,0.74 -21.13,1.12 -30.98,1.12l-6.42 0 2.47 -5.92c2.15,-5.14 5.13,-9.71 8.89,-13.68 3.73,-3.93 8.3,-7.33 13.65,-10.12 5.22,-2.73 11.19,-4.9 17.86,-6.49 6.6,-1.57 14,-2.61 22.16,-3.09 7.67,-0.37 14.65,-0.84 20.96,-1.38 6.25,-0.53 11.73,-1.16 16.39,-1.85 4.49,-0.66 8.2,-1.41 11.09,-2.18 2.74,-0.74 4.74,-1.51 5.98,-2.29 0.43,-0.3 1.3,-1.7 2.56,-4.16 1.42,-2.76 3.21,-6.71 5.32,-11.81 2.21,-5.31 4.74,-11.81 7.6,-19.48 2.85,-7.65 6.02,-16.48 9.46,-26.38l9.95 -29.74 9.28 -28.58 8.66 -27.72 8.03 -26.84 7.84 -27.44c2.2,-7.94 4.1,-15.06 5.66,-21.31 1.5,-6.01 2.63,-10.92 3.37,-14.67 0.71,-3.66 1.08,-6.28 1.08,-7.8l-0.09 -4.54 -0.3 -3.71 -0.46 -2.68 -0.55 -1.77c-0.27,-0.57 -0.71,-1.1 -1.29,-1.55 -0.7,-0.53 -1.64,-1 -2.77,-1.4 -1.36,-0.48 -3.01,-0.86 -4.91,-1.09 -1.92,-0.25 -4.17,-0.38 -6.76,-0.38 -2.59,0 -5.89,0.22 -9.86,0.65l-6.92 0.86 -16.07 2.39 -7.37 0.89 -6.53 0.55 -5.58 0.2 -25.42 0.42 -4.5 4.07 -0.72 0.43 -1.26 0.5 -0.87 0.19c-4.19,0 -8.23,-0.48 -12.07,-1.42 -3.84,-0.93 -7.51,-2.37 -10.94,-4.26l-5.43 -2.99 4.73 -4.01c3.38,-2.87 7.59,-5.51 12.58,-7.86 4.94,-2.32 10.71,-4.44 17.26,-6.31 6.46,-1.82 13.72,-3.46 21.75,-4.85 7.93,-1.38 16.76,-2.57 26.42,-3.53 5.15,-0.45 10.74,-0.88 16.71,-1.21l19.08 -0.84 22.1 -0.52 24.77 -0.19c2.39,0 4.83,0.1 7.28,0.29 2.4,0.18 4.74,0.47 7.02,0.84 2.22,0.37 4.43,0.84 6.63,1.41 2.17,0.57 4.25,1.23 6.19,1.96 2.07,0.78 4.07,1.71 5.97,2.77 1.88,1.05 3.7,2.28 5.42,3.63 1.7,1.36 3.32,2.86 4.8,4.46 1.48,1.6 2.87,3.35 4.14,5.21l4.56 6.69c-8.54,0 -16.86,0.03 -25.41,0.43 -4.06,0.48 -7.93,0.98 -11.9,1.96 -0.61,0.48 -1.56,1.77 -2.82,3.83 -1.58,2.58 -3.5,6.21 -5.73,10.85 -2.37,4.95 -5.09,11.07 -8.12,18.31 -3.11,7.4 -6.43,15.72 -10,24.92l-8.88 24.07 -9.54 26.71 -10.27 29.59 -10.89 32.08c-9.05,27.16 -17.97,54.28 -26.5,81.6l2.36 0.14c2.64,-0.01 5.53,-0.19 8.63,-0.51 3.16,-0.32 6.72,-0.86 10.61,-1.55 3.91,-0.69 8.11,-1.56 12.57,-2.59 4.62,-1.06 9.39,-2.28 14.25,-3.6l14.68 -3.56c4.59,-1.02 8.79,-1.88 12.57,-2.54 3.86,-0.68 7.47,-1.2 10.77,-1.56 3.35,-0.35 6.33,-0.54 8.88,-0.54 3.52,0 7.05,0.25 10.55,0.74 3.45,0.48 6.87,1.2 10.2,2.16 3.34,0.96 6.6,2.18 9.71,3.59 3.14,1.42 6.22,3.11 9.21,5.02l8.41 5.35 -9.67 2.39zm290.59 -276.92c0,18.13 -4.48,36.97 -13.43,56.48 -8.88,19.39 -22.21,39.48 -39.94,60.22 -8.09,9.42 -16.32,18.18 -24.67,26.27 -8.33,8.08 -16.84,15.51 -25.47,22.27 -8.64,6.77 -17.42,12.87 -26.26,18.25 -8.88,5.41 -17.9,10.15 -26.98,14.16 -3.13,1.43 -6.15,3.57 -9.01,6.39 -2.96,2.9 -5.79,6.54 -8.46,10.87 -2.76,4.5 -5.38,9.77 -7.81,15.75 -2.46,6.01 -4.77,12.81 -6.9,20.37 -2.26,7.95 -4.84,14.99 -7.71,21.12 -2.89,6.18 -6.1,11.46 -9.61,15.79 -3.63,4.5 -7.63,8.04 -11.97,10.58 -4.37,2.56 -9.08,4.12 -14.08,4.64l-3.69 0.42 -1.8 -7.87 -0.61 -4.53 -0.37 -4.9 -0.14 -5.1c0,-3.27 0.18,-6.66 0.53,-10.14 0.34,-3.45 0.86,-6.91 1.54,-10.32 0.67,-3.4 1.53,-6.9 2.57,-10.49 1.05,-3.58 2.24,-7.17 3.58,-10.7 0.83,-2.32 3.88,-8.74 9.14,-19.26 5.15,-10.33 12.62,-24.95 22.38,-43.84 0.54,-1 1.34,-3.19 2.41,-6.48 1.1,-3.45 2.47,-8.05 4.06,-13.74l5.67 -21.03 7.13 -27.91c1.05,-4.22 2.2,-8.28 3.47,-12.13 1.25,-3.86 2.65,-7.53 4.12,-10.96 1.5,-3.48 3.12,-6.77 4.84,-9.84 1.72,-3.08 3.6,-5.98 5.56,-8.67l3.23 -4.42 7.6 9.13c2.87,3.26 6.18,6.85 8.56,10.51l15.82 -23.66c5.8,-8.5 11.52,-16.7 17.16,-24.59 5.99,-8.37 11.79,-16.25 17.34,-23.6 5.66,-7.49 11.29,-14.7 16.82,-21.56 5.2,-6.46 9.95,-12.12 14.25,-16.96 4.37,-4.91 8.27,-9 11.67,-12.23 3.66,-3.47 6.95,-6.12 9.81,-7.9 3.11,-1.94 5.85,-2.91 8.16,-2.91 6.59,0 12.16,1.68 16.7,4.98 4.49,3.28 7.93,8.17 10.26,14.61 0.75,1.98 1.43,4.21 2,6.62 0.54,2.32 1.01,4.91 1.39,7.73 0.36,2.73 0.64,5.66 0.82,8.77 0.18,3.21 0.29,6.5 0.29,9.78zm-33.79 9.27c0,-2.83 -0.13,-5.49 -0.38,-7.94 -0.25,-2.49 -0.65,-4.97 -1.17,-7.39 -0.41,-1.89 -0.91,-3.73 -1.47,-5.48l-0.57 -1.7c-4.21,4.83 -8.53,9.97 -12.97,15.39 -5.26,6.44 -10.6,13.2 -15.96,20.24 -5.7,7.47 -11.57,15.41 -17.56,23.78 -6.17,8.62 -12.27,17.37 -18.25,26.21 -7.92,11.75 -14.77,22.48 -20.52,32.14 -5.83,9.8 -10.71,18.78 -14.61,26.87 -3.41,7.08 -6.08,13.5 -7.95,19.21 -1.28,3.87 -2.2,7.41 -2.77,10.6 5.18,-2.49 10.31,-5.32 15.38,-8.45 6.35,-3.93 12.67,-8.41 18.92,-13.4 6.69,-5.36 13.32,-11.31 19.84,-17.84 6.54,-6.56 13.01,-13.72 19.38,-21.44 6.82,-8.28 12.81,-16.43 17.92,-24.38 5.1,-7.93 9.35,-15.71 12.73,-23.31 3.33,-7.5 5.86,-14.86 7.52,-22.07 1.66,-7.16 2.49,-14.18 2.49,-21.06zm594.37 200.98c0,7.85 -1.48,15.38 -4.44,22.52 -2.92,7.09 -7.34,13.82 -13.2,20.15 -5.7,6.18 -12.85,12.01 -21.37,17.46 -8.48,5.42 -18.36,10.48 -29.58,15.15 -8.89,3.71 -17.83,6.98 -26.74,9.77 -8.94,2.8 -17.87,5.14 -26.78,7 -8.9,1.86 -17.83,3.25 -26.79,4.19 -9,0.93 -17.92,1.41 -26.76,1.41 -10.47,0 -20.47,-0.77 -29.96,-2.29 -9.49,-1.52 -18.44,-3.81 -26.81,-6.85 -16.84,-6.13 -31.48,-15.33 -43.87,-27.6 -6.3,-6.05 -11.83,-12.65 -16.54,-19.79 -4.73,-7.18 -8.7,-14.93 -11.85,-23.19 -3.13,-8.21 -5.49,-17 -7.07,-26.35 -1.58,-9.33 -2.36,-19.18 -2.36,-29.5 0,-18.71 2.82,-38.45 8.45,-59.17 2.81,-10.3 6.32,-20.86 10.5,-31.62 4.21,-10.8 9.11,-21.83 14.67,-33.05 13.24,-26.63 27.49,-46.65 42.72,-60.04 15.44,-13.58 31.94,-20.38 49.41,-20.38 2.26,0 4.48,0.21 6.63,0.61 2.11,0.4 4.17,1.02 6.13,1.84 1.93,0.81 3.8,1.85 5.55,3.07 1.73,1.22 3.38,2.64 4.89,4.24 1.48,1.56 2.83,3.3 3.98,5.13 1.15,1.82 2.12,3.76 2.87,5.76 0.74,1.99 1.33,4.1 1.71,6.29 0.38,2.2 0.57,4.47 0.57,6.78 0,4.68 -0.75,9.16 -2.24,13.38 -1.48,4.2 -3.7,8.15 -6.66,11.8 -1.46,1.82 -3.06,3.48 -4.74,4.95 -1.69,1.47 -3.51,2.8 -5.38,3.93 -1.88,1.13 -3.87,2.1 -5.96,2.88 -2.08,0.78 -4.26,1.4 -6.54,1.83l-7.4 1.41c2.78,-7.59 5.43,-14.84 7.64,-22.63l0.71 -3.17 0.52 -3.28 0.4 -5.88 -0.47 -1.72c-6.64,2.15 -13.01,4.86 -19.05,8.09 -6.77,3.62 -13.23,7.92 -19.34,12.91 -6.37,5.21 -12.39,11.18 -18.03,17.86 -5.68,6.74 -11,14.23 -15.92,22.43 -4.47,7.5 -8.42,15.17 -11.79,22.99 -3.37,7.84 -6.21,15.82 -8.44,23.89 -2.24,8.08 -3.92,16.34 -5.04,24.72 -1.11,8.33 -1.67,16.89 -1.67,25.64 0,8.67 0.59,16.92 1.78,24.71 1.19,7.81 2.98,15.21 5.34,22.17 2.36,6.95 5.32,13.5 8.84,19.62 3.53,6.12 7.67,11.87 12.38,17.19 4.62,5.29 9.72,9.91 15.28,13.86 5.56,3.95 11.62,7.26 18.15,9.89 13.15,5.3 28.37,7.97 45.61,7.97 16.91,0 33.15,-1.3 48.67,-3.9 15.55,-2.6 30.45,-6.52 44.68,-11.72 9.71,-3.56 18.18,-7.5 25.38,-11.78 7.15,-4.25 13.12,-8.9 17.86,-13.9 4.61,-4.86 8.07,-10.08 10.35,-15.62 2.28,-5.52 3.42,-11.45 3.42,-17.77 0,-4 -0.57,-7.77 -1.68,-11.26 -1.13,-3.5 -2.84,-6.8 -5.09,-9.86 -2.29,-3.11 -5.21,-6.02 -8.7,-8.71 -3.51,-2.71 -7.67,-5.22 -12.46,-7.5 -3.9,-1.86 -7.93,-3.49 -12.05,-4.88 -4.11,-1.38 -8.41,-2.56 -12.83,-3.5 -4.45,-0.93 -9,-1.65 -13.63,-2.11 -4.58,-0.46 -9.4,-0.69 -14.4,-0.69 -3.67,0 -7.18,0.37 -10.52,1.1 -3.34,0.72 -6.57,1.82 -9.65,3.27 -3.11,1.47 -6.1,3.31 -8.93,5.51 -2.85,2.2 -5.61,4.8 -8.22,7.76 -7.84,9.93 -15.67,19.72 -23.69,29.48l-3.01 -13.75 -0.76 -5.08 -0.46 -4.95 -0.17 -4.78c0,-4.08 0.42,-7.95 1.23,-11.57 0.82,-3.62 2.07,-7.01 3.72,-10.1 1.68,-3.12 3.76,-5.97 6.24,-8.48 2.47,-2.52 5.38,-4.74 8.63,-6.64 2.61,-1.52 5.49,-2.86 8.55,-3.99 3.02,-1.12 6.3,-2.06 9.79,-2.8 3.4,-0.72 7.08,-1.27 10.99,-1.64 3.95,-0.37 8.03,-0.56 12.2,-0.56 3.45,0 7.41,0.13 11.84,0.37 4.22,0.24 8.81,0.6 13.72,1.07l8.06 1.17 8.82 1.56 9.79 1.97 13.63 3.07 0.4 3.19c2.36,0.31 4.69,0.91 6.98,1.8 2.91,1.12 5.77,2.73 8.51,4.74 2.92,2.16 5.78,4.85 8.55,8.04 2.76,3.16 5.46,6.84 8.07,11.01 2.35,3.82 4.41,7.59 6.17,11.26 1.76,3.69 3.25,7.36 4.43,10.95 1.2,3.67 2.1,7.28 2.7,10.81 0.6,3.57 0.91,7.07 0.91,10.45zm308.31 65.8c-2.38,2.12 -5.12,4.17 -8.13,6.1 -2.97,1.9 -6.26,3.71 -9.82,5.38 -3.5,1.65 -7.33,3.21 -11.4,4.65 -4.02,1.41 -8.38,2.74 -13.05,3.97 -4.58,1.18 -9.1,2.21 -13.52,3.09 -4.4,0.88 -8.72,1.62 -12.91,2.2 -4.22,0.57 -8.36,1.03 -12.37,1.34 -4.13,0.3 -8.07,0.46 -11.8,0.46 -6.33,0 -11.8,-0.51 -16.34,-1.52 -2.34,-0.52 -4.48,-1.2 -6.37,-2.01 -1.92,-0.82 -3.61,-1.82 -5.02,-2.95 -1.49,-1.1 -2.84,-2.36 -4,-3.7 -1.15,-1.37 -2.14,-2.89 -2.94,-4.5 -1.56,-3.17 -2.34,-6.72 -2.34,-10.62 0,-1.97 0.38,-4.53 1.11,-7.62 0.72,-2.97 1.8,-6.54 3.22,-10.67 1.34,-3.92 3.07,-8.51 5.15,-13.68 2.06,-5.15 4.46,-10.81 7.17,-16.95 1.21,-2.69 2.28,-5.29 3.19,-7.76 0.92,-2.49 1.68,-4.84 2.25,-6.98 0.57,-2.15 1.02,-4.22 1.3,-6.15 0.29,-1.88 0.43,-3.7 0.43,-5.41 0,-3.64 -0.49,-7.33 -1.46,-11.02 -0.98,-3.74 -2.49,-7.58 -4.47,-11.45 -4.07,-7.93 -10.25,-16.12 -18.53,-24.53 -4.17,-4.26 -8.33,-8.1 -12.43,-11.51 -4.1,-3.4 -8.22,-6.43 -12.28,-9.03 -3.58,-2.29 -7.21,-4.31 -10.82,-5.97 -2.59,-1.2 -5.19,-2.23 -7.76,-3.09 -0.33,6.42 -1.22,13.18 -2.65,20.23 -1.67,8.2 -4.1,16.89 -7.26,26.01 -3.31,9.58 -7.46,19.66 -12.42,30.22 -4.96,10.57 -10.74,21.64 -17.31,33.16 -7.24,12.75 -14.46,23.96 -21.61,33.56 -7.17,9.63 -14.31,17.7 -21.4,24.18 -7.26,6.64 -14.49,11.64 -21.66,14.97 -7.28,3.38 -14.54,5.08 -21.73,5.08l-6 0 1.96 -5.67c1.46,-4.22 3.34,-8.58 5.61,-13.02 2.29,-4.47 4.96,-9.01 7.98,-13.56 2.97,-4.49 6.41,-9.19 10.27,-14.01 3.74,-4.7 7.97,-9.58 12.6,-14.59l16.13 -18.04 12.52 -14.35 8.78 -10.52c2.25,-2.8 3.93,-5.03 4.98,-6.61 3.45,-5.09 6.44,-10.23 8.98,-15.39 2.53,-5.16 4.67,-10.43 6.36,-15.77 1.68,-5.3 2.95,-10.71 3.79,-16.17 0.84,-5.44 1.26,-11 1.26,-16.64l-0.16 -3.97 -0.51 -4.75 -0.87 -5.72 -2.46 -13.65 -0.87 -6.06 -0.55 -5.3 -0.2 -4.47c0,-2.92 0.34,-5.54 1,-7.83 0.7,-2.4 1.75,-4.45 3.16,-6.11 1.48,-1.78 3.32,-3.12 5.49,-4 2.12,-0.86 4.53,-1.29 7.18,-1.29 5.63,0 11.57,1.03 17.75,3.1 6.11,2.03 12.45,5.08 19.02,9.12 6.42,3.95 13.13,8.9 20.09,14.83 6.95,5.91 14.14,12.79 21.54,20.62 7.37,7.74 13.88,15.26 19.51,22.52 5.61,7.24 10.31,14.18 14.04,20.78 3.81,6.73 6.7,13.21 8.62,19.39 1.95,6.25 2.92,12.2 2.92,17.81 0,8.88 -2.76,20.17 -8.26,33.78l-0.12 0.24c-3.45,6.33 -6.99,15.06 -10.29,23.19l-3.34 8.12 8.45 1.11c19.91,1.17 40.37,-2.57 60.2,-4l5.73 0.14 5.63 0.38 5.25 0.63c4.41,0.83 8.65,1.76 13.02,2.74l-6.24 5.53zm211.23 -78.96c0,6.64 -0.95,13.12 -2.84,19.42 -1.88,6.26 -4.72,12.36 -8.47,18.22 -3.71,5.8 -8.35,11.41 -13.87,16.8 -5.49,5.35 -11.91,10.54 -19.2,15.5 -6.56,4.45 -13.18,8.37 -19.81,11.7 -6.62,3.34 -13.32,6.14 -20.05,8.37 -6.76,2.24 -13.56,3.94 -20.39,5.06 -6.88,1.14 -13.78,1.71 -20.65,1.71 -9.99,0 -18.44,-2.57 -25.36,-7.67 -6.89,-5.08 -12.19,-12.66 -15.93,-22.69 -1.16,-3.12 -2.2,-6.64 -3.07,-10.53 -0.87,-3.84 -1.6,-8.08 -2.15,-12.64 -0.54,-4.48 -0.98,-9.38 -1.25,-14.71 -0.29,-5.42 -0.43,-11.06 -0.43,-16.87l0 -14.95c0,-23.38 12.43,-41.95 37.26,-55.51 4.96,-2.74 10.13,-5.16 15.47,-7.24 5.35,-2.07 10.84,-3.81 16.43,-5.16 5.61,-1.37 11.41,-2.4 17.35,-3.08 6,-0.69 12.11,-1.04 18.3,-1.04 9.83,0 18.94,2.01 27.29,6.02 8.32,3.99 15.86,9.98 22.62,17.92 3.08,3.65 5.83,7.52 8.19,11.53 2.36,4.02 4.33,8.17 5.88,12.42 1.56,4.27 2.74,8.72 3.53,13.3 0.79,4.58 1.18,9.29 1.18,14.09zm-26.32 -4.2c0,-2.95 -0.33,-5.81 -0.96,-8.53 -0.65,-2.74 -1.61,-5.39 -2.88,-7.9 -1.29,-2.56 -2.94,-5.06 -4.92,-7.45 -1.97,-2.39 -4.31,-4.73 -6.98,-6.96 -5.37,-4.49 -11.04,-7.89 -16.96,-10.12 -5.89,-2.23 -12.11,-3.35 -18.6,-3.35 -3.93,0 -7.76,0.38 -11.43,1.15 -3.72,0.78 -7.34,1.95 -10.81,3.49 -3.51,1.57 -6.97,3.54 -10.3,5.88 -3.32,2.34 -6.59,5.13 -9.77,8.31 -3.16,3.13 -5.93,6.38 -8.29,9.72 -2.36,3.35 -4.33,6.79 -5.89,10.3 -1.54,3.47 -2.71,7.1 -3.49,10.83 -0.77,3.68 -1.16,7.51 -1.16,11.44l0 14.95 0.21 9.07c0.13,2.72 0.37,5.29 0.65,7.64 0.26,2.16 0.62,4.19 1.05,6.01 0.39,1.74 0.87,3.26 1.37,4.53 0.86,1.96 1.9,3.68 3.07,5.12 1.14,1.41 2.46,2.59 3.9,3.5 1.47,0.95 3.14,1.65 4.94,2.13 1.82,0.47 3.91,0.71 6.21,0.71 9.51,0 19.13,-1.76 28.84,-5.25 4.91,-1.77 9.88,-3.99 14.84,-6.64 4.97,-2.65 10.01,-5.78 15.07,-9.36 5.46,-3.87 10.24,-7.83 14.34,-11.88 4.05,-3.99 7.43,-8.08 10.1,-12.21 2.63,-4.05 4.59,-8.18 5.89,-12.38 1.29,-4.14 1.94,-8.41 1.94,-12.75zm225.85 94.14l-4.57 3.03 -4.72 2.86 -4.84 2.66 -5.09 2.56 -5.46 2.21c-1.82,0.63 -3.59,1.17 -5.29,1.58 -1.76,0.43 -3.52,0.76 -5.22,0.97 -1.77,0.22 -3.46,0.34 -5.02,0.34 -3.09,0 -6.11,-0.48 -9.02,-1.41 -2.87,-0.92 -5.65,-2.32 -8.31,-4.17 -2.56,-1.77 -5.03,-3.98 -7.36,-6.6 -2.29,-2.57 -4.5,-5.6 -6.59,-9.01 -0.83,-1.33 -1.79,-3.08 -2.83,-5.2l-3.41 -7.38 -3.57 -8.51 -2.86 -7.22 -19.77 16.29 -10.14 8.01 -8.72 6.6c-5.43,3.94 -10.51,7.42 -15.2,10.38 -4.71,2.97 -9.1,5.49 -13.13,7.5 -4.15,2.08 -7.95,3.65 -11.36,4.7 -3.55,1.08 -6.72,1.63 -9.48,1.63 -5.28,0 -9.84,-1.36 -13.61,-4.03 -3.72,-2.65 -6.63,-6.59 -8.67,-11.79 -0.62,-1.64 -1.16,-3.37 -1.61,-5.17 -0.43,-1.81 -0.81,-3.8 -1.1,-5.92 -0.28,-2.07 -0.5,-4.32 -0.65,-6.68l-0.22 -7.52c0,-13.61 0.44,-26.17 1.31,-37.67 0.86,-11.45 2.18,-21.77 3.92,-30.93 1.51,-7.93 3.35,-15.05 5.48,-21.3 2.16,-6.32 4.64,-11.82 7.44,-16.46 2.91,-4.81 6.18,-8.77 9.79,-11.83 3.67,-3.1 7.7,-5.29 12.08,-6.54l6.75 -1.94 -0.77 3.83c-2.32,11.48 -4.65,22.29 -6.95,33.07l-2.08 9.75c-1.72,7.98 -3.22,15.34 -4.48,22.03 -1.26,6.76 -2.34,13.01 -3.19,18.7 -0.84,5.7 -1.49,10.81 -1.9,15.23 -0.39,4.38 -0.61,8.34 -0.61,11.84l0.16 6.83 0.51 6.76 1.26 9.17c3.3,-0.96 6.63,-2.13 9.97,-3.5 4.14,-1.71 8.36,-3.77 12.62,-6.17 4.57,-2.56 9.17,-5.53 13.76,-8.85 4.62,-3.33 9.28,-7.07 13.95,-11.18 3.63,-3.25 7.35,-6.8 11.08,-10.62 3.76,-3.83 7.55,-7.95 11.36,-12.29 3.79,-4.33 7.66,-8.98 11.58,-13.9 3.89,-4.89 7.78,-9.99 11.63,-15.28l39.6 -57.77 3.24 6.51c1.03,2.08 1.93,4.16 2.65,6.18 0.74,2.1 1.37,4.26 1.86,6.47 0.49,2.16 0.86,4.38 1.1,6.65 0.25,2.32 0.38,4.63 0.38,6.9 0,5.17 -0.94,11.52 -2.81,19.02 -0.91,3.58 -2.05,7.53 -3.42,11.76 -1.37,4.21 -2.95,8.68 -4.73,13.33 -1.84,4.67 -3.48,9.08 -4.86,13.17 -1.4,4.13 -2.55,7.89 -3.43,11.27 -0.89,3.4 -1.56,6.53 -2,9.34 -0.43,2.73 -0.64,5.24 -0.64,7.52 0,2.52 0.17,4.81 0.51,6.82 0.34,2.02 0.84,3.83 1.49,5.4 0.61,1.47 1.38,2.79 2.29,3.92 0.87,1.08 1.91,2.02 3.06,2.77 0.98,0.61 2.17,1.18 3.5,1.66 1.38,0.51 2.93,0.94 4.58,1.27 1.79,0.34 3.77,0.62 5.88,0.79 2.1,0.17 4.46,0.27 7.04,0.27l17.15 -0.49 2.14 6.81 -1.43 1zm282.56 -161.04c0,11.38 -1.31,22.4 -3.9,33.01 -2.58,10.56 -6.49,20.75 -11.69,30.51 -5.16,9.69 -11.64,18.99 -19.36,27.82 -7.7,8.8 -16.71,17.2 -26.99,25.18 -6.15,4.72 -13.21,9.52 -21.13,14.37 -7.96,4.86 -16.89,9.84 -26.74,14.92 -9.84,5.06 -20.63,10.24 -32.33,15.49 -11.66,5.24 -24.32,10.61 -37.93,16.08 -11.42,4.61 -21.67,8.96 -30.7,13.04 -8.97,4.04 -16.63,7.78 -22.98,11.19 -6.17,3.31 -11.12,6.33 -14.81,9.03 -3.52,2.56 -5.83,4.78 -6.91,6.61 -12.33,20.84 -24.48,41.72 -36.54,62.72l-9.63 26.41 -9.04 23.82 -8.45 21.25c-2.66,6.53 -5.28,12.72 -7.8,18.5 -4.74,10.83 -9.49,20.41 -14.19,28.65 -4.75,8.34 -9.5,15.41 -14.23,21.18 -4.92,5.99 -9.86,10.65 -14.8,13.95 -5.07,3.4 -10.2,5.42 -15.34,6.04l-5.33 0.64 0.58 -5.35c0.26,-2.35 1.22,-6.06 2.86,-11.09 1.57,-4.84 3.86,-11.14 6.86,-18.86 2.99,-7.73 6.61,-16.7 10.81,-26.82 4.14,-9.98 9.08,-21.56 14.76,-34.7l14.54 -33.18 15.95 -35.96c11.24,-25.2 23.03,-51.38 35.33,-78.5l51.45 -112.65 2.96 -5.52 3.13 -4.99c1.03,-1.39 2.28,-3.28 3.35,-4.52 1.46,-1.63 2.99,-3.16 4.54,-4.54 1.55,-1.39 3.22,-2.71 4.95,-3.94 1.75,-1.24 3.56,-2.37 5.4,-3.39 1.83,-1.01 3.8,-1.96 5.81,-2.79l5.04 -2.11 4.67 31.1 13.73 -20.56 9.55 -13.65 9.54 -13.02c3.7,-4.84 7.47,-9.53 11.26,-14.05 3.79,-4.52 7.64,-8.91 11.55,-13.18 3.86,-4.2 7.79,-8.3 11.8,-12.28 3.97,-3.95 8.06,-7.82 12.19,-11.56 13.75,-11.1 54.38,-43.39 71.16,-47.76 2.22,-0.64 4.96,-1.72 7.24,-1.95 3.3,0 6.47,0.58 9.49,1.71 2.98,1.12 5.81,2.81 8.46,5.04 2.5,2.13 4.88,4.79 7.06,7.94 2.15,3.1 4.17,6.72 5.99,10.81 1.44,3.2 2.73,6.47 3.84,9.77 1.1,3.3 2.03,6.61 2.75,9.89 0.73,3.31 1.28,6.67 1.65,10.04 0.37,3.44 0.56,6.85 0.56,10.21zm-28.19 9.35c0,-4.82 -0.4,-9.29 -1.19,-13.32 -0.79,-4.02 -1.97,-7.67 -3.52,-10.91 -1.01,-2.1 -2.16,-3.94 -3.39,-5.48 -1.21,-1.5 -2.55,-2.77 -3.95,-3.74 -1.37,-0.95 -2.89,-1.67 -4.49,-2.13 -1.61,-0.47 -3.4,-0.71 -5.34,-0.71 -6.28,0 -14.37,3.27 -24.21,9.81 -5.17,3.42 -10.78,7.73 -16.77,12.87 -6.04,5.17 -12.51,11.21 -19.37,18.1 -5.7,5.72 -11.53,11.84 -17.42,18.32 -5.89,6.47 -11.84,13.25 -17.73,20.27 -6,7.12 -12.05,14.59 -18.12,22.33 -5.98,7.64 -12.19,15.81 -18.58,24.5 -5.88,8 -11.14,15.31 -15.77,21.93 -4.71,6.75 -9.02,13.11 -12.87,19.04 -3.5,5.39 -6.58,10.35 -9.21,14.83 -2,3.43 -3.81,6.68 -5.39,9.71l10.25 1.88 3.46 0.25c6.78,-0.02 14.18,-1.2 22.12,-3.57 8.04,-2.4 16.71,-6.02 25.96,-10.83 9.34,-4.86 19.32,-10.99 29.89,-18.33 10.57,-7.34 21.75,-15.94 33.52,-25.76 12.18,-10.1 22.82,-19.77 31.89,-28.98 9.08,-9.19 16.63,-18 22.64,-26.35 5.91,-8.19 10.33,-15.98 13.27,-23.31 2.88,-7.2 4.34,-14.02 4.34,-20.41z"/>
  </g>
 </g>
</svg>
