<?xml version="1.0" encoding="UTF-8"?>
<!DOCTYPE svg PUBLIC "-//W3C//DTD SVG 1.1//EN" "http://www.w3.org/Graphics/SVG/1.1/DTD/svg11.dtd">
<!-- Creator: CorelDRAW 2019 (64-Bit) -->
<svg xmlns="http://www.w3.org/2000/svg" xml:space="preserve" width="1.25008in" height="1.25006in" version="1.1" style="shape-rendering:geometricPrecision; text-rendering:geometricPrecision; image-rendering:optimizeQuality; fill-rule:evenodd; clip-rule:evenodd"
viewBox="0 0 1419.25 1419.23"
 xmlns:xlink="http://www.w3.org/1999/xlink"
 xmlns:xodm="http://www.corel.com/coreldraw/odm/2003">
 <defs>
  <style type="text/css">
   <![CDATA[
    .fil1 {fill:#FEFEFE}
    .fil3 {fill:#ED3237}
    .fil2 {fill:#CD9A3D}
    .fil0 {fill:#2D366F}
    .fil4 {fill:#CD9A3D;fill-rule:nonzero}
   ]]>
  </style>
 </defs>
 <g id="Layer_x0020_1">
  <metadata id="CorelCorpID_0Corel-Layer"/>
  <g id="_1711900684512">
   <path class="fil0" d="M709.61 9.4c386.74,0 700.24,313.48 700.24,700.22 0,386.71 -313.51,700.22 -700.24,700.22 -386.71,0 -700.19,-313.51 -700.19,-700.22 0,-386.74 313.48,-700.22 700.19,-700.22z"/>
   <path class="fil1" d="M709.61 709.61l0 550.09c-303.8,0 -550.04,-246.29 -550.04,-550.09 0,-303.8 246.24,-550.09 550.04,-550.09l0 550.09z"/>
   <path class="fil2" d="M780.97 822.92l3.49 0 0 11.07 -3.49 0 0 -11.07zm4.63 0l3.49 0 0 11.07 -3.49 0 0 -11.07zm4.63 0l3.46 0 0 11.07 -3.46 0 0 -11.07zm4.57 0l3.92 0 0 11.07 -3.92 0 0 -11.07zm5.05 0l5.36 0 0 11.07 -5.36 0 0 -11.07zm6.53 0l5.36 0 0 11.07 -5.36 0 0 -11.07zm6.53 0l5.36 0 0 11.07 -5.36 0 0 -11.07zm6.53 0l3.46 0 0 11.07 -3.46 0 0 -11.07zm4.63 0l3.49 0 0 11.07 -3.49 0 0 -11.07zm4.63 0l3.49 0 0 11.07 -3.49 0 0 -11.07z"/>
   <path class="fil2" d="M1189.39 825.96l-3.43 0 0 11.07 3.43 0 0 -11.07zm-4.63 0l-3.43 0 0 11.07 3.43 0 0 -11.07zm-4.59 0l-3.5 0 0 11.07 3.5 0 0 -11.07zm-4.63 0l-3.83 0 0 11.07 3.83 0 0 -11.07zm-4.99 0l-5.36 0 0 11.07 5.36 0 0 -11.07zm-6.53 0l-5.19 0 -0.2 0.05 0 11.01 5.39 0 0 -11.07zm-11.92 1.9l0 9.17 5.36 0 0 -10.7 -5.36 1.53zm-4.6 1.31l0 7.86 3.44 0 0 -8.85 -3.44 0.99zm-4.63 1.31l0 6.56 3.46 0 0 -7.55 -3.46 0.99zm-4.63 1.31l0 5.25 3.46 0 0 -6.24 -3.46 0.99z"/>
   <path class="fil2" d="M1164.36 820.82l0.97 3.32 3.35 -0.93 -0.51 -1.73 -3.8 -0.65zm-4.99 -0.88l1.53 5.45 3.32 -0.94 -1.08 -3.86 -3.77 -0.65zm-5.06 -0.88l2.13 7.58 3.32 -0.93 -1.65 -5.99 -3.8 -0.65zm-5.45 -0.97l2.75 9.91 3.75 -1.05 -2.32 -8.12 -4.17 -0.74zm-1.85 -0.31l-4.68 1.31 2.98 10.67 5.23 -1.45 -2.92 -10.42 -0.6 -0.11zm-5.79 1.62l-5.22 1.48 3.03 10.64 5.19 -1.45 -3.01 -10.67zm-6.27 1.76l-5.2 1.48 2.98 10.64 5.17 -1.45 -2.95 -10.67zm-6.33 1.79l-3.32 0.93 2.98 10.64 3.38 -0.93 -3.04 -10.64zm-4.43 1.25l-3.32 0.94 2.95 10.64 3.38 -0.94 -3.01 -10.64zm-4.46 1.25l-3.35 0.94 2.98 10.64 3.38 -0.93 -3.01 -10.65z"/>
   <path class="fil2" d="M1180.28 812.16l-3.43 -0.59 -1.9 10.93 3.43 0.59 1.9 -10.93zm-4.6 -0.79l-3.43 -0.6 -1.9 10.93 3.44 0.59 1.9 -10.92zm-4.51 -0.77l-3.44 -0.59 -1.9 10.9 3.43 0.6 1.9 -10.9zm-4.57 -0.8l-3.8 -0.68 -1.9 10.93 3.8 0.65 1.9 -10.9zm-4.91 -0.88l-5.31 -0.91 -1.9 10.9 5.28 0.93 1.93 -10.92zm-6.47 -1.11l-5.31 -0.94 -1.9 10.93 5.34 0.91 1.87 -10.9zm-6.45 -1.14l-5.28 -0.91 -1.93 10.9 5.31 0.94 1.9 -10.93zm-6.41 -1.11l-3.43 -0.59 -1.9 10.9 3.44 0.6 1.9 -10.9zm-4.57 -0.8l-3.44 -0.59 -1.85 10.9 3.38 0.59 1.9 -10.9zm-4.54 -0.79l-3.44 -0.6 -1.87 10.9 3.43 0.59 1.88 -10.9z"/>
   <path class="fil1" d="M948.38 751.7c4.83,-1.64 8.23,-4.59 7.58,-9.22 1.81,-13.28 -14.45,-16.15 -30.18,-16.15 -13.17,0 -42.74,1.62 -54.07,5.93 -5,1.9 -8.63,4.4 -11.04,7.41 -4.43,5.45 -4.29,10.67 -1.96,16.89 2.15,5.79 6.58,11.67 15.16,17.77 20.75,14.81 39.65,14.19 64.2,17.68 17.74,2.5 35.51,5.02 53.25,7.52 36.59,6.1 47.8,25.91 12.32,41.44 -14.87,6.5 -29.55,13.37 -44.28,20.21 -24.02,11.18 -35.88,31.31 -19.42,52.63 11.41,14.82 35.08,21.4 49.82,35.99 12.01,11.95 8.74,19.59 1.02,27.02 -10.79,10.42 -14.39,12.66 -25.38,25.43 -13.06,15.13 -14.16,39.37 22.62,63.04 -8.06,-11.58 -16.43,-24.49 -18.56,-35.74 -2.55,-13.23 5.17,-17.71 14.31,-26.03 13.14,-11.89 25.4,-21.51 29.49,-34.06 4.48,-13.71 -4.85,-23.73 -14.56,-31.57 -10.84,-8.77 -23.42,-15.44 -36.36,-24.32 -14.13,-9.54 -14.33,-23.9 -0.28,-33.07 20.41,-9.82 37.18,-16.63 58.25,-27.7 10.41,-5.51 21.17,-11.52 25.77,-23.1 6.67,-16.72 -2.07,-28.04 -16.27,-36.08 -12.94,-7.33 -29.63,-10.99 -48.03,-13.57 -21.74,-3.09 -77.01,-5.36 -91.79,-16.09 -14.59,-10.56 -8.72,-16.35 -1.9,-19.05 9.31,-3.69 19.13,-0.54 28.9,2.21 12.37,3.46 16.46,9.57 31.39,4.57z"/>
   <path class="fil1" d="M1009.49 751.7c-4.82,-1.64 -8.23,-4.59 -7.58,-9.22 -1.82,-13.28 14.45,-16.15 30.17,-16.15 13.17,0 42.75,1.62 54.1,5.93 4.43,1.7 7.78,3.89 10.19,6.47 5.42,5.76 5.31,11.87 2.41,18.76 -2.27,5.48 -6.67,11.07 -14.76,16.83 -20.78,14.81 -39.68,14.19 -64.24,17.68 -17.71,2.5 -35.51,5.02 -53.22,7.52 -36.62,6.1 -47.83,25.91 -12.35,41.44 14.9,6.5 29.58,13.37 44.28,20.21 22.48,10.48 34.35,28.81 22.2,48.62 -11.24,18.42 -36.45,24.02 -52.57,40 -12.04,11.95 -8.77,19.59 -1.05,27.02 10.81,10.42 15.27,11.98 25.4,25.43 1.9,2.53 17.03,26.77 -11.01,44.62 13.14,-18.88 9.19,-28.3 -7.35,-43.34 -13.14,-11.86 -25.24,-21.51 -29.35,-34.06 -4.46,-13.71 4.68,-23.73 14.39,-31.57 10.84,-8.77 23.45,-15.44 36.36,-24.32 14.13,-9.54 14.36,-23.9 0.28,-33.07 -17.43,-8.46 -32.27,-14.82 -49.33,-23.33 -12.06,-5.99 -25.21,-11.38 -32.58,-23.27 -0.83,-1.36 -1.56,-2.75 -2.1,-4.2 -6.64,-16.72 2.07,-28.04 16.26,-36.08 12.94,-7.33 29.63,-10.99 48.09,-13.57 21.71,-3.09 76.98,-5.36 91.77,-16.09 14.56,-10.56 8.72,-16.35 1.87,-19.05 -9.31,-3.69 -19.13,-0.54 -28.87,2.21 -12.38,3.46 -16.46,9.57 -31.42,4.57z"/>
   <path class="fil3" d="M619.21 500.22l-38.89 -0.34 3.95 40.87 -39.79 -4.8 -0.63 38.69 41.3 -4.06 -5.11 39.85 38.94 0.68 -4.06 -41.24 39.79 5 0.51 -38.91 -40.93 4.09 4.91 -39.82zm90.41 209.39l0 44.02 -206.21 0 0 466.04c-34.35,-13.91 -67.02,-31.19 -97.47,-51.43l0 -414.61 -244.59 0c-1.19,-14.53 -1.76,-29.21 -1.76,-44.02 0,-18.05 0.88,-35.88 2.58,-53.48l243.77 0 0 -405.19c30.46,-20.24 63.13,-37.5 97.47,-51.41l0 456.59 206.21 0 0 53.48zm-384.67 85.58l-38.89 -0.31 3.94 40.88 -39.76 -4.83 -0.65 38.72 41.3 -4.06 -5.11 39.85 38.95 0.66 -4.06 -41.22 39.79 4.97 0.51 -38.89 -40.96 4.09 4.94 -39.85zm0 -294.97l-38.89 -0.34 3.94 40.87 -39.76 -4.8 -0.65 38.69 41.3 -4.06 -5.11 39.85 38.95 0.68 -4.06 -41.24 39.79 5 0.51 -38.91 -40.96 4.09 4.94 -39.82zm294.26 294.97l-38.89 -0.31 3.95 40.88 -39.79 -4.83 -0.63 38.72 41.3 -4.06 -5.11 39.85 38.94 0.66 -4.06 -41.22 39.79 4.97 0.51 -38.89 -40.93 4.09 4.91 -39.85z"/>
   <path class="fil1" d="M991.47 471.47l-1.79 112.38c6.73,0.25 10.16,-3.09 10.19,-10.22 0.03,-17.43 0.11,-34.86 0.17,-52.29 -0.06,-21.6 9.93,-29.86 28.21,-30.31 22.39,0 44.76,0 67.13,0 3.66,19.98 -5.59,31.76 -27.22,37.1 -0.03,17.2 -9.93,24.21 -27.25,24.1 -3.72,38.77 -23.39,38.35 -51.4,41.67l-0.12 7.09c29.92,1.22 41.01,-7.12 53.59,-18.84 21.23,0 42.38,0 63.61,0 3.52,9.82 -4.4,17.49 -13.74,19.78 -5.53,1.33 -13.74,0.71 -19.3,0.71 -5.36,11.52 -11.52,15.24 -24.1,17.88 -1,16.49 -17.54,19.98 -30.94,19.98l-29.8 0 -0.46 27.82 142.66 24.95c1.45,7.27 7.46,12.89 14.93,13.71 0.48,-1.93 2.3,-3.37 4.37,-3.37l0 0 0.37 0 -0.12 0 0.29 0c1.56,0 3.63,1.64 3.97,3.24 5.51,-1.99 8.71,-7.98 9.76,-13.57l21.32 0c-0.68,17.32 -12.89,31.65 -29.15,35.57 1.02,0.63 1.7,1.76 1.7,3.07l0 0c0,1.33 -0.74,2.53 -1.82,3.12 1.08,0.63 1.82,1.82 1.82,3.15l0 0c0,1.82 -1.36,3.35 -3.15,3.58l0 0.03 3.54 0 43.6 92.5 13.34 0c-9.51,26.2 -34.66,44.9 -64.12,44.9 -29.52,0 -54.67,-18.7 -64.18,-44.9l10.28 0 44 -92.5 4.06 0 0 -0.03c-1.79,-0.22 -3.18,-1.73 -3.18,-3.58l0 0c0,-1.33 0.8,-2.53 1.88,-3.15 -1.08,-0.59 -1.88,-1.79 -1.88,-3.12l0 0c0,-0.85 0.31,-1.64 0.83,-2.24 -10.82,-1.25 -20.27,-7.01 -26.43,-15.39l-129.43 0 -6.02 371.44c-0.14,4.6 -4.85,4.46 -5.14,0l-6.02 -371.44 -132.16 0c-6.13,8.38 -15.58,14.14 -26.39,15.39 0.48,0.6 0.79,1.39 0.79,2.24l0 0c0,1.33 -0.74,2.53 -1.87,3.12 1.14,0.63 1.87,1.82 1.87,3.15l0 0c0,1.85 -1.36,3.35 -3.12,3.58l0 0.03 4 0 44.05 92.5 10.24 0c-9.51,26.2 -34.63,44.9 -64.15,44.9 -29.49,0 -54.64,-18.7 -64.15,-44.9l13.37 0 43.6 -92.5 4.03 0 0 -0.03c-1.76,-0.22 -3.15,-1.73 -3.15,-3.58l0 0c0,-1.33 0.74,-2.53 1.87,-3.15 -1.14,-0.59 -1.87,-1.79 -1.87,-3.12l0 0c0,-1.25 0.65,-2.33 1.56,-2.98 -16.46,-3.78 -28.84,-18.19 -29.55,-35.65l21.32 0c1.14,5.73 5.14,11.1 10.45,13.23 0.74,-1.33 2.21,-2.89 3.89,-2.89l0 0c2.07,0 3.83,1.44 4.34,3.37 7.44,-0.82 13.51,-6.44 14.93,-13.71l145.36 -25.43 -0.45 -27.33 -30.46 0c-13.43,0 -29.97,-3.49 -30.94,-19.98 -12.6,-2.64 -18.76,-6.36 -24.13,-17.88 -5.51,0 -13.74,0.62 -19.3,-0.71 -9.34,-2.3 -17.26,-9.96 -13.68,-19.78 21.17,0 42.32,0 63.55,0 12.72,11.8 23.85,20.18 54.3,18.82l-0.14 -6.98c-28.39,-3.41 -48.34,-2.67 -52.09,-41.75 -17.32,0.11 -27.22,-6.9 -27.25,-24.1 -21.63,-5.34 -30.88,-17.11 -27.22,-37.1 22.37,0 44.73,0 67.13,0 18.28,0.46 28.67,8.51 28.21,30.31 0.08,17.43 0.14,34.86 0.17,52.29 0.03,7.38 3.75,10.7 10.93,10.16l-1.84 -112.32c-5.25,-3.86 -8.63,-10.07 -8.63,-17.06 0,-11.69 9.48,-21.17 21.17,-21.17 11.67,0 21.15,9.48 21.15,21.17 0,6.99 -3.35,13.2 -8.63,17.06zm199.6 362.81l-82.28 0 39.34 -80.84 4.91 0 38.03 80.84zm-426.93 0l82.26 0 -39.32 -80.84 -4.97 0 -37.98 80.84zm399.74 -281.91c-32.16,0 -62.84,0 -95.03,0 -0.14,13.57 -22.11,4.29 -20.89,23.79 30.09,0 61.11,0 91.17,0 15.18,-0.06 25.71,-9.94 24.75,-23.79zm30.26 -29.6c-32.22,0 -64.43,0 -96.62,0 -2.19,10.07 -20.24,9.76 -23.48,23.79 30.06,0 65.23,0 95.29,0 15.22,-0.06 25.71,-9.94 24.81,-23.79zm17.23 -31.74c-34.29,0 -70.79,0 -105.08,0 -0.48,12.32 -0.51,21.37 -5.68,24.75 30.09,0 60.15,0 90.26,0 15.16,-0.06 21.4,-10.33 20.49,-24.75zm-418.05 61.34c32.19,0 62.84,0 95.03,0 0.12,13.57 22.11,4.29 20.89,23.79 -30.09,0 -61.11,0 -91.17,0 -15.18,-0.06 -25.69,-9.94 -24.75,-23.79zm-30.26 -29.6c32.22,0 64.43,0 96.62,0 2.18,10.07 20.27,9.76 23.5,23.79 -30.06,0 -65.26,0 -95.32,0 -15.16,-0.06 -25.71,-9.94 -24.81,-23.79zm-17.23 -31.74c34.29,0 70.85,0 105.08,0 0.48,12.32 0.54,21.37 5.68,24.75 -30.09,0 -60.15,0 -90.26,0 -15.16,-0.06 -21.4,-10.33 -20.49,-24.75z"/>
   <path class="fil4" d="M88.67 619.58l1.25 -10.16c0.54,0.23 1.39,0.4 2.56,0.54 0.88,0.11 2.3,-0.34 4.29,-1.33 1.84,-0.88 3.32,-1.51 4.48,-1.88 1.19,-0.39 2.64,-0.48 4.46,-0.25 2.9,0.37 5.56,1.42 8.09,3.18 2.53,1.73 4.46,4.09 5.82,7.04 1.42,2.98 1.9,6.45 1.39,10.33 -0.54,4.2 -1.73,7.52 -3.61,9.91 -1.87,2.39 -3.97,4.03 -6.3,4.97 -2.3,0.91 -4.51,1.45 -6.59,1.53 -2.1,0.03 -4.12,-0.05 -5.96,-0.28l-36.08 -4.6 1.19 -9.34 34.89 4.43c2.87,0.37 5.28,0.45 7.29,0.22 1.93,-0.2 3.58,-0.91 4.82,-2.07 1.28,-1.14 2.07,-2.9 2.41,-5.28 0.17,-1.62 -0.03,-3.15 -0.68,-4.6 -0.63,-1.39 -1.56,-2.56 -2.92,-3.52 -1.22,-0.88 -2.67,-1.42 -4.26,-1.62 -1.9,-0.25 -4.54,0.31 -7.92,1.73 -0.62,0.31 -1.31,0.59 -1.96,0.85 -0.68,0.34 -1.33,0.57 -1.96,0.74 -0.57,0.14 -1.19,0.17 -1.73,0.08 -1.36,-0.17 -2.39,-0.39 -2.98,-0.62zm-17.15 -40.36l2.27 -9.94c0.51,0.25 1.02,0.46 1.53,0.59 1.99,0.46 3.8,0.4 5.59,-0.17 1.68,-0.51 3.15,-1.25 4.4,-2.21 1.34,-0.94 2.87,-2.24 4.6,-3.92 2.75,-2.64 5.31,-4.54 7.72,-5.71 2.39,-1.16 4.66,-1.81 6.99,-1.93 2.27,-0.11 4.85,0.14 7.78,0.83 3.72,0.85 6.81,2.07 9.28,3.69 2.53,1.64 4.43,3.55 5.68,5.68 1.31,2.1 2.07,4.34 2.39,6.73 0.34,2.41 0.17,4.85 -0.37,7.33 -0.71,3.12 -2.04,5.87 -3.92,8.35 -1.96,2.41 -4.49,4.14 -7.58,5.22 -3.07,1.05 -6.5,1.11 -10.45,0.2 -1.9,-0.42 -3.8,-1.16 -5.7,-2.18l2.27 -9.96c1.87,1.05 3.63,1.73 5.34,2.13 3.37,0.76 6.16,0.59 8.35,-0.6 2.13,-1.14 3.49,-2.84 4,-5.14 0.8,-3.41 -0.03,-5.93 -2.44,-7.63 -2.44,-1.68 -5.11,-2.84 -7.97,-3.49 -2.58,-0.6 -4.72,-0.88 -6.42,-0.8 -1.73,0.11 -3.77,0.97 -6.19,2.5 -2.27,1.45 -4.17,2.92 -5.68,4.4 -1.53,1.42 -2.87,2.61 -4.03,3.63 -0.99,1.08 -2.32,1.98 -4,2.81 -1.79,0.85 -3.38,1.31 -4.68,1.31 -1.39,0 -2.78,-0.17 -4.23,-0.48 -2.04,-0.48 -3.52,-0.88 -4.51,-1.22zm23.14 -83.79l36.9 12.4c5.23,1.79 8.8,4.68 10.7,8.68 1.93,4.06 2.04,8.68 0.29,13.94 -1.28,3.66 -3.07,6.7 -5.54,9.14 -2.41,2.44 -5.19,4.03 -8.4,4.77 -3.18,0.82 -6.59,0.59 -10.19,-0.63 -1.96,-0.65 -3.66,-1.36 -5.02,-2.1l3.49 -10.36c1.53,1.31 3.24,2.27 5.25,2.95 2.98,1 5.59,0.94 7.95,-0.22 2.27,-1.14 3.89,-2.98 4.74,-5.51 1.22,-3.61 0.88,-6.33 -1.02,-8.15 -1.93,-1.79 -3.92,-3.07 -6.13,-3.77l-13.94 -4.74c-1.39,-0.48 -2.81,-0.25 -4.14,0.65 -1.36,0.91 -2.33,2.24 -2.95,4 -0.6,1.81 -0.46,3.49 0.42,4.99 0.88,1.45 2.24,2.53 4.03,3.24l-3.27 9.6c-0.4,-0.12 -0.93,-0.26 -1.62,-0.48 -3.6,-1.22 -5.99,-3.44 -7.24,-6.62 -1.22,-3.12 -1.22,-6.45 -0.03,-9.96 1.22,-3.58 3.6,-6.24 7.21,-7.97l-14.54 -4.94 3.04 -8.91zm7.95 -20.07l3.72 -9.48c0.42,0.34 0.93,0.63 1.45,0.82 1.87,0.74 3.66,0.94 5.51,0.65 1.76,-0.25 3.35,-0.74 4.74,-1.5 1.42,-0.74 3.12,-1.82 5.08,-3.21 3.15,-2.21 5.96,-3.69 8.48,-4.48 2.5,-0.82 4.89,-1.14 7.18,-0.88 2.27,0.2 4.77,0.85 7.58,1.96 3.52,1.39 6.38,3.07 8.63,5 2.24,2.02 3.83,4.17 4.8,6.47 0.94,2.27 1.39,4.59 1.36,7.01 -0.08,2.44 -0.54,4.83 -1.5,7.18 -1.17,2.98 -2.84,5.53 -5.11,7.66 -2.3,2.1 -5.05,3.44 -8.26,4.03 -3.12,0.63 -6.59,0.17 -10.33,-1.31 -1.85,-0.71 -3.6,-1.73 -5.34,-3.01l3.78 -9.54c1.67,1.31 3.29,2.27 4.94,2.9 3.18,1.28 5.99,1.5 8.29,0.65 2.3,-0.8 3.92,-2.3 4.77,-4.48 1.25,-3.24 0.85,-5.88 -1.34,-7.92 -2.13,-2.02 -4.59,-3.55 -7.35,-4.63 -2.44,-1 -4.51,-1.56 -6.22,-1.73 -1.7,-0.14 -3.89,0.37 -6.5,1.53 -2.44,1.11 -4.54,2.27 -6.3,3.52 -1.64,1.16 -3.15,2.15 -4.43,3.01 -1.19,0.91 -2.67,1.62 -4.4,2.15 -1.93,0.6 -3.55,0.8 -4.85,0.63 -1.36,-0.23 -2.72,-0.59 -4.06,-1.14 -1.96,-0.76 -3.41,-1.39 -4.31,-1.87zm34.35 -75.22l4.29 -8.35c3.26,1.7 5.31,4.06 5.99,7.09 0.71,3.04 0.74,7.38 0.06,13 -0.59,5.59 -0.93,9.96 -0.93,13.06 0,3.12 0.91,6.07 2.75,8.91 -0.63,-2.73 -0.17,-5.45 1.22,-8.2 1.79,-3.55 4.8,-5.71 8.91,-6.53 -1.68,-3.97 -1.34,-8.32 1.08,-13 1.19,-2.33 2.87,-4.14 4.97,-5.42 2.04,-1.25 4.46,-1.82 7.24,-1.76 2.72,0.11 5.62,0.94 8.65,2.5 4.51,2.3 8.12,6.13 10.9,11.55l-4.66 9.09c-3.77,-5.88 -7.72,-9.85 -11.84,-11.95 -2.36,-1.19 -4.31,-1.56 -5.87,-1.11 -1.64,0.48 -2.73,1.36 -3.41,2.64 -0.68,1.31 -0.8,2.64 -0.37,4.03 0.4,1.42 1.39,2.55 2.98,3.37l5.45 2.75 -4.31 8.4 -5.42 -2.78c-1.39,-0.71 -2.84,-0.82 -4.37,-0.31 -1.5,0.51 -2.7,1.59 -3.55,3.24 -0.74,1.48 -0.85,3.12 -0.34,4.94 0.54,1.79 2.04,3.32 4.46,4.57 1.82,0.91 4.12,1.7 6.98,2.3 2.75,0.68 5.77,0.82 9.11,0.45l-4.66 9.08c-7.35,-0.11 -13.51,-1.45 -18.45,-3.97 -3.46,-1.76 -6.24,-3.86 -8.43,-6.24 -2.19,-2.36 -3.8,-5.19 -4.83,-8.46 -1.02,-3.29 -1.48,-7.1 -1.36,-11.47 0.12,-2.33 0.29,-4.85 0.57,-7.63 0.43,-2.87 0.63,-4.91 0.6,-6.16 0.03,-1.25 -0.14,-2.5 -0.65,-3.69 -0.54,-1.27 -1.45,-2.58 -2.75,-3.94zm49.44 -13.17l-16.46 -11.69c-2.95,-2.13 -5.17,-4.71 -6.56,-7.72 -1.36,-3.07 -1.85,-6.24 -1.39,-9.54 0.37,-3.32 1.56,-6.45 3.69,-9.42 3.01,-4.2 6.98,-6.84 11.95,-7.95 -0.97,-4.54 -0.17,-8.6 2.36,-12.15 1.59,-2.24 3.6,-4.06 5.96,-5.45 2.47,-1.31 5.14,-1.84 8.15,-1.64 2.95,0.17 6.02,1.34 9.11,3.58l12.27 8.72c5.93,4.17 11.72,10.19 17.45,18l-5.53 7.66c-2.67,-3.35 -5.4,-6.44 -8.21,-9.31 -2.92,-2.84 -6.16,-5.48 -9.65,-7.98l-13.54 -9.62c-2.02,-1.42 -3.83,-2.07 -5.51,-1.93 -1.7,0.22 -3.07,1.1 -4.2,2.64 -1.08,1.51 -1.33,3.04 -0.82,4.6 0.46,1.56 1.45,2.9 2.95,3.95l20.8 14.79c1.9,1.36 3.63,3.32 5.25,5.93 1.59,2.61 2.36,5.65 2.41,9.14 0.06,3.52 -1.19,7.1 -3.83,10.76 -2.1,2.95 -4.63,5.19 -7.58,6.67 -2.95,1.48 -6.07,2.1 -9.36,1.82 -3.35,-0.34 -6.59,-1.59 -9.71,-3.84zm-9.94 -19.58l15.24 10.84c1.17,0.82 2.53,1.59 4.12,2.36 1.56,0.68 3.32,0.94 5.36,0.71 2.02,-0.14 3.86,-1.36 5.45,-3.58 2.27,-3.24 2.64,-6.1 1.1,-8.6 -1.5,-2.5 -3.32,-4.46 -5.34,-5.9l-15.27 -10.84c-2.1,-1.53 -4.57,-2.58 -7.41,-3.18 -2.78,-0.57 -5.37,0.74 -7.64,3.97 -3.52,4.91 -2.04,9.65 4.37,14.22zm44.65 -62.39l-6.19 7.12c-0.29,-0.2 -0.74,-0.51 -1.25,-0.97 -2.21,-1.9 -3.83,-4.2 -4.91,-6.87 -1.08,-2.67 -1.34,-5.56 -0.77,-8.68 0.6,-3.12 2.24,-6.24 4.94,-9.34 2.5,-2.89 5.19,-5.02 8.12,-6.33 2.89,-1.25 5.62,-1.76 8.14,-1.45 2.64,0.34 4.88,1.31 6.75,2.93 4.15,3.6 5.4,8.09 3.84,13.51 2.38,-1.39 4.85,-1.81 7.41,-1.25 2.56,0.54 5.08,1.9 7.52,4 2.44,2.13 4.34,4.63 5.7,7.46 1.36,2.81 1.85,5.88 1.48,9.08 -0.4,3.35 -2.02,6.62 -4.8,9.85 -2.41,2.84 -5.19,4.91 -8.29,6.27 -3.03,1.39 -6.16,1.88 -9.42,1.42 -3.24,-0.46 -6.33,-1.96 -9.28,-4.54 -1.64,-1.39 -2.98,-2.73 -4,-3.95l7.21 -8.31c0.85,1.81 2.02,3.32 3.43,4.57 2.39,2.04 4.91,3.03 7.5,2.92 2.58,-0.08 4.82,-1.22 6.7,-3.35 1.59,-1.85 2.22,-4 1.9,-6.45 -0.37,-2.36 -1.93,-4.77 -4.8,-7.26 -1.87,-1.59 -3.52,-2.47 -5.02,-2.56 -1.48,-0.14 -2.61,0.06 -3.46,0.57 -0.85,0.46 -1.48,0.91 -1.85,1.36l-1.5 1.7 -5.88 -5.14 1.53 -1.81c1.16,-1.31 1.59,-2.84 1.36,-4.57 -0.14,-1.73 -1.05,-3.29 -2.7,-4.72 -1.22,-1.08 -2.58,-1.73 -3.98,-1.96 -1.44,-0.25 -2.87,-0.08 -4.14,0.48 -1.36,0.54 -2.49,1.39 -3.46,2.56 -2.05,2.36 -2.81,4.74 -2.19,7.09 0.54,2.39 2.04,4.57 4.34,6.59zm37.44 -40.79l-6.92 6.59c-0.65,-0.48 -1.42,-1.25 -2.44,-2.3 -1.85,-1.9 -3.04,-4.2 -3.61,-6.87 -0.63,-2.67 -0.42,-5.48 0.54,-8.43 0.97,-2.92 2.78,-5.73 5.51,-8.35 4.6,-4.34 9.11,-6.13 13.62,-5.33 4.43,0.76 8.85,3.49 13.34,8.17l13.71 14.37c3.8,4 5.65,8.23 5.48,12.69 -0.14,4.49 -2.21,8.63 -6.27,12.46 -2.78,2.67 -5.79,4.51 -9.11,5.56 -3.29,1.02 -6.47,1.14 -9.65,0.31 -3.2,-0.79 -6.13,-2.55 -8.77,-5.31 -1.42,-1.53 -2.58,-2.92 -3.43,-4.2l7.89 -7.55c0.71,1.85 1.85,3.52 3.26,5.05 2.19,2.27 4.54,3.44 7.16,3.49 2.58,0.06 4.85,-0.82 6.75,-2.7 1.56,-1.48 2.58,-3.41 3.07,-5.79 0.4,-2.36 -0.82,-5.06 -3.75,-8.12l-15.44 -16.21c-2.21,-2.27 -4.34,-3.43 -6.53,-3.52 -2.22,-0.08 -4.23,0.71 -5.99,2.38 -1.87,1.82 -2.78,3.8 -2.78,5.99 -0.05,2.27 0.65,4.15 2.07,5.65 0.74,0.77 1.53,1.42 2.3,1.96zm42.1 -17.11l5.22 -4.12c-3.26,0.06 -6.36,-0.68 -9.28,-2.15 -2.98,-1.53 -5.94,-4.12 -8.77,-7.75 -2.41,-3.07 -3.86,-5.99 -4.37,-8.8 -0.45,-2.81 -0.22,-5.31 0.68,-7.52 0.97,-2.24 2.36,-4.06 4.2,-5.48 1.16,-0.94 2.61,-1.62 4.34,-2.07 1.76,-0.48 3.75,-0.4 5.93,0.29 -0.14,-2.3 0.23,-4.23 1.08,-5.88 0.88,-1.56 1.96,-2.84 3.2,-3.8 3.1,-2.41 6.42,-2.95 10.02,-1.59 -0.03,-4.17 1.87,-7.75 5.65,-10.73 1.73,-1.36 3.72,-2.21 5.96,-2.58 2.24,-0.37 4.51,-0.08 6.76,0.88 2.24,0.88 4.29,2.5 6.07,4.8 2.1,2.64 3.72,6.07 4.88,10.27l-8.09 6.36c-0.82,-3.86 -2.19,-7.01 -4.09,-9.45 -1.65,-2.02 -3.12,-3.2 -4.6,-3.52 -1.51,-0.29 -2.81,0.03 -4.03,0.99 -1.02,0.8 -1.59,1.79 -1.64,3.01 -0.12,1.19 0.31,2.36 1.16,3.44l5.88 7.49 -7.41 5.82 -5.87 -7.5c-1.08,-1.33 -2.16,-2.04 -3.27,-2.1 -1.16,-0.03 -2.15,0.29 -3.01,0.94 -0.88,0.71 -1.42,1.64 -1.67,2.84 -0.2,1.14 0.22,2.36 1.19,3.63l5.94 7.46 -7.35 5.76 -5.51 -6.84c-2.24,-2.9 -4.43,-3.55 -6.41,-1.96 -1.31,1.02 -1.65,2.36 -1.02,4 0.63,1.59 1.73,3.38 3.26,5.34 1.62,2.1 3.15,3.77 4.54,5.08 1.42,1.25 3.21,2.19 5.28,2.84 2.1,0.68 4.68,0.68 7.72,0.03 3.09,-0.63 6.62,-2.13 10.67,-4.51 3.89,-2.27 7.15,-4.06 9.79,-5.36 2.67,-1.36 5.48,-2.38 8.52,-3.09 3.03,-0.68 6.1,-0.68 9.14,0.05 3.04,0.77 5.82,2.56 8.43,5.37l-9.28 7.26c-2.36,-2.32 -5.08,-3.37 -8.18,-3.15 -3.04,0.23 -6.36,1.34 -9.85,3.32 -3.43,1.99 -7.35,4.72 -11.72,8.18l-14.65 11.5 -5.45 -6.98zm84.59 -69.63l-8.66 5.56 -7.92 -12.43c-1.19,-1.85 -2.56,-2.98 -4.09,-3.38 -1.51,-0.34 -2.81,-0.14 -3.95,0.6 -1.42,0.91 -2.24,2.19 -2.53,3.83 -0.23,1.73 0.28,3.63 1.56,5.65l13.26 20.61c2.87,4.54 6.87,8.63 11.86,12.26l-7.97 5.08c-2.24,-1.31 -4.29,-2.75 -6.05,-4.4 -1.76,-1.59 -3.24,-3.09 -4.29,-4.54 -1.11,-1.39 -2.24,-3.04 -3.43,-4.89l-11.1 -17.28c-2.07,-3.24 -3.15,-6.33 -3.27,-9.28 -0.05,-2.95 0.63,-5.59 1.99,-7.89 1.39,-2.27 3.26,-4.14 5.56,-5.65 3.43,-2.21 7.18,-2.89 11.27,-2.1 1.02,-4.06 3.41,-7.29 7.18,-9.74 2.04,-1.27 4.31,-2.1 6.9,-2.44 2.58,-0.25 5.14,0.25 7.84,1.53 2.61,1.31 5,3.61 7.12,6.98l11.1 17.26c1.98,3.15 3.6,6.16 4.68,9.06 1.14,2.9 1.81,5.96 2.1,9.25l-7.95 5.11c-0.46,-2.64 -1.02,-4.85 -1.68,-6.67 -0.57,-1.87 -1.25,-3.49 -1.93,-4.85 -0.71,-1.39 -1.56,-2.87 -2.55,-4.37l-13.23 -20.61c-1.25,-2.04 -2.75,-3.32 -4.37,-3.83 -1.62,-0.46 -3.15,-0.23 -4.59,0.71 -1.17,0.74 -1.87,1.85 -2.16,3.32 -0.28,1.56 0.14,3.27 1.33,5.14l7.95 12.4zm51.15 -32.81l9.11 -4.66c0.14,0.57 0.46,1.36 0.99,2.39 0.43,0.8 1.62,1.73 3.55,2.78 1.73,1.02 3.12,1.9 4.09,2.67 0.97,0.71 1.9,1.9 2.7,3.55 1.33,2.55 1.98,5.36 1.96,8.43 0,3.07 -0.85,6.02 -2.53,8.8 -1.68,2.84 -4.26,5.17 -7.75,6.99 -3.77,1.93 -7.21,2.78 -10.22,2.61 -2.98,-0.2 -5.56,-0.99 -7.63,-2.39 -2.07,-1.42 -3.78,-2.92 -5,-4.59 -1.22,-1.73 -2.27,-3.41 -3.12,-5.08l-16.58 -32.36 8.4 -4.29 16.01 31.31c1.33,2.58 2.64,4.6 3.88,6.1 1.34,1.53 2.78,2.44 4.49,2.84 1.68,0.42 3.6,0.08 5.7,-1 1.48,-0.74 2.58,-1.79 3.41,-3.18 0.82,-1.25 1.22,-2.73 1.31,-4.34 0.03,-1.53 -0.34,-3.03 -1.1,-4.46 -0.88,-1.73 -2.84,-3.58 -5.88,-5.56 -0.59,-0.34 -1.22,-0.74 -1.85,-1.17 -0.68,-0.37 -1.22,-0.76 -1.7,-1.16 -0.42,-0.42 -0.76,-0.88 -1.05,-1.39 -0.59,-1.22 -1.02,-2.19 -1.19,-2.84zm59.69 -43.66l-2.55 -7.41c2.67,-0.91 5.28,-1.25 7.97,-1.05 2.64,0.2 5.06,1.1 7.21,2.7 2.1,1.62 3.66,3.95 4.68,7.01 0.57,1.76 0.85,3.43 0.74,5.05 -0.14,1.62 -0.57,3.09 -1.31,4.46 -0.74,1.39 -1.64,2.61 -2.87,3.66 1.9,0.03 3.97,0.71 6.19,1.99 2.21,1.36 3.97,4.03 5.34,7.97 1.05,3.21 1.39,6.41 1.02,9.59 -0.4,3.24 -1.7,6.13 -3.8,8.66 -2.05,2.58 -4.91,4.49 -8.55,5.71 -3.07,1.05 -6.24,1.45 -9.62,1.19 -3.43,-0.31 -6.5,-1.48 -9.14,-3.43 -2.78,-1.99 -4.83,-4.88 -6.13,-8.68 -0.71,-2.04 -1.16,-3.86 -1.42,-5.42l10.45 -3.55c-0.17,2.02 0.06,3.89 0.63,5.68 0.99,2.95 2.67,5.02 4.94,6.3 2.33,1.25 4.8,1.42 7.49,0.51 1.31,-0.45 2.47,-1.19 3.46,-2.21 1.02,-1.02 1.62,-2.44 1.9,-4.31 0.31,-1.87 0,-4.12 -0.91,-6.76 -0.76,-2.21 -1.84,-3.92 -3.32,-5.05 -1.44,-1.11 -3.2,-1.34 -5.25,-0.65l-2.16 0.74 -2.55 -7.52 2.32 -0.76c1.7,-0.57 2.81,-1.73 3.41,-3.44 0.57,-1.59 0.54,-3.32 -0.11,-5.16 -1.73,-5.11 -4.43,-7.01 -8.06,-5.79zm68.46 2.39l-10.05 2.32 -3.32 -14.39c-0.51,-2.13 -1.39,-3.67 -2.64,-4.54 -1.31,-0.83 -2.67,-1.08 -3.95,-0.77 -1.64,0.37 -2.87,1.31 -3.66,2.75 -0.8,1.56 -0.94,3.52 -0.4,5.85l5.48 23.87c1.22,5.25 3.58,10.41 7.04,15.53l-9.19 2.1c-1.64,-1.96 -3.09,-4 -4.2,-6.16 -1.16,-2.1 -2.02,-4 -2.55,-5.73 -0.51,-1.7 -1.05,-3.63 -1.53,-5.76l-4.66 -20.01c-0.85,-3.72 -0.85,-7.01 0.06,-9.85 0.93,-2.78 2.41,-5.02 4.51,-6.75 2.07,-1.68 4.48,-2.81 7.15,-3.44 3.97,-0.91 7.72,-0.31 11.3,1.82 2.33,-3.49 5.65,-5.73 10.08,-6.73 2.3,-0.54 4.74,-0.54 7.26,0 2.56,0.62 4.8,1.98 6.84,4.09 2.07,2.07 3.55,5.08 4.46,8.97l4.59 19.98c0.85,3.63 1.28,7.01 1.39,10.11 0.03,3.09 -0.31,6.22 -1.17,9.42l-9.17 2.13c0.4,-2.61 0.63,-4.91 0.65,-6.84 0.06,-1.96 -0.03,-3.69 -0.23,-5.22 -0.2,-1.56 -0.51,-3.21 -0.88,-4.97l-5.51 -23.87c-0.54,-2.33 -1.53,-4.03 -2.9,-5.08 -1.36,-0.97 -2.87,-1.28 -4.57,-0.88 -1.27,0.31 -2.32,1.11 -3.12,2.41 -0.82,1.36 -0.97,3.12 -0.48,5.28l3.35 14.37zm45.61 -23.19l1.59 12.55c2.92,-2.3 6.39,-3.75 10.47,-4.26 2.98,-0.4 5.82,0.05 8.4,1.27 2.55,1.22 4.63,3.01 6.21,5.4 1.56,2.41 2.56,5 2.93,7.78 0.34,2.53 -0.03,5.14 -1,7.84 -0.97,2.58 -2.7,4.85 -5.22,6.81 -2.5,1.96 -5.65,3.18 -9.48,3.66 -3.52,0.45 -6.76,0.14 -9.77,-0.88 -3.03,-0.99 -5.51,-2.64 -7.49,-4.94 -1.93,-2.27 -3.12,-5 -3.52,-8.14l-3.43 -27.14c-0.63,-4.71 0.23,-8.18 2.47,-10.36 2.24,-2.19 5.11,-3.52 8.6,-3.95 1.42,-0.2 4.57,-0.14 9.31,0.08 1.84,0.14 3.43,0.14 4.85,-0.03 2.84,-0.37 5.23,-1.28 7.04,-2.75l1.17 9.36c-1.79,1.25 -4,2.02 -6.7,2.36 -1.62,0.22 -3.66,0.22 -6.1,0.08 -1,-0.12 -2.33,-0.26 -3.97,-0.46 -1.68,-0.2 -2.87,-0.25 -3.55,-0.17 -1.56,0.2 -2.47,0.82 -2.75,1.85 -0.23,1.1 -0.29,2.44 -0.06,4.03zm3.26 25.86c0.29,2.44 1.36,4.34 3.15,5.71 1.68,1.42 3.63,1.98 5.96,1.68 2.5,-0.31 4.4,-1.42 5.68,-3.29 1.22,-1.9 1.7,-3.97 1.42,-6.16 -0.2,-1.53 -0.74,-2.9 -1.67,-4.06 -0.88,-1.19 -1.96,-2.07 -3.35,-2.61 -1.36,-0.6 -2.75,-0.8 -4.23,-0.6 0,0 -0.03,0 -0.05,0 -2.24,0.29 -4.06,1.31 -5.42,3.07 -1.28,1.81 -1.76,3.89 -1.48,6.27zm56.83 -40.13l-0.63 -7.8c2.78,-0.23 5.48,0.11 8.01,0.97 2.5,0.85 4.65,2.32 6.3,4.4 1.64,2.07 2.55,4.71 2.81,7.95 0.14,1.85 -0.03,3.52 -0.51,5.08 -0.54,1.53 -1.34,2.84 -2.41,3.97 -0.99,1.19 -2.21,2.13 -3.66,2.84 1.81,0.51 3.66,1.68 5.48,3.49 1.81,1.87 2.87,4.85 3.2,9.02 0.23,3.38 -0.2,6.56 -1.39,9.57 -1.19,3.01 -3.12,5.51 -5.82,7.44 -2.61,1.99 -5.85,3.12 -9.65,3.41 -3.24,0.25 -6.47,-0.17 -9.62,-1.22 -3.26,-1.16 -5.96,-3.03 -8.06,-5.62 -2.19,-2.61 -3.44,-5.93 -3.75,-9.94 -0.17,-2.13 -0.17,-4 -0.06,-5.59l10.99 -0.82c-0.66,1.87 -0.94,3.78 -0.8,5.65 0.28,3.09 1.36,5.51 3.26,7.32 1.9,1.76 4.29,2.56 7.1,2.36 1.42,-0.11 2.7,-0.54 3.89,-1.31 1.22,-0.74 2.24,-1.96 2.92,-3.69 0.74,-1.73 1.02,-4 0.82,-6.76 -0.2,-2.36 -0.82,-4.26 -1.99,-5.73 -1.14,-1.44 -2.78,-2.1 -4.91,-1.93l-2.3 0.17 -0.57 -7.92 2.41 -0.17c1.76,-0.14 3.15,-0.97 4.14,-2.47 0.97,-1.42 1.36,-3.12 1.19,-5.05 -0.4,-5.36 -2.56,-7.89 -6.41,-7.61zm31.53 -7.41l9.36 0.23c-0.14,0.57 -0.22,1.39 -0.28,2.44 0,0.59 0.23,1.19 0.63,1.76 0.37,0.57 1.05,0.85 1.93,0.88 0.85,0.03 1.61,-0.2 2.3,-0.65 0.71,-0.37 1.62,-1.05 2.75,-2.02 1.08,-1.08 1.79,-1.76 2.13,-2.02 1.53,-1.1 3.09,-1.64 4.66,-1.62 0.96,0.03 1.9,0.37 2.89,1.02 1,0.68 1.73,1.62 2.24,2.84 2.5,-2.38 5.68,-3.52 9.59,-3.41 2.1,0.06 4.06,0.54 5.82,1.48 1.7,0.94 3.07,2.27 4.03,3.97 0.99,1.65 1.48,3.55 1.45,5.68l-0.65 26.03c-0.14,4.57 -1.14,8.4 -2.98,11.55 -1.81,3.09 -4.34,5.42 -7.63,6.96 -3.24,1.53 -6.96,2.27 -11.18,2.16 -4.46,-0.12 -8.23,-1.22 -11.38,-3.27 -3.2,-2.04 -5.51,-4.59 -7.01,-7.72 -1.53,-3.07 -2.33,-6.22 -2.22,-9.48 0.06,-2.92 0.34,-5.28 0.77,-7.07l11.04 0.28c-0.97,1.99 -1.48,4.32 -1.53,7.04 -0.08,2.36 0.42,4.49 1.48,6.33 1,1.85 2.39,3.29 4.23,4.34 1.76,1.02 3.66,1.59 5.79,1.62 3.24,0.08 5.88,-0.94 7.95,-3.09 2.04,-2.07 3.12,-5 3.24,-8.68l0.59 -24.78c0.12,-3.58 -1.05,-5.4 -3.46,-5.45 -1.08,-0.03 -2.07,0.31 -2.9,1.02 -0.8,0.77 -1.25,2.04 -1.28,3.8l-0.28 9.42 -9.37 -0.22 0.23 -9c0,-1.76 -0.06,-3.09 -0.31,-4.03 -0.23,-1.02 -0.88,-1.53 -1.93,-1.56 -0.85,-0.03 -1.87,0.8 -3.12,2.47 -1.48,1.9 -2.81,3.29 -3.95,4.2 -1.22,0.91 -3.01,1.33 -5.28,1.28 -1.39,-0.06 -2.75,-0.37 -4.09,-0.97 -1.36,-0.65 -2.44,-1.76 -3.35,-3.29 -0.93,-1.62 -1.33,-3.69 -1.28,-6.24 0.03,-1.87 0.17,-3.29 0.37,-4.23zm101.9 6.87l9.28 1.19c-0.48,3.69 -2.02,6.39 -4.65,8.06 -2.58,1.73 -6.67,3.2 -12.18,4.51 -5.48,1.31 -9.68,2.47 -12.6,3.52 -2.92,1.08 -5.42,2.92 -7.46,5.62 2.38,-1.48 5.11,-2.02 8.17,-1.64 3.95,0.51 6.96,2.55 9.14,6.16 3.21,-2.92 7.38,-4.06 12.6,-3.38 2.64,0.31 4.88,1.28 6.79,2.81 1.87,1.5 3.26,3.58 4.14,6.22 0.82,2.61 1.02,5.59 0.57,8.97 -0.63,5.02 -2.98,9.77 -7.12,14.19l-10.13 -1.27c4.2,-5.54 6.58,-10.62 7.21,-15.19 0.34,-2.61 0,-4.59 -1,-5.93 -0.99,-1.36 -2.21,-2.1 -3.6,-2.3 -1.45,-0.17 -2.75,0.17 -3.95,1.02 -1.19,0.88 -1.9,2.22 -2.13,3.97l-0.8 6.02 -9.31 -1.19 0.74 -6.02c0.2,-1.53 -0.2,-2.95 -1.19,-4.26 -1.02,-1.22 -2.41,-1.96 -4.2,-2.19 -1.68,-0.2 -3.24,0.25 -4.77,1.36 -1.53,1.14 -2.44,3.03 -2.78,5.73 -0.29,2.02 -0.23,4.46 0.2,7.32 0.31,2.81 1.19,5.73 2.64,8.72l-10.13 -1.28c-2.39,-6.96 -3.24,-13.17 -2.5,-18.68 0.45,-3.83 1.48,-7.21 2.98,-10.05 1.5,-2.87 3.6,-5.34 6.36,-7.41 2.73,-2.1 6.16,-3.83 10.3,-5.19 2.21,-0.71 4.63,-1.39 7.38,-2.04 2.84,-0.63 4.8,-1.14 5.99,-1.56 1.19,-0.37 2.27,-0.99 3.24,-1.87 1.02,-0.93 1.93,-2.24 2.78,-3.94zm43.43 25.23l-9.28 -2.16c0.03,-0.8 0.23,-1.9 0.54,-3.32 0.63,-2.55 1.88,-4.82 3.78,-6.81 1.9,-1.96 4.34,-3.35 7.35,-4.14 2.95,-0.82 6.3,-0.82 9.96,0.03 6.19,1.42 10.13,4.23 12.01,8.43 1.76,4.09 1.93,9.31 0.48,15.64l-4.46 19.33c-1.28,5.4 -3.78,9.23 -7.58,11.55 -3.86,2.32 -8.46,2.87 -13.85,1.62 -3.75,-0.85 -6.98,-2.39 -9.65,-4.54 -2.67,-2.19 -4.54,-4.83 -5.59,-7.89 -1.1,-3.12 -1.22,-6.53 -0.37,-10.24 0.48,-2.05 1.02,-3.75 1.56,-5.19l10.67 2.47c-1.11,1.62 -1.93,3.43 -2.41,5.48 -0.71,3.07 -0.37,5.7 0.99,7.89 1.39,2.19 3.38,3.58 5.99,4.17 2.1,0.48 4.29,0.28 6.53,-0.66 2.21,-0.93 3.77,-3.46 4.68,-7.6l5.08 -21.8c0.71,-3.07 0.46,-5.51 -0.65,-7.38 -1.16,-1.88 -2.92,-3.12 -5.31,-3.67 -2.53,-0.57 -4.68,-0.25 -6.53,0.94 -1.9,1.22 -3.09,2.84 -3.58,4.88 -0.2,1.02 -0.37,2.02 -0.37,2.98z"/>
   <path class="fil4" d="M899.65 101.93l-4.09 12.01c3.66,-0.82 7.44,-0.6 11.3,0.74 2.89,0.97 5.19,2.58 7.01,4.83 1.73,2.21 2.87,4.74 3.21,7.58 0.4,2.84 0.17,5.62 -0.77,8.26 -0.82,2.44 -2.24,4.63 -4.29,6.62 -1.98,1.9 -4.54,3.18 -7.72,3.86 -3.07,0.65 -6.41,0.37 -10.13,-0.88 -3.29,-1.14 -6.07,-2.81 -8.37,-5.05 -2.3,-2.24 -3.8,-4.8 -4.54,-7.72 -0.8,-2.9 -0.65,-5.85 0.37,-8.89l8.77 -25.88c1.5,-4.51 3.77,-7.24 6.78,-8.23 2.98,-0.99 6.11,-0.94 9.48,0.2 1.36,0.45 4.14,1.87 8.32,4.17 1.59,0.94 3.03,1.62 4.37,2.07 2.72,0.93 5.22,1.14 7.55,0.59l-3.07 8.94c-2.19,0.34 -4.48,0.06 -7.04,-0.8 -1.56,-0.54 -3.43,-1.39 -5.53,-2.61 -0.82,-0.51 -1.99,-1.22 -3.38,-2.13 -1.45,-0.94 -2.53,-1.51 -3.12,-1.73 -1.51,-0.48 -2.58,-0.34 -3.27,0.48 -0.71,0.88 -1.33,2.07 -1.84,3.58zm-8.38 24.69c-0.76,2.33 -0.68,4.49 0.31,6.5 0.91,2.02 2.44,3.37 4.63,4.11 2.41,0.83 4.63,0.65 6.56,-0.48 1.96,-1.19 3.27,-2.81 3.95,-4.91 0.51,-1.48 0.65,-2.92 0.31,-4.37 -0.23,-1.45 -0.88,-2.75 -1.87,-3.83 -1,-1.11 -2.13,-1.9 -3.52,-2.39 0,0 -0.05,0 -0.11,0 -2.1,-0.74 -4.14,-0.62 -6.19,0.37 -1.9,1.05 -3.26,2.72 -4.06,4.99zm78.74 -13.76l8.89 4.03c-0.63,0.54 -1.17,1.36 -1.65,2.47 -0.37,0.8 -0.54,1.56 -0.48,2.3 0.12,0.71 0.34,1.36 0.8,1.96 0.34,0.57 0.82,1.17 1.39,1.76 0.68,0.57 1.39,1.25 2.19,2.02 1.82,1.73 3.1,3.52 3.67,5.36 0.59,1.82 0.31,3.89 -0.74,6.28 -0.96,2.07 -2.53,3.49 -4.74,4.26 -2.16,0.8 -4.54,0.94 -7.07,0.48 2.04,1.79 3.43,3.97 4.12,6.56 0.68,2.55 0.39,5.25 -0.85,8.09 -1.33,2.84 -3.41,5.08 -6.24,6.67 -2.84,1.64 -6.16,2.41 -10.07,2.36 -3.84,0.03 -7.89,-0.91 -12.06,-2.81 -2.87,-1.27 -5.48,-2.95 -8.01,-4.99 -2.44,-2.07 -4.48,-4.63 -6.05,-7.61 -1.56,-3.01 -2.36,-6.56 -2.32,-10.62 0.05,-4.06 1.16,-8.6 3.43,-13.6 1.99,-4.31 4.71,-8.46 8.18,-12.4 3.49,-4.03 7.32,-7.29 11.47,-9.85l9.51 4.31c-5.51,3.52 -9.77,7.09 -12.72,10.73 -2.92,3.61 -5.36,7.55 -7.35,11.89 -3.15,7.04 -3.77,12.55 -1.76,16.44 2.07,3.89 5,6.73 8.94,8.48 3.83,1.76 7.21,2.19 9.96,1.36 2.84,-0.88 4.77,-2.53 5.85,-4.97 0.54,-1.19 0.82,-2.47 0.76,-3.86 -0.08,-1.42 -0.51,-2.75 -1.42,-4 -0.88,-1.33 -2.24,-2.41 -4.12,-3.24l-4.14 -1.9 3.2 -7.16 5.54 2.5c2.15,0.97 3.92,1.48 5.28,1.48 1.36,0.03 2.41,-0.82 3.2,-2.53 0.63,-1.45 0.77,-2.58 0.4,-3.43 -0.51,-0.91 -1.36,-1.79 -2.58,-2.64 -1.36,-0.93 -2.38,-1.73 -3.12,-2.36 -0.76,-0.63 -1.36,-1.42 -1.87,-2.33 -0.6,-0.88 -0.94,-1.98 -1.02,-3.29 -0.14,-1.42 0.2,-2.92 0.88,-4.51 0.65,-1.36 1.56,-2.58 2.75,-3.69zm23.76 72.72l-8.14 -4.71c0.68,-4.57 1.53,-8.66 2.55,-12.27 1.02,-3.6 2.07,-6.75 3.15,-9.42 1.14,-2.64 2.21,-4.94 3.38,-6.92 1.53,-2.64 2.98,-4.94 4.37,-6.9 1.5,-1.93 3.2,-3.63 5.11,-5.08 2.21,-1.68 4.57,-2.81 7.01,-3.49 2.44,-0.65 4.89,-0.82 7.38,-0.51 2.53,0.34 4.94,1.19 7.27,2.55 2.58,1.48 4.71,3.32 6.27,5.48 1.56,2.19 2.61,4.46 3.18,6.87 0.62,2.39 0.76,4.77 0.45,7.12 -0.31,2.3 -0.97,4.6 -1.93,6.93 -1.11,2.33 -2.36,4.77 -3.84,7.32 -1.48,2.64 -3.32,5.28 -5.45,7.89 -2.16,2.61 -4.43,5.14 -6.93,7.52 -2.47,2.44 -5.05,4.72 -7.75,6.87l-8.15 -4.71c2.92,-2.47 5.48,-4.8 7.64,-7.01 2.21,-2.15 4.26,-4.46 6.02,-6.87 1.85,-2.36 3.6,-4.97 5.28,-7.89 2.04,-3.49 3.55,-6.61 4.57,-9.34 1.05,-2.78 1.34,-5.34 0.94,-7.66 -0.34,-2.41 -1.76,-4.32 -4.2,-5.71 -2.38,-1.39 -4.71,-1.62 -6.96,-0.71 -2.21,0.83 -4.29,2.39 -6.16,4.66 -1.9,2.3 -3.8,5.19 -5.82,8.63 -2.41,4.23 -4.34,8.6 -5.82,13.11 -1.45,4.6 -2.64,9.34 -3.44,14.25zm44.62 26.74l-7.95 -5.11c0.91,-4.51 1.98,-8.55 3.15,-12.09 1.19,-3.58 2.44,-6.64 3.66,-9.28 1.22,-2.55 2.44,-4.82 3.66,-6.75 1.68,-2.56 3.26,-4.77 4.77,-6.67 1.56,-1.84 3.32,-3.46 5.34,-4.85 2.27,-1.53 4.65,-2.58 7.15,-3.12 2.47,-0.54 4.91,-0.59 7.35,-0.17 2.5,0.48 4.91,1.45 7.15,2.92 2.56,1.59 4.51,3.52 5.99,5.76 1.45,2.24 2.41,4.57 2.9,7.01 0.48,2.41 0.51,4.8 0.05,7.15 -0.37,2.27 -1.16,4.54 -2.27,6.81 -1.16,2.27 -2.55,4.65 -4.11,7.15 -1.65,2.56 -3.61,5.08 -5.85,7.61 -2.27,2.5 -4.68,4.91 -7.29,7.15 -2.61,2.33 -5.28,4.49 -8.03,6.5l-7.97 -5.11c3.07,-2.3 5.7,-4.51 8.01,-6.62 2.3,-2.04 4.46,-4.26 6.36,-6.58 1.93,-2.24 3.83,-4.8 5.65,-7.61 2.15,-3.41 3.83,-6.45 4.99,-9.14 1.19,-2.7 1.62,-5.22 1.34,-7.61 -0.29,-2.41 -1.59,-4.37 -3.95,-5.9 -2.33,-1.48 -4.6,-1.81 -6.87,-1.02 -2.3,0.71 -4.4,2.19 -6.44,4.37 -1.96,2.19 -4.06,4.99 -6.19,8.31 -2.61,4.09 -4.8,8.38 -6.42,12.83 -1.76,4.51 -3.09,9.19 -4.17,14.05zm67.27 10.84l8.03 6.33c-0.45,0.37 -1.02,0.99 -1.73,1.9 -0.54,0.68 -0.91,2.16 -1.05,4.37 -0.17,2.02 -0.46,3.63 -0.71,4.83 -0.28,1.19 -0.97,2.5 -2.07,3.95 -1.82,2.27 -4.09,4.03 -6.87,5.28 -2.81,1.27 -5.82,1.73 -9.03,1.39 -3.29,-0.31 -6.53,-1.7 -9.62,-4.12 -3.29,-2.64 -5.51,-5.36 -6.64,-8.18 -1.08,-2.81 -1.42,-5.48 -1.02,-7.95 0.42,-2.47 1.11,-4.63 2.07,-6.47 1.08,-1.81 2.15,-3.49 3.35,-4.94l22.45 -28.58 7.41 5.82 -21.77 27.65c-1.76,2.27 -3.09,4.31 -3.92,6.1 -0.82,1.81 -1.05,3.55 -0.71,5.22 0.34,1.7 1.42,3.29 3.29,4.8 1.31,1 2.73,1.59 4.32,1.76 1.48,0.2 3.01,-0.03 4.51,-0.65 1.39,-0.63 2.61,-1.59 3.61,-2.84 1.19,-1.53 2.02,-4.09 2.58,-7.66 0.05,-0.71 0.11,-1.45 0.25,-2.16 0.08,-0.77 0.17,-1.45 0.34,-2.04 0.2,-0.57 0.48,-1.11 0.82,-1.53 0.85,-1.08 1.56,-1.85 2.1,-2.27zm52.68 48.42l7.07 7.41c-0.51,0.28 -1.14,0.82 -1.98,1.62 -0.63,0.59 -1.19,2.02 -1.68,4.17 -0.48,1.99 -0.91,3.55 -1.36,4.68 -0.45,1.14 -1.33,2.36 -2.64,3.63 -2.1,1.96 -4.6,3.38 -7.55,4.23 -2.92,0.85 -5.99,0.88 -9.11,0.08 -3.24,-0.8 -6.21,-2.61 -8.91,-5.45 -2.92,-3.07 -4.74,-6.07 -5.42,-9.03 -0.71,-2.95 -0.65,-5.62 0.12,-8.03 0.74,-2.38 1.76,-4.43 2.95,-6.07 1.34,-1.67 2.64,-3.15 4,-4.46l26.34 -25.09 6.47 6.84 -25.46 24.27c-2.07,1.98 -3.66,3.83 -4.77,5.48 -1.08,1.68 -1.56,3.35 -1.42,5.06 0.06,1.73 0.91,3.49 2.58,5.22 1.14,1.16 2.44,1.96 3.97,2.36 1.48,0.42 3.01,0.4 4.57,-0.03 1.45,-0.4 2.78,-1.17 3.97,-2.27 1.36,-1.34 2.58,-3.75 3.63,-7.24 0.14,-0.68 0.34,-1.39 0.59,-2.1 0.17,-0.74 0.4,-1.36 0.63,-1.93 0.29,-0.57 0.65,-1.02 1.02,-1.42 0.99,-0.93 1.85,-1.59 2.38,-1.93zm41.05 9.54l6.67 7.69c-0.51,0.23 -0.94,0.54 -1.39,0.91 -1.51,1.31 -2.56,2.84 -3.12,4.57 -0.62,1.7 -0.88,3.32 -0.82,4.88 0,1.59 0.14,3.6 0.46,6.04 0.51,3.78 0.54,6.96 0.05,9.57 -0.45,2.61 -1.31,4.85 -2.55,6.76 -1.22,1.93 -2.98,3.86 -5.23,5.82 -2.87,2.49 -5.73,4.29 -8.48,5.33 -2.78,1.05 -5.42,1.48 -7.92,1.25 -2.44,-0.2 -4.71,-0.88 -6.87,-2.04 -2.1,-1.17 -3.97,-2.7 -5.68,-4.63 -2.07,-2.41 -3.55,-5.11 -4.43,-8.09 -0.77,-2.98 -0.71,-6.05 0.28,-9.2 0.91,-3.07 2.92,-5.9 5.96,-8.54 1.44,-1.28 3.15,-2.39 5.11,-3.32l6.7 7.72c-1.93,0.88 -3.52,1.93 -4.85,3.04 -2.58,2.27 -4.09,4.63 -4.43,7.09 -0.34,2.41 0.28,4.49 1.81,6.28 2.24,2.64 4.83,3.46 7.58,2.49 2.81,-0.99 5.31,-2.41 7.55,-4.34 2.02,-1.76 3.46,-3.32 4.43,-4.74 0.88,-1.48 1.42,-3.63 1.62,-6.47 0.14,-2.7 0.11,-5.08 -0.2,-7.21 -0.25,-2.04 -0.42,-3.8 -0.57,-5.33 -0.28,-1.48 -0.25,-3.1 0.06,-4.91 0.37,-1.98 0.97,-3.49 1.73,-4.57 0.82,-1.14 1.79,-2.16 2.9,-3.1 1.53,-1.36 2.75,-2.36 3.63,-2.95zm33.97 42.44l5.93 8.31c-0.51,0.2 -1.02,0.46 -1.5,0.77 -1.59,1.16 -2.78,2.58 -3.55,4.26 -0.74,1.62 -1.19,3.21 -1.28,4.77 -0.17,1.59 -0.2,3.63 -0.14,6.07 0.17,3.8 -0.14,6.98 -0.85,9.51 -0.68,2.56 -1.73,4.74 -3.15,6.5 -1.45,1.81 -3.38,3.54 -5.79,5.28 -3.09,2.21 -6.1,3.72 -8.91,4.51 -2.92,0.79 -5.56,0.93 -8.03,0.48 -2.44,-0.42 -4.63,-1.33 -6.61,-2.7 -2.02,-1.33 -3.72,-3.07 -5.25,-5.14 -1.85,-2.61 -3.01,-5.42 -3.61,-8.46 -0.51,-3.06 -0.14,-6.1 1.14,-9.14 1.22,-2.98 3.5,-5.62 6.73,-7.95 1.59,-1.14 3.44,-2.07 5.48,-2.81l5.9 8.32c-1.99,0.71 -3.69,1.56 -5.14,2.58 -2.81,1.99 -4.51,4.2 -5.06,6.62 -0.63,2.36 -0.17,4.51 1.17,6.41 2.01,2.84 4.48,3.92 7.32,3.21 2.87,-0.71 5.51,-1.9 7.89,-3.61 2.19,-1.53 3.84,-2.95 4.89,-4.29 1.05,-1.36 1.79,-3.46 2.27,-6.27 0.37,-2.67 0.54,-5.08 0.45,-7.21 -0.06,-2.04 -0.08,-3.83 -0.08,-5.36 -0.08,-1.51 0.12,-3.12 0.57,-4.88 0.6,-1.93 1.31,-3.38 2.16,-4.4 0.97,-1.02 1.96,-1.96 3.12,-2.78 1.73,-1.22 3.07,-2.07 3.95,-2.61zm21.15 57.76l-4.68 -8.15c0.88,-0.68 1.76,-1.31 2.7,-1.81 2.3,-1.34 4.68,-1.96 7.1,-1.85 2.38,0.08 4.6,0.88 6.67,2.33 2.07,1.39 3.8,3.29 5.19,5.73 2.05,3.55 2.81,7.04 2.19,10.42 -0.65,3.43 -2.89,6.24 -6.7,8.46 -0.74,0.42 -1.82,0.97 -3.24,1.68 -1.42,0.71 -2.47,1.28 -3.21,1.68 -1.05,0.59 -1.85,1.48 -2.5,2.64 -0.42,0.71 -0.71,1.96 -0.93,3.83 -0.23,1.9 -0.46,3.46 -0.74,4.72 -0.25,1.25 -0.94,2.64 -2.05,4.11 -1.08,1.56 -2.72,2.95 -4.88,4.2 -3.01,1.73 -6.13,2.56 -9.4,2.47 -3.2,-0.06 -6.24,-1.08 -9.14,-3.04 -2.98,-1.9 -5.51,-4.71 -7.64,-8.4 -2.27,-3.92 -3.52,-7.72 -3.83,-11.36 -0.37,-3.63 0.11,-6.84 1.45,-9.57 1.48,-2.81 3.55,-4.97 6.24,-6.53 5.65,-3.27 11.18,-3.38 16.63,-0.31 3.63,1.98 7.04,5.34 10.19,9.96 1.14,-0.59 2.75,-1.51 4.94,-2.75l1.9 -1.08c4,-2.33 5.34,-4.72 3.97,-7.16 -0.74,-1.27 -1.76,-2.19 -3.09,-2.67 -1.36,-0.48 -2.92,-0.22 -4.74,0.8 -1.11,0.65 -1.93,1.19 -2.41,1.65zm-21.57 9.91c-2.41,1.39 -4,3.43 -4.63,6.1 -0.8,2.61 -0.23,5.51 1.62,8.74 1.53,2.67 3.54,4.54 5.96,5.62 2.39,1.05 4.88,0.8 7.58,-0.74 2.87,-1.64 4.51,-3.83 5.02,-6.61 0.51,-2.75 0.05,-5.51 -1.53,-8.18 -0.91,-1.65 -2.16,-3.01 -3.69,-4.12 -1.56,-1.08 -3.24,-1.73 -4.99,-1.9 -1.85,-0.28 -3.63,0.09 -5.34,1.08zm47.37 41.5l-3.92 -8.68c0.65,-0.46 1.62,-0.97 2.95,-1.56 2.41,-1.08 4.97,-1.48 7.72,-1.16 2.72,0.34 5.31,1.45 7.72,3.35 2.47,1.85 4.48,4.51 6.05,7.95 2.61,5.73 2.78,10.65 0.59,14.65 -2.19,3.89 -6.27,7.18 -12.15,9.85l-18.11 8.18c-5.06,2.3 -9.65,2.61 -13.77,0.99 -4.17,-1.64 -7.41,-4.97 -9.68,-10.02 -1.62,-3.52 -2.36,-6.98 -2.24,-10.45 0.14,-3.43 1.08,-6.53 2.89,-9.22 1.79,-2.78 4.46,-4.94 7.92,-6.5 1.9,-0.88 3.61,-1.5 5.08,-1.9l4.51 9.96c-1.98,0.08 -3.92,0.57 -5.82,1.42 -2.87,1.31 -4.77,3.15 -5.68,5.59 -0.94,2.39 -0.8,4.83 0.28,7.27 0.91,1.96 2.38,3.58 4.46,4.8 2.13,1.17 5.08,0.88 8.91,-0.85l20.38 -9.23c2.92,-1.31 4.71,-2.95 5.5,-4.97 0.83,-2.07 0.71,-4.23 -0.28,-6.42 -1.08,-2.38 -2.64,-3.94 -4.68,-4.65 -2.13,-0.8 -4.14,-0.74 -6.04,0.11 -1,0.43 -1.85,0.94 -2.61,1.51zm23.25 46.72l-11.75 4.63c2.98,2.27 5.23,5.31 6.73,9.08 1.08,2.84 1.39,5.68 0.82,8.48 -0.59,2.78 -1.81,5.23 -3.71,7.33 -1.9,2.15 -4.17,3.75 -6.82,4.8 -2.38,0.93 -4.99,1.25 -7.8,0.97 -2.75,-0.31 -5.39,-1.42 -7.92,-3.38 -2.49,-1.93 -4.43,-4.71 -5.9,-8.31 -1.25,-3.27 -1.76,-6.47 -1.56,-9.68 0.29,-3.18 1.22,-5.99 2.95,-8.46 1.76,-2.44 4.09,-4.26 7.04,-5.42l25.46 -10.02c4.4,-1.76 7.95,-1.79 10.64,-0.17 2.67,1.64 4.68,4.09 5.93,7.38 0.54,1.34 1.31,4.37 2.22,9.06 0.31,1.81 0.71,3.35 1.22,4.68 1.1,2.67 2.53,4.71 4.43,6.13l-8.77 3.46c-1.68,-1.45 -2.95,-3.41 -3.95,-5.9 -0.65,-1.56 -1.16,-3.52 -1.59,-5.93 -0.14,-0.97 -0.31,-2.27 -0.57,-3.97 -0.23,-1.68 -0.42,-2.84 -0.71,-3.46 -0.57,-1.48 -1.39,-2.19 -2.44,-2.19 -1.11,0 -2.44,0.31 -3.95,0.91zm-24.21 9.54c-2.3,0.91 -3.92,2.39 -4.8,4.46 -0.91,1.99 -1.02,4.03 -0.17,6.19 0.97,2.36 2.5,3.95 4.63,4.68 2.16,0.71 4.26,0.68 6.3,-0.14 1.42,-0.57 2.61,-1.42 3.52,-2.58 1,-1.14 1.53,-2.47 1.7,-3.92 0.26,-1.48 0.12,-2.87 -0.42,-4.23 0,0 -0.05,-0.03 -0.05,-0.08 -0.8,-2.07 -2.24,-3.58 -4.29,-4.48 -2.07,-0.8 -4.2,-0.77 -6.42,0.11zm35.23 34.69l2.81 9.82c-5.4,-1.84 -10.62,-2.04 -15.78,-0.57 -3.09,0.88 -5.62,2.3 -7.49,4.23 -1.93,2.04 -3.15,4.51 -3.61,7.38 -0.51,2.87 -0.23,6.1 0.74,9.65 1.31,4.46 3.07,7.69 5.45,9.71 2.33,1.98 4.63,3.06 6.99,3.23 2.27,0.2 4.34,0.03 6.16,-0.48 7.43,-2.13 11.44,-6.02 11.97,-11.72 -1.73,2.5 -4.2,4.2 -7.49,5.14 -3.07,0.88 -5.79,0.42 -8.06,-1.33 -2.33,-1.76 -3.89,-4.06 -4.72,-6.98 -0.57,-2.13 -0.71,-4.15 -0.28,-6.07 0.28,-1.99 1.08,-3.72 2.27,-5.14 1.22,-1.45 2.81,-2.44 4.82,-3.01 4.46,-1.25 8.21,-0.06 11.16,3.58 0.34,-1.93 1.08,-3.72 2.41,-5.39 1.19,-1.65 2.95,-2.78 5.31,-3.46 1.87,-0.51 3.67,-0.46 5.37,0.2 1.7,0.63 3.2,1.76 4.43,3.38 1.25,1.53 2.19,3.32 2.75,5.36 0.54,1.87 0.71,3.63 0.57,5.25 -0.05,1.64 -0.4,3.12 -0.99,4.43 -0.59,1.31 -1.31,2.36 -2.19,3.24 -0.94,0.85 -1.87,1.42 -2.92,1.7 -3.26,0.93 -6.19,0.31 -8.83,-1.9 0.63,3.18 0.57,6.28 -0.08,9.37 -0.68,3.01 -2.07,5.73 -4.23,8.14 -2.1,2.39 -4.91,4.12 -8.57,5.14 -3.83,1.1 -7.58,1.25 -11.27,0.42 -3.75,-0.74 -7.15,-2.73 -10.19,-5.9 -3.09,-3.2 -5.42,-7.72 -7.09,-13.48 -1.39,-5 -2.07,-9.45 -2.02,-13.43 0.11,-3.86 0.82,-7.21 2.21,-9.96 1.31,-2.81 3.07,-5.08 5.31,-6.81 2.33,-1.76 4.97,-3.03 8.04,-3.92 5.28,-1.51 10.98,-1.42 17.06,0.2zm12.35 16.81c-1.17,0.34 -2.05,1.02 -2.64,2.13 -0.65,1.08 -0.8,2.21 -0.46,3.41 0.31,1.11 1,1.98 2.02,2.67 1.05,0.62 2.24,0.74 3.52,0.37 1.33,-0.37 2.3,-1.14 2.81,-2.27 0.51,-1.08 0.57,-2.15 0.29,-3.2 -0.31,-1.14 -0.99,-2.02 -2.13,-2.58 -1.05,-0.68 -2.22,-0.85 -3.41,-0.51zm-15.36 3.6c-1.22,0.34 -2.07,1.08 -2.64,2.21 -0.57,1.11 -0.74,2.22 -0.42,3.32 0.34,1.14 1.05,2.05 2.1,2.64 1.14,0.63 2.21,0.76 3.41,0.42 1.11,-0.31 1.96,-1.02 2.58,-2.1 0.68,-1.08 0.85,-2.21 0.51,-3.41 -0.34,-1.19 -1.05,-2.1 -2.19,-2.64 -1.08,-0.65 -2.21,-0.77 -3.35,-0.46zm15.33 78.26l-1.31 -10.19 14.67 -1.87c2.19,-0.29 3.78,-0.99 4.8,-2.19 0.91,-1.22 1.34,-2.53 1.17,-3.86 -0.23,-1.67 -1.02,-2.98 -2.39,-3.89 -1.5,-0.99 -3.41,-1.33 -5.79,-1.02l-24.32 3.09c-5.34,0.68 -10.7,2.5 -16.12,5.45l-1.19 -9.36c2.16,-1.48 4.34,-2.67 6.58,-3.58 2.22,-0.91 4.17,-1.56 5.93,-1.93 1.73,-0.4 3.72,-0.71 5.9,-1l20.35 -2.58c3.84,-0.48 7.1,-0.14 9.79,1.02 2.7,1.22 4.77,2.92 6.3,5.17 1.42,2.21 2.36,4.71 2.7,7.49 0.51,4.03 -0.48,7.69 -2.98,11.04 3.23,2.64 5.14,6.19 5.73,10.67 0.31,2.39 0.03,4.8 -0.76,7.27 -0.88,2.44 -2.44,4.57 -4.71,6.39 -2.33,1.81 -5.45,2.98 -9.4,3.49l-20.32 2.58c-3.72,0.48 -7.12,0.59 -10.24,0.37 -3.07,-0.25 -6.13,-0.93 -9.26,-2.07l-1.19 -9.37c2.58,0.71 4.82,1.14 6.78,1.36 1.93,0.23 3.67,0.34 5.19,0.28 1.56,-0.03 3.27,-0.17 5.02,-0.4l24.33 -3.09c2.38,-0.28 4.14,-1.08 5.33,-2.32 1.08,-1.25 1.53,-2.73 1.34,-4.46 -0.17,-1.34 -0.85,-2.47 -2.07,-3.35 -1.31,-0.97 -3.03,-1.28 -5.22,-1.02l-14.65 1.87z"/>
   <path class="fil4" d="M84.81 826.93l-1.36 11.78c-6.58,-0.57 -11.72,-2.58 -15.5,-5.99 -3.77,-3.41 -6.22,-8.18 -7.38,-14.28 -1.39,-7.58 0.06,-14.28 4.34,-20.1 4.29,-5.82 10.92,-9.54 19.87,-11.18 9.48,-1.73 17.31,-0.63 23.48,3.29 6.1,3.92 9.93,9.88 11.38,17.86 1.31,6.98 0.25,13.03 -3.09,18.14 -1.93,3.03 -5.11,5.62 -9.43,7.75l-4.8 -10.87c2.84,-1.22 4.91,-3.07 6.24,-5.51 1.28,-2.47 1.65,-5.22 1.11,-8.26 -0.76,-4.23 -2.92,-7.38 -6.41,-9.45 -3.52,-2.07 -8.68,-2.5 -15.44,-1.25 -7.18,1.31 -12.09,3.55 -14.67,6.7 -2.58,3.15 -3.49,6.81 -2.7,10.96 0.57,3.07 1.98,5.51 4.37,7.35 2.33,1.85 5.65,2.89 9.99,3.07zm11.81 25.15c5.65,-1.59 10.67,-2.07 15.05,-1.48 3.18,0.48 6.24,1.5 9.11,3.03 2.84,1.56 5.19,3.49 7.07,5.79 2.41,3.06 4.29,6.87 5.54,11.41 2.36,8.23 1.64,15.5 -2.1,21.89 -3.72,6.36 -10.11,10.81 -19.22,13.37 -9.02,2.55 -16.78,2.07 -23.19,-1.39 -6.5,-3.46 -10.9,-9.28 -13.2,-17.48 -2.3,-8.29 -1.62,-15.59 2.07,-21.92 3.66,-6.3 9.96,-10.73 18.88,-13.23zm3.6 11.5c-6.3,1.79 -10.67,4.6 -13.11,8.43 -2.47,3.83 -3.04,8.01 -1.79,12.49 1.31,4.48 3.92,7.72 8.01,9.71 4,1.96 9.28,2.04 15.78,0.23 6.39,-1.79 10.73,-4.54 13.08,-8.23 2.39,-3.69 2.93,-7.86 1.59,-12.52 -1.28,-4.63 -3.97,-7.95 -7.95,-9.88 -3.95,-1.96 -9.19,-2.05 -15.61,-0.23zm-8.6 67.78l53.93 -20.98 6.36 16.38 -33.01 23.95 40.51 -4.74 6.39 16.4 -53.96 20.98 -3.92 -10.11 42.44 -16.55 -46.58 5.88 -4.09 -10.5 38.32 -27.11 -42.46 16.49 -3.92 -10.11zm30.43 71.87l51.74 -26 8.43 16.75c3.15,6.33 5.02,10.59 5.48,12.77 0.71,3.35 0.23,6.7 -1.34,9.99 -1.59,3.32 -4.46,5.99 -8.57,8.06 -3.21,1.62 -6.16,2.36 -8.91,2.3 -2.73,-0.06 -5.17,-0.65 -7.27,-1.82 -2.16,-1.14 -3.86,-2.53 -5.17,-4.17 -1.76,-2.24 -3.83,-5.71 -6.21,-10.42l-3.38 -6.78 -19.53 9.79 -5.28 -10.47zm48.25 -11.13l-14.7 7.41 2.84 5.68c2.07,4.12 3.75,6.7 4.94,7.81 1.25,1.14 2.64,1.79 4.23,1.98 1.51,0.2 3.09,-0.08 4.6,-0.85 1.87,-0.97 3.18,-2.3 3.86,-4 0.68,-1.73 0.71,-3.49 0.2,-5.36 -0.4,-1.33 -1.53,-3.89 -3.44,-7.66l-2.53 -5zm-18.05 67.24l47.06 -33.72 24.98 34.82 -7.97 5.71 -18.11 -25.29 -10.45 7.49 16.83 23.53 -7.92 5.68 -16.86 -23.53 -12.77 9.14 18.82 26.23 -7.95 5.7 -25.66 -35.76zm46.61 61.82l37.78 -29.75 -10.59 -13.49 7.69 -6.04 28.36 36.08 -7.67 6.04 -10.53 -13.4 -37.81 29.75 -7.24 -9.19zm29.89 35.2l41.78 -40.05 8.15 8.46 -41.81 40.05 -8.12 -8.46zm32.96 32.47l33.04 -34.91 -12.4 -11.78 6.7 -7.12 33.33 31.59 -6.7 7.1 -12.38 -11.72 -33.12 34.91 -8.46 -8.06zm34.86 30l35.77 -45.47 9.25 7.24 -35.85 45.5 -9.17 -7.27zm38.72 -3.69c3.21,-4.97 6.64,-8.65 10.3,-11.07 2.7,-1.76 5.65,-3.01 8.85,-3.75 3.15,-0.74 6.19,-0.83 9.11,-0.34 3.83,0.68 7.75,2.3 11.72,4.89 7.18,4.63 11.47,10.56 12.89,17.79 1.44,7.24 -0.4,14.82 -5.54,22.74 -5.11,7.86 -11.18,12.66 -18.34,14.33 -7.12,1.67 -14.3,0.2 -21.4,-4.4 -7.27,-4.68 -11.61,-10.62 -13,-17.79 -1.39,-7.15 0.37,-14.65 5.39,-22.4zm10.36 6.22c-3.58,5.51 -5,10.5 -4.29,14.99 0.71,4.51 3.01,8.01 6.92,10.56 3.95,2.53 8.06,3.18 12.38,2.02 4.37,-1.22 8.38,-4.65 11.98,-10.28 3.61,-5.59 5.11,-10.56 4.43,-14.87 -0.65,-4.34 -3.04,-7.8 -7.12,-10.42 -4.03,-2.61 -8.23,-3.35 -12.46,-2.19 -4.29,1.19 -8.23,4.57 -11.84,10.19zm38.29 58.19l26.17 -51.63 10.11 5.14 3.75 45.36 17.51 -34.57 9.65 4.88 -26.14 51.63 -10.45 -5.31 -3.75 -44.53 -17.2 33.95 -9.65 -4.91zm193.84 72.72l-12.35 -2.84 -1.87 -13.97 -22.62 -5.28 -7.63 11.75 -12.1 -2.81 35 -51.29 12.1 2.81 9.48 61.63zm-15.67 -27.19l-3.01 -22.71 -12.49 19.1 15.5 3.6zm60.49 13.11l1.19 -9.71 24.92 3.07 -2.78 22.91c-2.73,2.07 -6.5,3.71 -11.33,4.97 -4.8,1.22 -9.6,1.56 -14.31,0.97 -6.02,-0.74 -11.1,-2.64 -15.24,-5.71 -4.14,-3.06 -7.07,-7.09 -8.74,-12.09 -1.7,-4.97 -2.19,-10.22 -1.5,-15.75 0.76,-5.99 2.67,-11.16 5.7,-15.5 3.12,-4.37 7.21,-7.5 12.32,-9.4 3.95,-1.45 8.66,-1.85 14.11,-1.17 7.15,0.88 12.52,3.04 16.21,6.53 3.63,3.52 5.71,7.95 6.19,13.4l-11.81 0.74c-0.48,-2.92 -1.73,-5.34 -3.78,-7.24 -2.02,-1.93 -4.65,-3.07 -8.03,-3.49 -5.02,-0.63 -9.28,0.51 -12.63,3.35 -3.37,2.87 -5.48,7.46 -6.27,13.79 -0.82,6.81 0.08,12.12 2.7,15.93 2.61,3.77 6.36,5.96 11.24,6.56 2.41,0.31 4.94,0.11 7.49,-0.54 2.56,-0.63 4.8,-1.53 6.7,-2.7l0.88 -7.29 -13.23 -1.62zm43.88 25.38l1.73 -57.85 42.77 1.28 -0.28 9.76 -31.11 -0.93 -0.37 12.86 28.96 0.85 -0.29 9.79 -28.98 -0.85 -0.43 15.67 32.22 0.97 -0.25 9.76 -43.97 -1.31zm64.12 1.81l-4.37 -57.73 11.33 -0.85 26.65 36.87 -2.92 -38.69 10.82 -0.82 4.4 57.73 -11.67 0.88 -26.31 -36.16 2.9 37.95 -10.82 0.82zm101.13 -33.94l11.78 1.36c-0.57,6.59 -2.58,11.75 -5.99,15.53 -3.43,3.78 -8.15,6.22 -14.28,7.35 -7.55,1.39 -14.25,-0.06 -20.07,-4.34 -5.85,-4.29 -9.59,-10.9 -11.21,-19.87 -1.73,-9.48 -0.65,-17.28 3.29,-23.44 3.95,-6.13 9.91,-9.94 17.88,-11.41 6.98,-1.28 13,-0.25 18.08,3.09 3.04,1.96 5.62,5.11 7.78,9.42l-10.9 4.8c-1.22,-2.81 -3.01,-4.88 -5.48,-6.21 -2.47,-1.31 -5.19,-1.68 -8.26,-1.14 -4.2,0.79 -7.41,2.92 -9.45,6.44 -2.07,3.49 -2.47,8.66 -1.25,15.44 1.34,7.18 3.58,12.06 6.73,14.64 3.12,2.58 6.75,3.5 10.93,2.73 3.03,-0.57 5.53,-2.02 7.38,-4.37 1.81,-2.36 2.84,-5.68 3.03,-10.02zm48.97 10.9l-6.62 -23.48 -29.49 -26.54 13.2 -3.69 19.36 18.37 6.67 -25.69 12.92 -3.63 -11.33 38.09 6.56 23.39 -11.27 3.18zm112 -72.52c-2.95,-5.11 -4.66,-9.85 -5.17,-14.19 -0.34,-3.21 -0.14,-6.41 0.68,-9.59 0.79,-3.15 2.07,-5.9 3.8,-8.26 2.38,-3.15 5.62,-5.9 9.65,-8.26 7.43,-4.29 14.64,-5.42 21.74,-3.41 7.07,2.01 13.03,7.09 17.74,15.27 4.71,8.09 6.22,15.72 4.43,22.82 -1.73,7.15 -6.25,12.83 -13.63,17.11 -7.46,4.31 -14.7,5.48 -21.74,3.49 -7.04,-2.02 -12.89,-6.98 -17.51,-14.99zm10.24 -6.39c3.29,5.68 7.07,9.23 11.41,10.62 4.31,1.42 8.51,0.94 12.52,-1.39 4.09,-2.36 6.53,-5.73 7.46,-10.13 0.88,-4.43 -0.34,-9.54 -3.72,-15.35 -3.38,-5.73 -7.1,-9.28 -11.3,-10.65 -4.15,-1.36 -8.29,-0.85 -12.46,1.59 -4.2,2.41 -6.7,5.82 -7.63,10.16 -0.88,4.34 0.34,9.4 3.71,15.16zm68.52 -7.78l-33.69 -47.03 32.33 -23.19 5.68 7.97 -22.82 16.32 8.03 11.19 19.73 -14.14 5.68 7.95 -19.73 14.14 14.36 19.98 -9.57 6.81zm102.1 -114.19l-7.1 -6.79 17.4 -18.13 16.69 15.95c0.03,3.41 -0.91,7.41 -2.81,12.04 -1.93,4.6 -4.51,8.63 -7.8,12.06 -4.17,4.37 -8.74,7.29 -13.71,8.8 -4.91,1.48 -9.88,1.39 -14.88,-0.25 -4.97,-1.62 -9.51,-4.37 -13.51,-8.23 -4.34,-4.17 -7.38,-8.8 -9.03,-13.85 -1.62,-5.08 -1.67,-10.25 -0.11,-15.5 1.14,-4 3.66,-8 7.46,-12.01 4.97,-5.16 9.94,-8.2 14.9,-9.02 4.99,-0.82 9.79,0.2 14.45,3.03l-6.44 9.94c-2.64,-1.39 -5.31,-1.85 -8.06,-1.36 -2.73,0.48 -5.25,1.93 -7.61,4.37 -3.49,3.69 -5.17,7.72 -4.88,12.15 0.25,4.4 2.7,8.83 7.29,13.23 4.97,4.77 9.74,7.24 14.36,7.41 4.6,0.17 8.57,-1.51 12.01,-5.08 1.7,-1.76 3.04,-3.89 4.06,-6.3 0.96,-2.44 1.59,-4.77 1.81,-7.01l-5.31 -5.08 -9.19 9.65zm45.16 -20.41l-45.7 -35.57 26.31 -33.81 7.72 5.99 -19.1 24.58 10.13 7.89 17.77 -22.85 7.72 6.02 -17.77 22.85 12.4 9.62 19.76 -25.46 7.75 6.02 -26.99 34.71zm13.26 -63.58c-5.14,-2.95 -8.94,-6.22 -11.55,-9.74 -1.9,-2.61 -3.32,-5.51 -4.2,-8.65 -0.91,-3.15 -1.14,-6.16 -0.76,-9.08 0.48,-3.89 1.9,-7.89 4.26,-11.95 4.23,-7.41 9.96,-11.98 17.08,-13.79 7.18,-1.79 14.85,-0.31 23.02,4.4 8.09,4.68 13.17,10.56 15.25,17.6 2.04,7.04 0.91,14.28 -3.32,21.63 -4.29,7.46 -10.02,12.09 -17.12,13.85 -7.07,1.76 -14.62,0.34 -22.65,-4.26zm5.68 -10.65c5.68,3.29 10.76,4.46 15.22,3.52 4.46,-0.94 7.83,-3.41 10.16,-7.46 2.36,-4.03 2.78,-8.21 1.39,-12.49 -1.39,-4.26 -5.02,-8.09 -10.84,-11.44 -5.79,-3.32 -10.79,-4.54 -15.07,-3.63 -4.31,0.88 -7.63,3.41 -10.07,7.61 -2.41,4.17 -2.92,8.38 -1.51,12.57 1.39,4.23 4.94,8.01 10.73,11.33zm56.51 -40.51l-52.79 -23.7 10.05 -22.45c2.53,-5.65 4.88,-9.54 6.98,-11.67 2.07,-2.16 4.65,-3.44 7.78,-3.89 3.15,-0.46 6.27,0.03 9.4,1.42 3.95,1.79 6.7,4.4 8.23,7.89 1.56,3.49 1.59,7.66 0.2,12.6 2.38,-1.7 4.74,-2.92 7.01,-3.69 2.24,-0.8 6.02,-1.51 11.3,-2.22l13.2 -1.81 -5.76 12.74 -14.96 2.5c-5.31,0.88 -8.74,1.62 -10.28,2.16 -1.5,0.54 -2.72,1.27 -3.63,2.21 -0.88,0.97 -1.87,2.7 -2.98,5.14l-0.97 2.16 22.02 9.91 -4.8 10.7zm-25.66 -24.38l3.52 -7.89c2.33,-5.11 3.55,-8.37 3.69,-9.85 0.14,-1.48 -0.17,-2.81 -0.94,-4 -0.74,-1.19 -1.9,-2.15 -3.49,-2.87 -1.76,-0.8 -3.41,-0.97 -4.94,-0.51 -1.53,0.46 -2.81,1.51 -3.83,3.1 -0.54,0.82 -1.76,3.37 -3.72,7.69l-3.69 8.31 13.4 6.02zm41.73 -70.36l-9.26 -3.12 8.01 -23.85 21.86 7.35c1.5,3.07 2.38,7.1 2.58,12.09 0.28,4.97 -0.37,9.71 -1.9,14.22 -1.9,5.73 -4.8,10.33 -8.63,13.79 -3.86,3.43 -8.38,5.48 -13.57,6.13 -5.25,0.65 -10.47,0.08 -15.75,-1.7 -5.7,-1.9 -10.42,-4.83 -14.05,-8.72 -3.63,-3.89 -5.9,-8.51 -6.73,-13.94 -0.66,-4.14 -0.12,-8.8 1.67,-14.05 2.27,-6.81 5.51,-11.67 9.65,-14.54 4.14,-2.87 8.91,-4 14.33,-3.41l-1.62 11.75c-2.95,-0.14 -5.59,0.6 -7.86,2.19 -2.27,1.62 -3.97,4 -4.99,7.21 -1.65,4.83 -1.39,9.17 0.71,13.06 2.16,3.89 6.22,6.84 12.23,8.89 6.53,2.19 11.95,2.39 16.18,0.57 4.2,-1.79 7.1,-5.02 8.68,-9.71 0.8,-2.32 1.11,-4.8 0.99,-7.43 -0.17,-2.64 -0.57,-5 -1.33,-7.12l-6.96 -2.33 -4.26 12.66zm33.15 -37.01l-56.35 -13.11 2.61 -11.41 56.43 13.11 -2.7 11.41zm16.91 -84.07l-2.32 12.4 -13.85 2.55 -4.17 22.82 12.12 7.12 -2.24 12.18 -52.91 -32.53 2.22 -12.18 61.16 -12.38zm-26.48 16.92l-22.54 4.06 19.7 11.55 2.84 -15.61z"/>
   <path class="fil4" d="M709.61 150.12c154.49,0 294.37,62.65 395.65,163.87 101.25,101.25 163.84,241.12 163.84,395.62 0,154.49 -62.59,294.35 -163.84,395.6 -101.28,101.25 -241.15,163.86 -395.65,163.86 -154.47,0 -294.35,-62.62 -395.57,-163.86 -101.25,-101.25 -163.86,-241.1 -163.86,-395.6 0,-154.5 62.62,-294.38 163.86,-395.62 101.22,-101.22 241.1,-163.87 395.57,-163.87zm382.34 177.15c-97.84,-97.84 -233.01,-158.36 -382.34,-158.36 -149.3,0 -284.44,60.52 -382.28,158.36 -97.84,97.84 -158.41,233.01 -158.41,382.34 0,149.3 60.57,284.47 158.41,382.31 97.84,97.87 232.98,158.38 382.28,158.38 149.33,0 284.49,-60.51 382.34,-158.38 97.84,-97.84 158.38,-233.01 158.38,-382.31 0,-149.33 -60.54,-284.5 -158.38,-382.34z"/>
   <path class="fil2" d="M1329.24 702.23c7.78,0 14.08,6.3 14.08,14.08 0,7.78 -6.3,14.08 -14.08,14.08 -7.8,0 -14.13,-6.3 -14.13,-14.08 0,-7.78 6.33,-14.08 14.13,-14.08z"/>
   <path class="fil2" d="M78.2 702.23c7.78,0 14.08,6.3 14.08,14.08 0,7.78 -6.3,14.08 -14.08,14.08 -7.81,0 -14.08,-6.3 -14.08,-14.08 0,-7.78 6.27,-14.08 14.08,-14.08z"/>
   <path class="fil4" d="M709.64 0c195.97,0 373.34,79.42 501.75,207.83 128.41,128.41 207.86,305.84 207.86,501.78 0,195.94 -79.45,373.34 -207.86,501.75 -128.41,128.41 -305.79,207.86 -501.75,207.86 -195.94,0 -373.37,-79.45 -501.78,-207.86 -128.41,-128.41 -207.86,-305.81 -207.86,-501.75 0,-195.97 79.45,-373.37 207.86,-501.78 128.41,-128.41 305.84,-207.83 501.78,-207.83zm488.5 221.12c-125,-125.01 -297.75,-202.36 -488.5,-202.36 -190.74,0 -363.46,77.35 -488.47,202.36 -125.06,125 -202.35,297.72 -202.35,488.5 0,190.77 77.29,363.46 202.35,488.5 125.01,125.01 297.72,202.33 488.47,202.33 190.74,0 363.49,-77.32 488.5,-202.33 125.01,-125.03 202.35,-297.72 202.35,-488.5 0,-190.77 -77.35,-363.49 -202.35,-488.5z"/>
  </g>
 </g>
</svg>
