<?xml version="1.0" encoding="UTF-8"?>
<!DOCTYPE svg PUBLIC "-//W3C//DTD SVG 1.1//EN" "http://www.w3.org/Graphics/SVG/1.1/DTD/svg11.dtd">
<!-- Creator: CorelDRAW 2019 (64-Bit) -->
<svg xmlns="http://www.w3.org/2000/svg" xml:space="preserve" width="2.16893in" height="0.648693in" version="1.1" style="shape-rendering:geometricPrecision; text-rendering:geometricPrecision; image-rendering:optimizeQuality; fill-rule:evenodd; clip-rule:evenodd"
viewBox="0 0 2040.5 610.28"
 xmlns:xlink="http://www.w3.org/1999/xlink"
 xmlns:xodm="http://www.corel.com/coreldraw/odm/2003">
 <defs>
  <style type="text/css">
   <![CDATA[
    .fil0 {fill:#00AD57;fill-rule:nonzero}
   ]]>
  </style>
 </defs>
 <g id="Layer_x0020_1">
  <metadata id="CorelCorpID_0Corel-Layer"/>
  <g id="_1711808493104">
   <polygon class="fil0" points="832.35,110.95 776.9,110.95 776.9,499.33 832.35,499.33 "/>
   <polygon class="fil0" points="839.28,305.02 1008.09,110.94 1081.5,110.94 912.71,305.02 1081.5,499.33 1008.09,499.33 "/>
   <path class="fil0" d="M83.24 514.52l0.03 -418.87c-51.6,54.65 -83.27,128.38 -83.27,209.48 0,81.06 31.67,154.73 83.24,209.38z"/>
   <path class="fil0" d="M221.91 11.51c26.43,-7.5 54.4,-11.51 83.34,-11.51 62.99,0 121.44,19.05 170.09,51.79l-253.34 253.22 253.36 253.45c-48.67,32.75 -107.12,51.83 -170.11,51.83 -28.94,0 -56.8,-4.09 -83.27,-11.62l0.02 -587.08 -0.09 -0.07z"/>
   <path class="fil0" d="M521.05 89.43l-146.57 146.51 204.47 204.16c20.08,-40.64 31.38,-86.53 31.38,-134.95 0,-84.28 -34.07,-160.52 -89.28,-215.72z"/>
   <path class="fil0" d="M1220.75 166.42l-76.28 0 0 332.89 -55.72 0 0 -388.37 132.01 0.1c72.59,0 131.47,58.91 131.47,131.58 0,58.86 -38.79,108.68 -92.08,125.41l102.7 131.28 -70.6 0 -141.04 -180.51 69.55 0c42.04,0 76.17,-34.15 76.17,-76.19 0,-42.05 -34.13,-76.16 -76.17,-76.16l0 -0.03z"/>
   <polygon class="fil0" points="1456.41,110.95 1400.97,110.95 1400.97,499.33 1456.41,499.33 "/>
   <polygon class="fil0" points="1463.34,305.02 1632.14,110.94 1705.49,110.94 1536.69,305.02 1705.49,499.33 1632.14,499.33 "/>
   <path class="fil0" d="M1969.77 499.31l-60.13 -90.12 -141.01 0 0 90.12 -55.45 0 0 -388.35 55.45 0 271.87 388.35 -67.47 0 -3.26 0zm-201.14 -291.79l0 146.18 102.25 0 -102.25 -146.18z"/>
  </g>
 </g>
</svg>
