<?xml version="1.0" encoding="UTF-8"?>
<!DOCTYPE svg PUBLIC "-//W3C//DTD SVG 1.1//EN" "http://www.w3.org/Graphics/SVG/1.1/DTD/svg11.dtd">
<!-- Creator: CorelDRAW 2019 (64-Bit) -->
<svg xmlns="http://www.w3.org/2000/svg" xml:space="preserve" width="2.74301in" height="0.900173in" version="1.1" style="shape-rendering:geometricPrecision; text-rendering:geometricPrecision; image-rendering:optimizeQuality; fill-rule:evenodd; clip-rule:evenodd"
viewBox="0 0 2291.37 751.96"
 xmlns:xlink="http://www.w3.org/1999/xlink"
 xmlns:xodm="http://www.corel.com/coreldraw/odm/2003">
 <defs>
  <style type="text/css">
   <![CDATA[
    .fil0 {fill:#373435}
    .fil1 {fill:#00AFEF}
   ]]>
  </style>
 </defs>
 <g id="Layer_x0020_1">
  <metadata id="CorelCorpID_0Corel-Layer"/>
  <g id="_1713029347952">
   <path class="fil0" d="M27.48 725.1l90.89 0 0 24.79 -118.37 0 0 -194.19 27.48 0 0 169.39zm2230.06 -169.39l33.83 0 -71.88 92.96 0 101.22 -29.59 0 0 -103.29 -73.99 -90.89 35.94 0 52.85 68.17 52.83 -68.17zm-207.15 41.32l31.71 70.24 -61.3 0 29.59 -70.24zm10.57 -41.32l-21.13 0 -84.55 194.19 29.59 0 23.24 -57.84 84.55 0 27.49 57.84 27.47 0 -86.66 -194.19zm-124.71 43.37c-16.91,-16.52 -33.83,-20.64 -46.51,-20.64 -19.02,0 -31.71,10.33 -31.71,22.72 0.01,37.19 86.67,37.19 86.67,99.16 0,30.98 -25.37,51.64 -57.08,51.64 -21.13,0 -38.05,-4.13 -54.96,-16.52l0.01 -35.13c14.79,16.53 31.71,26.86 52.84,26.86 21.14,0 31.71,-12.4 31.71,-24.78 0,-39.25 -84.56,-43.39 -84.56,-97.09 0.01,-31 23.25,-51.65 59.19,-51.65 14.81,0 29.59,4.13 44.39,14.46l0.01 30.97zm-312.86 53.72c0,-41.31 33.82,-72.3 78.21,-72.3 44.39,-0.01 76.1,30.99 76.1,72.3 0.01,43.37 -31.71,74.37 -76.1,74.37 -44.39,0 -78.21,-30.99 -78.21,-74.37zm-29.59 0c0,53.71 42.27,99.16 105.69,99.16 67.65,0 107.8,-45.45 107.8,-99.16 0,-53.73 -40.16,-99.16 -105.69,-99.16 -65.53,0 -107.81,45.44 -107.8,99.15zm-112.04 -72.3l33.83 0c25.37,0 33.81,16.53 33.81,31 0,18.58 -14.79,28.92 -35.93,28.92l-31.71 -0.01 0 -59.91zm-27.47 -24.79l0 194.19 27.47 0 0 -82.63 29.6 0c46.51,0 67.64,-24.79 67.64,-55.77 0,-31 -21.14,-55.78 -63.41,-55.78l-61.29 0zm-105.7 117.76l69.76 0 0 26.85 -69.76 0 0 -26.85zm-23.24 -92.97l-82.45 0 0 59.91 80.33 0 0 24.79 -80.33 0 0 59.91 86.67 0 0 24.79 -116.26 0 0 -194.19 112.04 0 0 24.79zm-156.44 169.4l-27.47 0 0 -84.7 -112.03 0 0 84.7 -27.48 0 0 -194.19 27.48 0 0 84.7 112.03 0 0 -84.7 27.47 0 0 194.19zm-205.04 -150.81c-23.25,-12.39 -44.39,-18.58 -67.64,-18.58 -44.39,-0.01 -78.21,30.99 -78.21,72.3 0,43.37 31.71,74.37 80.33,74.37 21.14,0 46.51,-8.25 67.64,-22.72l0 30.98c-19.02,10.33 -40.16,16.53 -71.87,16.53 -73.98,0 -105.68,-55.78 -105.68,-95.02 0,-59.91 44.39,-103.29 107.8,-103.29 21.14,0 42.27,4.13 67.64,16.53l0 28.91zm-386.82 53.72c0,-41.31 33.82,-72.3 78.21,-72.3 44.4,-0.01 76.1,30.99 76.1,72.3 0,43.37 -31.7,74.37 -76.1,74.37 -44.39,0 -78.21,-30.99 -78.21,-74.37zm-27.48 0c0,53.71 40.16,99.16 103.58,99.16 67.64,0 107.8,-45.45 107.8,-99.16 0,-53.73 -40.16,-99.16 -105.69,-99.16 -65.53,0 -105.69,45.44 -105.69,99.15zm-122.61 -72.3l19.03 0c27.48,0 38.05,10.34 38.05,28.92 2.12,16.53 -6.34,30.99 -38.05,30.99l-19.03 -0.01 0 -59.91zm-27.47 -24.79l0 194.19 27.47 0 0 -82.63 12.69 0c14.79,0 27.48,4.13 52.84,43.38l25.37 39.25 33.82 0c-12.68,-18.59 -19.02,-24.78 -25.36,-37.18 -16.91,-24.79 -27.48,-43.38 -44.39,-53.71 21.14,-8.26 31.7,-24.79 31.7,-47.51 0,-35.13 -25.36,-55.78 -63.41,-55.78l-50.73 0zm-183.9 41.32l31.71 70.24 -61.3 0 29.59 -70.24zm10.57 -41.32l-21.14 0 -84.55 194.19 29.59 0 25.37 -57.84 82.43 0 27.48 57.84 29.59 0 -88.77 -194.19z"/>
   <polygon class="fil1" points="946.98,495.8 1321.14,495.8 1321.14,0 946.98,0 "/>
  </g>
 </g>
</svg>
