<?xml version="1.0" encoding="UTF-8"?>
<!DOCTYPE svg PUBLIC "-//W3C//DTD SVG 1.1//EN" "http://www.w3.org/Graphics/SVG/1.1/DTD/svg11.dtd">
<!-- Creator: CorelDRAW 2019 (64-Bit) -->
<svg xmlns="http://www.w3.org/2000/svg" xml:space="preserve" width="2.24179in" height="1.89405in" version="1.1" style="shape-rendering:geometricPrecision; text-rendering:geometricPrecision; image-rendering:optimizeQuality; fill-rule:evenodd; clip-rule:evenodd"
viewBox="0 0 7813.77 6601.72"
 xmlns:xlink="http://www.w3.org/1999/xlink"
 xmlns:xodm="http://www.corel.com/coreldraw/odm/2003">
 <defs>
  <style type="text/css">
   <![CDATA[
    .str0 {stroke:#00416A;stroke-width:10.46;stroke-miterlimit:2.61313}
    .fil1 {fill:#00416A}
    .fil2 {fill:#F0EC83}
    .fil0 {fill:#00416A;fill-rule:nonzero}
   ]]>
  </style>
 </defs>
 <g id="Layer_x0020_1">
  <metadata id="CorelCorpID_0Corel-Layer"/>
  <g id="_2048011748208">
   <path class="fil0" d="M7661.51 4790.88l-709.96 0 0 0.32 -0.1 0 0 -0.32c-4.49,0 -8.84,2.02 -12.2,5.3l0.19 0.18c-3.38,3.36 -5.5,7.64 -5.5,11.91l0.33 0 0 0.21 0 210 0 0.1 -0.33 0c0,4.6 1.99,8.91 5.16,12.08 3.33,3.32 7.71,5.42 12.24,5.42l0 -0.32 0.21 0 0 0.32 670.66 0c5.43,0 10.77,0.49 15.92,1.48 45.11,3.84 85.67,23.9 115.82,54.12 33.44,33.51 54.22,65.84 54.31,116.98l0.33 0 0 0.21 0 245.01 0 0.11 -0.33 0c-0.04,51.27 -21.05,97.87 -54.77,131.57 -33.47,33.43 -79.89,54.27 -131.06,54.37l0 0.33 -0.22 0 0 -0.33 -856.42 0 137.77 -168.44 718.65 0 0 -0.33 0.22 0 0 0.33c4.43,0 8.8,-2.11 12.16,-5.48 3.21,-3.22 5.23,-7.52 5.23,-12.02l-0.33 0 0 -0.11 0 -245.01 0 -0.21 0.33 0c0,-4.49 -2.1,-8.82 -5.42,-12.17 -3.2,-3.2 -7.53,-5.23 -12.08,-5.23l0 0.33 -0.11 0 0 -0.33 -670.66 0c-5.52,0 -10.88,-0.56 -16.1,-1.56 -44.9,-3.87 -85.27,-23.63 -115.26,-53.59 -33.69,-33.66 -54.66,-80.26 -54.7,-131.63l-0.33 0 0 -0.1 0 -195.9 0 -0.21 0.33 0c0.1,-51.54 20.95,-98.02 54.4,-131.46l0.32 0c33.54,-33.51 80.06,-54.34 131.24,-54.38l0 -0.32 0.1 0 0 0.32 850.88 0 -140.92 168.46z"/>
   <path class="fil0" d="M930.18 5625.86l-738.6 0 -0.11 0 0 -0.33c-51.54,-0.04 -98.14,-20.89 -131.64,-54.38l0 -0.32c-33.41,-33.47 -54.22,-79.86 -54.31,-131.13l-0.33 0 0 -0.21 0 -829.72 169.1 0 0 829.72 0 0.21 -0.33 0c0,4.45 2.04,8.75 5.27,12.06l0.15 -0.16c3.38,3.38 7.7,5.49 12.09,5.49l0 -0.33 0.11 0 879.52 0 -140.92 169.1z"/>
   <path class="fil0" d="M6555.51 4609.11l0 830.37 0 0.1 -0.32 0c-0.04,51.32 -21.02,97.95 -54.73,131.61 -33.47,33.44 -79.85,54.24 -131.12,54.34l0 0.33 -0.21 0 -698.79 0 -0.11 0 0 -0.33c-51.21,-0.04 -97.77,-20.94 -131.43,-54.56l-0.18 0.16c-33.44,-33.44 -54.23,-79.92 -54.33,-131.45l-0.33 0 0 -0.21 0 -830.37 169.1 0 0 830.37 0 0.21 -0.33 0c0,4.3 2.1,8.56 5.43,11.9l0 0.33c3.17,3.17 7.48,5.17 12.06,5.17l0 -0.33 0.11 0 698.79 0 0.21 0 0 0.33c4.5,0 8.88,-2.1 12.21,-5.45 3.17,-3.17 5.17,-7.48 5.17,-12.06l-0.32 0 0 -0.1 0 -830.37 169.09 0z"/>
   <path class="fil0" d="M3272.81 5610.73l-659.02 -818.64c-2.57,-3.21 -5.26,-5.93 -7.95,-8.08 -5.49,-4.36 -10.95,-6.56 -15.68,-6.56l0 0.33c-4.99,0 -10.43,2.1 -15.66,6.27l-0.18 -0.23c-2.14,1.73 -4.71,4.51 -7.71,8.27l-661.38 818.64 -215.99 0 745.25 -923.69c10.14,-12.73 21.94,-24.36 34.98,-34.79l0 -0.34c36.13,-28.82 78.18,-43.24 120.69,-43.24l0 0.33c42.7,-0.01 84.83,14.29 120.72,42.88 12.54,10 24.33,21.75 35.03,35.16l83.65 104.87 83.65 -104.87c10.18,-12.73 21.98,-24.38 35.01,-34.8l0 -0.34c36.13,-28.83 78.2,-43.23 120.68,-43.23 42.5,0 84.57,14.44 120.68,43.24 12.54,10.02 24.32,21.75 34.99,35.13l742.92 923.69 -215.99 0 -659.05 -818.64c-2.57,-3.21 -5.24,-5.93 -7.9,-8.04 -5.23,-4.17 -10.66,-6.27 -15.64,-6.27 -4.97,0 -10.43,2.1 -15.64,6.24l-0.18 -0.22c-2.15,1.74 -4.73,4.53 -7.74,8.29l-107.8 135.14 551.12 683.5 -215.84 0z"/>
   <path class="fil0" d="M5009.38 5036.28c3.83,-0.54 7.73,-0.84 11.71,-0.84l0.1 0 0 0.33c4.51,0 8.84,-2.06 12.08,-5.3 3.33,-3.35 5.42,-7.68 5.42,-12.09l-0.32 0 0 -0.22 0 -217.03 0 -0.1 0.32 0c0,-4.43 -2.06,-8.71 -5.3,-11.95 -3.4,-3.4 -7.75,-5.54 -12.1,-5.54l0 0.32 -0.19 0 -741.21 0 -0.11 0 0 -0.32c-4.49,0 -8.89,2.11 -12.25,5.48 -3.21,3.21 -5.24,7.45 -5.24,11.91l0.33 0 0 0.21 0 407.43 0 68.01 0 169.97 0 0.22 -0.33 0c0,4.42 2.04,8.74 5.3,12.06l0.15 -0.16c3.38,3.36 7.68,5.48 12.05,5.48l0 -0.33 0.11 0 783.36 0 0.22 0 0 0.33c4.46,0 8.81,-2.1 12.17,-5.45 3.2,-3.18 5.2,-7.51 5.2,-12.03l-0.33 0 0 -0.11 0 -237.98 0 -0.21 0.33 0c0,-4.5 -2.1,-8.85 -5.42,-12.17 -3.2,-3.2 -7.52,-5.23 -12.08,-5.23l0 0.32 -0.1 0 -631.39 0 133.86 -155 443.66 0zm-915.88 240.29l0 -68.01 0 -407.43 0 -0.21 0.33 0c0.1,-51.34 21.16,-97.87 54.78,-131.46 33.58,-33.51 80.13,-54.34 131.16,-54.38l0 -0.32 0.11 0 734.15 0 0.21 0 0 0.32c51.09,0.1 97.55,21.02 131.01,54.45 33.73,33.7 54.79,80.36 54.84,131.5l0.33 0 0 0.1 0 202.94 0 0.22 -0.33 0c-0.04,25.1 -5.12,49.1 -14.23,70.99l2.07 2c33.44,33.52 54.2,79.95 54.31,131.08l0.32 0 0 0.21 0 237.98 0 0.11 -0.32 0c-0.04,51.31 -21.05,97.9 -54.75,131.58 -33.46,33.41 -79.86,54.24 -131.08,54.34l0 0.33 -0.21 0 -776.32 0 -0.11 0 0 -0.33c-51.47,-0.04 -98.09,-20.86 -131.6,-54.37l0 -0.33c-33.41,-33.46 -54.24,-79.85 -54.34,-131.12l-0.33 0 0 -0.22 0 -169.97z"/>
   <path class="fil0" d="M1202.94 5610.73l204.97 -245.26 -600 -756.64 215.8 0 491.31 623.21 498.25 -623.21 215.96 0c-268.82,335.78 -539.42,669.19 -812.08,1001.91l-214.21 0z"/>
  </g>
  <path class="fil1" d="M7272.86 3475.19c-997.76,-346.3 -1966.62,-601.95 -2941.61,-698.1 38.24,-947.58 127.62,-1857.59 314.41,-2777.09 -433.16,1027.02 -661.74,2072.67 -712.99,3134.44 1093.11,0 2255.18,159.39 3340.19,340.76z"/>
  <path class="fil2" d="M7575.99 4195.4c-2525.84,-914.38 -4982.55,-1036.31 -7338.21,0 2355.66,-499.13 4812.37,-440.4 7338.21,0z"/>
  <path class="fil2" d="M3621.46 2762.2c-1061.76,51.25 -2079.29,279.83 -3106.3,712.99 1027.02,-208.64 2072.67,-318.69 3134.44,-343.39 -9.37,-132.98 -18.79,-265.05 -28.13,-369.6z"/>
  <path class="fil0 str0" d="M317.81 6408.95c0,34.17 -6.87,65.85 -20.73,95.03 -13.85,29.17 -32.92,51.88 -57.31,68.13 -24.28,16.26 -50.33,24.38 -78.26,24.38 -41.25,0 -77.72,-17.51 -109.08,-52.61 -31.47,-35.02 -47.21,-80.03 -47.21,-134.93 0,-55.11 15.74,-100.12 47.21,-135.14 31.36,-34.9 67.83,-52.41 109.08,-52.41 27.93,0 53.98,8.14 78.16,24.38 24.17,16.25 43.34,38.97 57.2,68.04 13.97,29.06 20.94,60.75 20.94,95.12zm-25.62 0c-0.22,-41.68 -12.41,-79.08 -36.68,-112.21 -24.18,-33.14 -55.55,-49.7 -94,-49.7 -36.05,0 -66.79,15.84 -92.31,47.41 -25.52,31.56 -38.34,69.81 -38.34,114.5 0,47.62 13.45,86.48 40.11,116.59 26.79,30.22 57,45.33 90.54,45.33 38.45,0 69.82,-16.56 94,-49.59 24.28,-33.03 36.46,-70.44 36.68,-112.32zm127 -86.89l0 26.05c21.67,-23.23 43.45,-34.8 65.32,-34.8 13.24,0 24.7,3.44 34.7,10.42 9.89,6.98 18.24,17.51 24.89,31.67 11.47,-14.16 23.03,-24.69 34.8,-31.67 11.77,-6.97 23.55,-10.42 35.43,-10.42 18.54,0 33.35,6.04 44.38,18.03 14.49,15.41 21.78,32.29 21.78,50.53l0 179 21.26 0c6.26,0 10.73,1.15 13.45,3.54 2.7,2.29 4.06,5.42 4.06,9.28 0,3.65 -1.36,6.67 -4.06,9.17 -2.72,2.4 -7.19,3.65 -13.45,3.65l-46.89 0 0 -202.34c0,-13.02 -3.95,-23.86 -11.98,-32.4 -8.01,-8.55 -17.19,-12.82 -27.61,-12.82 -9.48,0 -19.38,3.54 -29.79,10.53 -10.43,6.97 -22.3,20.83 -35.64,41.36l0 170.04 21.26 0c6.24,0 10.73,1.15 13.43,3.54 2.72,2.29 4.08,5.42 4.08,9.28 0,3.65 -1.36,6.67 -4.08,9.17 -2.7,2.4 -7.19,3.65 -13.43,3.65l-46.89 0 0 -200.57c0,-13.65 -3.95,-24.91 -11.98,-33.76 -8.03,-8.85 -17.08,-13.23 -26.98,-13.23 -9.18,0 -18.14,2.91 -27.1,8.85 -12.39,8.34 -25.32,22.71 -38.96,43.03l0 170.04 21.26 0c6.24,0 10.73,1.15 13.43,3.54 2.72,2.29 4.06,5.42 4.06,9.28 0,3.65 -1.34,6.67 -4.06,9.17 -2.7,2.4 -7.19,3.65 -13.43,3.65l-68.15 0c-6.24,0 -10.73,-1.25 -13.43,-3.65 -2.72,-2.5 -4.06,-5.52 -4.06,-9.17 0,-3.86 1.34,-6.98 4.06,-9.28 2.7,-2.39 7.19,-3.54 13.43,-3.54l21.26 0 0 -213.17 -21.26 0c-6.24,0 -10.73,-1.15 -13.43,-3.55 -2.72,-2.39 -4.06,-5.52 -4.06,-9.26 0,-3.65 1.34,-6.67 4.06,-9.17 2.7,-2.4 7.19,-3.65 13.43,-3.65l46.89 0zm408.94 0l0 39.38c17.92,-18.24 34.07,-30.74 48.55,-37.72 14.48,-6.97 30.74,-10.42 48.87,-10.42 19.49,0 37.3,4.17 53.34,12.5 11.47,6.05 21.78,16.26 31.05,30.33 9.28,14.16 13.86,28.65 13.86,43.45l0 161.28 21.27 0c6.24,0 10.73,1.15 13.43,3.54 2.72,2.29 4.06,5.42 4.06,9.28 0,3.65 -1.34,6.67 -4.06,9.17 -2.7,2.4 -7.19,3.65 -13.43,3.65l-68.16 0c-6.35,0 -10.83,-1.25 -13.54,-3.65 -2.61,-2.5 -3.95,-5.52 -3.95,-9.17 0,-3.86 1.34,-6.98 3.95,-9.28 2.72,-2.39 7.19,-3.54 13.54,-3.54l21.26 0 0 -157.22c0,-18.13 -6.56,-33.44 -19.8,-45.94 -13.23,-12.51 -30.94,-18.76 -53.13,-18.76 -16.88,0 -31.56,3.43 -43.97,10.21 -12.39,6.87 -30.11,23.86 -53.13,51.05l0 160.66 28.13 0c6.24,0 10.73,1.15 13.43,3.54 2.72,2.29 4.06,5.42 4.06,9.28 0,3.65 -1.34,6.67 -4.06,9.17 -2.7,2.4 -7.19,3.65 -13.43,3.65l-81.9 0c-6.26,0 -10.73,-1.25 -13.43,-3.65 -2.72,-2.5 -4.08,-5.52 -4.08,-9.17 0,-3.86 1.36,-6.98 4.08,-9.28 2.7,-2.39 7.18,-3.54 13.43,-3.54l28.13 0 0 -213.17 -21.26 0c-6.24,0 -10.73,-1.15 -13.43,-3.55 -2.72,-2.39 -4.06,-5.52 -4.06,-9.26 0,-3.65 1.34,-6.67 4.06,-9.17 2.7,-2.4 7.19,-3.65 13.43,-3.65l46.89 0zm471.46 -131.28l0 65.63 -38.12 0 0 -65.63 38.12 0zm0.63 131.28l0 238.8 100.02 0c6.35,0 10.84,1.15 13.54,3.54 2.61,2.29 3.97,5.42 3.97,9.28 0,3.65 -1.36,6.67 -3.97,9.17 -2.7,2.4 -7.19,3.65 -13.54,3.65l-226.3 0c-6.05,0 -10.32,-1.25 -12.93,-3.65 -2.61,-2.5 -3.95,-5.52 -3.95,-9.17 0,-3.86 1.34,-6.98 3.95,-9.28 2.61,-2.39 6.87,-3.54 12.93,-3.54l100.64 0 0 -213.17 -74.39 0c-6.15,0 -10.62,-1.26 -13.34,-3.65 -2.81,-2.4 -4.16,-5.42 -4.16,-9.07 0,-3.75 1.34,-6.87 3.95,-9.26 2.7,-2.4 7.19,-3.65 13.54,-3.65l100.02 0zm435.19 264.43l0 -36.98c-37.39,31.36 -77.3,46.99 -119.81,46.99 -30.85,0 -54.9,-7.82 -72.3,-23.34 -17.4,-15.52 -26.06,-34.59 -26.06,-57.2 0,-24.8 11.47,-46.37 34.28,-64.91 22.93,-18.44 56.37,-27.72 100.23,-27.72 11.88,0 24.7,0.73 38.66,2.29 13.86,1.56 28.87,3.86 45.01,7.19l0 -41.58c0,-14.07 -6.56,-26.36 -19.58,-36.67 -13.13,-10.43 -32.71,-15.63 -58.97,-15.63 -20.01,0 -48.14,5.83 -84.3,17.5 -6.67,2.09 -10.84,3.13 -12.71,3.13 -3.33,0 -6.15,-1.25 -8.44,-3.65 -2.4,-2.39 -3.54,-5.52 -3.54,-9.17 0,-3.43 1.04,-6.15 3.02,-8.23 2.91,-3.02 14.48,-7.18 34.69,-12.39 31.78,-8.55 55.95,-12.82 72.21,-12.82 32.51,0 57.83,8.03 75.95,23.96 18.24,15.95 27.29,33.98 27.29,54.08l0 169.51 34.39 0c6.35,0 10.83,1.15 13.54,3.54 2.61,2.29 3.95,5.42 3.95,9.28 0,3.65 -1.34,6.67 -3.95,9.17 -2.72,2.4 -7.19,3.65 -13.54,3.65l-60.02 0zm0 -127.43c-12.08,-3.54 -24.8,-6.04 -38.34,-7.71 -13.43,-1.56 -27.71,-2.39 -42.61,-2.39 -37.41,0 -66.58,8.01 -87.63,24.07 -15.93,11.98 -23.96,26.36 -23.96,42.92 0,15.52 6.05,28.45 18.24,39.07 12.19,10.53 29.9,15.84 53.24,15.84 22.3,0 42.92,-4.38 62.09,-13.23 19.06,-8.86 38.75,-22.93 58.97,-42.2l0 -56.37zm694.23 20.53l-30.11 0 -98.16 -224.43 -4.99 0 0 305.7 47.51 0c6.26,0 10.73,1.15 13.45,3.54 2.7,2.29 4.06,5.42 4.06,9.28 0,3.65 -1.36,6.67 -4.06,9.17 -2.72,2.4 -7.19,3.65 -13.45,3.65l-94.4 0c-6.24,0 -10.73,-1.25 -13.43,-3.65 -2.72,-2.5 -4.06,-5.52 -4.06,-9.17 0,-3.86 1.34,-6.98 4.06,-9.28 2.7,-2.39 7.19,-3.54 13.43,-3.54l21.26 0 0 -305.7 -15.63 0c-6.24,0 -10.73,-1.14 -13.43,-3.54 -2.72,-2.29 -4.06,-5.42 -4.06,-9.28 0,-3.86 1.34,-6.97 4.06,-9.26 2.7,-2.4 7.19,-3.54 13.43,-3.54l62.93 0 96.48 220.56 94.51 -220.56 63.66 0c6.35,0 10.83,1.14 13.54,3.54 2.61,2.29 3.95,5.41 3.95,9.26 0,3.86 -1.34,6.98 -3.95,9.28 -2.72,2.4 -7.19,3.54 -13.54,3.54l-15.63 0 0 305.7 21.26 0c6.35,0 10.83,1.15 13.54,3.54 2.61,2.29 3.95,5.42 3.95,9.28 0,3.65 -1.34,6.67 -3.95,9.17 -2.72,2.4 -7.19,3.65 -13.54,3.65l-94.4 0c-6.15,0 -10.63,-1.25 -13.34,-3.65 -2.81,-2.5 -4.17,-5.52 -4.17,-9.17 0,-3.86 1.36,-6.98 3.97,-9.28 2.7,-2.39 7.19,-3.54 13.54,-3.54l47.51 0 0 -305.7 -5.63 0 -96.17 224.43zm496.37 -18.76l-261.3 0c4.47,33.03 18.33,59.6 41.57,79.81 23.23,20.12 51.99,30.22 86.38,30.22 19.06,0 39.07,-3.22 60.01,-9.58 20.84,-6.37 37.93,-14.7 51.16,-25.22 3.86,-3.02 7.19,-4.58 10,-4.58 3.22,0 6.15,1.25 8.54,3.86 2.4,2.5 3.65,5.52 3.65,9.07 0,3.43 -1.66,6.77 -4.9,10.1 -9.69,10.21 -26.98,19.8 -51.88,28.65 -24.8,8.85 -50.32,13.34 -76.48,13.34 -43.86,0 -80.43,-14.38 -109.71,-43.13 -29.28,-28.76 -43.98,-63.56 -43.98,-104.4 0,-37.2 13.75,-69.08 41.37,-95.76 27.51,-26.57 61.59,-39.9 102.31,-39.9 41.78,0 76.27,13.65 103.36,41.06 26.99,27.39 40.33,62.93 39.9,106.47zm-25.63 -25.63c-5.1,-28.54 -18.54,-51.68 -40.21,-69.49 -21.78,-17.81 -47.62,-26.77 -77.63,-26.77 -30.01,0 -55.85,8.85 -77.41,26.46 -21.67,17.62 -35.12,40.85 -40.43,69.81l235.67 0zm335.8 151.29l0 -36.98c-37.39,31.36 -77.3,46.99 -119.81,46.99 -30.85,0 -54.9,-7.82 -72.3,-23.34 -17.4,-15.52 -26.06,-34.59 -26.06,-57.2 0,-24.8 11.47,-46.37 34.28,-64.91 22.93,-18.44 56.37,-27.72 100.23,-27.72 11.88,0 24.7,0.73 38.66,2.29 13.86,1.56 28.87,3.86 45.01,7.19l0 -41.58c0,-14.07 -6.56,-26.36 -19.58,-36.67 -13.13,-10.43 -32.71,-15.63 -58.97,-15.63 -20.01,0 -48.14,5.83 -84.3,17.5 -6.67,2.09 -10.84,3.13 -12.71,3.13 -3.33,0 -6.15,-1.25 -8.44,-3.65 -2.4,-2.39 -3.54,-5.52 -3.54,-9.17 0,-3.43 1.04,-6.15 3.02,-8.23 2.91,-3.02 14.48,-7.18 34.69,-12.39 31.78,-8.55 55.95,-12.82 72.21,-12.82 32.51,0 57.83,8.03 75.95,23.96 18.24,15.95 27.29,33.98 27.29,54.08l0 169.51 34.39 0c6.35,0 10.83,1.15 13.54,3.54 2.61,2.29 3.95,5.42 3.95,9.28 0,3.65 -1.34,6.67 -3.95,9.17 -2.72,2.4 -7.19,3.65 -13.54,3.65l-60.02 0zm0 -127.43c-12.08,-3.54 -24.8,-6.04 -38.34,-7.71 -13.43,-1.56 -27.71,-2.39 -42.61,-2.39 -37.41,0 -66.58,8.01 -87.63,24.07 -15.93,11.98 -23.96,26.36 -23.96,42.92 0,15.52 6.05,28.45 18.24,39.07 12.19,10.53 29.9,15.84 53.24,15.84 22.3,0 42.92,-4.38 62.09,-13.23 19.06,-8.86 38.75,-22.93 58.97,-42.2l0 -56.37zm694.23 20.53l-30.11 0 -98.16 -224.43 -4.99 0 0 305.7 47.51 0c6.26,0 10.73,1.15 13.45,3.54 2.7,2.29 4.06,5.42 4.06,9.28 0,3.65 -1.36,6.67 -4.06,9.17 -2.72,2.4 -7.19,3.65 -13.45,3.65l-94.4 0c-6.24,0 -10.73,-1.25 -13.43,-3.65 -2.72,-2.5 -4.06,-5.52 -4.06,-9.17 0,-3.86 1.34,-6.98 4.06,-9.28 2.7,-2.39 7.19,-3.54 13.43,-3.54l21.26 0 0 -305.7 -15.63 0c-6.24,0 -10.73,-1.14 -13.43,-3.54 -2.72,-2.29 -4.06,-5.42 -4.06,-9.28 0,-3.86 1.34,-6.97 4.06,-9.26 2.7,-2.4 7.19,-3.54 13.43,-3.54l62.93 0 96.48 220.56 94.51 -220.56 63.66 0c6.35,0 10.83,1.14 13.54,3.54 2.61,2.29 3.95,5.41 3.95,9.26 0,3.86 -1.34,6.98 -3.95,9.28 -2.72,2.4 -7.19,3.54 -13.54,3.54l-15.63 0 0 305.7 21.26 0c6.35,0 10.83,1.15 13.54,3.54 2.61,2.29 3.95,5.42 3.95,9.28 0,3.65 -1.34,6.67 -3.95,9.17 -2.72,2.4 -7.19,3.65 -13.54,3.65l-94.4 0c-6.15,0 -10.63,-1.25 -13.34,-3.65 -2.81,-2.5 -4.17,-5.52 -4.17,-9.17 0,-3.86 1.36,-6.98 3.97,-9.28 2.7,-2.39 7.19,-3.54 13.54,-3.54l47.51 0 0 -305.7 -5.63 0 -96.17 224.43zm496.37 -18.76l-261.32 0c4.47,33.03 18.33,59.6 41.57,79.81 23.23,20.12 51.99,30.22 86.38,30.22 19.07,0 39.08,-3.22 60.02,-9.58 20.84,-6.37 37.93,-14.7 51.16,-25.22 3.86,-3.02 7.19,-4.58 10,-4.58 3.22,0 6.15,1.25 8.54,3.86 2.4,2.5 3.65,5.52 3.65,9.07 0,3.43 -1.66,6.77 -4.9,10.1 -9.69,10.21 -26.98,19.8 -51.88,28.65 -24.8,8.85 -50.32,13.34 -76.49,13.34 -43.86,0 -80.43,-14.38 -109.71,-43.13 -29.27,-28.76 -43.97,-63.56 -43.97,-104.4 0,-37.2 13.75,-69.08 41.36,-95.76 27.51,-26.57 61.59,-39.9 102.31,-39.9 41.8,0 76.28,13.65 103.37,41.06 26.99,27.39 40.33,62.93 39.9,106.47zm-25.63 -25.63c-5.1,-28.54 -18.54,-51.68 -40.21,-69.49 -21.78,-17.81 -47.62,-26.77 -77.64,-26.77 -30.01,0 -55.85,8.85 -77.41,26.46 -21.67,17.62 -35.12,40.85 -40.43,69.81l235.68 0zm369.56 -87.21l0 -8.54c0,-6.26 1.26,-10.73 3.65,-13.45 2.4,-2.59 5.42,-3.95 9.07,-3.95 3.75,0 6.87,1.36 9.26,3.95 2.4,2.61 3.65,7.09 3.65,13.34l0 57.83c-0.21,6.35 -1.45,10.84 -3.75,13.45 -2.29,2.59 -5.42,3.95 -9.17,3.95 -3.44,0 -6.35,-1.14 -8.65,-3.54 -2.29,-2.29 -3.65,-6.15 -4.08,-11.66 -1.25,-14.38 -10.73,-28.04 -28.65,-40.95 -17.81,-13.02 -41.77,-19.49 -71.99,-19.49 -38.13,0 -67.1,11.87 -86.79,35.64 -19.69,23.75 -29.48,51.05 -29.48,81.88 0,33.14 10.83,60.54 32.6,82.1 21.67,21.68 49.91,32.41 84.6,32.3 19.9,0 40.33,-3.65 61.07,-10.94 20.62,-7.4 39.27,-19.17 55.84,-35.43 4.17,-4.06 7.92,-6.15 11.25,-6.15 3.44,0 6.35,1.15 8.65,3.55 2.4,2.29 3.55,5.2 3.55,8.65 0,8.75 -10.32,19.9 -30.85,33.24 -33.13,21.78 -70.01,32.71 -110.75,32.71 -41.26,0 -75.23,-13.13 -101.79,-39.49 -26.57,-26.25 -39.8,-59.69 -39.8,-100.12 0,-41.26 13.54,-75.54 40.73,-102.74 27.2,-27.18 61.48,-40.84 102.84,-40.84 39.29,0 72.32,11.57 98.98,34.69zm354.58 238.5l0 -37.61c-34.81,31.78 -72.52,47.62 -113.06,47.62 -24.91,0 -43.86,-6.87 -56.78,-20.53 -16.77,-17.92 -25.21,-38.75 -25.21,-62.62l0 -165.66 -34.39 0c-6.26,0 -10.73,-1.15 -13.43,-3.55 -2.72,-2.39 -4.08,-5.52 -4.08,-9.26 0,-3.65 1.36,-6.67 4.08,-9.17 2.7,-2.4 7.18,-3.65 13.43,-3.65l60.01 0 0 191.4c0,16.66 5.32,30.42 15.84,41.25 10.53,10.73 23.66,16.15 39.4,16.15 41.57,0 79.59,-19.17 114.2,-57.4l0 -165.77 -46.9 0c-6.24,0 -10.73,-1.15 -13.43,-3.55 -2.7,-2.39 -4.06,-5.52 -4.06,-9.26 0,-3.65 1.36,-6.67 4.06,-9.17 2.7,-2.4 7.19,-3.65 13.43,-3.65l72.54 0 0 238.8 21.26 0c6.24,0 10.73,1.15 13.43,3.54 2.72,2.29 4.06,5.42 4.06,9.28 0,3.65 -1.34,6.67 -4.06,9.17 -2.7,2.4 -7.19,3.65 -13.43,3.65l-46.89 0zm171.39 -264.43l0 26.05c21.67,-23.23 43.45,-34.8 65.32,-34.8 13.24,0 24.7,3.44 34.7,10.42 9.89,6.98 18.24,17.51 24.89,31.67 11.47,-14.16 23.03,-24.69 34.8,-31.67 11.77,-6.97 23.55,-10.42 35.43,-10.42 18.54,0 33.35,6.04 44.38,18.03 14.49,15.41 21.78,32.29 21.78,50.53l0 179 21.26 0c6.26,0 10.73,1.15 13.45,3.54 2.7,2.29 4.06,5.42 4.06,9.28 0,3.65 -1.36,6.67 -4.06,9.17 -2.72,2.4 -7.19,3.65 -13.45,3.65l-46.89 0 0 -202.34c0,-13.02 -3.95,-23.86 -11.98,-32.4 -8.01,-8.55 -17.19,-12.82 -27.61,-12.82 -9.48,0 -19.38,3.54 -29.79,10.53 -10.43,6.97 -22.3,20.83 -35.64,41.36l0 170.04 21.26 0c6.24,0 10.73,1.15 13.43,3.54 2.72,2.29 4.08,5.42 4.08,9.28 0,3.65 -1.36,6.67 -4.08,9.17 -2.7,2.4 -7.19,3.65 -13.43,3.65l-46.89 0 0 -200.57c0,-13.65 -3.95,-24.91 -11.98,-33.76 -8.03,-8.85 -17.08,-13.23 -26.98,-13.23 -9.18,0 -18.14,2.91 -27.1,8.85 -12.39,8.34 -25.32,22.71 -38.96,43.03l0 170.04 21.26 0c6.24,0 10.73,1.15 13.43,3.54 2.72,2.29 4.06,5.42 4.06,9.28 0,3.65 -1.34,6.67 -4.06,9.17 -2.7,2.4 -7.19,3.65 -13.43,3.65l-68.15 0c-6.24,0 -10.73,-1.25 -13.43,-3.65 -2.72,-2.5 -4.06,-5.52 -4.06,-9.17 0,-3.86 1.34,-6.98 4.06,-9.28 2.7,-2.39 7.19,-3.54 13.43,-3.54l21.26 0 0 -213.17 -21.26 0c-6.24,0 -10.73,-1.15 -13.43,-3.55 -2.72,-2.39 -4.06,-5.52 -4.06,-9.26 0,-3.65 1.34,-6.67 4.06,-9.17 2.7,-2.4 7.19,-3.65 13.43,-3.65l46.89 0zm811.64 118.15l0 120.65 87.52 0c6.26,0 10.73,1.15 13.45,3.54 2.7,2.29 4.06,5.42 4.06,9.28 0,3.65 -1.36,6.67 -4.06,9.17 -2.72,2.4 -7.19,3.65 -13.45,3.65l-147.53 0c-6.26,0 -10.73,-1.25 -13.45,-3.65 -2.7,-2.5 -4.06,-5.52 -4.06,-9.17 0,-3.86 1.36,-6.98 4.06,-9.28 2.72,-2.39 7.19,-3.54 13.45,-3.54l34.39 0 0 -305.7 -34.39 0c-6.26,0 -10.73,-1.14 -13.45,-3.54 -2.7,-2.29 -4.06,-5.42 -4.06,-9.28 0,-3.86 1.36,-6.97 4.06,-9.26 2.72,-2.4 7.19,-3.54 13.45,-3.54l148.68 0c35.21,0 63.86,10.42 86.16,31.15 22.19,20.73 33.33,45.11 33.33,72.94 0,16.56 -3.64,31.36 -10.83,44.58 -7.19,13.24 -15.84,23.66 -26.05,31.15 -15.22,11.36 -30.94,19.69 -47.21,25.02 -11.77,3.86 -26.46,5.83 -43.97,5.83l-80.13 0zm0 -25.63l81.69 0c18.85,0 36.57,-4.17 53.24,-12.61 16.56,-8.33 28.65,-18.74 36.25,-30.94 7.6,-12.3 11.36,-24.8 11.36,-37.39 0.1,-20.21 -8.55,-38.35 -25.84,-54.4 -17.3,-16.04 -39.18,-24.07 -65.54,-24.07l-91.17 0 0 159.41zm574.62 40.43c0,39.07 -13.97,72.41 -41.99,100.02 -28.04,27.61 -61.79,41.47 -101.27,41.47 -40.01,0 -73.87,-13.86 -101.79,-41.58 -27.93,-27.82 -41.89,-61.05 -41.89,-99.91 0,-38.97 13.97,-72.3 41.89,-100.12 27.93,-27.72 61.78,-41.58 101.79,-41.58 39.48,0 73.24,13.86 101.27,41.47 28.02,27.61 41.99,61.05 41.99,100.23zm-25.63 -0.11c0,-32.19 -11.46,-59.49 -34.39,-82.1 -23.03,-22.6 -50.84,-33.85 -83.45,-33.85 -32.62,0 -60.43,11.35 -83.46,34.07 -22.93,22.6 -34.39,49.91 -34.39,81.88 0,31.78 11.46,58.98 34.39,81.8 23.03,22.81 50.84,34.17 83.46,34.17 32.6,0 60.42,-11.36 83.45,-34.07 22.93,-22.6 34.39,-49.91 34.39,-81.9zm226.42 -132.83l0 64.7c33.33,-30.01 58.33,-49.39 74.91,-58.03 16.67,-8.65 31.99,-12.93 45.94,-12.93 15.31,0 29.49,5.1 42.61,15.42 13.13,10.21 19.69,18.02 19.69,23.23 0,3.86 -1.25,7.08 -3.84,9.69 -2.51,2.5 -5.74,3.76 -9.59,3.76 -1.98,0 -3.75,-0.32 -5.21,-1.04 -1.34,-0.73 -4.06,-3.03 -7.92,-6.78 -7.08,-7.08 -13.34,-11.98 -18.65,-14.59 -5.2,-2.7 -10.42,-4.06 -15.52,-4.06 -11.14,0 -24.7,4.49 -40.43,13.45 -15.84,8.95 -43.13,30.72 -81.99,65.52l0 140.45 113.14 0c6.35,0 10.84,1.15 13.54,3.54 2.61,2.29 3.97,5.42 3.97,9.28 0,3.65 -1.36,6.67 -3.97,9.17 -2.7,2.4 -7.19,3.65 -13.54,3.65l-200.05 0c-6.24,0 -10.73,-1.25 -13.43,-3.65 -2.72,-2.39 -4.06,-5.42 -4.06,-9.17 0,-3.43 1.34,-6.35 3.95,-8.65 2.61,-2.4 7.09,-3.54 13.54,-3.54l61.27 0 0 -213.8 -46.89 0c-6.24,0 -10.73,-1.15 -13.43,-3.55 -2.72,-2.39 -4.08,-5.52 -4.08,-9.26 0,-3.65 1.36,-6.67 3.97,-9.17 2.61,-2.4 7.08,-3.65 13.54,-3.65l72.52 0zm352.68 0l138.78 0c6.26,0 10.73,1.14 13.43,3.54 2.72,2.4 4.08,5.52 4.08,9.28 0,3.64 -1.36,6.67 -4.08,9.17 -2.7,2.39 -7.18,3.65 -13.43,3.65l-138.78 0 0 170.87c0,14.89 5.93,27.29 17.81,37.3 11.98,10 29.38,15 52.41,15 17.29,0 36.05,-2.61 56.15,-7.81 20.12,-5.1 35.84,-11.05 47,-17.51 4.06,-2.61 7.4,-3.95 10.1,-3.95 3.24,0 6.05,1.25 8.55,3.75 2.39,2.61 3.65,5.63 3.65,9.06 0,3.03 -1.36,5.85 -3.97,8.55 -6.46,6.67 -22.3,13.96 -47.41,21.78 -25.1,7.81 -49.07,11.77 -72.1,11.77 -29.9,0 -53.65,-6.98 -71.26,-21.05 -17.72,-14.07 -26.57,-33.03 -26.57,-56.88l0 -170.87 -47.3 0c-6.15,0 -10.53,-1.26 -13.13,-3.65 -2.61,-2.4 -3.97,-5.53 -3.97,-9.28 0,-3.65 1.36,-6.67 3.97,-9.06 2.61,-2.4 6.98,-3.65 13.13,-3.65l47.3 0 0 -75.95c0,-6.15 1.25,-10.53 3.64,-13.24 2.4,-2.59 5.42,-3.95 9.07,-3.95 3.75,0 6.87,1.36 9.28,3.95 2.39,2.72 3.65,7.09 3.65,13.24l0 75.95zm572.12 132.94c0,39.07 -13.97,72.41 -41.99,100.02 -28.04,27.61 -61.79,41.47 -101.27,41.47 -40.01,0 -73.87,-13.86 -101.79,-41.58 -27.94,-27.82 -41.91,-61.05 -41.91,-99.91 0,-38.97 13.97,-72.3 41.91,-100.12 27.93,-27.72 61.78,-41.58 101.79,-41.58 39.48,0 73.24,13.86 101.27,41.47 28.02,27.61 41.99,61.05 41.99,100.23zm-25.63 -0.11c0,-32.19 -11.46,-59.49 -34.39,-82.1 -23.03,-22.6 -50.84,-33.85 -83.45,-33.85 -32.62,0 -60.43,11.35 -83.46,34.07 -22.94,22.6 -34.4,49.91 -34.4,81.88 0,31.78 11.46,58.98 34.4,81.8 23.03,22.81 50.84,34.17 83.46,34.17 32.6,0 60.42,-11.36 83.45,-34.07 22.93,-22.6 34.39,-49.91 34.39,-81.9z"/>
 </g>
</svg>
