<?xml version="1.0" encoding="UTF-8"?>
<!DOCTYPE svg PUBLIC "-//W3C//DTD SVG 1.1//EN" "http://www.w3.org/Graphics/SVG/1.1/DTD/svg11.dtd">
<!-- Creator: CorelDRAW 2019 (64-Bit) -->
<svg xmlns="http://www.w3.org/2000/svg" xml:space="preserve" width="2.97241in" height="0.508504in" version="1.1" style="shape-rendering:geometricPrecision; text-rendering:geometricPrecision; image-rendering:optimizeQuality; fill-rule:evenodd; clip-rule:evenodd"
viewBox="0 0 4634.99 792.93"
 xmlns:xlink="http://www.w3.org/1999/xlink"
 xmlns:xodm="http://www.corel.com/coreldraw/odm/2003">
 <defs>
  <style type="text/css">
   <![CDATA[
    .str0 {stroke:#373435;stroke-width:21.66;stroke-miterlimit:2.61313}
    .fil1 {fill:#FEFEFE}
    .fil0 {fill:#1E71B7}
    .fil2 {fill:#373435;fill-rule:nonzero}
   ]]>
  </style>
 </defs>
 <g id="Layer_x0020_1">
  <metadata id="CorelCorpID_0Corel-Layer"/>
  <g id="_1713029350544">
   <path class="fil0" d="M85.48 150.59c135.79,-171.75 385.11,-200.9 556.86,-65.11 171.75,135.8 200.9,385.11 65.11,556.87 -135.8,171.75 -385.12,200.9 -556.87,65.11 -171.75,-135.8 -200.9,-385.12 -65.1,-556.87z"/>
   <g>
    <path class="fil1" d="M604.78 453.5l-367.92 195.02c0,0 -56.23,19.74 -113.02,-4.28 -56.77,-24.02 -89.86,-76.95 -91.63,-130.13 -1.76,-53.18 9.53,-247.93 10.56,-267.35 1.03,-19.42 22.09,-96.03 84.22,-118.89 62.13,-22.87 107.75,-8.03 125.85,-0.01 18.09,8.02 441.86,276.89 441.86,276.89 0,0 24.32,20.92 40,52.87 15.68,31.96 31.86,126.58 -47.36,183.67 -79.23,57.09 -228.79,126.31 -246.53,133.19 -17.74,6.89 -69.18,19.05 -113.94,-1.27 -44.75,-20.33 -55.69,-40.96 -62.98,-54.71 -7.29,-13.76 -21.35,-40.28 -21.35,-40.28l53.05 -28.12c0,0 10.65,29.59 22.45,44.73 11.8,15.14 56.79,45.41 95.16,27.58 38.38,-17.82 206.25,-111.84 225.43,-120.75 19.19,-8.91 52.7,-43.04 53.96,-73.9 1.25,-30.87 -14.77,-56.35 -26.05,-70.51 -11.28,-14.16 -441.77,-275.51 -441.77,-275.51 0,0 -43.19,-17.38 -74.57,1.77 -31.38,19.15 -39.46,34.77 -43.56,50.78 -4.1,16.02 -17.56,244.64 -16.51,267.99 1.05,23.35 9.34,57.98 35.13,75.76 25.78,17.79 55.91,29.51 70.18,23.21 14.27,-6.31 348.76,-184.86 348.76,-184.86l60.57 37.11z"/>
    <polygon class="fil1" points="241.26,540.48 252.34,234.23 307.8,268.98 299.09,509.6 "/>
    <path class="fil1" d="M717.49 382.43l-49.44 -30.98c0,0 22.59,-31.56 30.55,-52.13 7.97,-20.58 -4.54,-65.55 -23.86,-83 -19.31,-17.45 -204.52,-129.44 -221.17,-139.49 -16.65,-10.05 -53.83,-25.58 -78.91,-13.54 -25.08,12.04 -37.8,21.29 -44.5,32.4 -6.7,11.1 -16.17,31.22 -16.17,31.22l-48.39 -27.2c0,0 15.56,-41.72 36.53,-59.13 38.54,-31.99 89.75,-49.78 139.84,-33.1 32.09,10.68 241.18,143.99 257.89,156.52 16.71,12.54 48.15,48.1 54.09,78.3 5.94,30.2 5.87,58.55 -1.58,80.12 -7.45,21.57 -34.88,60.02 -34.88,60.02z"/>
   </g>
   <g>
    <path class="fil2 str0" d="M1014.15 569.13l0 -323.8 68.11 0 111.16 273.25c18.45,-45.72 36.76,-91.28 55.07,-136.77 18.22,-45.42 36.52,-90.91 54.99,-136.48l68.57 0 0 323.8 -45.56 0 0 -267.01c-17.99,44.6 -35.9,89.13 -53.9,133.65 -17.9,44.45 -35.82,88.9 -53.58,133.35l-51.84 0 -107.47 -266.78 0 266.78 -45.56 0zm656.58 -120.42l131.43 0c-10.61,-27.43 -21.06,-54.41 -31.42,-80.8 -10.37,-26.46 -20.9,-53.37 -31.66,-80.8l-5.74 0 -62.61 161.61zm-94.58 120.42l126.55 -323.8 67.01 0 127.26 323.8 -47.84 0 -31.81 -80.8 -161.99 0c-5.11,13.23 -10.3,26.69 -15.79,40.44 -5.42,13.67 -10.61,27.13 -15.55,40.36l-47.84 0zm510.23 -215.34c0,-41.41 9.19,-70.54 27.57,-87.34 18.55,-16.73 50.91,-25.05 96.86,-25.05l42.19 0c42.65,0 73.99,6.99 94.19,20.89 20.19,13.98 30.32,35.61 30.32,64.9l0 17.62 -46.98 0 0 -8.03c0,-20.44 -5.27,-34.5 -15.63,-42 -10.92,-8.03 -32.21,-12.04 -64.02,-12.04l-29.46 0c-11.47,0 -21.21,0.3 -29.07,0.89 -7.93,0.6 -14.29,1.41 -19.01,2.38 -9.51,2.23 -17.44,5.95 -23.72,11.37 -5.81,4.61 -9.98,10.93 -12.41,18.96l0 -0.22c-1.11,4.16 -1.89,10.11 -2.52,17.84 -0.63,7.66 -0.94,17.17 -0.94,28.55l0 89.72c0,11.29 0.31,20.73 0.94,28.32 0.63,7.5 1.41,13.38 2.52,17.61l0 -0.22c2.43,7.95 6.6,14.35 12.41,19.17 6.75,5.51 14.53,9.22 23.25,11.07 4.64,1.2 10.92,2.09 19.01,2.61 8.01,0.59 17.91,0.89 29.54,0.89l29.46 0c20.9,0 35.43,-1.04 43.76,-3.05 4,-1.04 7.77,-2.31 11.38,-3.95 3.62,-1.56 6.84,-3.56 9.74,-6.09 5.27,-4.46 8.96,-10.26 11.08,-17.39 1.25,-3.94 2.12,-9.37 2.74,-16.36 0.63,-6.99 0.95,-15.46 0.95,-25.5l0 -15.23 -92.54 0 0 -40.52 139.52 0 0 57.09c0,41.7 -9.27,70.84 -27.65,87.57 -18.39,16.5 -50.75,24.83 -96.86,24.83l-42.19 0c-46.11,0 -78.48,-8.33 -96.86,-24.83 -18.38,-16.73 -27.57,-45.87 -27.57,-87.57l0 -106.89zm514.78 215.34l0 -323.8 45.97 0 0 323.8 -45.97 0z"/>
    <path class="fil2" d="M2873.6 353.79c0,-41.56 8.56,-70.69 25.77,-87.34 17.21,-16.73 47.14,-25.05 89.79,-25.05l39.12 0c42.34,0 72.12,7.13 89.24,21.56 17.68,14.34 26.48,38.5 26.48,72.47l0 18.13 -47.13 0 0 -13.08c0,-22.68 -4.64,-37.92 -13.83,-45.72 -9.35,-8.03 -28.52,-12.04 -57.51,-12.04l-25.85 0c-9.98,0 -18.46,0.3 -25.61,0.89 -7.15,0.6 -12.96,1.41 -17.37,2.38 -8.17,2.23 -15.08,5.87 -20.73,10.93 -5.66,5.2 -9.67,11.52 -11.94,18.95 -1.1,4.01 -1.89,9.96 -2.44,17.62 -0.55,7.73 -0.79,17.32 -0.79,29l0 89.72c0,22.44 1.02,37.9 3.22,46.37 2.11,7.51 6.13,13.91 11.94,19.18 5.33,4.91 12.01,8.48 20.03,10.63 4.01,1.19 9.66,2.01 17.05,2.53 7.3,0.52 16.26,0.74 26.63,0.74l25.85 0c29.46,0 48.86,-4.24 58.21,-12.64 9.19,-8.25 13.83,-24.83 13.83,-49.65 0,-3.94 -0.08,-7.66 -0.24,-11.22 -0.15,-3.57 -0.31,-6.25 -0.46,-8.18l47.13 0 0 25.05c0,36.36 -8.56,61.7 -25.77,76.27l0.24 0c-16.74,14.5 -46.82,21.79 -90.18,21.79l-39.12 0c-42.65,0 -72.58,-8.4 -89.79,-25.05 -17.2,-16.72 -25.77,-45.79 -25.77,-87.35l0 -106.89zm400.71 -66.68l0 117.82 101.96 0c26.63,0 43.83,-2.9 51.53,-8.7 7.54,-5.8 11.23,-16.43 11.23,-31.81l0 -36.79c0,-15.54 -3.69,-26.17 -11,-31.82 -3.84,-2.9 -10.05,-5.05 -18.53,-6.54 -8.56,-1.42 -19.65,-2.16 -33.23,-2.16l-101.96 0zm-45.57 282.03l0 -323.8 154.84 0c38.42,0 64.97,5.49 79.89,16.5 15.32,11.52 23.02,31.37 23.02,59.69l0 47.72c0,29.29 -10.76,48.17 -32.21,56.57 9.66,4.09 17.05,9.66 22.08,16.8 6.75,9.74 10.12,25.2 10.12,46.39l0 80.13 -47.44 0 0 -69.28c0,-21.92 -3.46,-36.2 -10.3,-42.89 -6.44,-7.06 -20.03,-10.63 -40.77,-10.63l-113.67 0 0 122.79 -45.57 0zm351.61 0l0 -323.8 242.82 0 0 41.77 -197.26 0 0 94.71 191.68 0 0 40.73 -191.68 0 0 104.96 197.26 0 0 41.62 -242.82 0zm369.83 -39.62l113.67 0c30.95,0 51.38,-4.76 61.19,-14.2 10.13,-9.59 15.16,-28.25 15.16,-55.98l0 -101.91c0,-29.28 -5.03,-48.69 -15.16,-58.13 -9.66,-9.58 -30.08,-14.34 -61.19,-14.34l-113.67 0 0 244.56zm-45.8 39.62l0 -323.8 165.45 0c42.97,0 73.37,8.18 91.12,24.61 17.84,16.5 26.72,44.82 26.72,84.89l0 104.14c0,40.22 -8.96,68.61 -26.94,85.33 -17.75,16.58 -48.08,24.83 -90.89,24.83l-165.45 0zm372.58 0l0 -323.8 45.96 0 0 323.8 -45.96 0zm99.59 -282.03l0 -41.77 258.45 0 0 41.77 -106.52 0 0 282.03 -45.87 0 0 -282.03 -106.06 0z"/>
   </g>
  </g>
 </g>
</svg>
