<?xml version="1.0" encoding="UTF-8"?>
<!DOCTYPE svg PUBLIC "-//W3C//DTD SVG 1.1//EN" "http://www.w3.org/Graphics/SVG/1.1/DTD/svg11.dtd">
<!-- Creator: CorelDRAW 2019 (64-Bit) -->
<svg xmlns="http://www.w3.org/2000/svg" xml:space="preserve" width="1.33858in" height="1.33858in" version="1.1" style="shape-rendering:geometricPrecision; text-rendering:geometricPrecision; image-rendering:optimizeQuality; fill-rule:evenodd; clip-rule:evenodd"
viewBox="0 0 782.27 782.27"
 xmlns:xlink="http://www.w3.org/1999/xlink"
 xmlns:xodm="http://www.corel.com/coreldraw/odm/2003">
 <defs>
  <style type="text/css">
   <![CDATA[
    .fil0 {fill:#8AAC8F;fill-rule:nonzero}
   ]]>
  </style>
 </defs>
 <g id="Layer_x0020_1">
  <metadata id="CorelCorpID_0Corel-Layer"/>
  <path class="fil0" d="M215.5 231.28l351.28 0c9.53,0 18.21,3.91 24.51,10.2l0.07 0.07c6.29,6.3 10.2,14.98 10.2,24.51l0 250.15c0,9.59 -3.91,18.29 -10.2,24.58l-0.07 0c-6.3,6.3 -14.97,10.2 -24.51,10.2l-351.28 0c-9.59,0 -18.28,-3.91 -24.58,-10.2 -6.29,-6.29 -10.2,-14.99 -10.2,-24.58l0 -250.15c0,-9.53 3.91,-18.21 10.2,-24.51l0 -0.07c6.3,-6.3 14.99,-10.2 24.58,-10.2zm175.64 -231.28c108.01,0 205.8,43.78 276.58,114.56 70.78,70.78 114.56,168.57 114.56,276.57 0,108.01 -43.78,205.8 -114.56,276.58 -70.78,70.78 -168.57,114.56 -276.58,114.56 -108.01,0 -205.79,-43.78 -276.57,-114.56 -70.78,-70.78 -114.56,-168.57 -114.56,-276.58 0,-108.01 43.78,-205.79 114.56,-276.57 70.78,-70.78 168.57,-114.56 276.57,-114.56zm234 157.14c-59.88,-59.88 -142.62,-96.92 -234,-96.92 -91.38,0 -174.12,37.04 -234,96.92 -59.88,59.88 -96.92,142.62 -96.92,234 0,91.39 37.04,174.12 96.92,234 59.88,59.88 142.62,96.92 234,96.92 91.38,0 174.12,-37.04 234,-96.92 59.88,-59.88 96.92,-142.62 96.92,-234 0,-91.38 -37.04,-174.12 -96.92,-234zm-61.21 185.74l-131.16 111.03c-12.35,10.45 -28.47,15.62 -44.5,15.53 -15.99,-0.09 -32.13,-5.41 -44.54,-15.91l-125.39 -106.15 0 165.98 345.58 0 0 -170.49zm-345.58 -44.69l149.64 126.68c5.53,4.68 12.94,7.05 20.43,7.09 7.45,0.04 14.76,-2.19 20.1,-6.71l155.41 -131.57 0 -24.76 -345.58 0 0 29.27z"/>
 </g>
</svg>
