<?xml version="1.0" encoding="UTF-8"?>
<!DOCTYPE svg PUBLIC "-//W3C//DTD SVG 1.1//EN" "http://www.w3.org/Graphics/SVG/1.1/DTD/svg11.dtd">
<!-- Creator: CorelDRAW 2019 (64-Bit) -->
<svg xmlns="http://www.w3.org/2000/svg" xml:space="preserve" width="3.02825in" height="0.983803in" version="1.1" style="shape-rendering:geometricPrecision; text-rendering:geometricPrecision; image-rendering:optimizeQuality; fill-rule:evenodd; clip-rule:evenodd"
viewBox="0 0 3239.67 1052.49"
 xmlns:xlink="http://www.w3.org/1999/xlink"
 xmlns:xodm="http://www.corel.com/coreldraw/odm/2003">
 <defs>
  <style type="text/css">
   <![CDATA[
    .fil1 {fill:#ED3237}
    .fil0 {fill:#A9ABAE;fill-rule:nonzero}
   ]]>
  </style>
 </defs>
 <g id="Layer_x0020_1">
  <metadata id="CorelCorpID_0Corel-Layer"/>
  <polygon class="fil0" points="3018.33,720.08 3018.33,339.68 2885.47,339.68 2885.47,265.06 3239.67,265.06 3239.67,339.68 3105.7,339.68 3105.7,720.08 "/>
  <path class="fil0" d="M2697.76 265.06c58.84,0 98.68,11.53 119.52,34.48 18.3,20.63 27.4,54.2 27.4,100.81 0,50.56 -6.68,83.72 -20.12,99.5 -11.93,14.77 -32.15,24.67 -60.57,29.83l0 1.72c26.69,2.63 46.81,11.62 60.57,27.3 10.92,17.39 16.38,43.18 16.38,77.15l0 84.23 -87.87 0 0 -68.56c0,-15.77 -0.81,-28.92 -2.32,-39.33 -1.52,-10.41 -5.36,-19.11 -11.63,-26.09 -6.17,-6.97 -13.55,-11.42 -21.94,-13.44 -8.5,-2.03 -19.72,-3.04 -33.87,-3.04l-9 0 -112.95 0 0 150.46 -87.36 0 0 -455.02 223.77 0zm-13.25 74.62l-123.16 0 0 155.31 125.69 0c15.17,0 26.9,-1.21 35.08,-3.74 8.19,-2.43 15.47,-7.08 21.94,-13.75 8.49,-10.92 12.74,-32.05 12.74,-63.1 0,-28.72 -3.54,-48.13 -10.42,-58.44 -5.66,-6.88 -13.35,-11.33 -23.16,-13.35 -9.81,-1.92 -22.75,-2.94 -38.72,-2.94z"/>
  <polygon class="fil0" points="1453.37,265.06 1541.34,265.06 1541.34,720.08 1453.37,720.08 "/>
  <path class="fil0" d="M1221.98 720.08l-236.51 0 0 -455.02 219.01 0c80.29,0 132.46,21.64 156.42,64.92 14.26,26.59 21.34,63.8 21.34,111.63l0 97.07c0,80.59 -22.85,134.48 -68.56,161.38 -10.62,6.17 -24.67,11.02 -42.27,14.66 -17.5,3.54 -33.98,5.36 -49.45,5.36zm-17.49 -74.63c17.49,0 31.75,-2.02 42.67,-5.96 11.02,-3.94 20.83,-12.24 29.53,-24.98 11.73,-16.48 17.59,-45.6 17.59,-87.46l0 -30.74 0 -50.96c0,-26.89 -1.72,-47.42 -5.26,-61.48 -3.54,-14.16 -12.13,-25.07 -25.99,-32.66 -13.85,-7.69 -35.39,-11.53 -64.61,-11.53l-125.59 0 0 305.77 131.65 0z"/>
  <path class="fil0" d="M694.14 457.08l208.45 0 0 70.98 -208.44 0c0.09,41.31 5.96,70.1 17.59,86.45 8.69,12.74 18.51,21.02 29.53,24.97 10.92,3.93 25.18,5.97 42.67,5.97l125.98 0 0 74.62 -143.47 0c-15.47,0 -31.96,-1.79 -49.44,-5.36 -17.6,-3.6 -31.65,-8.5 -42.27,-14.67 -45.7,-26.89 -68.56,-80.79 -68.56,-161.38l0 -97.07c0,-47.83 6.86,-85.17 21.34,-111.63 23.73,-43.39 76.15,-64.92 156.42,-64.92l125.98 0 0 74.62 -119.91 0c-29.22,0 -50.74,3.88 -64.61,11.53 -13.83,7.62 -22.45,18.51 -25.99,32.66 -3.54,14.05 -5.26,34.58 -5.26,61.48l0 11.73z"/>
  <polygon class="fil0" points="-0,720.08 -0,265.06 141.46,265.06 264.52,602.89 266.84,602.89 388.89,265.06 531.96,265.06 531.96,720.08 444.7,720.08 451.98,336.04 449.46,336.04 305.77,720.08 227.51,720.08 83.12,338.57 80.69,338.57 85.64,507.64 87.97,720.08 "/>
  <polygon class="fil1" points="2006.35,0 2214.22,360.04 2422.09,720.08 2287.47,720.08 2180.83,535.36 1972.96,175.32 1905.3,292.51 2011.78,476.93 2152.17,720.08 2061.25,720.08 2011.84,634.5 1806.13,634.5 1806.13,576.07 1978.1,576.07 1859.85,371.23 1765.09,535.36 1658.45,720.08 1636.43,720.08 1590.62,720.08 1798.48,360.04 "/>
  <path class="fil0" d="M212.76 1049l-43.41 0 -17.25 -44.89 -78.96 0 -16.28 44.89 -42.31 0 76.94 -197.53 42.17 0 79.1 197.53zm-73.44 -78.14l-27.23 -73.31 -26.67 73.31 53.9 0zm94.46 -119.39l72.89 0c16.42,0 28.93,1.24 37.58,3.77 11.59,3.41 21.52,9.48 29.75,18.22 8.28,8.69 14.58,19.36 18.9,31.96 4.28,12.64 6.44,28.19 6.44,46.72 0,16.23 -2.03,30.26 -6.07,42.03 -4.92,14.35 -11.96,25.99 -21.15,34.86 -6.9,6.76 -16.24,12 -28.01,15.77 -8.78,2.81 -20.55,4.19 -35.32,4.19l-75.01 0 0 -197.53zm39.87 33.43l0 130.8 29.76 0c11.13,0 19.18,-0.59 24.14,-1.88 6.44,-1.61 11.82,-4.33 16.1,-8.18 4.28,-3.87 7.72,-10.26 10.44,-19.09 2.67,-8.83 4.05,-20.92 4.05,-36.19 0,-15.27 -1.38,-26.95 -4.05,-35.14 -2.71,-8.18 -6.48,-14.58 -11.31,-19.13 -4.87,-4.6 -11.04,-7.68 -18.49,-9.29 -5.57,-1.28 -16.46,-1.89 -32.74,-1.89l-17.9 0zm209.9 164.09l-70.6 -197.53 43.28 0 49.94 146.2 48.38 -146.2 42.31 0 -70.73 197.53 -42.59 0zm133.69 0l0 -197.53 146.43 0 0 33.43 -106.56 0 0 43.78 99.16 0 0 33.25 -99.16 0 0 53.76 110.33 0 0 33.3 -150.2 0zm184.14 0l0 -197.53 83.98 0c21.11,0 36.43,1.79 45.99,5.34 9.57,3.54 17.25,9.84 22.99,18.9 5.75,9.1 8.6,19.45 8.6,31.13 0,14.81 -4.36,27.09 -13.06,36.74 -8.69,9.61 -21.75,15.73 -39.09,18.21 8.65,5.06 15.78,10.58 21.39,16.6 5.61,6.02 13.15,16.7 22.67,32.05l24.14 38.54 -47.69 0 -28.83 -43c-10.26,-15.36 -17.24,-25.02 -21.02,-29.02 -3.77,-4 -7.78,-6.71 -12,-8.23 -4.23,-1.47 -10.9,-2.21 -20.1,-2.21l-8.05 0 0 82.46 -39.92 0zm39.92 -114.01l29.48 0c19.13,0 31.09,-0.78 35.88,-2.39 4.73,-1.61 8.46,-4.41 11.17,-8.37 2.67,-3.96 4.04,-8.88 4.04,-14.81 0,-6.67 -1.79,-12 -5.33,-16.1 -3.54,-4.09 -8.55,-6.67 -15.04,-7.77 -3.22,-0.41 -12.92,-0.64 -29.11,-0.64l-31.09 0 0 50.09zm203.69 114.01l0 -164.09 -58.6 0 0 -33.43 156.96 0 0 33.43 -58.45 0 0 164.09 -39.92 0zm122.88 0l0 -197.53 39.87 0 0 197.53 -39.87 0zm67.79 -64.25l38.81 -3.81c2.3,13.06 7.04,22.62 14.21,28.74 7.13,6.07 16.74,9.15 28.89,9.15 12.83,0 22.53,-2.71 29.02,-8.19 6.53,-5.42 9.8,-11.77 9.8,-19.04 0,-4.7 -1.38,-8.65 -4.14,-11.92 -2.71,-3.31 -7.5,-6.16 -14.35,-8.55 -4.64,-1.66 -15.31,-4.51 -31.92,-8.65 -21.38,-5.29 -36.38,-11.81 -44.98,-19.54 -12.14,-10.85 -18.21,-24.1 -18.21,-39.74 0,-10.07 2.85,-19.45 8.55,-28.24 5.7,-8.74 13.94,-15.4 24.65,-20.01 10.76,-4.55 23.69,-6.85 38.86,-6.85 24.83,0 43.46,5.43 56.01,16.28 12.51,10.9 19.09,25.38 19.73,43.55l-39.88 1.75c-1.7,-10.16 -5.38,-17.48 -10.99,-21.89 -5.61,-4.46 -14.03,-6.67 -25.25,-6.67 -11.59,0 -20.69,2.35 -27.23,7.13 -4.23,3.04 -6.35,7.13 -6.35,12.24 0,4.69 1.98,8.69 5.93,12 5.01,4.23 17.25,8.65 36.65,13.2 19.41,4.6 33.76,9.34 43.05,14.22 9.3,4.92 16.56,11.59 21.85,20.09 5.24,8.51 7.86,19 7.86,31.46 0,11.31 -3.13,21.94 -9.43,31.78 -6.3,9.89 -15.18,17.25 -26.67,22.03 -11.5,4.83 -25.85,7.22 -43,7.22 -24.97,0 -44.15,-5.74 -57.53,-17.29 -13.38,-11.54 -21.39,-28.38 -23.96,-50.45zm192.93 64.25l0 -197.53 39.87 0 0 197.53 -39.87 0zm78.27 0l0 -197.53 38.81 0 80.85 131.9 0 -131.9 37.07 0 0 197.53 -40.06 0 -79.61 -128.82 0 128.82 -37.06 0zm290.79 -72.62l0 -33.3 85.95 0 0 78.69c-8.37,8.1 -20.46,15.22 -36.33,21.38 -15.86,6.12 -31.92,9.2 -48.15,9.2 -20.65,0 -38.68,-4.32 -54.04,-12.97 -15.36,-8.69 -26.91,-21.06 -34.63,-37.2 -7.73,-16.14 -11.59,-33.67 -11.59,-52.61 0,-20.55 4.33,-38.86 12.93,-54.86 8.65,-15.96 21.24,-28.24 37.89,-36.74 12.64,-6.57 28.42,-9.84 47.27,-9.84 24.51,0 43.69,5.15 57.44,15.41 13.8,10.3 22.68,24.51 26.63,42.68l-39.6 7.4c-2.81,-9.7 -8.05,-17.39 -15.73,-23 -7.68,-5.61 -17.25,-8.42 -28.75,-8.42 -17.43,0 -31.27,5.52 -41.57,16.56 -10.3,11.09 -15.41,27.46 -15.41,49.21 0,23.41 5.2,41.03 15.64,52.75 10.39,11.73 24.05,17.57 40.93,17.57 8.36,0 16.74,-1.66 25.15,-4.92 8.37,-3.26 15.59,-7.27 21.62,-11.91l0 -25.06 -45.67 0zm367.27 72.62l-43.42 0 -17.24 -44.89 -78.96 0 -16.28 44.89 -42.31 0 76.94 -197.53 42.17 0 79.1 197.53zm-73.45 -78.14l-27.23 -73.31 -26.67 73.31 53.9 0zm186.49 5.52l0 -33.3 85.95 0 0 78.69c-8.37,8.1 -20.46,15.22 -36.33,21.38 -15.86,6.12 -31.92,9.2 -48.15,9.2 -20.65,0 -38.68,-4.32 -54.04,-12.97 -15.36,-8.69 -26.91,-21.06 -34.63,-37.2 -7.73,-16.14 -11.59,-33.67 -11.59,-52.61 0,-20.55 4.32,-38.86 12.92,-54.86 8.65,-15.96 21.24,-28.24 37.89,-36.74 12.64,-6.57 28.42,-9.84 47.27,-9.84 24.51,0 43.69,5.15 57.44,15.41 13.8,10.3 22.68,24.51 26.63,42.68l-39.6 7.4c-2.81,-9.7 -8.05,-17.39 -15.73,-23 -7.68,-5.61 -17.25,-8.42 -28.75,-8.42 -17.43,0 -31.27,5.52 -41.57,16.56 -10.3,11.09 -15.41,27.46 -15.41,49.21 0,23.41 5.2,41.03 15.64,52.75 10.39,11.73 24.05,17.57 40.93,17.57 8.36,0 16.74,-1.66 25.15,-4.92 8.37,-3.26 15.59,-7.27 21.62,-11.91l0 -25.06 -45.67 0zm122.75 72.62l0 -197.53 146.43 0 0 33.43 -106.56 0 0 43.78 99.15 0 0 33.25 -99.15 0 0 53.76 110.33 0 0 33.3 -150.2 0zm184.42 0l0 -197.53 38.82 0 80.85 131.9 0 -131.9 37.06 0 0 197.53 -40.05 0 -79.61 -128.82 0 128.82 -37.07 0zm325.28 -72.62l38.63 12.23c-5.93,21.57 -15.77,37.57 -29.57,48.06 -13.75,10.44 -31.27,15.69 -52.47,15.69 -26.21,0 -47.78,-8.97 -64.66,-26.86 -16.87,-17.94 -25.33,-42.45 -25.33,-73.49 0,-32.88 8.51,-58.41 25.48,-76.61 16.97,-18.17 39.28,-27.28 66.96,-27.28 24.15,0 43.78,7.13 58.87,21.43 9.01,8.42 15.73,20.56 20.23,36.38l-39.51 9.43c-2.3,-10.26 -7.17,-18.35 -14.63,-24.29 -7.4,-5.93 -16.41,-8.87 -26.99,-8.87 -14.62,0 -26.53,5.24 -35.64,15.78 -9.11,10.48 -13.66,27.5 -13.66,51.04 0,24.97 4.46,42.78 13.47,53.35 8.97,10.62 20.65,15.91 35,15.91 10.63,0 19.73,-3.36 27.36,-10.12 7.64,-6.71 13.11,-17.34 16.46,-31.78zm124.73 72.62l0 -83.15 -72.34 -114.38 46.77 0 46.49 78.14 45.53 -78.14 45.95 0 -72.62 114.65 0 82.88 -39.78 0z"/>
 </g>
</svg>
