<?xml version="1.0" encoding="UTF-8"?>
<!DOCTYPE svg PUBLIC "-//W3C//DTD SVG 1.1//EN" "http://www.w3.org/Graphics/SVG/1.1/DTD/svg11.dtd">
<!-- Creator: CorelDRAW 2019 (64-Bit) -->
<svg xmlns="http://www.w3.org/2000/svg" xml:space="preserve" width="3.12398in" height="1.0149in" version="1.1" style="shape-rendering:geometricPrecision; text-rendering:geometricPrecision; image-rendering:optimizeQuality; fill-rule:evenodd; clip-rule:evenodd"
viewBox="0 0 2159.59 701.6"
 xmlns:xlink="http://www.w3.org/1999/xlink"
 xmlns:xodm="http://www.corel.com/coreldraw/odm/2003">
 <defs>
  <style type="text/css">
   <![CDATA[
    .fil1 {fill:#ED3237}
    .fil0 {fill:#606062;fill-rule:nonzero}
   ]]>
  </style>
 </defs>
 <g id="Layer_x0020_1">
  <metadata id="CorelCorpID_0Corel-Layer"/>
  <g id="_2491835558704">
   <path class="fil0" d="M1798.35 176.69c39.23,0 65.79,7.68 79.67,22.98 12.2,13.75 18.26,36.13 18.26,67.2 0,33.7 -4.45,55.81 -13.41,66.33 -7.96,9.84 -21.44,16.45 -40.38,19.88l0 1.15c17.79,1.75 31.21,7.75 40.38,18.2 7.28,11.59 10.92,28.78 10.92,51.43l0 56.15 -58.57 0 0 -45.7c0,-10.51 -0.54,-19.28 -1.55,-26.22 -1.01,-6.94 -3.57,-12.74 -7.75,-17.39 -4.11,-4.65 -9.03,-7.62 -14.63,-8.97 -5.66,-1.35 -13.14,-2.02 -22.58,-2.02l-6 0 -75.29 0 0 100.29 -58.24 0 0 -303.31 149.16 0zm-8.83 49.74l-82.1 0 0 103.53 83.78 0c10.11,0 17.93,-0.81 23.39,-2.49 5.46,-1.62 10.31,-4.72 14.63,-9.17 5.66,-7.28 8.49,-21.37 8.49,-42.06 0,-19.14 -2.36,-32.09 -6.94,-38.96 -3.77,-4.58 -8.9,-7.55 -15.44,-8.9 -6.54,-1.28 -15.16,-1.95 -25.81,-1.95z"/>
   <polygon class="fil0" points="968.83,176.69 1027.47,176.69 1027.47,480.01 968.83,480.01 "/>
   <path class="fil0" d="M814.58 480.01l-157.66 0 0 -303.32 146 0c53.52,0 88.3,14.43 104.27,43.27 9.5,17.73 14.22,42.53 14.22,74.41l0 64.71c0,53.72 -15.24,89.65 -45.7,107.58 -7.08,4.11 -16.45,7.35 -28.17,9.77 -11.66,2.36 -22.65,3.57 -32.96,3.57zm-11.66 -49.74c11.66,0 21.17,-1.35 28.44,-3.98 7.35,-2.63 13.89,-8.16 19.68,-16.65 7.82,-10.99 11.73,-30.4 11.73,-58.31l0 -20.49 0 -33.97c0,-17.93 -1.15,-31.61 -3.51,-40.98 -2.36,-9.44 -8.09,-16.72 -17.32,-21.77 -9.23,-5.12 -23.59,-7.68 -43.07,-7.68l-83.71 0 0 203.83 87.76 0z"/>
   <path class="fil0" d="M462.72 304.69l138.95 0 0 47.32 -138.95 0c0.06,27.54 3.97,46.73 11.73,57.63 5.8,8.49 12.34,14.01 19.68,16.65 7.28,2.62 16.79,3.98 28.44,3.98l83.98 0 0 49.74 -95.64 0c-10.31,0 -21.31,-1.19 -32.96,-3.57 -11.73,-2.4 -21.1,-5.66 -28.17,-9.77 -30.47,-17.93 -45.7,-53.86 -45.7,-107.58l0 -64.71c0,-31.88 4.57,-56.77 14.22,-74.41 15.82,-28.93 50.76,-43.27 104.27,-43.27l83.98 0 0 49.74 -79.93 0c-19.48,0 -33.82,2.59 -43.07,7.69 -9.22,5.08 -14.96,12.33 -17.32,21.77 -2.36,9.37 -3.5,23.05 -3.5,40.98l0 7.82z"/>
   <polygon class="fil0" points="-0,480.01 -0,176.69 94.3,176.69 176.33,401.89 177.88,401.89 259.24,176.69 354.61,176.69 354.61,480.01 296.44,480.01 301.3,224.01 299.61,224.01 203.83,480.01 151.66,480.01 55.41,225.7 53.79,225.7 57.09,338.39 58.64,480.01 "/>
   <polygon class="fil1" points="1337.45,0 1476.02,240.01 1614.59,480.01 1524.85,480.01 1453.76,356.88 1315.19,116.87 1270.09,194.99 1341.07,317.92 1434.65,480.01 1374.05,480.01 1341.11,422.96 1203.98,422.96 1203.98,384.01 1318.62,384.01 1239.79,247.47 1176.63,356.88 1105.53,480.01 1090.86,480.01 1060.32,480.01 1198.88,240.01 "/>
   <path class="fil0" d="M141.83 699.27l-28.94 0 -11.5 -29.92 -52.64 0 -10.85 29.92 -28.2 0 51.29 -131.67 28.11 0 52.73 131.67zm-48.96 -52.09l-18.15 -48.87 -17.78 48.87 35.93 0zm62.97 -79.59l48.59 0c10.95,0 19.28,0.83 25.05,2.51 7.73,2.27 14.35,6.32 19.84,12.14 5.52,5.79 9.72,12.91 12.6,21.31 2.85,8.43 4.29,18.79 4.29,31.15 0,10.82 -1.35,20.17 -4.05,28.02 -3.28,9.56 -7.97,17.32 -14.1,23.24 -4.6,4.51 -10.82,8 -18.67,10.51 -5.85,1.87 -13.7,2.79 -23.54,2.79l-50 0 0 -131.67zm26.58 22.29l0 87.19 19.84 0c7.42,0 12.78,-0.4 16.09,-1.25 4.29,-1.07 7.88,-2.88 10.73,-5.46 2.85,-2.58 5.15,-6.84 6.96,-12.72 1.78,-5.89 2.7,-13.95 2.7,-24.13 0,-10.18 -0.92,-17.96 -2.7,-23.42 -1.81,-5.46 -4.32,-9.72 -7.54,-12.75 -3.25,-3.07 -7.36,-5.12 -12.32,-6.2 -3.71,-0.85 -10.97,-1.25 -21.83,-1.25l-11.93 0zm139.92 109.39l-47.06 -131.67 28.85 0 33.3 97.46 32.25 -97.46 28.2 0 -47.15 131.67 -28.39 0zm89.12 0l0 -131.67 97.61 0 0 22.29 -71.03 0 0 29.18 66.1 0 0 22.17 -66.1 0 0 35.84 73.54 0 0 22.2 -100.12 0zm122.75 0l0 -131.67 55.98 0c14.07,0 24.28,1.19 30.66,3.56 6.38,2.36 11.5,6.56 15.33,12.6 3.83,6.07 5.73,12.97 5.73,20.76 0,9.87 -2.91,18.06 -8.7,24.49 -5.79,6.41 -14.5,10.49 -26.06,12.14 5.76,3.37 10.52,7.05 14.26,11.07 3.74,4.01 8.77,11.13 15.11,21.36l16.1 25.69 -31.79 0 -19.22 -28.67c-6.84,-10.24 -11.5,-16.68 -14.01,-19.34 -2.51,-2.66 -5.18,-4.47 -8,-5.49 -2.82,-0.98 -7.26,-1.47 -13.4,-1.47l-5.36 0 0 54.97 -26.61 0zm26.61 -76l19.65 0c12.76,0 20.73,-0.52 23.91,-1.59 3.16,-1.07 5.64,-2.94 7.45,-5.58 1.78,-2.64 2.7,-5.92 2.7,-9.87 0,-4.44 -1.19,-8 -3.56,-10.73 -2.36,-2.73 -5.7,-4.44 -10.02,-5.18 -2.15,-0.27 -8.61,-0.43 -19.41,-0.43l-20.73 0 0 33.39zm135.78 76l0 -109.39 -39.06 0 0 -22.29 104.63 0 0 22.29 -38.97 0 0 109.39 -26.61 0zm81.91 0l0 -131.67 26.58 0 0 131.67 -26.58 0zm45.19 -42.83l25.87 -2.54c1.53,8.71 4.69,15.08 9.47,19.16 4.75,4.05 11.16,6.1 19.25,6.1 8.55,0 15.02,-1.81 19.35,-5.46 4.35,-3.62 6.53,-7.85 6.53,-12.69 0,-3.13 -0.92,-5.77 -2.76,-7.94 -1.81,-2.2 -5,-4.11 -9.57,-5.7 -3.09,-1.1 -10.21,-3 -21.27,-5.77 -14.26,-3.52 -24.25,-7.88 -29.98,-13.03 -8.09,-7.23 -12.14,-16.07 -12.14,-26.49 0,-6.71 1.9,-12.97 5.7,-18.82 3.8,-5.82 9.29,-10.27 16.43,-13.34 7.17,-3.03 15.79,-4.57 25.9,-4.57 16.55,0 28.97,3.62 37.34,10.85 8.34,7.27 12.72,16.92 13.15,29.03l-26.58 1.16c-1.13,-6.77 -3.58,-11.65 -7.32,-14.59 -3.74,-2.97 -9.35,-4.44 -16.83,-4.44 -7.73,0 -13.8,1.56 -18.15,4.75 -2.82,2.02 -4.23,4.75 -4.23,8.16 0,3.13 1.32,5.79 3.96,8 3.34,2.82 11.5,5.77 24.43,8.8 12.94,3.06 22.5,6.22 28.69,9.47 6.19,3.28 11.04,7.73 14.56,13.4 3.49,5.67 5.24,12.66 5.24,20.97 0,7.54 -2.08,14.63 -6.28,21.19 -4.2,6.59 -10.12,11.5 -17.78,14.68 -7.66,3.22 -17.23,4.81 -28.66,4.81 -16.65,0 -29.43,-3.83 -38.35,-11.53 -8.92,-7.7 -14.26,-18.92 -15.97,-33.63zm128.61 42.83l0 -131.67 26.58 0 0 131.67 -26.58 0zm52.18 0l0 -131.67 25.87 0 53.89 87.93 0 -87.93 24.71 0 0 131.67 -26.7 0 -53.07 -85.87 0 85.87 -24.71 0zm193.85 -48.41l0 -22.2 57.3 0 0 52.45c-5.58,5.4 -13.64,10.15 -24.22,14.26 -10.57,4.07 -21.27,6.13 -32.1,6.13 -13.77,0 -25.78,-2.88 -36.02,-8.65 -10.24,-5.79 -17.94,-14.04 -23.08,-24.8 -5.15,-10.76 -7.73,-22.44 -7.73,-35.07 0,-13.7 2.88,-25.9 8.61,-36.57 5.76,-10.64 14.16,-18.82 25.26,-24.49 8.43,-4.38 18.95,-6.56 31.51,-6.56 16.34,0 29.12,3.43 38.29,10.27 9.2,6.87 15.12,16.34 17.75,28.45l-26.4 4.93c-1.87,-6.47 -5.36,-11.59 -10.48,-15.33 -5.12,-3.74 -11.5,-5.61 -19.16,-5.61 -11.62,0 -20.84,3.68 -27.71,11.04 -6.87,7.39 -10.27,18.31 -10.27,32.8 0,15.6 3.46,27.35 10.42,35.16 6.93,7.82 16.04,11.71 27.28,11.71 5.58,0 11.16,-1.1 16.77,-3.28 5.58,-2.18 10.39,-4.84 14.41,-7.94l0 -16.71 -30.44 0zm244.82 48.41l-28.94 0 -11.5 -29.92 -52.64 0 -10.85 29.92 -28.2 0 51.29 -131.67 28.11 0 52.73 131.67zm-48.96 -52.09l-18.15 -48.87 -17.78 48.87 35.93 0zm124.32 3.68l0 -22.2 57.3 0 0 52.45c-5.58,5.4 -13.64,10.15 -24.22,14.26 -10.58,4.07 -21.28,6.13 -32.1,6.13 -13.77,0 -25.78,-2.88 -36.02,-8.65 -10.24,-5.79 -17.94,-14.04 -23.08,-24.8 -5.15,-10.76 -7.73,-22.44 -7.73,-35.07 0,-13.7 2.88,-25.9 8.61,-36.57 5.76,-10.64 14.16,-18.82 25.26,-24.49 8.43,-4.38 18.95,-6.56 31.51,-6.56 16.34,0 29.12,3.43 38.29,10.27 9.2,6.87 15.12,16.34 17.75,28.45l-26.4 4.93c-1.87,-6.47 -5.36,-11.59 -10.48,-15.33 -5.12,-3.74 -11.5,-5.61 -19.16,-5.61 -11.62,0 -20.84,3.68 -27.71,11.04 -6.87,7.39 -10.27,18.31 -10.27,32.8 0,15.6 3.46,27.35 10.43,35.16 6.93,7.82 16.03,11.71 27.28,11.71 5.58,0 11.16,-1.1 16.77,-3.28 5.58,-2.18 10.39,-4.84 14.41,-7.94l0 -16.71 -30.44 0zm81.82 48.41l0 -131.67 97.61 0 0 22.29 -71.03 0 0 29.18 66.1 0 0 22.17 -66.1 0 0 35.84 73.55 0 0 22.2 -100.13 0zm122.94 0l0 -131.67 25.87 0 53.89 87.93 0 -87.93 24.71 0 0 131.67 -26.7 0 -53.07 -85.87 0 85.87 -24.71 0zm216.84 -48.41l25.75 8.15c-3.95,14.38 -10.51,25.05 -19.71,32.04 -9.17,6.96 -20.84,10.45 -34.98,10.45 -17.48,0 -31.85,-5.98 -43.11,-17.9 -11.25,-11.96 -16.89,-28.3 -16.89,-48.99 0,-21.92 5.67,-38.93 16.98,-51.07 11.31,-12.11 26.18,-18.18 44.64,-18.18 16.09,0 29.18,4.75 39.24,14.29 6.01,5.61 10.48,13.7 13.49,24.25l-26.33 6.28c-1.53,-6.84 -4.78,-12.23 -9.75,-16.19 -4.93,-3.95 -10.94,-5.92 -17.99,-5.92 -9.75,0 -17.69,3.49 -23.76,10.52 -6.07,6.99 -9.11,18.33 -9.11,34.03 0,16.65 2.97,28.51 8.98,35.56 5.98,7.08 13.77,10.61 23.33,10.61 7.08,0 13.15,-2.24 18.24,-6.74 5.09,-4.48 8.74,-11.56 10.98,-21.19zm83.15 48.41l0 -55.43 -48.22 -76.24 31.18 0 30.99 52.09 30.35 -52.09 30.63 0 -48.41 76.43 0 55.25 -26.52 0z"/>
   <polygon class="fil0" points="2012.04,480.01 2012.04,226.44 1923.48,226.44 1923.48,176.69 2159.59,176.69 2159.59,226.44 2070.28,226.44 2070.28,480.01 "/>
  </g>
 </g>
</svg>
