<?xml version="1.0" encoding="UTF-8"?>
<!DOCTYPE svg PUBLIC "-//W3C//DTD SVG 1.1//EN" "http://www.w3.org/Graphics/SVG/1.1/DTD/svg11.dtd">
<!-- Creator: CorelDRAW 2019 (64-Bit) -->
<svg xmlns="http://www.w3.org/2000/svg" xml:space="preserve" width="3.12398in" height="1.0149in" version="1.1" style="shape-rendering:geometricPrecision; text-rendering:geometricPrecision; image-rendering:optimizeQuality; fill-rule:evenodd; clip-rule:evenodd"
viewBox="0 0 2031.15 659.87"
 xmlns:xlink="http://www.w3.org/1999/xlink"
 xmlns:xodm="http://www.corel.com/coreldraw/odm/2003">
 <defs>
  <style type="text/css">
   <![CDATA[
    .fil1 {fill:#ED3237}
    .fil0 {fill:#FEFEFE;fill-rule:nonzero}
   ]]>
  </style>
 </defs>
 <g id="Layer_x0020_1">
  <metadata id="CorelCorpID_0Corel-Layer"/>
  <g id="_2490497033520">
   <polygon class="fil0" points="1892.38,451.46 1892.38,212.97 1809.08,212.97 1809.08,166.18 2031.15,166.18 2031.15,212.97 1947.15,212.97 1947.15,451.46 "/>
   <path class="fil0" d="M1691.39 166.18c36.89,0 61.87,7.23 74.93,21.62 11.48,12.93 17.18,33.98 17.18,63.21 0,31.7 -4.18,52.49 -12.61,62.38 -7.48,9.26 -20.16,15.47 -37.97,18.7l0 1.08c16.74,1.65 29.35,7.29 37.97,17.12 6.85,10.9 10.27,27.07 10.27,48.37l0 52.81 -55.09 0 0 -42.98c0,-9.89 -0.51,-18.13 -1.46,-24.66 -0.95,-6.53 -3.36,-11.98 -7.29,-16.35 -3.87,-4.37 -8.5,-7.16 -13.76,-8.43 -5.32,-1.27 -12.36,-1.9 -21.24,-1.9l-5.64 0 -70.81 0 0 94.33 -54.77 0 0 -285.28 140.29 0zm-8.31 46.78l-77.22 0 0 97.37 78.8 0c9.51,0 16.86,-0.76 22,-2.34 5.13,-1.52 9.7,-4.44 13.76,-8.62 5.33,-6.85 7.99,-20.1 7.99,-39.56 0,-18.01 -2.22,-30.17 -6.53,-36.64 -3.55,-4.31 -8.37,-7.1 -14.52,-8.37 -6.15,-1.2 -14.27,-1.84 -24.28,-1.84z"/>
   <polygon class="fil0" points="911.21,166.18 966.36,166.18 966.36,451.46 911.21,451.46 "/>
   <path class="fil0" d="M766.14 451.46l-148.28 0 0 -285.28 137.31 0c50.34,0 83.05,13.57 98.07,40.7 8.94,16.67 13.38,40 13.38,69.99l0 60.86c0,50.53 -14.33,84.32 -42.98,101.18 -6.66,3.87 -15.47,6.91 -26.5,9.19 -10.97,2.22 -21.3,3.36 -31,3.36zm-10.97 -46.78c10.97,0 19.9,-1.27 26.75,-3.74 6.91,-2.47 13.06,-7.67 18.51,-15.66 7.35,-10.33 11.03,-28.59 11.03,-54.84l0 -19.27 0 -31.95c0,-16.86 -1.08,-29.73 -3.3,-38.54 -2.22,-8.87 -7.61,-15.72 -16.29,-20.48 -8.69,-4.82 -22.19,-7.23 -40.51,-7.23l-78.74 0 0 191.71 82.54 0z"/>
   <path class="fil0" d="M435.2 286.57l130.69 0 0 44.5 -130.68 0c0.06,25.9 3.73,43.95 11.03,54.2 5.45,7.99 11.61,13.18 18.51,15.66 6.84,2.46 15.79,3.74 26.75,3.74l78.98 0 0 46.79 -89.95 0c-9.7,0 -20.04,-1.12 -31,-3.36 -11.03,-2.26 -19.84,-5.32 -26.5,-9.19 -28.66,-16.86 -42.98,-50.65 -42.98,-101.18l0 -60.86c0,-29.99 4.3,-53.39 13.38,-69.99 14.88,-27.21 47.74,-40.7 98.07,-40.7l78.98 0 0 46.78 -75.18 0c-18.32,0 -31.82,2.43 -40.51,7.23 -8.67,4.78 -14.07,11.6 -16.29,20.48 -2.22,8.81 -3.3,21.68 -3.3,38.54l0 7.35z"/>
   <polygon class="fil0" points="-0,451.46 -0,166.18 88.69,166.18 165.84,377.98 167.3,377.98 243.82,166.18 333.52,166.18 333.52,451.46 278.81,451.46 283.38,210.69 281.79,210.69 191.71,451.46 142.64,451.46 52.11,212.27 50.59,212.27 53.7,318.27 55.16,451.46 "/>
   <polygon class="fil1" points="1257.91,-0 1388.23,225.73 1518.56,451.46 1434.16,451.46 1367.29,335.65 1236.97,109.92 1194.55,183.39 1261.31,299.01 1349.33,451.46 1292.32,451.46 1261.35,397.81 1132.37,397.81 1132.37,361.17 1240.19,361.17 1166.06,232.75 1106.65,335.65 1039.78,451.46 1025.98,451.46 997.26,451.46 1127.58,225.73 "/>
   <path class="fil0" d="M133.39 657.68l-27.22 0 -10.81 -28.14 -49.51 0 -10.21 28.14 -26.53 0 48.24 -123.84 26.44 0 49.59 123.84zm-46.05 -48.99l-17.07 -45.96 -16.72 45.96 33.79 0zm59.23 -74.85l45.7 0c10.3,0 18.14,0.78 23.56,2.37 7.26,2.13 13.49,5.94 18.66,11.42 5.19,5.45 9.14,12.14 11.85,20.04 2.68,7.93 4.04,17.67 4.04,29.29 0,10.18 -1.27,18.97 -3.81,26.35 -3.08,9 -7.5,16.29 -13.26,21.86 -4.33,4.24 -10.18,7.52 -17.56,9.89 -5.5,1.76 -12.89,2.62 -22.14,2.62l-47.03 0 0 -123.84zm25 20.96l0 82 18.66 0c6.98,0 12.03,-0.37 15.14,-1.18 4.04,-1.01 7.41,-2.71 10.1,-5.13 2.68,-2.42 4.84,-6.43 6.54,-11.96 1.67,-5.54 2.54,-13.12 2.54,-22.69 0,-9.57 -0.86,-16.9 -2.54,-22.03 -1.7,-5.13 -4.06,-9.14 -7.09,-11.99 -3.06,-2.88 -6.92,-4.81 -11.59,-5.83 -3.49,-0.81 -10.32,-1.18 -20.53,-1.18l-11.22 0zm131.6 102.88l-44.26 -123.84 27.13 0 31.31 91.66 30.33 -91.66 26.53 0 -44.35 123.84 -26.7 0zm83.82 0l0 -123.84 91.81 0 0 20.96 -66.81 0 0 27.45 62.17 0 0 20.85 -62.17 0 0 33.71 69.17 0 0 20.87 -94.17 0zm115.45 0l0 -123.84 52.65 0c13.24,0 22.84,1.12 28.84,3.35 6,2.22 10.81,6.17 14.41,11.85 3.61,5.71 5.39,12.2 5.39,19.52 0,9.28 -2.74,16.98 -8.19,23.04 -5.45,6.03 -13.64,9.86 -24.51,11.42 5.42,3.17 9.89,6.63 13.41,10.41 3.52,3.78 8.24,10.46 14.21,20.09l15.14 24.16 -29.9 0 -18.08 -26.96c-6.43,-9.63 -10.81,-15.68 -13.18,-18.19 -2.36,-2.51 -4.87,-4.21 -7.52,-5.16 -2.65,-0.92 -6.83,-1.38 -12.6,-1.38l-5.05 0 0 51.7 -25.03 0zm25.03 -71.48l18.48 0c12,0 19.5,-0.49 22.49,-1.5 2.97,-1.01 5.3,-2.77 7.01,-5.24 1.67,-2.48 2.54,-5.57 2.54,-9.29 0,-4.18 -1.12,-7.53 -3.35,-10.09 -2.22,-2.56 -5.36,-4.18 -9.43,-4.87 -2.02,-0.26 -8.1,-0.4 -18.25,-0.4l-19.49 0 0 31.4zm127.71 71.48l0 -102.88 -36.74 0 0 -20.96 98.41 0 0 20.96 -36.65 0 0 102.88 -25.03 0zm77.04 0l0 -123.84 25 0 0 123.84 -25 0zm42.5 -40.28l24.33 -2.39c1.44,8.19 4.41,14.19 8.91,18.02 4.47,3.81 10.5,5.74 18.11,5.74 8.05,0 14.13,-1.7 18.19,-5.13 4.09,-3.4 6.14,-7.38 6.14,-11.94 0,-2.94 -0.87,-5.42 -2.59,-7.47 -1.7,-2.07 -4.7,-3.86 -9,-5.36 -2.91,-1.04 -9.6,-2.83 -20.01,-5.42 -13.41,-3.31 -22.81,-7.41 -28.2,-12.25 -7.61,-6.8 -11.41,-15.11 -11.41,-24.91 0,-6.31 1.78,-12.19 5.36,-17.7 3.58,-5.48 8.74,-9.66 15.46,-12.54 6.75,-2.85 14.85,-4.3 24.36,-4.3 15.57,0 27.25,3.4 35.12,10.21 7.84,6.83 11.96,15.92 12.37,27.31l-25 1.09c-1.07,-6.37 -3.37,-10.96 -6.89,-13.72 -3.52,-2.8 -8.79,-4.18 -15.83,-4.18 -7.27,0 -12.98,1.47 -17.07,4.47 -2.65,1.9 -3.98,4.47 -3.98,7.67 0,2.94 1.24,5.45 3.72,7.53 3.14,2.65 10.81,5.42 22.98,8.27 12.17,2.88 21.16,5.85 26.99,8.91 5.83,3.09 10.38,7.27 13.7,12.6 3.29,5.33 4.93,11.91 4.93,19.72 0,7.09 -1.96,13.76 -5.91,19.93 -3.95,6.2 -9.51,10.81 -16.73,13.81 -7.21,3.03 -16.2,4.53 -26.96,4.53 -15.66,0 -27.68,-3.6 -36.07,-10.84 -8.39,-7.24 -13.41,-17.79 -15.02,-31.63zm120.96 40.28l0 -123.84 25 0 0 123.84 -25 0zm49.07 0l0 -123.84 24.34 0 50.69 82.7 0 -82.7 23.24 0 0 123.84 -25.11 0 -49.91 -80.76 0 80.76 -23.24 0zm182.32 -45.53l0 -20.88 53.89 0 0 49.34c-5.24,5.08 -12.83,9.54 -22.78,13.41 -9.95,3.83 -20.01,5.76 -30.19,5.76 -12.95,0 -24.25,-2.71 -33.88,-8.13 -9.63,-5.45 -16.87,-13.2 -21.71,-23.32 -4.85,-10.12 -7.27,-21.11 -7.27,-32.99 0,-12.89 2.71,-24.36 8.1,-34.4 5.42,-10.01 13.32,-17.71 23.76,-23.04 7.93,-4.12 17.82,-6.17 29.64,-6.17 15.37,0 27.39,3.23 36.01,9.66 8.65,6.46 14.22,15.37 16.69,26.76l-24.82 4.64c-1.76,-6.08 -5.05,-10.9 -9.86,-14.42 -4.82,-3.52 -10.81,-5.28 -18.02,-5.28 -10.93,0 -19.61,3.46 -26.07,10.38 -6.46,6.95 -9.66,17.22 -9.66,30.85 0,14.68 3.26,25.72 9.81,33.07 6.52,7.35 15.08,11.01 25.66,11.01 5.24,0 10.5,-1.04 15.77,-3.09 5.25,-2.05 9.77,-4.56 13.55,-7.47l0 -15.71 -28.63 0zm230.26 45.53l-27.22 0 -10.81 -28.14 -49.51 0 -10.21 28.14 -26.52 0 48.24 -123.84 26.44 0 49.59 123.84zm-46.05 -48.99l-17.07 -45.96 -16.72 45.96 33.79 0zm116.92 3.46l0 -20.88 53.89 0 0 49.34c-5.24,5.08 -12.83,9.54 -22.78,13.41 -9.95,3.83 -20.01,5.76 -30.19,5.76 -12.95,0 -24.25,-2.71 -33.88,-8.13 -9.63,-5.45 -16.87,-13.2 -21.71,-23.32 -4.85,-10.12 -7.27,-21.11 -7.27,-32.99 0,-12.89 2.71,-24.36 8.1,-34.4 5.42,-10.01 13.32,-17.71 23.76,-23.04 7.93,-4.12 17.82,-6.17 29.64,-6.17 15.37,0 27.39,3.23 36.01,9.66 8.65,6.46 14.22,15.37 16.69,26.76l-24.82 4.64c-1.76,-6.08 -5.05,-10.9 -9.86,-14.42 -4.82,-3.52 -10.81,-5.28 -18.02,-5.28 -10.93,0 -19.61,3.46 -26.07,10.38 -6.46,6.95 -9.66,17.22 -9.66,30.85 0,14.68 3.26,25.72 9.81,33.07 6.52,7.35 15.08,11.01 25.66,11.01 5.24,0 10.5,-1.04 15.77,-3.09 5.25,-2.05 9.77,-4.56 13.55,-7.47l0 -15.71 -28.63 0zm76.96 45.53l0 -123.84 91.81 0 0 20.96 -66.81 0 0 27.45 62.17 0 0 20.85 -62.17 0 0 33.71 69.17 0 0 20.87 -94.17 0zm115.62 0l0 -123.84 24.34 0 50.69 82.7 0 -82.7 23.24 0 0 123.84 -25.11 0 -49.91 -80.76 0 80.76 -23.24 0zm203.94 -45.53l24.22 7.67c-3.72,13.52 -9.89,23.56 -18.54,30.13 -8.62,6.55 -19.61,9.83 -32.9,9.83 -16.44,0 -29.96,-5.62 -40.54,-16.84 -10.58,-11.25 -15.88,-26.61 -15.88,-46.08 0,-20.61 5.33,-36.62 15.97,-48.03 10.64,-11.39 24.62,-17.1 41.98,-17.1 15.14,0 27.45,4.47 36.91,13.44 5.65,5.28 9.86,12.89 12.69,22.81l-24.77 5.91c-1.44,-6.43 -4.5,-11.5 -9.17,-15.23 -4.64,-3.72 -10.29,-5.56 -16.92,-5.56 -9.17,0 -16.64,3.29 -22.35,9.89 -5.71,6.58 -8.56,17.24 -8.56,32 0,15.66 2.8,26.82 8.45,33.45 5.62,6.66 12.95,9.98 21.94,9.98 6.66,0 12.37,-2.11 17.16,-6.34 4.79,-4.21 8.22,-10.87 10.32,-19.93zm78.2 45.53l0 -52.13 -45.36 -71.71 29.32 0 29.15 48.99 28.55 -48.99 28.81 0 -45.53 71.88 0 51.96 -24.94 0z"/>
  </g>
 </g>
</svg>
