<?xml version="1.0" encoding="UTF-8"?>
<!DOCTYPE svg PUBLIC "-//W3C//DTD SVG 1.1//EN" "http://www.w3.org/Graphics/SVG/1.1/DTD/svg11.dtd">
<!-- Creator: CorelDRAW 2019 (64-Bit) -->
<svg xmlns="http://www.w3.org/2000/svg" xml:space="preserve" width="1.51181in" height="1.04998in" version="1.1" style="shape-rendering:geometricPrecision; text-rendering:geometricPrecision; image-rendering:optimizeQuality; fill-rule:evenodd; clip-rule:evenodd"
viewBox="0 0 2006.98 1393.87"
 xmlns:xlink="http://www.w3.org/1999/xlink"
 xmlns:xodm="http://www.corel.com/coreldraw/odm/2003">
 <defs>
  <style type="text/css">
   <![CDATA[
    .fil0 {fill:#373435;fill-rule:nonzero}
   ]]>
  </style>
 </defs>
 <g id="Layer_x0020_1">
  <metadata id="CorelCorpID_0Corel-Layer"/>
  <g id="_1711893648304">
   <path class="fil0" d="M1124.77 978.1l423.26 -0.91 0 123.35 170.96 0c22.28,0 40.66,-7.49 55.21,-22.49 14.52,-14.98 22.16,-33.68 22.92,-56.09l0 -83.14 -140.39 0 0 -713.1c0,-24.41 9.05,-36.62 27.16,-36.62l66.24 0 0 -40.43 -127.39 0c-49.81,0 -74.72,25.11 -74.72,75.31l0 714.84 -465.15 0c1.13,28.09 15.09,41.19 41.89,39.29zm531.96 1.14l0 0 21.51 0c0,15.41 -0.37,63.75 -1.14,66.45 -2.26,8.09 -9.06,12.32 -20.37,12.71l0 -79.16z"/>
   <path class="fil0" d="M854.74 326.26l59.98 0c10.07,0 16.37,2.2 18.91,6.58l0 -24.13 -11.83 0 0 -104.01c0,-6.1 1.16,-11.29 3.46,-15.56 -1.81,-0.37 -3.7,-0.55 -5.63,-0.55 -18.78,0 -35.62,9.03 -50.53,27.1 -14.3,17.34 -21.45,35.71 -21.45,55.12 0,5 0.36,11.35 1.09,19.05 0.97,10.74 1.5,17.02 1.63,18.86l-13.09 0 0 24.13c2.55,-4.39 8.36,-6.58 17.45,-6.58zm21.44 -93.76l0 0c7.14,-11.35 16.42,-19.17 27.82,-23.44l0 99.65 -35.47 0c-2.04,-13.8 -3.06,-27.23 -3.06,-40.3 0,-12.57 3.56,-24.54 10.71,-35.91z"/>
   <path class="fil0" d="M661.89 300.66c0,-5.6 0.17,-10.97 0.54,-16.09l39.08 0 0 25.59c0,7.32 -1.15,12.68 -3.45,16.09l24.71 0c-2.29,-3.89 -3.45,-9.27 -3.45,-16.09l0 -105.5c0,-6.09 1.16,-11.27 3.45,-15.54 -1.81,-0.37 -3.7,-0.55 -5.63,-0.55 -11.26,0 -23.03,5.24 -35.26,15.73 -17.46,14.99 -28.85,35.59 -34.18,61.79 -1.69,8.3 -2.54,16.1 -2.54,23.41l0 20.66c0,5.49 -1.69,10.85 -5.09,16.09l25.45 0c-2.43,-4.51 -3.63,-13.05 -3.63,-25.6zm15.93 -66l0 0c7.36,-12.56 15.26,-21.09 23.7,-25.6l0 58.51 -36.72 0c2.17,-10.85 6.51,-21.82 13.02,-32.91z"/>
   <path class="fil0" d="M560.89 524.96c-26.43,20.13 -39.63,47.26 -39.63,81.43l0 610.67 115.5 0 0 -658.51c0,-12.14 6.22,-18.22 18.68,-18.22 12.45,0 18.68,6.08 18.68,18.22l0 430.75 113.23 0 0 -382.91c0,-34.17 -15.1,-61.51 -45.29,-82 -26.43,-18.22 -57.38,-27.33 -92.85,-27.33 -34.72,0 -64.16,9.3 -88.31,27.9z"/>
   <path class="fil0" d="M1312.6 831.24c-18.51,-0.45 -29.63,-5.97 -33.4,-16.55l-33.98 61.76 150.03 0c38.5,0 58.31,-23.39 59.45,-70.18l0 -348.52 -16.99 0c-10.2,-18.76 -17.92,-32.84 -23.21,-42.23 -8.68,-16.64 -13.22,-31.77 -13.59,-45.42 -0.37,-15.78 5.28,-30.07 16.99,-42.86l-109.27 0c-17.37,13.21 -25.85,33.9 -25.48,62.05 0.37,24.74 5.47,45.41 15.29,62.05 11.69,17.92 20.55,31.35 26.61,40.32 10.19,15.36 15.28,31.98 15.28,49.88l0 256.44c0,22.18 -9.25,33.27 -27.73,33.27z"/>
   <path class="fil0" d="M1961.7 404.93c-26.43,-18.23 -57.37,-27.34 -92.85,-27.34 -34.72,0 -64.16,9.31 -88.31,27.9 -26.42,20.13 -39.63,47.26 -39.63,81.43l0 380.51 115.5 0 0 -428.35c0,-12.14 6.23,-18.22 18.68,-18.22 12.45,0 18.69,6.08 18.69,18.22l0 661.44 113.21 0 0 -613.6c0,-34.17 -15.09,-61.51 -45.28,-82z"/>
   <path class="fil0" d="M1156.47 205.59l0 105.31c0,6.71 -1.21,11.82 -3.63,15.36l61.98 0c10.8,0 16.18,-4.26 16.18,-12.8 0,-6.71 -2,-12.86 -5.98,-18.47l-50.72 -71.3 0 -18.1c0,-7.07 1.09,-12.55 3.27,-16.46l-41.63 0 0 19.74c3,-2.18 6.54,-3.28 10.63,-3.28l9.9 0zm17.83 44.79l0 0 0.41 -0.04c14.71,20.67 24.59,34.35 29.67,41.07 3.57,4.49 5.37,8.98 5.37,13.47 0,3.41 -2.3,5.1 -6.87,5.1l-28.57 0 0 -59.6z"/>
   <path class="fil0" d="M873.35 977.28l-16.99 0c-2.26,151.47 68.69,227.21 212.87,227.21l159.65 0c-7.93,-18.38 -16.62,-40.01 -26.04,-64.92 -22.28,21.64 -44.35,32.27 -66.24,31.89 -33.96,-0.37 -67.18,-20.12 -99.64,-59.22 -31.33,-37.2 -46.99,-73.26 -46.99,-108.19l0 -418.05 27.17 0 0 142.43 165.87 0c23.78,0 44.72,-8.51 62.84,-25.53 16.6,-15.88 24.91,-33.47 24.91,-52.75l0 -101.73 -397.42 0 0 428.87zm281.93 -391.29l0 0 0 75.44c0,15.82 -8.3,24.29 -24.91,25.42l0 -34.45c-1.13,-11.67 -1.69,-55.48 -1.69,-66.41l26.6 0z"/>
   <path class="fil0" d="M1042.51 326.26l24.72 0c-2.17,-4.39 -3.27,-9.56 -3.27,-15.54l0 -77.7 40.35 0 0 77.7c0,6.95 -1.16,12.14 -3.45,15.54l24.72 0c-2.3,-4.39 -3.47,-9.56 -3.47,-15.54l0 -106.05c0,-6.59 1.22,-11.75 3.64,-15.54l-24.89 0c2.29,3.9 3.45,9.26 3.45,16.09l0 11.34 -40.35 0 0 -11.34c0,-6.95 1.16,-12.3 3.46,-16.09l-24.91 0c2.43,3.53 3.64,8.66 3.64,15.36l0 106.22c0,7.07 -1.21,12.26 -3.64,15.54z"/>
   <path class="fil0" d="M961.98 300.66c0,-5.6 0.18,-10.97 0.55,-16.09l39.08 0 0 25.59c0,7.32 -1.16,12.68 -3.45,16.09l24.72 0c-2.3,-3.89 -3.45,-9.27 -3.45,-16.09l0 -105.5c0,-6.09 1.15,-11.27 3.45,-15.54 -1.81,-0.37 -3.7,-0.55 -5.63,-0.55 -11.26,0 -23.02,5.24 -35.26,15.73 -17.46,14.99 -28.85,35.59 -34.18,61.79 -1.69,8.3 -2.54,16.1 -2.54,23.41l0 20.66c0,5.49 -1.69,10.85 -5.09,16.09l25.45 0c-2.43,-4.51 -3.64,-13.05 -3.64,-25.6zm15.94 -66l0 0c7.36,-12.56 15.26,-21.09 23.7,-25.6l0 58.51 -36.73 0c2.18,-10.85 6.52,-21.82 13.03,-32.91z"/>
   <path class="fil0" d="M389.38 0l-111.53 0c-23.78,0 -35.86,12.72 -36.23,38.15 -0.38,10.24 3.2,20.5 10.76,30.75 7.92,11.39 16.79,16.9 26.61,16.52 8.3,0 14.72,-3.82 19.25,-11.48 4.15,-6.52 6.22,-14.18 6.22,-22.99 0,-4.21 -1.13,-9.48 -3.4,-15.8 -2.26,-6.31 -3.39,-11 -3.39,-14.07l5.09 0c6.41,0 11.89,5.14 16.42,15.43 4.15,8.76 6.22,16.76 6.22,23.99l0 882.85 -76.31 0 0 -537.31c0,-50.11 -24.91,-75.16 -74.73,-75.16l-77.56 0c-16.98,0 -28.87,2.09 -35.66,6.26 -9.82,5.69 -14.53,16.33 -14.16,31.89 0,11.39 4.72,21.84 14.16,31.32 9.42,9.5 19.81,14.05 31.13,13.67 18.12,-0.38 27.17,-6.32 27.17,-17.82 0,-1.91 -0.19,-4.21 -0.57,-6.89 -3.77,-15.33 -7.17,-27.02 -10.19,-35.07l4.53 0c17.74,9.89 26.8,25.3 27.18,46.23l0 542.9 -140.4 0 0 72.96c0,21.64 7.73,40.25 23.21,55.81 14.34,14.8 32.64,22.39 54.91,22.77l170.97 0 0 -112.25c2.37,0.17 49.02,0.1 76.31,0.04l0 335.33c0,26.28 -10.57,39.43 -31.7,39.43l-27.17 0 0 36.44 115.48 0c38.87,0 58.31,-22.39 58.31,-67.19l0 -1257.21c0,-46.31 -16.99,-69.47 -50.95,-69.47zm-248.98 1052.18l0 0c-11.32,-0.37 -18.12,-4.55 -20.38,-12.53 -1.13,-3.79 -1.51,-41.83 -1.13,-55.88l21.52 0 0 68.41z"/>
   <path class="fil0" d="M742.41 326.26l24.72 0c-2.3,-3.29 -3.45,-8.47 -3.45,-15.54l0 -34.01 39.82 -48.08 0 82.09c0,5.98 -1.1,11.15 -3.28,15.54l24.72 0c-2.43,-3.29 -3.64,-8.47 -3.64,-15.54l0 -106.05c0,-6.82 1.21,-12.01 3.64,-15.54l-24.17 0c1.82,1.95 2.73,4.45 2.73,7.49 0,3.29 -2.95,8.29 -8.83,14.99l-30.98 35.47 0 -42.42c0,-6.82 1.15,-12.01 3.45,-15.54l-24.72 0c2.3,4.39 3.45,9.56 3.45,15.54l0 106.05c0,5.98 -1.14,11.15 -3.45,15.54z"/>
   <path class="fil0" d="M538.4 318.13c-1.05,-4.2 -1.51,-6.85 -1.39,-7.94l7.64 -101.42 28.21 25.39 29.41 -25.91 7.64 101.95c0.48,5.59 -0.78,10.96 -3.82,16.07l28.36 0c-4.48,-6.95 -6.73,-12.37 -6.73,-16.28 0,-11.95 -0.74,-26.02 -2.23,-42.23 -1.37,-14.14 -2.79,-28.22 -4.28,-42.24 -0.87,-8.78 -1.31,-15.53 -1.31,-20.29 0,-7.19 1.28,-12.55 3.82,-16.09l-30.53 0c-1.33,3.78 -3.08,6.58 -5.26,8.4l-15.09 13.17 -14 -13.34c-2.3,-2.2 -3.82,-4.95 -4.55,-8.23l-30.35 0c2.55,3.9 3.82,9.26 3.82,16.09 0,10.85 -0.85,24.51 -2.54,40.95 -1.58,13.65 -3.09,27.31 -4.55,40.96 -0.97,9.02 -1.45,16.64 -1.45,22.85 0,3.9 -2.24,9.32 -6.72,16.28l28.36 0c-0.59,-1.22 -1.4,-3.93 -2.44,-8.13z"/>
  </g>
 </g>
</svg>
