<?xml version="1.0" encoding="UTF-8"?>
<!DOCTYPE svg PUBLIC "-//W3C//DTD SVG 1.1//EN" "http://www.w3.org/Graphics/SVG/1.1/DTD/svg11.dtd">
<!-- Creator: CorelDRAW 2019 (64-Bit) -->
<svg xmlns="http://www.w3.org/2000/svg" xml:space="preserve" width="2.08064in" height="0.940528in" version="1.1" style="shape-rendering:geometricPrecision; text-rendering:geometricPrecision; image-rendering:optimizeQuality; fill-rule:evenodd; clip-rule:evenodd"
viewBox="0 0 1810.6 818.46"
 xmlns:xlink="http://www.w3.org/1999/xlink"
 xmlns:xodm="http://www.corel.com/coreldraw/odm/2003">
 <defs>
  <style type="text/css">
   <![CDATA[
    .str3 {stroke:#295097;stroke-width:4.43;stroke-miterlimit:22.9256}
    .str0 {stroke:#295097;stroke-width:4.43;stroke-miterlimit:22.9256}
    .str10 {stroke:#295097;stroke-width:4.43;stroke-miterlimit:22.9256}
    .str1 {stroke:#295097;stroke-width:4.43;stroke-miterlimit:22.9256}
    .str18 {stroke:#295097;stroke-width:4.43;stroke-miterlimit:22.9256}
    .str2 {stroke:#295097;stroke-width:4.43;stroke-miterlimit:22.9256}
    .str16 {stroke:#295097;stroke-width:4.43;stroke-miterlimit:22.9256}
    .str4 {stroke:#295097;stroke-width:4.43;stroke-miterlimit:22.9256}
    .str8 {stroke:#295097;stroke-width:4.43;stroke-miterlimit:22.9256}
    .str6 {stroke:#295097;stroke-width:4.43;stroke-miterlimit:22.9256}
    .str9 {stroke:#295097;stroke-width:4.43;stroke-miterlimit:22.9256}
    .str5 {stroke:#295097;stroke-width:4.43;stroke-miterlimit:22.9256}
    .str7 {stroke:#295097;stroke-width:4.43;stroke-miterlimit:22.9256}
    .str15 {stroke:#295097;stroke-width:4.43;stroke-miterlimit:22.9256}
    .str13 {stroke:#295097;stroke-width:4.43;stroke-miterlimit:22.9256}
    .str17 {stroke:#295097;stroke-width:4.43;stroke-miterlimit:22.9256}
    .str12 {stroke:#295097;stroke-width:4.43;stroke-miterlimit:22.9256}
    .str11 {stroke:#295097;stroke-width:4.43;stroke-miterlimit:22.9256}
    .str14 {stroke:#295097;stroke-width:4.43;stroke-miterlimit:22.9256}
    .fil4 {fill:none}
    .fil3 {fill:#FEFEFE}
    .fil2 {fill:#FEFEFE}
    .fil0 {fill:#00A859}
    .fil1 {fill:#295097}
    .fil5 {fill:#295097;fill-rule:nonzero}
   ]]>
  </style>
 </defs>
 <g id="Layer_x0020_1">
  <metadata id="CorelCorpID_0Corel-Layer"/>
  <g id="_1713028170864">
   <rect class="fil0" x="-0" y="0" width="1181.95" height="567.33" rx="26.27" ry="26.27"/>
   <path class="fil1" d="M1783.42 0l-575.21 0c-14.45,0 -26.27,11.82 -26.27,26.27l0 514.8c0,14.44 11.82,26.26 26.27,26.26l575.21 0c14.45,0 26.27,-11.82 26.27,-26.26l0 -514.8c0,-14.45 -11.82,-26.27 -26.27,-26.27z"/>
   <path class="fil2" d="M73.02 115.68l86.66 0 113 199.69 0 -199.69 87.43 0 0 360.96 -87.43 0 -112.45 -198.17 0 198.17 -87.22 0 0 -360.96zm335.15 0l248.51 0 0 77.07 -155.57 0 0 57.4 144.31 0 0 73.62 -144.31 0 0 71.1 160.11 0 0 81.77 -253.06 0 0 -360.96zm285.44 0l88.06 0 31.73 201.62 46.27 -201.62 87.85 0 46.47 201.62 31.73 -201.62 87.63 0 -66.11 360.96 -90.92 0 -52.62 -227.25 -52.41 227.25 -90.92 0 -66.74 -360.96z"/>
   <g>
    <path class="fil3 str0" d="M1242.57 121.34c51.88,2.36 99.44,-6.44 143.73,-23.66 32.15,-30.19 106.93,-8.82 59.45,45.69 15.67,21.14 32.23,32.56 50.08,29.78 0,16.45 0,32.9 0,49.36 -9.09,2.85 -17.1,1.35 -24.02,-4.49 -7.33,4.9 -16.29,4.9 -26.87,0 -12.76,2.32 -25.65,3.29 -39.5,-5.3 -15.61,1.77 -25.25,-2.45 -32.16,-9.38 -16.01,2.58 -26.06,-2.99 -30.13,-16.73 -15.2,1.57 -22.94,-5.1 -27.28,-15.5 -19.13,0.68 -31.21,-6.26 -36.24,-20.8 -7.26,3.94 -15.54,2.45 -26.05,-11.01 -10.38,-2.31 -12.56,-9.11 -10.99,-17.95z"/>
    <path class="fil4 str1" d="M1386.7 98.49c10.24,8.09 21.51,12.44 35.01,8.57 1.15,9.79 6.72,17.54 21.98,20.8 -3.66,5.44 -2.98,10.87 2.04,16.31"/>
    <path class="fil4 str2" d="M1321.15 117.66c16.9,18.03 50.42,14.06 97.72,-8.16"/>
    <path class="fil4 str3" d="M1341.91 131.94c19.53,20.68 40.79,17.47 83.06,-9.79"/>
    <path class="fil4 str4" d="M1372.04 147.85c19.53,20.68 26.13,9.72 68.4,-17.54"/>
    <g>
     <polygon class="fil5" points="1443.92,143.29 1446.74,146.71 1444.42,148.65 1442.2,150.52 1440.06,152.32 1438.01,154.06 1436.04,155.73 1434.13,157.32 1432.3,158.84 1430.52,160.28 1428.8,161.64 1427.11,162.92 1425.47,164.11 1423.86,165.22 1422.28,166.23 1420.71,167.15 1419.15,167.98 1417.59,168.71 1416.03,169.32 1414.46,169.83 1412.88,170.22 1411.29,170.48 1409.67,170.62 1408.04,170.62 1406.39,170.48 1404.73,170.21 1403.04,169.8 1401.33,169.26 1399.6,168.57 1397.83,167.76 1396.02,166.81 1394.17,165.71 1392.26,164.49 1390.3,163.12 1392.88,159.51 1394.73,160.79 1396.49,161.93 1398.18,162.92 1399.79,163.77 1401.34,164.49 1402.82,165.07 1404.24,165.53 1405.6,165.85 1406.93,166.07 1408.22,166.18 1409.48,166.18 1410.74,166.07 1411.99,165.86 1413.26,165.55 1414.54,165.14 1415.84,164.62 1417.18,164 1418.55,163.27 1419.96,162.44 1421.41,161.51 1422.92,160.48 1424.48,159.35 1426.08,158.12 1427.76,156.8 1429.5,155.4 1431.3,153.9 1433.19,152.32 1435.16,150.66 1437.2,148.93 1439.35,147.12 1441.58,145.23 "/>
    </g>
    <g>
     <polygon class="fil5" points="1456.54,157.15 1459.37,160.57 1457.87,161.8 1456.35,163 1454.82,164.17 1453.28,165.31 1451.73,166.41 1450.17,167.48 1448.6,168.51 1447.02,169.49 1445.44,170.43 1443.85,171.33 1442.26,172.17 1440.67,172.97 1439.07,173.7 1437.48,174.38 1435.88,175 1434.29,175.56 1432.69,176.05 1431.1,176.47 1429.51,176.82 1427.93,177.09 1426.36,177.28 1424.79,177.39 1423.23,177.41 1421.69,177.35 1420.16,177.18 1418.65,176.93 1417.15,176.57 1415.68,176.11 1414.23,175.54 1412.81,174.86 1411.43,174.07 1410.09,173.18 1412.67,169.56 1413.76,170.29 1414.86,170.92 1416,171.46 1417.15,171.92 1418.33,172.29 1419.53,172.58 1420.76,172.79 1422.02,172.92 1423.29,172.97 1424.6,172.95 1425.93,172.86 1427.29,172.69 1428.67,172.45 1430.06,172.15 1431.47,171.77 1432.9,171.34 1434.35,170.83 1435.81,170.26 1437.28,169.64 1438.76,168.96 1440.24,168.22 1441.73,167.43 1443.22,166.59 1444.72,165.7 1446.21,164.76 1447.71,163.79 1449.2,162.77 1450.68,161.71 1452.16,160.62 1453.63,159.49 1455.09,158.33 "/>
    </g>
    <g>
     <polygon class="fil5" points="1468.69,170.01 1472.02,172.94 1471.05,174.05 1470.06,175.16 1469.06,176.26 1468.05,177.35 1467.02,178.42 1465.99,179.48 1464.95,180.51 1463.89,181.53 1462.82,182.5 1461.75,183.44 1460.67,184.35 1459.57,185.21 1458.47,186.03 1457.35,186.79 1456.23,187.49 1455.09,188.14 1453.94,188.72 1452.78,189.22 1451.6,189.64 1450.42,189.99 1449.21,190.23 1447.99,190.38 1446.77,190.42 1445.54,190.33 1444.31,190.13 1443.09,189.79 1441.9,189.33 1440.73,188.73 1439.59,188 1438.48,187.14 1437.4,186.15 1436.36,185.03 1439.71,182.12 1440.52,183 1441.33,183.74 1442.13,184.37 1442.93,184.87 1443.71,185.27 1444.49,185.58 1445.27,185.79 1446.05,185.92 1446.85,185.98 1447.66,185.95 1448.5,185.85 1449.36,185.67 1450.24,185.42 1451.15,185.09 1452.07,184.69 1453.01,184.22 1453.96,183.68 1454.93,183.07 1455.9,182.4 1456.89,181.68 1457.88,180.89 1458.87,180.07 1459.87,179.19 1460.86,178.28 1461.85,177.33 1462.84,176.34 1463.84,175.33 1464.82,174.3 1465.8,173.24 1466.77,172.18 1467.73,171.1 "/>
    </g>
    <g>
     <polygon class="fil5" points="1334.95,127.58 1337.73,131.05 1336.57,131.79 1335.26,132.36 1333.77,132.85 1332.06,133.29 1330.16,133.69 1328.07,134.05 1325.8,134.38 1323.36,134.67 1320.78,134.94 1318.06,135.17 1315.24,135.38 1312.32,135.55 1309.31,135.7 1306.25,135.81 1303.14,135.9 1300.01,135.96 1296.87,135.99 1293.75,135.99 1290.65,135.97 1287.6,135.91 1284.62,135.83 1281.72,135.71 1278.93,135.57 1276.25,135.4 1273.71,135.21 1271.32,134.98 1269.1,134.72 1267.07,134.43 1265.23,134.11 1263.6,133.75 1262.17,133.35 1260.92,132.87 1262.8,128.84 1263.55,129.13 1264.66,129.44 1266.07,129.75 1267.75,130.04 1269.66,130.31 1271.78,130.56 1274.08,130.78 1276.56,130.97 1279.17,131.14 1281.92,131.27 1284.77,131.39 1287.71,131.47 1290.71,131.53 1293.76,131.55 1296.85,131.55 1299.94,131.52 1303.03,131.46 1306.1,131.37 1309.12,131.26 1312.08,131.11 1314.94,130.94 1317.71,130.74 1320.36,130.51 1322.87,130.26 1325.21,129.97 1327.38,129.66 1329.34,129.32 1331.06,128.96 1332.53,128.58 1333.7,128.2 1334.53,127.84 "/>
    </g>
    <g>
     <polygon class="fil5" points="1353.68,141.85 1356.46,145.32 1355.31,146.06 1353.99,146.63 1352.5,147.13 1350.79,147.57 1348.89,147.96 1346.8,148.33 1344.53,148.65 1342.09,148.95 1339.51,149.21 1336.8,149.45 1333.97,149.65 1331.05,149.83 1328.04,149.97 1324.98,150.09 1321.87,150.18 1318.74,150.24 1315.6,150.27 1312.48,150.27 1309.38,150.24 1306.34,150.18 1303.35,150.1 1300.45,149.99 1297.66,149.84 1294.98,149.68 1292.44,149.48 1290.05,149.25 1287.83,148.99 1285.8,148.71 1283.96,148.38 1282.33,148.03 1280.9,147.62 1279.65,147.14 1281.53,143.11 1282.28,143.4 1283.39,143.72 1284.8,144.03 1286.48,144.32 1288.39,144.59 1290.51,144.83 1292.81,145.05 1295.29,145.24 1297.9,145.41 1300.65,145.55 1303.5,145.66 1306.43,145.74 1309.44,145.8 1312.49,145.83 1315.58,145.83 1318.67,145.79 1321.77,145.74 1324.83,145.65 1327.85,145.53 1330.81,145.39 1333.67,145.22 1336.44,145.02 1339.09,144.79 1341.6,144.53 1343.94,144.25 1346.11,143.93 1348.07,143.6 1349.79,143.24 1351.26,142.86 1352.43,142.48 1353.26,142.12 "/>
    </g>
    <g>
     <polygon class="fil5" points="1372.82,153.28 1375.59,156.74 1374.7,157.39 1373.67,158.03 1372.49,158.67 1371.18,159.32 1369.74,159.99 1368.16,160.66 1366.48,161.34 1364.68,162.03 1362.79,162.72 1360.81,163.41 1358.76,164.09 1356.64,164.77 1354.48,165.43 1352.26,166.08 1350.03,166.7 1347.76,167.3 1345.5,167.87 1343.23,168.41 1340.98,168.91 1338.75,169.37 1336.57,169.79 1334.42,170.16 1332.34,170.47 1330.32,170.73 1328.38,170.92 1326.53,171.05 1324.77,171.11 1323.11,171.09 1321.56,170.98 1320.11,170.77 1318.76,170.45 1317.52,169.99 1319.39,165.96 1320.04,166.2 1320.92,166.41 1322.01,166.56 1323.29,166.65 1324.72,166.67 1326.3,166.61 1328.01,166.5 1329.82,166.31 1331.73,166.07 1333.72,165.77 1335.77,165.42 1337.89,165.01 1340.05,164.57 1342.23,164.08 1344.44,163.56 1346.65,163 1348.86,162.41 1351.05,161.8 1353.21,161.17 1355.32,160.53 1357.38,159.87 1359.39,159.2 1361.3,158.53 1363.13,157.86 1364.85,157.2 1366.46,156.56 1367.94,155.92 1369.28,155.31 1370.45,154.73 1371.45,154.18 1372.25,153.69 "/>
    </g>
    <g>
     <polygon class="fil5" points="1392.37,164.7 1395.14,168.17 1394.34,168.77 1393.44,169.41 1392.41,170.09 1391.26,170.81 1390.01,171.56 1388.66,172.34 1387.23,173.14 1385.7,173.97 1384.1,174.81 1382.43,175.66 1380.7,176.51 1378.92,177.37 1377.1,178.22 1375.24,179.05 1373.36,179.87 1371.46,180.67 1369.55,181.43 1367.64,182.17 1365.74,182.86 1363.85,183.51 1361.99,184.11 1360.16,184.65 1358.36,185.14 1356.62,185.55 1354.92,185.89 1353.28,186.16 1351.7,186.33 1350.19,186.41 1348.74,186.39 1347.36,186.24 1346.04,185.95 1344.8,185.49 1346.67,181.46 1347.27,181.68 1348.06,181.85 1349,181.95 1350.1,181.97 1351.33,181.91 1352.68,181.75 1354.13,181.52 1355.66,181.21 1357.28,180.83 1358.95,180.38 1360.68,179.86 1362.45,179.29 1364.26,178.67 1366.09,178.01 1367.93,177.29 1369.78,176.55 1371.62,175.78 1373.45,174.98 1375.25,174.17 1377.03,173.35 1378.76,172.52 1380.44,171.69 1382.07,170.86 1383.62,170.04 1385.09,169.25 1386.48,168.47 1387.77,167.73 1388.95,167.02 1390.01,166.35 1390.94,165.74 1391.73,165.18 "/>
    </g>
    <g>
     <polygon class="fil5" points="1420.45,176.12 1423.23,179.59 1422.5,180.16 1421.65,180.82 1420.7,181.54 1419.64,182.33 1418.47,183.18 1417.21,184.09 1415.87,185.04 1414.46,186.03 1412.97,187.04 1411.42,188.08 1409.81,189.14 1408.16,190.2 1406.47,191.27 1404.75,192.33 1403,193.38 1401.24,194.41 1399.46,195.41 1397.69,196.37 1395.92,197.3 1394.16,198.17 1392.42,198.99 1390.7,199.74 1389.01,200.43 1387.36,201.03 1385.75,201.56 1384.18,201.98 1382.66,202.3 1381.18,202.51 1379.75,202.58 1378.37,202.51 1377.02,202.26 1375.74,201.8 1377.61,197.77 1378.16,197.97 1378.87,198.1 1379.74,198.14 1380.75,198.09 1381.88,197.93 1383.14,197.66 1384.48,197.3 1385.91,196.83 1387.42,196.28 1388.97,195.65 1390.58,194.94 1392.23,194.17 1393.91,193.33 1395.61,192.45 1397.32,191.52 1399.04,190.55 1400.75,189.55 1402.45,188.53 1404.13,187.49 1405.78,186.46 1407.39,185.41 1408.96,184.38 1410.48,183.35 1411.94,182.36 1413.33,181.4 1414.64,180.47 1415.87,179.59 1417,178.75 1418.04,177.98 1418.97,177.28 1419.78,176.66 "/>
    </g>
    <g>
     <polygon class="fil5" points="1441.03,184.86 1444,188.15 1443.31,188.77 1442.5,189.47 1441.6,190.26 1440.58,191.11 1439.47,192.03 1438.27,193.01 1436.99,194.04 1435.63,195.11 1434.21,196.21 1432.72,197.34 1431.18,198.49 1429.6,199.66 1427.98,200.82 1426.32,201.99 1424.64,203.14 1422.95,204.27 1421.23,205.38 1419.52,206.45 1417.81,207.47 1416.1,208.46 1414.41,209.38 1412.75,210.24 1411.1,211.02 1409.49,211.72 1407.92,212.34 1406.37,212.86 1404.88,213.27 1403.41,213.57 1401.99,213.73 1400.6,213.74 1399.25,213.57 1397.94,213.19 1399.56,209.06 1400.12,209.22 1400.84,209.31 1401.7,209.3 1402.71,209.18 1403.84,208.95 1405.07,208.61 1406.39,208.17 1407.79,207.62 1409.26,206.98 1410.78,206.25 1412.34,205.45 1413.94,204.58 1415.56,203.64 1417.2,202.66 1418.86,201.62 1420.51,200.55 1422.16,199.45 1423.8,198.33 1425.42,197.2 1427,196.06 1428.55,194.92 1430.05,193.79 1431.51,192.68 1432.9,191.6 1434.23,190.56 1435.48,189.55 1436.66,188.59 1437.74,187.7 1438.73,186.87 1439.61,186.11 1440.38,185.44 "/>
    </g>
    <path class="fil3 str5" d="M1749.07 121.34c-51.88,2.36 -99.44,-6.44 -143.73,-23.66 -32.15,-30.19 -106.93,-8.82 -59.45,45.69 -15.67,21.14 -32.23,32.56 -50.08,29.78 0,16.45 0,32.9 0,49.36 9.09,2.85 17.1,1.35 24.02,-4.49 7.33,4.9 16.29,4.9 26.87,0 12.76,2.32 25.65,3.29 39.49,-5.3 15.61,1.77 25.25,-2.45 32.17,-9.38 16.01,2.58 26.06,-2.99 30.13,-16.73 15.2,1.57 22.94,-5.1 27.28,-15.5 19.14,0.68 31.22,-6.26 36.24,-20.8 7.26,3.94 15.54,2.45 26.06,-11.01 10.38,-2.31 12.55,-9.11 10.99,-17.95z"/>
    <path class="fil4 str6" d="M1604.93 98.49c-10.24,8.09 -21.51,12.44 -35.01,8.57 -1.15,9.79 -6.72,17.54 -21.99,20.8 3.67,5.44 2.98,10.87 -2.04,16.31"/>
    <path class="fil4 str7" d="M1670.48 117.66c-16.89,18.03 -50.41,14.06 -97.71,-8.16"/>
    <path class="fil4 str8" d="M1649.72 131.94c-19.53,20.68 -40.79,17.47 -83.06,-9.79"/>
    <path class="fil4 str9" d="M1619.59 147.85c-19.53,20.68 -26.13,9.72 -68.4,-17.54"/>
    <g>
     <polygon class="fil5" points="1547.71,143.29 1550.05,145.23 1552.29,147.12 1554.43,148.93 1556.48,150.66 1558.44,152.32 1560.33,153.9 1562.13,155.4 1563.87,156.8 1565.54,158.12 1567.16,159.35 1568.72,160.48 1570.22,161.51 1571.67,162.44 1573.08,163.27 1574.46,164 1575.79,164.62 1577.1,165.14 1578.37,165.55 1579.64,165.86 1580.9,166.07 1582.15,166.18 1583.41,166.18 1584.71,166.07 1586.03,165.85 1587.4,165.53 1588.82,165.07 1590.3,164.49 1591.85,163.77 1593.46,162.92 1595.14,161.93 1596.91,160.79 1598.76,159.51 1601.34,163.12 1599.37,164.49 1597.47,165.71 1595.61,166.81 1593.81,167.76 1592.04,168.57 1590.3,169.26 1588.6,169.8 1586.91,170.21 1585.24,170.48 1583.59,170.62 1581.96,170.62 1580.35,170.48 1578.75,170.22 1577.17,169.83 1575.6,169.32 1574.04,168.71 1572.48,167.98 1570.93,167.15 1569.36,166.23 1567.77,165.22 1566.16,164.11 1564.52,162.92 1562.84,161.64 1561.11,160.28 1559.33,158.84 1557.5,157.32 1555.59,155.73 1553.62,154.06 1551.57,152.32 1549.43,150.52 1547.21,148.65 1544.89,146.71 "/>
    </g>
    <g>
     <polygon class="fil5" points="1535.1,157.15 1536.56,158.39 1537.96,159.62 1539.29,160.82 1540.56,162.01 1541.78,163.18 1542.94,164.31 1544.05,165.41 1545.11,166.46 1546.12,167.48 1547.1,168.45 1548.04,169.38 1548.95,170.24 1549.82,171.04 1550.66,171.79 1551.47,172.47 1552.25,173.08 1553.01,173.61 1553.75,174.07 1554.46,174.46 1555.14,174.77 1555.82,175 1556.47,175.17 1557.13,175.27 1557.8,175.31 1558.48,175.27 1559.21,175.15 1559.99,174.95 1560.82,174.66 1561.71,174.27 1562.67,173.77 1563.68,173.14 1564.77,172.4 1567.35,176.01 1566.09,176.88 1564.85,177.63 1563.64,178.27 1562.45,178.79 1561.28,179.2 1560.11,179.5 1558.96,179.69 1557.81,179.75 1556.69,179.69 1555.59,179.53 1554.53,179.26 1553.5,178.89 1552.49,178.44 1551.52,177.91 1550.56,177.31 1549.63,176.65 1548.7,175.94 1547.78,175.16 1546.85,174.35 1545.91,173.48 1544.97,172.57 1544,171.62 1543,170.63 1541.98,169.62 1540.93,168.56 1539.83,167.48 1538.7,166.38 1537.52,165.25 1536.3,164.1 1535.01,162.94 1533.67,161.76 1532.27,160.57 "/>
    </g>
    <g>
     <polygon class="fil5" points="1520.34,170.52 1520.98,171.5 1521.63,172.47 1522.27,173.43 1522.93,174.37 1523.6,175.31 1524.26,176.22 1524.94,177.12 1525.62,177.99 1526.3,178.83 1526.99,179.63 1527.68,180.39 1528.37,181.12 1529.06,181.8 1529.75,182.44 1530.44,183.02 1531.12,183.55 1531.8,184.02 1532.47,184.44 1533.13,184.79 1533.77,185.07 1534.4,185.3 1535.03,185.47 1535.63,185.58 1536.23,185.63 1536.83,185.61 1537.44,185.54 1538.05,185.39 1538.68,185.18 1539.33,184.88 1540.01,184.49 1540.71,184.01 1541.44,183.42 1544.34,186.78 1543.36,187.58 1542.36,188.26 1541.34,188.84 1540.31,189.31 1539.27,189.66 1538.21,189.91 1537.16,190.04 1536.11,190.07 1535.08,189.99 1534.06,189.81 1533.08,189.55 1532.11,189.2 1531.17,188.78 1530.26,188.29 1529.37,187.74 1528.5,187.13 1527.65,186.48 1526.82,185.77 1526.01,185.02 1525.21,184.24 1524.43,183.42 1523.66,182.56 1522.9,181.68 1522.16,180.77 1521.43,179.84 1520.71,178.88 1520,177.91 1519.3,176.93 1518.62,175.94 1517.95,174.95 1517.28,173.95 1516.63,172.95 "/>
    </g>
    <g>
     <polygon class="fil5" points="1571.18,176.12 1571.85,176.66 1572.66,177.28 1573.59,177.98 1574.63,178.75 1575.76,179.59 1576.99,180.47 1578.3,181.4 1579.69,182.36 1581.15,183.35 1582.67,184.38 1584.24,185.41 1585.85,186.46 1587.5,187.49 1589.19,188.53 1590.89,189.55 1592.6,190.55 1594.32,191.52 1596.03,192.45 1597.73,193.33 1599.4,194.17 1601.05,194.94 1602.66,195.65 1604.22,196.28 1605.72,196.83 1607.15,197.3 1608.49,197.66 1609.75,197.93 1610.88,198.09 1611.89,198.14 1612.76,198.1 1613.47,197.97 1614.02,197.77 1615.89,201.8 1614.61,202.26 1613.26,202.51 1611.88,202.58 1610.45,202.51 1608.97,202.3 1607.45,201.98 1605.88,201.56 1604.27,201.03 1602.62,200.43 1600.93,199.74 1599.21,198.99 1597.48,198.17 1595.71,197.3 1593.95,196.37 1592.17,195.41 1590.4,194.41 1588.63,193.38 1586.88,192.33 1585.16,191.27 1583.48,190.2 1581.82,189.14 1580.22,188.08 1578.67,187.04 1577.18,186.03 1575.76,185.04 1574.42,184.09 1573.16,183.18 1572,182.33 1570.94,181.54 1569.98,180.82 1569.13,180.16 1568.4,179.59 "/>
    </g>
    <g>
     <polygon class="fil5" points="1550.61,184.86 1551.25,185.44 1552.02,186.11 1552.91,186.87 1553.89,187.7 1554.97,188.59 1556.15,189.55 1557.41,190.56 1558.73,191.6 1560.13,192.68 1561.58,193.79 1563.09,194.92 1564.64,196.06 1566.22,197.2 1567.84,198.33 1569.47,199.45 1571.12,200.55 1572.78,201.62 1574.43,202.66 1576.07,203.64 1577.7,204.58 1579.29,205.45 1580.85,206.25 1582.37,206.98 1583.84,207.62 1585.24,208.17 1586.56,208.61 1587.79,208.95 1588.92,209.18 1589.93,209.3 1590.8,209.31 1591.51,209.22 1592.07,209.06 1593.7,213.19 1592.39,213.57 1591.03,213.74 1589.64,213.73 1588.22,213.57 1586.76,213.27 1585.26,212.86 1583.72,212.34 1582.14,211.72 1580.53,211.02 1578.89,210.24 1577.22,209.38 1575.53,208.46 1573.82,207.47 1572.11,206.45 1570.4,205.38 1568.69,204.27 1566.99,203.14 1565.31,201.99 1563.65,200.82 1562.03,199.66 1560.45,198.49 1558.91,197.34 1557.43,196.21 1556,195.11 1554.65,194.04 1553.37,193.01 1552.17,192.03 1551.06,191.11 1550.04,190.26 1549.13,189.47 1548.32,188.77 1547.63,188.15 "/>
    </g>
    <polygon class="fil3 str10" points="1482.23,104.83 1508.18,104.83 1499.8,517.66 1492.64,517.66 "/>
    <path class="fil3 str11" d="M1495.82 49.68c14.98,0 27.2,12.64 27.2,28.15 0,15.5 -12.21,28.14 -27.2,28.14 -14.98,0 -27.2,-12.64 -27.2,-28.14 0,-15.51 12.21,-28.15 27.2,-28.15z"/>
    <path class="fil3 str12" d="M1480.2 98.93l31.23 0c0.91,0 1.66,0.75 1.66,1.66l0 5.77c0,0.91 -0.75,1.66 -1.66,1.66l-31.23 0c-0.91,0 -1.66,-0.75 -1.66,-1.66l0 -5.77c0,-0.91 0.75,-1.66 1.66,-1.66z"/>
    <path class="fil3 str13" d="M1542.59 215.51c19.63,3.98 13.74,22.68 2.38,25.79 -9.66,2.63 -20.02,4.9 -29.93,6.7 -23.59,4.28 -45.29,4.73 -67.8,5.15 -47.6,4.73 -51.2,58.81 20.91,76.05 60.43,10.25 56.61,37.07 21.83,47.43 -38.86,5.04 -33.81,31.84 -16.83,41.88 5.73,3.39 11.61,2.53 16.96,6.04 12.14,7.96 13.7,16.18 -5.83,24.88 -26.58,14.32 -14.45,31.85 4.27,37.12 6.24,-1.17 9.65,8.14 12.57,13.7 3.29,6.24 1.75,9.2 2.73,0.96 1.04,-8.76 2.58,-17.55 -20.29,-24.65 -6.51,-6.68 -2.45,-12.17 6.41,-17.13 30.64,-12.82 30.32,-40.39 -2.85,-47.11 -22.34,-5.3 -12.19,-19.04 3.56,-20.7 56.87,-0.08 74.7,-62.73 -4.98,-78.51 -54.78,-5.25 -50.05,-37.22 -21.38,-41.4 18.05,-1.43 36.1,-2.86 54.15,-4.28 30.95,-1.59 56.1,-8.99 60.56,-37.12 0.43,-16.29 -11.56,-25.91 -35.71,-27.87 -3.28,-4.22 -9.84,-7.11 -17.37,-7.11 -10.79,0 -19.59,5.93 -19.59,13.2 0,7.27 8.8,13.21 19.59,13.21 7,0 13.15,-2.5 16.62,-6.24z"/>
    <path class="fil3 str14" d="M1522.3 203.7c-1.37,0 -2.48,1.12 -2.48,2.48 0,1.37 1.12,2.48 2.48,2.48 1.37,0 2.48,-1.11 2.48,-2.48 0,-1.37 -1.12,-2.48 -2.48,-2.48z"/>
    <path class="fil4 str15" d="M1506.76 211.29c3.47,1.19 7.55,1.93 12.68,1.85 1.19,-0.01 0.9,0 -0.04,0.43 -3.03,1.39 -6.11,2.07 -9.25,1.9"/>
    <path class="fil3 str16" d="M1449.04 215.51c-19.63,3.98 -13.75,22.68 -2.38,25.79 9.65,2.63 20.01,4.9 29.93,6.7 23.58,4.28 45.29,4.73 67.79,5.15 47.6,4.73 51.2,58.81 -20.91,76.05 -60.43,10.25 -56.61,37.07 -21.83,47.43 38.86,5.04 33.81,31.84 16.83,41.88 -5.73,3.39 -11.61,2.53 -16.96,6.04 -12.14,7.96 -13.7,16.18 5.83,24.88 26.58,14.32 14.45,31.85 -4.28,37.12 -6.24,-1.17 -9.65,8.14 -12.57,13.7 -3.29,6.24 -1.75,9.2 -2.73,0.96 -1.04,-8.76 -2.58,-17.55 20.29,-24.65 6.51,-6.68 2.45,-12.17 -6.41,-17.13 -30.64,-12.82 -30.33,-40.39 2.85,-47.11 22.34,-5.3 12.19,-19.04 -3.56,-20.7 -56.88,-0.08 -74.7,-62.73 4.98,-78.51 54.78,-5.25 50.05,-37.22 21.37,-41.4 -18.05,-1.43 -36.1,-2.86 -54.14,-4.28 -30.95,-1.59 -56.1,-8.99 -60.56,-37.12 -0.43,-16.29 11.56,-25.91 35.71,-27.87 3.28,-4.22 9.84,-7.11 17.37,-7.11 10.79,0 19.59,5.93 19.59,13.2 0,7.27 -8.8,13.21 -19.59,13.21 -7,0 -13.15,-2.5 -16.62,-6.24z"/>
    <path class="fil3 str17" d="M1469.33 203.7c1.37,0 2.48,1.12 2.48,2.48 0,1.37 -1.11,2.48 -2.48,2.48 -1.37,0 -2.48,-1.11 -2.48,-2.48 0,-1.37 1.11,-2.48 2.48,-2.48z"/>
    <path class="fil4 str18" d="M1484.88 211.29c-3.47,1.19 -7.55,1.93 -12.68,1.85 -1.19,-0.01 -0.9,0 0.03,0.43 3.03,1.39 6.11,2.07 9.25,1.9"/>
    <g>
     <polygon class="fil5" points="1603.82,164.76 1604.5,165.3 1605.31,165.93 1606.23,166.63 1607.27,167.4 1608.41,168.23 1609.64,169.11 1610.95,170.04 1612.34,171.01 1613.8,172 1615.31,173.02 1616.89,174.05 1618.5,175.1 1620.15,176.14 1621.83,177.17 1623.53,178.19 1625.24,179.19 1626.96,180.16 1628.68,181.09 1630.37,181.98 1632.05,182.81 1633.7,183.59 1635.3,184.29 1636.86,184.93 1638.36,185.48 1639.8,185.94 1641.14,186.31 1642.39,186.57 1643.53,186.73 1644.54,186.79 1645.41,186.74 1646.12,186.61 1646.67,186.42 1648.54,190.45 1647.26,190.91 1645.91,191.16 1644.53,191.23 1643.1,191.15 1641.62,190.95 1640.1,190.62 1638.53,190.2 1636.92,189.68 1635.27,189.07 1633.58,188.39 1631.86,187.64 1630.12,186.81 1628.36,185.94 1626.59,185.02 1624.82,184.05 1623.04,183.05 1621.28,182.03 1619.53,180.98 1617.81,179.91 1616.12,178.85 1614.47,177.78 1612.87,176.73 1611.32,175.69 1609.83,174.67 1608.41,173.68 1607.07,172.73 1605.81,171.83 1604.65,170.98 1603.58,170.19 1602.62,169.46 1601.77,168.81 1601.05,168.23 "/>
    </g>
    <g>
     <polygon class="fil5" points="1632.21,147.73 1632.89,148.27 1633.7,148.89 1634.63,149.59 1635.66,150.37 1636.8,151.2 1638.03,152.08 1639.34,153.01 1640.73,153.97 1642.18,154.97 1643.71,155.99 1645.27,157.02 1646.89,158.07 1648.54,159.11 1650.22,160.14 1651.92,161.16 1653.63,162.16 1655.35,163.13 1657.06,164.06 1658.76,164.95 1660.44,165.78 1662.09,166.55 1663.7,167.27 1665.25,167.9 1666.76,168.44 1668.19,168.91 1669.53,169.27 1670.78,169.54 1671.92,169.7 1672.93,169.75 1673.8,169.71 1674.51,169.58 1675.06,169.38 1676.93,173.41 1675.65,173.87 1674.3,174.12 1672.92,174.19 1671.49,174.12 1670.01,173.92 1668.49,173.59 1666.92,173.17 1665.31,172.64 1663.66,172.04 1661.97,171.36 1660.25,170.6 1658.51,169.78 1656.75,168.91 1654.98,167.99 1653.21,167.02 1651.43,166.02 1649.67,164.99 1647.92,163.94 1646.2,162.88 1644.51,161.82 1642.86,160.75 1641.25,159.69 1639.7,158.65 1638.22,157.64 1636.8,156.65 1635.46,155.7 1634.2,154.8 1633.03,153.94 1631.97,153.15 1631.02,152.43 1630.17,151.78 1629.44,151.2 "/>
    </g>
    <g>
     <polygon class="fil5" points="1660.6,127.86 1661.28,128.4 1662.09,129.02 1663.02,129.72 1664.05,130.49 1665.19,131.32 1666.42,132.21 1667.73,133.14 1669.12,134.1 1670.57,135.1 1672.09,136.11 1673.67,137.15 1675.28,138.19 1676.93,139.23 1678.61,140.27 1680.31,141.29 1682.03,142.29 1683.74,143.26 1685.45,144.18 1687.15,145.08 1688.83,145.91 1690.48,146.68 1692.08,147.39 1693.64,148.02 1695.14,148.57 1696.58,149.03 1697.92,149.4 1699.17,149.66 1700.31,149.83 1701.32,149.88 1702.19,149.84 1702.9,149.71 1703.45,149.51 1705.32,153.54 1704.04,154 1702.69,154.25 1701.31,154.32 1699.88,154.25 1698.4,154.04 1696.88,153.72 1695.31,153.29 1693.7,152.77 1692.05,152.17 1690.36,151.49 1688.64,150.73 1686.9,149.91 1685.14,149.04 1683.37,148.11 1681.59,147.15 1679.82,146.14 1678.06,145.12 1676.31,144.07 1674.59,143.01 1672.9,141.94 1671.25,140.88 1669.64,139.82 1668.09,138.78 1666.6,137.76 1665.19,136.77 1663.85,135.83 1662.59,134.92 1661.42,134.07 1660.36,133.28 1659.4,132.56 1658.55,131.91 1657.83,131.33 "/>
    </g>
   </g>
   <path class="fil5" d="M-0 815.07l0 -186.53 37.78 0 0 73.47 73.46 0 0 -73.47 37.77 0 0 186.53 -37.77 0 0 -81.54 -73.46 0 0 81.54 -37.78 0zm226.71 -92.14c0,-19.02 2.86,-35 8.55,-47.93 4.21,-9.51 10.03,-18.06 17.37,-25.62 7.34,-7.55 15.37,-13.16 24.1,-16.85 11.64,-4.91 25.05,-7.38 40.25,-7.38 27.53,0 49.5,8.55 66.04,25.62 16.5,17.11 24.75,40.86 24.75,71.3 0,30.18 -8.21,53.8 -24.57,70.82 -16.37,17.06 -38.3,25.57 -65.69,25.57 -27.74,0 -49.85,-8.47 -66.21,-25.44 -16.37,-16.93 -24.57,-40.29 -24.57,-70.08zm38.81 -1.26c0,21.14 4.91,37.17 14.68,48.1 9.77,10.9 22.19,16.37 37.21,16.37 15.07,0 27.4,-5.43 37.08,-16.24 9.64,-10.85 14.46,-27.09 14.46,-48.76 0,-21.41 -4.69,-37.38 -14.11,-47.89 -9.38,-10.55 -21.84,-15.8 -37.43,-15.8 -15.54,0 -28.09,5.34 -37.6,15.98 -9.51,10.68 -14.29,26.74 -14.29,48.24zm208.13 32.96l36.73 -3.65c2.21,12.29 6.64,21.28 13.37,27.05 6.73,5.78 15.8,8.64 27.22,8.64 12.07,0 21.19,-2.56 27.31,-7.68 6.12,-5.12 9.2,-11.11 9.2,-17.98 0,-4.43 -1.3,-8.16 -3.86,-11.29 -2.56,-3.08 -7.07,-5.77 -13.5,-8.03 -4.39,-1.56 -14.37,-4.26 -30,-8.16 -20.1,-5.04 -34.22,-11.2 -42.34,-18.54 -11.42,-10.29 -17.11,-22.84 -17.11,-37.65 0,-9.51 2.69,-18.45 8.03,-26.74 5.38,-8.29 13.11,-14.59 23.23,-18.93 10.12,-4.34 22.27,-6.51 36.6,-6.51 23.32,0 40.9,5.17 52.67,15.54 11.81,10.38 17.98,24.18 18.58,41.51l-37.78 1.3c-1.61,-9.64 -5.04,-16.54 -10.29,-20.75 -5.26,-4.21 -13.16,-6.34 -23.66,-6.34 -10.85,0 -19.36,2.26 -25.49,6.77 -3.95,2.91 -5.95,6.77 -5.95,11.63 0,4.43 1.87,8.21 5.6,11.33 4.73,4.04 16.24,8.21 34.52,12.55 18.28,4.3 31.78,8.82 40.51,13.42 8.77,4.65 15.63,10.94 20.58,18.98 4.95,8.03 7.42,17.93 7.42,29.7 0,10.68 -2.95,20.71 -8.9,30.05 -5.95,9.34 -14.33,16.28 -25.18,20.8 -10.85,4.56 -24.4,6.81 -40.6,6.81 -23.58,0 -41.68,-5.43 -54.32,-16.33 -12.64,-10.85 -20.15,-26.7 -22.62,-47.5zm230.05 60.44l0 -186.53 60.39 0c22.88,0 37.78,0.91 44.72,2.78 10.68,2.82 19.63,8.9 26.84,18.28 7.2,9.38 10.81,21.49 10.81,36.34 0,11.46 -2.08,21.06 -6.21,28.87 -4.17,7.81 -9.42,13.94 -15.8,18.41 -6.38,4.43 -12.9,7.38 -19.49,8.81 -8.99,1.78 -21.97,2.69 -38.99,2.69l-24.49 0 0 70.34 -37.77 0zm37.77 -155.01l0 53.14 20.54 0c14.8,0 24.66,-1 29.66,-2.95 4.99,-1.96 8.9,-5 11.72,-9.21 2.82,-4.17 4.26,-8.99 4.26,-14.55 0,-6.81 -2,-12.42 -5.95,-16.85 -3.99,-4.43 -8.99,-7.21 -15.11,-8.34 -4.47,-0.83 -13.46,-1.26 -27.01,-1.26l-18.11 0zm181.08 155.01l0 -186.53 37.77 0 0 186.53 -37.77 0zm162.01 0l0 -155.01 -55.23 0 0 -31.52 147.97 0 0 31.52 -54.97 0 0 155.01 -37.78 0zm312.29 0l-40.68 0 -16.11 -42.47 -74.81 0 -15.5 42.47 -39.94 0 72.42 -186.53 39.9 0 74.73 186.53zm-69.04 -73.99l-25.92 -69.04 -25.18 69.04 51.1 0zm136.57 73.99l0 -184.96 37.78 0 0 153.44 93.52 0 0 31.52 -131.3 0zm194.58 -60.44l36.73 -3.65c2.22,12.29 6.64,21.28 13.38,27.05 6.73,5.78 15.8,8.64 27.22,8.64 12.07,0 21.19,-2.56 27.31,-7.68 6.12,-5.12 9.21,-11.11 9.21,-17.98 0,-4.43 -1.3,-8.16 -3.86,-11.29 -2.56,-3.08 -7.08,-5.77 -13.5,-8.03 -4.39,-1.56 -14.37,-4.26 -30,-8.16 -20.1,-5.04 -34.22,-11.2 -42.34,-18.54 -11.42,-10.29 -17.11,-22.84 -17.11,-37.65 0,-9.51 2.69,-18.45 8.03,-26.74 5.39,-8.29 13.11,-14.59 23.23,-18.93 10.12,-4.34 22.27,-6.51 36.6,-6.51 23.32,0 40.9,5.17 52.67,15.54 11.81,10.38 17.98,24.18 18.58,41.51l-37.78 1.3c-1.61,-9.64 -5.04,-16.54 -10.29,-20.75 -5.26,-4.21 -13.16,-6.34 -23.66,-6.34 -10.85,0 -19.36,2.26 -25.49,6.77 -3.95,2.91 -5.95,6.77 -5.95,11.63 0,4.43 1.87,8.21 5.6,11.33 4.73,4.04 16.24,8.21 34.52,12.55 18.28,4.3 31.78,8.82 40.51,13.42 8.77,4.65 15.63,10.94 20.58,18.98 4.95,8.03 7.42,17.93 7.42,29.7 0,10.68 -2.95,20.71 -8.9,30.05 -5.95,9.34 -14.33,16.28 -25.18,20.8 -10.85,4.56 -24.4,6.81 -40.6,6.81 -23.58,0 -41.68,-5.43 -54.32,-16.33 -12.64,-10.85 -20.15,-26.7 -22.62,-47.5z"/>
  </g>
 </g>
</svg>
