<?xml version="1.0" encoding="UTF-8"?>
<!DOCTYPE svg PUBLIC "-//W3C//DTD SVG 1.1//EN" "http://www.w3.org/Graphics/SVG/1.1/DTD/svg11.dtd">
<!-- Creator: CorelDRAW 2019 (64-Bit) -->
<svg xmlns="http://www.w3.org/2000/svg" xml:space="preserve" width="1.33858in" height="1.33858in" version="1.1" style="shape-rendering:geometricPrecision; text-rendering:geometricPrecision; image-rendering:optimizeQuality; fill-rule:evenodd; clip-rule:evenodd"
viewBox="0 0 461.57 461.57"
 xmlns:xlink="http://www.w3.org/1999/xlink"
 xmlns:xodm="http://www.corel.com/coreldraw/odm/2003">
 <defs>
  <style type="text/css">
   <![CDATA[
    .fil0 {fill:#DCE3B7}
   ]]>
  </style>
 </defs>
 <g id="Layer_x0020_1">
  <metadata id="CorelCorpID_0Corel-Layer"/>
  <path class="fil0" d="M120.89 354.64c124.35,10.01 248.06,-105.36 234.23,-234.32 -15.37,-6.66 -51.11,-15.55 -71.44,-13.77 -7.57,13.82 -26.2,52.55 -26.85,70.65 6.33,6.61 22.25,20.3 30.94,27.62 -8.37,29 -53.93,77.79 -83.56,82.78 -9.58,-9.79 -17.03,-18.82 -26.18,-30.85 -20.16,1.48 -56,19.57 -72.08,27.8 -3.07,21.83 7,55.51 14.93,70.09zm109.9 -354.64c63.73,0 121.43,25.83 163.19,67.6 41.76,41.76 67.6,99.46 67.6,163.19 0,63.73 -25.83,121.43 -67.6,163.19 -41.76,41.76 -99.46,67.6 -163.19,67.6 -63.73,0 -121.43,-25.83 -163.19,-67.6 -41.76,-41.76 -67.6,-99.46 -67.6,-163.19 0,-63.73 25.83,-121.43 67.6,-163.19 41.76,-41.76 99.46,-67.6 163.19,-67.6zm138.07 92.71c-35.33,-35.33 -84.15,-57.19 -138.07,-57.19 -53.92,0 -102.74,21.86 -138.07,57.19 -35.33,35.33 -57.19,84.15 -57.19,138.07 0,53.92 21.85,102.74 57.19,138.07 35.33,35.33 84.15,57.19 138.07,57.19 53.92,0 102.74,-21.85 138.07,-57.19 35.33,-35.33 57.19,-84.15 57.19,-138.07 0,-53.92 -21.86,-102.74 -57.19,-138.07z"/>
 </g>
</svg>
