<?xml version="1.0" encoding="UTF-8"?>
<!DOCTYPE svg PUBLIC "-//W3C//DTD SVG 1.1//EN" "http://www.w3.org/Graphics/SVG/1.1/DTD/svg11.dtd">
<!-- Creator: CorelDRAW 2019 (64-Bit) -->
<svg xmlns="http://www.w3.org/2000/svg" xml:space="preserve" width="3.36398in" height="1.13181in" version="1.1" style="shape-rendering:geometricPrecision; text-rendering:geometricPrecision; image-rendering:optimizeQuality; fill-rule:evenodd; clip-rule:evenodd"
viewBox="0 0 2478.6 833.93"
 xmlns:xlink="http://www.w3.org/1999/xlink"
 xmlns:xodm="http://www.corel.com/coreldraw/odm/2003">
 <defs>
  <style type="text/css">
   <![CDATA[
    .fil1 {fill:#5F5142}
    .fil0 {fill:#5F5142;fill-rule:nonzero}
   ]]>
  </style>
 </defs>
 <g id="Layer_x0020_1">
  <metadata id="CorelCorpID_0Corel-Layer"/>
  <g id="_1711876586256">
   <g>
    <path class="fil0" d="M798.28 493.56c0,18.29 -15.95,28.87 -47.81,31.46 -15.23,1.24 -30.63,0.78 -45.26,-3.12 -17.82,-4.46 -32.5,-19.56 -21.27,-34.01 3.35,-4.3 10.23,-6.87 17.69,-6.87 11.51,0 20.84,6.53 20.84,14.59 0,10.93 -12.22,11.24 -16.28,15.43 14.45,7.4 52.17,11.3 53.25,-6.72 0.15,-16.92 0.3,-33.85 0.45,-50.77 0.04,-5.16 -2.43,-10.95 -6.25,-13.12 -0.95,-0.54 -2.01,-1.01 -3.11,-1.41 -9,-3.25 -20.97,-0.41 -26.76,5.63 -3.54,3.69 -6.71,7.8 -9.51,12.34l-4.25 -0.53 1.63 -32.31 3.27 0c3.05,2.29 5.66,3.87 7.84,4.75 2.18,0.88 4.95,1.32 8.33,1.32 5.86,0 11.19,-1.6 17.08,-3.28 4.77,-1.49 9.67,-2.63 14.73,-3.27l0 0 0 -10.68c-0.15,-2.45 -1.34,-4.53 -3.21,-6.01 -2.02,-1.6 -6.34,-2.54 -9.47,-2.54 0,-1.2 0.03,-2.38 0.03,-3.6 19.23,0 41.48,0 60.7,0 0,1.22 0.02,2.4 0.02,3.6 -3.14,0 -7.46,0.93 -9.47,2.54 -1.79,1.43 -2.96,3.4 -3.19,5.71l0 39.83c0,12.89 0,22.12 0,35l0 6.04zm-104.76 18.82l7.29 0 -0.71 -0.42c0.18,-3.7 1.86,-3.75 4.52,-5.87 0.96,-0.76 1.75,-1.58 2.37,-2.44l-21.18 0c1.5,3.27 4.26,6.25 7.71,8.73zm12.11 2.63l-7.83 0c2.76,1.46 5.76,2.61 8.78,3.39 14.06,3.63 28.83,4.15 43.43,2.96 10.16,-0.82 18.54,-2.58 24.53,-6.36l-15.84 0c-11.61,9.37 -39.48,5.98 -53.07,0zm-17.63 -25.37l17.66 0c-3.99,-4.12 -10.96,-5.61 -17.66,0zm19.61 2.63l-21.43 0c-1.6,2.98 -1.91,5.94 -1.26,8.73l23.51 0c1.08,-2.96 0.64,-6.09 -0.81,-8.73zm53.66 20.1l16.7 0c2.46,-2.31 4.31,-5.18 5.47,-8.73l-19.46 0 -0.02 0.77c-0.11,3.17 -1.07,5.81 -2.69,7.97zm2.8 -11.37l20.08 0c0.48,-2.24 0.73,-4.71 0.73,-7.45l0 -1.28 -20.63 0c-0.04,2.91 -0.1,5.82 -0.18,8.73zm0.22 -11.37l20.6 0 0 -2.12 0 -6.61 -20.53 0c-0.01,2.91 -0.03,5.82 -0.06,8.73zm0.07 -11.37l20.53 0 0 -8.73 -20.52 0 -0.01 8.73zm0.01 -11.37l20.52 0 0 -8.73 -20.5 0c-0.01,2.91 -0.02,5.82 -0.02,8.73zm0.03 -11.37l20.48 0 0 -3.02 0 -5.71 -21.56 0c0.76,2.32 1.11,4.69 1.1,6.77l-0.02 1.96zm-2.14 -11.37l22.63 0 0 -8.73 -33.22 0 0.7 0.24c1.35,0.49 2.65,1.07 3.86,1.75 2.71,1.53 4.7,3.99 6.03,6.74zm-46.6 -11.37l6.84 0c-0.61,-0.18 -1.21,-0.39 -1.8,-0.62 -1.66,-0.67 -3.28,-1.55 -4.82,-2.51l-0.23 3.14zm25 0l44.22 0 0 -8.73 -17.48 0 0 2.74 -3.83 0.48c-4.6,0.59 -9.5,1.78 -13.87,3.09 -3.03,0.91 -6.01,1.77 -9.05,2.42zm-9.38 2.63l-15.81 0 -0.54 7.43c3.66,-3.52 10.1,-5.99 16.35,-7.43zm36.12 -14l17.48 0 0 -8.73 -17.48 0 0.01 0.3 0 8.44zm-0.46 -11.37l18.34 0c0.65,-2.09 2.05,-3.98 3.96,-5.55 -11.7,0 -14.54,0 -26.24,0 1.91,1.57 3.27,3.47 3.94,5.55z"/>
    <path class="fil1" d="M1009.87 465.5c6.67,0 11.71,1.54 15.11,4.55 5.21,4.61 7.96,23.87 2.13,28.52 -2.01,1.61 -6.34,2.54 -9.47,2.54 0,1.2 0.03,2.38 0.03,3.59 20.37,0 32.71,0 53.08,0 0,-1.22 0.03,-2.39 0.03,-3.59 -3.14,0 -7.46,-0.93 -9.47,-2.54 -6.03,-4.8 -3.59,-23.73 1.82,-28.52 3.41,-3.01 8.44,-4.55 15.11,-4.55 13.33,0 15.3,7.23 15.8,16.05 0.62,10.74 0.1,22.7 0.1,33.51 -0.46,1.76 -1.73,3.27 -3.19,4.43 -2.02,1.61 -6.34,2.54 -9.47,2.54 0,1.2 0.03,2.38 0.03,3.59 20,0 41.51,0 61.51,0 0,-1.22 0.03,-2.39 0.03,-3.59 -3.14,0 -7.46,-0.93 -9.47,-2.54 -1.44,-1.14 -2.47,-2.64 -2.94,-4.38l0 -10.14c0,-7.4 0.17,-15.2 -0.19,-22.59 -0.45,-7.84 -2.59,-13.98 -6.36,-18.47 -4.35,-5.09 -9.93,-8.49 -16.75,-10.14 -17.73,-4.27 -47.54,-4.82 -63.28,4.56 -4.96,-2.95 -8.66,-4.7 -14.66,-5.68 -11.28,-1.84 -25.77,-2.07 -36.67,0.69 5.84,-24.33 22.39,-34.3 58.55,-27.82 26.84,4.81 44.05,4.54 61.76,-5.28l-12.78 -17.58c-4.19,17.65 -19.35,16.84 -47.4,9.59 -43.04,-11.14 -84.61,5.7 -93.37,48.04 -1.76,8.53 -2.31,26.03 -2.31,35.98l0 17.7c-0.27,2.22 -1.43,4.11 -3.16,5.5 -2.01,1.61 -6.34,2.54 -9.47,2.54 0,1.2 0.03,2.38 0.03,3.59 20.17,0 41.85,0 62.02,0 0,-1.22 0.03,-2.39 0.03,-3.59 -3.14,0 -7.46,-0.93 -9.47,-2.54 -1.96,-1.56 -3.63,-3.77 -3.68,-6.37l-0.01 -6.36 -0.02 0c0,-9.04 -0.32,-19.35 0.57,-27.79 0.05,-0.46 0.11,-0.91 0.19,-1.35 1.18,-7.05 4.21,-12.13 15.68,-12.13zm48.67 -48.96l-18.62 0c20.45,2.7 47.06,12.18 64.1,0.55l-3.08 -4.79c-1.08,2.14 -2.15,5.77 -8.43,7.1 -8.74,1.85 -20.74,-0.45 -33.97,-2.86zm-38.74 0l-17.93 0c-3.46,1.29 -6.87,2.91 -10.16,4.89l11.41 0c4.59,-2.34 10.07,-4.02 16.68,-4.89zm-8.67 -2.63l31.51 0c-10.09,-1.37 -20.4,-1.98 -30.17,-0.25 -0.45,0.08 -0.89,0.16 -1.34,0.25zm-12.44 10.16l-10.98 0c-3.45,2.48 -6.7,5.38 -9.66,8.73l11.69 0c2.44,-3.31 5.37,-6.26 8.95,-8.73zm-10.75 11.37l-12.08 0c-2.08,2.66 -3.98,5.57 -5.66,8.73l13.33 0c1.24,-3.07 2.69,-6 4.41,-8.73zm-5.42 11.37l-13.63 0c-1.28,2.73 -2.4,5.64 -3.34,8.73l14.28 0c0.79,-2.98 1.67,-5.91 2.69,-8.73zm-3.37 11.37l-14.34 0c-0.28,1.1 -0.55,2.21 -0.79,3.35 -0.36,1.74 -0.64,3.55 -0.86,5.39l24.55 0c8.21,-5.38 21.21,-7.57 30.66,-5.56 5.42,1.15 8.93,3.06 11.25,5.56l21.92 0c9.48,-8.01 31.48,-11.44 41.76,0l18.6 0c-3.31,-3.74 -7.45,-6.63 -12.05,-8.73l-47.66 0c-3.3,1.4 -6.09,3.13 -8.17,5.17 -2.14,-2.1 -4.68,-3.81 -7.52,-5.17l-45.41 0c-5.22,1.83 -9.9,4.18 -13.56,6.92 0.51,-2.32 1.04,-4.63 1.61,-6.92zm0.15 54.21l-17.46 0 0 -8.73 17.45 0 0.01 3.11 0 5.62zm-17.49 2.63l17.64 0c0.17,1.8 0.53,4.71 1.04,5.83 -6.22,0 -13.28,0 -19.5,0 0.46,-1.12 0.74,-4 0.82,-5.83zm17.45 -14l-17.43 0 0 -4.72c0,-1.34 0.01,-2.67 0.02,-4.01l17.36 0c-0.02,2.91 0.01,5.83 0.04,8.73zm-0 -11.37l-17.36 0c0.06,-2.91 0.15,-5.82 0.28,-8.73l17.48 0c-0.23,2.9 -0.35,5.81 -0.4,8.73zm0.65 -11.37l-17.6 0c0.14,-2.84 0.3,-5.8 0.57,-8.73l21.48 0c-2.57,2.47 -4.23,5.4 -4.46,8.73zm67.1 11.37l-12.28 0c0.03,-2.42 -0.07,-5 -0.28,-7.48l-0.11 -1.25 12.79 0c-0.21,2.89 -0.26,5.92 -0.12,8.73zm-12.39 2.63l12.58 0c0.44,4.59 1.44,8.2 3.06,8.99 -6.73,0.11 -11.9,-0.14 -18.63,-0.03 1.8,-0.86 2.69,-4.45 2.99,-8.97zm12.75 -14l-13.31 0c-0.41,-3.25 -1.08,-6.2 -2.51,-8.73l17.85 0c-0.93,2 -1.61,5.16 -2.02,8.73zm-46.65 -22.74l28.31 0c-8.71,-2.15 -18.87,-1.92 -28.31,0zm115.1 56.84l-16.98 0c0.05,-2.91 0.11,-5.82 0.16,-8.73l16.82 0 -0 1.33 0 7.4zm-17.03 2.63l17.04 0c0.15,2.97 1.73,5.19 1.99,5.83 -6.13,0 -14.76,0 -20.89,0 0.3,-0.7 1.67,-2.84 1.86,-5.83zm17.05 -14l-16.8 0c0.03,-2.91 0.05,-5.82 0.02,-8.73l16.82 0c0.01,2.91 -0.02,5.82 -0.04,8.73zm0.02 -11.37l-16.84 0c-0.05,-2.81 -0.15,-5.62 -0.31,-8.44l-0.02 -0.3 16.88 0c0.02,0.62 0.04,1.22 0.07,1.8 0.12,2.31 0.19,4.62 0.22,6.94zm-0.38 -11.37l-17.08 0c-0.53,-3.44 -1.62,-6.33 -3.12,-8.73l18.44 0c1.29,2.61 1.62,5.75 1.76,8.73zm-22.99 -22.74l-32.03 0c5.71,-1.32 12.12,-1.95 18.56,-1.84 4.53,0.08 9.1,0.67 13.47,1.84z"/>
    <path class="fil1" d="M1550.64 480.41l0 -50.5 0 -17.57 30.57 0c6.79,0 12.26,1.75 16.49,5.22 2.11,1.73 3.72,3.83 4.81,6.28 4.26,9.59 4.36,37.66 -14.02,37.66l0.09 3.05 43.42 -0.02c0.15,-0.35 0.3,-0.7 0.44,-1.05 4.83,-11.73 8.34,-25.65 5.15,-37.1 -2.11,-7.6 -6.32,-13.23 -12.6,-16.88 -9.13,-5.31 -21.89,-7.96 -38.26,-7.96l-71.5 0 0 33.27 0 45.01 0 12.73 0 0.91 0 0.92c0,17.32 15.36,27.17 42.55,30.47 26.15,3.17 34.48,-4.23 52.04,-4.23 3.42,0 9.22,1.06 13.08,1.83 2.22,0.44 3.51,-0.91 3.64,-0.91l-10.66 -20.6c-0.7,0.5 -3.12,-0.3 -3.74,0.38 -6.86,7.6 -21.02,14.62 -34.39,14.96 -7.62,0.19 -15.15,-2.16 -20.53,-6.86 -3.66,-3.2 -5.78,-7.66 -6.39,-13.36 -0.51,-4.83 -0.18,-10.77 -0.18,-15.65zm69.43 -24.87l-14.88 0c1.52,-2.63 2.58,-5.62 3.27,-8.73l14.01 0c-0.63,2.97 -1.46,5.91 -2.4,8.73zm-16.66 2.63l15.74 0c-0.33,0.91 -0.67,1.8 -1.02,2.68l-17.29 0.01c0.94,-0.81 1.8,-1.71 2.57,-2.69zm19.55 -14.01l-14.03 0c0.44,-2.92 0.57,-5.89 0.45,-8.73l14.3 0c0.04,2.87 -0.23,5.8 -0.73,8.73zm0.6 -11.37l-14.35 0c-0.32,-3.26 -0.97,-6.27 -1.86,-8.73l14.15 0c0.42,1 0.78,2.03 1.08,3.1 0.51,1.82 0.82,3.7 0.99,5.63zm-3.35 -11.37l-14.01 0c-1.25,-2.4 -3.01,-4.58 -5.29,-6.45 -0.44,-0.36 -0.9,-0.71 -1.36,-1.04l14.4 0c2.54,2.13 4.66,4.64 6.26,7.49zm-9.89 -10.12l-15.41 0c-4.11,-1.81 -8.74,-2.64 -13.71,-2.64l-45.68 0 0 2.64 -15.77 0 0 -6.12 66.97 0c8.96,0 17.19,2.13 23.6,6.12zm-62.07 100.21l-19.77 0c-2.87,-2.17 -5.18,-4.76 -6.7,-7.88l17.41 0c2.12,2.69 5.16,5.46 9.06,7.88zm-15.63 2.63l20.53 0c2.13,0.98 4.45,1.86 6.93,2.57 13.42,3.86 44.44,1.26 55.68,-7.17l3.99 8.51c-3.34,-0.6 -6.95,-1.13 -9.95,-1.13 -5.61,0 -10.73,0.73 -16.15,1.82 -13.49,2.72 -20.89,4.19 -35.22,2.45 -9.36,-1.13 -18.67,-3.2 -25.81,-7.05zm4.77 -13.15l-16.67 0c-0.64,-2.02 -0.99,-4.23 -0.99,-6.65l0 -2.08 15.7 0c0.05,1.37 0.13,2.73 0.27,4.09 0.15,1.38 0.71,2.97 1.68,4.64zm-1.99 -11.37l-15.66 0 0 -8.73 15.77 0c-0.01,2.9 -0.12,5.82 -0.11,8.73zm0.11 -11.37l-15.77 0 0 -8.73 15.77 0 0 8.73zm0 -11.37l-15.77 0 0 -8.73 15.77 0 0 8.73zm0 -11.37l-15.77 0 0 -8.73 15.77 0 0 8.73zm0 -11.37l-15.77 0 0 -8.73 15.77 0 0 8.73zm0 -11.37l-15.77 0 0 -8.73 15.77 0 0 8.73zm0 -11.37l-15.77 0 0 -7.49 15.77 0 0 7.49z"/>
    <path class="fil1" d="M841.85 401.65c13.47,0 26.87,-0.06 40.4,-0.06 0,1.22 0.03,2.4 0.03,3.59 -3.14,0 -7.46,0.93 -9.47,2.54 -5.18,4.12 -4.04,11.52 1.51,15.11 7.29,4.72 21.12,4.71 35.28,9.7 5.64,1.99 10.79,4.57 15.46,7.75 7.46,5.04 11.3,12.82 11.58,23.26 0,5.2 -0.55,28.28 -1.62,32.45 -1.07,4.17 -2.7,7.84 -4.84,11.01 -4.29,6.34 -10.3,10.93 -18.04,13.86 -2.22,0.84 -4.57,1.6 -7.06,2.27 -15.69,4.2 -40.13,2.9 -54.6,-2.3 -7.05,-2.53 -12.17,-3.72 -16.47,-3.5 -2.85,0.14 -3.19,0.76 -5.25,2.31l-3.26 0 -1.63 -32.31 4.24 -0.53c5.33,8.62 11.97,15.7 19.92,21.23 5.64,3.92 11.51,6.23 17.6,7.43 7.23,1.43 13.33,1.28 20.37,-0.88 2.52,-0.77 4.55,-1.73 6.1,-2.89 1.84,-1.41 3.31,-3.12 4.41,-5.11 3.42,-6.23 2.39,-28.05 2.39,-35.76 0,-13.64 -8.01,-17.82 -23.37,-20.45 -13.87,-2.43 -24.22,-5.89 -31.24,-10.43 -4.9,-3.2 -8.11,-8.99 -8.35,-16.49 -0.31,-9.9 3.21,-14.3 5.94,-21.79zm2.25 110.73l-14.52 0 -0.8 -9.58c2.73,3.53 8.37,6.82 15.32,9.58zm0.41 2.63l7.1 0c2.6,0.81 5.3,1.55 8.02,2.2 9.98,2.4 20.33,3.12 27.95,0.79 2.38,-0.73 4.69,-1.69 6.67,-2.99l11.59 0c-1.66,0.95 -3.46,1.79 -5.39,2.52 -2.13,0.81 -4.33,1.51 -6.57,2.11 -14.31,3.83 -27.83,2.76 -41.58,-2.17 -2.43,-0.87 -5.07,-1.76 -7.79,-2.47zm65.28 -2.63l-12.36 0c1.29,-1.31 2.35,-2.77 3.2,-4.32 0.64,-1.16 1.14,-2.67 1.54,-4.42l15.27 0c-0.31,0.54 -0.65,1.07 -1,1.6 -1.84,2.72 -4.04,5.1 -6.65,7.14zm9.01 -11.37l-16.13 0c0.41,-2.64 0.65,-5.64 0.78,-8.73l17.81 0c-0.09,1.05 -0.22,2.1 -0.45,2.97 -0.5,1.95 -1.16,3.89 -2.02,5.77zm2.65 -11.37l-17.91 0c0.07,-2.96 0.06,-5.95 0.03,-8.73l18.37 0c-0.12,2.85 -0.26,5.69 -0.47,8.54l-0.01 0.2zm0.59 -11.37l-18.52 0c-0.05,-2.91 -0.11,-5.49 -0.11,-7.45 0,-0.44 -0.01,-0.86 -0.02,-1.28l18.93 0c-0.06,2.92 -0.17,5.84 -0.28,8.73zm0.32 -11.37l-19.18 0c-0.42,-3.46 -1.44,-6.33 -3.03,-8.73l21.71 0c0.31,1.78 0.46,3.6 0.49,5.4 0.01,1.11 0.01,2.22 0.01,3.33zm-8.51 -22.74l-49.51 0c-6.28,-1.69 -12.42,-3.96 -17.23,-7.09 -0.75,-0.49 -1.43,-1.04 -2.03,-1.65l51.63 0c0.44,0.15 0.88,0.3 1.32,0.46 5.2,1.83 10,4.25 14.35,7.2 0.51,0.35 1,0.7 1.46,1.08zm-37.3 2.64l40.07 0c2.3,2.61 3.77,5.59 4.65,8.73l-23.25 0c-4.5,-4.55 -11.74,-7.04 -21.47,-8.73zm10.94 -14.01l-44.46 0c-1.63,-2.7 -2.36,-5.87 -2.54,-8.73l19.91 0c5.03,3.35 11.99,5.58 18.23,6.83 3.18,0.64 6.05,1.23 8.86,1.91zm-30.38 -11.37l-16.67 0c0.1,-3.42 0.76,-6.12 1.7,-8.73l11.21 0c-0.19,3.39 1.28,6.29 3.75,8.73zm-3.29 -11.37l-10.64 0c0.63,-1.5 1.31,-3.04 2.01,-4.75l8.41 -0.06 2.53 0c-1.11,1.69 -1.86,3.3 -2.3,4.81z"/>
    <path class="fil1" d="M1196.06 497.92c0.15,6.01 2.04,10.64 5.66,13.89 7.47,6.68 13.17,6.68 20.64,0 3.62,-3.24 5.51,-7.88 5.66,-13.89 0,-1.53 -0.07,-69.81 -0.18,-71.15 -0.51,-5.86 -2.22,-10.07 -5.04,-12.56 -7.14,-6.31 -14.37,-6.3 -21.5,0 -2.82,2.49 -4.54,6.71 -5.04,12.56 -0.11,1.33 -0.18,69.62 -0.18,71.15zm-5.63 -87.86l-13.54 0c2.34,-1.38 4.97,-2.45 7.93,-3.16 12.04,-4.38 41.26,-6.02 59.59,3.16l-20.51 0c-8.9,-5.66 -24.57,-5.66 -33.46,0zm-17.23 2.64l14 0c-2.32,2.47 -3.66,5.59 -4.43,8.73l-16.04 0c0.83,-2 1.92,-3.91 3.36,-5.6 0.96,-1.13 2,-2.18 3.11,-3.13zm13.56 99.68l-15.54 0c-2.43,-2.51 -4.06,-5.54 -5.12,-8.73l16.32 0c0.72,3.12 2.08,6.11 4.33,8.73zm-12.37 2.63l15.12 0c9.21,7.28 26.09,7.28 35.31,0l14.06 0c-4.75,4.19 -11.32,6.88 -19.95,6.94l-1.31 0.01 -14.04 0c-10.06,0 -20.74,-1.57 -28.83,-6.71l-0.37 -0.24zm7.58 -14l-16.61 0c-0.7,-2.94 -1,-5.94 -1.08,-8.73l17.47 0c0.01,2.98 0.02,5.01 0.03,5.68 0.01,1.02 0.07,2.04 0.19,3.06zm-0.23 -11.37l-17.49 0c-0.01,-1.87 -0.02,-4.95 -0.03,-8.73l17.51 0 0.01 8.73zm-0.02 -11.37l-17.51 0 -0.01 -8.73 17.52 0 0.01 8.73zm-0.01 -11.37l-17.52 0 0 -8.73 17.52 0 -0.01 8.73zm0.01 -11.37l-17.52 0 0.03 -8.73 17.51 0 -0.02 8.73zm0.03 -11.37l-17.51 0c0.02,-3.48 0.04,-6.49 0.08,-8.73l17.48 0c-0.02,2.55 -0.04,5.51 -0.05,8.73zm0.07 -11.37l-17.44 0 0.03 -0.8c0.2,-2.57 0.6,-5.3 1.39,-7.94l16.45 0c-0.12,0.83 -0.22,1.65 -0.29,2.45 -0.06,0.69 -0.1,2.96 -0.14,6.28zm91.08 -22.74l-7.85 0c13.32,-6.6 30.29,-6.28 43.99,0l-14.81 0c-6.96,-2.26 -14.94,-1.98 -20.56,-0.28l-0.77 0.28zm-12.41 2.64l6.35 0c-4.91,2.45 -8.76,5.29 -11.61,8.73l-23.69 0c-0.76,-3.15 -2.1,-6.26 -4.43,-8.73l21.78 0c0.76,0.52 1.49,1.06 2.18,1.63l3.14 3.19 3.59 -2.86c0.87,-0.69 1.76,-1.34 2.68,-1.96zm-19.03 99.68l-13.91 0c2.25,-2.62 3.61,-5.61 4.33,-8.73l14.67 0c-1.2,3.17 -2.88,6.14 -5.09,8.73zm5.96 -11.37l-15.08 0c0.12,-1.02 0.19,-2.04 0.2,-3.06 0.01,-0.66 0.02,-2.69 0.03,-5.68l16.21 0c-0.11,2.95 -0.55,5.9 -1.36,8.73zm1.4 -11.37l-16.25 0 0.02 -8.73 16.3 0c-0.01,3.27 -0.04,6.24 -0.06,8.73zm0.07 -11.37l-16.3 0 0.01 -8.73 16.29 0c0.01,3.03 0.01,5.97 0.01,8.73zm-0.03 -11.37l-16.27 0 -0 -8.73 16.17 0c0.05,2.92 0.08,5.85 0.1,8.73zm-0.15 -11.37l-16.13 0 -0.02 -8.73 16.12 0c-0.04,2.84 -0.01,5.77 0.03,8.73zm0.03 -11.37l-16.19 0c-0.01,-3.22 -0.03,-6.19 -0.05,-8.73l16.88 0 -0.03 0.26c-0.33,2.65 -0.52,5.51 -0.61,8.48zm1.09 -11.37l-17.36 0c-0.04,-3.32 -0.08,-5.59 -0.14,-6.29 -0.07,-0.8 -0.16,-1.62 -0.29,-2.45l21.26 0c-1.62,2.58 -2.78,5.47 -3.48,8.73zm75.74 68.21l-17.22 0 0 -8.73 17.22 0 0 8.73zm-17.22 2.64l17.22 0 0 8.62 0 0.11 -17.84 0c0.45,-2.18 0.63,-4.43 0.63,-6.67l0 -2.06zm-8.42 -90.95l14.07 0c4.11,2.52 6.79,5.49 8.53,8.73l-15.14 0c-0.78,-2.15 -2.11,-4.25 -4.35,-6.35 -0.96,-0.9 -2,-1.69 -3.11,-2.39zm25.63 76.95l-17.22 0 0 -8.73 17.22 0 0 8.73zm-17.22 -11.37l0 -8.73 17.22 0 0 8.73 -17.22 0zm0 -11.37l0 -8.73 17.22 0 0 8.73 -17.22 0zm0 -11.37l0 -8.73 17.22 0 0 8.73 -17.22 0zm0 -11.37l0 -8.73 17.27 0c0.08,2.89 -0,5.83 -0.04,8.73l-17.23 0zm0.02 -11.37c0.07,-3.09 0.21,-5.97 -0.28,-8.73l15.63 0c1.04,2.78 1.54,5.72 1.77,8.73l-17.12 0zm-1.33 82.21l18.39 0c-0.25,2.38 -0.85,4.72 -1.91,6.95l-20.12 0c1.7,-2.16 2.87,-4.5 3.65,-6.95zm-7.43 -97.54c-15.05,-13.74 -37.45,-0.84 -36.91,8.78 0.06,1.12 0.1,63.86 0.1,65.08 -0.29,12.87 -4.37,21.81 -12.23,26.8 -7.6,4.83 -18.16,7.33 -31.63,7.49l0 0.01 -1.31 0 -12.75 0 -1.31 0 0 -0.01c-13.47,-0.15 -24.01,-2.65 -31.63,-7.49 -7.86,-5 -11.94,-13.93 -12.23,-26.8 0,-1.52 0.06,-58.12 0.16,-59.53 0.58,-7.61 2.73,-13.61 6.46,-18.04 4.46,-5.21 10.16,-8.68 17.17,-10.37 4.65,-1.13 9.87,-1.87 15.67,-2.25 8.84,-0.57 18.45,-0.57 27.31,0.25 4.56,0.42 8.75,1.09 12.54,2 6.2,1.49 11.39,4.39 15.59,8.66 16.75,-13.37 52.1,-13.65 70.81,-2.54 15.62,9.28 13.8,23.2 13.8,36.72l0 66.05c0,5.04 -1.22,9.5 -3.65,13.36l-43.98 0c2.3,-0.85 4.17,-1.92 5.64,-3.19 4.4,-3.87 6.57,-9.26 6.57,-16.73l0 -70.91c0,-6.29 1.33,-12.15 -4.2,-17.32z"/>
    <path class="fil1" d="M1487.56 495.99c-1.07,4.17 -2.26,7.84 -4.4,11.01 -4.28,6.34 -10.3,10.93 -18.04,13.85 -2.22,0.84 -4.57,1.61 -7.06,2.27 -15.69,4.2 -40.13,2.9 -54.6,-2.3 -7.05,-2.53 -12.17,-3.72 -16.46,-3.5 -2.85,0.14 -3.2,0.76 -5.26,2.31l-3.26 0 -1.63 -32.31 4.24 -0.53c5.33,8.62 11.97,15.7 19.92,21.23 5.64,3.92 11.51,6.23 17.6,7.43 7.23,1.43 13.33,1.28 20.37,-0.88 2.52,-0.77 4.55,-1.74 6.1,-2.89 1.84,-1.41 3.31,-3.12 4.41,-5.11 3.86,-7.04 2.33,-30.29 2.33,-38.71l0 -29.59 0 -2.68c0,-7.47 -0.44,-13.72 -5.08,-17.57 -3.07,-2.55 -6.6,-4.04 -11.86,-4.12 -4.74,-0.07 -14.24,2.89 -14.29,9.93 0.06,0.93 0.09,1.89 0.09,2.88l0 11.23c0,1.62 0.67,2.52 2.13,3.69 1.75,1.4 5.53,2.22 8.26,2.22 0,1.05 -0.02,2.07 -0.02,3.14 -16.78,0 -31.66,0 -48.44,0 0,-1.06 -0.02,-2.09 -0.02,-3.14 2.74,0 6.51,-0.82 8.26,-2.22 2.2,-1.75 2.54,-3.17 2.54,-5.48l0 -6.99c-0,-12.08 -3.12,-21.96 -20.12,-9.58 -8.19,-3.56 -20.41,-11.9 -22.44,-13.69 5.78,1.43 19.82,1.09 25.8,-0.65 16.11,-4.71 21.58,-1.31 31.14,6.63 13.57,-13.24 44.37,-14.01 62.72,-7 10.98,4.2 18.66,13.28 18.66,27.55l0 9.53 0 22.17c0,8.82 0.55,23.57 -1.58,31.86zm-87.51 -85.82l-13.5 0c-4.68,-0.14 -9.51,2.34 -13.28,4.82 -2.08,-1.36 -2.08,-1.17 -5.36,-3.27 3.82,0.59 9.16,-1.39 13,-2.51 10.16,-2.97 15.1,-1.87 19.14,0.96zm-6.69 2.63l9.85 0c1.49,1.39 3.02,2.96 4.83,4.55l3.22 -3.14c12.28,-11.99 31.07,-12.23 47.31,-6.02 1.44,0.55 2.77,1.18 3.99,1.88l-26.99 0 0 0.01 -0.73 -0.02c-8.37,-0.13 -23.31,4.64 -26.1,11.39l-11.33 0c-0.55,-3.25 -1.68,-6.46 -4.05,-8.63zm4.76 99.58l-15.54 0 -0.8 -9.96c5.66,3.52 10.89,7.02 16.34,9.96zm-0.62 2.63l5.93 0c7.28,3.27 15.26,5.32 25.32,5.01 3.9,-0.12 7.75,-0.78 11.83,-2.02 2.38,-0.73 4.69,-1.69 6.67,-2.99l11.38 0c-1.67,0.95 -3.46,1.79 -5.39,2.52 -2.14,0.81 -4.33,1.51 -6.57,2.11 -14.31,3.83 -27.61,2.76 -41.36,-2.17 -2.43,-0.87 -5.07,-1.76 -7.79,-2.47zm10.88 -82.21l-10.47 0 0 -3.63c0,-1.49 -0.02,-3.25 -0.17,-5.11l10.56 0c0.03,0.84 0.08,1.69 0.08,2.54l0 6.2zm-10.47 2.63l10.47 0 0 2.39c0,2.21 0.82,3.84 2.43,5.38 -7.83,0 -7.9,0.13 -15.73,0.13 2.2,-2.11 2.84,-4.23 2.84,-7.17l0 -0.73zm64.65 76.95l-12.14 0c1.29,-1.31 2.35,-2.77 3.2,-4.32 0.66,-1.2 1.18,-2.7 1.59,-4.42l14.96 0c-0.3,0.55 -0.61,1.08 -0.96,1.6 -1.84,2.72 -4.04,5.1 -6.65,7.14zm-16.74 -99.68l20.52 0c2.91,2.48 4.96,5.47 6.29,8.73l-18.25 0c-0.94,-2.2 -2.34,-4.24 -4.4,-5.95 -1.31,-1.09 -2.69,-2.02 -4.15,-2.78zm25.56 88.32l-15.64 0c0.44,-2.64 0.68,-5.63 0.82,-8.73l17.22 0c-0.18,1.03 -0.39,2.02 -0.63,2.97 -0.48,1.88 -1.03,3.86 -1.77,5.77zm-14.74 -11.37c0.06,-2.92 0.05,-5.89 -0.01,-8.73l18.1 0c-0.07,2.99 -0.23,5.96 -0.57,8.73l-17.52 0zm-0.06 -11.37c-0.08,-3.27 -0.19,-6.29 -0.22,-8.73l18.34 0c0.04,2.8 0.1,5.76 0.08,8.73l-18.2 0zm-0.24 -11.37l0 -8.73 18.3 0 0 5.96c0,0.9 0.01,1.82 0.02,2.78l-18.32 0zm0 -11.37l0 -8.73 18.3 0 0 8.73 -18.3 0zm0 -11.37l0 -8.56 0 -0.17 18.3 0 0 8.73 -18.3 0zm-0.02 -11.37c-0.06,-2.88 -0.27,-5.89 -1.04,-8.73l18.25 0c0.76,2.69 1.11,5.51 1.11,8.36l0 0.37 -18.32 0z"/>
    <rect class="fil1" x="1674.84" y="410.06" width="21.83" height="2.63"/>
    <rect class="fil1" x="1666.57" y="421.43" width="21.47" height="2.63"/>
    <rect class="fil1" x="1664.59" y="432.8" width="26.14" height="2.63"/>
    <rect class="fil1" x="1664.3" y="444.17" width="26.16" height="2.63"/>
    <rect class="fil1" x="1664" y="455.54" width="23.25" height="2.63"/>
    <rect class="fil1" x="1664.17" y="466.9" width="23.08" height="2.63"/>
    <rect class="fil1" x="1664.98" y="478.27" width="22.27" height="2.63"/>
    <rect class="fil1" x="1664.17" y="489.64" width="23.08" height="2.63"/>
    <rect class="fil1" x="1663.63" y="501.01" width="23.62" height="2.63"/>
    <path class="fil1" d="M1750.02 434.92c0.41,-17.29 -8.83,-26.45 -30.72,-26.45 -18.71,0 -25.27,7.1 -25.27,21.5 0,1.99 -0.2,4.44 -0.2,6.84l0 67.86 0.01 2.1 0.02 0 0.01 6.36c0.05,2.6 1.72,4.81 3.68,6.37 2.01,1.61 6.34,2.54 9.47,2.54 0,1.2 -0.03,2.38 -0.03,3.59 -20.17,0 -37.53,0 -57.7,0 0,-1.22 -0.03,-2.4 -0.03,-3.59 3.14,0 7.46,-0.93 9.47,-2.54 1.73,-1.38 2.88,-3.26 3.16,-5.48l0 -71.11 0 -5.94c0,-26.09 20.49,-39.13 61.42,-39.13 18.04,0 31.58,2.25 40.76,6.7 9.13,4.45 14.98,9.8 17.54,16.06 2.62,6.25 3.9,13.31 3.9,21.23l0 72.19c0.36,2.21 1.87,4.1 3.6,5.48 2.01,1.61 6.33,2.54 9.47,2.54 0,1.2 -0.03,2.38 -0.03,3.59 -20.17,0 -41.05,0 -61.22,0 0,-1.22 -0.03,-2.4 -0.03,-3.59 3.14,0 7.46,-0.93 9.47,-2.54 1.73,-1.38 2.88,-3.26 3.16,-5.48l0 -2.6 0 -8.42 0.01 0 0.06 -68.08zm-69.43 77.46l-14.17 0 0 -75.41c0,-28.19 25.93,-35.47 56.89,-35.47 12.13,0 18.71,1 29.36,6.18 6.83,3.32 12.99,7.83 15.58,14.08 2.67,6.45 3.67,13.29 3.67,20.07l0 72.19c0,3.16 2.11,5.78 4.78,7.95 -11.88,0 -14.68,0 -26.56,0 2.62,-2.14 4.34,-4.89 4.35,-7.95l0 -11.02 0.07 -68.08c0.02,-19.19 -10.68,-30.11 -35.25,-30.11 -20.48,0 -38.55,8.17 -38.55,25.16 0,2.28 -0.2,4.56 -0.2,6.84l0 67.86 0.02 5.76 0.01 0 0 1.96zm-14.23 2.63l14.43 0c0.57,2.65 2.3,5.03 4.66,6.95 -9.7,0 -13.68,0 -23.37,0 2.33,-1.9 3.95,-4.29 4.28,-6.95z"/>
    <rect class="fil1" x="1740.64" y="410.06" width="24.35" height="2.63"/>
    <rect class="fil1" x="1750.1" y="421.43" width="21.47" height="2.63"/>
    <rect class="fil1" x="1751.69" y="432.8" width="26.14" height="2.63"/>
    <rect class="fil1" x="1751.97" y="444.17" width="26.16" height="2.63"/>
    <rect class="fil1" x="1752.58" y="455.54" width="23.25" height="2.63"/>
    <rect class="fil1" x="1752.58" y="466.9" width="23.08" height="2.63"/>
    <rect class="fil1" x="1753.64" y="478.27" width="22.27" height="2.63"/>
    <rect class="fil1" x="1752.58" y="489.64" width="23.08" height="2.63"/>
    <rect class="fil1" x="1753.87" y="501.01" width="23.62" height="2.63"/>
    <rect class="fil1" x="1752.81" y="512.38" width="23.2" height="2.63"/>
   </g>
   <path class="fil1" d="M1152.24 76.14c8.99,77.39 63.91,128.57 128.24,147.76 39.86,11.89 76.28,13.79 110.77,-0.04 53.73,-21.56 90.71,-65.55 143.92,-93.4 32.22,-16.86 74.29,-29.8 111.41,-19.42 41.35,11.56 64.96,46.53 36.34,78.86 -4.24,4.8 -9.83,10.43 -14.9,14.21 -2.41,1.8 -3.56,2.01 -3.9,1.48 -1.61,-2.51 11.31,-16.38 13.57,-20.02 36.57,-59.12 -53.22,-95.2 -146.16,-32.76 -26.85,18.03 -57.22,41.85 -89.56,60.54 -38.1,22.03 -70.45,33.72 -116.05,31.55 -82.47,-3.93 -176.59,-67.97 -180.59,-175.26 -0.07,-1.95 -0.31,-7.36 2.96,-6.25 1.14,0.39 1.9,1.07 2.4,1.91 0.65,1.09 1.32,8.8 1.55,10.85z"/>
   <path class="fil1" d="M1237.14 145.42c-6.67,7.02 -14.11,13.29 -21.94,19.49 -43.64,31.95 -110.3,26.46 -145.1,-0.73 -17.94,-14.02 -42.42,-48.91 -17.09,-75.15 3.47,-4.34 1.07,-6.68 -6.73,-3.19 -27.22,17.36 -13.9,62.49 0.91,77.77 21.06,21.74 46.39,33.56 73.32,35.62 43.85,3.34 90.26,-16.65 120.93,-49.06 30.67,32.41 77.08,52.4 120.93,49.06 26.93,-2.06 52.26,-13.88 73.32,-35.62 14.81,-15.29 28.13,-60.41 0.91,-77.77 -7.8,-3.49 -10.2,-1.15 -6.73,3.19 25.32,26.24 0.85,61.13 -17.09,75.15 -34.81,27.19 -101.47,32.68 -145.1,0.73 -7.83,-6.2 -15.27,-12.47 -21.93,-19.49 16.23,-18.71 27.3,-41.12 30.04,-65.33 12.53,-110.92 -89.36,-104.21 -69.4,5.2 2.35,12.9 6.76,23.76 11.05,31.98 5,9.58 12.59,19.92 19.73,28.15zm4.29 -4.77c-7.59,-8.91 -11.86,-16.71 -16.32,-27.44 -10.54,-25.35 -18.75,-62.14 0.7,-83.73 3.13,-3.48 7.09,-5.73 11.21,-6.59 28.31,-5.93 30.91,42.96 28.35,60.39 -3,25.74 -11.89,43.23 -23.95,57.37z"/>
   <path class="fil1" d="M1329.37 80.16c-10.39,75.15 -64.52,124.89 -127.73,143.74 -39.86,11.89 -76.28,13.79 -110.78,-0.04 -53.73,-21.56 -90.71,-65.55 -143.92,-93.4 -32.22,-16.86 -74.29,-29.8 -111.41,-19.42 -41.35,11.56 -64.96,46.53 -36.34,78.86 4.25,4.8 9.83,10.43 14.91,14.21 2.41,1.8 3.41,1.88 3.9,1.48 2.35,-1.91 -11.31,-16.38 -13.57,-20.02 -36.57,-59.12 53.22,-95.2 146.16,-32.76 26.85,18.03 57.22,41.85 89.56,60.54 38.1,22.03 70.45,33.72 116.05,31.55 82.47,-3.93 176.59,-67.97 180.59,-175.26 0.07,-1.95 0.31,-7.36 -2.96,-6.25 -1.14,0.39 -1.9,1.07 -2.4,1.91 -0.69,1.16 -1.75,12.58 -2.06,14.86z"/>
   <g>
    <path class="fil1" d="M671.99 718.56c36.36,42.29 132.13,65.19 173.56,31.59 23.42,-18.99 22.1,-35.98 4.1,-48.97 -9.52,-6.87 -23.01,-8.22 -34.3,-3.61 -11.9,4.86 -21.11,11.5 -32.16,16.19 -13.44,5.7 -22.12,9.03 -34.44,0.07 -0.54,-0.39 -1.09,-0.83 -1.63,-1.29 -2.15,-1.84 -3.91,-4.3 -6.01,-5.94 -1.61,-1.25 -3.01,-1.47 -2.66,2.22 0.32,3.51 3.02,9.32 8.09,12.85 3.81,2.65 9.37,5.91 15.99,6.56 9.09,0.13 16.75,-3.16 24.54,-6.03 11.54,-4.25 18.13,-8.79 30.63,-13.33 33.43,-10.92 53.79,18.67 17.73,36.78 -26.47,13.3 -55.94,13.83 -87.68,5.85 -22.65,-5.7 -45.01,-15.67 -61.78,-29.48 -4.95,-4.07 -7.21,-6.02 -11.93,-11.84 -2.24,-2.76 -6.09,-3.45 -6.61,-1.69 -0.98,3.31 2.57,7.73 4.58,10.07z"/>
    <path class="fil1" d="M1806.62 718.56c-36.36,42.29 -132.14,65.19 -173.56,31.59 -23.42,-18.99 -22.1,-35.98 -4.1,-48.97 9.52,-6.87 23.01,-8.22 34.3,-3.61 11.9,4.86 21.11,11.5 32.16,16.19 13.43,5.7 22.12,9.03 34.44,0.07 0.54,-0.39 1.09,-0.83 1.63,-1.29 2.15,-1.84 3.91,-4.3 6.01,-5.94 1.61,-1.25 3,-1.47 2.66,2.22 -0.33,3.51 -3.02,9.32 -8.09,12.85 -3.81,2.65 -9.37,5.91 -15.99,6.56 -9.09,0.13 -16.75,-3.16 -24.55,-6.03 -11.54,-4.25 -18.13,-8.79 -30.62,-13.33 -33.43,-10.92 -53.79,18.67 -17.73,36.78 26.48,13.3 55.94,13.83 87.69,5.85 22.64,-5.7 45.01,-15.67 61.78,-29.48 4.95,-4.07 7.21,-6.02 11.94,-11.84 2.24,-2.76 6.09,-3.45 6.61,-1.69 0.99,3.31 -2.57,7.73 -4.58,10.07z"/>
   </g>
   <g>
    <path class="fil0" d="M920.08 742.59c0,8.38 5.26,13.55 15.77,15.54 5.46,1.04 10.9,1.19 16.57,0.75 2.72,-0.21 5.18,-0.61 7.37,-1.22 3.37,-0.92 6.12,-2.82 8.27,-5.66 1.86,-2.51 2.9,-5.93 3.14,-10.31 0.02,-0.31 -0.07,-0.63 -0.06,-0.95 0.01,-0.41 -0.01,-0.82 0,-1.23 0.12,-6.14 0,-12.32 0,-18.46l-13.78 0 0 19.59 0.01 0c-0.15,3.77 -0.97,6.41 -2.49,7.93 -2.18,2.18 -4.34,2.17 -7.22,2.17 -4.96,0 -8.34,-0.99 -10.16,-2.96 -1.82,-1.99 -2.72,-4.9 -2.72,-8.73l0 -45.01 -14.69 0 0 48.52z"/>
    <path class="fil0" d="M1001.99 702.12c0,2.45 2.03,4.3 6.09,5.56 5.49,1.68 4.93,0.93 10.18,3.22 2.34,1.02 4.48,2.35 6.41,3.98 3.1,2.58 4.69,6.58 4.8,11.94 0,2.67 -0.23,14.52 -0.67,16.66 -0.44,2.14 -1.12,4.03 -2,5.65 -1.78,3.25 -4.27,5.61 -7.48,7.11 -3.21,1.5 -7.13,2.4 -11.73,2.73 -1.11,0.09 -2.68,0.14 -4.69,0.14 -3.37,0 -6.54,-0.26 -9.54,-0.74 -2.98,-0.51 -5.45,-1.04 -7.39,-1.64 -1.94,-0.6 -2.91,-0.95 -2.91,-1.06l-2.49 -9.84c0.02,0 1.02,0.42 3,1.27 1.98,0.88 4.36,1.66 7.16,2.38 2.8,0.72 5.87,1.13 9.26,1.22 5.45,0 9.12,-0.9 11.01,-2.65 1.17,-1.11 1.98,-2.58 2.42,-4.39 0.26,-1.08 0.4,-11.75 0.4,-13.1 0,-7 -3.32,-9.15 -9.69,-10.5 -5.75,-1.25 -10.05,-3.03 -12.96,-5.36 -2.89,-2.33 -4.32,-6.44 -4.32,-12.33 0.03,-0.79 0.07,-6.59 0.18,-7.32l15.24 0c-0.16,0.61 -0.24,6.33 -0.3,7.07z"/>
    <path class="fil0" d="M1053.92 759.11c-4.13,-0.04 -7.58,-0.46 -10.36,-1.11 -3.14,-0.77 -4.71,-1.37 -4.71,-1.81l0 -9.89c0,0 0,0 0,0 0,0.07 0.6,0.49 1.8,1.27 1.27,0.84 3,1.58 5.15,2.22 2.15,0.67 4.73,0.99 7.74,0.99 4.96,0 8.34,-0.99 10.16,-2.96 0.81,-0.87 1.44,-1.94 1.89,-3.18 1.27,-4.28 1.38,-14.32 -2.41,-17.73 -2.01,-1.8 -4.58,-2.71 -7.62,-2.71l-7.8 0 0 -8.06 9.4 0c1.31,0 2.49,-0.14 3.55,-0.42 5.67,-1.48 7.46,-8.71 2.48,-12.62 -0.8,-0.63 -1.78,-1.13 -2.98,-1.47l0 -6.5c5.63,0.28 12.02,0.8 15.67,5.56 5.67,7.41 1.67,16.23 -7.85,19.63 19.93,4.14 15.22,30.05 8.18,34.91 -3.76,2.59 -10.39,3.89 -16.55,3.89l-5.72 0 0 -0.01z"/>
    <path class="fil0" d="M1113.81 702.52c2.83,0 4.98,0.81 6.42,2.4 1.17,1.29 1.87,3.44 2.09,6.46 0.02,0.26 0.03,8.5 0.05,18.15l0 0.89 -0.02 3.19 0.05 0 11.88 0 0.05 0 -0.02 -3.19 0 -0.89c0.01,-9.65 0.03,-17.9 0.05,-18.15 0.21,-3.02 0.92,-5.18 2.09,-6.46 1.45,-1.59 3.59,-2.4 6.42,-2.4 6.65,0 7.53,5.25 7.37,10.94 -0.05,0.61 -0.07,0.97 -0.07,1.08l0 44.57 2.99 0 11.93 0 0.04 0 0 -41.99c0,-0.83 -0.02,-1.64 -0.07,-2.43 -0,-1.99 -0.01,-3.2 -0.01,-3.28 -0.19,-4.12 -1.1,-7.35 -2.7,-9.72 -1.85,-2.68 -4.22,-4.47 -7.12,-5.33 -2.4,-0.72 -5.18,-1.14 -8.32,-1.26l0 -0.04 -2 0 -2.39 0 -2 0 0 0.04c-2.16,0.09 -4.15,0.31 -5.96,0.68 -2.55,0.51 -4.12,1.43 -6.23,2.98 -2.11,-1.55 -3.68,-2.47 -6.23,-2.98 -1.81,-0.37 -3.8,-0.59 -5.96,-0.68l0 -0.04 -2 0 -2.39 0 -2 0 0 0.04c-3.14,0.12 -5.92,0.55 -8.32,1.26 -2.9,0.86 -5.27,2.66 -7.12,5.33 -1.6,2.36 -2.51,5.6 -2.7,9.72l-0.01 1.61c-0.14,1.31 -0.21,2.68 -0.21,4.1l0 41.99 0.17 0 11.93 0 2.86 0 0 -44.57c0,-0.11 -0.02,-0.48 -0.07,-1.08 -0.16,-5.84 0.79,-10.94 7.5,-10.94z"/>
    <path class="fil0" d="M1174.49 711.45c0,-10.65 8.5,-16.2 25.47,-16.46 4.9,-0.08 8.91,0.37 12.08,1.11 3.14,0.76 4.71,1.36 4.71,1.8l0 9.86c0,0 0,0 0,0 0,-0.07 -0.6,-0.48 -1.8,-1.27 -1.27,-0.83 -3,-1.57 -5.15,-2.22 -2.15,-0.67 -4.73,-0.99 -7.73,-0.99 -4.97,0 -8.34,0.99 -10.16,2.96 -1.8,1.95 -2.7,4.8 -2.72,8.55l0 0.18 0 6.17 13.28 0c4.62,0 8.61,0.46 11.98,1.38 3.37,0.93 6.12,2.82 8.27,5.66 2.13,2.86 3.19,6.93 3.19,12.24 -0.14,7.02 -2.1,11.89 -5.89,14.62 -3.79,2.72 -9.08,4.09 -15.86,4.09l-29.65 0 0 -17.08 0 -30.11 0 -0.47zm14.69 17.6l0 12.99 0 9.02 13.3 0c2.82,0 5.08,-0.9 6.83,-2.68 1.75,-1.78 2.66,-4.3 2.73,-7.57 0,-4.46 -0.83,-7.53 -2.52,-9.21 -1.69,-1.69 -4.16,-2.54 -7.46,-2.54l-12.89 0z"/>
    <path class="fil0" d="M1235.27 742.64c0,10.64 8.5,16.2 25.47,16.46 0.55,0.01 16.34,0.01 16.87,0.01l0 -8.3c-0.29,-0 -15.82,-0.01 -16.11,-0.02 -4.24,-0.17 -7.17,-1.14 -8.82,-2.93 -1.8,-1.95 -2.7,-4.8 -2.73,-8.55l0 -0.18 0 -6.16 13.28 0c4.62,0 8.61,-0.46 11.98,-1.39 3.37,-0.92 6.12,-2.82 8.27,-5.66 2.12,-2.86 3.19,-6.93 3.19,-12.24 -0.14,-7.02 -2.1,-11.89 -5.89,-14.62 -3.79,-2.72 -9.07,-4.09 -15.86,-4.09l-29.65 0 0 17.08 0 30.11 0 0.47zm14.68 -17.6l0 -12.98 0 -9.02 13.3 0c2.82,0 5.08,0.9 6.83,2.68 1.75,1.78 2.65,4.29 2.72,7.57 0,4.46 -0.83,7.53 -2.51,9.22 -1.69,1.69 -4.16,2.54 -7.46,2.54l-12.89 0z"/>
    <path class="fil0" d="M1321.51 693.58c7.48,0 13.09,1.15 16.9,3.44 3.79,2.29 6.21,5.03 7.27,8.24 1.08,3.21 1.62,6.83 1.62,10.9l0 42.95 -14.97 0 0 -42.81c0,-0.12 0.02,-0.48 0.07,-1.11 0.05,-0.65 0.07,-1.18 0.07,-1.66 0,-7.57 -4.2,-11.36 -12.63,-11.36 -7.76,0 -11.64,3.7 -11.64,11.08 0,0.6 0.03,1.27 0.07,2.08 0.05,0.78 0.07,1.24 0.07,1.38l0 42.4 -12.31 0 0 -42.4 0 -3.05c0,-13.39 8.5,-20.09 25.47,-20.09z"/>
    <path class="fil0" d="M1378.14 695.05c-4.03,0.62 -7.41,1.74 -10.13,3.35 -4.13,2.47 -7.07,6.16 -8.77,11.07 -1.71,4.94 -2.56,11.42 -2.56,19.47 0.19,6.47 1.18,11.92 2.98,16.31 1.8,4.42 4.66,7.8 8.59,10.18 3.9,2.36 9.05,3.59 15.45,3.68 3.9,0 7.79,0 11.69,0 6.4,-0.08 11.55,-1.17 15.45,-3.24 3.92,-2.09 6.79,-5.06 8.59,-8.94 1.8,-3.86 2.79,-8.64 2.98,-14.33 0,-7.08 -0.86,-12.76 -2.56,-17.1 -1.71,-4.32 -4.64,-7.56 -8.77,-9.73 -3.83,-1.99 -8.98,-3.12 -15.39,-3.39l0 -7.75 -9.71 0 0 23.81 9.71 0 0 -9c3.09,0.29 5.41,1.57 6.98,3.82 1.62,2.31 2.63,5.04 3.05,8.2 0.44,3.17 0.65,6.87 0.65,11.11 0,10.86 -3.37,18.27 -15.6,18.27 -1.75,0 -3.14,-0.05 -4.16,-0.14 -9.26,-0.57 -13.88,-7.85 -13.88,-21.8 0,-6.18 -1.36,-22.9 5.42,-25.72l0 -8.15z"/>
    <path class="fil0" d="M1431.77 711.45c0,-10.65 8.5,-16.2 25.47,-16.46 4.9,-0.08 8.91,0.37 12.08,1.11 3.14,0.76 4.71,1.36 4.71,1.8l0 9.86c0,0 0,0 0,0 0,-0.07 -0.6,-0.48 -1.8,-1.27 -1.27,-0.83 -3,-1.57 -5.15,-2.22 -2.15,-0.67 -4.73,-0.99 -7.73,-0.99 -4.97,0 -8.34,0.99 -10.16,2.96 -1.8,1.95 -2.7,4.8 -2.72,8.55l0 0.18 0 6.17 13.28 0c4.62,0 8.61,0.46 11.98,1.38 3.37,0.93 6.12,2.82 8.27,5.66 1.86,2.5 2.91,5.93 3.14,10.3 0.02,0.31 -0.07,0.63 -0.06,0.95 0.01,0.41 -0.01,0.82 0,1.23 0.12,6.14 0,12.32 0,18.46l-13.78 0 0 -19.6 0.01 0c-0.15,-3.77 -0.97,-6.41 -2.49,-7.93 -1.69,-1.69 -4.16,-2.54 -7.46,-2.54l-12.74 0c0,10.03 0,20.05 0,30.07l-14.83 0 0 -47.19 0 -0.47z"/>
    <path class="fil0" d="M1514.89 702.52c2.83,0 4.97,0.81 6.42,2.4 1.17,1.29 1.87,3.44 2.09,6.46 0.02,0.26 0.03,8.5 0.04,18.15l0 0.89 -0.02 3.19 0.05 0 11.88 0 0.05 0 -0.02 -3.19 0 -0.89c0.01,-9.65 0.03,-17.9 0.04,-18.15 0.22,-3.02 0.92,-5.18 2.09,-6.46 1.45,-1.59 3.59,-2.4 6.42,-2.4 6.65,0 7.53,5.25 7.37,10.94 -0.05,0.61 -0.07,0.97 -0.07,1.08l0 44.57 2.99 0 11.93 0 0.04 0 0 -41.99c0,-0.83 -0.02,-1.64 -0.07,-2.43 -0,-1.99 -0.01,-3.2 -0.01,-3.28 -0.19,-4.12 -1.1,-7.35 -2.7,-9.72 -1.85,-2.68 -4.22,-4.47 -7.12,-5.33 -2.4,-0.72 -5.18,-1.14 -8.32,-1.26l0 -0.04 -2 0 -2.39 0 -2 0 0 0.04c-2.16,0.09 -4.15,0.31 -5.96,0.68 -2.55,0.51 -4.12,1.43 -6.23,2.98 -2.11,-1.55 -3.68,-2.47 -6.23,-2.98 -1.81,-0.37 -3.8,-0.59 -5.96,-0.68l0 -0.04 -2 0 -2.39 0 -2 0 0 0.04c-3.14,0.12 -5.92,0.55 -8.32,1.26 -2.9,0.86 -5.27,2.66 -7.12,5.33 -1.6,2.36 -2.51,5.6 -2.7,9.72l-0.01 1.61c-0.14,1.31 -0.21,2.68 -0.21,4.1l0 41.99 0.17 0 11.93 0 2.86 0 0 -44.57c0,-0.11 -0.02,-0.48 -0.07,-1.08 -0.16,-5.84 0.78,-10.94 7.5,-10.94z"/>
    <g>
     <path class="fil1" d="M1045.86 824.91l-26.73 0 0.16 -1.91c0.14,-1.66 2.21,-3.4 3.43,-4.35 2.83,-2.2 7.01,-3.97 10.33,-5.27 2.65,-1.04 5.51,-2.27 7.92,-3.81 1.56,-1 3.07,-2.29 3.99,-3.93 0.89,-1.58 1.21,-3.39 1.21,-5.19 0,-4.43 -1.74,-7.94 -5.34,-10.54 -4.49,-3.24 -11.07,-3.97 -16.44,-3.98 -3.52,-0.01 -7.18,0.33 -10.54,1.42 -2.27,0.73 -4.8,1.71 -6.76,3.08 -0.37,0.26 -1.82,1.26 -2.16,1.68l0 7.77c1.44,-1.29 3.33,-2.47 4.78,-3.34 3.54,-2.14 7.99,-2.73 12.07,-2.7 2.34,0.02 5.56,0.21 7.68,1.3 1.68,0.86 2.83,2.24 2.96,4.17 0.12,1.63 -0.31,3.16 -1.31,4.46 -0.97,1.26 -2.34,2.24 -3.72,3 -2.53,1.39 -5.25,2.64 -7.86,3.87 -4.06,1.91 -10.05,5.13 -12.45,9.09 -1.35,2.22 -2.74,5.11 -2.74,7.76l0 5.23 41.53 0 0 -7.8zm28.34 -38.98c-3.92,0 -8.1,0.61 -11.52,2.64 -3.08,1.83 -5.21,4.51 -6.58,7.81 -1.73,4.15 -2.4,8.79 -2.47,13.26 -0.08,4.6 0.53,9.4 2.37,13.65 1.46,3.37 3.65,6.15 6.85,8 3.43,1.98 7.44,2.64 11.36,2.64 5.8,0 11.78,-1.3 15.61,-5.99 3.99,-4.88 4.94,-11.99 4.94,-18.09 0,-14.2 -5.31,-23.91 -20.55,-23.91zm-8.44 23.38c0.05,-3.46 0.63,-6.95 2,-10.14 1.23,-2.86 3.38,-4.53 6.54,-4.53 7.55,0 8.31,9.65 8.31,15.21 0,5.51 -0.71,15.55 -8.31,15.49 -3.37,-0.03 -5.71,-1.68 -6.88,-4.83 -1.31,-3.52 -1.71,-7.46 -1.65,-11.19zm57.12 -23.38c-3.92,0 -8.1,0.61 -11.52,2.64 -3.08,1.83 -5.21,4.51 -6.58,7.81 -1.73,4.15 -2.4,8.79 -2.47,13.26 -0.08,4.6 0.53,9.4 2.37,13.65 1.46,3.37 3.65,6.15 6.85,8 3.43,1.98 7.44,2.64 11.36,2.64 5.8,0 11.78,-1.3 15.61,-5.99 3.99,-4.88 4.94,-11.99 4.94,-18.09 0,-14.2 -5.31,-23.91 -20.55,-23.91zm-8.44 23.38c0.06,-3.46 0.63,-6.95 2.01,-10.14 1.23,-2.86 3.38,-4.53 6.54,-4.53 7.55,0 8.31,9.65 8.31,15.21 0,5.51 -0.71,15.55 -8.31,15.49 -3.37,-0.03 -5.71,-1.68 -6.88,-4.83 -1.31,-3.52 -1.71,-7.46 -1.66,-11.19zm77.47 15.6l-26.73 0 0.16 -1.91c0.14,-1.66 2.21,-3.4 3.43,-4.35 2.83,-2.2 7.01,-3.97 10.33,-5.27 2.66,-1.04 5.51,-2.27 7.92,-3.81 1.56,-1 3.07,-2.29 3.99,-3.93 0.89,-1.58 1.21,-3.39 1.21,-5.19 0,-4.43 -1.74,-7.94 -5.34,-10.54 -4.49,-3.24 -11.07,-3.97 -16.44,-3.98 -3.51,-0.01 -7.18,0.33 -10.54,1.42 -2.27,0.73 -4.8,1.71 -6.76,3.08 -0.37,0.26 -1.82,1.26 -2.16,1.68l0 7.77c1.43,-1.29 3.33,-2.47 4.77,-3.34 3.55,-2.14 8,-2.73 12.07,-2.7 2.34,0.02 5.56,0.21 7.68,1.3 1.68,0.86 2.82,2.24 2.96,4.17 0.11,1.63 -0.32,3.16 -1.31,4.46 -0.97,1.26 -2.34,2.24 -3.72,3 -2.53,1.39 -5.25,2.64 -7.86,3.87 -4.06,1.91 -10.05,5.13 -12.45,9.09 -1.34,2.22 -2.73,5.11 -2.73,7.76l0 5.23 41.53 0 0 -7.8z"/>
     <path class="fil0" d="M1221.94 821.73c0,7.88 6.29,12 18.87,12.19 3.12,0.05 5.75,-0.43 7.92,-0.91 2.65,-0.44 4.86,-1.24 6.63,-2.43 2.81,-1.87 4.26,-5.22 4.36,-10.05 0,-3.65 -0.79,-6.44 -2.36,-8.41 -1.59,-1.95 -3.63,-3.25 -6.12,-3.89 -2.5,-0.63 -5.46,-0.95 -8.88,-0.95l-9.54 0 0 -5.05 0 -1.02c0,-2.84 0.12,-5.22 1.48,-6.68 2.39,-2.58 8.48,-2.08 8.5,2.21 -0.02,0.35 -0.03,0.72 -0.03,1.1l0 3.9 9.27 0 0 -0.67 0 -3.23c0,-5.18 2.86,-5.21 6.51,-5.58l0 -5.66c-4.94,0.18 -10.31,-0.01 -13.34,3.27 -0.8,-1.02 -2.55,-2.53 -5.02,-2.91 -2.94,-0.45 -6.5,-0.57 -9.7,0.23 -4.67,1.18 -8.55,4.36 -8.55,11.42l0 3.62 0 11.29 0 8.19zm21.52 6.07c-0.44,0.02 -0.89,0.03 -1.34,0.03 -3.68,0 -5.94,-0.78 -7.28,-2.24 -1.35,-1.46 -2.02,-3.63 -2.02,-6.47l0 -5.59 0 -0.8 9.25 0c2.45,0 4.28,0.59 5.53,1.75 1.25,1.16 1.86,3.27 1.86,6.33 -0.05,2.25 -0.72,3.98 -2.02,5.2 -1.07,1 -2.39,1.6 -3.98,1.78z"/>
     <path class="fil0" d="M1265.72 821.72c0,7.88 6.29,12 18.87,12.2 0.41,0.01 12.1,0.01 12.5,0l0 -6.15c-0.22,-0 -11.72,-0.01 -11.93,-0.02 -3.14,-0.12 -5.32,-0.85 -6.54,-2.17 -1.33,-1.44 -2,-3.56 -2.02,-6.33l0 -0.13c0,-7.16 0,-11.81 0,-20.06l0 -6.68 9.85 0c2.09,0 3.76,0.67 5.06,1.98 0.65,0.66 1.14,1.46 1.48,2.39 1.13,3.14 0.49,10.74 -1.91,13.61l10.97 0c1.58,-4.54 2.26,-10.03 1.25,-14.51 -0.65,-2.89 -1.94,-5.03 -3.87,-6.42 -2.8,-2.02 -6.72,-3.03 -11.75,-3.03l-21.96 0 0 12.65 0 22.31 0 0.35z"/>
     <path class="fil0" d="M1328.65 786.47c5.54,0 9.7,0.84 12.52,2.49 2.81,1.65 4.6,3.64 5.39,5.97 0.81,2.32 1.2,4.95 1.2,7.89l0 31.1 -11.08 0 0 -31c0,-0.08 0.02,-0.35 0.05,-0.8 0.45,-6.17 -2.94,-9.43 -9.31,-9.43 -6.48,0 -8.9,3.72 -8.57,9.53 0.03,0.57 0.05,0.9 0.05,1l0 30.7 -9.12 0 0 -30.7 0 -2.21c0,-9.7 6.29,-14.55 18.87,-14.55z"/>
     <path class="fil0" d="M1353.76 821.72c0,7.88 6.29,12 18.87,12.2 0.41,0.01 12.1,0.01 12.5,0l0 -6.15c-0.22,-0 -11.72,-0.01 -11.93,-0.02 -3.14,-0.12 -5.31,-0.85 -6.54,-2.17 -1.33,-1.44 -2,-3.56 -2.02,-6.33l0 -0.13 0 -4.57 9.84 0c3.42,0 6.38,-0.34 8.88,-1.03 2.5,-0.68 4.53,-2.09 6.12,-4.19 1.58,-2.12 2.36,-5.13 2.36,-9.07 -0.1,-5.2 -1.56,-8.81 -4.36,-10.83 -2.81,-2.02 -6.72,-3.03 -11.75,-3.03l-21.96 0 0 12.65 0 22.31 0 0.35zm10.88 -13.03l0 -9.62 0 -6.68 9.85 0c2.09,0 3.76,0.67 5.06,1.98 1.3,1.32 1.97,3.18 2.02,5.61 0,3.3 -0.61,5.58 -1.87,6.83 -1.25,1.25 -3.08,1.88 -5.53,1.88l-9.54 0z"/>
     <path class="fil0" d="M1409.82 791.71c0,1.81 1.5,3.18 4.51,4.12 4.07,1.24 3.65,0.69 7.54,2.38 1.73,0.76 3.32,1.74 4.75,2.95 2.29,1.91 3.47,4.87 3.56,8.84 0,1.98 -0.17,10.76 -0.5,12.34 -0.33,1.58 -0.83,2.98 -1.49,4.19 -1.32,2.41 -3.16,4.16 -5.54,5.27 -2.38,1.11 -5.29,1.78 -8.69,2.02 -0.82,0.07 -1.98,0.1 -3.47,0.1 -2.5,0 -4.84,-0.19 -7.07,-0.55 -2.2,-0.38 -4.04,-0.77 -5.47,-1.22 -1.44,-0.44 -2.16,-0.7 -2.16,-0.79l-1.85 -7.29c0.01,0 0.75,0.31 2.22,0.94 1.47,0.65 3.23,1.23 5.3,1.76 2.07,0.53 4.35,0.84 6.86,0.91 4.04,0 6.76,-0.67 8.16,-1.97 0.87,-0.82 1.47,-1.91 1.79,-3.25 0.19,-0.8 0.3,-8.71 0.3,-9.7 0,-5.19 -2.46,-6.78 -7.18,-7.78 -4.26,-0.93 -7.44,-2.24 -9.6,-3.97 -2.14,-1.73 -3.2,-4.77 -3.2,-9.13 0.02,-0.59 0.06,-4.88 0.14,-5.43l11.29 0c-0.12,0.46 -0.18,4.69 -0.22,5.24z"/>
     <path class="fil0" d="M1436.19 798.62c0,-7.88 6.29,-12 18.87,-12.19 3.63,-0.06 6.6,0.27 8.95,0.82 2.33,0.56 3.49,1.01 3.49,1.33l0 7.3c0,0 0,0 0,0 0,-0.05 -0.44,-0.36 -1.33,-0.94 -0.94,-0.61 -2.22,-1.16 -3.81,-1.64 -1.59,-0.5 -3.51,-0.74 -5.73,-0.74 -3.68,0 -6.18,0.73 -7.52,2.19 -1.33,1.44 -2,3.56 -2.02,6.34l0 0.13 0 4.57 9.84 0c3.42,0 6.38,0.34 8.88,1.03 2.5,0.68 4.53,2.09 6.12,4.19 1.58,2.12 2.36,5.13 2.36,9.07 -0.1,5.2 -1.56,8.81 -4.36,10.83 -2.81,2.02 -6.72,3.03 -11.75,3.03l-21.96 0 0 -12.65 0 -22.31 0 -0.35zm10.88 13.04l0 9.62 0 6.68 9.85 0c2.09,0 3.76,-0.67 5.06,-1.98 1.3,-1.32 1.97,-3.18 2.02,-5.61 0,-3.3 -0.62,-5.58 -1.87,-6.83 -1.25,-1.25 -3.08,-1.88 -5.53,-1.88l-9.54 0z"/>
    </g>
   </g>
   <path class="fil1" d="M1908.18 380.1c7.22,5.13 -0.45,1.07 25.62,2.85 4.61,0.31 7.56,0.39 9.7,0.33 4.29,0.36 10.05,-0.47 17.36,0 9.94,-1.37 19.78,-0.66 30.23,-0.66 6.47,0 7.8,14.02 8.48,18.69 0.79,5.37 0.91,7.65 1.59,13.27 0.52,4.31 2.42,7.1 3.54,11.31 -2.03,3.03 -3.1,5.36 -6.19,7.42 5.47,8.17 2.73,15.55 1.77,23.95 -0.4,3.51 1.91,9.54 0.46,22.91 -1.11,10.17 0.69,10.84 -1.69,25.46 -0.61,3.79 -3.01,9.7 -3.01,13.08 0,7.86 1.47,6.5 -1.21,17.35 -1.76,7.11 -1.84,12.59 -2.78,19.5 -0.97,7.14 -4.08,9.16 -4.65,17.63 -0.74,10.94 -1.78,9.45 -6.2,16.07 -3.34,-0.08 -5.06,-0.39 -7.66,-1.01 -4.92,-1.17 -3.55,-0.35 -5.96,-3.95 5.52,-8.25 11.16,0.54 13.61,-8.66 -5.78,-3.25 -96.07,-1.24 -110.13,-1.24 -6.97,0 -10.75,0.68 -13.61,4.95 5.6,1.3 13.76,-0.01 22.3,-0.03l49.82 2.18c14.43,2.06 27.49,-5.51 33.05,2.8 -3.22,4.81 -9.51,4.49 -15.03,4.78 -4.93,0.26 -12,-1.5 -19.62,-1.07 -26.8,1.51 -52.43,0.01 -80.43,0.01l-42.07 0c-6.52,0 -9.6,-1.52 -15.56,-0.73 -6.41,0.85 -14.17,0.01 -19.26,-0.06 -5.74,-0.08 -9.9,2.36 -23.34,-6.64 -6.83,4.57 -5.8,4.95 -16.09,4.95 -5.27,0 -5.89,-6.09 -16.2,-3.93 -4.73,0.99 -4.38,1.54 -8.62,2.62 -6.99,1.78 -15.88,1.31 -23.44,1.31 -4.71,0 -4.37,-1.5 -7.4,-2.47 -2.1,-0.67 -19.8,2.52 -25.99,2.49 -6.95,-0.04 -13.98,0.24 -20.89,-0.22 -10.2,-0.68 -15.33,4.47 -30.76,2.34 -9.03,-1.24 -21.79,-0.1 -31.39,-0.01l-53.18 0.44c-9.26,-0.24 -7.25,-3.8 -12.28,-3.8 -5.95,0 -6.43,3.71 -12.37,3.71l-45.89 -1.21c-5.16,-0.27 -8.98,1.21 -15.98,1.21 -5.22,0 -6.88,-0.9 -10.01,-0.99l-32.06 0.99c-4.88,0 -5.65,-0.88 -8.66,-0.88 -3.02,0 -3.79,0.88 -8.66,0.88l-70.59 -1.18c-6.63,-0.15 -9.26,-2.53 -12.32,-2.53 -7.4,0 -12.21,2.31 -19.76,2.52 -7.25,0.2 -15.03,-0.02 -22.33,-0.06 -11.27,-0.06 -20.82,2.3 -32.02,1.03 -9.5,-1.08 -15.58,0.22 -27.36,0.22 -6.51,0 -1.31,-1.29 -6.43,-1.57 -3.86,-0.21 -1.9,1.57 -7.18,1.57 -10.16,0 -24.41,-1.23 -33.74,-0.35l-40.5 -0.89c-5.23,0 -6.87,0.9 -10.02,0.99l-13.48 -0.45c-7.87,0.23 -25.87,1.21 -34.66,0.7l-38.36 -1.25c-5.2,0 -4.55,1.4 -9.23,0.58 -5.21,-0.91 -4.96,-2.26 -9.47,-2.92l-45.65 1.11 -69.48 -2.29c-15.79,-1.78 -189.96,-0.03 -232.46,-0.19 -9.81,-0.03 -14.54,1.31 -23.48,1.27l-97.79 -0.03c-0.83,9.96 0.64,5.49 17.4,5.01 4.51,-0.13 8.19,1.18 14.78,1.18l138.59 0c5.23,0 6.88,-0.9 10.02,-0.99 3.78,-0.11 5.39,0.99 11.02,0.99l32.17 0c5.63,0 7.24,-1.11 11.02,-0.99 3.09,0.09 5.94,1.02 11.21,1.04l49.55 -0.05c4.28,-0.01 7.87,-0.07 12.07,0.38 7.99,0.86 17.47,-1.65 25.68,0.23 5.84,1.34 2.92,-0.49 5.56,3.11 -3.09,4.21 0.99,1.21 -4.56,2.87 -2.74,0.82 -41.9,0.86 -46.18,0.84 -11.2,-0.06 -19.13,2.43 -30.4,0.72l-46.09 -1.81c-18.8,2.08 -144.39,2.35 -159.18,0.33 -4.16,-0.57 -47.31,0.76 -53.87,0.76l0 6.19c6.63,0 14.15,-0.23 19.8,2.47 -3.15,4.31 -9.74,3.86 -15.52,4.21 -6.69,0.4 0.22,-0.49 -5.51,-0.49 -5.37,0 -1.46,3.43 -7.42,7.43 -4.06,-7.24 0.63,-20.4 1.08,-23.67 0.47,-3.37 0.51,-8.1 0.9,-11.56 1.44,-13.02 -1.34,-7.73 3.12,-31.44 0.8,-4.23 1.94,-5.55 2.29,-10.09 0.86,-11.14 -1.2,-10.54 4.98,-19.77 -9.86,-6.6 -2.4,-16.14 -2.43,-27.18 -0.07,-28.25 -0.72,-21.09 29.65,-21.09 4.95,0 9.92,-0.05 14.87,0.02 7.43,0.1 10.86,1.86 12.35,-3.73 -5.18,0 -10.97,0.24 -16.07,-0.12 -9.76,-0.69 -21.03,-0.34 -30.86,-0.17 -14.86,0.25 -9.85,-6.76 -6.28,-12.09 -2.34,-2.69 -2.6,-2.47 -3.69,-6.24 -2.99,-10.35 2.37,-14.95 1.64,-20.52 -0.12,-0.95 -5.96,-10.37 7.01,-10.37l48.26 1.24c-0.09,-3.97 0.4,-6.19 -3.71,-6.19l-37.12 0c-12.4,0 -8.71,4.12 -18.56,-2.48l0 -23.51c-5.39,-2.59 -4.1,0.82 -7.42,-3.71 2.07,-7.74 1.71,-0.08 6.19,-6.19 -1.96,-7.33 -3.91,-0.66 -3.77,-13.56l-0.19 -22.08c0.53,-4.67 2.13,-0.58 0.43,-5.43 -1.53,-4.35 -5.04,-4.52 -2.65,-9.67 3.22,-0.73 6.07,2.39 9.9,4.95 -1.17,4.38 -5.9,8.39 2.48,9.86 6.14,1.08 203.76,0.66 230.21,1.22 8.06,0.17 8.33,1.82 13.73,3.7 7.86,2.74 9.81,-2.4 13.44,-2.4l82.91 0c6.09,0 3.85,2.82 10.62,2.05 4.91,-0.56 7.49,-2.05 12.89,-2.05 8.22,0 4.22,4.75 17.66,2.87 28.76,-4.03 59.24,0.84 87.52,0.84 17.48,0 31.84,-2.5 49.5,-2.48 17.28,0.02 34.77,0.26 52.02,0.05l24.7 -1.29c13.69,0.01 24.03,-2.58 35.45,0.48 6,1.61 7.05,0.27 11.75,-0.3l61.69 1.06c6.2,0 12.39,0 18.59,0.03 7.92,0.03 10.1,-1.23 17.25,-1.31 18.02,-0.22 36.51,1.11 54.52,0.04 14.65,-0.88 30.46,0.01 45.76,0.01 6.09,0 7.45,-1.29 12.03,-0.91 8.3,0.69 28.71,-0.28 35.67,1.46 3.68,0.92 2.18,1.92 5.51,1.92 2.28,0 6.96,-3.03 10.21,-3.49 5.73,-0.79 40.43,3.66 62.7,0.9 4.02,-0.5 4.84,-1.35 8.61,-0.99 3.82,0.37 3.39,1.32 7.75,2.16 13.84,2.66 22.25,-1.06 36.94,-1.06 5.22,0 6.88,0.9 10.01,0.99l18.45 -0.99c5.54,0 3.55,0.99 8.2,0.65l32.68 -0.7c7.52,0.09 11.99,1.32 20.98,1.29l32.66 -0.57c16.91,2.07 77.13,-3.49 114.57,-0.57l12.18 0.1c21.54,1.15 11.8,0.26 28.64,-0.24l31.02 0.08c6.34,-0.19 7.61,-1.31 14.77,-1.32 22.19,-0.03 106.65,2.22 121.31,-1.2 -2.71,-5.12 -2.81,-4.95 -8.66,-4.95 -11.01,0 -18.33,2.51 -34.65,2.47 -7.61,-0.02 -11.84,0.54 -17.55,1.11l-40.61 -1.11c-6.27,0 -8.96,1.28 -13.47,1.02 -17.81,-1.02 -49.26,0.22 -68.2,0.22l-247.48 0c-6.69,0 -14.51,-0.38 -21.05,0 -22.95,1.33 -46.67,1.24 -70.52,1.24 -9.45,0 -17.44,-2 -25.46,-0.72l-135.4 -0.52c-7.05,0 -11.81,0.73 -17.32,0.73 -5.51,0 -10.27,-0.73 -17.32,-0.73l-180.66 0c-4.75,0 -3.99,0.83 -7.27,0.72 -1.59,-0.05 -4.3,-0.81 -7.53,-0.75 -5.53,0.1 -9.78,1.27 -17.37,1.27l-77.96 0c-10.5,0.04 -15.73,-1.3 -25.97,-1.25 -19.44,0.1 -35.36,1.86 -54.49,1.29l-25.94 -1.28c-9.09,0 -18.18,0.06 -27.27,0.04l-39.59 -1.24c-8.25,0.09 -7.31,0.86 -12.34,-2.51 3.52,-5.26 4.01,-3.74 12.4,-3.69 7.56,0.05 8.93,-2.5 22.25,-2.5 5.39,0 3.61,1.96 8.46,2 1.55,0.01 7.15,-0.96 11.35,-0.83l23.5 1.31 50.74 0c6.28,0 8.96,-1.28 13.47,-1.02l125.16 1.05c7.54,0.06 12.41,-2.51 14.81,-2.51 4.35,0 0.81,0.79 4.36,1.83 5.14,1.51 46.42,-0.57 62.77,-0.04l35.57 -0.56c5.21,-0.23 6.36,-1.18 9.96,-1.15 5.54,0.05 4.96,2.4 8.61,2.4 4.88,0 5.65,-0.88 8.66,-0.88l12.37 0.88c7.43,0 14.88,0.05 22.32,0.04 8.2,-0.01 12.84,-1.31 22.23,-1.28 23.81,0.06 43.42,1.97 66.12,-0.78l32.88 2.02c5.99,0 8.44,-1.11 12.37,-1.11 10.37,0 24.49,2.2 35.7,0.93 10.67,-1.21 11.12,-0.05 21.21,0.24 15.07,0.43 95.94,0.64 103.76,-0.24 6.24,-0.7 14.21,-1.67 22.39,-0.99 4.71,0.39 11.45,2.32 17.06,0.85 4.19,-1.1 1.63,-2.16 4.04,-2.16 5.21,0 5.91,2.48 12.37,2.48 18.66,0 39.34,2.02 57.44,-0.72 12.26,-1.86 28.67,-0.65 39.26,0.53 6.07,0.68 13.42,-0.04 19.66,0.14 6.68,0.2 10.33,1.32 18.54,1.31 14.21,-0.01 28.02,-2.51 43.29,-2.51l23.53 -0.02c14.14,-0.05 31.91,1.78 45.95,0.2l62.93 -1.42c14.03,0 28.05,0 42.07,0 15.66,0 27.38,-1.24 42.07,-1.24 -0.42,-5.03 -2.81,-5.26 0.59,-6.76 2.56,-1.13 5.06,1.85 6.84,3.05 0,13.01 2.4,11.71 3.89,22.1 0.92,6.39 1.82,5.02 3.63,8.98 1.46,3.18 1.13,7.29 -3.8,7.29l-72.98 -0.59c-4.22,0 -12.7,0.18 -16.12,1.82 1.87,7.01 4.52,3.71 9.9,3.71l76.72 0c5.04,0 6.66,1.96 8.66,4.95 -6.84,7.87 -17.8,3.71 -27.22,3.71 -4.75,0 -10.64,-0.2 -16.33,-0.09 -15.23,-0.16 -39.03,-0.31 -41.83,1.33zm-1340.12 105.2l0 -2.48 -17.32 0c2.53,3.45 0.99,2.53 7.36,2.54 3.3,0.01 6.65,-0.07 9.97,-0.07zm-2.47 -106.44l0 1.24c8.71,0 12.28,3.96 16.08,-1.24 -5.34,-3 -10.05,0 -16.08,0zm-47.02 106.44l24.75 0c-0.25,-0.17 -0.61,-0.74 -0.73,-0.51 -0.12,0.24 -0.58,-0.4 -0.76,-0.48 -4.26,-1.94 -4.43,-1.16 -8.24,-1.66 -7.76,-1.01 -14.86,-3.34 -15.02,2.65zm-2.47 -106.44c2.7,3.9 2.16,2.48 17.32,2.48 8.96,0 12.39,-1.24 21.04,-1.24l0 -1.24c-6.91,0 -10.83,-1.93 -18.04,-0.73 -6.54,1.08 -13.24,0.73 -20.32,0.73zm3.71 77.97l0 1.24c7.43,0 9.62,1.58 16.06,1.31 9.13,-0.38 9.32,-2.81 25.39,-0.48 6.03,0.88 4.42,1.19 6.81,-2.07 -5.57,-3.13 -19.56,-0.48 -24.92,-0.13 -4.47,0.29 -6.06,-1.11 -12.2,-1.11 -6.29,0 -5.64,1.24 -11.14,1.24zm-2.47 65.6c4.34,0 9.36,-0.23 13.62,-0.01 10.96,0.59 25.22,2.48 38.35,2.48l0 -4.95 -51.97 0 0 2.47zm1397.04 -127.48c11.07,0 27.78,-0.99 38.18,0.18 12.7,1.43 21.63,-0.18 36.07,-0.18l0 -2.47 -74.24 0 0 2.47zm-1398.28 34.66c3.19,4.35 18.09,2.44 28.5,2.43 11.18,-0.01 20.17,6.68 23.47,-2.43 -2.63,-2.2 -5.02,-0.47 -11.14,-0.48 -18.18,-0.04 -16.76,-2.04 -40.83,0.48zm2.47 69.31l38.4 0.04c6.56,0.09 8.35,1.23 11.1,-2.52 -7.24,-3.47 -38.4,-1.24 -49.5,-1.24l0 3.71zm-2.47 35.89c1.48,2.02 -0.28,3.68 13.54,2.42 24.28,-2.22 12.15,-0.53 29.74,0.1 14.16,0.5 12.46,0.79 14.88,-2.52 -4.09,-2.3 -56.3,-2.27 -58.16,0zm1404.47 -50.74c5.57,4.84 6.09,1.38 11.91,1.82l42.02 2.7c4.34,-0.65 12.53,-1.91 15.37,-3.28 -3.69,-5.04 1.56,-1.31 -13.57,-1.2l-55.73 -0.04zm-1405.7 -90.35c4.88,2.74 45.8,1.24 54.45,1.24 3.42,0 2.98,-0.95 3.71,-3.71l-46.63 0.26c-3.37,0.15 -0.08,0.12 -2.75,0.04 -3.54,-0.1 -8.17,-1.42 -8.78,2.17zm2.48 12.38c5.74,2.75 28.66,1.69 39.07,2.15 6.54,0.29 9.86,2 12.91,-2.15 -2.03,-2.93 0.94,-2.47 -9.9,-2.47 -3.99,0 -8.25,-0.26 -12.19,0.18 -16.53,1.87 -6.7,1.85 -21.81,-1.05 -8.71,-1.68 -5.57,-0.01 -8.06,3.35zm0 37.13c3.01,4.1 5.64,2.34 12.42,2.43 8.33,0.1 6.68,2.52 12.33,2.52 6.35,0 -2.88,-2.47 12.37,-2.47 6.87,0 7.34,1.24 13.61,1.24l0 -4.95c-5.99,0 -48.7,-1.24 -50.73,1.24zm1401.99 70.55c11.55,0 23.1,-0.04 34.65,0 12.03,0.04 20.51,-1.24 33.41,-1.24 -2.11,-1.84 -2.15,-2.48 -6.18,-2.48l-58.16 0c-2.92,0 -3.63,0.86 -3.71,3.72zm2.47 -40.84c12.26,0 20.45,2.47 33.41,2.47 7.33,0 22.17,0.91 28.46,-1.24 5.52,-1.88 3.54,-0.23 4.95,-3.72 -12.06,2.81 -20.82,0.3 -32.13,-0.04 -11.3,-0.34 -23.31,0.04 -34.69,0.04l0 2.48zm-1405.7 39.6c7.06,0 8.56,-1.24 16.08,-1.24 13.01,0 16.72,-0.53 28.94,1.04 6.04,0.77 6.49,0.67 6.94,-4.75 -4.81,-2.7 -40.19,-1.24 -48.26,-1.24 -4.05,0 -3.71,2.22 -3.71,6.19zm1403.23 -106.44l0 2.47c12.71,0 67.74,1.89 74.24,-1.24 -2.24,-5.56 -6.69,-2.58 -14.79,-2.43l-39.66 -0.05c-8.62,-0.05 -12.49,1.24 -19.79,1.24zm55.68 12.38c-15.52,0 -30.26,0.67 -44.93,-0.94 -4.78,-0.53 -5.34,0.59 -9.52,0.94l0 2.47c11.64,2.71 40.82,1.24 54.45,1.24 8.23,0 10.71,-1.24 18.56,-1.24 -0.83,-9.98 -9.31,-2.47 -18.56,-2.47zm-56.92 105.2c0.74,2.76 0.29,3.71 3.71,3.71 8.64,0 60.85,1.43 64.64,-0.94 2.56,-1.6 1.11,0.17 2.18,-2.77 -4.04,-1.94 -58.56,0 -70.53,0zm2.47 -25.99c1.78,4.91 3.55,3.8 14.84,3.72 6.6,-0.05 13.21,-0 19.81,-0.01 7.26,-0.01 12.33,0.35 17.7,0.94 5.6,0.61 11.57,-1.73 16.94,-2.18 -2.11,-7.89 -1.42,-1.15 -17.25,-2.53 -6.1,-0.53 -49.59,-2.94 -52.05,0.06zm3.71 -34.65c14.02,0 7.97,-1.99 14.13,-3.16 4.84,-0.92 3.89,1.92 9.38,1.92 20.33,0 33.7,-2.48 47.02,-2.48l0 -2.47c-5.12,0 -69.51,-1.14 -72.58,0.71 -3.59,2.17 -1.74,5.48 2.04,5.48zm-12.37 76.74c11.99,2.79 54.14,1.24 69.3,1.24 3.48,0 2.29,-0.54 3.71,-2.47 -2.56,-3.49 -0.92,-2.46 -7.3,-2.6l-31.06 0.12c-8.61,0.01 -24.31,-1.82 -28.41,-1.21 -4.96,0.74 -4.33,1.3 -6.24,4.92zm-1317.85 -184.41c7.42,0 22.59,-0.5 27.22,-3.71 -17.52,0 -93.24,0.9 -103.89,-0.27 -3.31,-0.36 -8.21,-2.99 -6.48,1.72 2.8,7.62 17.87,3.75 20.11,3.57 4.35,-0.36 9.13,0.22 13.48,-0.13 7.41,-0.6 15.26,-2.44 23.56,-2.48 9.18,-0.05 15.53,1.31 26,1.31zm-77.96 12.37c11.44,2.67 23.24,2.48 34.65,2.48l24.74 -1.33c5.58,0.11 5.92,1.3 9.96,1.24 5.63,-0.07 3.75,-1.89 9.85,-2.4l0 -2.47c-15.86,-3.7 -54.12,0.21 -69.35,-0.05 -6.48,-0.11 -7.18,-1.11 -9.85,2.53zm1403.23 79.21c7.62,3.66 27.01,1.4 29.58,1.48 10.12,0.33 20.35,2.7 33.58,-0.29 8.51,-1.93 10.38,3.66 11.09,-4.9 -4.6,-2.21 -26.63,1.13 -38.18,-0.18 -18.21,-2.07 -10.16,0.03 -19.51,-0.29l-4.57 -0.21c-2.02,-0.17 -4.3,-1.5 -8.47,0.48 -3.6,1.71 -0.99,-0.86 -3.52,3.91zm-14.85 105.2c5.71,2.74 6.11,0 12.37,0 23.63,0 43.05,1.24 66.82,1.24l0 -4.95c-6.4,-1.49 -60.51,-2.23 -73.15,-1.38 -5.87,0.39 -4.79,0.22 -6.04,5.09zm19.8 -116.34l21.04 -1.25c5.02,0 8.96,1.25 16.08,1.25 14.4,0 32.59,2.75 34.65,-4.95 -5.06,-2.84 -64.91,-1.24 -75.48,-1.24 0.09,3.97 -0.4,6.19 3.71,6.19zm-40.83 -82.92c4.66,6.95 5.54,4.95 23.51,4.95 5.99,0 8.44,-1.11 12.37,-1.11 3.93,0 6.38,1.11 12.37,1.11l49.5 -1.24c-0.53,-6.36 -2.59,-5.96 -21.04,-4.95 -11.89,0.64 -9.69,1.24 -25.98,1.24 -7.67,0 -18.42,-0.68 -25.65,0.35 -8.8,1.25 -14.28,-0.35 -25.08,-0.35zm4.95 214.11c7.81,0.65 35.86,0.5 41.89,-0.18 14.33,-1.61 28.2,1.42 45.96,1.42 4.06,0 4.64,-2.5 4.95,-6.19 -5.12,-2.87 -72.79,-1.24 -84.15,-1.24 -5.26,0 -7.54,2 -8.66,6.19zm-1267.11 9.9l0 -2.47c-7.95,-0.18 -9.3,-3.71 -14.85,-3.71l-90.33 0c-3.68,0 -7.44,4.93 -1.34,6.12l106.52 0.07zm-106.42 -29.7c2.61,9.78 10.58,2.48 17.32,2.48 7.61,0 18.15,-0.33 25.2,0.79 6.54,1.04 5.05,-0.56 8.22,4.16 -2.23,1.5 -2.18,2.48 -4.95,2.48l-33.41 0c-7.5,0 -1.64,-3.6 -8.54,1.41 -5.76,4.19 -7.75,3.55 -1.53,4.64 3.67,0.65 70.93,0.14 78.13,0.14l0 -2.47c-4.92,-0.41 -2.98,-1.24 -6.19,-1.24 -6.44,0 1.38,2.24 -5.72,0.61 -3.49,-0.8 -2.2,-1.5 -4.55,-2.01 -4.34,-0.93 -6.05,1.65 -9.53,-3.56 9.37,-6.27 12.37,2.89 12.37,-4.95 0,-7.34 -11.68,-4.1 -17.7,-4.57l-41.1 0.33c-3.81,0.31 -5.49,0.55 -8.02,1.77zm134.88 82.92c0.8,-3.01 3.53,-6.19 7.42,-6.19 4.05,0 12.39,9.9 -2.47,9.9 -3.31,0 -3.66,-1.79 -4.95,-3.72zm868.67 -6.19c0.4,-4.84 -0.75,-3.76 3.71,-4.95 1.93,4.19 1.68,4.39 -3.71,4.95zm-24.75 -4.95c3.68,2.69 3.68,2.25 0,4.95 -1.08,-2.34 -1.52,-2.62 0,-4.95zm-237.58 2.47c2.65,-3.61 0.79,-1.51 4.95,-3.71l5.22 4.68c-4.15,2.93 -5.98,5.3 -10.17,-0.96zm169.53 -13.61c6.71,-3.22 26.39,-1.26 35.89,-1.24 18.16,0.04 40.01,-7.09 47.02,2.47 -6,8.2 -31.15,1.4 -37.5,3.32 -3.7,1.12 -3.28,2.87 -8.28,2.87 -9.89,0 -28.75,1.63 -33.76,-2.13 -3.59,-2.7 -2.18,-3.04 -3.36,-5.3zm-267.28 1.24c4.69,-6.4 13.38,-1.28 24.41,-2.81 5.04,-0.7 50.98,-2.16 56.59,-1.37 5.53,0.77 7.47,-0.74 13.04,-0.85 6.77,-0.13 7.77,1.33 14.84,1.33 10.21,0 16.01,-1.81 25.99,-1.25 8.55,0.48 14.95,2.49 24.74,2.49 5.01,0 7.99,-1.87 11.38,-2.14 3.2,-0.25 8.49,1.46 11.19,1.84 14.68,2.07 71.36,-2.67 80.14,1.54 -0.88,3.3 -3.48,7.43 -7.42,7.43l-53.21 0c-8.14,0 -1.19,-3.6 -17.47,-3.21 -6.58,0.15 -10.08,3.21 -27.08,3.21 -11.16,0 1.41,-5.95 -25.91,-1.08 -12.96,2.31 -26.06,-1.4 -26.06,-1.4 -7.88,0 -12.53,2.48 -21.04,2.48 -1.89,0 -4.77,-1.83 -8.54,-2.69 -2.12,-0.48 -18.67,-0.56 -21.17,0.12 -14.99,4.06 -13.52,2.57 -32.16,2.57 -6.27,0 -6.83,-2.03 -11.75,-2.74 -4.5,-0.65 -7.05,1.3 -10.53,-3.45zm642.22 -1.24c5.28,-3.54 5.86,-3.54 11.14,0 -3.78,5.65 -7.57,4.87 -11.14,0zm-40.83 0c6.93,-4.65 8.71,-1.46 18.24,-2.83 7.64,-1.1 10.94,-2.24 15.17,4.07 -5.23,3.5 -18.27,2.78 -25.97,2.47 -4.8,-0.2 -5.43,-0.95 -7.44,-3.7zm-89.1 0c4.44,-2.13 3.68,-2.18 6.19,1.24 -4.44,2.13 -3.68,2.18 -6.19,-1.24zm-111.37 -2.48l87.86 0c2.77,0 2.72,0.98 4.95,2.48 -5.36,8 -26.76,3.89 -39.57,4.97 -5.86,0.49 -6.17,2.45 -12.4,2.45 -30.89,0 -15.54,-0.03 -42.04,-3.74 -5.71,-0.8 -1.72,0.57 -6.22,-2.45 1.84,-2.5 2.84,-3.71 7.43,-3.71zm-18.56 9.9c-11.91,0 -2.05,-1.68 -9.88,-2.14 -3.38,-0.2 -12.3,4.35 -14.87,-5.28 3.9,-2.61 3.75,-3.12 11.01,-2.47 12.9,1.16 22.8,-0.08 21.41,3.92 -0.63,1.8 -5.35,5.98 -7.68,5.98zm-490.02 -7.43c5.57,-3.13 6.65,-0.39 7.43,0l-2.66 3.56c-4.14,-1 -2.6,-0.32 -4.77,-3.56zm-450.42 -4.95c4.44,0 6.97,2.05 7.43,6.19 -4.45,2.5 -10.33,1.06 -14.85,0 0.95,-3.58 3.18,-6.19 7.42,-6.19zm309.35 3.71c7.84,-3.77 90.75,-3.25 103.05,-1.58 3.99,0.54 6.94,0.18 10.88,0.25 6.09,0.11 5.02,0.18 8.58,2.56 -4.02,5.49 -30.34,4.95 -39.6,4.95 -7.82,0 -15.76,0.15 -23.56,0.05 -6.56,-0.08 -44.57,-2.01 -50.96,-3.6 -2.69,-0.66 1.18,-0.66 -3.01,-0.42 -0.16,0.01 -0.53,0.14 -0.69,0.15 -3.07,0.28 1.3,1.08 -1.94,0.26 -2.24,-0.56 -1.73,-1.11 -2.74,-2.63zm-122.5 0c4.36,-2.45 14.48,-1.24 19.8,-1.24 4.73,0 0.45,-0.38 3.71,1.24 -3.52,5.25 -3.81,3.71 -18.56,3.71 -3.31,0 -3.66,-1.79 -4.95,-3.71zm-79.19 0c4.62,-2.22 10.07,-1.86 12.36,-1.93 11.86,-0.39 45.34,-1.85 53.22,1.93 -1.29,1.93 -1.64,3.71 -4.95,3.71l-55.68 0c-3.31,0 -3.66,-1.79 -4.95,-3.71zm-7.42 3.71c-10.34,0 -9.93,0.77 -18.56,-1.24 2.63,-9.85 23.51,-2.47 23.51,-2.47 -1.29,1.93 -1.64,3.71 -4.95,3.71zm-22.27 -3.71c-4.39,6.55 -7.89,2.84 -16.09,2.84 -3.01,0 -3.79,0.88 -8.66,0.88l-30.93 0c-2.78,0 -2.72,-0.98 -4.95,-2.47 2.66,-3.63 6.04,-3.74 12.31,-3.77 6.06,-0.03 11.12,-0.06 16.67,0.77 9.49,1.44 24.21,-1.81 31.65,1.76zm-97.76 3.71c-10.35,0 -7.61,-0.74 -13.61,-1.24 1.73,-6.48 14.39,-6.93 18.56,-1.24 -2.23,1.49 -2.18,2.47 -4.95,2.47zm1362.4 -13.61c4.7,-3.15 6.57,-3.06 13.89,-4.79 9.65,-2.28 6.11,2.31 15.81,2.31 4.3,0 1.74,-2.19 7.43,-3.71 6.54,9.77 -0.39,8.98 -1.62,15.52 -0.07,0.35 1.84,4.72 -5.81,6.76l-2.22 -2.72c1.5,-6.29 2.85,-1.02 3.46,-8.42l-22.27 0c-5.04,0 -6.66,-1.96 -8.66,-4.95zm-54.45 0c6.83,-4.58 7.08,-1.85 13.61,-1.87 8.33,-0.02 22.34,-3.57 27.22,3.1 -4.29,6.4 -12.43,3.71 -32.18,3.71 -5.04,0 -6.65,-1.96 -8.66,-4.95zm-108.89 0c5.13,-3.44 11.07,-4.41 14.85,1.24 -4.36,5.95 -10.88,4.7 -14.85,-1.24zm-71.77 -1.24c4.81,-7.19 27.58,-5.63 32.17,1.24 -6.55,4.39 -12.15,2.47 -27.22,2.47 -3.31,0 -3.66,-1.79 -4.95,-3.71zm-95.28 -1.24c6,-2.88 18.91,-1.46 27.4,-1.56 0.28,-0 0.62,0 0.9,0l16.24 -0.92c6.49,0 31.55,-0.57 36.34,0.78 4.35,1.23 4.1,0.7 4.49,5.41 -12.73,2.97 -39.26,0.6 -51.97,0.63l-28.46 0.61c-4.67,0 -4,-3.14 -4.95,-4.95zm-35.89 4.95c2.59,-9.71 14.86,-9.05 22.41,-7.57 5.01,0.99 4.79,0.37 6.05,5.09 -4.28,2.05 -8.95,1.88 -14.79,2.55 -8.2,0.95 -5.85,4.06 -13.67,-0.08zm-11.14 0c-9.77,0 -3.89,0.51 -7.43,-1.24 0.39,-4.69 1.07,-5.75 5.82,-6.65 3.63,-0.68 5.35,-0.36 6.56,4.17 -1.29,1.93 -1.64,3.71 -4.95,3.71zm242.53 -4.95c7.97,-3.83 42.66,-2.81 52.35,-1.61 8.4,1.04 6.13,-1.08 12,2.85 -2.78,10.41 -14.27,5.27 -22.56,4 -4.95,-0.76 -24.16,-0.21 -30.73,-0.2 -8,0.01 -7.71,-0.05 -11.05,-5.04zm-642.22 0c3.15,-1.51 3.71,-1.22 8.27,-1.65l57.31 0.41c7.91,0 9.42,-2.47 17.32,-2.47l179.44 1.24c11.35,0.06 18.78,-1.65 30.97,-1.29 8.69,0.26 20.96,2.34 29.63,2.55 17.98,0.44 28.71,2.44 47.27,0.11 7.72,-0.97 10.62,-0.94 12.15,4.81 -9.84,4.72 -26.54,3.71 -37.12,3.71 -8.39,0 -6.15,-7.57 -25.01,-1.5 -12.63,4.06 -47.18,0.94 -61.72,0.51 -3.78,-0.11 -5.39,0.99 -11.02,0.99 -21.72,0 -58.93,1.24 -78.84,-1.65 -11.19,-1.62 -8.77,1.65 -17.67,1.65 -9.03,0 -12,-2.47 -21.04,-2.47 -15.57,0 -48.48,-1.93 -61.76,1.45l-45.9 1.03 -18.63 -3.65c-3.84,-1.69 -0.86,1.49 -3.64,-3.78zm-97.76 -2.47c5.82,0 4.83,-1.92 9.39,-0.74 5.2,1.35 2.2,2.92 7.93,4.46 2.77,-1.86 4.35,-4.95 7.42,-4.95 23.36,0 30.15,-0.79 52.27,2.18 6.49,0.87 4.19,-1.24 7.13,2.77 -3.17,4.33 -11.26,3.77 -18.54,3.73 -7.73,-0.05 -15.65,-0.39 -22.81,0.7 -13.69,2.07 -30.02,0.77 -41.05,1.26 -12.81,0.56 -9.2,-1.58 -17.8,-2l-45.81 0.03c-9.22,0.02 -14.88,1.46 -19.8,-3.72 3.97,-5.93 6.62,-5.05 16.07,-4.97 7.36,0.06 15.04,-0.24 22.33,-0.02l43.27 1.28zm-94.04 -1.24c6.2,0 7.9,0.11 11.14,4.95 -16.46,11.03 -24.96,-4.95 -11.14,-4.95zm-25.99 7.42c-4.52,0 -5.06,-0.71 -6.19,-4.95 3.7,-2.08 8.38,-1.24 14.85,-1.24 4.73,0 0.45,-0.38 3.71,1.24 -1.24,2.33 0.88,4.95 -12.37,4.95zm-94.04 -4.95c8.04,-3.86 73.87,-3.74 81.67,0 -0.75,2.8 -1.19,4.95 -4.95,4.95 -11.17,0 -62.29,0.72 -69.74,-0.79 -5.56,-1.13 -4.35,-0.23 -6.98,-4.15zm-356.38 -28.47c3.9,2.86 3.9,3.33 0,6.19 -3.72,-2.73 -4.04,-3.38 0,-6.19zm1911.81 -70.54c3.55,-5.31 8.82,-5.31 12.37,0 -1.72,2.34 -7.48,7.31 -12.37,0zm-134.88 -4.95c1.87,-2.7 -0.68,-2.47 7.43,-2.47 3.48,0 2.29,0.53 3.71,2.47 -1.88,2.7 0.68,2.48 -7.43,2.48 -3.48,0 -2.29,-0.54 -3.71,-2.48zm-44.54 0c2.23,-1.49 2.17,-2.47 4.95,-2.47l29.7 0c4.73,0 0.45,-0.38 3.71,1.24 -1.73,6.49 -3.67,3.5 -17.79,4.41 -7.13,0.46 0.23,-0.69 -5.71,-0.69 -6.83,0 -10.78,3.09 -14.85,-2.48zm-2174.14 -2.47l3.45 -3.98 4.24 3.72c-1.42,4.59 -0.73,3.04 -3.98,5.22 -4.92,-3.3 -1.78,-1.27 -3.71,-4.95zm2301.6 -3.71c3.84,-2.16 10.75,-2.34 16.08,1.24 -3.72,5.56 -4.62,4.04 -11.45,2.23 -4.13,-1.1 -2.26,-0.38 -4.64,-3.47zm51.97 2.48c-2.13,-4.43 -0.59,-9.3 -0.08,-14.95 0.75,-8.32 2.76,-8.62 13.63,-2.32 2.7,1.57 2.41,2 4.84,3.82 2.94,2.21 10.07,4.49 10.07,8.49 0,6.01 -6.38,5.01 -12.38,4.95 -6.61,-0.07 -11.4,2.25 -16.08,0zm-247.48 -1.24c-10.34,0 -9.93,0.77 -18.56,-1.24l0 -4.95c11.85,-0.99 6.25,-1.24 22.28,-1.24 4.73,0 0.45,-0.38 3.71,1.24 -0.41,4.93 -2.36,6.19 -7.42,6.19zm63.11 -6.19c4.24,-2.38 11.17,-1.24 16.09,-1.24 2.77,0 2.72,0.98 4.95,2.48 -3.34,5 -2.95,3.71 -16.08,3.71 -4.67,0 -4,-3.14 -4.95,-4.95zm-30.93 6.19c-5.17,0 -15.35,-0.93 -18.56,-2.48 1.96,-7.33 6.54,-4.36 15.38,-5.69 6.31,-0.95 13.84,-0.03 18.03,1.97 -1.37,5.13 -4.66,6.19 -14.85,6.19zm160.86 -1.24c-4.82,2.71 -41.65,1.68 -49.54,-0.04 -9.41,-2.05 -10.35,2.61 -22.23,-3.68 4.22,-6.3 11.88,-4.38 23.53,-3.81l43.11 1.52c3.78,0.75 4.74,1.32 5.13,6zm-97.76 -6.19c-1.33,5 -1.66,4.65 -6.19,2.48 2.38,-3.55 2.03,-4.4 6.19,-2.48zm-1979.86 -4.95c5.02,0 6.41,1.15 7.42,4.95 -3.02,1.7 -2.29,1.24 -7.42,1.24 -4.73,0 -0.45,0.38 -3.71,-1.24 0.56,-2.11 1.44,-4.95 3.71,-4.95zm1868.5 2.48c-19.17,0 -22.82,2.25 -24.75,-4.95 5.61,-2.69 30.79,-1.78 38.71,-3.36 21.37,-4.27 17.09,-2.75 39.29,-2.78 7.96,-0.01 11.07,-1.35 19.74,-1.3 39.11,0.22 47.44,-6.09 85.02,0.4 19.24,3.32 27.85,-2.6 48.44,3.53 7.88,2.35 16.49,-1.3 18.76,7.23 -8.11,4.56 -32.47,-2.56 -42.04,-2.5 -10.92,0.06 -19.91,-1.21 -32.2,-1.21l-65.58 0 -53.79 3.15c-7.12,1.22 -24.69,1.8 -31.6,1.8zm-1864.79 -12.38c2.76,-3.97 4.66,-3.77 7.43,0 -2.76,3.97 -4.66,3.77 -7.43,0zm-107.65 0c4.14,-6.18 11.66,-4.36 14.85,0 -3.19,4.36 -10.71,6.18 -14.85,0zm-43.31 0c3.78,-5.16 17.25,-5.16 21.04,0 -3.78,5.16 -17.26,5.16 -21.04,0zm2231.06 -1.24c5.37,-3.6 4.52,-3.6 9.9,0 -0.98,3.66 -0.5,2.01 -2.47,4.95 -4.86,-1.13 -5.02,-1.36 -7.42,-4.95zm-225.21 4.95c-12.43,0 -59.89,0.68 -69.83,-0.7 -6.96,-0.97 -10.03,1.15 -13.08,-3.01 3.06,-4.18 24.75,-3.71 32.17,-3.71l56.92 0c2.77,0 2.72,0.98 4.95,2.47 -2.44,3.65 -5.09,4.95 -11.14,4.95zm-1779.41 -4.95c1.38,-0.92 4.16,-3.71 4.95,-3.71 21.69,0 6.08,20.18 -4.95,3.71zm-163.34 0c1.45,-2.09 0.18,-2.47 3.71,-2.47l28.46 0c9.71,0 14.07,1.24 23.51,1.24 -0.48,5.73 -2.97,6.19 -19.8,6.19 -21.46,0 -34.07,2.69 -35.95,-3.85 -0.06,-0.19 0.26,-0.74 0.06,-1.1zm142.3 -2.47c2.86,-3.91 4.48,-2.48 11.14,-2.48 -1.82,6.81 -6.66,4.85 -11.14,2.48zm0 0c-0.98,3.66 -0.5,2 -2.47,4.95 -5.12,-0.43 -6.37,-2.77 -8.66,-6.19 5.29,-2.54 6.92,-0.99 11.14,1.24zm1783.11 -2.48c-3.42,0 -2.97,-0.95 -3.71,-3.71 2.71,-3.9 3.17,-3.68 8.66,0 -1.29,1.93 -1.64,3.71 -4.95,3.71zm-1880.87 -9.9c7.79,0 14.79,2.06 22.77,3.22 9.94,1.44 18.41,-2.09 23.02,4.21 -4.42,2.96 -2.64,2.4 -9.87,2.51 -6.54,0.1 -6.86,0.91 -12.43,1.24 -9.67,0.57 -14.85,-2.51 -23.49,-2.51 -6.59,0 1.55,2.01 -5.52,0.5 -3.67,-0.79 -3.07,-1.26 -5.62,-2.97 2.28,-3.4 0.62,-2.05 4.7,-3.97 0.82,-0.39 5.23,-2.22 6.44,-2.22zm-136.12 11.14c-6.2,0 -9.8,-1.12 -12.37,-4.95 4.19,-2.81 2.01,-1.92 8.51,-2.63 4.56,-0.5 21.07,-1.68 24.91,0.16 -1.41,5.26 -2.11,4.53 -8.07,5.54 -3.98,0.68 -9.5,1.88 -12.97,1.88zm-85.38 -6.19c2.64,-4.99 10,-9.19 15.07,-12.16 4.06,-2.38 5.61,-1.91 10.03,-3.58 4.16,-1.58 4.99,-3 9.55,-4.06 9.99,14.92 8.66,20.78 8.66,42.08 0,8.99 -10.26,2.84 -10.26,2.84 -10.43,-3.54 -4.45,-0.86 -10.42,-5.67 -1.03,-0.83 -4.15,-2.58 -5.31,-3.36 3.88,-5.79 2.01,-3.45 7.19,-1.18 3.03,1.33 8.02,2.14 11.38,2.42 -2.14,-8.03 -12.86,-6.48 -18.11,-9.17 -4.2,-2.15 0.83,-0.72 -3.93,-2.07 -5.37,-1.53 -8.3,2.21 -13.85,-6.08zm153.44 -6.19c12.8,0 50.15,-2.6 55.68,4.95 -4.88,6.66 -18.92,3.24 -27.29,2.54 -11.58,-0.97 -27.86,2.05 -53.21,0 -5.89,-0.48 -19.76,2.06 -15.98,-3.48 2.81,-4.11 33.03,-4.01 40.79,-4.01zm2186.51 4.95c-3.84,2.16 -10.75,2.34 -16.08,-1.24 3.44,-4.69 14.25,-5.64 16.08,1.24zm-1929.13 3.71c-4.78,0 -1.97,-0.73 -7.22,-0.77 -5.12,-0.04 -0.64,2.14 -6.39,-1.71 5.71,-8.53 14.45,-5.35 17.42,-5.22 6.02,0.26 1.31,-0.97 7.33,-0.97 7.02,0 10.13,1.71 15.87,1.09 6.59,-0.72 9.56,-3.19 13.83,2.62 -7.22,4.84 -22.07,2.26 -30.67,2.87 -2.73,0.19 -6.76,2.08 -10.17,2.08zm-348.95 -4.95c-0.59,7.13 -2.06,15.57 -8.66,17.33 -2.15,-3.21 -1.35,-1.19 -2.42,-5.01 -1.93,-6.91 -1.41,-12.6 0.21,-19.48 1.15,-4.91 2.09,-6.31 8.39,-6.45 0.67,8 3.99,2.92 8.66,9.9 -2.16,3.23 -1.26,3.29 -6.19,3.71zm2166.72 -1.24c-5.35,0 -4.99,-2.48 -8.66,-2.48 -4.1,0 -2.58,2.48 -4.95,2.48 -10.27,0 0.55,-0.96 -16.06,-0.01 -7.35,0.42 -12.64,0.57 -18.7,1.13 -12.66,1.15 -15.27,3.84 -34.53,3.84 3.11,4.25 12.17,2.71 21.9,2.23 9.71,-0.48 12.25,-0.06 20.51,-3.13 6.27,-2.34 15.78,-1.4 23.75,-2.31 4.61,-0.53 28.08,0.89 36.59,0.79 6.67,-0.08 7.29,-1.14 13.52,-1.33 14.07,-0.42 29.07,0.26 40.83,3.79 4.04,1.21 8.16,0.95 13.64,1.21 5.65,0.26 6.74,1.31 13.6,1.25 8.56,-0.08 8.26,-1.15 13.63,2.45 -3.84,5.74 -6.22,3.71 -23.51,3.71 -14.9,0 -25.98,-3.71 -42.07,-3.71 -22.86,0 -65.25,-1.06 -85.8,0.9 -4.41,0.42 -4.84,-0.68 -8.5,0.21 -16.14,3.89 -22.05,2.6 -40.58,2.6 -6.47,0 -3.14,-6.14 -3.71,-7.43 -19.98,0 -10.04,-6.53 -5.35,-7.8 6.22,-1.68 18.76,-0.13 25.18,-2.06 20.67,-6.21 42.89,-2.59 63.99,-5.31 10.95,-1.41 10.89,-2.12 22.52,-2.19 9.63,-0.06 33.54,-0.7 40.19,0.73 3.67,0.79 7.47,1.64 11.03,2.64 6.93,1.94 22.35,-1.5 19.37,5.33 -1.62,4.02 1.36,1.52 -3.68,2.51 -11.1,2.18 -41.46,-3.74 -44.58,-3.74l-9.9 0c-5.89,0 -7.05,2.24 -11,2.07 -3.59,-0.15 -7.29,-3.31 -10.04,-3.31 -3.38,0 -6.96,4.95 -8.66,4.95zm-215.31 -8.66c7.16,-1.67 14.18,-3.6 12.37,4.95 9.47,0.21 9.72,2.36 12.06,4.03 4.81,3.45 -0.08,1.09 6.43,2.24 5.91,1.04 1.37,-0.88 6.27,2.4 -5.06,7.55 -3.65,2.01 -21.9,-0.38 -13.04,-1.7 -14.67,-1.73 -10.27,-8.29 -6.1,-1.63 -3.05,-1.34 -4.95,-4.95zm139.83 0c-2.6,3.55 -0.28,3.4 -4.95,1.24 2.6,-3.54 0.28,-3.4 4.95,-1.24zm-24.75 0c6.05,-2.91 11.97,-4.38 16.08,1.24 -5.4,2.86 -11.85,4.54 -16.08,-1.24zm-2014.51 -2.47c14.88,0 18.35,-1.81 24.75,2.47 -4.13,6.18 -6.78,3.12 -16.06,3.83 -7.43,0.57 -9.84,1.62 -16.11,-2.59 1.83,-2.51 2.84,-3.71 7.42,-3.71zm34.65 -1.24c3.29,-4.49 -0.58,-1.34 15.23,-3.42 10.05,-1.33 38.19,4.66 50.36,4.66l36.38 -0.59c17.49,4.91 20.79,4.92 44.12,5.47 8.45,0.2 9.67,3.41 18.47,3.81 14.13,0.64 30.24,0.02 44.58,-0.03 8.23,-0.03 13.51,0.53 20.85,1.42 6.27,0.76 13.27,2.77 16.27,7.25 -7.04,4.71 -13.82,1.09 -28.8,-0.93 -10.21,-1.38 -12.22,2.77 -32.17,0.03 -10.94,-1.5 -21.47,-0.29 -32.58,-2.07 -11.51,-1.84 -17.85,-3.29 -31.43,-3.22 -20.41,0.09 -26.44,-5 -64.35,-4.95 -12.63,0.02 -20.61,-1.2 -33.43,-1.25 -4.77,-0.02 -21.2,3.15 -23.54,-5.09 -0.06,-0.2 0.24,-0.72 0.05,-1.08zm-60.63 -3.71c3.76,0 4.2,2.15 4.95,4.95 -3.02,1.7 -2.29,1.24 -7.43,1.24 -4.73,0 -0.45,0.38 -3.71,-1.24 0.87,-3.25 2.39,-4.95 6.19,-4.95zm296.98 1.24c5.37,-3.59 7.01,-3.59 12.37,0 -3.72,5.09 -8.65,5.09 -12.37,0zm1832.61 -6.19c16.46,0 65.21,3.51 18.5,7.36 -13.67,1.13 -32.44,-1.84 -44.5,2.53 -7.2,2.61 -41.61,7.63 -35.74,-0.94 3.72,-5.44 20.65,-4.29 29.26,-5.54 13.15,-1.91 13.78,-3.41 32.48,-3.41zm-2123.4 1.24c3.38,-2.26 2.46,-2.33 6.38,-1.59 17.99,3.4 22.83,-1.66 27.02,4.06 -2.64,3.61 -8.19,3.71 -17.32,3.71 -14.47,0 -12.27,1.07 -16.08,-6.19zm51.97 -1.24c3.46,-4.73 15.25,-2.48 21.04,-2.48 8.75,0 20.16,-1.82 22.39,1.09 4.72,6.17 -19.13,3.81 -28.58,3.86 -14.34,0.08 -12.01,1.39 -14.84,-2.48zm-90.33 1.24c1.15,-4.32 0.47,-2.78 3.71,-4.95 6.16,4.13 3.16,8.25 -3.71,4.95zm50.74 -9.9c12.95,0 10.03,-0.72 12.37,2.47 -1.26,4.71 -0.16,3.71 -13.61,3.71 -4.73,0 -0.45,0.38 -3.71,-1.24 0.75,-2.8 1.19,-4.95 4.95,-4.95zm-40.83 3.71c3.5,-5.24 7.63,-5.24 11.14,0 -3.09,4.22 -8.05,4.22 -11.14,0zm386.07 2.47c-4.73,0 -0.45,0.38 -3.71,-1.24 1.79,-6.71 5.34,-5.77 8.66,-1.24 -2.23,1.5 -2.18,2.47 -4.95,2.47zm4.95 -4.95c0.4,-4.84 -0.75,-3.76 3.71,-4.95 1.94,4.19 1.68,4.39 -3.71,4.95zm-266.05 -2.48c4.01,-5.47 14.15,-5.96 14.85,2.48 -2.84,1.6 -10.93,3.38 -14.85,-2.48zm-18.56 3.71l-40.83 0c-3.48,0 -2.29,-0.53 -3.71,-2.47 1.45,-5.42 0.7,-3.21 7.11,-4.03 9.88,-1.27 42.62,-1.31 48.58,1.56 -2.44,3.65 -5.09,4.95 -11.14,4.95zm298.22 -17.33c0,-0.01 2.89,-1.47 2.99,-1.46 1.08,0.05 1.84,-4.16 1.35,1.51 -0.46,5.38 -4.55,1.13 -4.34,-0.04zm6.19 -1.24l-2.65 -3.56c1.16,-3.81 0.68,-2.16 2.65,-5.1 4.07,1.08 4.08,1.8 6.19,4.95 -3.59,2.4 -1.66,2.5 -6.19,3.71zm-8.66 -9.9c-3.2,-2.14 -6.29,-4.4 -7.43,-8.66 11.05,-7.4 4.2,4.66 9.07,-9.53 0.79,-2.31 0.96,-3.61 4.67,-3.83 7.49,-0.47 6.27,5.26 4.37,9.2 -2.63,5.48 -5.67,9.47 -10.68,12.83zm0 -35.89c7.28,1.7 8.79,-0.4 12.37,4.95 -3.84,5.74 -10.88,4.72 -16.08,1.24 1.21,-4.53 1.31,-2.59 3.71,-6.19zm34.65 -24.75c23.28,0 165.25,-1.63 178.88,1.88 11.7,3.02 -1.41,-0.35 24.1,-0.6 10.03,-0.1 22.28,-3.11 38.24,1.26 5.57,1.52 7.23,0.5 8.73,6.12 -7.56,3.63 -23.17,-0.03 -32.16,-0.04l-49.44 1.22c-4.73,-0.39 -5.26,-1.36 -11.22,-1.23 -14.57,0.32 -58.87,0.06 -68.22,-0.99 -14.63,-1.64 -33.06,0.99 -48.01,-0.25 -7.63,-0.63 -14.14,-1.17 -23.57,-1.17 -11.91,0 -16.12,1.64 -22.27,-2.47 1.29,-1.93 1.64,-3.71 4.95,-3.71zm937.96 -7.43c22.1,-5.15 13.14,-1.47 29.66,-1.18l61.68 -0.19c9.71,-0.99 9.5,-0.37 18.78,0.14 14.1,0.77 26.02,-1.24 40.84,-1.24 18.34,0 33.06,1.81 50.78,1.28 13.72,-0.41 15.35,-3.37 35.36,0.08 0.23,0.04 0.57,0.1 0.8,0.12l3.58 -0.07c5.63,0.5 1.76,-1.79 4.76,2.3 -3.68,5.03 -2,1.31 -9.26,2.24 -0.74,0.09 -2.11,0.53 -2.63,0.64 -10.33,2.22 -37.48,0.2 -47.51,0.22l-90.33 0.61c-4.88,0 -5.65,-0.88 -8.66,-0.88 -3.01,0 -3.79,0.88 -8.66,0.88 -9.8,0 -72.64,1.48 -76.75,-1.21 -4.12,-2.69 -0.94,-0.87 -2.45,-3.74zm-298.22 -1.24l22.28 0.88c5.65,0 22.76,-2.11 38.36,-2.11 22.22,0 40.39,1.13 61.89,1.25 14.25,0.08 9.57,-1.87 28.4,-1.27 22.45,0.72 12.32,-0.35 19.94,-0.75 3.22,-0.17 2.49,0.77 7.32,0.77l35.89 0c1.93,0 7.96,-4.89 9.9,-6.19 7.64,5.93 5.47,7.81 28.87,6.46 8.09,-0.47 11.28,0.37 17.15,0.82 8.74,0.67 9.66,-4.79 14.62,2.62 -1.29,1.93 -1.64,3.71 -4.95,3.71l-240.06 0.01c-7.86,0.04 -11.17,-0.92 -17.31,-1.25 -12.09,-0.65 -24.76,2.33 -32.18,-1.23 2.2,-3.01 4.44,-3.71 9.9,-3.71zm-149.73 2.47c10.34,-5.13 79.62,-2.47 101.47,-2.47 11.12,0 26.74,-2.02 30.93,3.71 -4.06,1.95 -28.83,1.96 -30.02,1.84 -16.71,-1.7 -19.21,0.64 -34.33,0.64 -5.66,0 -5.61,-1.12 -9.78,-0.99 -3.14,0.09 -4.78,0.99 -10.01,0.99l-40.83 0c-4.58,0 -5.59,-1.21 -7.42,-3.71zm-266.04 0c4.61,-6.88 8.62,-3.71 16.08,-3.71 12.52,0 14.74,1.04 24.47,-1.47 8.82,-2.27 4.61,2.71 25.03,2.71 11.13,0 19.46,-0.78 30.76,-1.42 11.66,-0.67 16.77,1.49 28.63,1.43 22.13,-0.11 40.49,-1.24 63.12,-1.24 13.42,0 26.63,2.64 37.26,1.46 11.38,-1.26 29.74,-1.96 38.22,2.25 -4.53,6.18 -18.29,3.71 -33.41,3.71 -5.22,0 -6.88,-0.9 -10.01,-0.99 -3.78,-0.11 -5.39,0.99 -11.02,0.99l-118.81 0.02c-10.29,0.06 -17.47,-2.38 -28.11,-0.92 -3.99,0.55 -7.87,1.33 -13.92,0.8 -17.67,-1.53 -42.64,4.11 -48.29,-3.61zm1039.43 1.24c1.1,-4.11 2.19,-4.61 7.38,-4.99l84.24 -0.01c5.69,0.08 7.15,1.15 11.09,1.15l22.46 -1.49c1.49,-0.02 7.11,0.74 10.9,0.38 2.57,-0.24 13.76,-4.23 20.73,-3 4.15,0.73 2.73,2.33 9.11,2.9 7.6,0.68 6.09,-1.75 9.81,3.8 -5.93,3.97 -9.01,2.51 -19.8,2.47 -9.29,-0.03 -14.53,1.2 -22.22,1.29l-43.32 -0.01c-18.61,0.56 -30.76,-1.16 -44.54,-1.33 -10.79,-0.13 -38.65,2.26 -45.83,-1.19zm-1066.65 -3.71c4.99,-7.45 16.44,-4.39 21.03,2.47 -6.97,4.67 -6.4,4.74 -15.19,1.74 -4.75,-1.62 -3.42,-0.6 -5.84,-4.21zm-22.28 0c-5.28,3.53 -5.86,3.53 -11.14,0 2.27,-8.51 8.05,-4.62 11.14,0zm-42.07 -1.24c3.43,-5.13 3.35,-3.72 17.32,-3.72 2.97,0 3.64,2.01 6.19,3.72l-3.92 4.76c-5.69,0.11 -16.25,-0.2 -19.59,-4.76zm-9.9 1.24c-9.75,4.68 -62.58,2.44 -80.43,2.48 -8.82,0.02 -19.69,0.5 -25.98,-3.71 4.2,-5.74 13.03,-5.94 22.99,-4.43 10.61,1.61 57.74,0.44 73.61,0.63 6.24,0.08 8.51,0.15 9.82,5.03zm-157.15 -21.04c-8.51,17.73 -11.26,30.13 -11.17,51.95 0.04,10.32 0,20.65 0.03,30.97 0.06,19.79 -3.32,21.34 -19.26,27.76 -10.07,4.06 -28.35,8.21 -40.12,8.15 -10.32,-0.06 -20.67,-0.08 -30.99,-0.06 -6.86,0.01 -9.29,1.54 -14.7,1.26l-27.33 -1.22c-2.85,0 -3.71,0.86 -3.71,3.71 0,7.21 15.34,1.62 22.28,4.95 -2.08,7.79 -11.39,4.73 -17.31,4.38 -28.89,-1.71 -5.86,-18.07 -23.42,-18.1 -10.88,-0.02 -22.01,-2.78 -30.32,-6.8 -40.53,-14.3 -80.04,-16.6 -121.99,-16.6 -47.07,0 -67.37,6.57 -112.65,23.47 -9.38,0.9 -5.3,2.42 -11.7,4.39 -10.06,3.1 -13.14,4.86 -22.27,9.9 -13.4,7.42 -10.3,5.85 -13.56,18.61 -2.93,11.47 -9.15,6.28 -3.3,19.25 2.4,5.32 2.11,4.19 6.85,6.77l4.52 2.91c2.35,1.52 4.27,2.85 6.78,4.36 3.99,2.39 7.77,5.12 11.22,8.58 31.12,31.18 95.04,42.42 139.22,48.75 3.52,0.5 8.09,0.79 13.37,0.89 31.48,0.61 88.35,-5.29 100.55,-10.27 8.59,-3.5 48.55,-6.9 50.66,-7.51 8.4,-2.43 16.17,-0.15 25.82,-0.15 7.64,0 24.85,-3.2 30.08,-1.63 4.78,1.44 5.61,2.87 11.99,2.87 11.32,0 16.98,-6.1 27.73,-1.78 6.44,2.59 7.81,1.6 15.65,1.71 9.39,0.13 6.07,2.09 13.26,4.06 1.6,0.44 4.81,0.82 7.01,1.65l12.04 5.29c6.76,3.46 16.89,8.45 17.73,16.95 0.48,4.81 1.13,1.09 -1.84,5.53 -4.01,-1.07 -4.92,-2.92 -7.74,-5.87 -4.79,-5.01 -8.96,-10.13 -13.78,-3.28 -5.85,8.33 -1.13,10.07 -0.72,19.02 0.49,10.86 0.72,20.53 3.72,29.69 1.77,5.42 0.77,8.1 3.15,14.18 3.49,8.89 -1.32,19.48 7.39,26.03 4.93,3.7 4.58,5.76 7.7,8.38 4.26,3.58 38.12,4.68 46.09,4.64 7.26,-0.03 9.22,1.08 14.86,1.32l47.88 -2.87c34.6,-4.48 11.61,1.58 38.7,1.58 21.3,0 34.89,-5.39 55.62,-3.65 19.2,1.61 33.41,-0.52 39.56,-0.05 51.99,4 98.92,-0.02 149.83,-0.02 3.04,0 4.77,0.7 6.35,0.74 4.06,0.1 0.88,-0.74 6.02,-0.74 5.69,0 -0.6,0.67 3.71,0.63 28.07,-0.3 141.97,-0.7 161.6,2.38 13.85,2.18 17.6,-4.26 28.58,-2.72 9.4,1.32 52.13,-0.29 65.97,-0.29 4.88,0 5.65,0.88 8.66,0.88 3.01,0 3.78,-0.88 8.66,-0.88 89.03,0 169.4,-0.45 259.86,-1.24 79.81,-0.29 159.43,2.49 240.02,2.53 11.06,0.07 18.88,-1.29 30.97,-1.29 8.72,0 16.4,0.84 23.33,0.86 8.71,0.02 13.96,1.62 23.69,1.62 66.62,0 131.89,2.21 197.99,2.47 4.88,0 5.65,-0.88 8.66,-0.88 5.17,0 12.88,0.96 18.56,-0.36 1.75,-7.53 5.21,-14.39 5.98,-21.25 0.79,-7.06 3.56,-14.7 6.7,-20.53 3.37,-6.27 1.46,-3.52 2.33,-11.28 1.2,-10.76 10.32,-10.62 7.34,-34.88 -0.65,-5.24 0.59,-7.15 2.83,-10.43 4.01,-5.88 8.61,-7.28 15.12,-9.86 10.14,-4.04 8.13,-11.15 27.23,-14.84 8.93,-1.72 14.27,-4.07 24.57,-2.46 8.6,1.35 17.92,-0.08 26.78,0.46 8.74,0.54 37.86,5.94 47.71,7.98 4.57,0.95 5.99,2.93 9.7,3.91 5.51,1.45 6.71,0.05 12.56,2.29 43.9,16.85 150.19,28.43 194.44,11.56 4.36,-1.66 4.32,-3.21 8.67,-4.94 8.4,-3.34 23.57,-6.74 30.26,-10.58 8.64,-4.95 18.69,-5.34 26.88,-10.25 1.35,-0.8 0.47,-0.31 2.42,-1.3 9.6,-4.87 17.6,-10.11 28.37,-12.46 13.37,-2.93 22.94,-12.01 16.95,-21.62 -0.84,-1.35 -22.34,-16.67 -25.9,-18.44 -1.24,-0.62 -1.31,-0.59 -2.49,-1.23 -6.81,-3.71 -16.89,-8.41 -22.59,-13.29 -6.85,-5.86 -0.7,-2.8 -10.06,-4.79 -6.83,-1.45 -13.87,-8.6 -20.71,-11.47 -2.93,-1.23 -2.61,-0.57 -5.39,-2.04 -54.16,-28.51 -121.37,-32.32 -180.78,-22.2 -5.7,0.26 -7.5,1.45 -12.01,2.84 -8.29,2.55 -17.52,1.25 -25.14,3.32 -7.62,2.07 -16.88,2.38 -24.4,4.06 -22.01,4.88 -57.42,5.16 -79.56,3.5 -5.07,-0.38 -8.19,0.62 -12.69,-0.92l-11.03 -3.82c-8.7,-2.47 -14.13,-9.36 -20.4,-14.26 -4.19,-3.27 -6.06,-0.58 -10.02,-4.83 -4.43,-4.77 -4.52,-8.77 -5.38,-15.66 -0.57,-4.53 -2.61,-7.82 -3.24,-11.61 -1.14,-6.93 -0.2,-16.07 -3.16,-21.6 -2.08,-3.89 -2.07,-8.47 -3.77,-13.56 -1.52,-4.55 -1.99,-6.69 -2.78,-12.06 -1.28,-8.71 0.34,-16.11 -6.21,-23.5 -0.17,-0.19 -0.41,-0.46 -0.61,-0.63 -4.44,-3.9 -17.06,-5.11 -23.36,-5.11 -6.54,0 -4.22,1.95 -24.75,1.95 -60.29,0 -101.14,-3.12 -165.82,3 -6.63,0 -10.36,-0.22 -15.2,-0.91 -0.58,-0.08 -107.5,-0.26 -116.14,0.73 -18.21,2.09 -36.23,-3.37 -54.98,-0.53 -15.36,2.33 -184.57,0.71 -189.85,0.71 -7.12,0 -11.07,1.25 -16.09,1.25l-28.46 -1.25c-7.01,0 -14.03,0.03 -21.04,-0.01 -14.52,-0.08 -26.57,2.35 -40.79,1.15 -5.17,-0.44 -2.78,-0.83 -8.17,-0.62 -5.59,0.22 -3.57,-0.53 -9.18,-0.53l-56.92 0c-7.85,0 -14.85,1.73 -20.82,1.11 -38.27,-4 -28.19,-1.34 -69.54,-1.07 -8.26,0.06 -10.93,-3.02 -19.01,-1.89 -26.2,3.66 -53.68,0.27 -79.92,1.99l-19.83 -0.13c-18.02,0 -52.58,0.72 -84.01,0.6 -73.71,-0.27 -152.13,-3.86 -225.29,-5.6 -29.02,-0.69 -99.14,2.18 -119.9,-0.13 -19.31,-2.16 -41.53,-3.53 -62.05,-3.53 -13.49,0 -21.01,3.71 -33.41,3.71z"/>
  </g>
 </g>
</svg>
