<?xml version="1.0" encoding="utf-8"?>
<!-- Generator: Adobe Illustrator 22.1.0, SVG Export Plug-In . SVG Version: 6.00 Build 0)  -->
<svg version="1.1" id="Layer_1" xmlns:xodm="http://www.corel.com/coreldraw/odm/2003"
	 xmlns="http://www.w3.org/2000/svg" xmlns:xlink="http://www.w3.org/1999/xlink" x="0px" y="0px" viewBox="0 0 282.5 46.2"
	 style="enable-background:new 0 0 282.5 46.2;" xml:space="preserve">
<style type="text/css">
	.st0{fill:#C3161C;}
	.st1{fill:#58595B;}
</style>
<g>
	<path class="st0" d="M126.4,32.5v-19h20.5v4.6h-14.6v2.7h14v4.6h-14v2.6h14.6v4.6H126.4z M103.7,18.4v3.9h9.4
		c0.6,0,1.1-0.1,1.4-0.4c0.3-0.3,0.4-0.8,0.4-1.5c0-0.7-0.1-1.2-0.4-1.5c-0.3-0.3-0.7-0.4-1.4-0.4H103.7z M97.8,13.5h17
		c2.1,0,3.6,0.4,4.4,1.1c0.9,0.8,1.4,2.3,1.4,4.4c0,1.6-0.2,2.8-0.6,3.6c-0.4,0.8-1.1,1.4-2,1.8c1.1,0.5,1.8,0.9,2.1,1.4
		c0.3,0.5,0.5,1.3,0.5,2.5v4.3h-5.9v-3.4c0-0.5-0.1-0.9-0.4-1.3c-0.3-0.4-0.8-0.7-1.5-0.7h-9.3v5.3h-5.9V13.5z"/>
	<path class="st1" d="M259.8,18.4v-4.9h22.6v4.9h-8.4v14.1h-5.9V18.4H259.8z M239,18.4v3.9h9.4c0.6,0,1.1-0.1,1.4-0.4
		c0.3-0.3,0.4-0.8,0.4-1.5c0-0.7-0.1-1.2-0.4-1.5c-0.3-0.3-0.7-0.4-1.4-0.4H239z M233.2,13.5h17c2.1,0,3.6,0.4,4.4,1.1
		c0.9,0.8,1.4,2.3,1.4,4.4c0,1.6-0.2,2.8-0.6,3.6c-0.4,0.8-1.1,1.4-2,1.8c1.1,0.5,1.8,0.9,2.1,1.4c0.3,0.5,0.5,1.3,0.5,2.5v4.3h-5.9
		v-3.4c0-0.5-0.1-0.9-0.4-1.3c-0.3-0.4-0.8-0.7-1.5-0.7H239v5.3h-5.9V13.5z M215,17.8h-0.9l-3.2,6.6h7.2L215,17.8z M209.5,13.6h10.1
		l9.4,19h-6.8l-1.8-3.2h-11.6l-1.8,3.2h-6.8L209.5,13.6z M178.5,18.4v-4.9h22.6v4.9h-8.4v14.1h-5.9V18.4H178.5z M163.2,28.3
		c2.8,0,4.5,0,4.9-0.1c0.4-0.1,0.7-0.4,0.7-1c0-0.7-0.3-1.2-0.9-1.4c-0.6-0.2-2.2-0.3-4.6-0.3c-4.9,0-8-0.4-9.2-1.1
		c-1.3-0.7-1.9-2.5-1.9-5.3c0-2.6,0.8-4.2,2.5-5c1.3-0.5,4.1-0.8,8.5-0.8c3.9,0,6.4,0.1,7.4,0.3c2.5,0.5,3.7,2.6,3.7,6.3h-5.9
		c0-1-0.2-1.6-0.7-1.8c-0.4-0.2-2-0.3-4.6-0.3c-2.6,0-4.2,0-4.6,0.1c-0.4,0.1-0.6,0.5-0.6,1.1c0,0.7,0.3,1.1,1,1.3
		c0.7,0.2,2.1,0.3,4.3,0.3c4.8,0,7.9,0.4,9.3,1.1c1.4,0.8,2.1,2.5,2.1,5.3c0,2.5-0.8,4.2-2.3,4.9c-1.3,0.6-4.4,0.9-9.1,0.9
		c-3.6,0-6-0.1-7.1-0.2c-1.7-0.2-2.8-0.8-3.4-1.7c-0.6-0.9-0.9-2.5-0.9-4.7h5.9c0,1.1,0.2,1.7,0.7,1.9
		C158.8,28.2,160.4,28.3,163.2,28.3z"/>
	<path class="st1" d="M45,19.7c-4,0-45,0-45,0v12.2h5.2c0,0,0-4.3,0-7c4.6,0,44.6,0,44.6,0l0.1-2.5C50.2,12.7,58,5.2,67.5,5.2
		c4.7,0,9.1,1.9,12.5,5.2c3.3,3.4,5.2,7.9,5.2,12.7C85.1,33,77.2,41,67.5,41c-6.8,0-13-4-15.9-10.2L46.9,33
		c3.8,8,11.9,13.2,20.6,13.2c12.6,0,22.8-10.4,22.8-23.1c0-6.2-2.4-12-6.7-16.3C79.3,2.4,73.6,0,67.5,0C56,0,46.6,8.5,45,19.7"/>
	<path class="st0" d="M55.9,23.1c0,6.5,5.2,11.8,11.6,11.8c6.4,0,11.6-5.3,11.6-11.8c0-6.5-5.2-11.8-11.6-11.8
		C61.1,11.3,55.9,16.6,55.9,23.1"/>
</g>
</svg>
