<?xml version="1.0" encoding="UTF-8"?>
<!DOCTYPE svg PUBLIC "-//W3C//DTD SVG 1.1//EN" "http://www.w3.org/Graphics/SVG/1.1/DTD/svg11.dtd">
<!-- Creator: CorelDRAW 2019 (64-Bit) -->
<svg xmlns="http://www.w3.org/2000/svg" xml:space="preserve" width="1.70905in" height="1.12639in" version="1.1" style="shape-rendering:geometricPrecision; text-rendering:geometricPrecision; image-rendering:optimizeQuality; fill-rule:evenodd; clip-rule:evenodd"
viewBox="0 0 1365.35 899.86"
 xmlns:xlink="http://www.w3.org/1999/xlink"
 xmlns:xodm="http://www.corel.com/coreldraw/odm/2003">
 <defs>
  <style type="text/css">
   <![CDATA[
    .fil3 {fill:#E6086E}
    .fil2 {fill:#337321}
    .fil1 {fill:#373435;fill-rule:nonzero}
    .fil0 {fill:#E6086E;fill-rule:nonzero}
   ]]>
  </style>
 </defs>
 <g id="Layer_x0020_1">
  <metadata id="CorelCorpID_0Corel-Layer"/>
  <g id="_1711850834784">
   <path class="fil0" d="M1033.45 236.32l-92.92 16.34 -2.65 78.84c4.11,-1.67 8.43,-3.2 12.89,-4.54 4.45,-1.34 9.09,-2.47 13.88,-3.32 3.7,-0.68 7.33,-0.94 10.88,-0.86 3.53,0.12 6.79,0.73 9.78,1.85 3,1.12 5.51,2.85 7.58,5.21 2.03,2.37 3.42,5.46 4.14,9.33 0.69,4.08 0.42,7.73 -0.84,10.93 -1.21,3.23 -3.21,6.03 -5.86,8.42 -2.7,2.4 -5.88,4.36 -9.56,5.92 -3.69,1.53 -7.66,2.68 -11.86,3.42 -3.19,0.6 -6.59,0.95 -10.24,1.1 -3.61,0.18 -7.39,0 -11.3,-0.53 -3.95,-0.53 -7.95,-1.58 -12.1,-3.06l-0.77 28.92c4.39,1.05 9.1,1.76 14.15,2.17 5.04,0.41 10.07,0.51 15.14,0.28 5.04,-0.22 9.78,-0.7 14.17,-1.48 6.42,-1.13 12.63,-2.99 18.7,-5.53 6.03,-2.57 11.62,-5.79 16.75,-9.67 5.09,-3.87 9.46,-8.32 13.05,-13.36 3.63,-5.02 6.15,-10.58 7.66,-16.65 1.48,-6.07 1.66,-12.62 0.46,-19.59 -1.79,-9.94 -5.47,-17.7 -11.01,-23.27 -5.57,-5.57 -12.72,-9.15 -21.48,-10.72 -8.79,-1.58 -18.87,-1.34 -30.34,0.71l0.45 -23.61 61.13 -10.75 0.14 -26.5zm-77.21 -7.85l28.17 -4.95 1.37 -46.69 33.3 -5.85 -1.37 46.69 28.18 -4.95 3.24 -109.01 -28.18 4.95 -1.17 41.69 -33.3 5.86 1.17 -41.69 -28.18 4.95 -3.24 109.01zm-100.93 50.37l27.42 -4.82 2.03 -46.5c2.49,2.93 5.1,5.29 7.91,7.07 2.83,1.78 5.86,2.99 9.17,3.57 3.29,0.56 6.93,0.52 10.87,-0.18 5.67,-1.02 10.56,-2.81 14.69,-5.35 4.15,-2.57 7.56,-5.71 10.29,-9.45 2.73,-3.72 4.8,-7.86 6.19,-12.43 1.42,-4.55 2.2,-9.37 2.4,-14.41 0.19,-5.05 -0.16,-10.17 -1.08,-15.35 -0.79,-4.44 -2.15,-8.5 -4.08,-12.18 -1.92,-3.67 -4.36,-6.79 -7.34,-9.32 -2.97,-2.56 -6.44,-4.36 -10.38,-5.4 -3.94,-1.07 -8.33,-1.17 -13.16,-0.35 -3.26,0.57 -6.47,1.63 -9.56,3.18 -3.09,1.58 -6.01,3.67 -8.72,6.35 -2.71,2.65 -5.17,5.88 -7.37,9.73l-0.3 0.05 -0.1 -12.87 -24.86 4.37c0.16,1.6 0.29,3.39 0.38,5.39 0.12,2 0.15,4.22 0.04,6.65l-4.44 102.23zm30.71 -74.07c-0.37,-2.11 -0.46,-4.35 -0.25,-6.72 0.2,-2.37 0.7,-4.71 1.45,-7.04 0.78,-2.34 1.84,-4.52 3.22,-6.52 1.36,-2 2.99,-3.71 4.95,-5.09 1.95,-1.41 4.22,-2.32 6.78,-2.8 2.87,-0.47 5.37,-0.22 7.54,0.77 2.15,1 3.93,2.62 5.31,4.87 1.41,2.24 2.38,4.97 2.96,8.21 0.55,3.09 0.59,6.16 0.18,9.21 -0.42,3.05 -1.29,5.89 -2.66,8.52 -1.35,2.65 -3.18,4.86 -5.45,6.66 -2.29,1.82 -5.03,3.03 -8.24,3.62 -2.26,0.37 -4.28,0.26 -6.07,-0.36 -1.79,-0.59 -3.36,-1.56 -4.68,-2.91 -1.32,-1.32 -2.4,-2.89 -3.24,-4.68 -0.84,-1.82 -1.44,-3.73 -1.79,-5.74zm308.02 3.31l-92.92 16.34 -2.65 78.84c4.12,-1.67 8.44,-3.2 12.89,-4.54 4.46,-1.35 9.09,-2.48 13.88,-3.32 3.7,-0.68 7.33,-0.93 10.88,-0.86 3.53,0.12 6.79,0.73 9.78,1.85 3,1.12 5.51,2.85 7.58,5.21 2.03,2.37 3.42,5.46 4.14,9.33 0.69,4.08 0.42,7.73 -0.83,10.93 -1.22,3.23 -3.21,6.03 -5.87,8.42 -2.69,2.4 -5.88,4.36 -9.56,5.92 -3.69,1.53 -7.65,2.68 -11.86,3.42 -3.19,0.6 -6.6,0.95 -10.24,1.1 -3.61,0.18 -7.39,0 -11.3,-0.53 -3.95,-0.53 -7.95,-1.58 -12.1,-3.06l-0.77 28.92c4.39,1.05 9.1,1.76 14.15,2.17 5.04,0.41 10.07,0.51 15.14,0.28 5.04,-0.22 9.79,-0.7 14.17,-1.48 6.42,-1.13 12.63,-2.99 18.7,-5.53 6.02,-2.57 11.62,-5.79 16.75,-9.67 5.09,-3.87 9.45,-8.32 13.04,-13.36 3.63,-5.02 6.15,-10.57 7.66,-16.65 1.48,-6.07 1.65,-12.62 0.45,-19.59 -1.79,-9.95 -5.47,-17.7 -11.01,-23.28 -5.57,-5.57 -12.72,-9.15 -21.47,-10.72 -8.79,-1.57 -18.87,-1.34 -30.34,0.71l0.44 -23.61 61.13 -10.75 0.14 -26.5zm-147.03 172.52l34.44 -6.05 1.09 -34.23 -34.44 6.06 -1.09 34.23z"/>
   <path class="fil1" d="M784.87 218.75l3 -9.26 -45.93 -14.93 -3.01 9.26 45.94 14.93zm-7.13 172.43l6.25 6.7 11.94 -11.13c1.57,-1.47 3.21,-2.59 4.92,-3.37 1.71,-0.77 3.44,-1.14 5.22,-1.13 1.79,0.02 3.59,0.5 5.39,1.41 1.81,0.91 3.6,2.32 5.38,4.21 1.72,2.02 2.77,3.9 3.12,5.68 0.36,1.77 0.09,3.52 -0.8,5.23 -0.88,1.73 -2.34,3.51 -4.35,5.37l-13.36 12.45 6.24 6.69 15.33 -14.29c2.33,-2.15 3.86,-4.49 4.61,-6.99 0.75,-2.5 0.63,-5.18 -0.37,-8 -1,-2.83 -2.94,-5.81 -5.85,-8.95 -2.39,-2.54 -4.88,-4.47 -7.49,-5.78 -2.61,-1.31 -5.18,-1.94 -7.71,-1.89l-0.13 -0.14 15.84 -14.77 -6.24 -6.7 -37.94 35.38zm336.35 99.65c0.79,-0.15 1.67,-0.34 2.61,-0.56 0.94,-0.21 2.09,-0.56 3.44,-1.01 2.27,-0.79 4.15,-1.75 5.67,-2.87 1.5,-1.11 2.72,-2.35 3.65,-3.71 0.92,-1.36 1.63,-2.78 2.15,-4.28 0.49,-1.5 0.88,-3.02 1.15,-4.57 0.25,-1.55 0.48,-3.08 0.66,-4.6l5.56 -40.04 -8.74 3.01 -3.37 32.04 -0.19 0.06 -22.12 -23.27 -9.48 3.26 26.65 25.66c0.33,0.31 0.69,0.65 1.11,1.02 0.42,0.36 0.78,0.72 1.12,1.05 0.34,0.35 0.55,0.64 0.65,0.89 0.04,0.12 0.06,0.43 0.06,0.92 -0,0.49 -0.06,1.11 -0.17,1.84 -0.12,0.74 -0.33,1.53 -0.64,2.39 -0.31,0.85 -0.74,1.7 -1.3,2.55 -0.55,0.85 -1.27,1.63 -2.16,2.34 -0.88,0.72 -1.97,1.3 -3.26,1.76 -0.74,0.25 -1.48,0.45 -2.22,0.58 -0.72,0.14 -1.39,0.23 -2.01,0.29l1.18 5.23zm-71.15 0.16l9.04 -1.43 -2.56 -16.13c-0.34,-2.13 -0.36,-4.11 -0.04,-5.96 0.31,-1.85 0.97,-3.49 1.99,-4.96 1.01,-1.47 2.41,-2.7 4.17,-3.69 1.77,-0.99 3.94,-1.69 6.5,-2.1 2.63,-0.3 4.78,-0.12 6.45,0.59 1.67,0.69 2.96,1.89 3.89,3.59 0.94,1.7 1.61,3.9 2.02,6.61l2.86 18.04 9.04 -1.43 -3.29 -20.71c-0.48,-3.13 -1.56,-5.71 -3.21,-7.74 -1.65,-2.02 -3.94,-3.41 -6.84,-4.17 -2.9,-0.76 -6.45,-0.81 -10.69,-0.15 -3.44,0.56 -6.43,1.54 -8.98,2.97 -2.54,1.43 -4.5,3.21 -5.87,5.33l-0.19 0.03 -3.4 -21.39 -9.04 1.43 8.13 51.26zm-20.51 -34.75l-13.14 -0.23 0.18 -10.24 -9.19 1.91 -0.14 8.17 -11.19 -0.2 -0.09 5.26 11.19 0.19 -0.35 20.61c-0.03,2.35 0.56,4.29 1.77,5.82 1.2,1.53 2.94,2.69 5.2,3.46 2.28,0.77 4.98,1.17 8.14,1.23 1.48,0.02 2.89,-0.08 4.22,-0.26 1.35,-0.18 2.54,-0.37 3.58,-0.58l0.1 -5.53c-0.69,0.31 -1.56,0.58 -2.58,0.81 -1.04,0.24 -2.26,0.34 -3.67,0.33 -1.41,-0.03 -2.69,-0.29 -3.85,-0.79 -1.14,-0.5 -2.05,-1.22 -2.72,-2.17 -0.68,-0.95 -1.02,-2.1 -1.01,-3.47l0.33 -19.3 13.14 0.23 0.09 -5.26zm-60.36 32.87l9.1 0.96 5.41 -51.61 -9.1 -0.96 -5.41 51.61zm-54.59 -40.53c1.4,-0.36 2.94,-0.59 4.6,-0.67 1.66,-0.09 3.37,-0.03 5.12,0.17 1.75,0.2 3.46,0.53 5.13,1.02 2.92,0.84 5.14,1.84 6.69,2.99 1.54,1.16 2.49,2.5 2.87,4.02 0.38,1.54 0.28,3.27 -0.3,5.22 -1.12,-0.37 -2.17,-0.71 -3.17,-1.01 -0.98,-0.3 -1.97,-0.6 -2.95,-0.89 -0.98,-0.28 -2.06,-0.59 -3.19,-0.92 -1.84,-0.53 -3.81,-0.97 -5.89,-1.31 -2.1,-0.35 -4.19,-0.54 -6.27,-0.56 -2.09,-0.03 -4.03,0.16 -5.85,0.57 -1.82,0.41 -3.38,1.12 -4.67,2.1 -1.3,0.99 -2.19,2.34 -2.7,4.02 -0.67,2.45 -0.5,4.69 0.52,6.66 1.03,1.99 2.75,3.73 5.16,5.22 2.41,1.48 5.33,2.72 8.79,3.71 2.02,0.56 3.88,0.91 5.56,1.03 1.7,0.13 3.23,0.1 4.6,-0.08 1.37,-0.18 2.56,-0.45 3.59,-0.79 1.01,-0.36 1.86,-0.72 2.53,-1.1l0.19 0.05 -1.26 4.39 8.24 2.36c0.03,-0.34 0.09,-0.8 0.19,-1.36 0.11,-0.57 0.27,-1.29 0.48,-2.17 0.2,-0.87 0.49,-1.95 0.86,-3.23l4.02 -14.03c0.9,-3.08 1,-5.84 0.28,-8.3 -0.71,-2.46 -2.34,-4.62 -4.86,-6.48 -2.52,-1.86 -6.05,-3.45 -10.59,-4.75 -3.05,-0.86 -5.96,-1.37 -8.76,-1.54 -2.79,-0.18 -5.41,-0.1 -7.88,0.22l-1.06 5.45zm21.91 20.39c-0.48,1.69 -1.42,3.08 -2.82,4.12 -1.38,1.05 -3.18,1.68 -5.37,1.89 -2.19,0.22 -4.75,-0.09 -7.65,-0.91 -1.02,-0.29 -2.01,-0.7 -2.99,-1.24 -0.96,-0.54 -1.82,-1.16 -2.57,-1.88 -0.74,-0.73 -1.27,-1.51 -1.61,-2.33 -0.33,-0.84 -0.39,-1.72 -0.14,-2.62 0.37,-1.18 1.08,-2.05 2.12,-2.62 1.03,-0.55 2.29,-0.87 3.74,-0.98 1.45,-0.1 2.96,-0.05 4.52,0.13 1.56,0.2 3.06,0.46 4.47,0.78 1.41,0.32 2.6,0.63 3.59,0.92 0.93,0.27 1.87,0.56 2.79,0.87 0.92,0.3 1.85,0.59 2.79,0.87l-0.86 3zm-59.5 -14.57c-0.66,0.01 -1.56,-0.09 -2.7,-0.28 -1.14,-0.2 -2.4,-0.48 -3.81,-0.87 -1.41,-0.39 -2.83,-0.86 -4.3,-1.44 -1.47,-0.57 -2.86,-1.24 -4.19,-1.99 -1.89,-1.1 -3.54,-2.37 -4.96,-3.85 -1.4,-1.46 -2.52,-3.04 -3.31,-4.69 -0.81,-1.66 -1.22,-3.33 -1.26,-5.01 -0.03,-1.68 0.37,-3.28 1.24,-4.81l30.69 17.72c1.43,-2.46 2.43,-4.93 3.01,-7.38 0.56,-2.47 0.56,-4.9 -0.01,-7.3 -0.58,-2.41 -1.82,-4.74 -3.77,-7.01 -1.93,-2.27 -4.68,-4.45 -8.25,-6.51 -3.05,-1.75 -6.03,-2.97 -8.94,-3.65 -2.89,-0.66 -5.63,-0.83 -8.19,-0.47 -2.57,0.36 -4.87,1.2 -6.9,2.54 -2.04,1.32 -3.72,3.12 -5.04,5.39 -1.44,2.5 -2.31,5 -2.58,7.55 -0.28,2.54 0.08,5.06 1.06,7.56 0.99,2.51 2.65,4.96 4.99,7.36 2.36,2.41 5.44,4.71 9.24,6.92 2.35,1.34 4.41,2.39 6.2,3.13 1.77,0.73 3.36,1.3 4.74,1.7 1.37,0.39 2.63,0.73 3.78,1.04l3.25 -5.63zm-20.87 -27.15c0.72,-0.92 1.62,-1.73 2.7,-2.43 1.07,-0.71 2.3,-1.22 3.71,-1.52 1.4,-0.31 2.93,-0.3 4.63,0.01 1.68,0.31 3.49,1 5.43,2.11 1.71,1 3.1,2.09 4.17,3.3 1.08,1.2 1.84,2.46 2.31,3.76 0.47,1.31 0.64,2.62 0.52,3.91 -0.11,1.31 -0.51,2.54 -1.19,3.72l-22.26 -12.85zm345.24 9.5c2.18,-0.54 4.31,-1.33 6.38,-2.41 2.06,-1.07 4.06,-2.27 6,-3.6 1.86,-1.25 3.51,-2.63 4.97,-4.15 1.47,-1.51 2.62,-3.11 3.47,-4.77 0.84,-1.65 1.28,-3.32 1.3,-5.01 0.02,-1.68 -0.5,-3.31 -1.53,-4.88 -0.91,-1.32 -2.01,-2.22 -3.27,-2.72 -1.27,-0.49 -2.65,-0.7 -4.15,-0.64 -1.48,0.06 -3.02,0.31 -4.6,0.7 -1.57,0.39 -3.13,0.81 -4.65,1.27 -1.53,0.45 -2.98,0.83 -4.32,1.11 -1.36,0.28 -2.54,0.34 -3.59,0.2 -1.03,-0.16 -1.84,-0.65 -2.42,-1.48 -0.53,-0.81 -0.63,-1.72 -0.33,-2.69 0.31,-0.97 0.93,-1.96 1.84,-2.95 0.92,-0.99 2.04,-1.94 3.35,-2.82 0.46,-0.31 1.08,-0.66 1.85,-1.06 0.77,-0.39 1.6,-0.79 2.49,-1.18 0.9,-0.42 1.75,-0.75 2.58,-1.05 0.81,-0.3 1.5,-0.5 2.08,-0.61l-2.53 -5.14c-1.7,0.67 -3.39,1.42 -5.05,2.23 -1.67,0.82 -3.39,1.82 -5.16,2.99 -2.05,1.38 -3.83,2.85 -5.33,4.4 -1.52,1.55 -2.67,3.15 -3.49,4.77 -0.81,1.64 -1.22,3.27 -1.18,4.89 0.02,1.63 0.54,3.21 1.55,4.74 0.8,1.16 1.81,1.93 3.04,2.36 1.21,0.42 2.55,0.59 4.04,0.51 1.48,-0.1 3.01,-0.32 4.61,-0.69 1.59,-0.37 3.16,-0.77 4.71,-1.2 1.56,-0.42 3.03,-0.77 4.38,-1.03 1.37,-0.27 2.56,-0.33 3.58,-0.2 1.01,0.13 1.79,0.56 2.31,1.31 0.51,0.79 0.72,1.61 0.61,2.48 -0.09,0.85 -0.42,1.69 -0.97,2.53 -0.55,0.84 -1.22,1.64 -2.03,2.39 -0.81,0.75 -1.66,1.42 -2.54,2.02 -0.75,0.51 -1.72,1.05 -2.91,1.63 -1.19,0.58 -2.48,1.11 -3.86,1.6 -1.39,0.49 -2.74,0.84 -4.07,1.08l2.85 5.09zm111.1 -119.18l2.83 -8.7 -15.53 -5.04c-2.05,-0.67 -3.82,-1.55 -5.33,-2.67 -1.5,-1.12 -2.67,-2.45 -3.52,-4.03 -0.84,-1.57 -1.3,-3.38 -1.39,-5.4 -0.08,-2.02 0.28,-4.27 1.08,-6.75 0.92,-2.48 2.07,-4.31 3.45,-5.48 1.37,-1.17 3.03,-1.78 4.96,-1.83 1.94,-0.07 4.21,0.34 6.81,1.2l17.37 5.65 2.83 -8.71 -19.94 -6.48c-3.01,-1 -5.8,-1.2 -8.35,-0.65 -2.55,0.55 -4.83,1.96 -6.82,4.2 -1.98,2.24 -3.65,5.38 -4.98,9.45 -0.72,2.21 -1.16,4.42 -1.33,6.6 -0.16,2.18 -0.06,4.21 0.35,6.09 0.4,1.89 1.08,3.47 2.08,4.77l-0.06 0.18 -5.33 -1.73 -2.74 8.43 33.56 10.91zm-22.1 34.7l4.85 -7.76 -29.93 -18.7 -4.85 7.76 29.93 18.7zm-37.68 -35.02l-5.47 8.75 6.22 3.89 5.47 -8.75 -6.22 -3.88zm-5.11 89l6.35 -6.58 -13.04 -12.59 28.46 -3.37 9.13 -9.45 -32.19 5.04 4.77 -27.46 -8.65 8.96 -3.56 24.31 -22.26 -21.49 -6.35 6.58 37.34 36.04zm-4.54 -282.91l5.88 7.01 12.3 -10.32c2.28,-1.89 4.6,-3.1 6.95,-3.64 2.37,-0.52 4.64,-0.4 6.83,0.42 2.18,0.79 4.17,2.24 5.94,4.33 0.52,0.6 1.02,1.26 1.51,2 0.49,0.73 0.91,1.48 1.27,2.28l4.45 -3.73c-0.33,-0.54 -0.67,-1.07 -0.97,-1.55 -0.32,-0.49 -0.68,-1.02 -1.09,-1.55 -0.39,-0.54 -0.87,-1.15 -1.45,-1.83 -1.14,-1.35 -2.45,-2.49 -3.95,-3.43 -1.47,-0.93 -3,-1.61 -4.59,-2.03 -1.6,-0.43 -3.13,-0.57 -4.61,-0.41l-0.12 -0.15 4.18 -3.51 -5.51 -6.56 -27.02 22.68zm-65.43 -67.18c-1.25,2.2 -1.91,4.58 -1.97,7.12 -0.06,2.54 0.46,5.08 1.57,7.68 1.09,2.59 2.73,5.08 4.92,7.45 2.2,2.38 4.93,4.51 8.18,6.41 3.24,1.85 6.45,3.14 9.58,3.84 3.15,0.72 6.12,0.88 8.9,0.53 2.78,-0.35 5.25,-1.18 7.41,-2.49 2.17,-1.32 3.9,-3.08 5.18,-5.27 1.33,-2.35 2.05,-4.78 2.13,-7.33 0.08,-2.54 -0.42,-5.08 -1.52,-7.62 -1.1,-2.54 -2.76,-4.98 -4.99,-7.31 -2.22,-2.32 -4.97,-4.44 -8.23,-6.34 -3.31,-1.9 -6.54,-3.23 -9.67,-4 -3.14,-0.76 -6.09,-0.98 -8.84,-0.67 -2.75,0.31 -5.21,1.14 -7.38,2.49 -2.16,1.35 -3.92,3.19 -5.28,5.51zm8.43 4.87c0.85,-1.47 1.98,-2.7 3.36,-3.71 1.39,-1.01 2.96,-1.72 4.75,-2.13 1.78,-0.42 3.7,-0.46 5.71,-0.13 2.03,0.34 4.12,1.1 6.27,2.33 2.1,1.23 3.8,2.64 5.09,4.23 1.3,1.59 2.2,3.25 2.73,5.01 0.53,1.74 0.71,3.48 0.52,5.17 -0.18,1.7 -0.69,3.3 -1.54,4.77 -0.64,1.1 -1.43,2.1 -2.4,2.99 -0.97,0.89 -2.06,1.63 -3.33,2.2 -1.25,0.58 -2.62,0.95 -4.14,1.09 -1.5,0.14 -3.1,0.02 -4.79,-0.38 -1.7,-0.4 -3.49,-1.14 -5.35,-2.2 -1.87,-1.09 -3.41,-2.27 -4.62,-3.56 -1.21,-1.27 -2.13,-2.6 -2.76,-3.98 -0.63,-1.37 -1,-2.75 -1.14,-4.13 -0.12,-1.37 -0.05,-2.7 0.24,-3.99 0.29,-1.28 0.75,-2.48 1.39,-3.58zm-68.21 -4.99l8.92 2.06 6.75 -29.26 12.8 2.96 1.18 -5.12 -12.8 -2.96 0.85 -3.7c0.25,-1.18 0.6,-2.23 1.02,-3.18 0.42,-0.94 1.01,-1.72 1.77,-2.31 0.76,-0.61 1.76,-0.98 3.01,-1.12 1.24,-0.14 2.81,-0 4.72,0.44 0.78,0.18 1.54,0.39 2.28,0.63 0.76,0.25 1.38,0.5 1.89,0.75l1.56 -5.03c-0.88,-0.31 -1.79,-0.62 -2.75,-0.93 -0.96,-0.31 -2,-0.59 -3.13,-0.86 -3.27,-0.75 -6.06,-1.04 -8.32,-0.89 -2.27,0.16 -4.15,0.71 -5.61,1.65 -1.47,0.94 -2.62,2.2 -3.49,3.79 -0.87,1.59 -1.53,3.42 -1.99,5.52l-0.73 3.17 -11.38 -2.63 -1.18 5.12 11.38 2.63 -6.75 29.26zm-99.97 -3.51l9.1 -0.95 -5.44 -51.61 -9.1 0.96 5.44 51.6zm-81.39 -8.04c0.98,-1.07 2.14,-2.1 3.49,-3.07 1.34,-0.98 2.81,-1.86 4.38,-2.64 1.58,-0.79 3.19,-1.43 4.85,-1.94 2.9,-0.89 5.32,-1.26 7.24,-1.14 1.92,0.13 3.45,0.74 4.59,1.81 1.16,1.08 2.02,2.59 2.59,4.54 -1.14,0.31 -2.21,0.59 -3.21,0.89 -0.99,0.27 -1.98,0.57 -2.96,0.86 -0.98,0.3 -2.05,0.63 -3.19,0.97 -1.83,0.56 -3.72,1.26 -5.65,2.1 -1.95,0.85 -3.8,1.82 -5.56,2.94 -1.76,1.1 -3.29,2.32 -4.6,3.66 -1.31,1.34 -2.22,2.77 -2.77,4.31 -0.55,1.54 -0.56,3.15 -0.08,4.85 0.77,2.43 2.14,4.21 4.07,5.31 1.95,1.1 4.33,1.63 7.16,1.57 2.83,-0.07 5.95,-0.62 9.4,-1.68 2,-0.62 3.74,-1.35 5.22,-2.16 1.49,-0.82 2.76,-1.68 3.81,-2.58 1.05,-0.9 1.91,-1.77 2.58,-2.62 0.65,-0.86 1.17,-1.61 1.52,-2.3l0.18 -0.06 1.34 4.37 8.19 -2.5c-0.16,-0.3 -0.36,-0.72 -0.59,-1.24 -0.22,-0.54 -0.48,-1.23 -0.77,-2.08 -0.31,-0.85 -0.65,-1.91 -1.04,-3.18l-4.27 -13.96c-0.92,-3.07 -2.34,-5.44 -4.28,-7.12 -1.94,-1.67 -4.48,-2.6 -7.61,-2.79 -3.13,-0.19 -6.95,0.4 -11.47,1.78 -3.02,0.94 -5.74,2.09 -8.18,3.48 -2.43,1.37 -4.59,2.86 -6.49,4.48l2.09 5.15zm29.48 5.17c0.52,1.69 0.48,3.36 -0.12,4.99 -0.59,1.64 -1.76,3.14 -3.47,4.51 -1.72,1.37 -4.04,2.51 -6.92,3.4 -1.01,0.31 -2.07,0.5 -3.18,0.59 -1.1,0.07 -2.16,0.02 -3.17,-0.18 -1.01,-0.21 -1.89,-0.57 -2.62,-1.08 -0.74,-0.52 -1.26,-1.23 -1.55,-2.12 -0.33,-1.19 -0.21,-2.31 0.35,-3.35 0.57,-1.03 1.44,-1.98 2.6,-2.86 1.16,-0.87 2.45,-1.65 3.87,-2.35 1.42,-0.69 2.81,-1.28 4.17,-1.78 1.36,-0.5 2.53,-0.89 3.51,-1.18 0.93,-0.28 1.87,-0.55 2.81,-0.79 0.94,-0.25 1.88,-0.52 2.81,-0.79l0.91 2.98zm-66.59 31.15c-0.31,0.58 -0.81,1.34 -1.52,2.26 -0.71,0.92 -1.55,1.89 -2.55,2.95 -1,1.06 -2.09,2.1 -3.3,3.12 -1.19,1.03 -2.44,1.95 -3.73,2.76 -1.86,1.15 -3.75,2.01 -5.72,2.57 -1.95,0.55 -3.86,0.79 -5.69,0.71 -1.85,-0.07 -3.52,-0.48 -5.03,-1.24 -1.49,-0.77 -2.72,-1.87 -3.66,-3.35l30.05 -18.77c-1.5,-2.42 -3.21,-4.46 -5.11,-6.12 -1.91,-1.66 -4.06,-2.79 -6.44,-3.42 -2.4,-0.63 -5.04,-0.63 -7.96,0.03 -2.91,0.64 -6.13,2.04 -9.62,4.22 -2.98,1.87 -5.44,3.93 -7.41,6.18 -1.95,2.25 -3.37,4.58 -4.26,7.01 -0.89,2.43 -1.23,4.86 -0.99,7.29 0.22,2.42 1.02,4.75 2.4,6.99 1.53,2.44 3.34,4.39 5.46,5.82 2.11,1.44 4.5,2.31 7.18,2.61 2.68,0.31 5.62,-0.01 8.84,-0.95 3.24,-0.95 6.71,-2.59 10.44,-4.91 2.29,-1.44 4.18,-2.77 5.67,-4 1.47,-1.22 2.72,-2.35 3.71,-3.38 0.99,-1.03 1.88,-1.98 2.7,-2.86l-3.45 -5.51zm-33.76 5.67c-0.47,-1.06 -0.77,-2.24 -0.89,-3.53 -0.13,-1.28 0,-2.6 0.4,-3.99 0.39,-1.37 1.11,-2.72 2.18,-4.08 1.06,-1.34 2.52,-2.61 4.41,-3.8 1.69,-1.04 3.31,-1.75 4.87,-2.13 1.57,-0.39 3.03,-0.47 4.4,-0.27 1.37,0.2 2.62,0.66 3.7,1.38 1.1,0.71 2,1.64 2.72,2.8l-21.79 13.62zm-29.62 57.1l5.51 -6.81 -40.34 -32.66 -5.76 7.11 16.67 13.5 -0.12 0.15c-1.43,0.03 -2.94,0.35 -4.52,0.95 -1.59,0.61 -3.24,1.58 -4.94,2.91 -1.72,1.34 -3.48,3.13 -5.3,5.35 -2.25,2.82 -3.86,5.57 -4.8,8.24 -0.94,2.68 -1.34,5.24 -1.16,7.66 0.17,2.41 0.81,4.64 1.91,6.68 1.12,2.03 2.59,3.8 4.45,5.3 1.51,1.22 3.14,2.2 4.9,2.96 1.77,0.76 3.62,1.22 5.55,1.41 1.94,0.17 3.93,-0.02 5.93,-0.54 2.02,-0.53 4.03,-1.49 6.04,-2.86 2,-1.37 3.94,-3.2 5.84,-5.52 1.39,-1.74 2.52,-3.41 3.38,-5.03 0.87,-1.63 1.53,-3.18 1.98,-4.64 0.45,-1.45 0.72,-2.78 0.83,-4 0.1,-1.21 0.09,-2.26 -0.05,-3.15l0.13 -0.15 3.87 3.14zm-31.89 11.12c-1.3,-0.98 -2.4,-2.15 -3.3,-3.5 -0.89,-1.36 -1.48,-2.85 -1.76,-4.48 -0.29,-1.64 -0.16,-3.37 0.36,-5.2 0.52,-1.83 1.55,-3.71 3.1,-5.65 1.57,-1.92 3.23,-3.35 4.98,-4.32 1.74,-0.95 3.49,-1.52 5.24,-1.66 1.76,-0.15 3.43,0.04 5.03,0.56 1.61,0.53 3.04,1.32 4.33,2.36 0.92,0.75 1.76,1.64 2.49,2.68 0.74,1.05 1.3,2.22 1.72,3.52 0.42,1.28 0.62,2.65 0.59,4.11 -0.03,1.45 -0.35,2.98 -0.94,4.54 -0.59,1.57 -1.53,3.16 -2.82,4.77 -1.24,1.52 -2.56,2.69 -3.95,3.52 -1.39,0.82 -2.8,1.37 -4.21,1.62 -1.42,0.25 -2.79,0.29 -4.14,0.09 -1.34,-0.19 -2.59,-0.55 -3.73,-1.08 -1.14,-0.53 -2.15,-1.16 -2.99,-1.9z"/>
   <path class="fil1" d="M1329.31 545.03c3.99,-0.02 7.79,-0.63 11.38,-1.85 3.6,-1.2 6.89,-2.92 9.89,-5.13 3.01,-2.2 5.61,-4.81 7.82,-7.8 2.2,-3 3.91,-6.29 5.11,-9.89 1.21,-3.6 1.83,-7.39 1.85,-11.38 -0.02,-3.99 -0.64,-7.79 -1.85,-11.38 -1.2,-3.6 -2.91,-6.89 -5.11,-9.88 -2.21,-3.02 -4.81,-5.61 -7.82,-7.83 -2.99,-2.2 -6.29,-3.91 -9.89,-5.11 -3.6,-1.21 -7.39,-1.83 -11.38,-1.85 -3.99,0.02 -7.79,0.64 -11.38,1.85 -3.6,1.2 -6.89,2.91 -9.89,5.11 -2.99,2.21 -5.61,4.81 -7.8,7.83 -2.21,2.99 -3.93,6.29 -5.13,9.88 -1.21,3.6 -1.83,7.39 -1.85,11.38 0.02,4 0.64,7.79 1.85,11.38 1.2,3.6 2.91,6.89 5.13,9.89 2.19,2.99 4.81,5.61 7.8,7.8 2.99,2.21 6.29,3.93 9.89,5.13 3.6,1.21 7.39,1.83 11.38,1.85zm0 -6.99c-3.8,-0.02 -7.34,-0.75 -10.62,-2.16 -3.29,-1.43 -6.17,-3.45 -8.67,-6.04 -2.48,-2.59 -4.43,-5.66 -5.83,-9.18 -1.41,-3.54 -2.13,-7.42 -2.15,-11.67 0.02,-4.24 0.73,-8.12 2.15,-11.67 1.4,-3.53 3.35,-6.59 5.83,-9.18 2.49,-2.6 5.38,-4.61 8.67,-6.04 3.28,-1.43 6.82,-2.15 10.62,-2.16 3.8,0.02 7.34,0.73 10.62,2.16 3.29,1.43 6.17,3.44 8.67,6.04 2.48,2.59 4.43,5.66 5.84,9.18 1.4,3.55 2.12,7.42 2.13,11.67 -0.02,4.25 -0.73,8.12 -2.13,11.67 -1.42,3.53 -3.36,6.59 -5.84,9.18 -2.49,2.59 -5.38,4.61 -8.67,6.04 -3.28,1.41 -6.82,2.15 -10.62,2.16zm-13.88 -8.79l7.59 0 0 -17.57 4.59 0 10.58 17.57 7.79 0 -10.98 -17.87c3.38,-0.28 5.99,-1.31 7.85,-3.09 1.87,-1.78 2.8,-4.41 2.83,-7.89 0,-2.85 -0.58,-5.16 -1.73,-6.92 -1.15,-1.76 -2.85,-3.04 -5.09,-3.86 -2.23,-0.82 -4.99,-1.22 -8.25,-1.2l-15.18 0 0 40.84zm7.59 -35.05l6.79 0c0.98,-0.02 1.96,0.05 2.94,0.2 0.97,0.14 1.85,0.4 2.66,0.8 0.8,0.38 1.45,0.95 1.93,1.7 0.48,0.73 0.73,1.7 0.75,2.89 -0.02,1.8 -0.42,3.15 -1.18,4.03 -0.75,0.86 -1.76,1.43 -3.03,1.7 -1.26,0.27 -2.66,0.4 -4.18,0.36l-6.69 0 0 -11.68z"/>
   <path class="fil2" d="M119.17 555.55l-32.54 0 -0.14 -65.51c0.04,-3.56 -2.41,-12.28 -13.6,-12.43 -9.84,-0.12 -13.69,8.9 -13.69,12.43l-0.23 53.44c0.4,7.6 7.38,14.27 12,19.98 23.06,25.23 63.65,46.49 71.4,83.3 1.96,9.27 2.4,8.01 2.4,29.05 0,8.77 0.68,55.15 0.01,69.97 -0.77,17.11 -4.56,32.86 -18.81,43.04 -23.2,15.33 -55.55,15.92 -84.17,10.33 -17.27,-3.37 -35.18,-15.74 -39.26,-33.79 -1.48,-5.02 -2.31,-10.31 -2.44,-15.73l-0.1 -64.72c0,-14.62 11.79,-26.46 26.41,-26.46l31.53 -0.02 0.13 88.87c-0.04,3.57 2.41,12.28 13.59,12.43 9.84,0.14 13.91,-8.89 13.91,-12.43l0 -81.15c-0.14,-4.32 -1.23,-7.45 -3.67,-10.44l-14.34 -13.67 -36.09 -34.25c-17.22,-16.02 -31.78,-33.62 -31.38,-59.66l0 -65.78c0.95,-18.87 15.66,-34.86 31.66,-41.1 27.4,-10.72 54.14,-10.74 82.32,-0.21 27.63,10.35 30.69,39.69 30.69,45.38 0,5.44 -0.04,24.1 -0.04,42.75 0,14.61 -10.94,26.37 -25.56,26.37zm310.72 -65.04c0.04,-3.56 -2.61,-12.28 -13.8,-12.42 -9.84,-0.12 -13.69,8.9 -13.69,12.42l0.1 257.39c-0.04,3.57 2.4,12.28 13.58,12.42 9.84,0.13 13.7,-8.9 13.7,-12.42l0.11 -257.39zm-61.58 -116.85l33.68 0 0.02 74.24c15.06,-8.42 32.66,-15.34 51.24,-12.08 11.93,1.08 22.84,9.9 27.18,21.29 3.39,7.89 4.61,16.69 5.02,25.78l0.14 272.55c-0.94,15.75 -6.38,32.69 -20.76,40.56 -16.55,7.6 -40.07,7.35 -54.32,-4.59 -5.65,-4.74 -9.81,-10.53 -9.81,-10.53 -3.99,9.53 -13.47,16.22 -24.46,16.22l-35.12 -0.01 -0.03 -397.18c0,-14.62 12.61,-26.27 27.23,-26.27zm199.09 254.96c0.03,-5.06 1.57,-12.68 3.74,-14.79 6.26,-5.56 16.86,-12.11 24.2,-15.24l0.05 148.2c0,3.54 -4.58,12.55 -14.42,12.43 -11.2,-0.13 -13.64,-8.86 -13.6,-12.43l0.03 -118.17zm-26.41 -52.76c17.13,-8.94 34.67,-15.11 50.42,-29 7.34,-7.06 4.98,-27.11 4.98,-27.11l-0.14 -30.06c0.04,-3.55 -2.4,-12.28 -13.59,-12.42 -9.83,-0.11 -13.68,8.88 -13.68,12.4l0.07 25.11c0,14.62 -11.75,26.67 -26.37,26.67l-32.44 0.05c0,0 -1.01,-44.74 1.9,-66.14 2.59,-18.96 20.43,-32.83 38.47,-37.04 24.02,-6.51 53.77,-5.56 76.29,3.53 3.81,2.04 26.76,7.16 27.1,45.72l0.18 283.51c0,14.61 -11.35,26.46 -25.95,26.46l-31.13 0.03c-2.03,-4.07 -3.93,-8.14 -5.82,-12.21 -14.53,13.44 -37.95,17.23 -56.54,10.72 -18.4,-7.25 -24.46,-23 -24.46,-41.19l-0.14 -130.48c0,-21.25 12.96,-39.85 30.86,-48.54zm-284.98 -85.76c0.04,-3.56 -2.4,-12.27 -13.59,-12.41 -9.84,-0.14 -13.8,8.89 -13.8,12.41l0.06 89.13 27.47 -0.03 -0.14 -89.1zm28.02 168.04l30 -0.02 0.04 90.34c-0.54,17.9 -8.99,35.14 -25.26,43.55 -24.16,12.08 -57.59,12.92 -83.43,6 -15.19,-4.07 -35.56,-13.63 -36.84,-50.86l0.01 -262.56c0.94,-19.53 13.71,-35.94 31.88,-42.73 28.49,-10.17 68.16,-11.68 93.52,6.1 5.84,4.21 11.12,10.58 14.25,17.24 3.12,7.19 5.43,14.36 5.7,22.77l-0.05 109.87c0,14.61 -11.96,26.46 -26.57,26.46l-57.82 0.26 -0.05 122.94c-0.04,3.56 2.41,12.28 13.6,12.43 9.83,0.12 13.69,-8.9 13.69,-12.43l0 -63.14c0,-14.62 12.72,-26.22 27.33,-26.22z"/>
   <path class="fil3" d="M1038.62 587.61c0.04,-3.58 -2.41,-12.28 -13.62,-12.43 -9.81,-0.14 -13.79,8.89 -13.79,12.43l0.07 89.13 27.48 -0.04 -0.14 -89.09zm141.53 0.05c-0.05,-3.56 2.59,-12.28 13.75,-12.42 9.78,-0.14 13.63,8.89 13.63,12.42l0 257.39c0.05,3.56 -2.5,12.28 -13.63,12.42 -9.78,0.14 -13.63,-8.89 -13.63,-12.42l-0.12 -257.39zm52.98 -116.7l33.62 -0.03 -0.06 397.67c0,14.61 -11.71,26.25 -26.32,26.25l-34.1 0c-0.26,-3.66 -1.61,-6.92 -2.02,-10.58l-6.17 4.89c-14.18,11.93 -37.54,12.21 -54.03,4.6 -14.29,-7.85 -19.48,-24.82 -20.42,-40.56l-0.08 -272.56c0.42,-9.08 1.63,-17.91 5.01,-25.78 4.31,-11.4 15.13,-20.21 27.02,-21.29 18.49,-3.26 35.98,3.66 50.95,12.07l0.08 -48.53c0,-14.62 11.89,-26.16 26.52,-26.16zm-308.22 397.44c0,14.61 -11.89,26.46 -26.51,26.46l-32.92 -0.16 0.06 -307.84c0,-5.04 -4.49,-9.99 -13.64,-9.99 -8.8,0 -12.62,4.79 -13.44,10.1 0,0.02 0.18,207.84 0.2,281.44 0,14.61 -11.9,26.46 -26.5,26.46l-31.04 -0.16 0.02 -307.84c0,-5.04 -4.08,-9.99 -13.24,-9.99 -8.82,0 -12.51,4.79 -13.31,10.1 0,0.02 0.02,208.29 -0.01,281.44 0,14.61 -11.57,26.3 -26.16,26.3l-31.18 0 -0.03 -336.23c0,-14.61 11.77,-26.47 26.38,-26.47l27.97 -0.1c1.23,0.81 3.09,11.6 3.09,11.6 15.59,-13.16 40.38,-16.14 60.64,-10.43 13.84,5.52 19.17,15.88 19.17,15.88 13.43,-10.95 23.06,-15.55 37.12,-17.78 16.66,-2.62 37.48,0.54 46.18,17.37 5.15,9.09 6.22,20.08 7.06,31.07l0.08 288.79zm141.73 -112.75l29.99 -0.03 0.05 90.34c-0.57,17.91 -9,35.14 -25.28,43.55 -24.14,12.08 -57.57,12.92 -83.42,6 -15.19,-4.07 -35.55,-13.63 -36.83,-50.86l0 -262.57c0.96,-19.53 13.72,-35.95 31.89,-42.72 28.48,-10.18 68.16,-11.68 93.5,6.1 5.86,4.21 11.14,10.58 14.26,17.21 3.13,7.21 5.44,14.37 5.71,22.79l-0.04 109.86c0,14.62 -11.97,26.46 -26.6,26.46l-57.81 0.26 -0.03 122.94c-0.04,3.56 2.41,12.29 13.57,12.43 9.85,0.12 13.69,-8.9 13.69,-12.43l0 -63.13c0,-14.62 12.74,-26.21 27.35,-26.21z"/>
  </g>
 </g>
</svg>
