<?xml version="1.0" encoding="UTF-8"?>
<!DOCTYPE svg PUBLIC "-//W3C//DTD SVG 1.1//EN" "http://www.w3.org/Graphics/SVG/1.1/DTD/svg11.dtd">
<!-- Creator: CorelDRAW 2019 (64-Bit) -->
<svg xmlns="http://www.w3.org/2000/svg" xml:space="preserve" width="1.80514in" height="0.982378in" version="1.1" style="shape-rendering:geometricPrecision; text-rendering:geometricPrecision; image-rendering:optimizeQuality; fill-rule:evenodd; clip-rule:evenodd"
viewBox="0 0 2109.73 1148.14"
 xmlns:xlink="http://www.w3.org/1999/xlink"
 xmlns:xodm="http://www.corel.com/coreldraw/odm/2003">
 <defs>
  <style type="text/css">
   <![CDATA[
    .fil0 {fill:#997F52;fill-rule:nonzero}
   ]]>
  </style>
 </defs>
 <g id="Layer_x0020_1">
  <metadata id="CorelCorpID_0Corel-Layer"/>
  <g id="_1711879130848">
   <path class="fil0" d="M410.86 617.95c0,-5.48 3.37,-8.84 7.94,-8.84 7.91,0 14.93,8.25 27.42,16.15 25.91,16.18 49.97,21.95 81.06,21.95 32.3,0 50,-12.5 50,-28.66 0,-18.58 -21.04,-28.02 -62.79,-42.07 -28.66,-9.73 -50.61,-15.84 -63.11,-24.06 -17.66,-11.9 -26.2,-25.6 -26.2,-43.58 0,-31.7 28.34,-54.88 71.01,-54.88 20.44,0 32.94,3.97 37.79,3.97 4.88,0 7.02,-1.83 9.16,-6.09 1.83,-3.96 4.25,-6.1 7.93,-6.1 5.48,0 10.65,4.28 17.36,12.18l24.4 28.34c5.77,6.71 9.45,11.59 9.45,16.78 0,4.89 -3.97,8.54 -8.85,8.54 -7.02,0 -14.65,-6.99 -27.74,-14.93 -16.16,-9.76 -31.08,-14.95 -46.33,-14.95 -20.72,0 -31.99,7.02 -31.99,17.06 0,15.87 25.28,18.29 68.55,31.11 53.66,15.84 78.65,37.79 78.65,78.63 0,40.25 -33.22,68.87 -92.36,68.87 -36.59,0 -59.73,-7.62 -68.58,-7.62 -6.11,0 -7.94,14.96 -18.29,14.96 -6.4,0 -10.05,-5.19 -15.53,-14.02l-22.86 -36.9c-4.28,-6.71 -6.11,-12.18 -6.11,-15.84z"/>
   <path class="fil0" d="M763.53 651.29c32.91,0 54.57,-26.83 54.57,-74.69 0,-55.46 -24.68,-92.64 -54.57,-92.64 -15.55,0 -28.34,9.44 -39.01,27.71 -9.45,16.5 -15.84,39.33 -15.84,63.42 0,46.92 22.86,76.2 54.85,76.2zm-99.07 -140.82c21.63,-33.22 59.45,-53.66 98.47,-53.66 31.68,0 62.47,12.81 84.11,34.75 23.17,23.15 35.05,52.12 35.05,85.94 0,62.82 -44.49,103.35 -117.96,103.35 -76.49,0 -120.1,-38.11 -120.1,-101.21 0,-24.69 6.71,-48.15 20.44,-69.18z"/>
   <path class="fil0" d="M871.63 664.39c0,-9.13 7.62,-9.76 14.62,-13.1 5.19,-2.45 6.73,-6.11 6.73,-13.41l0 -137.77c0,-7.3 -1.54,-11.27 -6.73,-13.73 -7,-3.34 -14.62,-3.93 -14.62,-13.1 0,-9.13 6.11,-12.78 18.3,-12.78l60.33 0c12.19,0 18.3,3.65 18.3,12.78 0,9.17 -7.3,9.76 -14.32,13.1 -5.19,2.46 -7,6.42 -7,13.73l0 133.2c0,8.54 4.57,13.11 12.79,13.11l32 0c16.46,0 29.28,-3.98 42.98,-13.11 12.51,-8.24 19.81,-15.83 26.84,-15.83 4.88,0 8.53,3.65 8.53,9.13 0,4.57 -2.14,7.91 -4.56,11.59l-24.71 40.21c-4.26,7.02 -7.28,10.99 -12.79,10.99 -6.99,0 -10.36,-12.22 -24.06,-12.22l-114.3 0c-12.19,0 -18.3,-3.62 -18.3,-12.79z"/>
   <path class="fil0" d="M1119.72 658.29c-33.46,-18.89 -51.69,-49.97 -51.69,-88.7 0,-31.08 11.96,-58.79 34.68,-79.54 22.69,-21.03 55.26,-33.22 91.39,-33.22 15.56,0 28.37,3.05 38.53,3.05 9.56,0 9.56,-10.35 18.21,-10.35 6.28,0 8.08,7.62 13.47,20.72l8.37 20.43c5.37,13.38 8.65,21.95 8.65,25.88 0,4.89 -3.29,8.25 -6.86,8.25 -6,0 -11.08,-7.33 -20.92,-16.16 -17.92,-16.16 -35.25,-24.4 -55.25,-24.4 -38.25,0 -67.21,32.62 -67.21,78.65 0,51.2 28.05,82.6 73.77,82.6 17.92,0 25.37,-4.88 25.37,-17.07l0 -26.51c0,-7.34 -1.48,-10.67 -6.56,-13.41 -6.57,-3.37 -13.45,-3.97 -13.45,-12.5 0,-8.85 5.4,-12.5 17.04,-12.5l56.45 0c11.64,0 17.02,3.36 17.02,12.18 0,8.85 -7.17,9.45 -13.73,12.81 -4.77,2.42 -6.28,6.39 -6.28,13.41l0 35.33c0,7.66 1.51,11 6.59,13.73 6.85,3.66 14.33,3.98 14.33,13.1 0,9.17 -6,13.1 -17.93,13.1l-56.77 0c-42.41,0 -77.06,-1.83 -107.22,-18.9z"/>
   <path class="fil0" d="M1401.7 582.71c0,6.08 5.96,7.31 19.72,7.31 20.89,0 31.97,-3.34 31.97,-7.91 0,-2.45 -0.63,-4.6 -1.51,-7.02l-18.52 -52.12c-1.2,-3.36 -2.68,-5.19 -3.85,-5.19 -1.51,0 -3.59,1.83 -4.8,5.19l-21.8 54.26c-0.6,1.82 -1.2,3.96 -1.2,5.48zm-88.42 82.91c0,-11.27 8.08,-11.27 15.24,-14.33 7.76,-3.36 12.24,-12.22 18.52,-25.91l69.9 -155.15c4.19,-9.13 2.97,-9.73 13.13,-9.73l25.68 0c8.08,0 8.67,0.28 12.56,10.96l55.54 153.61c5.39,15.24 7.76,23.49 18.83,28.66 6.85,3.06 12.25,4.28 12.25,13.41 0,7.62 -4.48,10.04 -13.45,10.04l-66.02 0c-11.04,0 -16.41,-2.11 -16.41,-11.56 0,-4.6 2.37,-8.22 7.16,-10.36 4.46,-2.14 8.65,-1.86 8.65,-8.54 0,-3.65 -3.28,-14.33 -7.48,-20.12 -5.66,-7.94 -11.64,-9.77 -22.4,-9.77l-34.93 0c-11.05,0 -19.13,2.14 -23.29,6.11 -5.68,5.48 -11.05,18.27 -11.05,25.29 0,3.94 2.37,4.88 6.85,7.02 6,2.74 9.25,5.76 9.25,11.27 0,6.39 -4.45,10.64 -12.52,10.64l-53.18 0c-8.36,0 -12.84,-4.25 -12.84,-11.56z"/>
   <path class="fil0" d="M1663.95 591.24c34.68,0 54.08,-17.67 54.08,-50.61 0,-33.22 -19.41,-53.02 -53.78,-53.02 -20.01,0 -26.57,4.25 -26.57,18.29l0 58.82c0,21.01 5.08,26.51 26.26,26.51zm-19.41 60.06c6.87,3.33 14.03,3.96 14.03,13.1 0,9.14 -5.96,12.78 -17.92,12.78l-59.14 0c-11.96,0 -17.92,-3.64 -17.92,-12.78 0,-9.13 7.45,-9.76 14.33,-13.1 5.08,-2.46 6.59,-6.4 6.59,-13.73l0 -137.46c0,-7.34 -1.51,-11.27 -6.59,-13.73 -6.87,-3.36 -14.33,-3.96 -14.33,-13.1 0,-9.17 5.96,-12.81 17.92,-12.81l73.78 0c34.34,0 62.14,3.65 86.62,19.21 26.57,16.78 41.21,41.75 41.21,66.76 0,28.96 -17.33,48.74 -51.37,58.51l27.8 33.24c6.54,7.6 11.33,13.39 20.6,16.76 6.85,2.42 10.44,4.88 10.44,10.96 0,6.99 -5.37,11.27 -15.52,11.27l-70.81 0c-8.36,0 -12.52,-4.28 -12.52,-10.64 0,-14.02 15.21,-12.5 15.21,-15.83 0,-3.69 -9.85,-14.65 -28.66,-33.85 -17.61,1.22 -28.08,-0.92 -31.97,-0.92 -5.68,0 -8.65,3.34 -8.65,9.44l0 12.19c0,7.33 1.77,11.27 6.86,13.73z"/>
   <path class="fil0" d="M776.13 725.81c58.77,116.19 180.24,196.76 319.34,196.76 139.66,0 260.55,-80.26 319.06,-197.16l-638.4 0.4z"/>
   <path class="fil0" d="M1414.53 407.52c-58.17,-117.95 -178.66,-198.16 -319.06,-198.16 -139.88,0 -260.95,81.02 -319.37,198.24l638.43 -0.08z"/>
   <path class="fil0" d="M1557.46 407.88c-65.65,-192.2 -247.77,-330.39 -462.19,-330.39 -214.43,0 -396.55,138.2 -462.19,330.39l-81.29 0.17c68.3,-235.72 285.75,-408.05 543.48,-408.05 257.52,0 474.86,172.08 543.34,407.53l-81.14 0.35z"/>
   <path class="fil0" d="M1556.65 726.07c-66.3,191 -247.82,328.1 -461.39,328.1 -213.58,0 -395.12,-137.11 -461.42,-328.1l-81.4 -0.17c69.03,234.55 285.92,405.73 542.82,405.73 256.87,0 473.78,-171.18 542.79,-405.73l-81.4 0.17z"/>
   <path class="fil0" d="M181.95 934.2c0,31.08 -62.5,60.34 -89.9,59.39 0,-3.65 0.32,-7.04 1.85,-10.44 20.32,-3.99 75.75,-22.49 75.75,-48.94 0,-8.62 -8.33,-11.7 -15.1,-11.7 -27.4,0 -84.65,32.94 -84.65,64.33 0,45.87 78.2,34.8 78.2,85.28 0,45.87 -54.79,55.4 -90.21,55.4 -21.86,0 -57.88,-4.6 -57.88,-28.28 0,-22.49 27.09,-34.2 60.33,-34.2 16.02,0 32.33,3.71 47.72,7.39 0.31,2.17 -1.55,10.48 -3.08,10.48 -5.54,0 -29.85,-6.8 -47.41,-6.8 -12.93,0 -45.23,4.31 -45.23,21.26 0,17.21 32.62,17.84 45.23,17.84 26.8,0 78.2,-4.91 78.2,-41.55 0,-39.39 -78.2,-34.48 -78.2,-82.2 0,-44.04 58.2,-80.03 97.59,-80.03 13.55,0 26.79,7.39 26.79,22.78z"/>
   <path class="fil0" d="M216.74 988.98c0,-6.48 4.63,-14.78 11.39,-14.78 4.62,0 7.08,4.62 7.08,8.65 0,7.08 -3.69,14.76 -11.71,14.76 -4.91,0 -6.76,-3.99 -6.76,-8.62zm7.99 30.17l-38.48 84.37c-2.17,4.31 -3.08,7.39 -3.08,8.33 0,0.6 0.32,1.51 1.23,1.51 5.57,0 49.58,-34.47 49.58,-34.47 0.32,-0.6 2.77,-1.55 3.68,-1.55 1.23,0 1.23,3.99 1.23,7.71 0,6.16 -52.32,42.47 -62.48,42.47 -6.76,0 -9.85,-2.14 -9.85,-7.08 0,-8.59 14.76,-36.96 18.47,-45.23l-0.63 -0.63c-3.08,2.45 -17.52,17.84 -20.01,17.84 -1.85,0 -3.4,-2.14 -3.4,-6.14 0,-6.17 33.25,-32.62 36.33,-38.78l12.93 -28.34 14.47 0z"/>
   <path class="fil0" d="M255.2 1096.44l0.62 0.6c13.54,-15.07 78.18,-80.03 95.13,-80.03 5.54,0 7.68,3.06 7.68,7.08 0,3.08 -32.94,72.67 -38.15,85.56 -0.63,1.57 -0.63,4.03 0.91,4.03 8.3,0 47.4,-32.94 52.03,-37.59 0.31,-0.29 2.14,0.62 2.14,3.11 0,4.63 0.32,7.68 -4.28,12.31 -8.33,8.3 -45.89,36.01 -58.82,36.01 -6.13,0 -9.22,-2.17 -9.22,-8.9 0,-7.7 35.39,-74.52 35.39,-78.83 0,-1.26 0,-2.77 -1.54,-2.77 -1.23,0 -30.76,23.37 -52.03,45.24l-28.94 29.88c-5.23,5.54 -13.85,15.39 -18.47,15.39 -2.45,0 -6.17,-1.86 -5.85,-4.59 0.94,-8.02 12.93,-31.74 17.24,-43.1l1.22 -3.74c0,0.34 -16.29,16.33 -17.53,16.33 -2.17,0 -3.08,-1.51 -3.08,-7.05 0,-6.48 28.95,-25.88 35.4,-40.04 6.48,-14.47 8.61,-26.17 18.78,-26.17 2.77,0.63 5.53,0.63 5.53,3.08 0,2.45 -2.45,5.85 -3.36,8.33l-30.79 65.87z"/>
   <path class="fil0" d="M442.64 1016.08c9.85,0 22.18,3.08 22.18,15.7 0,1.55 -7.71,29.89 -14.79,29.89 -7.08,0 -7.08,-2.48 -7.08,-4.02 0.6,-6.48 9.54,-17.83 9.54,-24 0,-5.85 -6.46,-7.71 -11.08,-7.71 -12.01,0 -58.51,31.4 -58.51,65.9 0,14.76 3.4,24.6 20.32,24.6 26.17,0 64.36,-39.08 66.49,-39.08 2.48,0 3.08,4.29 3.08,5.54 0,3.05 -0.6,5.22 -3.4,7.39 -15.98,13.54 -38.78,37.22 -73.86,37.22 -19.72,0 -23.72,-15.98 -23.72,-42.16 0,-31.09 48.35,-69.27 70.81,-69.27z"/>
   <path class="fil0" d="M534.06 1025.95c-16.33,0 -51.43,31.7 -53.88,48.94 3.08,0.63 5.85,0.92 8.93,0.92 28.32,0 55.43,-20.32 55.43,-42.18 0,-5.23 -4.94,-7.67 -10.48,-7.67zm2.46 -9.85c12.62,0 20.32,6.17 20.32,16.29 0,28.94 -30.16,53.26 -68.32,53.26l-11.1 0c-1.23,14.16 0.3,30.79 19.09,30.79 31.71,0 68.64,-40.02 71.12,-40.02 1.83,0 2.45,4.31 2.45,5.54 0,4.62 -2.17,6.76 -4.94,8.93 -14.76,11.67 -40.93,36.62 -72.35,36.62 -23.69,0 -27.69,-16.93 -27.69,-43.07 0,-29.6 46.46,-68.35 71.41,-68.35z"/>
   <path class="fil0" d="M1579.04 1127.51c27.72,-41.24 46.49,-87.42 68.04,-131.43l-0.6 -0.63c-3.71,4.31 -24.31,17.87 -28.66,17.87 -2.14,0 -2.77,-3.08 -2.77,-4.63 0,-3.68 3.71,-6.17 8.62,-8.93 3.7,-2.14 10.79,-4.91 28.94,-21.54 6.48,-5.86 10.47,-26.17 23.69,-26.17 3.4,0 5.54,2.48 5.54,5.25 0,3.99 -2.42,10.44 -11.98,20.01 -7.08,7.08 -8.62,12.29 -12.62,21.54 -24.94,57.57 -42.78,96.67 -63.73,127.75l-14.47 0.92z"/>
   <path class="fil0" d="M1730.16 1035.18c0,10.79 4.94,17.84 16.01,17.84 14.79,0 30.17,-15.99 39.1,-26.46 1.55,0.91 5.23,4.31 5.23,6.13 0,6.17 -22.16,30.79 -47.41,30.79 -16.33,0 -25.85,-13.24 -25.85,-28.62 0,-37.87 36.33,-82.82 76.03,-82.82 22.77,0 34.19,12.93 34.19,34.79 0,45.87 -61.9,120.38 -115.45,156.72 -2.79,1.83 -6.17,4.59 -9.87,4.59 -2.46,0 -6.45,-1.2 -6.45,-4.28 0,-1.86 3.39,-4.03 7.99,-7.43 39.41,-27.39 110.85,-102.17 110.85,-150.84 0,-14.16 -7.39,-21.86 -21.86,-21.86 -31.11,0 -62.51,42.18 -62.51,71.44z"/>
   <path class="fil0" d="M1937.61 1005.3c5.54,-10.16 11.71,-21.55 16.33,-31.4 0.92,-2.14 3.37,-2.48 5.51,-2.48 2.48,0 5.25,1.86 5.25,3.4 0,3.4 -42.18,82.52 -42.18,83.74 0,2.48 14.19,2.48 16.01,2.48 3.68,0 7.71,-0.63 11.11,-0.63 1.22,0 4.9,0 4.9,1.54 0,2.77 -3.08,10.16 -9.85,10.16 -8.61,0 -17.23,-1.85 -28.02,-1.85l-20.61 48.35c-1.54,3.68 -3.4,8.91 -8.33,8.91 -2.77,0 -5.54,-1.23 -5.54,-4.28 0,-9.54 19.41,-42.82 22.18,-54.21 -12.02,-2.14 -34.48,-4.62 -46.81,-4.62 -6.45,0 -13.21,17.24 -23.69,17.24 -3.71,0 -6.48,-1.23 -6.48,-5.54 0,-8.3 11.1,-15.7 17.56,-19.06 7.7,-4.03 6.45,-4.34 11.38,-11.11 23.72,-32.62 43.41,-87.1 45.55,-91.75 3.08,-6.14 3.08,-9.54 8.96,-9.54 3.68,0 6.14,0.91 6.14,4.62 0,5.22 -33.25,74.21 -53.57,105 13.56,1.51 28.03,4.6 41.56,4.6 4.94,0 4.94,0 7.39,-4.31l25.26 -49.26z"/>
   <path class="fil0" d="M1996.67 983.14c0,-11.07 17.24,-20.31 18.47,-30.48 0,-1.83 4.62,-1.83 6.17,-1.83 2.17,0 4.94,0.6 6.45,0.6 0.94,0 0,1.55 1.26,1.55 1.55,0 7.39,-1.55 16.33,-1.55 5.23,0 23.37,3.08 35.08,3.08 7.39,0 15.1,-1.23 22.46,-1.23 5.25,0 6.8,0.31 6.8,1.54 0.31,4 -0.32,7.08 -9.56,18.47 -23.37,32.31 -32,50.18 -45.87,80.66 -12.93,28.02 -23.09,50.8 -35.11,70.18 -3.36,5.56 -4.9,7.1 -11.66,7.1 -2.46,0 -5.86,-0.94 -5.86,-3.74 0,-2.14 11.39,-19.69 13.24,-23.06 29.85,-54.83 34.16,-76.98 76.95,-138.26 -16.33,0.94 -32.94,-3.68 -49.26,-3.68 -5.82,0 -11.38,0.32 -16.92,1.85 -3.08,0.94 -3.4,1.83 -4.62,4.62 -2.46,5.54 -11.39,20.95 -18.47,20.95 -4.3,0 -5.85,-4.02 -5.85,-6.8z"/>
   <path class="fil0" d="M1862.88 517.47c9.68,0 24.77,1.44 24.77,-12.7 0,-10.47 -9.36,-11.72 -17.95,-11.72l-19.67 0 0 24.42 12.85 0zm32.54 38.73l-10.31 0 -19.69 -32.04 -15.39 0 0 32.04 -8.9 0 0 -69.8 30.65 0c5.7,0 11.58,0 16.8,3.79 5.08,2.86 8.1,9.19 7.93,14.93 0,13.79 -9.84,18.87 -21.89,19.04l20.78 32.04zm-83.97 -34.75c0,29.5 23.66,53 53.03,53 29.37,0 52.69,-23.49 52.69,-53 0,-29.2 -23.32,-52.86 -52.69,-52.86 -29.37,0 -53.03,23.66 -53.03,52.86zm115.08 -0.15c0,34.73 -27.77,62.36 -62.05,62.36 -34.45,0 -62.38,-27.63 -62.38,-62.36 0,-34.3 27.93,-61.91 62.38,-61.91 34.28,0 62.05,27.6 62.05,61.91z"/>
  </g>
 </g>
</svg>
