<?xml version="1.0" encoding="UTF-8"?>
<!DOCTYPE svg PUBLIC "-//W3C//DTD SVG 1.1//EN" "http://www.w3.org/Graphics/SVG/1.1/DTD/svg11.dtd">
<!-- Creator: CorelDRAW 2019 (64-Bit) -->
<svg xmlns="http://www.w3.org/2000/svg" xml:space="preserve" width="2.27923in" height="0.782028in" version="1.1" style="shape-rendering:geometricPrecision; text-rendering:geometricPrecision; image-rendering:optimizeQuality; fill-rule:evenodd; clip-rule:evenodd"
viewBox="0 0 2948.88 1011.79"
 xmlns:xlink="http://www.w3.org/1999/xlink"
 xmlns:xodm="http://www.corel.com/coreldraw/odm/2003">
 <defs>
  <style type="text/css">
   <![CDATA[
    .fil0 {fill:#0098DA}
   ]]>
  </style>
 </defs>
 <g id="Layer_x0020_1">
  <metadata id="CorelCorpID_0Corel-Layer"/>
  <path class="fil0" d="M-0 18.24c36.37,0 72.73,0 109.1,0 -8.61,39.48 -14.91,83.98 -14.79,142.38 0,106.64 0,213.27 0,319.91 26.29,211.46 337.53,147.87 343.95,0 0,-109.72 0,-219.44 0,-329.16 2.24,-43.86 -3.31,-88.24 -16.65,-133.13 36.99,0 73.97,0 110.95,0 -11.61,41.25 -17.28,87.26 -18.49,136.84 0,122.66 0,245.32 0,367.98 -0.02,51.57 0.92,102.4 18.49,140.53 -33.29,0 -66.57,0 -99.85,0 8.56,-27.19 9.1,-62.39 7.4,-99.85 -111.56,178.71 -409.21,143.92 -423.46,-70.27 0,-110.95 0,-221.9 0,-332.85 2.26,-52.64 -5.79,-98.49 -16.64,-142.38zm2561.43 -3c118.87,0 237.74,0 356.62,0 -14.78,28.27 -29.56,56.54 -44.34,84.82 -76.14,-27.63 -150.68,-42.42 -221.67,-28.92 0,77.75 0,155.5 0,233.24 71.96,0 143.93,0 215.9,0 -13.49,25.7 -26.99,51.41 -40.48,77.11 -66.18,-25.71 -124.66,-35.99 -175.41,-30.84 0,88.67 0,177.34 0,266.01 172.29,-2.71 248.08,-25.53 296.85,-53.97 -18.63,34.06 -37.27,68.11 -55.9,102.16 -112.45,0 -224.9,0 -337.34,0 14.14,-38.55 20.56,-87.39 19.28,-146.5 0,-113.09 0,-226.18 0,-339.27 1.61,-54.61 0.33,-109.23 -13.49,-163.84zm-132.51 20.1c0,35.51 0,71.03 0,106.55 -99.39,-71.31 -208.49,-113.5 -352.25,-51.72 -149.13,73.31 -177.65,242.37 -112.98,378.84 87.51,128.49 221.54,172.79 402.09,132.92 0,-50.4 0,-100.8 0,-151.2 1.67,-39.05 -8.86,-75.05 -24.92,-109.66 39.33,0 78.66,0 117.98,0 -16.62,36.55 -24.38,73.11 -23.27,109.66 0,67.01 0,134.03 0,201.04 -167.54,33.52 -319.85,32.42 -438.65,-44.86 -138.46,-106.34 -176.12,-243.14 -106.34,-407.08 120.4,-213.43 320.36,-217.24 538.35,-164.49zm-1218.24 628.45c35.95,-42.06 63.48,-92.53 87.18,-146.83l250.83 -516.96 272.24 555.2c19.37,40.53 44.86,77.75 76.47,110.12l-142.25 0c3.06,-34.16 -4.07,-68.31 -21.4,-102.48l-48.94 -105.53 -284.48 0 -52 111.65c-17.34,29.32 -23.46,61.44 -24.47,94.83l-113.18 0zm220.25 -267.66l113.18 -247.77 114.71 247.77 -227.89 0zm-383.67 -377.89c36.37,0 72.73,0 109.1,0 -8.61,39.48 -14.91,83.98 -14.79,142.38 0,120.22 0,240.44 0,360.66 -0.12,58.4 6.18,102.91 14.79,142.38 -36.36,0 -72.73,0 -109.1,0 10.85,-43.89 18.9,-89.74 16.64,-142.37 0,-120.23 0,-240.45 0,-360.68 2.26,-52.64 -5.79,-98.49 -16.64,-142.38zm-442.58 1.65c0,26.51 0,53.01 0,79.51 139.23,-31.44 229,14.87 225.6,118.35 -4.55,93.49 -80.03,153.93 -216.35,144.23 -5.28,14.31 9.81,39.5 38.83,72.12 73.97,80.13 147.93,160.26 221.9,240.39 94.03,99.63 157.75,141.8 232.99,114.64 -146.35,-133.15 -267.6,-264.91 -371.68,-395.72 107.04,-23.24 166.42,-85.86 168.28,-196.01 -11.1,-141.77 -123.81,-188.97 -299.56,-177.52zm-58.35 873.93l23.99 0 0 62.83c0,9.97 0.31,16.45 0.89,19.4 1.02,4.75 3.48,8.56 7.33,11.43 3.87,2.89 9.15,4.32 15.85,4.32 6.81,0 11.95,-1.35 15.41,-4.07 3.46,-2.7 5.53,-6.05 6.22,-9.99 0.72,-3.97 1.05,-10.54 1.05,-19.72l0 -64.18 23.99 0 0 60.94c0,13.94 -0.64,23.77 -1.94,29.52 -1.3,5.76 -3.68,10.59 -7.17,14.56 -3.48,3.95 -8.16,7.11 -13.97,9.46 -5.84,2.35 -13.47,3.51 -22.88,3.51 -11.34,0 -19.95,-1.27 -25.81,-3.84 -5.87,-2.57 -10.49,-5.89 -13.89,-9.97 -3.4,-4.08 -5.64,-8.37 -6.72,-12.86 -1.58,-6.65 -2.35,-16.45 -2.35,-29.45l0 -61.88zm2282.4 117.99l0 -116.01 88.08 0 0 19.64 -64.1 0 0 25.71 59.64 0 0 19.53 -59.64 0 0 31.58 66.37 0 0 19.55 -90.35 0zm-1799.9 0l0 -96.38 -35.24 0 0 -19.64 94.42 0 0 19.64 -35.17 0 0 96.38 -24.01 0zm220.74 0l0 -116.01 24.01 0 0 45.64 47 0 0 -45.64 23.98 0 0 116.01 -23.98 0 0 -50.73 -47 0 0 50.73 -24.01 0zm256.56 0l0 -116.01 88.08 0 0 19.64 -64.1 0 0 25.71 59.65 0 0 19.53 -59.65 0 0 31.58 66.37 0 0 19.55 -90.35 0zm275.92 -66.96l17.74 0c11.51,0 18.7,-0.46 21.58,-1.41 2.85,-0.95 5.09,-2.59 6.72,-4.92 1.6,-2.32 2.43,-5.22 2.43,-8.7 0,-3.92 -1.08,-7.05 -3.21,-9.45 -2.12,-2.4 -5.14,-3.92 -9.04,-4.56 -1.94,-0.24 -7.77,-0.38 -17.51,-0.38l-18.7 0 0 29.42zm-24.01 66.96l0 -116.01 50.51 0c12.7,0 21.91,1.05 27.66,3.13 5.76,2.08 10.38,5.78 13.83,11.1 3.46,5.35 5.17,11.43 5.17,18.29 0,8.7 -2.63,15.91 -7.85,21.58 -5.23,5.64 -13.09,9.24 -23.52,10.7 5.2,2.97 9.49,6.21 12.87,9.75 3.38,3.54 7.91,9.81 13.64,18.83l14.52 22.64 -28.68 0 -17.34 -25.26c-6.17,-9.02 -10.38,-14.69 -12.65,-17.04 -2.27,-2.35 -4.67,-3.94 -7.22,-4.83 -2.55,-0.87 -6.56,-1.29 -12.09,-1.29l-4.84 0 0 48.43 -24.01 0zm268.4 0l0 -116.01 35.91 0 21.55 79.14 21.3 -79.14 35.99 0 0 116.01 -22.27 0 0 -91.33 -23.6 91.33 -23.1 0 -23.51 -91.33 0 91.33 -22.27 0zm351.37 -45.89l-16.38 -43.06 -16.05 43.06 32.42 0zm44.18 45.89l-26.12 0 -10.38 -26.37 -47.49 0 -9.8 26.37 -25.45 0 46.28 -116.01 25.37 0 47.58 116.01zm161.56 0l0 -115.07 23.99 0 0 95.52 59.64 0 0 19.55 -83.63 0zm-2553.7 -1.97l0 -116.01 88.08 0 0 19.64 -64.1 0 0 25.71 59.64 0 0 19.53 -59.64 0 0 31.58 66.37 0 0 19.55 -90.35 0zm318.86 -45.89l-16.38 -43.06 -16.05 43.06 32.43 0zm44.18 45.89l-26.12 0 -10.38 -26.37 -47.5 0 -9.79 26.37 -25.45 0 46.28 -116.01 25.37 0 47.59 116.01z"/>
 </g>
</svg>
