<?xml version="1.0" encoding="UTF-8"?>
<!DOCTYPE svg PUBLIC "-//W3C//DTD SVG 1.1//EN" "http://www.w3.org/Graphics/SVG/1.1/DTD/svg11.dtd">
<!-- Creator: CorelDRAW 2019 (64-Bit) -->
<svg xmlns="http://www.w3.org/2000/svg" xml:space="preserve" width="2.14306in" height="0.64915in" version="1.1" style="shape-rendering:geometricPrecision; text-rendering:geometricPrecision; image-rendering:optimizeQuality; fill-rule:evenodd; clip-rule:evenodd"
viewBox="0 0 2034.58 616.29"
 xmlns:xlink="http://www.w3.org/1999/xlink"
 xmlns:xodm="http://www.corel.com/coreldraw/odm/2003">
 <defs>
  <style type="text/css">
   <![CDATA[
    .fil0 {fill:#848688}
   ]]>
  </style>
 </defs>
 <g id="Layer_x0020_1">
  <metadata id="CorelCorpID_0Corel-Layer"/>
  <g id="_1713023772912">
   <path class="fil0" d="M253.56 614.73l-36.41 0 0 -78.56 7.99 0 0 70.95 28.41 0 0 7.61zm90.27 0l-8.37 0 31.35 -78.56 9.55 0 31.25 78.56 -8.48 0 -9.66 -24.66 -35.98 0 -9.66 24.66zm42.85 -31.73l-15.32 -39.45 -15.1 39.45 30.42 0zm116.36 -5.4l0 29.63 11.16 0c6.55,0 11.39,-1.2 14.51,-3.61 3.12,-2.41 4.7,-6.13 4.7,-11.12 0,-5.01 -1.59,-8.73 -4.77,-11.2 -3.18,-2.47 -7.99,-3.7 -14.44,-3.7l-11.16 0zm0 -33.94l0 26.44 4.77 0c7.84,0 13.34,-1.05 16.46,-3.15 3.12,-2.12 4.7,-5.56 4.7,-10.35 0,-4.5 -1.51,-7.77 -4.55,-9.83 -3.05,-2.08 -7.9,-3.11 -14.55,-3.11l-6.84 0zm-7.6 -7.49l15.04 0c9.15,0 15.86,1.67 20.16,5.05 4.3,3.37 6.44,8.6 6.44,15.72 0,3.59 -0.72,6.67 -2.16,9.23 -1.46,2.56 -3.61,4.64 -6.5,6.26 4.36,1.77 7.64,4.23 9.81,7.42 2.18,3.19 3.28,7.07 3.28,11.68 0,7.99 -2.27,13.85 -6.8,17.59 -4.53,3.74 -11.67,5.62 -21.41,5.62l-17.87 0 0 -78.56zm143.82 38.91c0,9.56 3.2,17.59 9.6,24.07 6.4,6.46 14.3,9.7 23.7,9.7 9.17,0 16.91,-3.28 23.24,-9.82 6.33,-6.56 9.49,-14.62 9.49,-24.18 0,-8.93 -3.26,-16.61 -9.78,-23.07 -6.5,-6.47 -14.34,-9.69 -23.53,-9.69 -3.73,0 -7.33,0.63 -10.78,1.86 -3.47,1.25 -6.65,3.08 -9.59,5.49 -3.85,3.15 -6.87,7.02 -9.07,11.6 -2.2,4.57 -3.3,9.24 -3.3,14.03zm-8.32 -0.11c0,-5.47 1.08,-10.7 3.24,-15.65 2.18,-4.97 5.3,-9.41 9.42,-13.33 3.96,-3.78 8.32,-6.61 13.07,-8.53 4.76,-1.9 9.91,-2.86 15.46,-2.86 5.65,0 10.89,0.96 15.72,2.89 4.83,1.92 9.24,4.79 13.24,8.6 4.11,3.92 7.2,8.31 9.27,13.17 2.06,4.86 3.11,10.09 3.11,15.71 0,5.56 -0.89,10.68 -2.67,15.34 -1.76,4.66 -4.43,8.89 -7.97,12.7 -4.11,4.4 -8.75,7.7 -13.95,9.93 -5.17,2.23 -10.79,3.35 -16.86,3.35 -11.61,0 -21.37,-3.96 -29.25,-11.9 -7.88,-7.94 -11.82,-17.75 -11.82,-29.43zm182.07 -31.09l0 70.84 -7.82 0 0 -78.56 21.71 0c4.77,0 8.6,0.35 11.52,1.05 2.9,0.7 5.53,1.86 7.9,3.48 3.22,2.19 5.76,5.12 7.63,8.8 1.88,3.66 2.81,7.55 2.81,11.65 0,6.08 -1.86,11.31 -5.57,15.69 -3.73,4.4 -8.37,6.8 -13.96,7.18l19.53 30.7 -9.44 0 -23.98 -37.88 7.65 0c5.11,0 9.26,-1.45 12.47,-4.37 3.2,-2.91 4.81,-6.66 4.81,-11.23 0,-2.76 -0.49,-5.29 -1.48,-7.55 -0.97,-2.27 -2.43,-4.23 -4.36,-5.93 -1.59,-1.4 -3.51,-2.4 -5.74,-3.01 -2.24,-0.59 -6.23,-0.88 -11.97,-0.88l-11.71 0zm136.34 70.84l-8.37 0 31.35 -78.56 9.55 0 31.26 78.56 -8.48 0 -9.66 -24.66 -35.98 0 -9.66 24.66zm42.85 -31.73l-15.32 -39.45 -15.1 39.45 30.43 0zm121.96 31.73l-7.94 0 0 -70.84 -16.16 0 0 -7.71 40.26 0 0 7.71 -16.16 0 0 70.84zm106.3 -39.65c0,9.56 3.2,17.59 9.6,24.07 6.4,6.46 14.3,9.7 23.7,9.7 9.17,0 16.91,-3.28 23.24,-9.82 6.33,-6.56 9.49,-14.62 9.49,-24.18 0,-8.93 -3.26,-16.61 -9.78,-23.07 -6.5,-6.47 -14.34,-9.69 -23.53,-9.69 -3.73,0 -7.33,0.63 -10.78,1.86 -3.47,1.25 -6.65,3.08 -9.59,5.49 -3.85,3.15 -6.88,7.02 -9.08,11.6 -2.19,4.57 -3.29,9.24 -3.29,14.03zm-8.32 -0.11c0,-5.47 1.08,-10.7 3.24,-15.65 2.18,-4.97 5.3,-9.41 9.42,-13.33 3.96,-3.78 8.32,-6.61 13.07,-8.53 4.76,-1.9 9.91,-2.86 15.46,-2.86 5.64,0 10.89,0.96 15.72,2.89 4.83,1.92 9.24,4.79 13.24,8.6 4.11,3.92 7.2,8.31 9.26,13.17 2.06,4.86 3.11,10.09 3.11,15.71 0,5.56 -0.89,10.68 -2.67,15.34 -1.76,4.66 -4.43,8.89 -7.97,12.7 -4.11,4.4 -8.75,7.7 -13.95,9.93 -5.17,2.23 -10.8,3.35 -16.86,3.35 -11.61,0 -21.37,-3.96 -29.25,-11.9 -7.88,-7.94 -11.82,-17.75 -11.82,-29.43zm183.19 39.76l-7.94 0 0 -78.56 7.94 0 0 78.56zm103.53 -70.84l0 70.84 -7.82 0 0 -78.56 21.71 0c4.77,0 8.6,0.35 11.52,1.05 2.9,0.7 5.53,1.86 7.9,3.48 3.22,2.19 5.76,5.12 7.64,8.8 1.87,3.66 2.8,7.55 2.8,11.65 0,6.08 -1.86,11.31 -5.57,15.69 -3.73,4.4 -8.37,6.8 -13.96,7.18l19.53 30.7 -9.43 0 -23.98 -37.88 7.65 0c5.11,0 9.26,-1.45 12.47,-4.37 3.2,-2.91 4.81,-6.66 4.81,-11.23 0,-2.76 -0.49,-5.29 -1.48,-7.55 -0.97,-2.27 -2.43,-4.23 -4.36,-5.93 -1.59,-1.4 -3.51,-2.4 -5.74,-3.01 -2.24,-0.59 -6.23,-0.88 -11.97,-0.88l-11.71 0zm146.28 27.51l33.97 0 0 7.77 -33.97 0 0 27.95 33.97 0 0 7.61 -41.96 0 0 -78.56 41.96 0 0 7.71 -33.97 0 0 27.51zm126.51 20.88l7.65 0c0.15,4.86 1.57,8.73 4.24,11.6 2.69,2.89 6.22,4.33 10.57,4.33 4.7,0 8.43,-1.44 11.2,-4.29 2.75,-2.86 4.13,-6.74 4.13,-11.64 0,-7.11 -5.66,-12.5 -16.99,-16.13 -0.89,-0.3 -1.55,-0.5 -1.99,-0.64 -5.93,-1.99 -10.19,-4.5 -12.79,-7.54 -2.61,-3.04 -3.92,-7 -3.92,-11.89 0,-6.26 2.01,-11.38 6.03,-15.38 4.01,-4 9.21,-5.99 15.57,-5.99 6.06,0 10.87,1.82 14.44,5.45 3.54,3.63 5.53,8.75 5.93,15.32l-7.5 0c-0.4,-4.29 -1.72,-7.59 -3.94,-9.91 -2.22,-2.32 -5.19,-3.48 -8.92,-3.48 -4,0 -7.27,1.27 -9.8,3.81 -2.53,2.52 -3.81,5.76 -3.81,9.69 0,2.04 0.38,3.81 1.14,5.3 0.76,1.49 1.97,2.85 3.64,4.09 1.7,1.21 4.96,2.58 9.77,4.09 2.77,0.86 4.87,1.57 6.33,2.12 5.25,1.97 9.03,4.49 11.35,7.57 2.31,3.07 3.46,7.11 3.46,12.11 0,7.62 -2.14,13.78 -6.4,18.43 -4.28,4.66 -9.94,6.98 -17.01,6.98 -6.59,0 -11.93,-2.21 -16.05,-6.61 -4.11,-4.4 -6.21,-10.2 -6.32,-17.4z"/>
   <path class="fil0" d="M-0 0l90.86 0 140.95 368.09 148.51 -368.09 83.3 0 -196.41 463.62 -0.13 0 -70.54 0 -0.13 0 -196.41 -463.62zm942.81 0c45.67,0 89.13,7.15 128.43,20l0 65.96c-36.41,-20.55 -96.07,-26.43 -143.79,-26.43 -123.44,0 -209.87,65.33 -208.77,173.84 0,99.18 96.3,177.99 219.74,177.99 47.72,0 113.95,-13.13 150.36,-33.69l0 65.96c-39.31,12.84 -110.18,20 -155.85,20 -174.95,0 -307.77,-83.06 -307.77,-230.26 0,-128.54 142.7,-233.36 317.64,-233.36zm185.6 0l87.56 0 0 193.19 238.8 0 0 -193.19 87.56 0 0 463.62 -87.56 0 0 -208.43 -238.8 0 0 208.43 -87.56 0 0 -463.62zm723.62 278.68l0 184.94 -81.56 0 0 -185.98 -188.52 -277.64 89.38 0 142.04 206.92 139.29 -206.92 81.93 0 -182.55 278.68zm-1348.79 -278.68l82.31 0 0 463.62 -82.31 0 0 -463.62z"/>
  </g>
 </g>
</svg>
