<?xml version="1.0" encoding="UTF-8"?>
<!DOCTYPE svg PUBLIC "-//W3C//DTD SVG 1.1//EN" "http://www.w3.org/Graphics/SVG/1.1/DTD/svg11.dtd">
<!-- Creator: CorelDRAW 2019 (64-Bit) -->
<svg xmlns="http://www.w3.org/2000/svg" xml:space="preserve" width="3.16746in" height="0.526299in" version="1.1" style="shape-rendering:geometricPrecision; text-rendering:geometricPrecision; image-rendering:optimizeQuality; fill-rule:evenodd; clip-rule:evenodd"
viewBox="0 0 2789.35 463.47"
 xmlns:xlink="http://www.w3.org/1999/xlink"
 xmlns:xodm="http://www.corel.com/coreldraw/odm/2003">
 <defs>
  <style type="text/css">
   <![CDATA[
    .fil0 {fill:#ED3237}
   ]]>
  </style>
 </defs>
 <g id="Layer_x0020_1">
  <metadata id="CorelCorpID_0Corel-Layer"/>
  <path class="fil0" d="M2229.87 220.76c6.92,-16.19 9.25,-33.52 12.72,-49.69 0,-23.11 0,-42.77 -5.81,-62.41 -17.31,-43.93 -56.63,-70.5 -102.87,-79.76 -13.85,-1.15 -26.57,-2.31 -40.46,-3.47l0 89c39.31,2.31 60.14,16.18 60.14,56.64 0,38.13 -20.83,57.77 -60.14,60.09l0 132.9 46.24 99.42 102.9 0 -89.01 -186.08c35.82,-10.4 62.4,-26.59 76.28,-56.63l0 0zm464.97 -141.33l-20.71 0 0 -33.21 20.71 0 0.05 0 10.88 0c7.45,0 12.89,1.53 16.36,4.59 3.44,3.05 5.17,6.96 5.17,11.7 0,3.24 -0.9,6.25 -2.67,9.01 -1.79,2.75 -4.39,4.76 -7.83,6.03 -3.43,1.25 -8.18,1.87 -14.24,1.87l-7.68 0 -0.05 0zm0 -44.28l-33.91 0 0 100.22 13.2 0 0 -44.48 15.36 0c2.16,0 3.94,0.06 5.34,0.19l0 0.01c0.8,0.07 1.45,0.16 1.99,0.27 2.06,0.5 4.07,1.38 6.05,2.63 1.98,1.27 4.24,3.5 6.73,6.69 2.52,3.19 5.7,7.8 9.58,13.82l13.25 20.86 16.55 0 -17.33 -27.3c-3.46,-5.32 -7.11,-9.77 -10.98,-13.33 -1.81,-1.65 -4.48,-3.31 -7.98,-5 9.61,-1.33 16.71,-4.42 21.33,-9.3 4.59,-4.87 6.89,-10.85 6.89,-17.96 0,-5.51 -1.4,-10.53 -4.15,-15.1 -2.78,-4.55 -6.51,-7.72 -11.15,-9.53 -4.65,-1.79 -11.44,-2.69 -20.36,-2.69l-10.34 -0 -0.05 0zm-196.79 -8.57l-131.77 168.74 0 -168.74 -100.58 0 0 436.89 100.58 0 0 -165.27 122.53 165.27 112.13 0 -168.78 -225.4 168.78 -211.5 -102.89 0zm203.46 -26.58l0 0 0 17.33c38.14,0 70.5,28.9 70.5,70.52 0,40.45 -32.36,70.49 -70.51,70.49l0 -0 0 19.67c46.24,0 87.83,-40.46 87.83,-90.15 0,-49.7 -41.6,-87.85 -87.83,-87.85l0 0zm0 0c-47.4,0 -87.86,38.15 -87.86,87.85 0,49.68 40.46,90.15 87.86,90.15l0 -19.67c-38.14,0 -70.53,-30.04 -70.53,-70.48 0,-41.63 32.39,-70.52 70.53,-70.52l0 -17.33zm-2174.4 25.42l-159.52 262.37 0 -262.37 -109.81 0 -158.37 262.37 0 -262.37 -99.41 0 0 438.05 99.41 0 175.71 -278.54 0 278.54 92.48 0 272.81 -438.05 -113.29 0zm127.16 354.84l40.46 0 0 83.21 92.48 0 0 -438.05 -102.88 0 -30.05 48.56 0 166.41 40.46 -69.33 0 69.33 0 70.51 -40.46 0 0 69.36zm-238.13 83.21l115.59 0 53.17 -83.21 69.36 0 0 -69.36 -39.3 0 39.3 -70.51 0 -166.41 -238.13 389.49zm500.54 -438.05l-92.49 0 0 438.05 238.13 0 0 -83.21 -145.65 0 0 -354.84zm498.22 0l-169.93 272.76 0 -272.76 -95.95 0 -202.3 319.01 115.59 0 86.7 -145.64 0 264.68 113.27 0 156.05 -264.68 0 264.68 99.42 0 119.06 0 48.56 -83.21 71.65 0 0 -69.36 -38.13 0 35.84 -70.51 2.3 -2.31 0 -161.79 -239.27 387.19 0 -6.93 0 -431.12 -102.87 0zm342.15 354.84l38.17 0 0 83.21 95.95 0 0 -438.05 -102.89 0 -31.23 50.86 0 161.79 38.17 -67.02 0 69.33 0 70.51 -38.17 0 0 69.36zm336.39 -354.84c-19.63,0 -39.28,0 -58.94,0l-100.58 0 0 145.64 0 292.41 100.58 0 0 -166.42c32.36,0 42.75,33.51 52.03,53.13l0 0 6.91 13.87 0 -132.9c-2.28,0 -4.61,0 -6.92,0l0 0 -52.03 0 0 -60.09 0 -56.64 52.03 0c2.3,0 4.63,0 6.91,0l0 -89z"/>
 </g>
</svg>
