<?xml version="1.0" encoding="UTF-8"?>
<!DOCTYPE svg PUBLIC "-//W3C//DTD SVG 1.1//EN" "http://www.w3.org/Graphics/SVG/1.1/DTD/svg11.dtd">
<!-- Creator: CorelDRAW 2019 (64-Bit) -->
<svg xmlns="http://www.w3.org/2000/svg" xml:space="preserve" width="2.19943in" height="0.91222in" version="1.1" style="shape-rendering:geometricPrecision; text-rendering:geometricPrecision; image-rendering:optimizeQuality; fill-rule:evenodd; clip-rule:evenodd"
viewBox="0 0 2078.46 862.05"
 xmlns:xlink="http://www.w3.org/1999/xlink"
 xmlns:xodm="http://www.corel.com/coreldraw/odm/2003">
 <defs>
  <style type="text/css">
   <![CDATA[
    .fil0 {fill:#00A859}
   ]]>
  </style>
 </defs>
 <g id="Layer_x0020_1">
  <metadata id="CorelCorpID_0Corel-Layer"/>
  <path class="fil0" d="M1477.17 424.48c0,32.68 10.84,60.04 32.49,82.21 21.56,22.14 48.01,33.18 79.4,33.18 28.57,0 53.73,-11.13 75.59,-33.29 21.75,-22.26 32.69,-48.22 32.69,-78 0,-31.69 -10.82,-58.85 -32.38,-81.51 -21.66,-22.55 -47.33,-33.88 -77.11,-33.88 -30.56,0 -56.62,10.71 -78.19,32.28 -21.65,21.55 -32.49,47.92 -32.49,79zm-604.13 0c0,32.68 10.84,60.04 32.5,82.21 21.56,22.14 48.01,33.18 79.4,33.18 28.57,0 53.73,-11.13 75.59,-33.29 21.75,-22.26 32.69,-48.22 32.69,-78 0,-31.69 -10.82,-58.85 -32.39,-81.51 -21.65,-22.55 -47.32,-33.88 -77.11,-33.88 -30.56,0 -56.62,10.71 -78.18,32.28 -21.66,21.55 -32.5,47.92 -32.5,79zm784.57 -391.96l-1236.75 0 -0.13 0c-106.67,0.03 -203.66,44.78 -273.98,116.86 -70.46,72.23 -114.22,171.91 -114.23,281.57l0 0.07 0 0.14c0.03,109.6 43.77,209.24 114.2,281.45 70.33,72.12 167.37,116.9 274.07,116.91l0.07 0 1236.75 0 0.13 0c106.65,-0.03 203.64,-44.79 273.96,-116.86 70.47,-72.22 114.24,-171.91 114.24,-281.57l0 -0.07 0 -0.14c-0.03,-109.61 -43.77,-209.26 -114.19,-281.45 -70.34,-72.12 -167.37,-116.9 -274.08,-116.91l-0.07 0zm-1236.75 -32.52l1236.75 0 0.07 0c115.77,0.02 221.03,48.59 297.33,126.81 76.15,78.06 123.43,185.72 123.46,304.08l0 0.14 0 0.07c-0.02,118.39 -47.33,226.11 -123.52,304.19 -76.27,78.17 -181.49,126.73 -297.21,126.76l-0.13 0 -1236.75 0 -0.07 0c-115.76,-0.02 -221.03,-48.59 -297.32,-126.81 -76.14,-78.07 -123.43,-185.74 -123.47,-304.08l0 -0.14 0 -0.07c0.02,-118.4 47.33,-226.12 123.5,-304.19 76.27,-78.18 181.5,-126.73 297.23,-126.76l0.13 0zm840.8 256.74l61.95 0 0 477.01 -61.95 0 0 -477.01zm-607.1 0l61.95 0 0 335.13 -61.95 0 0 -335.13zm435.75 331.35l0 -39.7c-14.83,15.44 -31.47,27.17 -49.74,35.09 -18.33,7.92 -37.89,11.93 -58.64,11.93 -48.53,0 -88.83,-16.24 -121.02,-48.63 -32.08,-32.38 -48.12,-72.98 -48.12,-121.71 0,-22.75 4.02,-44.31 12.03,-64.66 8.03,-20.35 19.45,-38.29 34.38,-53.74 16.24,-17.04 33.99,-29.59 53.23,-37.7 19.37,-8.11 41.33,-12.23 65.99,-12.23 22.16,0 42.51,3.92 61.04,11.75 18.66,7.81 35.6,19.74 50.84,35.58l0 -39.1 58.76 0 0 323.13 -58.76 0zm-542.6 3.78l-273.17 0 179.03 -275.17 -157.42 0 0 -59.97 271.52 0 -172.85 273.12 152.88 0 0 62.01zm1146.73 -3.78l0 -39.7c-14.83,15.44 -31.47,27.17 -49.74,35.09 -18.33,7.92 -37.89,11.93 -58.64,11.93 -48.53,0 -88.83,-16.24 -121.02,-48.63 -32.08,-32.38 -48.12,-72.98 -48.12,-121.71 0,-22.75 4.02,-44.31 12.03,-64.66 8.03,-20.35 19.45,-38.29 34.38,-53.74 16.24,-17.04 33.99,-29.59 53.23,-37.7 19.37,-8.11 41.33,-12.23 65.99,-12.23 22.16,0 42.51,3.92 61.04,11.75 18.66,7.81 35.6,19.74 50.84,35.58l0 -39.1 58.76 0 0 323.13 -58.76 0z"/>
 </g>
</svg>
